<?xml version="1.0" encoding="UTF-8" standalone="no"?>
<!DOCTYPE svg PUBLIC "-//W3C//DTD SVG 1.1//EN"
 "http://www.w3.org/Graphics/SVG/1.1/DTD/svg11.dtd">
<!-- Generated by graphviz version 10.0.1 (20240210.2158)
 -->
<!-- Title: AI Behaviors/AircraftUnit.h Pages: 1 -->
<svg width="512pt" height="252pt"
 viewBox="0.00 0.00 512.38 252.00" xmlns="http://www.w3.org/2000/svg" xmlns:xlink="http://www.w3.org/1999/xlink">
<g id="graph0" class="graph" transform="scale(1 1) rotate(0) translate(4 248)">
<title>AI Behaviors/AircraftUnit.h</title>
<!-- Node1 -->
<g id="Node000001" class="node">
<title>Node1</title>
<g id="a_Node000001"><a xlink:title=" ">
<polygon fill="#999999" stroke="#666666" points="282.5,-244 153.25,-244 153.25,-224 282.5,-224 282.5,-244"/>
<text text-anchor="middle" x="217.88" y="-230.5" font-family="Helvetica,sans-Serif" font-size="10.00">AI Behaviors/AircraftUnit.h</text>
</a>
</g>
</g>
<!-- Node2 -->
<g id="Node000002" class="node">
<title>Node2</title>
<g id="a_Node000002"><a xlink:href="_aircraft_unit_8cpp.html" target="_top" xlink:title=" ">
<polygon fill="white" stroke="#666666" points="139.75,-188 0,-188 0,-168 139.75,-168 139.75,-188"/>
<text text-anchor="middle" x="69.88" y="-174.5" font-family="Helvetica,sans-Serif" font-size="10.00">AI Behaviors/AircraftUnit.cpp</text>
</a>
</g>
</g>
<!-- Node1&#45;&gt;Node2 -->
<g id="edge1_Node000001_Node000002" class="edge">
<title>Node1&#45;&gt;Node2</title>
<g id="a_edge1_Node000001_Node000002"><a xlink:title=" ">
<path fill="none" stroke="#63b8ff" d="M181.32,-219.66C154.79,-209.98 119.55,-197.12 95.86,-188.48"/>
<polygon fill="#63b8ff" stroke="#63b8ff" points="180.08,-222.94 190.67,-223.08 182.48,-216.36 180.08,-222.94"/>
</a>
</g>
</g>
<!-- Node3 -->
<g id="Node000003" class="node">
<title>Node3</title>
<g id="a_Node000003"><a xlink:href="_firehawk_8h.html" target="_top" xlink:title=" ">
<polygon fill="white" stroke="#666666" points="278,-188 157.75,-188 157.75,-168 278,-168 278,-188"/>
<text text-anchor="middle" x="217.88" y="-174.5" font-family="Helvetica,sans-Serif" font-size="10.00">AI Behaviors/Firehawk.h</text>
</a>
</g>
</g>
<!-- Node1&#45;&gt;Node3 -->
<g id="edge2_Node000001_Node000003" class="edge">
<title>Node1&#45;&gt;Node3</title>
<g id="a_edge2_Node000001_Node000003"><a xlink:title=" ">
<path fill="none" stroke="#63b8ff" d="M217.88,-212.13C217.88,-203.9 217.88,-194.85 217.88,-188.3"/>
<polygon fill="#63b8ff" stroke="#63b8ff" points="214.38,-212.08 217.88,-222.08 221.38,-212.08 214.38,-212.08"/>
</a>
</g>
</g>
<!-- Node10 -->
<g id="Node000010" class="node">
<title>Node10</title>
<g id="a_Node000010"><a xlink:href="_hammer_head_8h.html" target="_top" xlink:title=" ">
<polygon fill="white" stroke="#666666" points="436.12,-188 295.62,-188 295.62,-168 436.12,-168 436.12,-188"/>
<text text-anchor="middle" x="365.88" y="-174.5" font-family="Helvetica,sans-Serif" font-size="10.00">AI Behaviors/HammerHead.h</text>
</a>
</g>
</g>
<!-- Node1&#45;&gt;Node10 -->
<g id="edge9_Node000001_Node000010" class="edge">
<title>Node1&#45;&gt;Node10</title>
<g id="a_edge9_Node000001_Node000010"><a xlink:title=" ">
<path fill="none" stroke="#63b8ff" d="M254.43,-219.66C280.96,-209.98 316.2,-197.12 339.89,-188.48"/>
<polygon fill="#63b8ff" stroke="#63b8ff" points="253.27,-216.36 245.08,-223.08 255.67,-222.94 253.27,-216.36"/>
</a>
</g>
</g>
<!-- Node4 -->
<g id="Node000004" class="node">
<title>Node4</title>
<g id="a_Node000004"><a xlink:href="_firehawk_8cpp.html" target="_top" xlink:title=" ">
<polygon fill="white" stroke="#666666" points="220.25,-132 89.5,-132 89.5,-112 220.25,-112 220.25,-132"/>
<text text-anchor="middle" x="154.88" y="-118.5" font-family="Helvetica,sans-Serif" font-size="10.00">AI Behaviors/Firehawk.cpp</text>
</a>
</g>
</g>
<!-- Node3&#45;&gt;Node4 -->
<g id="edge3_Node000003_Node000004" class="edge">
<title>Node3&#45;&gt;Node4</title>
<g id="a_edge3_Node000003_Node000004"><a xlink:title=" ">
<path fill="none" stroke="#63b8ff" d="M198.19,-160.13C187.47,-150.94 174.63,-139.93 165.72,-132.3"/>
<polygon fill="#63b8ff" stroke="#63b8ff" points="195.88,-162.76 205.75,-166.61 200.44,-157.44 195.88,-162.76"/>
</a>
</g>
</g>
<!-- Node5 -->
<g id="Node000005" class="node">
<title>Node5</title>
<g id="a_Node000005"><a xlink:href="_g_u_i_8h.html" target="_top" xlink:title=" ">
<polygon fill="white" stroke="#666666" points="335.75,-132 238,-132 238,-112 335.75,-112 335.75,-132"/>
<text text-anchor="middle" x="286.88" y="-118.5" font-family="Helvetica,sans-Serif" font-size="10.00">AI Behaviors/GUI.h</text>
</a>
</g>
</g>
<!-- Node3&#45;&gt;Node5 -->
<g id="edge4_Node000003_Node000005" class="edge">
<title>Node3&#45;&gt;Node5</title>
<g id="a_edge4_Node000003_Node000005"><a xlink:title=" ">
<path fill="none" stroke="#63b8ff" d="M238.73,-160.68C250.6,-151.39 265.04,-140.09 274.99,-132.3"/>
<polygon fill="#63b8ff" stroke="#63b8ff" points="236.8,-157.74 231.09,-166.66 241.12,-163.25 236.8,-157.74"/>
</a>
</g>
</g>
<!-- Node6 -->
<g id="Node000006" class="node">
<title>Node6</title>
<g id="a_Node000006"><a xlink:href="_g_u_i_8cpp.html" target="_top" xlink:title=" ">
<polygon fill="white" stroke="#666666" points="278,-76 169.75,-76 169.75,-56 278,-56 278,-76"/>
<text text-anchor="middle" x="223.88" y="-62.5" font-family="Helvetica,sans-Serif" font-size="10.00">AI Behaviors/GUI.cpp</text>
</a>
</g>
</g>
<!-- Node5&#45;&gt;Node6 -->
<g id="edge5_Node000005_Node000006" class="edge">
<title>Node5&#45;&gt;Node6</title>
<g id="a_edge5_Node000005_Node000006"><a xlink:title=" ">
<path fill="none" stroke="#63b8ff" d="M267.19,-104.13C256.47,-94.94 243.63,-83.93 234.72,-76.3"/>
<polygon fill="#63b8ff" stroke="#63b8ff" points="264.88,-106.76 274.75,-110.61 269.44,-101.44 264.88,-106.76"/>
</a>
</g>
</g>
<!-- Node7 -->
<g id="Node000007" class="node">
<title>Node7</title>
<g id="a_Node000007"><a xlink:href="_game_8h.html" target="_top" xlink:title=" ">
<polygon fill="white" stroke="#666666" points="403.62,-76 296.12,-76 296.12,-56 403.62,-56 403.62,-76"/>
<text text-anchor="middle" x="349.88" y="-62.5" font-family="Helvetica,sans-Serif" font-size="10.00">AI Behaviors/Game.h</text>
</a>
</g>
</g>
<!-- Node5&#45;&gt;Node7 -->
<g id="edge6_Node000005_Node000007" class="edge">
<title>Node5&#45;&gt;Node7</title>
<g id="a_edge6_Node000005_Node000007"><a xlink:title=" ">
<path fill="none" stroke="#63b8ff" d="M306.56,-104.13C317.28,-94.94 330.12,-83.93 339.03,-76.3"/>
<polygon fill="#63b8ff" stroke="#63b8ff" points="304.31,-101.44 299,-110.61 308.87,-106.76 304.31,-101.44"/>
</a>
</g>
</g>
<!-- Node8 -->
<g id="Node000008" class="node">
<title>Node8</title>
<g id="a_Node000008"><a xlink:href="_game_8cpp.html" target="_top" xlink:title=" ">
<polygon fill="white" stroke="#666666" points="342.88,-20 224.88,-20 224.88,0 342.88,0 342.88,-20"/>
<text text-anchor="middle" x="283.88" y="-6.5" font-family="Helvetica,sans-Serif" font-size="10.00">AI Behaviors/Game.cpp</text>
</a>
</g>
</g>
<!-- Node7&#45;&gt;Node8 -->
<g id="edge7_Node000007_Node000008" class="edge">
<title>Node7&#45;&gt;Node8</title>
<g id="a_edge7_Node000007_Node000008"><a xlink:title=" ">
<path fill="none" stroke="#63b8ff" d="M329.59,-48.4C318.3,-39.17 304.66,-28.01 295.24,-20.3"/>
<polygon fill="#63b8ff" stroke="#63b8ff" points="327.25,-51.01 337.21,-54.64 331.68,-45.59 327.25,-51.01"/>
</a>
</g>
</g>
<!-- Node9 -->
<g id="Node000009" class="node">
<title>Node9</title>
<g id="a_Node000009"><a xlink:href="main_8cpp.html" target="_top" xlink:title=" ">
<polygon fill="white" stroke="#666666" points="473.25,-20 360.5,-20 360.5,0 473.25,0 473.25,-20"/>
<text text-anchor="middle" x="416.88" y="-6.5" font-family="Helvetica,sans-Serif" font-size="10.00">AI Behaviors/main.cpp</text>
</a>
</g>
</g>
<!-- Node7&#45;&gt;Node9 -->
<g id="edge8_Node000007_Node000009" class="edge">
<title>Node7&#45;&gt;Node9</title>
<g id="a_edge8_Node000007_Node000009"><a xlink:title=" ">
<path fill="none" stroke="#63b8ff" d="M370.47,-48.4C381.93,-39.17 395.77,-28.01 405.34,-20.3"/>
<polygon fill="#63b8ff" stroke="#63b8ff" points="368.31,-45.64 362.72,-54.64 372.71,-51.09 368.31,-45.64"/>
</a>
</g>
</g>
<!-- Node10&#45;&gt;Node5 -->
<g id="edge10_Node000010_Node000005" class="edge">
<title>Node10&#45;&gt;Node5</title>
<g id="a_edge10_Node000010_Node000005"><a xlink:title=" ">
<path fill="none" stroke="#63b8ff" d="M342.86,-161.27C329.22,-151.94 312.37,-140.43 300.74,-132.48"/>
<polygon fill="#63b8ff" stroke="#63b8ff" points="340.63,-163.99 350.86,-166.74 344.58,-158.21 340.63,-163.99"/>
</a>
</g>
</g>
<!-- Node11 -->
<g id="Node000011" class="node">
<title>Node11</title>
<g id="a_Node000011"><a xlink:href="_hammer_head_8cpp.html" target="_top" xlink:title=" ">
<polygon fill="white" stroke="#666666" points="504.38,-132 353.38,-132 353.38,-112 504.38,-112 504.38,-132"/>
<text text-anchor="middle" x="428.88" y="-118.5" font-family="Helvetica,sans-Serif" font-size="10.00">AI Behaviors/HammerHead.cpp</text>
</a>
</g>
</g>
<!-- Node10&#45;&gt;Node11 -->
<g id="edge11_Node000010_Node000011" class="edge">
<title>Node10&#45;&gt;Node11</title>
<g id="a_edge11_Node000010_Node000011"><a xlink:title=" ">
<path fill="none" stroke="#63b8ff" d="M385.56,-160.13C396.28,-150.94 409.12,-139.93 418.03,-132.3"/>
<polygon fill="#63b8ff" stroke="#63b8ff" points="383.31,-157.44 378,-166.61 387.87,-162.76 383.31,-157.44"/>
</a>
</g>
</g>
</g>
</svg>
