<?xml version="1.0" encoding="UTF-8" standalone="no"?>
<!DOCTYPE svg PUBLIC "-//W3C//DTD SVG 1.1//EN"
 "http://www.w3.org/Graphics/SVG/1.1/DTD/svg11.dtd">
<!-- Generated by graphviz version 10.0.1 (20240210.2158)
 -->
<!-- Title: AI Behaviors/Barracks.h Pages: 1 -->
<svg width="391pt" height="196pt"
 viewBox="0.00 0.00 390.75 196.00" xmlns="http://www.w3.org/2000/svg" xmlns:xlink="http://www.w3.org/1999/xlink">

<svg id="main" version="1.1" xmlns="http://www.w3.org/2000/svg" xmlns:xlink="http://www.w3.org/1999/xlink" xml:space="preserve" onload="init(evt)">
<style type="text/css"><![CDATA[
.node, .edge {opacity: 0.7;}
.node.selected, .edge.selected {opacity: 1;}
.edge:hover path { stroke: red; }
.edge:hover polygon { stroke: red; fill: red; }
]]></style>
<script type="application/ecmascript" xlink:href="svg.min.js"/>
<svg id="graph" class="graph">
<g id="graph0" class="graph" transform="scale(1 1) rotate(0) translate(4 192)">
<title>AI Behaviors/Barracks.h</title>
<!-- Node1 -->
<g id="Node000001" class="node">
<title>Node1</title>
<g id="a_Node000001"><a xlink:title=" ">
<polygon fill="#999999" stroke="#666666" points="191.5,-188 71.25,-188 71.25,-168 191.5,-168 191.5,-188"/>
<text text-anchor="middle" x="131.38" y="-174.5" font-family="Helvetica,sans-Serif" font-size="10.00">AI Behaviors/Barracks.h</text>
</a>
</g>
</g>
<!-- Node2 -->
<g id="Node000002" class="node">
<title>Node2</title>
<g id="a_Node000002"><a xlink:href="_barracks_8cpp.html" target="_top" xlink:title=" ">
<polygon fill="white" stroke="#666666" points="130.75,-132 0,-132 0,-112 130.75,-112 130.75,-132"/>
<text text-anchor="middle" x="65.38" y="-118.5" font-family="Helvetica,sans-Serif" font-size="10.00">AI Behaviors/Barracks.cpp</text>
</a>
</g>
</g>
<!-- Node1&#45;&gt;Node2 -->
<g id="edge1_Node000001_Node000002" class="edge">
<title>Node1&#45;&gt;Node2</title>
<g id="a_edge1_Node000001_Node000002"><a xlink:title=" ">
<path fill="none" stroke="#63b8ff" d="M111.09,-160.4C99.8,-151.17 86.16,-140.01 76.74,-132.3"/>
<polygon fill="#63b8ff" stroke="#63b8ff" points="108.75,-163.01 118.71,-166.64 113.18,-157.59 108.75,-163.01"/>
</a>
</g>
</g>
<!-- Node3 -->
<g id="Node000003" class="node">
<title>Node3</title>
<g id="a_Node000003"><a xlink:href="_g_u_i_8h.html" target="_top" xlink:title=" ">
<polygon fill="white" stroke="#666666" points="246.25,-132 148.5,-132 148.5,-112 246.25,-112 246.25,-132"/>
<text text-anchor="middle" x="197.38" y="-118.5" font-family="Helvetica,sans-Serif" font-size="10.00">AI Behaviors/GUI.h</text>
</a>
</g>
</g>
<!-- Node1&#45;&gt;Node3 -->
<g id="edge2_Node000001_Node000003" class="edge">
<title>Node1&#45;&gt;Node3</title>
<g id="a_edge2_Node000001_Node000003"><a xlink:title=" ">
<path fill="none" stroke="#63b8ff" d="M151.66,-160.4C162.95,-151.17 176.59,-140.01 186.01,-132.3"/>
<polygon fill="#63b8ff" stroke="#63b8ff" points="149.57,-157.59 144.04,-166.64 154,-163.01 149.57,-157.59"/>
</a>
</g>
</g>
<!-- Node4 -->
<g id="Node000004" class="node">
<title>Node4</title>
<g id="a_Node000004"><a xlink:href="_g_u_i_8cpp.html" target="_top" xlink:title=" ">
<polygon fill="white" stroke="#666666" points="188.5,-76 80.25,-76 80.25,-56 188.5,-56 188.5,-76"/>
<text text-anchor="middle" x="134.38" y="-62.5" font-family="Helvetica,sans-Serif" font-size="10.00">AI Behaviors/GUI.cpp</text>
</a>
</g>
</g>
<!-- Node3&#45;&gt;Node4 -->
<g id="edge3_Node000003_Node000004" class="edge">
<title>Node3&#45;&gt;Node4</title>
<g id="a_edge3_Node000003_Node000004"><a xlink:title=" ">
<path fill="none" stroke="#63b8ff" d="M177.69,-104.13C166.97,-94.94 154.13,-83.93 145.22,-76.3"/>
<polygon fill="#63b8ff" stroke="#63b8ff" points="175.38,-106.76 185.25,-110.61 179.94,-101.44 175.38,-106.76"/>
</a>
</g>
</g>
<!-- Node5 -->
<g id="Node000005" class="node">
<title>Node5</title>
<g id="a_Node000005"><a xlink:href="_game_8h.html" target="_top" xlink:title=" ">
<polygon fill="white" stroke="#666666" points="314.12,-76 206.62,-76 206.62,-56 314.12,-56 314.12,-76"/>
<text text-anchor="middle" x="260.38" y="-62.5" font-family="Helvetica,sans-Serif" font-size="10.00">AI Behaviors/Game.h</text>
</a>
</g>
</g>
<!-- Node3&#45;&gt;Node5 -->
<g id="edge4_Node000003_Node000005" class="edge">
<title>Node3&#45;&gt;Node5</title>
<g id="a_edge4_Node000003_Node000005"><a xlink:title=" ">
<path fill="none" stroke="#63b8ff" d="M217.06,-104.13C227.78,-94.94 240.62,-83.93 249.53,-76.3"/>
<polygon fill="#63b8ff" stroke="#63b8ff" points="214.81,-101.44 209.5,-110.61 219.37,-106.76 214.81,-101.44"/>
</a>
</g>
</g>
<!-- Node6 -->
<g id="Node000006" class="node">
<title>Node6</title>
<g id="a_Node000006"><a xlink:href="_game_8cpp.html" target="_top" xlink:title=" ">
<polygon fill="white" stroke="#666666" points="252.38,-20 134.38,-20 134.38,0 252.38,0 252.38,-20"/>
<text text-anchor="middle" x="193.38" y="-6.5" font-family="Helvetica,sans-Serif" font-size="10.00">AI Behaviors/Game.cpp</text>
</a>
</g>
</g>
<!-- Node5&#45;&gt;Node6 -->
<g id="edge5_Node000005_Node000006" class="edge">
<title>Node5&#45;&gt;Node6</title>
<g id="a_edge5_Node000005_Node000006"><a xlink:title=" ">
<path fill="none" stroke="#63b8ff" d="M239.78,-48.4C228.32,-39.17 214.48,-28.01 204.91,-20.3"/>
<polygon fill="#63b8ff" stroke="#63b8ff" points="237.54,-51.09 247.53,-54.64 241.94,-45.64 237.54,-51.09"/>
</a>
</g>
</g>
<!-- Node7 -->
<g id="Node000007" class="node">
<title>Node7</title>
<g id="a_Node000007"><a xlink:href="main_8cpp.html" target="_top" xlink:title=" ">
<polygon fill="white" stroke="#666666" points="382.75,-20 270,-20 270,0 382.75,0 382.75,-20"/>
<text text-anchor="middle" x="326.38" y="-6.5" font-family="Helvetica,sans-Serif" font-size="10.00">AI Behaviors/main.cpp</text>
</a>
</g>
</g>
<!-- Node5&#45;&gt;Node7 -->
<g id="edge6_Node000005_Node000007" class="edge">
<title>Node5&#45;&gt;Node7</title>
<g id="a_edge6_Node000005_Node000007"><a xlink:title=" ">
<path fill="none" stroke="#63b8ff" d="M280.66,-48.4C291.95,-39.17 305.59,-28.01 315.01,-20.3"/>
<polygon fill="#63b8ff" stroke="#63b8ff" points="278.57,-45.59 273.04,-54.64 283,-51.01 278.57,-45.59"/>
</a>
</g>
</g>
</g>
</svg>
</svg>

<style type='text/css'>
<![CDATA[
[data-mouse-over-selected='false'] { opacity: 0.7; }
[data-mouse-over-selected='true']  { opacity: 1.0; }
]]>
</style>
<script type="application/ecmascript"><![CDATA[
document.addEventListener('DOMContentLoaded', (event) => {
  highlightEdges();
  highlightAdjacentNodes();
});
]]></script>
</svg>
