<?xml version="1.0" encoding="UTF-8" standalone="no"?>
<!DOCTYPE svg PUBLIC "-//W3C//DTD SVG 1.1//EN"
 "http://www.w3.org/Graphics/SVG/1.1/DTD/svg11.dtd">
<!-- Generated by graphviz version 10.0.1 (20240210.2158)
 -->
<!-- Title: AI Behaviors/Building.h Pages: 1 -->
<svg width="376pt" height="140pt"
 viewBox="0.00 0.00 376.25 140.00" xmlns="http://www.w3.org/2000/svg" xmlns:xlink="http://www.w3.org/1999/xlink">
<g id="graph0" class="graph" transform="scale(1 1) rotate(0) translate(4 136)">
<title>AI Behaviors/Building.h</title>
<!-- Node1 -->
<g id="Node000001" class="node">
<title>Node1</title>
<g id="a_Node000001"><a xlink:title=" ">
<polygon fill="#999999" stroke="#666666" points="209.62,-132 93.88,-132 93.88,-112 209.62,-112 209.62,-132"/>
<text text-anchor="middle" x="151.75" y="-118.5" font-family="Helvetica,sans-Serif" font-size="10.00">AI Behaviors/Building.h</text>
</a>
</g>
</g>
<!-- Node2 -->
<g id="Node000002" class="node">
<title>Node2</title>
<g id="a_Node000002"><a xlink:title=" ">
<polygon fill="#e0e0e0" stroke="#999999" points="53.5,-76 0,-76 0,-56 53.5,-56 53.5,-76"/>
<text text-anchor="middle" x="26.75" y="-62.5" font-family="Helvetica,sans-Serif" font-size="10.00">iostream</text>
</a>
</g>
</g>
<!-- Node1&#45;&gt;Node2 -->
<g id="edge1_Node000001_Node000002" class="edge">
<title>Node1&#45;&gt;Node2</title>
<g id="a_edge1_Node000001_Node000002"><a xlink:title=" ">
<path fill="none" stroke="#63b8ff" d="M129.98,-111.59C110.38,-103.13 81.32,-90.58 59.03,-80.94"/>
<polygon fill="#63b8ff" stroke="#63b8ff" points="60.65,-77.83 50.08,-77.08 57.87,-84.26 60.65,-77.83"/>
</a>
</g>
</g>
<!-- Node3 -->
<g id="Node000003" class="node">
<title>Node3</title>
<g id="a_Node000003"><a xlink:title=" ">
<polygon fill="#e0e0e0" stroke="#999999" points="337.25,-20 234.25,-20 234.25,0 337.25,0 337.25,-20"/>
<text text-anchor="middle" x="285.75" y="-6.5" font-family="Helvetica,sans-Serif" font-size="10.00">SFML/Graphics.hpp</text>
</a>
</g>
</g>
<!-- Node1&#45;&gt;Node3 -->
<g id="edge2_Node000001_Node000003" class="edge">
<title>Node1&#45;&gt;Node3</title>
<g id="a_edge2_Node000001_Node000003"><a xlink:title=" ">
<path fill="none" stroke="#63b8ff" d="M151.97,-111.8C152.8,-97.98 156.3,-71.79 170.75,-56 184.67,-40.79 204.36,-30.66 223.52,-23.93"/>
<polygon fill="#63b8ff" stroke="#63b8ff" points="224.48,-27.3 232.94,-20.91 222.34,-20.63 224.48,-27.3"/>
</a>
</g>
</g>
<!-- Node4 -->
<g id="Node000004" class="node">
<title>Node4</title>
<g id="a_Node000004"><a xlink:href="_global_8h.html" target="_top" xlink:title=" ">
<polygon fill="white" stroke="#666666" points="123.75,-76 71.75,-76 71.75,-56 123.75,-56 123.75,-76"/>
<text text-anchor="middle" x="97.75" y="-62.5" font-family="Helvetica,sans-Serif" font-size="10.00">Global.h</text>
</a>
</g>
</g>
<!-- Node1&#45;&gt;Node4 -->
<g id="edge3_Node000001_Node000004" class="edge">
<title>Node1&#45;&gt;Node4</title>
<g id="a_edge3_Node000001_Node000004"><a xlink:title=" ">
<path fill="none" stroke="#63b8ff" d="M142.34,-111.59C134.83,-104.08 124.1,-93.35 115.05,-84.3"/>
<polygon fill="#63b8ff" stroke="#63b8ff" points="117.66,-81.96 108.12,-77.37 112.71,-86.91 117.66,-81.96"/>
</a>
</g>
</g>
<!-- Node8 -->
<g id="Node000008" class="node">
<title>Node8</title>
<g id="a_Node000008"><a xlink:href="_building_type_8h.html" target="_top" xlink:title=" ">
<polygon fill="white" stroke="#666666" points="259.62,-76 179.88,-76 179.88,-56 259.62,-56 259.62,-76"/>
<text text-anchor="middle" x="219.75" y="-62.5" font-family="Helvetica,sans-Serif" font-size="10.00">BuildingType.h</text>
</a>
</g>
</g>
<!-- Node1&#45;&gt;Node8 -->
<g id="edge7_Node000001_Node000008" class="edge">
<title>Node1&#45;&gt;Node8</title>
<g id="a_edge7_Node000001_Node000008"><a xlink:title=" ">
<path fill="none" stroke="#63b8ff" d="M163.59,-111.59C173.44,-103.77 187.68,-92.46 199.36,-83.19"/>
<polygon fill="#63b8ff" stroke="#63b8ff" points="201.2,-86.2 206.86,-77.24 196.85,-80.72 201.2,-86.2"/>
</a>
</g>
</g>
<!-- Node9 -->
<g id="Node000009" class="node">
<title>Node9</title>
<g id="a_Node000009"><a xlink:href="_particle_system_8h.html" target="_top" xlink:title=" ">
<polygon fill="white" stroke="#666666" points="368.25,-76 277.25,-76 277.25,-56 368.25,-56 368.25,-76"/>
<text text-anchor="middle" x="322.75" y="-62.5" font-family="Helvetica,sans-Serif" font-size="10.00">ParticleSystem.h</text>
</a>
</g>
</g>
<!-- Node1&#45;&gt;Node9 -->
<g id="edge8_Node000001_Node000009" class="edge">
<title>Node1&#45;&gt;Node9</title>
<g id="a_edge8_Node000001_Node000009"><a xlink:title=" ">
<path fill="none" stroke="#63b8ff" d="M181.54,-111.59C209.32,-102.82 251,-89.66 281.89,-79.9"/>
<polygon fill="#63b8ff" stroke="#63b8ff" points="282.81,-83.28 291.29,-76.94 280.7,-76.61 282.81,-83.28"/>
</a>
</g>
</g>
<!-- Node5 -->
<g id="Node000005" class="node">
<title>Node5</title>
<g id="a_Node000005"><a xlink:title=" ">
<polygon fill="#e0e0e0" stroke="#999999" points="60.5,-20 19,-20 19,0 60.5,0 60.5,-20"/>
<text text-anchor="middle" x="39.75" y="-6.5" font-family="Helvetica,sans-Serif" font-size="10.00">vector</text>
</a>
</g>
</g>
<!-- Node4&#45;&gt;Node5 -->
<g id="edge4_Node000004_Node000005" class="edge">
<title>Node4&#45;&gt;Node5</title>
<g id="a_edge4_Node000004_Node000005"><a xlink:title=" ">
<path fill="none" stroke="#63b8ff" d="M87.65,-55.59C79.5,-48.01 67.82,-37.13 58.03,-28.02"/>
<polygon fill="#63b8ff" stroke="#63b8ff" points="60.55,-25.58 50.84,-21.33 55.78,-30.71 60.55,-25.58"/>
</a>
</g>
</g>
<!-- Node6 -->
<g id="Node000006" class="node">
<title>Node6</title>
<g id="a_Node000006"><a xlink:title=" ">
<polygon fill="#e0e0e0" stroke="#999999" points="116.62,-20 78.88,-20 78.88,0 116.62,0 116.62,-20"/>
<text text-anchor="middle" x="97.75" y="-6.5" font-family="Helvetica,sans-Serif" font-size="10.00">array</text>
</a>
</g>
</g>
<!-- Node4&#45;&gt;Node6 -->
<g id="edge5_Node000004_Node000006" class="edge">
<title>Node4&#45;&gt;Node6</title>
<g id="a_edge5_Node000004_Node000006"><a xlink:title=" ">
<path fill="none" stroke="#63b8ff" d="M97.75,-55.59C97.75,-49.01 97.75,-39.96 97.75,-31.73"/>
<polygon fill="#63b8ff" stroke="#63b8ff" points="101.25,-31.81 97.75,-21.81 94.25,-31.81 101.25,-31.81"/>
</a>
</g>
</g>
<!-- Node7 -->
<g id="Node000007" class="node">
<title>Node7</title>
<g id="a_Node000007"><a xlink:title=" ">
<polygon fill="#e0e0e0" stroke="#999999" points="180.38,-20 135.12,-20 135.12,0 180.38,0 180.38,-20"/>
<text text-anchor="middle" x="157.75" y="-6.5" font-family="Helvetica,sans-Serif" font-size="10.00">chrono</text>
</a>
</g>
</g>
<!-- Node4&#45;&gt;Node7 -->
<g id="edge6_Node000004_Node000007" class="edge">
<title>Node4&#45;&gt;Node7</title>
<g id="a_edge6_Node000004_Node000007"><a xlink:title=" ">
<path fill="none" stroke="#63b8ff" d="M108.2,-55.59C116.72,-47.93 128.96,-36.91 139.14,-27.75"/>
<polygon fill="#63b8ff" stroke="#63b8ff" points="141.2,-30.6 146.29,-21.31 136.52,-25.4 141.2,-30.6"/>
</a>
</g>
</g>
<!-- Node9&#45;&gt;Node3 -->
<g id="edge9_Node000009_Node000003" class="edge">
<title>Node9&#45;&gt;Node3</title>
<g id="a_edge9_Node000009_Node000003"><a xlink:title=" ">
<path fill="none" stroke="#63b8ff" d="M316.31,-55.59C311.42,-48.47 304.56,-38.45 298.57,-29.72"/>
<polygon fill="#63b8ff" stroke="#63b8ff" points="301.52,-27.82 292.98,-21.55 295.74,-31.77 301.52,-27.82"/>
</a>
</g>
</g>
</g>
</svg>
