<?xml version="1.0" encoding="UTF-8" standalone="no"?>
<!DOCTYPE svg PUBLIC "-//W3C//DTD SVG 1.1//EN"
 "http://www.w3.org/Graphics/SVG/1.1/DTD/svg11.dtd">
<!-- Generated by graphviz version 10.0.1 (20240210.2158)
 -->
<!-- Title: AI Behaviors/Building.h Pages: 1 -->
<!--zoomable 364 -->

<svg id="main" version="1.1" xmlns="http://www.w3.org/2000/svg" xmlns:xlink="http://www.w3.org/1999/xlink" xml:space="preserve" onload="init(evt)">
<style type="text/css"><![CDATA[
.node, .edge {opacity: 0.7;}
.node.selected, .edge.selected {opacity: 1;}
.edge:hover path { stroke: red; }
.edge:hover polygon { stroke: red; fill: red; }
]]></style>

<defs>
  <circle id="rim" cx="0" cy="0" r="7"/>
  <circle id="rim2" cx="0" cy="0" r="3.5"/>
  <g id="zoomPlus">
    <use xlink:href="#rim" fill="#404040"><set attributeName="fill" to="#808080" begin="zoomplus.mouseover" end="zoomplus.mouseout"/></use>
    <path d="M-4,0h8M0,-4v8" fill="none" stroke="white" stroke-width="1.5" pointer-events="none"/>
  </g>
  <g id="zoomMin">
    <use xlink:href="#rim" fill="#404040"><set attributeName="fill" to="#808080" begin="zoomminus.mouseover" end="zoomminus.mouseout"/></use>
    <path d="M-4,0h8" fill="none" stroke="white" stroke-width="1.5" pointer-events="none"/>
  </g>
  <g id="arrowUp" transform="translate(30 24)">
    <use xlink:href="#rim"/>
    <path pointer-events="none" fill="none" stroke="white" stroke-width="1.5" d="M0,-3.0v7 M-2.5,-0.5L0,-3.0L2.5,-0.5"/>
  </g>
  <g id="arrowRight" transform="rotate(90) translate(36 -43)">
    <use xlink:href="#rim"/>
    <path pointer-events="none" fill="none" stroke="white" stroke-width="1.5" d="M0,-3.0v7 M-2.5,-0.5L0,-3.0L2.5,-0.5"/>
  </g>
  <g id="arrowDown" transform="rotate(180) translate(-30 -48)">
    <use xlink:href="#rim"/>
    <path pointer-events="none" fill="none" stroke="white" stroke-width="1.5" d="M0,-3.0v7 M-2.5,-0.5L0,-3.0L2.5,-0.5"/>
  </g>
  <g id="arrowLeft" transform="rotate(270) translate(-36 17)">
    <use xlink:href="#rim"/>
    <path pointer-events="none" fill="none" stroke="white" stroke-width="1.5" d="M0,-3.0v7 M-2.5,-0.5L0,-3.0L2.5,-0.5"/>
  </g>
  <g id="resetDef">
    <use xlink:href="#rim2" fill="#404040"><set attributeName="fill" to="#808080" begin="reset.mouseover" end="reset.mouseout"/></use>
  </g>
</defs>
<script type="application/ecmascript">
var viewWidth = 1918;
var viewHeight = 364;
var sectionId = 'dynsection-1';
</script>
<script type="application/ecmascript" xlink:href="svg.min.js"/>
<svg id="graph" class="graph">
<g id="viewport">
<title>AI Behaviors/Building.h</title>
<!-- Node1 -->
<g id="Node000001" class="node">
<title>Node1</title>
<g id="a_Node000001"><a xlink:title=" ">
<polygon fill="#999999" stroke="#666666" points="603.38,-356 487.62,-356 487.62,-336 603.38,-336 603.38,-356"/>
<text text-anchor="middle" x="545.5" y="-342.5" font-family="Helvetica,sans-Serif" font-size="10.00">AI Behaviors/Building.h</text>
</a>
</g>
</g>
<!-- Node2 -->
<g id="Node000002" class="node">
<title>Node2</title>
<g id="a_Node000002"><a xlink:href="_air_craft_8h.html" target="_top" xlink:title=" ">
<polygon fill="white" stroke="#666666" points="737.25,-300 623.75,-300 623.75,-280 737.25,-280 737.25,-300"/>
<text text-anchor="middle" x="680.5" y="-286.5" font-family="Helvetica,sans-Serif" font-size="10.00">AI Behaviors/AirCraft.h</text>
</a>
</g>
</g>
<!-- Node1&#45;&gt;Node2 -->
<g id="edge1_Node000001_Node000002" class="edge">
<title>Node1&#45;&gt;Node2</title>
<g id="a_edge1_Node000001_Node000002"><a xlink:title=" ">
<path fill="none" stroke="#63b8ff" d="M579.5,-331.4C603.62,-321.75 635.39,-309.05 656.8,-300.48"/>
<polygon fill="#63b8ff" stroke="#63b8ff" points="578.41,-328.07 570.42,-335.03 581.01,-334.57 578.41,-328.07"/>
</a>
</g>
</g>
<!-- Node9 -->
<g id="Node000009" class="node">
<title>Node9</title>
<g id="a_Node000009"><a xlink:href="_barracks_8h.html" target="_top" xlink:title=" ">
<polygon fill="white" stroke="#666666" points="605.62,-300 485.38,-300 485.38,-280 605.62,-280 605.62,-300"/>
<text text-anchor="middle" x="545.5" y="-286.5" font-family="Helvetica,sans-Serif" font-size="10.00">AI Behaviors/Barracks.h</text>
</a>
</g>
</g>
<!-- Node1&#45;&gt;Node9 -->
<g id="edge8_Node000001_Node000009" class="edge">
<title>Node1&#45;&gt;Node9</title>
<g id="a_edge8_Node000001_Node000009"><a xlink:title=" ">
<path fill="none" stroke="#63b8ff" d="M545.5,-324.13C545.5,-315.9 545.5,-306.85 545.5,-300.3"/>
<polygon fill="#63b8ff" stroke="#63b8ff" points="542,-324.08 545.5,-334.08 549,-324.08 542,-324.08"/>
</a>
</g>
</g>
<!-- Node11 -->
<g id="Node000011" class="node">
<title>Node11</title>
<g id="a_Node000011"><a xlink:href="_building_8cpp.html" target="_top" xlink:title=" ">
<polygon fill="white" stroke="#666666" points="467.62,-300 341.38,-300 341.38,-280 467.62,-280 467.62,-300"/>
<text text-anchor="middle" x="404.5" y="-286.5" font-family="Helvetica,sans-Serif" font-size="10.00">AI Behaviors/Building.cpp</text>
</a>
</g>
</g>
<!-- Node1&#45;&gt;Node11 -->
<g id="edge11_Node000001_Node000011" class="edge">
<title>Node1&#45;&gt;Node11</title>
<g id="a_edge11_Node000001_Node000011"><a xlink:title=" ">
<path fill="none" stroke="#63b8ff" d="M510.33,-331.53C485.1,-321.87 451.72,-309.08 429.25,-300.48"/>
<polygon fill="#63b8ff" stroke="#63b8ff" points="508.94,-334.74 519.53,-335.05 511.44,-328.21 508.94,-334.74"/>
</a>
</g>
</g>
<!-- Node12 -->
<g id="Node000012" class="node">
<title>Node12</title>
<g id="a_Node000012"><a xlink:href="_headquarters_8h.html" target="_top" xlink:title=" ">
<polygon fill="white" stroke="#666666" points="323,-300 184,-300 184,-280 323,-280 323,-300"/>
<text text-anchor="middle" x="253.5" y="-286.5" font-family="Helvetica,sans-Serif" font-size="10.00">AI Behaviors/Headquarters.h</text>
</a>
</g>
</g>
<!-- Node1&#45;&gt;Node12 -->
<g id="edge12_Node000001_Node000012" class="edge">
<title>Node1&#45;&gt;Node12</title>
<g id="a_edge12_Node000001_Node000012"><a xlink:title=" ">
<path fill="none" stroke="#63b8ff" d="M483.3,-333.5C430.08,-323.66 354.4,-309.66 304.64,-300.46"/>
<polygon fill="#63b8ff" stroke="#63b8ff" points="482.35,-336.88 492.82,-335.26 483.62,-330 482.35,-336.88"/>
</a>
</g>
</g>
<!-- Node14 -->
<g id="Node000014" class="node">
<title>Node14</title>
<g id="a_Node000014"><a xlink:href="_refinery_8h.html" target="_top" xlink:title=" ">
<polygon fill="white" stroke="#666666" points="213.75,-244 97.25,-244 97.25,-224 213.75,-224 213.75,-244"/>
<text text-anchor="middle" x="155.5" y="-230.5" font-family="Helvetica,sans-Serif" font-size="10.00">AI Behaviors/Refinery.h</text>
</a>
</g>
</g>
<!-- Node1&#45;&gt;Node14 -->
<g id="edge15_Node000001_Node000014" class="edge">
<title>Node1&#45;&gt;Node14</title>
<g id="a_edge15_Node000001_Node000014"><a xlink:title=" ">
<path fill="none" stroke="#63b8ff" d="M475.93,-345.42C381.27,-344.55 218.61,-337.42 174.5,-300 158,-286.01 155.41,-258.55 155.25,-244.21"/>
<polygon fill="#63b8ff" stroke="#63b8ff" points="475.86,-348.92 485.89,-345.49 475.91,-341.92 475.86,-348.92"/>
</a>
</g>
</g>
<!-- Node18 -->
<g id="Node000018" class="node">
<title>Node18</title>
<g id="a_Node000018"><a xlink:href="_unit_8h.html" target="_top" xlink:title=" ">
<polygon fill="white" stroke="#666666" points="1340.75,-300 1242.25,-300 1242.25,-280 1340.75,-280 1340.75,-300"/>
<text text-anchor="middle" x="1291.5" y="-286.5" font-family="Helvetica,sans-Serif" font-size="10.00">AI Behaviors/Unit.h</text>
</a>
</g>
</g>
<!-- Node1&#45;&gt;Node18 -->
<g id="edge21_Node000001_Node000018" class="edge">
<title>Node1&#45;&gt;Node18</title>
<g id="a_edge21_Node000001_Node000018"><a xlink:title=" ">
<path fill="none" stroke="#63b8ff" d="M614.99,-339.97C764.34,-329.16 1112.87,-303.93 1242.12,-294.57"/>
<polygon fill="#63b8ff" stroke="#63b8ff" points="614.96,-336.46 605.24,-340.68 615.46,-343.44 614.96,-336.46"/>
</a>
</g>
</g>
<!-- Node36 -->
<g id="Node000036" class="node">
<title>Node36</title>
<g id="a_Node000036"><a xlink:href="_war_factory_8h.html" target="_top" xlink:title=" ">
<polygon fill="white" stroke="#666666" points="887.62,-300 755.38,-300 755.38,-280 887.62,-280 887.62,-300"/>
<text text-anchor="middle" x="821.5" y="-286.5" font-family="Helvetica,sans-Serif" font-size="10.00">AI Behaviors/WarFactory.h</text>
</a>
</g>
</g>
<!-- Node1&#45;&gt;Node36 -->
<g id="edge45_Node000001_Node000036" class="edge">
<title>Node1&#45;&gt;Node36</title>
<g id="a_edge45_Node000001_Node000036"><a xlink:title=" ">
<path fill="none" stroke="#63b8ff" d="M604.92,-333.37C655.19,-323.54 726.33,-309.62 773.16,-300.46"/>
<polygon fill="#63b8ff" stroke="#63b8ff" points="604.52,-329.89 595.38,-335.24 605.86,-336.76 604.52,-329.89"/>
</a>
</g>
</g>
<!-- Node3 -->
<g id="Node000003" class="node">
<title>Node3</title>
<g id="a_Node000003"><a xlink:href="_air_craft_8cpp.html" target="_top" xlink:title=" ">
<polygon fill="white" stroke="#666666" points="790.5,-244 666.5,-244 666.5,-224 790.5,-224 790.5,-244"/>
<text text-anchor="middle" x="728.5" y="-230.5" font-family="Helvetica,sans-Serif" font-size="10.00">AI Behaviors/AirCraft.cpp</text>
</a>
</g>
</g>
<!-- Node2&#45;&gt;Node3 -->
<g id="edge2_Node000002_Node000003" class="edge">
<title>Node2&#45;&gt;Node3</title>
<g id="a_edge2_Node000002_Node000003"><a xlink:title=" ">
<path fill="none" stroke="#63b8ff" d="M696.5,-271C704.45,-262.06 713.72,-251.62 720.23,-244.3"/>
<polygon fill="#63b8ff" stroke="#63b8ff" points="693.89,-268.66 689.87,-278.46 699.13,-273.31 693.89,-268.66"/>
</a>
</g>
</g>
<!-- Node4 -->
<g id="Node000004" class="node">
<title>Node4</title>
<g id="a_Node000004"><a xlink:href="_g_u_i_8h.html" target="_top" xlink:title=" ">
<polygon fill="white" stroke="#666666" points="730.38,-132 632.62,-132 632.62,-112 730.38,-112 730.38,-132"/>
<text text-anchor="middle" x="681.5" y="-118.5" font-family="Helvetica,sans-Serif" font-size="10.00">AI Behaviors/GUI.h</text>
</a>
</g>
</g>
<!-- Node2&#45;&gt;Node4 -->
<g id="edge3_Node000002_Node000004" class="edge">
<title>Node2&#45;&gt;Node4</title>
<g id="a_edge3_Node000002_Node000004"><a xlink:title=" ">
<path fill="none" stroke="#63b8ff" d="M668.14,-269.78C663.89,-262.08 659.65,-252.93 657.5,-244 647.58,-202.77 667.36,-152.94 676.83,-132.47"/>
<polygon fill="#63b8ff" stroke="#63b8ff" points="665.05,-271.43 673.19,-278.22 671.06,-267.84 665.05,-271.43"/>
</a>
</g>
</g>
<!-- Node5 -->
<g id="Node000005" class="node">
<title>Node5</title>
<g id="a_Node000005"><a xlink:href="_g_u_i_8cpp.html" target="_top" xlink:title=" ">
<polygon fill="white" stroke="#666666" points="672.62,-76 564.38,-76 564.38,-56 672.62,-56 672.62,-76"/>
<text text-anchor="middle" x="618.5" y="-62.5" font-family="Helvetica,sans-Serif" font-size="10.00">AI Behaviors/GUI.cpp</text>
</a>
</g>
</g>
<!-- Node4&#45;&gt;Node5 -->
<g id="edge4_Node000004_Node000005" class="edge">
<title>Node4&#45;&gt;Node5</title>
<g id="a_edge4_Node000004_Node000005"><a xlink:title=" ">
<path fill="none" stroke="#63b8ff" d="M661.81,-104.13C651.1,-94.94 638.25,-83.93 629.35,-76.3"/>
<polygon fill="#63b8ff" stroke="#63b8ff" points="659.51,-106.76 669.38,-110.61 664.06,-101.44 659.51,-106.76"/>
</a>
</g>
</g>
<!-- Node6 -->
<g id="Node000006" class="node">
<title>Node6</title>
<g id="a_Node000006"><a xlink:href="_game_8h.html" target="_top" xlink:title=" ">
<polygon fill="white" stroke="#666666" points="798.25,-76 690.75,-76 690.75,-56 798.25,-56 798.25,-76"/>
<text text-anchor="middle" x="744.5" y="-62.5" font-family="Helvetica,sans-Serif" font-size="10.00">AI Behaviors/Game.h</text>
</a>
</g>
</g>
<!-- Node4&#45;&gt;Node6 -->
<g id="edge5_Node000004_Node000006" class="edge">
<title>Node4&#45;&gt;Node6</title>
<g id="a_edge5_Node000004_Node000006"><a xlink:title=" ">
<path fill="none" stroke="#63b8ff" d="M701.19,-104.13C711.9,-94.94 724.75,-83.93 733.65,-76.3"/>
<polygon fill="#63b8ff" stroke="#63b8ff" points="698.94,-101.44 693.62,-110.61 703.49,-106.76 698.94,-101.44"/>
</a>
</g>
</g>
<!-- Node7 -->
<g id="Node000007" class="node">
<title>Node7</title>
<g id="a_Node000007"><a xlink:href="_game_8cpp.html" target="_top" xlink:title=" ">
<polygon fill="white" stroke="#666666" points="737.5,-20 619.5,-20 619.5,0 737.5,0 737.5,-20"/>
<text text-anchor="middle" x="678.5" y="-6.5" font-family="Helvetica,sans-Serif" font-size="10.00">AI Behaviors/Game.cpp</text>
</a>
</g>
</g>
<!-- Node6&#45;&gt;Node7 -->
<g id="edge6_Node000006_Node000007" class="edge">
<title>Node6&#45;&gt;Node7</title>
<g id="a_edge6_Node000006_Node000007"><a xlink:title=" ">
<path fill="none" stroke="#63b8ff" d="M724.21,-48.4C712.92,-39.17 699.29,-28.01 689.86,-20.3"/>
<polygon fill="#63b8ff" stroke="#63b8ff" points="721.88,-51.01 731.83,-54.64 726.31,-45.59 721.88,-51.01"/>
</a>
</g>
</g>
<!-- Node8 -->
<g id="Node000008" class="node">
<title>Node8</title>
<g id="a_Node000008"><a xlink:href="main_8cpp.html" target="_top" xlink:title=" ">
<polygon fill="white" stroke="#666666" points="867.88,-20 755.12,-20 755.12,0 867.88,0 867.88,-20"/>
<text text-anchor="middle" x="811.5" y="-6.5" font-family="Helvetica,sans-Serif" font-size="10.00">AI Behaviors/main.cpp</text>
</a>
</g>
</g>
<!-- Node6&#45;&gt;Node8 -->
<g id="edge7_Node000006_Node000008" class="edge">
<title>Node6&#45;&gt;Node8</title>
<g id="a_edge7_Node000006_Node000008"><a xlink:title=" ">
<path fill="none" stroke="#63b8ff" d="M765.09,-48.4C776.55,-39.17 790.4,-28.01 799.96,-20.3"/>
<polygon fill="#63b8ff" stroke="#63b8ff" points="762.94,-45.64 757.35,-54.64 767.33,-51.09 762.94,-45.64"/>
</a>
</g>
</g>
<!-- Node9&#45;&gt;Node4 -->
<g id="edge10_Node000009_Node000004" class="edge">
<title>Node9&#45;&gt;Node4</title>
<g id="a_edge10_Node000009_Node000004"><a xlink:title=" ">
<path fill="none" stroke="#63b8ff" d="M508.96,-275.05C484.19,-263.34 458.2,-245.15 471.5,-224 506.6,-168.17 582.14,-142.49 632.39,-131.2"/>
<polygon fill="#63b8ff" stroke="#63b8ff" points="507.43,-278.2 517.99,-279.05 510.26,-271.8 507.43,-278.2"/>
</a>
</g>
</g>
<!-- Node10 -->
<g id="Node000010" class="node">
<title>Node10</title>
<g id="a_Node000010"><a xlink:href="_barracks_8cpp.html" target="_top" xlink:title=" ">
<polygon fill="white" stroke="#666666" points="610.88,-244 480.12,-244 480.12,-224 610.88,-224 610.88,-244"/>
<text text-anchor="middle" x="545.5" y="-230.5" font-family="Helvetica,sans-Serif" font-size="10.00">AI Behaviors/Barracks.cpp</text>
</a>
</g>
</g>
<!-- Node9&#45;&gt;Node10 -->
<g id="edge9_Node000009_Node000010" class="edge">
<title>Node9&#45;&gt;Node10</title>
<g id="a_edge9_Node000009_Node000010"><a xlink:title=" ">
<path fill="none" stroke="#63b8ff" d="M545.5,-268.13C545.5,-259.9 545.5,-250.85 545.5,-244.3"/>
<polygon fill="#63b8ff" stroke="#63b8ff" points="542,-268.08 545.5,-278.08 549,-268.08 542,-268.08"/>
</a>
</g>
</g>
<!-- Node12&#45;&gt;Node4 -->
<g id="edge13_Node000012_Node000004" class="edge">
<title>Node12&#45;&gt;Node4</title>
<g id="a_edge13_Node000012_Node000004"><a xlink:title=" ">
<path fill="none" stroke="#63b8ff" d="M251.86,-268.48C251.88,-254.22 254.4,-235.74 265.5,-224 315.61,-171.02 533.37,-139.91 632.28,-128.28"/>
<polygon fill="#63b8ff" stroke="#63b8ff" points="248.35,-268.29 252.27,-278.14 255.34,-268 248.35,-268.29"/>
</a>
</g>
</g>
<!-- Node13 -->
<g id="Node000013" class="node">
<title>Node13</title>
<g id="a_Node000013"><a xlink:href="_headquarters_8cpp.html" target="_top" xlink:title=" ">
<polygon fill="white" stroke="#666666" points="424.25,-244 274.75,-244 274.75,-224 424.25,-224 424.25,-244"/>
<text text-anchor="middle" x="349.5" y="-230.5" font-family="Helvetica,sans-Serif" font-size="10.00">AI Behaviors/Headquarters.cpp</text>
</a>
</g>
</g>
<!-- Node12&#45;&gt;Node13 -->
<g id="edge14_Node000012_Node000013" class="edge">
<title>Node12&#45;&gt;Node13</title>
<g id="a_edge14_Node000012_Node000013"><a xlink:title=" ">
<path fill="none" stroke="#63b8ff" d="M280.02,-274.08C296.85,-264.62 318.1,-252.66 332.65,-244.48"/>
<polygon fill="#63b8ff" stroke="#63b8ff" points="278.54,-270.9 271.54,-278.85 281.97,-277 278.54,-270.9"/>
</a>
</g>
</g>
<!-- Node14&#45;&gt;Node4 -->
<g id="edge16_Node000014_Node000004" class="edge">
<title>Node14&#45;&gt;Node4</title>
<g id="a_edge16_Node000014_Node000004"><a xlink:title=" ">
<path fill="none" stroke="#63b8ff" d="M155.72,-212.65C157.05,-197.9 161.44,-178.72 174.5,-168 209.42,-139.33 512.08,-127.75 632.44,-124.25"/>
<polygon fill="#63b8ff" stroke="#63b8ff" points="152.25,-212.06 155.27,-222.21 159.24,-212.39 152.25,-212.06"/>
</a>
</g>
</g>
<!-- Node15 -->
<g id="Node000015" class="node">
<title>Node15</title>
<g id="a_Node000015"><a xlink:href="_harvester_8h.html" target="_top" xlink:title=" ">
<polygon fill="white" stroke="#666666" points="305.38,-188 183.62,-188 183.62,-168 305.38,-168 305.38,-188"/>
<text text-anchor="middle" x="244.5" y="-174.5" font-family="Helvetica,sans-Serif" font-size="10.00">AI Behaviors/Harvester.h</text>
</a>
</g>
</g>
<!-- Node14&#45;&gt;Node15 -->
<g id="edge17_Node000014_Node000015" class="edge">
<title>Node14&#45;&gt;Node15</title>
<g id="a_edge17_Node000014_Node000015"><a xlink:title=" ">
<path fill="none" stroke="#63b8ff" d="M180.53,-217.81C196.06,-208.39 215.52,-196.58 228.88,-188.48"/>
<polygon fill="#63b8ff" stroke="#63b8ff" points="179.03,-214.63 172.3,-222.81 182.66,-220.61 179.03,-214.63"/>
</a>
</g>
</g>
<!-- Node17 -->
<g id="Node000017" class="node">
<title>Node17</title>
<g id="a_Node000017"><a xlink:href="_refinery_8cpp.html" target="_top" xlink:title=" ">
<polygon fill="white" stroke="#666666" points="127,-188 0,-188 0,-168 127,-168 127,-188"/>
<text text-anchor="middle" x="63.5" y="-174.5" font-family="Helvetica,sans-Serif" font-size="10.00">AI Behaviors/Refinery.cpp</text>
</a>
</g>
</g>
<!-- Node14&#45;&gt;Node17 -->
<g id="edge20_Node000014_Node000017" class="edge">
<title>Node14&#45;&gt;Node17</title>
<g id="a_edge20_Node000014_Node000017"><a xlink:title=" ">
<path fill="none" stroke="#63b8ff" d="M129.62,-217.81C113.57,-208.39 93.46,-196.58 79.65,-188.48"/>
<polygon fill="#63b8ff" stroke="#63b8ff" points="127.77,-220.78 138.17,-222.83 131.32,-214.75 127.77,-220.78"/>
</a>
</g>
</g>
<!-- Node15&#45;&gt;Node4 -->
<g id="edge18_Node000015_Node000004" class="edge">
<title>Node15&#45;&gt;Node4</title>
<g id="a_edge18_Node000015_Node000004"><a xlink:title=" ">
<path fill="none" stroke="#63b8ff" d="M317.1,-168.03C406.3,-157.01 555.25,-138.6 632.18,-129.09"/>
<polygon fill="#63b8ff" stroke="#63b8ff" points="316.72,-164.55 307.23,-169.25 317.58,-171.5 316.72,-164.55"/>
</a>
</g>
</g>
<!-- Node16 -->
<g id="Node000016" class="node">
<title>Node16</title>
<g id="a_Node000016"><a xlink:href="_harvester_8cpp.html" target="_top" xlink:title=" ">
<polygon fill="white" stroke="#666666" points="310.62,-132 178.38,-132 178.38,-112 310.62,-112 310.62,-132"/>
<text text-anchor="middle" x="244.5" y="-118.5" font-family="Helvetica,sans-Serif" font-size="10.00">AI Behaviors/Harvester.cpp</text>
</a>
</g>
</g>
<!-- Node15&#45;&gt;Node16 -->
<g id="edge19_Node000015_Node000016" class="edge">
<title>Node15&#45;&gt;Node16</title>
<g id="a_edge19_Node000015_Node000016"><a xlink:title=" ">
<path fill="none" stroke="#63b8ff" d="M244.5,-156.13C244.5,-147.9 244.5,-138.85 244.5,-132.3"/>
<polygon fill="#63b8ff" stroke="#63b8ff" points="241,-156.08 244.5,-166.08 248,-156.08 241,-156.08"/>
</a>
</g>
</g>
<!-- Node19 -->
<g id="Node000019" class="node">
<title>Node19</title>
<g id="a_Node000019"><a xlink:href="_aircraft_unit_8h.html" target="_top" xlink:title=" ">
<polygon fill="white" stroke="#666666" points="1356.12,-244 1226.88,-244 1226.88,-224 1356.12,-224 1356.12,-244"/>
<text text-anchor="middle" x="1291.5" y="-230.5" font-family="Helvetica,sans-Serif" font-size="10.00">AI Behaviors/AircraftUnit.h</text>
</a>
</g>
</g>
<!-- Node18&#45;&gt;Node19 -->
<g id="edge22_Node000018_Node000019" class="edge">
<title>Node18&#45;&gt;Node19</title>
<g id="a_edge22_Node000018_Node000019"><a xlink:title=" ">
<path fill="none" stroke="#63b8ff" d="M1291.5,-268.13C1291.5,-259.9 1291.5,-250.85 1291.5,-244.3"/>
<polygon fill="#63b8ff" stroke="#63b8ff" points="1288,-268.08 1291.5,-278.08 1295,-268.08 1288,-268.08"/>
</a>
</g>
</g>
<!-- Node25 -->
<g id="Node000025" class="node">
<title>Node25</title>
<g id="a_Node000025"><a xlink:href="_infantry_unit_8h.html" target="_top" xlink:title=" ">
<polygon fill="white" stroke="#666666" points="1734.5,-244 1604.5,-244 1604.5,-224 1734.5,-224 1734.5,-244"/>
<text text-anchor="middle" x="1669.5" y="-230.5" font-family="Helvetica,sans-Serif" font-size="10.00">AI Behaviors/InfantryUnit.h</text>
</a>
</g>
</g>
<!-- Node18&#45;&gt;Node25 -->
<g id="edge30_Node000018_Node000025" class="edge">
<title>Node18&#45;&gt;Node25</title>
<g id="a_edge30_Node000018_Node000025"><a xlink:title=" ">
<path fill="none" stroke="#63b8ff" d="M1352.02,-280.35C1420.99,-270.5 1533.32,-254.45 1604.22,-244.33"/>
<polygon fill="#63b8ff" stroke="#63b8ff" points="1351.82,-276.85 1342.42,-281.73 1352.81,-283.78 1351.82,-276.85"/>
</a>
</g>
</g>
<!-- Node29 -->
<g id="Node000029" class="node">
<title>Node29</title>
<g id="a_Node000029"><a xlink:href="_unit_8cpp.html" target="_top" xlink:title=" ">
<polygon fill="white" stroke="#666666" points="1483,-244 1374,-244 1374,-224 1483,-224 1483,-244"/>
<text text-anchor="middle" x="1428.5" y="-230.5" font-family="Helvetica,sans-Serif" font-size="10.00">AI Behaviors/Unit.cpp</text>
</a>
</g>
</g>
<!-- Node18&#45;&gt;Node29 -->
<g id="edge35_Node000018_Node000029" class="edge">
<title>Node18&#45;&gt;Node29</title>
<g id="a_edge35_Node000018_Node000029"><a xlink:title=" ">
<path fill="none" stroke="#63b8ff" d="M1326,-275.4C1350.48,-265.75 1382.72,-253.05 1404.45,-244.48"/>
<polygon fill="#63b8ff" stroke="#63b8ff" points="1324.79,-272.12 1316.77,-279.04 1327.36,-278.63 1324.79,-272.12"/>
</a>
</g>
</g>
<!-- Node30 -->
<g id="Node000030" class="node">
<title>Node30</title>
<g id="a_Node000030"><a xlink:href="_vehicle_unit_8h.html" target="_top" xlink:title=" ">
<polygon fill="white" stroke="#666666" points="1137.88,-244 1007.12,-244 1007.12,-224 1137.88,-224 1137.88,-244"/>
<text text-anchor="middle" x="1072.5" y="-230.5" font-family="Helvetica,sans-Serif" font-size="10.00">AI Behaviors/VehicleUnit.h</text>
</a>
</g>
</g>
<!-- Node18&#45;&gt;Node30 -->
<g id="edge36_Node000018_Node000030" class="edge">
<title>Node18&#45;&gt;Node30</title>
<g id="a_edge36_Node000018_Node000030"><a xlink:title=" ">
<path fill="none" stroke="#63b8ff" d="M1242.07,-276.81C1202.34,-267.01 1147.31,-253.45 1110.85,-244.46"/>
<polygon fill="#63b8ff" stroke="#63b8ff" points="1241.09,-280.17 1251.63,-279.17 1242.76,-273.38 1241.09,-280.17"/>
</a>
</g>
</g>
<!-- Node20 -->
<g id="Node000020" class="node">
<title>Node20</title>
<g id="a_Node000020"><a xlink:href="_aircraft_unit_8cpp.html" target="_top" xlink:title=" ">
<polygon fill="white" stroke="#666666" points="1581.38,-188 1441.62,-188 1441.62,-168 1581.38,-168 1581.38,-188"/>
<text text-anchor="middle" x="1511.5" y="-174.5" font-family="Helvetica,sans-Serif" font-size="10.00">AI Behaviors/AircraftUnit.cpp</text>
</a>
</g>
</g>
<!-- Node19&#45;&gt;Node20 -->
<g id="edge23_Node000019_Node000020" class="edge">
<title>Node19&#45;&gt;Node20</title>
<g id="a_edge23_Node000019_Node000020"><a xlink:title=" ">
<path fill="none" stroke="#63b8ff" d="M1341.15,-220.81C1381.07,-211.01 1436.34,-197.45 1472.97,-188.46"/>
<polygon fill="#63b8ff" stroke="#63b8ff" points="1340.42,-217.39 1331.54,-223.17 1342.09,-224.19 1340.42,-217.39"/>
</a>
</g>
</g>
<!-- Node21 -->
<g id="Node000021" class="node">
<title>Node21</title>
<g id="a_Node000021"><a xlink:href="_firehawk_8h.html" target="_top" xlink:title=" ">
<polygon fill="white" stroke="#666666" points="1423.62,-188 1303.38,-188 1303.38,-168 1423.62,-168 1423.62,-188"/>
<text text-anchor="middle" x="1363.5" y="-174.5" font-family="Helvetica,sans-Serif" font-size="10.00">AI Behaviors/Firehawk.h</text>
</a>
</g>
</g>
<!-- Node19&#45;&gt;Node21 -->
<g id="edge24_Node000019_Node000021" class="edge">
<title>Node19&#45;&gt;Node21</title>
<g id="a_edge24_Node000019_Node000021"><a xlink:title=" ">
<path fill="none" stroke="#63b8ff" d="M1312.89,-216.95C1325.35,-207.61 1340.61,-196.16 1351.1,-188.3"/>
<polygon fill="#63b8ff" stroke="#63b8ff" points="1311.15,-213.89 1305.25,-222.69 1315.35,-219.49 1311.15,-213.89"/>
</a>
</g>
</g>
<!-- Node23 -->
<g id="Node000023" class="node">
<title>Node23</title>
<g id="a_Node000023"><a xlink:href="_hammer_head_8h.html" target="_top" xlink:title=" ">
<polygon fill="white" stroke="#666666" points="1285.75,-188 1145.25,-188 1145.25,-168 1285.75,-168 1285.75,-188"/>
<text text-anchor="middle" x="1215.5" y="-174.5" font-family="Helvetica,sans-Serif" font-size="10.00">AI Behaviors/HammerHead.h</text>
</a>
</g>
</g>
<!-- Node19&#45;&gt;Node23 -->
<g id="edge27_Node000019_Node000023" class="edge">
<title>Node19&#45;&gt;Node23</title>
<g id="a_edge27_Node000019_Node000023"><a xlink:title=" ">
<path fill="none" stroke="#63b8ff" d="M1268.98,-217C1255.92,-207.72 1239.92,-196.35 1228.84,-188.48"/>
<polygon fill="#63b8ff" stroke="#63b8ff" points="1266.85,-219.78 1277.03,-222.72 1270.9,-214.07 1266.85,-219.78"/>
</a>
</g>
</g>
<!-- Node21&#45;&gt;Node4 -->
<g id="edge26_Node000021_Node000004" class="edge">
<title>Node21&#45;&gt;Node4</title>
<g id="a_edge26_Node000021_Node000004"><a xlink:title=" ">
<path fill="none" stroke="#63b8ff" d="M1291.76,-167.77C1076.85,-146.19 833.31,-131.43 730.85,-125.68"/>
<polygon fill="#63b8ff" stroke="#63b8ff" points="1291.13,-171.23 1301.43,-168.75 1291.84,-164.26 1291.13,-171.23"/>
</a>
</g>
</g>
<!-- Node22 -->
<g id="Node000022" class="node">
<title>Node22</title>
<g id="a_Node000022"><a xlink:href="_firehawk_8cpp.html" target="_top" xlink:title=" ">
<polygon fill="white" stroke="#666666" points="1444.88,-132 1314.12,-132 1314.12,-112 1444.88,-112 1444.88,-132"/>
<text text-anchor="middle" x="1379.5" y="-118.5" font-family="Helvetica,sans-Serif" font-size="10.00">AI Behaviors/Firehawk.cpp</text>
</a>
</g>
</g>
<!-- Node21&#45;&gt;Node22 -->
<g id="edge25_Node000021_Node000022" class="edge">
<title>Node21&#45;&gt;Node22</title>
<g id="a_edge25_Node000021_Node000022"><a xlink:title=" ">
<path fill="none" stroke="#63b8ff" d="M1369.51,-156.71C1372,-148.32 1374.76,-139.01 1376.74,-132.3"/>
<polygon fill="#63b8ff" stroke="#63b8ff" points="1366.2,-155.56 1366.72,-166.14 1372.91,-157.55 1366.2,-155.56"/>
</a>
</g>
</g>
<!-- Node23&#45;&gt;Node4 -->
<g id="edge28_Node000023_Node000004" class="edge">
<title>Node23&#45;&gt;Node4</title>
<g id="a_edge28_Node000023_Node000004"><a xlink:title=" ">
<path fill="none" stroke="#63b8ff" d="M1133.79,-167.83C980.08,-151.63 811.9,-135.4 730.56,-127.65"/>
<polygon fill="#63b8ff" stroke="#63b8ff" points="1133.02,-171.27 1143.33,-168.84 1133.75,-164.31 1133.02,-171.27"/>
</a>
</g>
</g>
<!-- Node24 -->
<g id="Node000024" class="node">
<title>Node24</title>
<g id="a_Node000024"><a xlink:href="_hammer_head_8cpp.html" target="_top" xlink:title=" ">
<polygon fill="white" stroke="#666666" points="1296,-132 1145,-132 1145,-112 1296,-112 1296,-132"/>
<text text-anchor="middle" x="1220.5" y="-118.5" font-family="Helvetica,sans-Serif" font-size="10.00">AI Behaviors/HammerHead.cpp</text>
</a>
</g>
</g>
<!-- Node23&#45;&gt;Node24 -->
<g id="edge29_Node000023_Node000024" class="edge">
<title>Node23&#45;&gt;Node24</title>
<g id="a_edge29_Node000023_Node000024"><a xlink:title=" ">
<path fill="none" stroke="#63b8ff" d="M1217.43,-156.13C1218.19,-147.9 1219.03,-138.85 1219.64,-132.3"/>
<polygon fill="#63b8ff" stroke="#63b8ff" points="1213.95,-155.81 1216.51,-166.09 1220.92,-156.45 1213.95,-155.81"/>
</a>
</g>
</g>
<!-- Node26 -->
<g id="Node000026" class="node">
<title>Node26</title>
<g id="a_Node000026"><a xlink:href="_infantry_unit_8cpp.html" target="_top" xlink:title=" ">
<polygon fill="white" stroke="#666666" points="1739.75,-188 1599.25,-188 1599.25,-168 1739.75,-168 1739.75,-188"/>
<text text-anchor="middle" x="1669.5" y="-174.5" font-family="Helvetica,sans-Serif" font-size="10.00">AI Behaviors/InfantryUnit.cpp</text>
</a>
</g>
</g>
<!-- Node25&#45;&gt;Node26 -->
<g id="edge31_Node000025_Node000026" class="edge">
<title>Node25&#45;&gt;Node26</title>
<g id="a_edge31_Node000025_Node000026"><a xlink:title=" ">
<path fill="none" stroke="#63b8ff" d="M1669.5,-212.13C1669.5,-203.9 1669.5,-194.85 1669.5,-188.3"/>
<polygon fill="#63b8ff" stroke="#63b8ff" points="1666,-212.08 1669.5,-222.08 1673,-212.08 1666,-212.08"/>
</a>
</g>
</g>
<!-- Node27 -->
<g id="Node000027" class="node">
<title>Node27</title>
<g id="a_Node000027"><a xlink:href="_rifleman_squad_8h.html" target="_top" xlink:title=" ">
<polygon fill="white" stroke="#666666" points="1904.75,-188 1758.25,-188 1758.25,-168 1904.75,-168 1904.75,-188"/>
<text text-anchor="middle" x="1831.5" y="-174.5" font-family="Helvetica,sans-Serif" font-size="10.00">AI Behaviors/RiflemanSquad.h</text>
</a>
</g>
</g>
<!-- Node25&#45;&gt;Node27 -->
<g id="edge32_Node000025_Node000027" class="edge">
<title>Node25&#45;&gt;Node27</title>
<g id="a_edge32_Node000025_Node000027"><a xlink:title=" ">
<path fill="none" stroke="#63b8ff" d="M1708.35,-220.05C1737.52,-210.33 1776.78,-197.24 1803.06,-188.48"/>
<polygon fill="#63b8ff" stroke="#63b8ff" points="1707.53,-216.63 1699.15,-223.12 1709.75,-223.27 1707.53,-216.63"/>
</a>
</g>
</g>
<!-- Node27&#45;&gt;Node4 -->
<g id="edge33_Node000027_Node000004" class="edge">
<title>Node27&#45;&gt;Node4</title>
<g id="a_edge33_Node000027_Node000004"><a xlink:title=" ">
<path fill="none" stroke="#63b8ff" d="M1746.36,-167.9C1343.37,-138.43 1239.6,-151.32 839.5,-132 803,-130.24 761.78,-127.88 730.6,-126.02"/>
<polygon fill="#63b8ff" stroke="#63b8ff" points="1746.02,-171.38 1756.25,-168.63 1746.53,-164.4 1746.02,-171.38"/>
</a>
</g>
</g>
<!-- Node28 -->
<g id="Node000028" class="node">
<title>Node28</title>
<g id="a_Node000028"><a xlink:href="_rifleman_squad_8cpp.html" target="_top" xlink:title=" ">
<polygon fill="white" stroke="#666666" points="1910,-132 1753,-132 1753,-112 1910,-112 1910,-132"/>
<text text-anchor="middle" x="1831.5" y="-118.5" font-family="Helvetica,sans-Serif" font-size="10.00">AI Behaviors/RiflemanSquad.cpp</text>
</a>
</g>
</g>
<!-- Node27&#45;&gt;Node28 -->
<g id="edge34_Node000027_Node000028" class="edge">
<title>Node27&#45;&gt;Node28</title>
<g id="a_edge34_Node000027_Node000028"><a xlink:title=" ">
<path fill="none" stroke="#63b8ff" d="M1831.5,-156.13C1831.5,-147.9 1831.5,-138.85 1831.5,-132.3"/>
<polygon fill="#63b8ff" stroke="#63b8ff" points="1828,-156.08 1831.5,-166.08 1835,-156.08 1828,-156.08"/>
</a>
</g>
</g>
<!-- Node30&#45;&gt;Node15 -->
<g id="edge40_Node000030_Node000015" class="edge">
<title>Node30&#45;&gt;Node15</title>
<g id="a_edge40_Node000030_Node000015"><a xlink:title=" ">
<path fill="none" stroke="#63b8ff" d="M995.36,-223.86C732.21,-200.55 432.11,-186.68 305.6,-181.41"/>
<polygon fill="#63b8ff" stroke="#63b8ff" points="994.89,-227.34 1005.17,-224.74 995.52,-220.37 994.89,-227.34"/>
</a>
</g>
</g>
<!-- Node31 -->
<g id="Node000031" class="node">
<title>Node31</title>
<g id="a_Node000031"><a xlink:href="_buggy_8h.html" target="_top" xlink:title=" ">
<polygon fill="white" stroke="#666666" points="978,-188 869,-188 869,-168 978,-168 978,-188"/>
<text text-anchor="middle" x="923.5" y="-174.5" font-family="Helvetica,sans-Serif" font-size="10.00">AI Behaviors/Buggy.h</text>
</a>
</g>
</g>
<!-- Node30&#45;&gt;Node31 -->
<g id="edge37_Node000030_Node000031" class="edge">
<title>Node30&#45;&gt;Node31</title>
<g id="a_edge37_Node000030_Node000031"><a xlink:title=" ">
<path fill="none" stroke="#63b8ff" d="M1036.05,-219.79C1009.31,-210.1 973.61,-197.16 949.66,-188.48"/>
<polygon fill="#63b8ff" stroke="#63b8ff" points="1034.53,-222.96 1045.12,-223.08 1036.91,-216.38 1034.53,-222.96"/>
</a>
</g>
</g>
<!-- Node33 -->
<g id="Node000033" class="node">
<title>Node33</title>
<g id="a_Node000033"><a xlink:href="_tank_aurora_8h.html" target="_top" xlink:title=" ">
<polygon fill="white" stroke="#666666" points="1126.88,-188 996.12,-188 996.12,-168 1126.88,-168 1126.88,-188"/>
<text text-anchor="middle" x="1061.5" y="-174.5" font-family="Helvetica,sans-Serif" font-size="10.00">AI Behaviors/TankAurora.h</text>
</a>
</g>
</g>
<!-- Node30&#45;&gt;Node33 -->
<g id="edge41_Node000030_Node000033" class="edge">
<title>Node30&#45;&gt;Node33</title>
<g id="a_edge41_Node000030_Node000033"><a xlink:title=" ">
<path fill="none" stroke="#63b8ff" d="M1068.31,-212.43C1066.61,-204.11 1064.75,-194.93 1063.39,-188.3"/>
<polygon fill="#63b8ff" stroke="#63b8ff" points="1064.86,-213.01 1070.28,-222.11 1071.72,-211.61 1064.86,-213.01"/>
</a>
</g>
</g>
<!-- Node35 -->
<g id="Node000035" class="node">
<title>Node35</title>
<g id="a_Node000035"><a xlink:href="_vehicle_unit_8cpp.html" target="_top" xlink:title=" ">
<polygon fill="white" stroke="#666666" points="851.12,-188 709.88,-188 709.88,-168 851.12,-168 851.12,-188"/>
<text text-anchor="middle" x="780.5" y="-174.5" font-family="Helvetica,sans-Serif" font-size="10.00">AI Behaviors/VehicleUnit.cpp</text>
</a>
</g>
</g>
<!-- Node30&#45;&gt;Node35 -->
<g id="edge44_Node000030_Node000035" class="edge">
<title>Node30&#45;&gt;Node35</title>
<g id="a_edge44_Node000030_Node000035"><a xlink:title=" ">
<path fill="none" stroke="#63b8ff" d="M1010.3,-221.5C957.08,-211.66 881.4,-197.66 831.64,-188.46"/>
<polygon fill="#63b8ff" stroke="#63b8ff" points="1009.35,-224.88 1019.82,-223.26 1010.62,-218 1009.35,-224.88"/>
</a>
</g>
</g>
<!-- Node31&#45;&gt;Node4 -->
<g id="edge39_Node000031_Node000004" class="edge">
<title>Node31&#45;&gt;Node4</title>
<g id="a_edge39_Node000031_Node000004"><a xlink:title=" ">
<path fill="none" stroke="#63b8ff" d="M870.01,-165.06C826.01,-155.25 764.52,-141.52 723.88,-132.46"/>
<polygon fill="#63b8ff" stroke="#63b8ff" points="869.07,-168.44 879.59,-167.2 870.59,-161.61 869.07,-168.44"/>
</a>
</g>
</g>
<!-- Node32 -->
<g id="Node000032" class="node">
<title>Node32</title>
<g id="a_Node000032"><a xlink:href="_buggy_8cpp.html" target="_top" xlink:title=" ">
<polygon fill="white" stroke="#666666" points="968.25,-132 848.75,-132 848.75,-112 968.25,-112 968.25,-132"/>
<text text-anchor="middle" x="908.5" y="-118.5" font-family="Helvetica,sans-Serif" font-size="10.00">AI Behaviors/Buggy.cpp</text>
</a>
</g>
</g>
<!-- Node31&#45;&gt;Node32 -->
<g id="edge38_Node000031_Node000032" class="edge">
<title>Node31&#45;&gt;Node32</title>
<g id="a_edge38_Node000031_Node000032"><a xlink:title=" ">
<path fill="none" stroke="#63b8ff" d="M917.87,-156.71C915.53,-148.32 912.95,-139.01 911.08,-132.3"/>
<polygon fill="#63b8ff" stroke="#63b8ff" points="914.43,-157.44 920.48,-166.14 921.18,-155.56 914.43,-157.44"/>
</a>
</g>
</g>
<!-- Node33&#45;&gt;Node4 -->
<g id="edge42_Node000033_Node000004" class="edge">
<title>Node33&#45;&gt;Node4</title>
<g id="a_edge42_Node000033_Node000004"><a xlink:title=" ">
<path fill="none" stroke="#63b8ff" d="M984.38,-166.04C908.56,-155.27 795.12,-139.15 730.75,-130"/>
<polygon fill="#63b8ff" stroke="#63b8ff" points="983.85,-169.5 994.24,-167.44 984.84,-162.57 983.85,-169.5"/>
</a>
</g>
</g>
<!-- Node34 -->
<g id="Node000034" class="node">
<title>Node34</title>
<g id="a_Node000034"><a xlink:href="_tank_aurora_8cpp.html" target="_top" xlink:title=" ">
<polygon fill="white" stroke="#666666" points="1127.12,-132 985.88,-132 985.88,-112 1127.12,-112 1127.12,-132"/>
<text text-anchor="middle" x="1056.5" y="-118.5" font-family="Helvetica,sans-Serif" font-size="10.00">AI Behaviors/TankAurora.cpp</text>
</a>
</g>
</g>
<!-- Node33&#45;&gt;Node34 -->
<g id="edge43_Node000033_Node000034" class="edge">
<title>Node33&#45;&gt;Node34</title>
<g id="a_edge43_Node000033_Node000034"><a xlink:title=" ">
<path fill="none" stroke="#63b8ff" d="M1059.57,-156.13C1058.81,-147.9 1057.97,-138.85 1057.36,-132.3"/>
<polygon fill="#63b8ff" stroke="#63b8ff" points="1056.08,-156.45 1060.49,-166.09 1063.05,-155.81 1056.08,-156.45"/>
</a>
</g>
</g>
<!-- Node36&#45;&gt;Node4 -->
<g id="edge46_Node000036_Node000004" class="edge">
<title>Node36&#45;&gt;Node4</title>
<g id="a_edge46_Node000036_Node000004"><a xlink:title=" ">
<path fill="none" stroke="#63b8ff" d="M819.27,-268.63C816.71,-254.45 811.22,-235.99 799.5,-224 766.77,-190.53 732.52,-222.15 700.5,-188 685.86,-172.39 682.44,-146.12 681.68,-132.24"/>
<polygon fill="#63b8ff" stroke="#63b8ff" points="815.76,-268.83 820.63,-278.23 822.69,-267.84 815.76,-268.83"/>
</a>
</g>
</g>
<!-- Node37 -->
<g id="Node000037" class="node">
<title>Node37</title>
<g id="a_Node000037"><a xlink:href="_war_factory_8cpp.html" target="_top" xlink:title=" ">
<polygon fill="white" stroke="#666666" points="988.88,-244 846.12,-244 846.12,-224 988.88,-224 988.88,-244"/>
<text text-anchor="middle" x="917.5" y="-230.5" font-family="Helvetica,sans-Serif" font-size="10.00">AI Behaviors/WarFactory.cpp</text>
</a>
</g>
</g>
<!-- Node36&#45;&gt;Node37 -->
<g id="edge47_Node000036_Node000037" class="edge">
<title>Node36&#45;&gt;Node37</title>
<g id="a_edge47_Node000036_Node000037"><a xlink:title=" ">
<path fill="none" stroke="#63b8ff" d="M848.02,-274.08C864.85,-264.62 886.1,-252.66 900.65,-244.48"/>
<polygon fill="#63b8ff" stroke="#63b8ff" points="846.54,-270.9 839.54,-278.85 849.97,-277 846.54,-270.9"/>
</a>
</g>
</g>
</g>
</svg>

<g id="navigator" transform="translate(0 0)" fill="#404254">
  <rect fill="#f2f5e9" fill-opacity="0.5" stroke="#606060" stroke-width=".5" x="0" y="0" width="60" height="60"/>
  <use id="zoomplus" xlink:href="#zoomPlus" x="17" y="9" onmousedown="handleZoom(evt,'in')"/>
  <use id="zoomminus" xlink:href="#zoomMin" x="42" y="9" onmousedown="handleZoom(evt,'out')"/>
  <use id="reset" xlink:href="#resetDef" x="30" y="36" onmousedown="handleReset()"/>
   <use id="arrowup" xlink:href="#arrowUp" x="0" y="0" onmousedown="handlePan(0,-1)"/>
  <use id="arrowright" xlink:href="#arrowRight" x="0" y="0" onmousedown="handlePan(1,0)"/>
  <use id="arrowdown" xlink:href="#arrowDown" x="0" y="0" onmousedown="handlePan(0,1)"/>
  <use id="arrowleft" xlink:href="#arrowLeft" x="0" y="0" onmousedown="handlePan(-1,0)"/>
</g>
<svg viewBox="0 0 15 15" width="100%" height="30px" preserveAspectRatio="xMaxYMin meet">
 <g id="arrow_out" transform="scale(0.3 0.3)">
  <a xlink:href="_building_8h__dep__incl_org.svg" target="_base">
   <rect id="button" ry="5" rx="5" y="6" x="6" height="38" width="38"
        fill="#f2f5e9" fill-opacity="0.5" stroke="#606060" stroke-width="1.0"/>
   <path id="arrow"
     d="M 11.500037,31.436501 C 11.940474,20.09759 22.043105,11.32322 32.158766,21.979434 L 37.068811,17.246167 C 37.068811,17.246167 37.088388,32 37.088388,32 L 22.160133,31.978069 C 22.160133,31.978069 26.997745,27.140456 26.997745,27.140456 C 18.528582,18.264221 13.291696,25.230495 11.500037,31.436501 z"
     style="fill:#404040;"/>
  </a>
 </g>
</svg>

<style type='text/css'>
<![CDATA[
[data-mouse-over-selected='false'] { opacity: 0.7; }
[data-mouse-over-selected='true']  { opacity: 1.0; }
]]>
</style>
<script type="application/ecmascript"><![CDATA[
document.addEventListener('DOMContentLoaded', (event) => {
  highlightEdges();
  highlightAdjacentNodes();
});
]]></script>
</svg>
