<?xml version="1.0" encoding="UTF-8" standalone="no"?>
<!DOCTYPE svg PUBLIC "-//W3C//DTD SVG 1.1//EN"
 "http://www.w3.org/Graphics/SVG/1.1/DTD/svg11.dtd">
<!-- Generated by graphviz version 10.0.1 (20240210.2158)
 -->
<!-- Title: AI Behaviors/BuildingType.h Pages: 1 -->
<!--zoomable 420 -->

<svg id="main" version="1.1" xmlns="http://www.w3.org/2000/svg" xmlns:xlink="http://www.w3.org/1999/xlink" xml:space="preserve" onload="init(evt)">
<style type="text/css"><![CDATA[
.node, .edge {opacity: 0.7;}
.node.selected, .edge.selected {opacity: 1;}
.edge:hover path { stroke: red; }
.edge:hover polygon { stroke: red; fill: red; }
]]></style>

<defs>
  <circle id="rim" cx="0" cy="0" r="7"/>
  <circle id="rim2" cx="0" cy="0" r="3.5"/>
  <g id="zoomPlus">
    <use xlink:href="#rim" fill="#404040"><set attributeName="fill" to="#808080" begin="zoomplus.mouseover" end="zoomplus.mouseout"/></use>
    <path d="M-4,0h8M0,-4v8" fill="none" stroke="white" stroke-width="1.5" pointer-events="none"/>
  </g>
  <g id="zoomMin">
    <use xlink:href="#rim" fill="#404040"><set attributeName="fill" to="#808080" begin="zoomminus.mouseover" end="zoomminus.mouseout"/></use>
    <path d="M-4,0h8" fill="none" stroke="white" stroke-width="1.5" pointer-events="none"/>
  </g>
  <g id="arrowUp" transform="translate(30 24)">
    <use xlink:href="#rim"/>
    <path pointer-events="none" fill="none" stroke="white" stroke-width="1.5" d="M0,-3.0v7 M-2.5,-0.5L0,-3.0L2.5,-0.5"/>
  </g>
  <g id="arrowRight" transform="rotate(90) translate(36 -43)">
    <use xlink:href="#rim"/>
    <path pointer-events="none" fill="none" stroke="white" stroke-width="1.5" d="M0,-3.0v7 M-2.5,-0.5L0,-3.0L2.5,-0.5"/>
  </g>
  <g id="arrowDown" transform="rotate(180) translate(-30 -48)">
    <use xlink:href="#rim"/>
    <path pointer-events="none" fill="none" stroke="white" stroke-width="1.5" d="M0,-3.0v7 M-2.5,-0.5L0,-3.0L2.5,-0.5"/>
  </g>
  <g id="arrowLeft" transform="rotate(270) translate(-36 17)">
    <use xlink:href="#rim"/>
    <path pointer-events="none" fill="none" stroke="white" stroke-width="1.5" d="M0,-3.0v7 M-2.5,-0.5L0,-3.0L2.5,-0.5"/>
  </g>
  <g id="resetDef">
    <use xlink:href="#rim2" fill="#404040"><set attributeName="fill" to="#808080" begin="reset.mouseover" end="reset.mouseout"/></use>
  </g>
</defs>
<script type="application/ecmascript">
var viewWidth = 2229;
var viewHeight = 420;
var sectionId = 'dynsection-0';
</script>
<script type="application/ecmascript" xlink:href="svg.min.js"/>
<svg id="graph" class="graph">
<g id="viewport">
<title>AI Behaviors/BuildingType.h</title>
<!-- Node1 -->
<g id="Node000001" class="node">
<title>Node1</title>
<g id="a_Node000001"><a xlink:title=" ">
<polygon fill="#999999" stroke="#666666" points="1885.75,-412 1749,-412 1749,-392 1885.75,-392 1885.75,-412"/>
<text text-anchor="middle" x="1817.38" y="-398.5" font-family="Helvetica,sans-Serif" font-size="10.00">AI Behaviors/BuildingType.h</text>
</a>
</g>
</g>
<!-- Node2 -->
<g id="Node000002" class="node">
<title>Node2</title>
<g id="a_Node000002"><a xlink:href="_building_8h.html" target="_top" xlink:title=" ">
<polygon fill="white" stroke="#666666" points="1600.25,-356 1484.5,-356 1484.5,-336 1600.25,-336 1600.25,-356"/>
<text text-anchor="middle" x="1542.38" y="-342.5" font-family="Helvetica,sans-Serif" font-size="10.00">AI Behaviors/Building.h</text>
</a>
</g>
</g>
<!-- Node1&#45;&gt;Node2 -->
<g id="edge1_Node000001_Node000002" class="edge">
<title>Node1&#45;&gt;Node2</title>
<g id="a_edge1_Node000001_Node000002"><a xlink:title=" ">
<path fill="none" stroke="#63b8ff" d="M1758.17,-389.37C1708.08,-379.54 1637.2,-365.62 1590.54,-356.46"/>
<polygon fill="#63b8ff" stroke="#63b8ff" points="1757.19,-392.75 1767.67,-391.24 1758.54,-385.88 1757.19,-392.75"/>
</a>
</g>
</g>
<!-- Node5 -->
<g id="Node000005" class="node">
<title>Node5</title>
<g id="a_Node000005"><a xlink:href="_g_u_i_8h.html" target="_top" xlink:title=" ">
<polygon fill="white" stroke="#666666" points="1339.25,-132 1241.5,-132 1241.5,-112 1339.25,-112 1339.25,-132"/>
<text text-anchor="middle" x="1290.38" y="-118.5" font-family="Helvetica,sans-Serif" font-size="10.00">AI Behaviors/GUI.h</text>
</a>
</g>
</g>
<!-- Node1&#45;&gt;Node5 -->
<g id="edge49_Node000001_Node000005" class="edge">
<title>Node1&#45;&gt;Node5</title>
<g id="a_edge49_Node000001_Node000005"><a xlink:title=" ">
<path fill="none" stroke="#63b8ff" d="M1737.27,-401.79C1568.18,-401.64 1183.27,-391.03 1097.38,-300 1074.14,-275.38 1072.11,-251.11 1092.38,-224 1126.22,-178.72 1164.69,-214.97 1214.38,-188 1242.15,-172.93 1268.84,-146.43 1281.96,-132.38"/>
<polygon fill="#63b8ff" stroke="#63b8ff" points="1737.07,-405.29 1747.06,-401.79 1737.06,-398.29 1737.07,-405.29"/>
</a>
</g>
</g>
<!-- Node7 -->
<g id="Node000007" class="node">
<title>Node7</title>
<g id="a_Node000007"><a xlink:href="_game_8h.html" target="_top" xlink:title=" ">
<polygon fill="white" stroke="#666666" points="1873.12,-76 1765.62,-76 1765.62,-56 1873.12,-56 1873.12,-76"/>
<text text-anchor="middle" x="1819.38" y="-62.5" font-family="Helvetica,sans-Serif" font-size="10.00">AI Behaviors/Game.h</text>
</a>
</g>
</g>
<!-- Node1&#45;&gt;Node7 -->
<g id="edge50_Node000001_Node000007" class="edge">
<title>Node1&#45;&gt;Node7</title>
<g id="a_edge50_Node000001_Node000007"><a xlink:title=" ">
<path fill="none" stroke="#63b8ff" d="M1897.37,-395.48C2015.14,-385.12 2221.38,-357.48 2221.38,-291 2221.38,-291 2221.38,-291 2221.38,-177 2221.38,-105.73 1983.32,-79.01 1873.59,-70.48"/>
<polygon fill="#63b8ff" stroke="#63b8ff" points="1897.08,-391.99 1887.42,-396.33 1897.68,-398.96 1897.08,-391.99"/>
</a>
</g>
</g>
<!-- Node39 -->
<g id="Node000039" class="node">
<title>Node39</title>
<g id="a_Node000039"><a xlink:href="_side_bar_8h.html" target="_top" xlink:title=" ">
<polygon fill="white" stroke="#666666" points="2097.25,-356 1981.5,-356 1981.5,-336 2097.25,-336 2097.25,-356"/>
<text text-anchor="middle" x="2039.38" y="-342.5" font-family="Helvetica,sans-Serif" font-size="10.00">AI Behaviors/SideBar.h</text>
</a>
</g>
</g>
<!-- Node1&#45;&gt;Node39 -->
<g id="edge51_Node000001_Node000039" class="edge">
<title>Node1&#45;&gt;Node39</title>
<g id="a_edge51_Node000001_Node000039"><a xlink:title=" ">
<path fill="none" stroke="#63b8ff" d="M1867.48,-388.81C1907.76,-379.01 1963.54,-365.45 2000.5,-356.46"/>
<polygon fill="#63b8ff" stroke="#63b8ff" points="1866.66,-385.41 1857.77,-391.17 1868.31,-392.21 1866.66,-385.41"/>
</a>
</g>
</g>
<!-- Node3 -->
<g id="Node000003" class="node">
<title>Node3</title>
<g id="a_Node000003"><a xlink:href="_air_craft_8h.html" target="_top" xlink:title=" ">
<polygon fill="white" stroke="#666666" points="1671.12,-300 1557.62,-300 1557.62,-280 1671.12,-280 1671.12,-300"/>
<text text-anchor="middle" x="1614.38" y="-286.5" font-family="Helvetica,sans-Serif" font-size="10.00">AI Behaviors/AirCraft.h</text>
</a>
</g>
</g>
<!-- Node2&#45;&gt;Node3 -->
<g id="edge2_Node000002_Node000003" class="edge">
<title>Node2&#45;&gt;Node3</title>
<g id="a_edge2_Node000002_Node000003"><a xlink:title=" ">
<path fill="none" stroke="#63b8ff" d="M1563.77,-328.95C1576.22,-319.61 1591.49,-308.16 1601.98,-300.3"/>
<polygon fill="#63b8ff" stroke="#63b8ff" points="1562.03,-325.89 1556.13,-334.69 1566.23,-331.49 1562.03,-325.89"/>
</a>
</g>
</g>
<!-- Node10 -->
<g id="Node000010" class="node">
<title>Node10</title>
<g id="a_Node000010"><a xlink:href="_barracks_8h.html" target="_top" xlink:title=" ">
<polygon fill="white" stroke="#666666" points="1810.5,-300 1690.25,-300 1690.25,-280 1810.5,-280 1810.5,-300"/>
<text text-anchor="middle" x="1750.38" y="-286.5" font-family="Helvetica,sans-Serif" font-size="10.00">AI Behaviors/Barracks.h</text>
</a>
</g>
</g>
<!-- Node2&#45;&gt;Node10 -->
<g id="edge9_Node000002_Node000010" class="edge">
<title>Node2&#45;&gt;Node10</title>
<g id="a_edge9_Node000002_Node000010"><a xlink:title=" ">
<path fill="none" stroke="#63b8ff" d="M1589.32,-332.81C1627.03,-323.02 1679.23,-309.47 1713.86,-300.48"/>
<polygon fill="#63b8ff" stroke="#63b8ff" points="1588.87,-329.31 1580.07,-335.21 1590.63,-336.09 1588.87,-329.31"/>
</a>
</g>
</g>
<!-- Node12 -->
<g id="Node000012" class="node">
<title>Node12</title>
<g id="a_Node000012"><a xlink:href="_building_8cpp.html" target="_top" xlink:title=" ">
<polygon fill="white" stroke="#666666" points="1382.5,-300 1256.25,-300 1256.25,-280 1382.5,-280 1382.5,-300"/>
<text text-anchor="middle" x="1319.38" y="-286.5" font-family="Helvetica,sans-Serif" font-size="10.00">AI Behaviors/Building.cpp</text>
</a>
</g>
</g>
<!-- Node2&#45;&gt;Node12 -->
<g id="edge12_Node000002_Node000012" class="edge">
<title>Node2&#45;&gt;Node12</title>
<g id="a_edge12_Node000002_Node000012"><a xlink:title=" ">
<path fill="none" stroke="#63b8ff" d="M1492.3,-332.88C1451.82,-323.07 1395.64,-309.47 1358.43,-300.46"/>
<polygon fill="#63b8ff" stroke="#63b8ff" points="1491.26,-336.22 1501.81,-335.18 1492.91,-329.42 1491.26,-336.22"/>
</a>
</g>
</g>
<!-- Node13 -->
<g id="Node000013" class="node">
<title>Node13</title>
<g id="a_Node000013"><a xlink:href="_headquarters_8h.html" target="_top" xlink:title=" ">
<polygon fill="white" stroke="#666666" points="1539.88,-300 1400.88,-300 1400.88,-280 1539.88,-280 1539.88,-300"/>
<text text-anchor="middle" x="1470.38" y="-286.5" font-family="Helvetica,sans-Serif" font-size="10.00">AI Behaviors/Headquarters.h</text>
</a>
</g>
</g>
<!-- Node2&#45;&gt;Node13 -->
<g id="edge13_Node000002_Node000013" class="edge">
<title>Node2&#45;&gt;Node13</title>
<g id="a_edge13_Node000002_Node000013"><a xlink:title=" ">
<path fill="none" stroke="#63b8ff" d="M1520.98,-328.95C1508.53,-319.61 1493.26,-308.16 1482.77,-300.3"/>
<polygon fill="#63b8ff" stroke="#63b8ff" points="1518.52,-331.49 1528.62,-334.69 1522.72,-325.89 1518.52,-331.49"/>
</a>
</g>
</g>
<!-- Node15 -->
<g id="Node000015" class="node">
<title>Node15</title>
<g id="a_Node000015"><a xlink:href="_refinery_8h.html" target="_top" xlink:title=" ">
<polygon fill="white" stroke="#666666" points="1987.62,-244 1871.12,-244 1871.12,-224 1987.62,-224 1987.62,-244"/>
<text text-anchor="middle" x="1929.38" y="-230.5" font-family="Helvetica,sans-Serif" font-size="10.00">AI Behaviors/Refinery.h</text>
</a>
</g>
</g>
<!-- Node2&#45;&gt;Node15 -->
<g id="edge16_Node000002_Node000015" class="edge">
<title>Node2&#45;&gt;Node15</title>
<g id="a_edge16_Node000002_Node000015"><a xlink:title=" ">
<path fill="none" stroke="#63b8ff" d="M1612.15,-340.87C1669.27,-335.8 1751.45,-324.59 1819.38,-300 1857.54,-286.18 1897.35,-258.9 1916.95,-244.47"/>
<polygon fill="#63b8ff" stroke="#63b8ff" points="1611.89,-337.38 1602.22,-341.7 1612.48,-344.35 1611.89,-337.38"/>
</a>
</g>
</g>
<!-- Node19 -->
<g id="Node000019" class="node">
<title>Node19</title>
<g id="a_Node000019"><a xlink:href="_unit_8h.html" target="_top" xlink:title=" ">
<polygon fill="white" stroke="#666666" points="901.62,-300 803.12,-300 803.12,-280 901.62,-280 901.62,-300"/>
<text text-anchor="middle" x="852.38" y="-286.5" font-family="Helvetica,sans-Serif" font-size="10.00">AI Behaviors/Unit.h</text>
</a>
</g>
</g>
<!-- Node2&#45;&gt;Node19 -->
<g id="edge22_Node000002_Node000019" class="edge">
<title>Node2&#45;&gt;Node19</title>
<g id="a_edge22_Node000002_Node000019"><a xlink:title=" ">
<path fill="none" stroke="#63b8ff" d="M1472.79,-339.55C1333.31,-328.64 1022.55,-304.32 901.74,-294.86"/>
<polygon fill="#63b8ff" stroke="#63b8ff" points="1472.39,-343.03 1482.63,-340.32 1472.94,-336.05 1472.39,-343.03"/>
</a>
</g>
</g>
<!-- Node37 -->
<g id="Node000037" class="node">
<title>Node37</title>
<g id="a_Node000037"><a xlink:href="_war_factory_8h.html" target="_top" xlink:title=" ">
<polygon fill="white" stroke="#666666" points="1238.5,-300 1106.25,-300 1106.25,-280 1238.5,-280 1238.5,-300"/>
<text text-anchor="middle" x="1172.38" y="-286.5" font-family="Helvetica,sans-Serif" font-size="10.00">AI Behaviors/WarFactory.h</text>
</a>
</g>
</g>
<!-- Node2&#45;&gt;Node37 -->
<g id="edge46_Node000002_Node000037" class="edge">
<title>Node2&#45;&gt;Node37</title>
<g id="a_edge46_Node000002_Node000037"><a xlink:title=" ">
<path fill="none" stroke="#63b8ff" d="M1472.78,-334.84C1405.2,-324.98 1303.41,-310.12 1237.41,-300.49"/>
<polygon fill="#63b8ff" stroke="#63b8ff" points="1472.26,-338.3 1482.66,-336.28 1473.27,-331.38 1472.26,-338.3"/>
</a>
</g>
</g>
<!-- Node4 -->
<g id="Node000004" class="node">
<title>Node4</title>
<g id="a_Node000004"><a xlink:href="_air_craft_8cpp.html" target="_top" xlink:title=" ">
<polygon fill="white" stroke="#666666" points="1629.38,-244 1505.38,-244 1505.38,-224 1629.38,-224 1629.38,-244"/>
<text text-anchor="middle" x="1567.38" y="-230.5" font-family="Helvetica,sans-Serif" font-size="10.00">AI Behaviors/AirCraft.cpp</text>
</a>
</g>
</g>
<!-- Node3&#45;&gt;Node4 -->
<g id="edge3_Node000003_Node000004" class="edge">
<title>Node3&#45;&gt;Node4</title>
<g id="a_edge3_Node000003_Node000004"><a xlink:title=" ">
<path fill="none" stroke="#63b8ff" d="M1598.71,-271C1590.93,-262.06 1581.84,-251.62 1575.47,-244.3"/>
<polygon fill="#63b8ff" stroke="#63b8ff" points="1595.99,-273.21 1605.19,-278.45 1601.27,-268.61 1595.99,-273.21"/>
</a>
</g>
</g>
<!-- Node3&#45;&gt;Node5 -->
<g id="edge4_Node000003_Node000005" class="edge">
<title>Node3&#45;&gt;Node5</title>
<g id="a_edge4_Node000003_Node000005"><a xlink:title=" ">
<path fill="none" stroke="#63b8ff" d="M1629.94,-270.76C1639.78,-256.91 1648.84,-237.93 1638.38,-224 1602.34,-176.02 1426.8,-143.47 1339.65,-129.99"/>
<polygon fill="#63b8ff" stroke="#63b8ff" points="1627.22,-268.56 1623.83,-278.6 1632.74,-272.86 1627.22,-268.56"/>
</a>
</g>
</g>
<!-- Node6 -->
<g id="Node000006" class="node">
<title>Node6</title>
<g id="a_Node000006"><a xlink:href="_g_u_i_8cpp.html" target="_top" xlink:title=" ">
<polygon fill="white" stroke="#666666" points="1344.5,-76 1236.25,-76 1236.25,-56 1344.5,-56 1344.5,-76"/>
<text text-anchor="middle" x="1290.38" y="-62.5" font-family="Helvetica,sans-Serif" font-size="10.00">AI Behaviors/GUI.cpp</text>
</a>
</g>
</g>
<!-- Node5&#45;&gt;Node6 -->
<g id="edge5_Node000005_Node000006" class="edge">
<title>Node5&#45;&gt;Node6</title>
<g id="a_edge5_Node000005_Node000006"><a xlink:title=" ">
<path fill="none" stroke="#63b8ff" d="M1290.38,-100.13C1290.38,-91.9 1290.38,-82.85 1290.38,-76.3"/>
<polygon fill="#63b8ff" stroke="#63b8ff" points="1286.88,-100.08 1290.38,-110.08 1293.88,-100.08 1286.88,-100.08"/>
</a>
</g>
</g>
<!-- Node5&#45;&gt;Node7 -->
<g id="edge6_Node000005_Node000007" class="edge">
<title>Node5&#45;&gt;Node7</title>
<g id="a_edge6_Node000005_Node000007"><a xlink:title=" ">
<path fill="none" stroke="#63b8ff" d="M1350.9,-114.82C1454.91,-104.2 1665.93,-82.66 1765.31,-72.52"/>
<polygon fill="#63b8ff" stroke="#63b8ff" points="1350.77,-111.32 1341.17,-115.81 1351.48,-118.28 1350.77,-111.32"/>
</a>
</g>
</g>
<!-- Node8 -->
<g id="Node000008" class="node">
<title>Node8</title>
<g id="a_Node000008"><a xlink:href="_game_8cpp.html" target="_top" xlink:title=" ">
<polygon fill="white" stroke="#666666" points="1812.38,-20 1694.38,-20 1694.38,0 1812.38,0 1812.38,-20"/>
<text text-anchor="middle" x="1753.38" y="-6.5" font-family="Helvetica,sans-Serif" font-size="10.00">AI Behaviors/Game.cpp</text>
</a>
</g>
</g>
<!-- Node7&#45;&gt;Node8 -->
<g id="edge7_Node000007_Node000008" class="edge">
<title>Node7&#45;&gt;Node8</title>
<g id="a_edge7_Node000007_Node000008"><a xlink:title=" ">
<path fill="none" stroke="#63b8ff" d="M1799.09,-48.4C1787.8,-39.17 1774.16,-28.01 1764.74,-20.3"/>
<polygon fill="#63b8ff" stroke="#63b8ff" points="1796.75,-51.01 1806.71,-54.64 1801.18,-45.59 1796.75,-51.01"/>
</a>
</g>
</g>
<!-- Node9 -->
<g id="Node000009" class="node">
<title>Node9</title>
<g id="a_Node000009"><a xlink:href="main_8cpp.html" target="_top" xlink:title=" ">
<polygon fill="white" stroke="#666666" points="1942.75,-20 1830,-20 1830,0 1942.75,0 1942.75,-20"/>
<text text-anchor="middle" x="1886.38" y="-6.5" font-family="Helvetica,sans-Serif" font-size="10.00">AI Behaviors/main.cpp</text>
</a>
</g>
</g>
<!-- Node7&#45;&gt;Node9 -->
<g id="edge8_Node000007_Node000009" class="edge">
<title>Node7&#45;&gt;Node9</title>
<g id="a_edge8_Node000007_Node000009"><a xlink:title=" ">
<path fill="none" stroke="#63b8ff" d="M1839.97,-48.4C1851.43,-39.17 1865.27,-28.01 1874.84,-20.3"/>
<polygon fill="#63b8ff" stroke="#63b8ff" points="1837.81,-45.64 1832.22,-54.64 1842.21,-51.09 1837.81,-45.64"/>
</a>
</g>
</g>
<!-- Node10&#45;&gt;Node5 -->
<g id="edge11_Node000010_Node000005" class="edge">
<title>Node10&#45;&gt;Node5</title>
<g id="a_edge11_Node000010_Node000005"><a xlink:title=" ">
<path fill="none" stroke="#63b8ff" d="M1786.51,-274.93C1812.51,-262.72 1840.39,-243.9 1824.38,-224 1809.05,-204.96 1468.55,-150.55 1339.43,-130.52"/>
<polygon fill="#63b8ff" stroke="#63b8ff" points="1785.1,-271.73 1777.37,-278.98 1787.93,-278.13 1785.1,-271.73"/>
</a>
</g>
</g>
<!-- Node11 -->
<g id="Node000011" class="node">
<title>Node11</title>
<g id="a_Node000011"><a xlink:href="_barracks_8cpp.html" target="_top" xlink:title=" ">
<polygon fill="white" stroke="#666666" points="1815.75,-244 1685,-244 1685,-224 1815.75,-224 1815.75,-244"/>
<text text-anchor="middle" x="1750.38" y="-230.5" font-family="Helvetica,sans-Serif" font-size="10.00">AI Behaviors/Barracks.cpp</text>
</a>
</g>
</g>
<!-- Node10&#45;&gt;Node11 -->
<g id="edge10_Node000010_Node000011" class="edge">
<title>Node10&#45;&gt;Node11</title>
<g id="a_edge10_Node000010_Node000011"><a xlink:title=" ">
<path fill="none" stroke="#63b8ff" d="M1750.38,-268.13C1750.38,-259.9 1750.38,-250.85 1750.38,-244.3"/>
<polygon fill="#63b8ff" stroke="#63b8ff" points="1746.88,-268.08 1750.38,-278.08 1753.88,-268.08 1746.88,-268.08"/>
</a>
</g>
</g>
<!-- Node13&#45;&gt;Node5 -->
<g id="edge14_Node000013_Node000005" class="edge">
<title>Node13&#45;&gt;Node5</title>
<g id="a_edge14_Node000013_Node000005"><a xlink:title=" ">
<path fill="none" stroke="#63b8ff" d="M1389.59,-277.61C1367.36,-270.99 1344.85,-260.52 1328.38,-244 1312.2,-227.79 1297.22,-158.04 1292.18,-132.46"/>
<polygon fill="#63b8ff" stroke="#63b8ff" points="1388.43,-280.92 1399,-280.17 1390.27,-274.17 1388.43,-280.92"/>
</a>
</g>
</g>
<!-- Node14 -->
<g id="Node000014" class="node">
<title>Node14</title>
<g id="a_Node000014"><a xlink:href="_headquarters_8cpp.html" target="_top" xlink:title=" ">
<polygon fill="white" stroke="#666666" points="1487.12,-244 1337.62,-244 1337.62,-224 1487.12,-224 1487.12,-244"/>
<text text-anchor="middle" x="1412.38" y="-230.5" font-family="Helvetica,sans-Serif" font-size="10.00">AI Behaviors/Headquarters.cpp</text>
</a>
</g>
</g>
<!-- Node13&#45;&gt;Node14 -->
<g id="edge15_Node000013_Node000014" class="edge">
<title>Node13&#45;&gt;Node14</title>
<g id="a_edge15_Node000013_Node000014"><a xlink:title=" ">
<path fill="none" stroke="#63b8ff" d="M1451.95,-271.85C1442.15,-262.72 1430.48,-251.86 1422.36,-244.3"/>
<polygon fill="#63b8ff" stroke="#63b8ff" points="1449.46,-274.31 1459.16,-278.56 1454.23,-269.19 1449.46,-274.31"/>
</a>
</g>
</g>
<!-- Node15&#45;&gt;Node5 -->
<g id="edge17_Node000015_Node000005" class="edge">
<title>Node15&#45;&gt;Node5</title>
<g id="a_edge17_Node000015_Node000005"><a xlink:title=" ">
<path fill="none" stroke="#63b8ff" d="M1908.48,-216.45C1886.09,-199.08 1851.71,-173.53 1836.38,-168 1745.67,-135.29 1456.16,-126.17 1339.65,-123.79"/>
<polygon fill="#63b8ff" stroke="#63b8ff" points="1906.3,-219.19 1916.34,-222.6 1910.62,-213.68 1906.3,-219.19"/>
</a>
</g>
</g>
<!-- Node16 -->
<g id="Node000016" class="node">
<title>Node16</title>
<g id="a_Node000016"><a xlink:href="_harvester_8h.html" target="_top" xlink:title=" ">
<polygon fill="white" stroke="#666666" points="1827.25,-188 1705.5,-188 1705.5,-168 1827.25,-168 1827.25,-188"/>
<text text-anchor="middle" x="1766.38" y="-174.5" font-family="Helvetica,sans-Serif" font-size="10.00">AI Behaviors/Harvester.h</text>
</a>
</g>
</g>
<!-- Node15&#45;&gt;Node16 -->
<g id="edge18_Node000015_Node000016" class="edge">
<title>Node15&#45;&gt;Node16</title>
<g id="a_edge18_Node000015_Node000016"><a xlink:title=" ">
<path fill="none" stroke="#63b8ff" d="M1890.28,-220.05C1860.94,-210.33 1821.43,-197.24 1794.99,-188.48"/>
<polygon fill="#63b8ff" stroke="#63b8ff" points="1888.95,-223.3 1899.55,-223.12 1891.15,-216.65 1888.95,-223.3"/>
</a>
</g>
</g>
<!-- Node18 -->
<g id="Node000018" class="node">
<title>Node18</title>
<g id="a_Node000018"><a xlink:href="_refinery_8cpp.html" target="_top" xlink:title=" ">
<polygon fill="white" stroke="#666666" points="2010.88,-188 1883.88,-188 1883.88,-168 2010.88,-168 2010.88,-188"/>
<text text-anchor="middle" x="1947.38" y="-174.5" font-family="Helvetica,sans-Serif" font-size="10.00">AI Behaviors/Refinery.cpp</text>
</a>
</g>
</g>
<!-- Node15&#45;&gt;Node18 -->
<g id="edge21_Node000015_Node000018" class="edge">
<title>Node15&#45;&gt;Node18</title>
<g id="a_edge21_Node000015_Node000018"><a xlink:title=" ">
<path fill="none" stroke="#63b8ff" d="M1936.14,-212.71C1938.93,-204.32 1942.04,-195.01 1944.28,-188.3"/>
<polygon fill="#63b8ff" stroke="#63b8ff" points="1932.83,-211.56 1932.99,-222.16 1939.47,-213.78 1932.83,-211.56"/>
</a>
</g>
</g>
<!-- Node16&#45;&gt;Node5 -->
<g id="edge19_Node000016_Node000005" class="edge">
<title>Node16&#45;&gt;Node5</title>
<g id="a_edge19_Node000016_Node000005"><a xlink:title=" ">
<path fill="none" stroke="#63b8ff" d="M1694.39,-168.35C1693.38,-168.23 1692.37,-168.12 1691.38,-168 1564.55,-153.27 1415.07,-136.71 1339.46,-128.39"/>
<polygon fill="#63b8ff" stroke="#63b8ff" points="1693.55,-171.78 1703.89,-169.47 1694.36,-164.82 1693.55,-171.78"/>
</a>
</g>
</g>
<!-- Node17 -->
<g id="Node000017" class="node">
<title>Node17</title>
<g id="a_Node000017"><a xlink:href="_harvester_8cpp.html" target="_top" xlink:title=" ">
<polygon fill="white" stroke="#666666" points="1832.5,-132 1700.25,-132 1700.25,-112 1832.5,-112 1832.5,-132"/>
<text text-anchor="middle" x="1766.38" y="-118.5" font-family="Helvetica,sans-Serif" font-size="10.00">AI Behaviors/Harvester.cpp</text>
</a>
</g>
</g>
<!-- Node16&#45;&gt;Node17 -->
<g id="edge20_Node000016_Node000017" class="edge">
<title>Node16&#45;&gt;Node17</title>
<g id="a_edge20_Node000016_Node000017"><a xlink:title=" ">
<path fill="none" stroke="#63b8ff" d="M1766.38,-156.13C1766.38,-147.9 1766.38,-138.85 1766.38,-132.3"/>
<polygon fill="#63b8ff" stroke="#63b8ff" points="1762.88,-156.08 1766.38,-166.08 1769.88,-156.08 1762.88,-156.08"/>
</a>
</g>
</g>
<!-- Node20 -->
<g id="Node000020" class="node">
<title>Node20</title>
<g id="a_Node000020"><a xlink:href="_aircraft_unit_8h.html" target="_top" xlink:title=" ">
<polygon fill="white" stroke="#666666" points="362,-244 232.75,-244 232.75,-224 362,-224 362,-244"/>
<text text-anchor="middle" x="297.38" y="-230.5" font-family="Helvetica,sans-Serif" font-size="10.00">AI Behaviors/AircraftUnit.h</text>
</a>
</g>
</g>
<!-- Node19&#45;&gt;Node20 -->
<g id="edge23_Node000019_Node000020" class="edge">
<title>Node19&#45;&gt;Node20</title>
<g id="a_edge23_Node000019_Node000020"><a xlink:title=" ">
<path fill="none" stroke="#63b8ff" d="M791.25,-283.05C685.77,-272.79 470.54,-251.85 362.42,-241.33"/>
<polygon fill="#63b8ff" stroke="#63b8ff" points="790.84,-286.53 801.13,-284.01 791.51,-279.56 790.84,-286.53"/>
</a>
</g>
</g>
<!-- Node26 -->
<g id="Node000026" class="node">
<title>Node26</title>
<g id="a_Node000026"><a xlink:href="_infantry_unit_8h.html" target="_top" xlink:title=" ">
<polygon fill="white" stroke="#666666" points="764.38,-244 634.38,-244 634.38,-224 764.38,-224 764.38,-244"/>
<text text-anchor="middle" x="699.38" y="-230.5" font-family="Helvetica,sans-Serif" font-size="10.00">AI Behaviors/InfantryUnit.h</text>
</a>
</g>
</g>
<!-- Node19&#45;&gt;Node26 -->
<g id="edge31_Node000019_Node000026" class="edge">
<title>Node19&#45;&gt;Node26</title>
<g id="a_edge31_Node000019_Node000026"><a xlink:title=" ">
<path fill="none" stroke="#63b8ff" d="M814.95,-275.79C787.49,-266.1 750.83,-253.16 726.23,-244.48"/>
<polygon fill="#63b8ff" stroke="#63b8ff" points="813.7,-279.06 824.3,-279.09 816.03,-272.46 813.7,-279.06"/>
</a>
</g>
</g>
<!-- Node30 -->
<g id="Node000030" class="node">
<title>Node30</title>
<g id="a_Node000030"><a xlink:href="_unit_8cpp.html" target="_top" xlink:title=" ">
<polygon fill="white" stroke="#666666" points="1044.88,-244 935.88,-244 935.88,-224 1044.88,-224 1044.88,-244"/>
<text text-anchor="middle" x="990.38" y="-230.5" font-family="Helvetica,sans-Serif" font-size="10.00">AI Behaviors/Unit.cpp</text>
</a>
</g>
</g>
<!-- Node19&#45;&gt;Node30 -->
<g id="edge36_Node000019_Node000030" class="edge">
<title>Node19&#45;&gt;Node30</title>
<g id="a_edge36_Node000019_Node000030"><a xlink:title=" ">
<path fill="none" stroke="#63b8ff" d="M887.13,-275.4C911.78,-265.75 944.26,-253.05 966.15,-244.48"/>
<polygon fill="#63b8ff" stroke="#63b8ff" points="885.86,-272.14 877.82,-279.04 888.41,-278.66 885.86,-272.14"/>
</a>
</g>
</g>
<!-- Node31 -->
<g id="Node000031" class="node">
<title>Node31</title>
<g id="a_Node000031"><a xlink:href="_vehicle_unit_8h.html" target="_top" xlink:title=" ">
<polygon fill="white" stroke="#666666" points="917.75,-244 787,-244 787,-224 917.75,-224 917.75,-244"/>
<text text-anchor="middle" x="852.38" y="-230.5" font-family="Helvetica,sans-Serif" font-size="10.00">AI Behaviors/VehicleUnit.h</text>
</a>
</g>
</g>
<!-- Node19&#45;&gt;Node31 -->
<g id="edge37_Node000019_Node000031" class="edge">
<title>Node19&#45;&gt;Node31</title>
<g id="a_edge37_Node000019_Node000031"><a xlink:title=" ">
<path fill="none" stroke="#63b8ff" d="M852.38,-268.13C852.38,-259.9 852.38,-250.85 852.38,-244.3"/>
<polygon fill="#63b8ff" stroke="#63b8ff" points="848.88,-268.08 852.38,-278.08 855.88,-268.08 848.88,-268.08"/>
</a>
</g>
</g>
<!-- Node21 -->
<g id="Node000021" class="node">
<title>Node21</title>
<g id="a_Node000021"><a xlink:href="_aircraft_unit_8cpp.html" target="_top" xlink:title=" ">
<polygon fill="white" stroke="#666666" points="446.25,-188 306.5,-188 306.5,-168 446.25,-168 446.25,-188"/>
<text text-anchor="middle" x="376.38" y="-174.5" font-family="Helvetica,sans-Serif" font-size="10.00">AI Behaviors/AircraftUnit.cpp</text>
</a>
</g>
</g>
<!-- Node20&#45;&gt;Node21 -->
<g id="edge24_Node000020_Node000021" class="edge">
<title>Node20&#45;&gt;Node21</title>
<g id="a_edge24_Node000020_Node000021"><a xlink:title=" ">
<path fill="none" stroke="#63b8ff" d="M320.39,-217.27C334.03,-207.94 350.88,-196.43 362.51,-188.48"/>
<polygon fill="#63b8ff" stroke="#63b8ff" points="318.67,-214.21 312.39,-222.74 322.62,-219.99 318.67,-214.21"/>
</a>
</g>
</g>
<!-- Node22 -->
<g id="Node000022" class="node">
<title>Node22</title>
<g id="a_Node000022"><a xlink:href="_firehawk_8h.html" target="_top" xlink:title=" ">
<polygon fill="white" stroke="#666666" points="130.5,-188 10.25,-188 10.25,-168 130.5,-168 130.5,-188"/>
<text text-anchor="middle" x="70.38" y="-174.5" font-family="Helvetica,sans-Serif" font-size="10.00">AI Behaviors/Firehawk.h</text>
</a>
</g>
</g>
<!-- Node20&#45;&gt;Node22 -->
<g id="edge25_Node000020_Node000022" class="edge">
<title>Node20&#45;&gt;Node22</title>
<g id="a_edge25_Node000020_Node000022"><a xlink:title=" ">
<path fill="none" stroke="#63b8ff" d="M246.41,-220.88C205.2,-211.07 148,-197.47 110.13,-188.46"/>
<polygon fill="#63b8ff" stroke="#63b8ff" points="245.56,-224.27 256.1,-223.18 247.18,-217.46 245.56,-224.27"/>
</a>
</g>
</g>
<!-- Node24 -->
<g id="Node000024" class="node">
<title>Node24</title>
<g id="a_Node000024"><a xlink:href="_hammer_head_8h.html" target="_top" xlink:title=" ">
<polygon fill="white" stroke="#666666" points="288.62,-188 148.12,-188 148.12,-168 288.62,-168 288.62,-188"/>
<text text-anchor="middle" x="218.38" y="-174.5" font-family="Helvetica,sans-Serif" font-size="10.00">AI Behaviors/HammerHead.h</text>
</a>
</g>
</g>
<!-- Node20&#45;&gt;Node24 -->
<g id="edge28_Node000020_Node000024" class="edge">
<title>Node20&#45;&gt;Node24</title>
<g id="a_edge28_Node000020_Node000024"><a xlink:title=" ">
<path fill="none" stroke="#63b8ff" d="M274.36,-217.27C260.72,-207.94 243.87,-196.43 232.24,-188.48"/>
<polygon fill="#63b8ff" stroke="#63b8ff" points="272.13,-219.99 282.36,-222.74 276.08,-214.21 272.13,-219.99"/>
</a>
</g>
</g>
<!-- Node22&#45;&gt;Node5 -->
<g id="edge27_Node000022_Node000005" class="edge">
<title>Node22&#45;&gt;Node5</title>
<g id="a_edge27_Node000022_Node000005"><a xlink:title=" ">
<path fill="none" stroke="#63b8ff" d="M142.2,-167.84C551.68,-133.6 657.55,-148.08 1065.38,-132 1125.92,-129.61 1195.63,-126.82 1241.22,-124.98"/>
<polygon fill="#63b8ff" stroke="#63b8ff" points="142.1,-164.33 132.43,-168.66 142.69,-171.31 142.1,-164.33"/>
</a>
</g>
</g>
<!-- Node23 -->
<g id="Node000023" class="node">
<title>Node23</title>
<g id="a_Node000023"><a xlink:href="_firehawk_8cpp.html" target="_top" xlink:title=" ">
<polygon fill="white" stroke="#666666" points="130.75,-132 0,-132 0,-112 130.75,-112 130.75,-132"/>
<text text-anchor="middle" x="65.38" y="-118.5" font-family="Helvetica,sans-Serif" font-size="10.00">AI Behaviors/Firehawk.cpp</text>
</a>
</g>
</g>
<!-- Node22&#45;&gt;Node23 -->
<g id="edge26_Node000022_Node000023" class="edge">
<title>Node22&#45;&gt;Node23</title>
<g id="a_edge26_Node000022_Node000023"><a xlink:title=" ">
<path fill="none" stroke="#63b8ff" d="M68.44,-156.13C67.68,-147.9 66.84,-138.85 66.24,-132.3"/>
<polygon fill="#63b8ff" stroke="#63b8ff" points="64.96,-156.45 69.36,-166.09 71.93,-155.81 64.96,-156.45"/>
</a>
</g>
</g>
<!-- Node24&#45;&gt;Node5 -->
<g id="edge29_Node000024_Node000005" class="edge">
<title>Node24&#45;&gt;Node5</title>
<g id="a_edge29_Node000024_Node000005"><a xlink:title=" ">
<path fill="none" stroke="#63b8ff" d="M300.23,-167.89C432.62,-158.79 1059.42,-132.57 1241.01,-125.04"/>
<polygon fill="#63b8ff" stroke="#63b8ff" points="300.21,-164.38 290.5,-168.6 300.73,-171.36 300.21,-164.38"/>
</a>
</g>
</g>
<!-- Node25 -->
<g id="Node000025" class="node">
<title>Node25</title>
<g id="a_Node000025"><a xlink:href="_hammer_head_8cpp.html" target="_top" xlink:title=" ">
<polygon fill="white" stroke="#666666" points="299.88,-132 148.88,-132 148.88,-112 299.88,-112 299.88,-132"/>
<text text-anchor="middle" x="224.38" y="-118.5" font-family="Helvetica,sans-Serif" font-size="10.00">AI Behaviors/HammerHead.cpp</text>
</a>
</g>
</g>
<!-- Node24&#45;&gt;Node25 -->
<g id="edge30_Node000024_Node000025" class="edge">
<title>Node24&#45;&gt;Node25</title>
<g id="a_edge30_Node000024_Node000025"><a xlink:title=" ">
<path fill="none" stroke="#63b8ff" d="M220.66,-156.43C221.59,-148.11 222.6,-138.93 223.34,-132.3"/>
<polygon fill="#63b8ff" stroke="#63b8ff" points="217.21,-155.76 219.59,-166.09 224.17,-156.54 217.21,-155.76"/>
</a>
</g>
</g>
<!-- Node27 -->
<g id="Node000027" class="node">
<title>Node27</title>
<g id="a_Node000027"><a xlink:href="_infantry_unit_8cpp.html" target="_top" xlink:title=" ">
<polygon fill="white" stroke="#666666" points="769.62,-188 629.12,-188 629.12,-168 769.62,-168 769.62,-188"/>
<text text-anchor="middle" x="699.38" y="-174.5" font-family="Helvetica,sans-Serif" font-size="10.00">AI Behaviors/InfantryUnit.cpp</text>
</a>
</g>
</g>
<!-- Node26&#45;&gt;Node27 -->
<g id="edge32_Node000026_Node000027" class="edge">
<title>Node26&#45;&gt;Node27</title>
<g id="a_edge32_Node000026_Node000027"><a xlink:title=" ">
<path fill="none" stroke="#63b8ff" d="M699.38,-212.13C699.38,-203.9 699.38,-194.85 699.38,-188.3"/>
<polygon fill="#63b8ff" stroke="#63b8ff" points="695.88,-212.08 699.38,-222.08 702.88,-212.08 695.88,-212.08"/>
</a>
</g>
</g>
<!-- Node28 -->
<g id="Node000028" class="node">
<title>Node28</title>
<g id="a_Node000028"><a xlink:href="_rifleman_squad_8h.html" target="_top" xlink:title=" ">
<polygon fill="white" stroke="#666666" points="610.62,-188 464.12,-188 464.12,-168 610.62,-168 610.62,-188"/>
<text text-anchor="middle" x="537.38" y="-174.5" font-family="Helvetica,sans-Serif" font-size="10.00">AI Behaviors/RiflemanSquad.h</text>
</a>
</g>
</g>
<!-- Node26&#45;&gt;Node28 -->
<g id="edge33_Node000026_Node000028" class="edge">
<title>Node26&#45;&gt;Node28</title>
<g id="a_edge33_Node000026_Node000028"><a xlink:title=" ">
<path fill="none" stroke="#63b8ff" d="M660.52,-220.05C631.36,-210.33 592.09,-197.24 565.81,-188.48"/>
<polygon fill="#63b8ff" stroke="#63b8ff" points="659.13,-223.27 669.72,-223.12 661.34,-216.63 659.13,-223.27"/>
</a>
</g>
</g>
<!-- Node28&#45;&gt;Node5 -->
<g id="edge34_Node000028_Node000005" class="edge">
<title>Node28&#45;&gt;Node5</title>
<g id="a_edge34_Node000028_Node000005"><a xlink:title=" ">
<path fill="none" stroke="#63b8ff" d="M622.03,-167.89C861,-147.14 1131.97,-131.56 1241.15,-125.61"/>
<polygon fill="#63b8ff" stroke="#63b8ff" points="621.84,-164.4 612.19,-168.75 622.45,-171.37 621.84,-164.4"/>
</a>
</g>
</g>
<!-- Node29 -->
<g id="Node000029" class="node">
<title>Node29</title>
<g id="a_Node000029"><a xlink:href="_rifleman_squad_8cpp.html" target="_top" xlink:title=" ">
<polygon fill="white" stroke="#666666" points="615.88,-132 458.88,-132 458.88,-112 615.88,-112 615.88,-132"/>
<text text-anchor="middle" x="537.38" y="-118.5" font-family="Helvetica,sans-Serif" font-size="10.00">AI Behaviors/RiflemanSquad.cpp</text>
</a>
</g>
</g>
<!-- Node28&#45;&gt;Node29 -->
<g id="edge35_Node000028_Node000029" class="edge">
<title>Node28&#45;&gt;Node29</title>
<g id="a_edge35_Node000028_Node000029"><a xlink:title=" ">
<path fill="none" stroke="#63b8ff" d="M537.38,-156.13C537.38,-147.9 537.38,-138.85 537.38,-132.3"/>
<polygon fill="#63b8ff" stroke="#63b8ff" points="533.88,-156.08 537.38,-166.08 540.88,-156.08 533.88,-156.08"/>
</a>
</g>
</g>
<!-- Node31&#45;&gt;Node16 -->
<g id="edge41_Node000031_Node000016" class="edge">
<title>Node31&#45;&gt;Node16</title>
<g id="a_edge41_Node000031_Node000016"><a xlink:title=" ">
<path fill="none" stroke="#63b8ff" d="M929.54,-223.78C1226.18,-198.21 1568.13,-185.34 1705.15,-180.86"/>
<polygon fill="#63b8ff" stroke="#63b8ff" points="929.29,-220.29 919.63,-224.64 929.89,-227.26 929.29,-220.29"/>
</a>
</g>
</g>
<!-- Node32 -->
<g id="Node000032" class="node">
<title>Node32</title>
<g id="a_Node000032"><a xlink:href="_buggy_8h.html" target="_top" xlink:title=" ">
<polygon fill="white" stroke="#666666" points="896.88,-188 787.88,-188 787.88,-168 896.88,-168 896.88,-188"/>
<text text-anchor="middle" x="842.38" y="-174.5" font-family="Helvetica,sans-Serif" font-size="10.00">AI Behaviors/Buggy.h</text>
</a>
</g>
</g>
<!-- Node31&#45;&gt;Node32 -->
<g id="edge38_Node000031_Node000032" class="edge">
<title>Node31&#45;&gt;Node32</title>
<g id="a_edge38_Node000031_Node000032"><a xlink:title=" ">
<path fill="none" stroke="#63b8ff" d="M848.56,-212.43C847.02,-204.11 845.33,-194.93 844.1,-188.3"/>
<polygon fill="#63b8ff" stroke="#63b8ff" points="845.1,-212.91 850.36,-222.11 851.98,-211.64 845.1,-212.91"/>
</a>
</g>
</g>
<!-- Node34 -->
<g id="Node000034" class="node">
<title>Node34</title>
<g id="a_Node000034"><a xlink:href="_tank_aurora_8h.html" target="_top" xlink:title=" ">
<polygon fill="white" stroke="#666666" points="1045.75,-188 915,-188 915,-168 1045.75,-168 1045.75,-188"/>
<text text-anchor="middle" x="980.38" y="-174.5" font-family="Helvetica,sans-Serif" font-size="10.00">AI Behaviors/TankAurora.h</text>
</a>
</g>
</g>
<!-- Node31&#45;&gt;Node34 -->
<g id="edge42_Node000031_Node000034" class="edge">
<title>Node31&#45;&gt;Node34</title>
<g id="a_edge42_Node000031_Node000034"><a xlink:title=" ">
<path fill="none" stroke="#63b8ff" d="M885.23,-219.14C908.02,-209.52 937.78,-196.97 957.91,-188.48"/>
<polygon fill="#63b8ff" stroke="#63b8ff" points="883.92,-215.89 876.07,-223.01 886.64,-222.34 883.92,-215.89"/>
</a>
</g>
</g>
<!-- Node36 -->
<g id="Node000036" class="node">
<title>Node36</title>
<g id="a_Node000036"><a xlink:href="_vehicle_unit_8cpp.html" target="_top" xlink:title=" ">
<polygon fill="white" stroke="#666666" points="1205,-188 1063.75,-188 1063.75,-168 1205,-168 1205,-188"/>
<text text-anchor="middle" x="1134.38" y="-174.5" font-family="Helvetica,sans-Serif" font-size="10.00">AI Behaviors/VehicleUnit.cpp</text>
</a>
</g>
</g>
<!-- Node31&#45;&gt;Node36 -->
<g id="edge45_Node000031_Node000036" class="edge">
<title>Node31&#45;&gt;Node36</title>
<g id="a_edge45_Node000031_Node000036"><a xlink:title=" ">
<path fill="none" stroke="#63b8ff" d="M913.09,-221.37C964.45,-211.54 1037.13,-197.62 1084.99,-188.46"/>
<polygon fill="#63b8ff" stroke="#63b8ff" points="912.47,-217.93 903.3,-223.25 913.78,-224.8 912.47,-217.93"/>
</a>
</g>
</g>
<!-- Node32&#45;&gt;Node5 -->
<g id="edge40_Node000032_Node000005" class="edge">
<title>Node32&#45;&gt;Node5</title>
<g id="a_edge40_Node000032_Node000005"><a xlink:title=" ">
<path fill="none" stroke="#63b8ff" d="M908.58,-167.74C1034.78,-151.58 1170.29,-136.26 1241.23,-128.39"/>
<polygon fill="#63b8ff" stroke="#63b8ff" points="908.15,-164.27 898.68,-169.02 909.04,-171.21 908.15,-164.27"/>
</a>
</g>
</g>
<!-- Node33 -->
<g id="Node000033" class="node">
<title>Node33</title>
<g id="a_Node000033"><a xlink:href="_buggy_8cpp.html" target="_top" xlink:title=" ">
<polygon fill="white" stroke="#666666" points="897.12,-132 777.62,-132 777.62,-112 897.12,-112 897.12,-132"/>
<text text-anchor="middle" x="837.38" y="-118.5" font-family="Helvetica,sans-Serif" font-size="10.00">AI Behaviors/Buggy.cpp</text>
</a>
</g>
</g>
<!-- Node32&#45;&gt;Node33 -->
<g id="edge39_Node000032_Node000033" class="edge">
<title>Node32&#45;&gt;Node33</title>
<g id="a_edge39_Node000032_Node000033"><a xlink:title=" ">
<path fill="none" stroke="#63b8ff" d="M840.44,-156.13C839.68,-147.9 838.84,-138.85 838.24,-132.3"/>
<polygon fill="#63b8ff" stroke="#63b8ff" points="836.96,-156.45 841.36,-166.09 843.93,-155.81 836.96,-156.45"/>
</a>
</g>
</g>
<!-- Node34&#45;&gt;Node5 -->
<g id="edge43_Node000034_Node000005" class="edge">
<title>Node34&#45;&gt;Node5</title>
<g id="a_edge43_Node000034_Node000005"><a xlink:title=" ">
<path fill="none" stroke="#63b8ff" d="M1046.04,-165.56C1104.42,-155.39 1188.45,-140.75 1241.2,-131.57"/>
<polygon fill="#63b8ff" stroke="#63b8ff" points="1045.47,-162.11 1036.22,-167.27 1046.67,-169 1045.47,-162.11"/>
</a>
</g>
</g>
<!-- Node35 -->
<g id="Node000035" class="node">
<title>Node35</title>
<g id="a_Node000035"><a xlink:href="_tank_aurora_8cpp.html" target="_top" xlink:title=" ">
<polygon fill="white" stroke="#666666" points="1056,-132 914.75,-132 914.75,-112 1056,-112 1056,-132"/>
<text text-anchor="middle" x="985.38" y="-118.5" font-family="Helvetica,sans-Serif" font-size="10.00">AI Behaviors/TankAurora.cpp</text>
</a>
</g>
</g>
<!-- Node34&#45;&gt;Node35 -->
<g id="edge44_Node000034_Node000035" class="edge">
<title>Node34&#45;&gt;Node35</title>
<g id="a_edge44_Node000034_Node000035"><a xlink:title=" ">
<path fill="none" stroke="#63b8ff" d="M982.31,-156.13C983.07,-147.9 983.91,-138.85 984.51,-132.3"/>
<polygon fill="#63b8ff" stroke="#63b8ff" points="978.82,-155.81 981.39,-166.09 985.79,-156.45 978.82,-155.81"/>
</a>
</g>
</g>
<!-- Node37&#45;&gt;Node5 -->
<g id="edge47_Node000037_Node000005" class="edge">
<title>Node37&#45;&gt;Node5</title>
<g id="a_edge47_Node000037_Node000005"><a xlink:title=" ">
<path fill="none" stroke="#63b8ff" d="M1210.11,-275.01C1225.1,-267.78 1241.37,-257.58 1252.38,-244 1280.39,-209.45 1287.85,-154.09 1289.76,-132.27"/>
<polygon fill="#63b8ff" stroke="#63b8ff" points="1209.09,-271.63 1201.4,-278.92 1211.95,-278.02 1209.09,-271.63"/>
</a>
</g>
</g>
<!-- Node38 -->
<g id="Node000038" class="node">
<title>Node38</title>
<g id="a_Node000038"><a xlink:href="_war_factory_8cpp.html" target="_top" xlink:title=" ">
<polygon fill="white" stroke="#666666" points="1243.75,-244 1101,-244 1101,-224 1243.75,-224 1243.75,-244"/>
<text text-anchor="middle" x="1172.38" y="-230.5" font-family="Helvetica,sans-Serif" font-size="10.00">AI Behaviors/WarFactory.cpp</text>
</a>
</g>
</g>
<!-- Node37&#45;&gt;Node38 -->
<g id="edge48_Node000037_Node000038" class="edge">
<title>Node37&#45;&gt;Node38</title>
<g id="a_edge48_Node000037_Node000038"><a xlink:title=" ">
<path fill="none" stroke="#63b8ff" d="M1172.38,-268.13C1172.38,-259.9 1172.38,-250.85 1172.38,-244.3"/>
<polygon fill="#63b8ff" stroke="#63b8ff" points="1168.88,-268.08 1172.38,-278.08 1175.88,-268.08 1168.88,-268.08"/>
</a>
</g>
</g>
<!-- Node39&#45;&gt;Node5 -->
<g id="edge52_Node000039_Node000005" class="edge">
<title>Node39&#45;&gt;Node5</title>
<g id="a_edge52_Node000039_Node000005"><a xlink:title=" ">
<path fill="none" stroke="#63b8ff" d="M2044.53,-324.66C2052.58,-287.54 2063.13,-208.86 2020.38,-168 1995.75,-144.46 1499.31,-128.76 1339.49,-124.3"/>
<polygon fill="#63b8ff" stroke="#63b8ff" points="2041.2,-323.54 2042.32,-334.07 2048.01,-325.14 2041.2,-323.54"/>
</a>
</g>
</g>
<!-- Node40 -->
<g id="Node000040" class="node">
<title>Node40</title>
<g id="a_Node000040"><a xlink:href="_side_bar_8cpp.html" target="_top" xlink:title=" ">
<polygon fill="white" stroke="#666666" points="2193.5,-300 2067.25,-300 2067.25,-280 2193.5,-280 2193.5,-300"/>
<text text-anchor="middle" x="2130.38" y="-286.5" font-family="Helvetica,sans-Serif" font-size="10.00">AI Behaviors/SideBar.cpp</text>
</a>
</g>
</g>
<!-- Node39&#45;&gt;Node40 -->
<g id="edge53_Node000039_Node000040" class="edge">
<title>Node39&#45;&gt;Node40</title>
<g id="a_edge53_Node000039_Node000040"><a xlink:title=" ">
<path fill="none" stroke="#63b8ff" d="M2064.97,-329.81C2080.84,-320.39 2100.74,-308.58 2114.4,-300.48"/>
<polygon fill="#63b8ff" stroke="#63b8ff" points="2063.34,-326.71 2056.53,-334.82 2066.91,-332.73 2063.34,-326.71"/>
</a>
</g>
</g>
</g>
</svg>

<g id="navigator" transform="translate(0 0)" fill="#404254">
  <rect fill="#f2f5e9" fill-opacity="0.5" stroke="#606060" stroke-width=".5" x="0" y="0" width="60" height="60"/>
  <use id="zoomplus" xlink:href="#zoomPlus" x="17" y="9" onmousedown="handleZoom(evt,'in')"/>
  <use id="zoomminus" xlink:href="#zoomMin" x="42" y="9" onmousedown="handleZoom(evt,'out')"/>
  <use id="reset" xlink:href="#resetDef" x="30" y="36" onmousedown="handleReset()"/>
   <use id="arrowup" xlink:href="#arrowUp" x="0" y="0" onmousedown="handlePan(0,-1)"/>
  <use id="arrowright" xlink:href="#arrowRight" x="0" y="0" onmousedown="handlePan(1,0)"/>
  <use id="arrowdown" xlink:href="#arrowDown" x="0" y="0" onmousedown="handlePan(0,1)"/>
  <use id="arrowleft" xlink:href="#arrowLeft" x="0" y="0" onmousedown="handlePan(-1,0)"/>
</g>
<svg viewBox="0 0 15 15" width="100%" height="30px" preserveAspectRatio="xMaxYMin meet">
 <g id="arrow_out" transform="scale(0.3 0.3)">
  <a xlink:href="_building_type_8h__dep__incl_org.svg" target="_base">
   <rect id="button" ry="5" rx="5" y="6" x="6" height="38" width="38"
        fill="#f2f5e9" fill-opacity="0.5" stroke="#606060" stroke-width="1.0"/>
   <path id="arrow"
     d="M 11.500037,31.436501 C 11.940474,20.09759 22.043105,11.32322 32.158766,21.979434 L 37.068811,17.246167 C 37.068811,17.246167 37.088388,32 37.088388,32 L 22.160133,31.978069 C 22.160133,31.978069 26.997745,27.140456 26.997745,27.140456 C 18.528582,18.264221 13.291696,25.230495 11.500037,31.436501 z"
     style="fill:#404040;"/>
  </a>
 </g>
</svg>

<style type='text/css'>
<![CDATA[
[data-mouse-over-selected='false'] { opacity: 0.7; }
[data-mouse-over-selected='true']  { opacity: 1.0; }
]]>
</style>
<script type="application/ecmascript"><![CDATA[
document.addEventListener('DOMContentLoaded', (event) => {
  highlightEdges();
  highlightAdjacentNodes();
});
]]></script>
</svg>
