<?xml version="1.0" encoding="UTF-8" standalone="no"?>
<!DOCTYPE svg PUBLIC "-//W3C//DTD SVG 1.1//EN"
 "http://www.w3.org/Graphics/SVG/1.1/DTD/svg11.dtd">
<!-- Generated by graphviz version 10.0.1 (20240210.2158)
 -->
<!-- Title: AI Behaviors/Bullet.cpp Pages: 1 -->
<svg width="172pt" height="140pt"
 viewBox="0.00 0.00 171.62 140.00" xmlns="http://www.w3.org/2000/svg" xmlns:xlink="http://www.w3.org/1999/xlink">
<g id="graph0" class="graph" transform="scale(1 1) rotate(0) translate(4 136)">
<title>AI Behaviors/Bullet.cpp</title>
<!-- Node1 -->
<g id="Node000001" class="node">
<title>Node1</title>
<g id="a_Node000001"><a xlink:title=" ">
<polygon fill="#999999" stroke="#666666" points="154.75,-132 38.25,-132 38.25,-112 154.75,-112 154.75,-132"/>
<text text-anchor="middle" x="96.5" y="-118.5" font-family="Helvetica,sans-Serif" font-size="10.00">AI Behaviors/Bullet.cpp</text>
</a>
</g>
</g>
<!-- Node2 -->
<g id="Node000002" class="node">
<title>Node2</title>
<g id="a_Node000002"><a xlink:href="_bullet_8h.html" target="_top" xlink:title=" ">
<polygon fill="white" stroke="#666666" points="121,-76 72,-76 72,-56 121,-56 121,-76"/>
<text text-anchor="middle" x="96.5" y="-62.5" font-family="Helvetica,sans-Serif" font-size="10.00">Bullet.h</text>
</a>
</g>
</g>
<!-- Node1&#45;&gt;Node2 -->
<g id="edge1_Node000001_Node000002" class="edge">
<title>Node1&#45;&gt;Node2</title>
<g id="a_edge1_Node000001_Node000002"><a xlink:title=" ">
<path fill="none" stroke="#63b8ff" d="M96.5,-111.59C96.5,-105.01 96.5,-95.96 96.5,-87.73"/>
<polygon fill="#63b8ff" stroke="#63b8ff" points="100,-87.81 96.5,-77.81 93,-87.81 100,-87.81"/>
</a>
</g>
</g>
<!-- Node3 -->
<g id="Node000003" class="node">
<title>Node3</title>
<g id="a_Node000003"><a xlink:title=" ">
<polygon fill="#e0e0e0" stroke="#999999" points="103,-20 0,-20 0,0 103,0 103,-20"/>
<text text-anchor="middle" x="51.5" y="-6.5" font-family="Helvetica,sans-Serif" font-size="10.00">SFML/Graphics.hpp</text>
</a>
</g>
</g>
<!-- Node2&#45;&gt;Node3 -->
<g id="edge2_Node000002_Node000003" class="edge">
<title>Node2&#45;&gt;Node3</title>
<g id="a_edge2_Node000002_Node000003"><a xlink:title=" ">
<path fill="none" stroke="#63b8ff" d="M88.66,-55.59C82.53,-48.24 73.83,-37.8 66.39,-28.87"/>
<polygon fill="#63b8ff" stroke="#63b8ff" points="69.31,-26.9 60.22,-21.46 63.93,-31.38 69.31,-26.9"/>
</a>
</g>
</g>
<!-- Node4 -->
<g id="Node000004" class="node">
<title>Node4</title>
<g id="a_Node000004"><a xlink:title=" ">
<polygon fill="#e0e0e0" stroke="#999999" points="163.62,-20 121.38,-20 121.38,0 163.62,0 163.62,-20"/>
<text text-anchor="middle" x="142.5" y="-6.5" font-family="Helvetica,sans-Serif" font-size="10.00">deque</text>
</a>
</g>
</g>
<!-- Node2&#45;&gt;Node4 -->
<g id="edge3_Node000002_Node000004" class="edge">
<title>Node2&#45;&gt;Node4</title>
<g id="a_edge3_Node000002_Node000004"><a xlink:title=" ">
<path fill="none" stroke="#63b8ff" d="M104.51,-55.59C110.78,-48.24 119.67,-37.8 127.28,-28.87"/>
<polygon fill="#63b8ff" stroke="#63b8ff" points="129.78,-31.33 133.6,-21.45 124.45,-26.79 129.78,-31.33"/>
</a>
</g>
</g>
</g>
</svg>
