<?xml version="1.0" encoding="UTF-8" standalone="no"?>
<!DOCTYPE svg PUBLIC "-//W3C//DTD SVG 1.1//EN"
 "http://www.w3.org/Graphics/SVG/1.1/DTD/svg11.dtd">
<!-- Generated by graphviz version 10.0.1 (20240210.2158)
 -->
<!-- Title: AI Behaviors/GUI.cpp Pages: 1 -->
<svg width="1415pt" height="420pt"
 viewBox="0.00 0.00 1415.38 420.00" xmlns="http://www.w3.org/2000/svg" xmlns:xlink="http://www.w3.org/1999/xlink">
<g id="graph0" class="graph" transform="scale(1 1) rotate(0) translate(4 416)">
<title>AI Behaviors/GUI.cpp</title>
<!-- Node1 -->
<g id="Node000001" class="node">
<title>Node1</title>
<g id="a_Node000001"><a xlink:title=" ">
<polygon fill="#999999" stroke="#666666" points="758.5,-412 650.25,-412 650.25,-392 758.5,-392 758.5,-412"/>
<text text-anchor="middle" x="704.38" y="-398.5" font-family="Helvetica,sans-Serif" font-size="10.00">AI Behaviors/GUI.cpp</text>
</a>
</g>
</g>
<!-- Node2 -->
<g id="Node000002" class="node">
<title>Node2</title>
<g id="a_Node000002"><a xlink:href="_g_u_i_8h.html" target="_top" xlink:title=" ">
<polygon fill="white" stroke="#666666" points="724.75,-356 684,-356 684,-336 724.75,-336 724.75,-356"/>
<text text-anchor="middle" x="704.38" y="-342.5" font-family="Helvetica,sans-Serif" font-size="10.00">GUI.h</text>
</a>
</g>
</g>
<!-- Node1&#45;&gt;Node2 -->
<g id="edge1_Node000001_Node000002" class="edge">
<title>Node1&#45;&gt;Node2</title>
<g id="a_edge1_Node000001_Node000002"><a xlink:title=" ">
<path fill="none" stroke="#63b8ff" d="M704.38,-391.59C704.38,-385.01 704.38,-375.96 704.38,-367.73"/>
<polygon fill="#63b8ff" stroke="#63b8ff" points="707.88,-367.81 704.38,-357.81 700.88,-367.81 707.88,-367.81"/>
</a>
</g>
</g>
<!-- Node3 -->
<g id="Node000003" class="node">
<title>Node3</title>
<g id="a_Node000003"><a xlink:title=" ">
<polygon fill="#e0e0e0" stroke="#999999" points="584.12,-76 530.62,-76 530.62,-56 584.12,-56 584.12,-76"/>
<text text-anchor="middle" x="557.38" y="-62.5" font-family="Helvetica,sans-Serif" font-size="10.00">iostream</text>
</a>
</g>
</g>
<!-- Node2&#45;&gt;Node3 -->
<g id="edge2_Node000002_Node000003" class="edge">
<title>Node2&#45;&gt;Node3</title>
<g id="a_edge2_Node000002_Node000003"><a xlink:title=" ">
<path fill="none" stroke="#63b8ff" d="M705.74,-335.81C709.37,-308.31 716.92,-225.08 685.38,-168 663.21,-127.89 617.88,-98.11 587.55,-81.65"/>
<polygon fill="#63b8ff" stroke="#63b8ff" points="589.34,-78.63 578.86,-77.08 586.09,-84.83 589.34,-78.63"/>
</a>
</g>
</g>
<!-- Node4 -->
<g id="Node000004" class="node">
<title>Node4</title>
<g id="a_Node000004"><a xlink:title=" ">
<polygon fill="#e0e0e0" stroke="#999999" points="1016.88,-20 913.88,-20 913.88,0 1016.88,0 1016.88,-20"/>
<text text-anchor="middle" x="965.38" y="-6.5" font-family="Helvetica,sans-Serif" font-size="10.00">SFML/Graphics.hpp</text>
</a>
</g>
</g>
<!-- Node2&#45;&gt;Node4 -->
<g id="edge3_Node000002_Node000004" class="edge">
<title>Node2&#45;&gt;Node4</title>
<g id="a_edge3_Node000002_Node000004"><a xlink:title=" ">
<path fill="none" stroke="#63b8ff" d="M725.13,-345.27C820.86,-346.27 1219.87,-347.47 1333.38,-300 1373.76,-283.11 1407.38,-278.77 1407.38,-235 1407.38,-235 1407.38,-235 1407.38,-121 1407.38,-86.84 1395.32,-74.14 1366.38,-56 1311.56,-21.64 1127.13,-13.44 1028.63,-11.53"/>
<polygon fill="#63b8ff" stroke="#63b8ff" points="1028.92,-8.04 1018.86,-11.36 1028.8,-15.04 1028.92,-8.04"/>
</a>
</g>
</g>
<!-- Node5 -->
<g id="Node000005" class="node">
<title>Node5</title>
<g id="a_Node000005"><a xlink:href="_global_8h.html" target="_top" xlink:title=" ">
<polygon fill="white" stroke="#666666" points="474.38,-76 422.38,-76 422.38,-56 474.38,-56 474.38,-76"/>
<text text-anchor="middle" x="448.38" y="-62.5" font-family="Helvetica,sans-Serif" font-size="10.00">Global.h</text>
</a>
</g>
</g>
<!-- Node2&#45;&gt;Node5 -->
<g id="edge4_Node000002_Node000005" class="edge">
<title>Node2&#45;&gt;Node5</title>
<g id="a_edge4_Node000002_Node000005"><a xlink:title=" ">
<path fill="none" stroke="#63b8ff" d="M683.76,-343.3C606.76,-336.4 340.38,-307.29 340.38,-235 340.38,-235 340.38,-235 340.38,-177 340.38,-132.44 386.05,-99.32 417.99,-81.6"/>
<polygon fill="#63b8ff" stroke="#63b8ff" points="419.28,-84.88 426.47,-77.1 416,-78.7 419.28,-84.88"/>
</a>
</g>
</g>
<!-- Node9 -->
<g id="Node000009" class="node">
<title>Node9</title>
<g id="a_Node000009"><a xlink:href="_building_type_8h.html" target="_top" xlink:title=" ">
<polygon fill="white" stroke="#666666" points="404.25,-76 324.5,-76 324.5,-56 404.25,-56 404.25,-76"/>
<text text-anchor="middle" x="364.38" y="-62.5" font-family="Helvetica,sans-Serif" font-size="10.00">BuildingType.h</text>
</a>
</g>
</g>
<!-- Node2&#45;&gt;Node9 -->
<g id="edge8_Node000002_Node000009" class="edge">
<title>Node2&#45;&gt;Node9</title>
<g id="a_edge8_Node000002_Node000009"><a xlink:title=" ">
<path fill="none" stroke="#63b8ff" d="M683.9,-343.61C621.78,-339.15 436.33,-324.11 381.38,-300 339.74,-281.73 302.38,-280.47 302.38,-235 302.38,-235 302.38,-235 302.38,-177 302.38,-140.5 328.6,-104.95 346.94,-84.55"/>
<polygon fill="#63b8ff" stroke="#63b8ff" points="349.36,-87.09 353.65,-77.4 344.26,-82.3 349.36,-87.09"/>
</a>
</g>
</g>
<!-- Node10 -->
<g id="Node000010" class="node">
<title>Node10</title>
<g id="a_Node000010"><a xlink:href="_infantry_type_8h.html" target="_top" xlink:title=" ">
<polygon fill="white" stroke="#666666" points="76.75,-76 0,-76 0,-56 76.75,-56 76.75,-76"/>
<text text-anchor="middle" x="38.38" y="-62.5" font-family="Helvetica,sans-Serif" font-size="10.00">InfantryType.h</text>
</a>
</g>
</g>
<!-- Node2&#45;&gt;Node10 -->
<g id="edge9_Node000002_Node000010" class="edge">
<title>Node2&#45;&gt;Node10</title>
<g id="a_edge9_Node000002_Node000010"><a xlink:title=" ">
<path fill="none" stroke="#63b8ff" d="M683.58,-344.94C620.25,-344.31 424.49,-339.11 268.38,-300 194.32,-281.45 109.38,-311.34 109.38,-235 109.38,-235 109.38,-235 109.38,-177 109.38,-139.01 79.12,-103.74 58.11,-83.83"/>
<polygon fill="#63b8ff" stroke="#63b8ff" points="60.66,-81.42 50.9,-77.29 55.95,-86.61 60.66,-81.42"/>
</a>
</g>
</g>
<!-- Node11 -->
<g id="Node000011" class="node">
<title>Node11</title>
<g id="a_Node000011"><a xlink:href="_side_bar_8h.html" target="_top" xlink:title=" ">
<polygon fill="white" stroke="#666666" points="274.75,-132 216,-132 216,-112 274.75,-112 274.75,-132"/>
<text text-anchor="middle" x="245.38" y="-118.5" font-family="Helvetica,sans-Serif" font-size="10.00">SideBar.h</text>
</a>
</g>
</g>
<!-- Node2&#45;&gt;Node11 -->
<g id="edge10_Node000002_Node000011" class="edge">
<title>Node2&#45;&gt;Node11</title>
<g id="a_edge10_Node000002_Node000011"><a xlink:title=" ">
<path fill="none" stroke="#63b8ff" d="M683.52,-344.13C603.4,-340.61 318.38,-326.32 288.38,-300 242.87,-260.08 241.37,-180.89 243.52,-143.48"/>
<polygon fill="#63b8ff" stroke="#63b8ff" points="247,-143.87 244.25,-133.64 240.02,-143.35 247,-143.87"/>
</a>
</g>
</g>
<!-- Node14 -->
<g id="Node000014" class="node">
<title>Node14</title>
<g id="a_Node000014"><a xlink:href="_headquarters_8h.html" target="_top" xlink:title=" ">
<polygon fill="white" stroke="#666666" points="560.38,-244 478.38,-244 478.38,-224 560.38,-224 560.38,-244"/>
<text text-anchor="middle" x="519.38" y="-230.5" font-family="Helvetica,sans-Serif" font-size="10.00">Headquarters.h</text>
</a>
</g>
</g>
<!-- Node2&#45;&gt;Node14 -->
<g id="edge18_Node000002_Node000014" class="edge">
<title>Node2&#45;&gt;Node14</title>
<g id="a_edge18_Node000002_Node000014"><a xlink:title=" ">
<path fill="none" stroke="#63b8ff" d="M688.6,-335.62C656.52,-316.54 583.42,-273.08 544.63,-250.02"/>
<polygon fill="#63b8ff" stroke="#63b8ff" points="546.79,-247.23 536.41,-245.13 543.22,-253.25 546.79,-247.23"/>
</a>
</g>
</g>
<!-- Node17 -->
<g id="Node000017" class="node">
<title>Node17</title>
<g id="a_Node000017"><a xlink:href="_refinery_8h.html" target="_top" xlink:title=" ">
<polygon fill="white" stroke="#666666" points="638.12,-244 578.62,-244 578.62,-224 638.12,-224 638.12,-244"/>
<text text-anchor="middle" x="608.38" y="-230.5" font-family="Helvetica,sans-Serif" font-size="10.00">Refinery.h</text>
</a>
</g>
</g>
<!-- Node2&#45;&gt;Node17 -->
<g id="edge26_Node000002_Node000017" class="edge">
<title>Node2&#45;&gt;Node17</title>
<g id="a_edge26_Node000002_Node000017"><a xlink:title=" ">
<path fill="none" stroke="#63b8ff" d="M692,-335.81C680.92,-327.24 664.58,-313.75 652.38,-300 639.66,-285.69 627.66,-267.52 619.41,-254.03"/>
<polygon fill="#63b8ff" stroke="#63b8ff" points="622.56,-252.47 614.43,-245.67 616.54,-256.06 622.56,-252.47"/>
</a>
</g>
</g>
<!-- Node18 -->
<g id="Node000018" class="node">
<title>Node18</title>
<g id="a_Node000018"><a xlink:href="_barracks_8h.html" target="_top" xlink:title=" ">
<polygon fill="white" stroke="#666666" points="676,-188 612.75,-188 612.75,-168 676,-168 676,-188"/>
<text text-anchor="middle" x="644.38" y="-174.5" font-family="Helvetica,sans-Serif" font-size="10.00">Barracks.h</text>
</a>
</g>
</g>
<!-- Node2&#45;&gt;Node18 -->
<g id="edge28_Node000002_Node000018" class="edge">
<title>Node2&#45;&gt;Node18</title>
<g id="a_edge28_Node000002_Node000018"><a xlink:title=" ">
<path fill="none" stroke="#63b8ff" d="M700.98,-335.6C691.49,-309.35 664.56,-234.84 651.56,-198.89"/>
<polygon fill="#63b8ff" stroke="#63b8ff" points="654.94,-197.94 648.25,-189.72 648.36,-200.32 654.94,-197.94"/>
</a>
</g>
</g>
<!-- Node19 -->
<g id="Node000019" class="node">
<title>Node19</title>
<g id="a_Node000019"><a xlink:href="_war_factory_8h.html" target="_top" xlink:title=" ">
<polygon fill="white" stroke="#666666" points="444,-188 368.75,-188 368.75,-168 444,-168 444,-188"/>
<text text-anchor="middle" x="406.38" y="-174.5" font-family="Helvetica,sans-Serif" font-size="10.00">WarFactory.h</text>
</a>
</g>
</g>
<!-- Node2&#45;&gt;Node19 -->
<g id="edge30_Node000002_Node000019" class="edge">
<title>Node2&#45;&gt;Node19</title>
<g id="a_edge30_Node000002_Node000019"><a xlink:title=" ">
<path fill="none" stroke="#63b8ff" d="M683.66,-344.89C644.89,-343.77 560.04,-336.91 501.38,-300 461.03,-274.61 430.76,-225.8 416.13,-198.57"/>
<polygon fill="#63b8ff" stroke="#63b8ff" points="419.24,-196.97 411.53,-189.7 413.03,-200.19 419.24,-196.97"/>
</a>
</g>
</g>
<!-- Node20 -->
<g id="Node000020" class="node">
<title>Node20</title>
<g id="a_Node000020"><a xlink:href="_air_craft_8h.html" target="_top" xlink:title=" ">
<polygon fill="white" stroke="#666666" points="518.62,-188 462.12,-188 462.12,-168 518.62,-168 518.62,-188"/>
<text text-anchor="middle" x="490.38" y="-174.5" font-family="Helvetica,sans-Serif" font-size="10.00">AirCraft.h</text>
</a>
</g>
</g>
<!-- Node2&#45;&gt;Node20 -->
<g id="edge32_Node000002_Node000020" class="edge">
<title>Node2&#45;&gt;Node20</title>
<g id="a_edge32_Node000002_Node000020"><a xlink:title=" ">
<path fill="none" stroke="#63b8ff" d="M683.51,-343.47C635.48,-338.68 517.56,-319.4 469.38,-244 460.32,-229.83 467.74,-211.4 476.17,-197.79"/>
<polygon fill="#63b8ff" stroke="#63b8ff" points="478.93,-199.95 481.69,-189.72 473.16,-196 478.93,-199.95"/>
</a>
</g>
</g>
<!-- Node21 -->
<g id="Node000021" class="node">
<title>Node21</title>
<g id="a_Node000021"><a xlink:href="_tile_8h.html" target="_top" xlink:title=" ">
<polygon fill="white" stroke="#666666" points="985,-76 945.75,-76 945.75,-56 985,-56 985,-76"/>
<text text-anchor="middle" x="965.38" y="-62.5" font-family="Helvetica,sans-Serif" font-size="10.00">Tile.h</text>
</a>
</g>
</g>
<!-- Node2&#45;&gt;Node21 -->
<g id="edge34_Node000002_Node000021" class="edge">
<title>Node2&#45;&gt;Node21</title>
<g id="a_edge34_Node000002_Node000021"><a xlink:title=" ">
<path fill="none" stroke="#63b8ff" d="M708.17,-335.76C725.77,-292.97 798.73,-116.08 803.38,-112 822.84,-94.93 893.13,-79.91 934.45,-72.29"/>
<polygon fill="#63b8ff" stroke="#63b8ff" points="934.8,-75.79 944.02,-70.57 933.56,-68.9 934.8,-75.79"/>
</a>
</g>
</g>
<!-- Node22 -->
<g id="Node000022" class="node">
<title>Node22</title>
<g id="a_Node000022"><a xlink:href="_level_editor_8h.html" target="_top" xlink:title=" ">
<polygon fill="white" stroke="#666666" points="884.12,-132 812.62,-132 812.62,-112 884.12,-112 884.12,-132"/>
<text text-anchor="middle" x="848.38" y="-118.5" font-family="Helvetica,sans-Serif" font-size="10.00">LevelEditor.h</text>
</a>
</g>
</g>
<!-- Node2&#45;&gt;Node22 -->
<g id="edge36_Node000002_Node000022" class="edge">
<title>Node2&#45;&gt;Node22</title>
<g id="a_edge36_Node000002_Node000022"><a xlink:title=" ">
<path fill="none" stroke="#63b8ff" d="M725.05,-345.17C756.47,-344.18 815.54,-337.15 843.38,-300 878.33,-253.34 864.24,-178.68 854.59,-143.11"/>
<polygon fill="#63b8ff" stroke="#63b8ff" points="858.01,-142.35 851.87,-133.72 851.29,-144.3 858.01,-142.35"/>
</a>
</g>
</g>
<!-- Node25 -->
<g id="Node000025" class="node">
<title>Node25</title>
<g id="a_Node000025"><a xlink:href="_rifleman_squad_8h.html" target="_top" xlink:title=" ">
<polygon fill="white" stroke="#666666" points="1162.12,-300 1072.62,-300 1072.62,-280 1162.12,-280 1162.12,-300"/>
<text text-anchor="middle" x="1117.38" y="-286.5" font-family="Helvetica,sans-Serif" font-size="10.00">RiflemanSquad.h</text>
</a>
</g>
</g>
<!-- Node2&#45;&gt;Node25 -->
<g id="edge44_Node000002_Node000025" class="edge">
<title>Node2&#45;&gt;Node25</title>
<g id="a_edge44_Node000002_Node000025"><a xlink:title=" ">
<path fill="none" stroke="#63b8ff" d="M725.12,-342.73C778.86,-336.78 927.28,-319.92 1061.05,-300.44"/>
<polygon fill="#63b8ff" stroke="#63b8ff" points="1061.41,-303.93 1070.79,-299.01 1060.39,-297 1061.41,-303.93"/>
</a>
</g>
</g>
<!-- Node36 -->
<g id="Node000036" class="node">
<title>Node36</title>
<g id="a_Node000036"><a xlink:href="_harvester_8h.html" target="_top" xlink:title=" ">
<polygon fill="white" stroke="#666666" points="834.75,-300 770,-300 770,-280 834.75,-280 834.75,-300"/>
<text text-anchor="middle" x="802.38" y="-286.5" font-family="Helvetica,sans-Serif" font-size="10.00">Harvester.h</text>
</a>
</g>
</g>
<!-- Node2&#45;&gt;Node36 -->
<g id="edge64_Node000002_Node000036" class="edge">
<title>Node2&#45;&gt;Node36</title>
<g id="a_edge64_Node000002_Node000036"><a xlink:title=" ">
<path fill="none" stroke="#63b8ff" d="M721.45,-335.59C736.25,-327.44 757.94,-315.48 775.14,-306"/>
<polygon fill="#63b8ff" stroke="#63b8ff" points="776.78,-309.1 783.85,-301.21 773.4,-302.97 776.78,-309.1"/>
</a>
</g>
</g>
<!-- Node38 -->
<g id="Node000038" class="node">
<title>Node38</title>
<g id="a_Node000038"><a xlink:href="_buggy_8h.html" target="_top" xlink:title=" ">
<polygon fill="white" stroke="#666666" points="1324.38,-300 1272.38,-300 1272.38,-280 1324.38,-280 1324.38,-300"/>
<text text-anchor="middle" x="1298.38" y="-286.5" font-family="Helvetica,sans-Serif" font-size="10.00">Buggy.h</text>
</a>
</g>
</g>
<!-- Node2&#45;&gt;Node38 -->
<g id="edge68_Node000002_Node000038" class="edge">
<title>Node2&#45;&gt;Node38</title>
<g id="a_edge68_Node000002_Node000038"><a xlink:title=" ">
<path fill="none" stroke="#63b8ff" d="M725.09,-344.61C797.56,-342.98 1046.53,-335.15 1260.95,-300.12"/>
<polygon fill="#63b8ff" stroke="#63b8ff" points="1261.32,-303.61 1270.61,-298.52 1260.17,-296.7 1261.32,-303.61"/>
</a>
</g>
</g>
<!-- Node39 -->
<g id="Node000039" class="node">
<title>Node39</title>
<g id="a_Node000039"><a xlink:href="_tank_aurora_8h.html" target="_top" xlink:title=" ">
<polygon fill="white" stroke="#666666" points="1254.25,-300 1180.5,-300 1180.5,-280 1254.25,-280 1254.25,-300"/>
<text text-anchor="middle" x="1217.38" y="-286.5" font-family="Helvetica,sans-Serif" font-size="10.00">TankAurora.h</text>
</a>
</g>
</g>
<!-- Node2&#45;&gt;Node39 -->
<g id="edge70_Node000002_Node000039" class="edge">
<title>Node2&#45;&gt;Node39</title>
<g id="a_edge70_Node000002_Node000039"><a xlink:title=" ">
<path fill="none" stroke="#63b8ff" d="M724.94,-343.73C789.03,-339.64 990.97,-325.61 1168.63,-300.27"/>
<polygon fill="#63b8ff" stroke="#63b8ff" points="1169.13,-303.73 1178.52,-298.84 1168.12,-296.81 1169.13,-303.73"/>
</a>
</g>
</g>
<!-- Node40 -->
<g id="Node000040" class="node">
<title>Node40</title>
<g id="a_Node000040"><a xlink:href="_hammer_head_8h.html" target="_top" xlink:title=" ">
<polygon fill="white" stroke="#666666" points="974.12,-300 890.62,-300 890.62,-280 974.12,-280 974.12,-300"/>
<text text-anchor="middle" x="932.38" y="-286.5" font-family="Helvetica,sans-Serif" font-size="10.00">HammerHead.h</text>
</a>
</g>
</g>
<!-- Node2&#45;&gt;Node40 -->
<g id="edge72_Node000002_Node000040" class="edge">
<title>Node2&#45;&gt;Node40</title>
<g id="a_edge72_Node000002_Node000040"><a xlink:title=" ">
<path fill="none" stroke="#63b8ff" d="M725.01,-340.11C760.1,-331.8 832.35,-314.69 881.59,-303.03"/>
<polygon fill="#63b8ff" stroke="#63b8ff" points="882.26,-306.47 891.18,-300.76 880.64,-299.66 882.26,-306.47"/>
</a>
</g>
</g>
<!-- Node42 -->
<g id="Node000042" class="node">
<title>Node42</title>
<g id="a_Node000042"><a xlink:href="_firehawk_8h.html" target="_top" xlink:title=" ">
<polygon fill="white" stroke="#666666" points="1055,-300 991.75,-300 991.75,-280 1055,-280 1055,-300"/>
<text text-anchor="middle" x="1023.38" y="-286.5" font-family="Helvetica,sans-Serif" font-size="10.00">Firehawk.h</text>
</a>
</g>
</g>
<!-- Node2&#45;&gt;Node42 -->
<g id="edge75_Node000002_Node000042" class="edge">
<title>Node2&#45;&gt;Node42</title>
<g id="a_edge75_Node000002_Node000042"><a xlink:title=" ">
<path fill="none" stroke="#63b8ff" d="M725.1,-342.1C769.88,-335.75 879.21,-319.73 980.5,-300.47"/>
<polygon fill="#63b8ff" stroke="#63b8ff" points="980.89,-303.96 990.05,-298.63 979.57,-297.08 980.89,-303.96"/>
</a>
</g>
</g>
<!-- Node6 -->
<g id="Node000006" class="node">
<title>Node6</title>
<g id="a_Node000006"><a xlink:title=" ">
<polygon fill="#e0e0e0" stroke="#999999" points="651.12,-20 609.62,-20 609.62,0 651.12,0 651.12,-20"/>
<text text-anchor="middle" x="630.38" y="-6.5" font-family="Helvetica,sans-Serif" font-size="10.00">vector</text>
</a>
</g>
</g>
<!-- Node5&#45;&gt;Node6 -->
<g id="edge5_Node000005_Node000006" class="edge">
<title>Node5&#45;&gt;Node6</title>
<g id="a_edge5_Node000005_Node000006"><a xlink:title=" ">
<path fill="none" stroke="#63b8ff" d="M474.84,-57.15C507.67,-47.41 563.58,-30.82 598.66,-20.41"/>
<polygon fill="#63b8ff" stroke="#63b8ff" points="599.22,-23.89 607.82,-17.69 597.23,-17.18 599.22,-23.89"/>
</a>
</g>
</g>
<!-- Node7 -->
<g id="Node000007" class="node">
<title>Node7</title>
<g id="a_Node000007"><a xlink:title=" ">
<polygon fill="#e0e0e0" stroke="#999999" points="437.25,-20 399.5,-20 399.5,0 437.25,0 437.25,-20"/>
<text text-anchor="middle" x="418.38" y="-6.5" font-family="Helvetica,sans-Serif" font-size="10.00">array</text>
</a>
</g>
</g>
<!-- Node5&#45;&gt;Node7 -->
<g id="edge6_Node000005_Node000007" class="edge">
<title>Node5&#45;&gt;Node7</title>
<g id="a_edge6_Node000005_Node000007"><a xlink:title=" ">
<path fill="none" stroke="#63b8ff" d="M443.15,-55.59C439.28,-48.63 433.87,-38.89 429.09,-30.29"/>
<polygon fill="#63b8ff" stroke="#63b8ff" points="432.19,-28.66 424.28,-21.62 426.07,-32.06 432.19,-28.66"/>
</a>
</g>
</g>
<!-- Node8 -->
<g id="Node000008" class="node">
<title>Node8</title>
<g id="a_Node000008"><a xlink:title=" ">
<polygon fill="#e0e0e0" stroke="#999999" points="501,-20 455.75,-20 455.75,0 501,0 501,-20"/>
<text text-anchor="middle" x="478.38" y="-6.5" font-family="Helvetica,sans-Serif" font-size="10.00">chrono</text>
</a>
</g>
</g>
<!-- Node5&#45;&gt;Node8 -->
<g id="edge7_Node000005_Node000008" class="edge">
<title>Node5&#45;&gt;Node8</title>
<g id="a_edge7_Node000005_Node000008"><a xlink:title=" ">
<path fill="none" stroke="#63b8ff" d="M453.6,-55.59C457.47,-48.63 462.88,-38.89 467.66,-30.29"/>
<polygon fill="#63b8ff" stroke="#63b8ff" points="470.68,-32.06 472.47,-21.62 464.56,-28.66 470.68,-32.06"/>
</a>
</g>
</g>
<!-- Node11&#45;&gt;Node3 -->
<g id="edge12_Node000011_Node000003" class="edge">
<title>Node11&#45;&gt;Node3</title>
<g id="a_edge12_Node000011_Node000003"><a xlink:title=" ">
<path fill="none" stroke="#63b8ff" d="M275.01,-115.87C331.86,-106.03 456.17,-84.52 519.16,-73.61"/>
<polygon fill="#63b8ff" stroke="#63b8ff" points="519.43,-77.12 528.69,-71.97 518.24,-70.22 519.43,-77.12"/>
</a>
</g>
</g>
<!-- Node11&#45;&gt;Node4 -->
<g id="edge11_Node000011_Node000004" class="edge">
<title>Node11&#45;&gt;Node4</title>
<g id="a_edge11_Node000011_Node000004"><a xlink:title=" ">
<path fill="none" stroke="#63b8ff" d="M251.87,-111.83C262.94,-97.02 287.07,-68.26 315.38,-56 368.26,-33.09 748.95,-18.14 901.95,-12.99"/>
<polygon fill="#63b8ff" stroke="#63b8ff" points="902.04,-16.49 911.92,-12.66 901.81,-9.49 902.04,-16.49"/>
</a>
</g>
</g>
<!-- Node11&#45;&gt;Node5 -->
<g id="edge13_Node000011_Node000005" class="edge">
<title>Node11&#45;&gt;Node5</title>
<g id="a_edge13_Node000011_Node000005"><a xlink:title=" ">
<path fill="none" stroke="#63b8ff" d="M274.89,-113.15C310.92,-103.56 371.89,-87.35 411.11,-76.91"/>
<polygon fill="#63b8ff" stroke="#63b8ff" points="411.82,-80.34 420.59,-74.39 410.02,-73.58 411.82,-80.34"/>
</a>
</g>
</g>
<!-- Node11&#45;&gt;Node9 -->
<g id="edge14_Node000011_Node000009" class="edge">
<title>Node11&#45;&gt;Node9</title>
<g id="a_edge14_Node000011_Node000009"><a xlink:title=" ">
<path fill="none" stroke="#63b8ff" d="M266.1,-111.59C284.59,-103.21 311.92,-90.8 333.07,-81.21"/>
<polygon fill="#63b8ff" stroke="#63b8ff" points="334.45,-84.42 342.11,-77.1 331.55,-78.05 334.45,-84.42"/>
</a>
</g>
</g>
<!-- Node11&#45;&gt;Node10 -->
<g id="edge15_Node000011_Node000010" class="edge">
<title>Node11&#45;&gt;Node10</title>
<g id="a_edge15_Node000011_Node000010"><a xlink:title=" ">
<path fill="none" stroke="#63b8ff" d="M215.72,-113.26C181.76,-104.41 125.68,-89.78 85.68,-79.34"/>
<polygon fill="#63b8ff" stroke="#63b8ff" points="86.62,-75.97 76.06,-76.83 84.85,-82.74 86.62,-75.97"/>
</a>
</g>
</g>
<!-- Node12 -->
<g id="Node000012" class="node">
<title>Node12</title>
<g id="a_Node000012"><a xlink:href="_vehicle_type_8h.html" target="_top" xlink:title=" ">
<polygon fill="white" stroke="#666666" points="172.12,-76 94.62,-76 94.62,-56 172.12,-56 172.12,-76"/>
<text text-anchor="middle" x="133.38" y="-62.5" font-family="Helvetica,sans-Serif" font-size="10.00">VehicleType.h</text>
</a>
</g>
</g>
<!-- Node11&#45;&gt;Node12 -->
<g id="edge16_Node000011_Node000012" class="edge">
<title>Node11&#45;&gt;Node12</title>
<g id="a_edge16_Node000011_Node000012"><a xlink:title=" ">
<path fill="none" stroke="#63b8ff" d="M225.87,-111.59C208.63,-103.28 183.22,-91.03 163.39,-81.47"/>
<polygon fill="#63b8ff" stroke="#63b8ff" points="164.93,-78.33 154.4,-77.14 161.89,-84.63 164.93,-78.33"/>
</a>
</g>
</g>
<!-- Node13 -->
<g id="Node000013" class="node">
<title>Node13</title>
<g id="a_Node000013"><a xlink:href="_air_craft_type_8h.html" target="_top" xlink:title=" ">
<polygon fill="white" stroke="#666666" points="268.12,-76 190.62,-76 190.62,-56 268.12,-56 268.12,-76"/>
<text text-anchor="middle" x="229.38" y="-62.5" font-family="Helvetica,sans-Serif" font-size="10.00">AirCraftType.h</text>
</a>
</g>
</g>
<!-- Node11&#45;&gt;Node13 -->
<g id="edge17_Node000011_Node000013" class="edge">
<title>Node11&#45;&gt;Node13</title>
<g id="a_edge17_Node000011_Node000013"><a xlink:title=" ">
<path fill="none" stroke="#63b8ff" d="M242.59,-111.59C240.59,-104.86 237.83,-95.53 235.35,-87.15"/>
<polygon fill="#63b8ff" stroke="#63b8ff" points="238.76,-86.34 232.56,-77.75 232.05,-88.33 238.76,-86.34"/>
</a>
</g>
</g>
<!-- Node15 -->
<g id="Node000015" class="node">
<title>Node15</title>
<g id="a_Node000015"><a xlink:href="_building_8h.html" target="_top" xlink:title=" ">
<polygon fill="white" stroke="#666666" points="575.75,-132 517,-132 517,-112 575.75,-112 575.75,-132"/>
<text text-anchor="middle" x="546.38" y="-118.5" font-family="Helvetica,sans-Serif" font-size="10.00">Building.h</text>
</a>
</g>
</g>
<!-- Node14&#45;&gt;Node15 -->
<g id="edge19_Node000014_Node000015" class="edge">
<title>Node14&#45;&gt;Node15</title>
<g id="a_edge19_Node000014_Node000015"><a xlink:title=" ">
<path fill="none" stroke="#63b8ff" d="M521.68,-223.62C526.02,-205.92 535.52,-167.24 541.39,-143.32"/>
<polygon fill="#63b8ff" stroke="#63b8ff" points="544.73,-144.37 543.72,-133.82 537.94,-142.7 544.73,-144.37"/>
</a>
</g>
</g>
<!-- Node15&#45;&gt;Node3 -->
<g id="edge20_Node000015_Node000003" class="edge">
<title>Node15&#45;&gt;Node3</title>
<g id="a_edge20_Node000015_Node000003"><a xlink:title=" ">
<path fill="none" stroke="#63b8ff" d="M548.29,-111.59C549.65,-104.93 551.52,-95.75 553.21,-87.44"/>
<polygon fill="#63b8ff" stroke="#63b8ff" points="556.61,-88.28 555.18,-77.78 549.75,-86.88 556.61,-88.28"/>
</a>
</g>
</g>
<!-- Node15&#45;&gt;Node4 -->
<g id="edge21_Node000015_Node000004" class="edge">
<title>Node15&#45;&gt;Node4</title>
<g id="a_edge21_Node000015_Node000004"><a xlink:title=" ">
<path fill="none" stroke="#63b8ff" d="M537.62,-111.94C525.48,-98.29 506.62,-72.33 521.38,-56 546.42,-28.29 785.65,-16.79 902.19,-12.81"/>
<polygon fill="#63b8ff" stroke="#63b8ff" points="902.02,-16.31 911.89,-12.48 901.78,-9.32 902.02,-16.31"/>
</a>
</g>
</g>
<!-- Node15&#45;&gt;Node5 -->
<g id="edge22_Node000015_Node000005" class="edge">
<title>Node15&#45;&gt;Node5</title>
<g id="a_edge22_Node000015_Node000005"><a xlink:title=" ">
<path fill="none" stroke="#63b8ff" d="M529.3,-111.59C514.5,-103.44 492.81,-91.48 475.61,-82"/>
<polygon fill="#63b8ff" stroke="#63b8ff" points="477.35,-78.97 466.9,-77.21 473.97,-85.1 477.35,-78.97"/>
</a>
</g>
</g>
<!-- Node15&#45;&gt;Node9 -->
<g id="edge23_Node000015_Node000009" class="edge">
<title>Node15&#45;&gt;Node9</title>
<g id="a_edge23_Node000015_Node000009"><a xlink:title=" ">
<path fill="none" stroke="#63b8ff" d="M516.73,-112.2C486.96,-103.37 440.78,-89.67 407.07,-79.67"/>
<polygon fill="#63b8ff" stroke="#63b8ff" points="408.18,-76.35 397.6,-76.86 406.19,-83.06 408.18,-76.35"/>
</a>
</g>
</g>
<!-- Node16 -->
<g id="Node000016" class="node">
<title>Node16</title>
<g id="a_Node000016"><a xlink:href="_particle_system_8h.html" target="_top" xlink:title=" ">
<polygon fill="white" stroke="#666666" points="692.88,-76 601.88,-76 601.88,-56 692.88,-56 692.88,-76"/>
<text text-anchor="middle" x="647.38" y="-62.5" font-family="Helvetica,sans-Serif" font-size="10.00">ParticleSystem.h</text>
</a>
</g>
</g>
<!-- Node15&#45;&gt;Node16 -->
<g id="edge24_Node000015_Node000016" class="edge">
<title>Node15&#45;&gt;Node16</title>
<g id="a_edge24_Node000015_Node000016"><a xlink:title=" ">
<path fill="none" stroke="#63b8ff" d="M563.97,-111.59C579.3,-103.4 601.79,-91.37 619.56,-81.87"/>
<polygon fill="#63b8ff" stroke="#63b8ff" points="621.14,-84.99 628.31,-77.19 617.84,-78.82 621.14,-84.99"/>
</a>
</g>
</g>
<!-- Node16&#45;&gt;Node4 -->
<g id="edge25_Node000016_Node000004" class="edge">
<title>Node16&#45;&gt;Node4</title>
<g id="a_edge25_Node000016_Node000004"><a xlink:title=" ">
<path fill="none" stroke="#63b8ff" d="M693.28,-57.21C748.25,-47.87 840.62,-32.19 902.27,-21.72"/>
<polygon fill="#63b8ff" stroke="#63b8ff" points="902.65,-25.2 911.92,-20.08 901.48,-18.3 902.65,-25.2"/>
</a>
</g>
</g>
<!-- Node17&#45;&gt;Node15 -->
<g id="edge27_Node000017_Node000015" class="edge">
<title>Node17&#45;&gt;Node15</title>
<g id="a_edge27_Node000017_Node000015"><a xlink:title=" ">
<path fill="none" stroke="#63b8ff" d="M603.09,-223.62C592.98,-205.68 570.71,-166.17 557.28,-142.35"/>
<polygon fill="#63b8ff" stroke="#63b8ff" points="560.35,-140.67 552.39,-133.67 554.25,-144.1 560.35,-140.67"/>
</a>
</g>
</g>
<!-- Node18&#45;&gt;Node15 -->
<g id="edge29_Node000018_Node000015" class="edge">
<title>Node18&#45;&gt;Node15</title>
<g id="a_edge29_Node000018_Node000015"><a xlink:title=" ">
<path fill="none" stroke="#63b8ff" d="M627.3,-167.59C612.5,-159.44 590.81,-147.48 573.61,-138"/>
<polygon fill="#63b8ff" stroke="#63b8ff" points="575.35,-134.97 564.9,-133.21 571.97,-141.1 575.35,-134.97"/>
</a>
</g>
</g>
<!-- Node19&#45;&gt;Node15 -->
<g id="edge31_Node000019_Node000015" class="edge">
<title>Node19&#45;&gt;Node15</title>
<g id="a_edge31_Node000019_Node000015"><a xlink:title=" ">
<path fill="none" stroke="#63b8ff" d="M430.76,-167.59C453.01,-159.01 486.14,-146.23 511.24,-136.55"/>
<polygon fill="#63b8ff" stroke="#63b8ff" points="512.32,-139.89 520.39,-133.02 509.8,-133.36 512.32,-139.89"/>
</a>
</g>
</g>
<!-- Node20&#45;&gt;Node15 -->
<g id="edge33_Node000020_Node000015" class="edge">
<title>Node20&#45;&gt;Node15</title>
<g id="a_edge33_Node000020_Node000015"><a xlink:title=" ">
<path fill="none" stroke="#63b8ff" d="M500.13,-167.59C508,-160.01 519.27,-149.13 528.72,-140.02"/>
<polygon fill="#63b8ff" stroke="#63b8ff" points="530.87,-142.81 535.64,-133.35 526.01,-137.77 530.87,-142.81"/>
</a>
</g>
</g>
<!-- Node21&#45;&gt;Node4 -->
<g id="edge35_Node000021_Node000004" class="edge">
<title>Node21&#45;&gt;Node4</title>
<g id="a_edge35_Node000021_Node000004"><a xlink:title=" ">
<path fill="none" stroke="#63b8ff" d="M965.38,-55.59C965.38,-49.01 965.38,-39.96 965.38,-31.73"/>
<polygon fill="#63b8ff" stroke="#63b8ff" points="968.88,-31.81 965.38,-21.81 961.88,-31.81 968.88,-31.81"/>
</a>
</g>
</g>
<!-- Node22&#45;&gt;Node3 -->
<g id="edge38_Node000022_Node000003" class="edge">
<title>Node22&#45;&gt;Node3</title>
<g id="a_edge38_Node000022_Node000003"><a xlink:title=" ">
<path fill="none" stroke="#63b8ff" d="M812.33,-115.46C764.92,-107.99 678.79,-93.81 595.63,-76.36"/>
<polygon fill="#63b8ff" stroke="#63b8ff" points="596.44,-72.95 585.93,-74.3 594.99,-79.8 596.44,-72.95"/>
</a>
</g>
</g>
<!-- Node22&#45;&gt;Node4 -->
<g id="edge37_Node000022_Node000004" class="edge">
<title>Node22&#45;&gt;Node4</title>
<g id="a_edge37_Node000022_Node000004"><a xlink:title=" ">
<path fill="none" stroke="#63b8ff" d="M858.82,-111.8C869.01,-102.79 884.89,-88.6 898.38,-76 915.47,-60.02 934.59,-41.39 948.02,-28.19"/>
<polygon fill="#63b8ff" stroke="#63b8ff" points="950.2,-30.95 954.86,-21.43 945.29,-25.96 950.2,-30.95"/>
</a>
</g>
</g>
<!-- Node22&#45;&gt;Node5 -->
<g id="edge42_Node000022_Node000005" class="edge">
<title>Node22&#45;&gt;Node5</title>
<g id="a_edge42_Node000022_Node000005"><a xlink:title=" ">
<path fill="none" stroke="#63b8ff" d="M812.17,-116.11C736.53,-105.9 562.43,-82.4 485.77,-72.05"/>
<polygon fill="#63b8ff" stroke="#63b8ff" points="486.64,-68.63 476.26,-70.76 485.7,-75.57 486.64,-68.63"/>
</a>
</g>
</g>
<!-- Node22&#45;&gt;Node6 -->
<g id="edge39_Node000022_Node000006" class="edge">
<title>Node22&#45;&gt;Node6</title>
<g id="a_edge39_Node000022_Node000006"><a xlink:title=" ">
<path fill="none" stroke="#63b8ff" d="M823.05,-111.6C800.88,-103.1 767.98,-89.82 740.38,-76 709.73,-60.65 676,-40.15 654.08,-26.31"/>
<polygon fill="#63b8ff" stroke="#63b8ff" points="656.2,-23.51 645.88,-21.09 652.44,-29.41 656.2,-23.51"/>
</a>
</g>
</g>
<!-- Node22&#45;&gt;Node21 -->
<g id="edge40_Node000022_Node000021" class="edge">
<title>Node22&#45;&gt;Node21</title>
<g id="a_edge40_Node000022_Node000021"><a xlink:title=" ">
<path fill="none" stroke="#63b8ff" d="M868.75,-111.59C887.15,-103.1 914.46,-90.5 935.36,-80.85"/>
<polygon fill="#63b8ff" stroke="#63b8ff" points="936.63,-84.12 944.24,-76.75 933.7,-77.77 936.63,-84.12"/>
</a>
</g>
</g>
<!-- Node23 -->
<g id="Node000023" class="node">
<title>Node23</title>
<g id="a_Node000023"><a xlink:title=" ">
<polygon fill="#e0e0e0" stroke="#999999" points="797.5,-76 749.25,-76 749.25,-56 797.5,-56 797.5,-76"/>
<text text-anchor="middle" x="773.38" y="-62.5" font-family="Helvetica,sans-Serif" font-size="10.00">fstream</text>
</a>
</g>
</g>
<!-- Node22&#45;&gt;Node23 -->
<g id="edge41_Node000022_Node000023" class="edge">
<title>Node22&#45;&gt;Node23</title>
<g id="a_edge41_Node000022_Node000023"><a xlink:title=" ">
<path fill="none" stroke="#63b8ff" d="M835.31,-111.59C824.41,-103.74 808.62,-92.38 795.72,-83.09"/>
<polygon fill="#63b8ff" stroke="#63b8ff" points="797.93,-80.37 787.77,-77.36 793.84,-86.05 797.93,-80.37"/>
</a>
</g>
</g>
<!-- Node24 -->
<g id="Node000024" class="node">
<title>Node24</title>
<g id="a_Node000024"><a xlink:href="_game_state_8h.html" target="_top" xlink:title=" ">
<polygon fill="white" stroke="#666666" points="889.25,-76 815.5,-76 815.5,-56 889.25,-56 889.25,-76"/>
<text text-anchor="middle" x="852.38" y="-62.5" font-family="Helvetica,sans-Serif" font-size="10.00">GameState.h</text>
</a>
</g>
</g>
<!-- Node22&#45;&gt;Node24 -->
<g id="edge43_Node000022_Node000024" class="edge">
<title>Node22&#45;&gt;Node24</title>
<g id="a_edge43_Node000022_Node000024"><a xlink:title=" ">
<path fill="none" stroke="#63b8ff" d="M849.07,-111.59C849.56,-105.01 850.23,-95.96 850.84,-87.73"/>
<polygon fill="#63b8ff" stroke="#63b8ff" points="854.33,-88.04 851.57,-77.81 847.35,-87.52 854.33,-88.04"/>
</a>
</g>
</g>
<!-- Node26 -->
<g id="Node000026" class="node">
<title>Node26</title>
<g id="a_Node000026"><a xlink:href="_infantry_unit_8h.html" target="_top" xlink:title=" ">
<polygon fill="white" stroke="#666666" points="1151.88,-244 1078.88,-244 1078.88,-224 1151.88,-224 1151.88,-244"/>
<text text-anchor="middle" x="1115.38" y="-230.5" font-family="Helvetica,sans-Serif" font-size="10.00">InfantryUnit.h</text>
</a>
</g>
</g>
<!-- Node25&#45;&gt;Node26 -->
<g id="edge45_Node000025_Node000026" class="edge">
<title>Node25&#45;&gt;Node26</title>
<g id="a_edge45_Node000025_Node000026"><a xlink:title=" ">
<path fill="none" stroke="#63b8ff" d="M1117.03,-279.59C1116.78,-273.01 1116.45,-263.96 1116.14,-255.73"/>
<polygon fill="#63b8ff" stroke="#63b8ff" points="1119.64,-255.67 1115.78,-245.81 1112.65,-255.93 1119.64,-255.67"/>
</a>
</g>
</g>
<!-- Node27 -->
<g id="Node000027" class="node">
<title>Node27</title>
<g id="a_Node000027"><a xlink:href="_unit_8h.html" target="_top" xlink:title=" ">
<polygon fill="white" stroke="#666666" points="1043.12,-188 1001.62,-188 1001.62,-168 1043.12,-168 1043.12,-188"/>
<text text-anchor="middle" x="1022.38" y="-174.5" font-family="Helvetica,sans-Serif" font-size="10.00">Unit.h</text>
</a>
</g>
</g>
<!-- Node26&#45;&gt;Node27 -->
<g id="edge46_Node000026_Node000027" class="edge">
<title>Node26&#45;&gt;Node27</title>
<g id="a_edge46_Node000026_Node000027"><a xlink:title=" ">
<path fill="none" stroke="#63b8ff" d="M1099.18,-223.59C1085.13,-215.44 1064.54,-203.48 1048.22,-194"/>
<polygon fill="#63b8ff" stroke="#63b8ff" points="1050.42,-191.23 1040.01,-189.24 1046.9,-197.29 1050.42,-191.23"/>
</a>
</g>
</g>
<!-- Node27&#45;&gt;Node3 -->
<g id="edge47_Node000027_Node000003" class="edge">
<title>Node27&#45;&gt;Node3</title>
<g id="a_edge47_Node000027_Node000003"><a xlink:title=" ">
<path fill="none" stroke="#63b8ff" d="M1001.35,-174.81C954.87,-169.69 840.07,-155.57 746.38,-132 717,-124.61 639.77,-97.06 593.64,-80.29"/>
<polygon fill="#63b8ff" stroke="#63b8ff" points="594.92,-77.04 584.32,-76.9 592.52,-83.61 594.92,-77.04"/>
</a>
</g>
</g>
<!-- Node27&#45;&gt;Node4 -->
<g id="edge48_Node000027_Node000004" class="edge">
<title>Node27&#45;&gt;Node4</title>
<g id="a_edge48_Node000027_Node000004"><a xlink:title=" ">
<path fill="none" stroke="#63b8ff" d="M1021.31,-167.55C1018.73,-146.72 1011.08,-95.52 994.38,-56 990.5,-46.83 984.79,-37.46 979.46,-29.66"/>
<polygon fill="#63b8ff" stroke="#63b8ff" points="982.42,-27.77 973.75,-21.69 976.73,-31.86 982.42,-27.77"/>
</a>
</g>
</g>
<!-- Node27&#45;&gt;Node5 -->
<g id="edge49_Node000027_Node000005" class="edge">
<title>Node27&#45;&gt;Node5</title>
<g id="a_edge49_Node000027_Node000005"><a xlink:title=" ">
<path fill="none" stroke="#63b8ff" d="M1001.51,-175.26C948.05,-170.58 801.97,-156.4 682.38,-132 611.92,-117.62 531.48,-93.55 485.64,-79.09"/>
<polygon fill="#63b8ff" stroke="#63b8ff" points="486.79,-75.78 476.19,-76.09 484.66,-82.45 486.79,-75.78"/>
</a>
</g>
</g>
<!-- Node27&#45;&gt;Node15 -->
<g id="edge58_Node000027_Node000015" class="edge">
<title>Node27&#45;&gt;Node15</title>
<g id="a_edge58_Node000027_Node000015"><a xlink:title=" ">
<path fill="none" stroke="#63b8ff" d="M1001.31,-174.61C928.25,-166.32 684.92,-138.72 587.36,-127.65"/>
<polygon fill="#63b8ff" stroke="#63b8ff" points="587.77,-124.17 577.44,-126.52 586.98,-131.13 587.77,-124.17"/>
</a>
</g>
</g>
<!-- Node27&#45;&gt;Node16 -->
<g id="edge57_Node000027_Node000016" class="edge">
<title>Node27&#45;&gt;Node16</title>
<g id="a_edge57_Node000027_Node000016"><a xlink:title=" ">
<path fill="none" stroke="#63b8ff" d="M1001.2,-174.04C961.72,-168.2 874.41,-153.88 803.38,-132 757.97,-118.02 707.6,-95.72 676.71,-81.22"/>
<polygon fill="#63b8ff" stroke="#63b8ff" points="678.53,-78.21 668,-77.09 675.53,-84.54 678.53,-78.21"/>
</a>
</g>
</g>
<!-- Node27&#45;&gt;Node21 -->
<g id="edge59_Node000027_Node000021" class="edge">
<title>Node27&#45;&gt;Node21</title>
<g id="a_edge59_Node000027_Node000021"><a xlink:title=" ">
<path fill="none" stroke="#63b8ff" d="M1017.52,-167.62C1008.22,-149.68 987.75,-110.17 975.4,-86.35"/>
<polygon fill="#63b8ff" stroke="#63b8ff" points="978.63,-84.97 970.92,-77.7 972.41,-88.19 978.63,-84.97"/>
</a>
</g>
</g>
<!-- Node28 -->
<g id="Node000028" class="node">
<title>Node28</title>
<g id="a_Node000028"><a xlink:title=" ">
<polygon fill="#e0e0e0" stroke="#999999" points="1084.88,-132 1041.88,-132 1041.88,-112 1084.88,-112 1084.88,-132"/>
<text text-anchor="middle" x="1063.38" y="-118.5" font-family="Helvetica,sans-Serif" font-size="10.00">cmath</text>
</a>
</g>
</g>
<!-- Node27&#45;&gt;Node28 -->
<g id="edge50_Node000027_Node000028" class="edge">
<title>Node27&#45;&gt;Node28</title>
<g id="a_edge50_Node000027_Node000028"><a xlink:title=" ">
<path fill="none" stroke="#63b8ff" d="M1029.52,-167.59C1034.98,-160.39 1042.7,-150.23 1049.38,-141.43"/>
<polygon fill="#63b8ff" stroke="#63b8ff" points="1052.14,-143.58 1055.4,-133.5 1046.57,-139.35 1052.14,-143.58"/>
</a>
</g>
</g>
<!-- Node29 -->
<g id="Node000029" class="node">
<title>Node29</title>
<g id="a_Node000029"><a xlink:href="_bullet_8h.html" target="_top" xlink:title=" ">
<polygon fill="white" stroke="#666666" points="1285.88,-132 1236.88,-132 1236.88,-112 1285.88,-112 1285.88,-132"/>
<text text-anchor="middle" x="1261.38" y="-118.5" font-family="Helvetica,sans-Serif" font-size="10.00">Bullet.h</text>
</a>
</g>
</g>
<!-- Node27&#45;&gt;Node29 -->
<g id="edge51_Node000027_Node000029" class="edge">
<title>Node27&#45;&gt;Node29</title>
<g id="a_edge51_Node000027_Node000029"><a xlink:title=" ">
<path fill="none" stroke="#63b8ff" d="M1043.58,-172.21C1084.6,-162.94 1175.19,-142.47 1225.65,-131.07"/>
<polygon fill="#63b8ff" stroke="#63b8ff" points="1226.22,-134.53 1235.2,-128.91 1224.67,-127.7 1226.22,-134.53"/>
</a>
</g>
</g>
<!-- Node31 -->
<g id="Node000031" class="node">
<title>Node31</title>
<g id="a_Node000031"><a xlink:href="_missile_8h.html" target="_top" xlink:title=" ">
<polygon fill="white" stroke="#666666" points="1358.88,-132 1303.88,-132 1303.88,-112 1358.88,-112 1358.88,-132"/>
<text text-anchor="middle" x="1331.38" y="-118.5" font-family="Helvetica,sans-Serif" font-size="10.00">Missile.h</text>
</a>
</g>
</g>
<!-- Node27&#45;&gt;Node31 -->
<g id="edge54_Node000027_Node000031" class="edge">
<title>Node27&#45;&gt;Node31</title>
<g id="a_edge54_Node000027_Node000031"><a xlink:title=" ">
<path fill="none" stroke="#63b8ff" d="M1043.37,-174.14C1087.64,-167.97 1193.95,-152.51 1292.47,-132.47"/>
<polygon fill="#63b8ff" stroke="#63b8ff" points="1292.95,-135.95 1302.04,-130.51 1291.54,-129.09 1292.95,-135.95"/>
</a>
</g>
</g>
<!-- Node32 -->
<g id="Node000032" class="node">
<title>Node32</title>
<g id="a_Node000032"><a xlink:href="_sound_manager_8h.html" target="_top" xlink:title=" ">
<polygon fill="white" stroke="#666666" points="1192.12,-132 1102.62,-132 1102.62,-112 1192.12,-112 1192.12,-132"/>
<text text-anchor="middle" x="1147.38" y="-118.5" font-family="Helvetica,sans-Serif" font-size="10.00">SoundManager.h</text>
</a>
</g>
</g>
<!-- Node27&#45;&gt;Node32 -->
<g id="edge60_Node000027_Node000032" class="edge">
<title>Node27&#45;&gt;Node32</title>
<g id="a_edge60_Node000027_Node000032"><a xlink:title=" ">
<path fill="none" stroke="#63b8ff" d="M1043.58,-167.84C1063.21,-159.36 1092.69,-146.62 1115.22,-136.89"/>
<polygon fill="#63b8ff" stroke="#63b8ff" points="1116.46,-140.17 1124.26,-132.99 1113.69,-133.74 1116.46,-140.17"/>
</a>
</g>
</g>
<!-- Node29&#45;&gt;Node4 -->
<g id="edge52_Node000029_Node000004" class="edge">
<title>Node29&#45;&gt;Node4</title>
<g id="a_edge52_Node000029_Node000004"><a xlink:title=" ">
<path fill="none" stroke="#63b8ff" d="M1263.2,-111.55C1265.32,-97.4 1266.9,-70.79 1252.38,-56 1222.04,-25.11 1103.31,-15.41 1028.39,-12.38"/>
<polygon fill="#63b8ff" stroke="#63b8ff" points="1028.85,-8.89 1018.73,-12.02 1028.59,-15.89 1028.85,-8.89"/>
</a>
</g>
</g>
<!-- Node30 -->
<g id="Node000030" class="node">
<title>Node30</title>
<g id="a_Node000030"><a xlink:title=" ">
<polygon fill="#e0e0e0" stroke="#999999" points="1341.5,-76 1299.25,-76 1299.25,-56 1341.5,-56 1341.5,-76"/>
<text text-anchor="middle" x="1320.38" y="-62.5" font-family="Helvetica,sans-Serif" font-size="10.00">deque</text>
</a>
</g>
</g>
<!-- Node29&#45;&gt;Node30 -->
<g id="edge53_Node000029_Node000030" class="edge">
<title>Node29&#45;&gt;Node30</title>
<g id="a_edge53_Node000029_Node000030"><a xlink:title=" ">
<path fill="none" stroke="#63b8ff" d="M1271.65,-111.59C1279.94,-104.01 1291.82,-93.13 1301.78,-84.02"/>
<polygon fill="#63b8ff" stroke="#63b8ff" points="1304.09,-86.65 1309.1,-77.32 1299.36,-81.49 1304.09,-86.65"/>
</a>
</g>
</g>
<!-- Node31&#45;&gt;Node4 -->
<g id="edge55_Node000031_Node000004" class="edge">
<title>Node31&#45;&gt;Node4</title>
<g id="a_edge55_Node000031_Node000004"><a xlink:title=" ">
<path fill="none" stroke="#63b8ff" d="M1338.79,-111.85C1349,-98.09 1364.6,-71.98 1350.38,-56 1329.38,-32.41 1132.17,-19.22 1028.46,-13.86"/>
<polygon fill="#63b8ff" stroke="#63b8ff" points="1028.88,-10.38 1018.72,-13.37 1028.53,-17.37 1028.88,-10.38"/>
</a>
</g>
</g>
<!-- Node31&#45;&gt;Node30 -->
<g id="edge56_Node000031_Node000030" class="edge">
<title>Node31&#45;&gt;Node30</title>
<g id="a_edge56_Node000031_Node000030"><a xlink:title=" ">
<path fill="none" stroke="#63b8ff" d="M1329.46,-111.59C1328.1,-104.93 1326.23,-95.75 1324.54,-87.44"/>
<polygon fill="#63b8ff" stroke="#63b8ff" points="1328,-86.88 1322.57,-77.78 1321.14,-88.28 1328,-86.88"/>
</a>
</g>
</g>
<!-- Node33 -->
<g id="Node000033" class="node">
<title>Node33</title>
<g id="a_Node000033"><a xlink:title=" ">
<polygon fill="#e0e0e0" stroke="#999999" points="1243.75,-76 1155,-76 1155,-56 1243.75,-56 1243.75,-76"/>
<text text-anchor="middle" x="1199.38" y="-62.5" font-family="Helvetica,sans-Serif" font-size="10.00">SFML/Audio.hpp</text>
</a>
</g>
</g>
<!-- Node32&#45;&gt;Node33 -->
<g id="edge61_Node000032_Node000033" class="edge">
<title>Node32&#45;&gt;Node33</title>
<g id="a_edge61_Node000032_Node000033"><a xlink:title=" ">
<path fill="none" stroke="#63b8ff" d="M1156.43,-111.59C1163.59,-104.16 1173.78,-93.58 1182.44,-84.58"/>
<polygon fill="#63b8ff" stroke="#63b8ff" points="1184.96,-87.02 1189.37,-77.39 1179.91,-82.16 1184.96,-87.02"/>
</a>
</g>
</g>
<!-- Node34 -->
<g id="Node000034" class="node">
<title>Node34</title>
<g id="a_Node000034"><a xlink:title=" ">
<polygon fill="#e0e0e0" stroke="#999999" points="1075.75,-76 1041,-76 1041,-56 1075.75,-56 1075.75,-76"/>
<text text-anchor="middle" x="1058.38" y="-62.5" font-family="Helvetica,sans-Serif" font-size="10.00">map</text>
</a>
</g>
</g>
<!-- Node32&#45;&gt;Node34 -->
<g id="edge62_Node000032_Node000034" class="edge">
<title>Node32&#45;&gt;Node34</title>
<g id="a_edge62_Node000032_Node000034"><a xlink:title=" ">
<path fill="none" stroke="#63b8ff" d="M1131.87,-111.59C1118.55,-103.51 1099.1,-91.71 1083.55,-82.27"/>
<polygon fill="#63b8ff" stroke="#63b8ff" points="1085.66,-79.46 1075.29,-77.26 1082.03,-85.44 1085.66,-79.46"/>
</a>
</g>
</g>
<!-- Node35 -->
<g id="Node000035" class="node">
<title>Node35</title>
<g id="a_Node000035"><a xlink:title=" ">
<polygon fill="#e0e0e0" stroke="#999999" points="1136.5,-76 1094.25,-76 1094.25,-56 1136.5,-56 1136.5,-76"/>
<text text-anchor="middle" x="1115.38" y="-62.5" font-family="Helvetica,sans-Serif" font-size="10.00">queue</text>
</a>
</g>
</g>
<!-- Node32&#45;&gt;Node35 -->
<g id="edge63_Node000032_Node000035" class="edge">
<title>Node32&#45;&gt;Node35</title>
<g id="a_edge63_Node000032_Node000035"><a xlink:title=" ">
<path fill="none" stroke="#63b8ff" d="M1141.8,-111.59C1137.63,-104.55 1131.77,-94.67 1126.63,-86"/>
<polygon fill="#63b8ff" stroke="#63b8ff" points="1129.77,-84.42 1121.66,-77.6 1123.74,-87.99 1129.77,-84.42"/>
</a>
</g>
</g>
<!-- Node36&#45;&gt;Node17 -->
<g id="edge67_Node000036_Node000017" class="edge">
<title>Node36&#45;&gt;Node17</title>
<g id="a_edge67_Node000036_Node000017"><a xlink:title=" ">
<path fill="none" stroke="#63b8ff" d="M769.9,-279.96C736.81,-270.75 685.38,-256.43 649.47,-246.44"/>
<polygon fill="#63b8ff" stroke="#63b8ff" points="650.43,-243.07 639.86,-243.76 648.55,-249.82 650.43,-243.07"/>
</a>
</g>
</g>
<!-- Node37 -->
<g id="Node000037" class="node">
<title>Node37</title>
<g id="a_Node000037"><a xlink:href="_vehicle_unit_8h.html" target="_top" xlink:title=" ">
<polygon fill="white" stroke="#666666" points="1249.25,-244 1175.5,-244 1175.5,-224 1249.25,-224 1249.25,-244"/>
<text text-anchor="middle" x="1212.38" y="-230.5" font-family="Helvetica,sans-Serif" font-size="10.00">VehicleUnit.h</text>
</a>
</g>
</g>
<!-- Node36&#45;&gt;Node37 -->
<g id="edge65_Node000036_Node000037" class="edge">
<title>Node36&#45;&gt;Node37</title>
<g id="a_edge65_Node000036_Node000037"><a xlink:title=" ">
<path fill="none" stroke="#63b8ff" d="M835.18,-285.1C911.39,-276.01 1098.64,-253.46 1161.38,-244 1162.21,-243.87 1163.05,-243.75 1163.9,-243.61"/>
<polygon fill="#63b8ff" stroke="#63b8ff" points="1164.28,-247.1 1173.59,-242.04 1163.16,-240.19 1164.28,-247.1"/>
</a>
</g>
</g>
<!-- Node37&#45;&gt;Node27 -->
<g id="edge66_Node000037_Node000027" class="edge">
<title>Node37&#45;&gt;Node27</title>
<g id="a_edge66_Node000037_Node000027"><a xlink:title=" ">
<path fill="none" stroke="#63b8ff" d="M1179.28,-223.59C1144.22,-213.63 1089.25,-198.01 1054.54,-188.14"/>
<polygon fill="#63b8ff" stroke="#63b8ff" points="1055.64,-184.82 1045.07,-185.45 1053.73,-191.55 1055.64,-184.82"/>
</a>
</g>
</g>
<!-- Node38&#45;&gt;Node37 -->
<g id="edge69_Node000038_Node000037" class="edge">
<title>Node38&#45;&gt;Node37</title>
<g id="a_edge69_Node000038_Node000037"><a xlink:title=" ">
<path fill="none" stroke="#63b8ff" d="M1283.39,-279.59C1270.65,-271.59 1252.08,-259.93 1237.13,-250.54"/>
<polygon fill="#63b8ff" stroke="#63b8ff" points="1239.08,-247.64 1228.75,-245.28 1235.36,-253.57 1239.08,-247.64"/>
</a>
</g>
</g>
<!-- Node39&#45;&gt;Node37 -->
<g id="edge71_Node000039_Node000037" class="edge">
<title>Node39&#45;&gt;Node37</title>
<g id="a_edge71_Node000039_Node000037"><a xlink:title=" ">
<path fill="none" stroke="#63b8ff" d="M1216.5,-279.59C1215.89,-273.01 1215.06,-263.96 1214.29,-255.73"/>
<polygon fill="#63b8ff" stroke="#63b8ff" points="1217.78,-255.44 1213.38,-245.81 1210.81,-256.09 1217.78,-255.44"/>
</a>
</g>
</g>
<!-- Node41 -->
<g id="Node000041" class="node">
<title>Node41</title>
<g id="a_Node000041"><a xlink:href="_aircraft_unit_8h.html" target="_top" xlink:title=" ">
<polygon fill="white" stroke="#666666" points="1058.5,-244 986.25,-244 986.25,-224 1058.5,-224 1058.5,-244"/>
<text text-anchor="middle" x="1022.38" y="-230.5" font-family="Helvetica,sans-Serif" font-size="10.00">AircraftUnit.h</text>
</a>
</g>
</g>
<!-- Node40&#45;&gt;Node41 -->
<g id="edge73_Node000040_Node000041" class="edge">
<title>Node40&#45;&gt;Node41</title>
<g id="a_edge73_Node000040_Node000041"><a xlink:title=" ">
<path fill="none" stroke="#63b8ff" d="M948.05,-279.59C961.52,-271.51 981.19,-259.71 996.92,-250.27"/>
<polygon fill="#63b8ff" stroke="#63b8ff" points="998.5,-253.4 1005.28,-245.26 994.9,-247.4 998.5,-253.4"/>
</a>
</g>
</g>
<!-- Node41&#45;&gt;Node27 -->
<g id="edge74_Node000041_Node000027" class="edge">
<title>Node41&#45;&gt;Node27</title>
<g id="a_edge74_Node000041_Node000027"><a xlink:title=" ">
<path fill="none" stroke="#63b8ff" d="M1022.38,-223.59C1022.38,-217.01 1022.38,-207.96 1022.38,-199.73"/>
<polygon fill="#63b8ff" stroke="#63b8ff" points="1025.88,-199.81 1022.38,-189.81 1018.88,-199.81 1025.88,-199.81"/>
</a>
</g>
</g>
<!-- Node42&#45;&gt;Node41 -->
<g id="edge76_Node000042_Node000041" class="edge">
<title>Node42&#45;&gt;Node41</title>
<g id="a_edge76_Node000042_Node000041"><a xlink:title=" ">
<path fill="none" stroke="#63b8ff" d="M1023.2,-279.59C1023.08,-273.01 1022.91,-263.96 1022.76,-255.73"/>
<polygon fill="#63b8ff" stroke="#63b8ff" points="1026.26,-255.75 1022.58,-245.81 1019.26,-255.87 1026.26,-255.75"/>
</a>
</g>
</g>
</g>
</svg>
