<?xml version="1.0" encoding="UTF-8" standalone="no"?>
<!DOCTYPE svg PUBLIC "-//W3C//DTD SVG 1.1//EN"
 "http://www.w3.org/Graphics/SVG/1.1/DTD/svg11.dtd">
<!-- Generated by graphviz version 10.0.1 (20240210.2158)
 -->
<!-- Title: AI Behaviors/GUI.h Pages: 1 -->
<svg width="311pt" height="140pt"
 viewBox="0.00 0.00 310.50 140.00" xmlns="http://www.w3.org/2000/svg" xmlns:xlink="http://www.w3.org/1999/xlink">
<g id="graph0" class="graph" transform="scale(1 1) rotate(0) translate(4 136)">
<title>AI Behaviors/GUI.h</title>
<!-- Node1 -->
<g id="Node000001" class="node">
<title>Node1</title>
<g id="a_Node000001"><a xlink:title=" ">
<polygon fill="#999999" stroke="#666666" points="166,-132 68.25,-132 68.25,-112 166,-112 166,-132"/>
<text text-anchor="middle" x="117.12" y="-118.5" font-family="Helvetica,sans-Serif" font-size="10.00">AI Behaviors/GUI.h</text>
</a>
</g>
</g>
<!-- Node2 -->
<g id="Node000002" class="node">
<title>Node2</title>
<g id="a_Node000002"><a xlink:href="_g_u_i_8cpp.html" target="_top" xlink:title=" ">
<polygon fill="white" stroke="#666666" points="108.25,-76 0,-76 0,-56 108.25,-56 108.25,-76"/>
<text text-anchor="middle" x="54.12" y="-62.5" font-family="Helvetica,sans-Serif" font-size="10.00">AI Behaviors/GUI.cpp</text>
</a>
</g>
</g>
<!-- Node1&#45;&gt;Node2 -->
<g id="edge1_Node000001_Node000002" class="edge">
<title>Node1&#45;&gt;Node2</title>
<g id="a_edge1_Node000001_Node000002"><a xlink:title=" ">
<path fill="none" stroke="#63b8ff" d="M97.44,-104.13C86.72,-94.94 73.88,-83.93 64.97,-76.3"/>
<polygon fill="#63b8ff" stroke="#63b8ff" points="95.13,-106.76 105,-110.61 99.69,-101.44 95.13,-106.76"/>
</a>
</g>
</g>
<!-- Node3 -->
<g id="Node000003" class="node">
<title>Node3</title>
<g id="a_Node000003"><a xlink:href="_game_8h.html" target="_top" xlink:title=" ">
<polygon fill="white" stroke="#666666" points="233.88,-76 126.38,-76 126.38,-56 233.88,-56 233.88,-76"/>
<text text-anchor="middle" x="180.12" y="-62.5" font-family="Helvetica,sans-Serif" font-size="10.00">AI Behaviors/Game.h</text>
</a>
</g>
</g>
<!-- Node1&#45;&gt;Node3 -->
<g id="edge2_Node000001_Node000003" class="edge">
<title>Node1&#45;&gt;Node3</title>
<g id="a_edge2_Node000001_Node000003"><a xlink:title=" ">
<path fill="none" stroke="#63b8ff" d="M136.81,-104.13C147.53,-94.94 160.37,-83.93 169.28,-76.3"/>
<polygon fill="#63b8ff" stroke="#63b8ff" points="134.56,-101.44 129.25,-110.61 139.12,-106.76 134.56,-101.44"/>
</a>
</g>
</g>
<!-- Node4 -->
<g id="Node000004" class="node">
<title>Node4</title>
<g id="a_Node000004"><a xlink:href="_game_8cpp.html" target="_top" xlink:title=" ">
<polygon fill="white" stroke="#666666" points="172.12,-20 54.12,-20 54.12,0 172.12,0 172.12,-20"/>
<text text-anchor="middle" x="113.12" y="-6.5" font-family="Helvetica,sans-Serif" font-size="10.00">AI Behaviors/Game.cpp</text>
</a>
</g>
</g>
<!-- Node3&#45;&gt;Node4 -->
<g id="edge3_Node000003_Node000004" class="edge">
<title>Node3&#45;&gt;Node4</title>
<g id="a_edge3_Node000003_Node000004"><a xlink:title=" ">
<path fill="none" stroke="#63b8ff" d="M159.53,-48.4C148.07,-39.17 134.23,-28.01 124.66,-20.3"/>
<polygon fill="#63b8ff" stroke="#63b8ff" points="157.29,-51.09 167.28,-54.64 161.69,-45.64 157.29,-51.09"/>
</a>
</g>
</g>
<!-- Node5 -->
<g id="Node000005" class="node">
<title>Node5</title>
<g id="a_Node000005"><a xlink:href="main_8cpp.html" target="_top" xlink:title=" ">
<polygon fill="white" stroke="#666666" points="302.5,-20 189.75,-20 189.75,0 302.5,0 302.5,-20"/>
<text text-anchor="middle" x="246.12" y="-6.5" font-family="Helvetica,sans-Serif" font-size="10.00">AI Behaviors/main.cpp</text>
</a>
</g>
</g>
<!-- Node3&#45;&gt;Node5 -->
<g id="edge4_Node000003_Node000005" class="edge">
<title>Node3&#45;&gt;Node5</title>
<g id="a_edge4_Node000003_Node000005"><a xlink:title=" ">
<path fill="none" stroke="#63b8ff" d="M200.41,-48.4C211.7,-39.17 225.34,-28.01 234.76,-20.3"/>
<polygon fill="#63b8ff" stroke="#63b8ff" points="198.32,-45.59 192.79,-54.64 202.75,-51.01 198.32,-45.59"/>
</a>
</g>
</g>
</g>
</svg>
