<?xml version="1.0" encoding="UTF-8" standalone="no"?>
<!DOCTYPE svg PUBLIC "-//W3C//DTD SVG 1.1//EN"
 "http://www.w3.org/Graphics/SVG/1.1/DTD/svg11.dtd">
<!-- Generated by graphviz version 10.0.1 (20240210.2158)
 -->
<!-- Title: AI Behaviors/GameState.h Pages: 1 -->
<!--zoomable 252 -->

<svg id="main" version="1.1" xmlns="http://www.w3.org/2000/svg" xmlns:xlink="http://www.w3.org/1999/xlink" xml:space="preserve" onload="init(evt)">
<style type="text/css"><![CDATA[
.node, .edge {opacity: 0.7;}
.node.selected, .edge.selected {opacity: 1;}
.edge:hover path { stroke: red; }
.edge:hover polygon { stroke: red; fill: red; }
]]></style>

<defs>
  <circle id="rim" cx="0" cy="0" r="7"/>
  <circle id="rim2" cx="0" cy="0" r="3.5"/>
  <g id="zoomPlus">
    <use xlink:href="#rim" fill="#404040"><set attributeName="fill" to="#808080" begin="zoomplus.mouseover" end="zoomplus.mouseout"/></use>
    <path d="M-4,0h8M0,-4v8" fill="none" stroke="white" stroke-width="1.5" pointer-events="none"/>
  </g>
  <g id="zoomMin">
    <use xlink:href="#rim" fill="#404040"><set attributeName="fill" to="#808080" begin="zoomminus.mouseover" end="zoomminus.mouseout"/></use>
    <path d="M-4,0h8" fill="none" stroke="white" stroke-width="1.5" pointer-events="none"/>
  </g>
  <g id="arrowUp" transform="translate(30 24)">
    <use xlink:href="#rim"/>
    <path pointer-events="none" fill="none" stroke="white" stroke-width="1.5" d="M0,-3.0v7 M-2.5,-0.5L0,-3.0L2.5,-0.5"/>
  </g>
  <g id="arrowRight" transform="rotate(90) translate(36 -43)">
    <use xlink:href="#rim"/>
    <path pointer-events="none" fill="none" stroke="white" stroke-width="1.5" d="M0,-3.0v7 M-2.5,-0.5L0,-3.0L2.5,-0.5"/>
  </g>
  <g id="arrowDown" transform="rotate(180) translate(-30 -48)">
    <use xlink:href="#rim"/>
    <path pointer-events="none" fill="none" stroke="white" stroke-width="1.5" d="M0,-3.0v7 M-2.5,-0.5L0,-3.0L2.5,-0.5"/>
  </g>
  <g id="arrowLeft" transform="rotate(270) translate(-36 17)">
    <use xlink:href="#rim"/>
    <path pointer-events="none" fill="none" stroke="white" stroke-width="1.5" d="M0,-3.0v7 M-2.5,-0.5L0,-3.0L2.5,-0.5"/>
  </g>
  <g id="resetDef">
    <use xlink:href="#rim2" fill="#404040"><set attributeName="fill" to="#808080" begin="reset.mouseover" end="reset.mouseout"/></use>
  </g>
</defs>
<script type="application/ecmascript">
var viewWidth = 907;
var viewHeight = 252;
var sectionId = 'dynsection-0';
</script>
<script type="application/ecmascript" xlink:href="svg.min.js"/>
<svg id="graph" class="graph">
<g id="viewport">
<title>AI Behaviors/GameState.h</title>
<!-- Node1 -->
<g id="Node000001" class="node">
<title>Node1</title>
<g id="a_Node000001"><a xlink:title=" ">
<polygon fill="#999999" stroke="#666666" points="546.75,-244 416,-244 416,-224 546.75,-224 546.75,-244"/>
<text text-anchor="middle" x="481.38" y="-230.5" font-family="Helvetica,sans-Serif" font-size="10.00">AI Behaviors/GameState.h</text>
</a>
</g>
</g>
<!-- Node2 -->
<g id="Node000002" class="node">
<title>Node2</title>
<g id="a_Node000002"><a xlink:href="_game_8h.html" target="_top" xlink:title=" ">
<polygon fill="white" stroke="#666666" points="516.12,-76 408.62,-76 408.62,-56 516.12,-56 516.12,-76"/>
<text text-anchor="middle" x="462.38" y="-62.5" font-family="Helvetica,sans-Serif" font-size="10.00">AI Behaviors/Game.h</text>
</a>
</g>
</g>
<!-- Node1&#45;&gt;Node2 -->
<g id="edge1_Node000001_Node000002" class="edge">
<title>Node1&#45;&gt;Node2</title>
<g id="a_edge1_Node000001_Node000002"><a xlink:title=" ">
<path fill="none" stroke="#63b8ff" d="M479.03,-212.5C474.88,-176.27 466.42,-102.31 463.44,-76.3"/>
<polygon fill="#63b8ff" stroke="#63b8ff" points="475.51,-212.56 480.13,-222.1 482.47,-211.76 475.51,-212.56"/>
</a>
</g>
</g>
<!-- Node5 -->
<g id="Node000005" class="node">
<title>Node5</title>
<g id="a_Node000005"><a xlink:href="_level_editor_8h.html" target="_top" xlink:title=" ">
<polygon fill="white" stroke="#666666" points="409.62,-188 281.12,-188 281.12,-168 409.62,-168 409.62,-188"/>
<text text-anchor="middle" x="345.38" y="-174.5" font-family="Helvetica,sans-Serif" font-size="10.00">AI Behaviors/LevelEditor.h</text>
</a>
</g>
</g>
<!-- Node1&#45;&gt;Node5 -->
<g id="edge4_Node000001_Node000005" class="edge">
<title>Node1&#45;&gt;Node5</title>
<g id="a_edge4_Node000001_Node000005"><a xlink:title=" ">
<path fill="none" stroke="#63b8ff" d="M447.13,-219.4C422.83,-209.75 390.82,-197.05 369.25,-188.48"/>
<polygon fill="#63b8ff" stroke="#63b8ff" points="445.69,-222.6 456.28,-223.04 448.28,-216.09 445.69,-222.6"/>
</a>
</g>
</g>
<!-- Node9 -->
<g id="Node000009" class="node">
<title>Node9</title>
<g id="a_Node000009"><a xlink:href="_level_loader_8h.html" target="_top" xlink:title=" ">
<polygon fill="white" stroke="#666666" points="142.5,-132 10.25,-132 10.25,-112 142.5,-112 142.5,-132"/>
<text text-anchor="middle" x="76.38" y="-118.5" font-family="Helvetica,sans-Serif" font-size="10.00">AI Behaviors/LevelLoader.h</text>
</a>
</g>
</g>
<!-- Node1&#45;&gt;Node9 -->
<g id="edge13_Node000001_Node000009" class="edge">
<title>Node1&#45;&gt;Node9</title>
<g id="a_edge13_Node000001_Node000009"><a xlink:title=" ">
<path fill="none" stroke="#63b8ff" d="M418.79,-221.36C377.04,-213.15 321.09,-201.28 272.38,-188 210.29,-171.07 138.91,-145.93 101.79,-132.41"/>
<polygon fill="#63b8ff" stroke="#63b8ff" points="417.93,-224.76 428.41,-223.24 419.26,-217.89 417.93,-224.76"/>
</a>
</g>
</g>
<!-- Node11 -->
<g id="Node000011" class="node">
<title>Node11</title>
<g id="a_Node000011"><a xlink:href="_main_menu_8h.html" target="_top" xlink:title=" ">
<polygon fill="white" stroke="#666666" points="635.5,-188 509.25,-188 509.25,-168 635.5,-168 635.5,-188"/>
<text text-anchor="middle" x="572.38" y="-174.5" font-family="Helvetica,sans-Serif" font-size="10.00">AI Behaviors/MainMenu.h</text>
</a>
</g>
</g>
<!-- Node1&#45;&gt;Node11 -->
<g id="edge14_Node000001_Node000011" class="edge">
<title>Node1&#45;&gt;Node11</title>
<g id="a_edge14_Node000001_Node000011"><a xlink:title=" ">
<path fill="none" stroke="#63b8ff" d="M506.97,-217.81C522.84,-208.39 542.74,-196.58 556.4,-188.48"/>
<polygon fill="#63b8ff" stroke="#63b8ff" points="505.34,-214.71 498.53,-222.82 508.91,-220.73 505.34,-214.71"/>
</a>
</g>
</g>
<!-- Node13 -->
<g id="Node000013" class="node">
<title>Node13</title>
<g id="a_Node000013"><a xlink:href="_neural_networks_8h.html" target="_top" xlink:title=" ">
<polygon fill="white" stroke="#666666" points="803.12,-188 653.62,-188 653.62,-168 803.12,-168 803.12,-188"/>
<text text-anchor="middle" x="728.38" y="-174.5" font-family="Helvetica,sans-Serif" font-size="10.00">AI Behaviors/NeuralNetworks.h</text>
</a>
</g>
</g>
<!-- Node1&#45;&gt;Node13 -->
<g id="edge17_Node000001_Node000013" class="edge">
<title>Node1&#45;&gt;Node13</title>
<g id="a_edge17_Node000001_Node000013"><a xlink:title=" ">
<path fill="none" stroke="#63b8ff" d="M535.69,-221.13C580.61,-211.31 643.55,-197.54 685.12,-188.46"/>
<polygon fill="#63b8ff" stroke="#63b8ff" points="535.18,-217.65 526.16,-223.21 536.68,-224.49 535.18,-217.65"/>
</a>
</g>
</g>
<!-- Node3 -->
<g id="Node000003" class="node">
<title>Node3</title>
<g id="a_Node000003"><a xlink:href="_game_8cpp.html" target="_top" xlink:title=" ">
<polygon fill="white" stroke="#666666" points="454.38,-20 336.38,-20 336.38,0 454.38,0 454.38,-20"/>
<text text-anchor="middle" x="395.38" y="-6.5" font-family="Helvetica,sans-Serif" font-size="10.00">AI Behaviors/Game.cpp</text>
</a>
</g>
</g>
<!-- Node2&#45;&gt;Node3 -->
<g id="edge2_Node000002_Node000003" class="edge">
<title>Node2&#45;&gt;Node3</title>
<g id="a_edge2_Node000002_Node000003"><a xlink:title=" ">
<path fill="none" stroke="#63b8ff" d="M441.78,-48.4C430.32,-39.17 416.48,-28.01 406.91,-20.3"/>
<polygon fill="#63b8ff" stroke="#63b8ff" points="439.54,-51.09 449.53,-54.64 443.94,-45.64 439.54,-51.09"/>
</a>
</g>
</g>
<!-- Node4 -->
<g id="Node000004" class="node">
<title>Node4</title>
<g id="a_Node000004"><a xlink:href="main_8cpp.html" target="_top" xlink:title=" ">
<polygon fill="white" stroke="#666666" points="584.75,-20 472,-20 472,0 584.75,0 584.75,-20"/>
<text text-anchor="middle" x="528.38" y="-6.5" font-family="Helvetica,sans-Serif" font-size="10.00">AI Behaviors/main.cpp</text>
</a>
</g>
</g>
<!-- Node2&#45;&gt;Node4 -->
<g id="edge3_Node000002_Node000004" class="edge">
<title>Node2&#45;&gt;Node4</title>
<g id="a_edge3_Node000002_Node000004"><a xlink:title=" ">
<path fill="none" stroke="#63b8ff" d="M482.66,-48.4C493.95,-39.17 507.59,-28.01 517.01,-20.3"/>
<polygon fill="#63b8ff" stroke="#63b8ff" points="480.57,-45.59 475.04,-54.64 485,-51.01 480.57,-45.59"/>
</a>
</g>
</g>
<!-- Node5&#45;&gt;Node2 -->
<g id="edge8_Node000005_Node000002" class="edge">
<title>Node5&#45;&gt;Node2</title>
<g id="a_edge8_Node000005_Node000002"><a xlink:title=" ">
<path fill="none" stroke="#63b8ff" d="M378.17,-162.79C393.16,-155.18 410.42,-144.73 423.38,-132 440.27,-115.39 452.69,-90.01 458.57,-76.39"/>
<polygon fill="#63b8ff" stroke="#63b8ff" points="377.07,-159.43 369.59,-166.94 380.12,-165.73 377.07,-159.43"/>
</a>
</g>
</g>
<!-- Node6 -->
<g id="Node000006" class="node">
<title>Node6</title>
<g id="a_Node000006"><a xlink:href="_g_u_i_8h.html" target="_top" xlink:title=" ">
<polygon fill="white" stroke="#666666" points="258.25,-132 160.5,-132 160.5,-112 258.25,-112 258.25,-132"/>
<text text-anchor="middle" x="209.38" y="-118.5" font-family="Helvetica,sans-Serif" font-size="10.00">AI Behaviors/GUI.h</text>
</a>
</g>
</g>
<!-- Node5&#45;&gt;Node6 -->
<g id="edge5_Node000005_Node000006" class="edge">
<title>Node5&#45;&gt;Node6</title>
<g id="a_edge5_Node000005_Node000006"><a xlink:title=" ">
<path fill="none" stroke="#63b8ff" d="M311.13,-163.4C286.83,-153.75 254.82,-141.05 233.25,-132.48"/>
<polygon fill="#63b8ff" stroke="#63b8ff" points="309.69,-166.6 320.28,-167.04 312.28,-160.09 309.69,-166.6"/>
</a>
</g>
</g>
<!-- Node8 -->
<g id="Node000008" class="node">
<title>Node8</title>
<g id="a_Node000008"><a xlink:href="_level_editor_8cpp.html" target="_top" xlink:title=" ">
<polygon fill="white" stroke="#666666" points="414.88,-132 275.88,-132 275.88,-112 414.88,-112 414.88,-132"/>
<text text-anchor="middle" x="345.38" y="-118.5" font-family="Helvetica,sans-Serif" font-size="10.00">AI Behaviors/LevelEditor.cpp</text>
</a>
</g>
</g>
<!-- Node5&#45;&gt;Node8 -->
<g id="edge9_Node000005_Node000008" class="edge">
<title>Node5&#45;&gt;Node8</title>
<g id="a_edge9_Node000005_Node000008"><a xlink:title=" ">
<path fill="none" stroke="#63b8ff" d="M345.38,-156.13C345.38,-147.9 345.38,-138.85 345.38,-132.3"/>
<polygon fill="#63b8ff" stroke="#63b8ff" points="341.88,-156.08 345.38,-166.08 348.88,-156.08 341.88,-156.08"/>
</a>
</g>
</g>
<!-- Node5&#45;&gt;Node9 -->
<g id="edge10_Node000005_Node000009" class="edge">
<title>Node5&#45;&gt;Node9</title>
<g id="a_edge10_Node000005_Node000009"><a xlink:title=" ">
<path fill="none" stroke="#63b8ff" d="M287.15,-165.31C238.18,-155.48 169.04,-141.6 123.48,-132.46"/>
<polygon fill="#63b8ff" stroke="#63b8ff" points="286.23,-168.7 296.73,-167.23 287.61,-161.83 286.23,-168.7"/>
</a>
</g>
</g>
<!-- Node6&#45;&gt;Node2 -->
<g id="edge7_Node000006_Node000002" class="edge">
<title>Node6&#45;&gt;Node2</title>
<g id="a_edge7_Node000006_Node000002"><a xlink:title=" ">
<path fill="none" stroke="#63b8ff" d="M264.72,-109.19C310.75,-99.36 375.4,-85.56 418.07,-76.46"/>
<polygon fill="#63b8ff" stroke="#63b8ff" points="264.26,-105.71 255.21,-111.22 265.72,-112.55 264.26,-105.71"/>
</a>
</g>
</g>
<!-- Node7 -->
<g id="Node000007" class="node">
<title>Node7</title>
<g id="a_Node000007"><a xlink:href="_g_u_i_8cpp.html" target="_top" xlink:title=" ">
<polygon fill="white" stroke="#666666" points="269.5,-76 161.25,-76 161.25,-56 269.5,-56 269.5,-76"/>
<text text-anchor="middle" x="215.38" y="-62.5" font-family="Helvetica,sans-Serif" font-size="10.00">AI Behaviors/GUI.cpp</text>
</a>
</g>
</g>
<!-- Node6&#45;&gt;Node7 -->
<g id="edge6_Node000006_Node000007" class="edge">
<title>Node6&#45;&gt;Node7</title>
<g id="a_edge6_Node000006_Node000007"><a xlink:title=" ">
<path fill="none" stroke="#63b8ff" d="M211.66,-100.43C212.59,-92.11 213.6,-82.93 214.34,-76.3"/>
<polygon fill="#63b8ff" stroke="#63b8ff" points="208.21,-99.76 210.59,-110.09 215.17,-100.54 208.21,-99.76"/>
</a>
</g>
</g>
<!-- Node9&#45;&gt;Node2 -->
<g id="edge11_Node000009_Node000002" class="edge">
<title>Node9&#45;&gt;Node2</title>
<g id="a_edge11_Node000009_Node000002"><a xlink:title=" ">
<path fill="none" stroke="#63b8ff" d="M154.05,-110.13C229.54,-99.57 342.2,-83.81 408.39,-74.55"/>
<polygon fill="#63b8ff" stroke="#63b8ff" points="153.65,-106.66 144.23,-111.51 154.62,-113.59 153.65,-106.66"/>
</a>
</g>
</g>
<!-- Node10 -->
<g id="Node000010" class="node">
<title>Node10</title>
<g id="a_Node000010"><a xlink:href="_level_loader_8cpp.html" target="_top" xlink:title=" ">
<polygon fill="white" stroke="#666666" points="142.75,-76 0,-76 0,-56 142.75,-56 142.75,-76"/>
<text text-anchor="middle" x="71.38" y="-62.5" font-family="Helvetica,sans-Serif" font-size="10.00">AI Behaviors/LevelLoader.cpp</text>
</a>
</g>
</g>
<!-- Node9&#45;&gt;Node10 -->
<g id="edge12_Node000009_Node000010" class="edge">
<title>Node9&#45;&gt;Node10</title>
<g id="a_edge12_Node000009_Node000010"><a xlink:title=" ">
<path fill="none" stroke="#63b8ff" d="M74.44,-100.13C73.68,-91.9 72.84,-82.85 72.24,-76.3"/>
<polygon fill="#63b8ff" stroke="#63b8ff" points="70.96,-100.45 75.36,-110.09 77.93,-99.81 70.96,-100.45"/>
</a>
</g>
</g>
<!-- Node11&#45;&gt;Node2 -->
<g id="edge15_Node000011_Node000002" class="edge">
<title>Node11&#45;&gt;Node2</title>
<g id="a_edge15_Node000011_Node000002"><a xlink:title=" ">
<path fill="none" stroke="#63b8ff" d="M554.9,-159.53C531.32,-135.95 490.14,-94.76 471.73,-76.35"/>
<polygon fill="#63b8ff" stroke="#63b8ff" points="552.38,-161.96 561.93,-166.55 557.33,-157.01 552.38,-161.96"/>
</a>
</g>
</g>
<!-- Node12 -->
<g id="Node000012" class="node">
<title>Node12</title>
<g id="a_Node000012"><a xlink:href="_main_menu_8cpp.html" target="_top" xlink:title=" ">
<polygon fill="white" stroke="#666666" points="683.75,-132 547,-132 547,-112 683.75,-112 683.75,-132"/>
<text text-anchor="middle" x="615.38" y="-118.5" font-family="Helvetica,sans-Serif" font-size="10.00">AI Behaviors/MainMenu.cpp</text>
</a>
</g>
</g>
<!-- Node11&#45;&gt;Node12 -->
<g id="edge16_Node000011_Node000012" class="edge">
<title>Node11&#45;&gt;Node12</title>
<g id="a_edge16_Node000011_Node000012"><a xlink:title=" ">
<path fill="none" stroke="#63b8ff" d="M586.93,-158.72C594,-149.84 602.2,-139.55 607.97,-132.3"/>
<polygon fill="#63b8ff" stroke="#63b8ff" points="584.3,-156.41 580.81,-166.41 589.78,-160.77 584.3,-156.41"/>
</a>
</g>
</g>
<!-- Node13&#45;&gt;Node2 -->
<g id="edge18_Node000013_Node000002" class="edge">
<title>Node13&#45;&gt;Node2</title>
<g id="a_edge18_Node000013_Node000002"><a xlink:title=" ">
<path fill="none" stroke="#63b8ff" d="M722.49,-157.2C717.06,-142.45 707.52,-123.02 692.38,-112 664.91,-92.01 575.4,-78.95 516.48,-72.29"/>
<polygon fill="#63b8ff" stroke="#63b8ff" points="719.05,-157.95 725.51,-166.34 725.7,-155.75 719.05,-157.95"/>
</a>
</g>
</g>
<!-- Node14 -->
<g id="Node000014" class="node">
<title>Node14</title>
<g id="a_Node000014"><a xlink:href="_neural_networks_8cpp.html" target="_top" xlink:title=" ">
<polygon fill="white" stroke="#666666" points="899.38,-132 739.38,-132 739.38,-112 899.38,-112 899.38,-132"/>
<text text-anchor="middle" x="819.38" y="-118.5" font-family="Helvetica,sans-Serif" font-size="10.00">AI Behaviors/NeuralNetworks.cpp</text>
</a>
</g>
</g>
<!-- Node13&#45;&gt;Node14 -->
<g id="edge19_Node000013_Node000014" class="edge">
<title>Node13&#45;&gt;Node14</title>
<g id="a_edge19_Node000013_Node000014"><a xlink:title=" ">
<path fill="none" stroke="#63b8ff" d="M753.97,-161.81C769.84,-152.39 789.74,-140.58 803.4,-132.48"/>
<polygon fill="#63b8ff" stroke="#63b8ff" points="752.34,-158.71 745.53,-166.82 755.91,-164.73 752.34,-158.71"/>
</a>
</g>
</g>
</g>
</svg>

<g id="navigator" transform="translate(0 0)" fill="#404254">
  <rect fill="#f2f5e9" fill-opacity="0.5" stroke="#606060" stroke-width=".5" x="0" y="0" width="60" height="60"/>
  <use id="zoomplus" xlink:href="#zoomPlus" x="17" y="9" onmousedown="handleZoom(evt,'in')"/>
  <use id="zoomminus" xlink:href="#zoomMin" x="42" y="9" onmousedown="handleZoom(evt,'out')"/>
  <use id="reset" xlink:href="#resetDef" x="30" y="36" onmousedown="handleReset()"/>
   <use id="arrowup" xlink:href="#arrowUp" x="0" y="0" onmousedown="handlePan(0,-1)"/>
  <use id="arrowright" xlink:href="#arrowRight" x="0" y="0" onmousedown="handlePan(1,0)"/>
  <use id="arrowdown" xlink:href="#arrowDown" x="0" y="0" onmousedown="handlePan(0,1)"/>
  <use id="arrowleft" xlink:href="#arrowLeft" x="0" y="0" onmousedown="handlePan(-1,0)"/>
</g>
<svg viewBox="0 0 15 15" width="100%" height="30px" preserveAspectRatio="xMaxYMin meet">
 <g id="arrow_out" transform="scale(0.3 0.3)">
  <a xlink:href="_game_state_8h__dep__incl_org.svg" target="_base">
   <rect id="button" ry="5" rx="5" y="6" x="6" height="38" width="38"
        fill="#f2f5e9" fill-opacity="0.5" stroke="#606060" stroke-width="1.0"/>
   <path id="arrow"
     d="M 11.500037,31.436501 C 11.940474,20.09759 22.043105,11.32322 32.158766,21.979434 L 37.068811,17.246167 C 37.068811,17.246167 37.088388,32 37.088388,32 L 22.160133,31.978069 C 22.160133,31.978069 26.997745,27.140456 26.997745,27.140456 C 18.528582,18.264221 13.291696,25.230495 11.500037,31.436501 z"
     style="fill:#404040;"/>
  </a>
 </g>
</svg>

<style type='text/css'>
<![CDATA[
[data-mouse-over-selected='false'] { opacity: 0.7; }
[data-mouse-over-selected='true']  { opacity: 1.0; }
]]>
</style>
<script type="application/ecmascript"><![CDATA[
document.addEventListener('DOMContentLoaded', (event) => {
  highlightEdges();
  highlightAdjacentNodes();
});
]]></script>
</svg>
