<?xml version="1.0" encoding="UTF-8" standalone="no"?>
<!DOCTYPE svg PUBLIC "-//W3C//DTD SVG 1.1//EN"
 "http://www.w3.org/Graphics/SVG/1.1/DTD/svg11.dtd">
<!-- Generated by graphviz version 10.0.1 (20240210.2158)
 -->
<!-- Title: AI Behaviors/Harvester.h Pages: 1 -->
<svg width="868pt" height="308pt"
 viewBox="0.00 0.00 868.38 308.00" xmlns="http://www.w3.org/2000/svg" xmlns:xlink="http://www.w3.org/1999/xlink">
<g id="graph0" class="graph" transform="scale(1 1) rotate(0) translate(4 304)">
<title>AI Behaviors/Harvester.h</title>
<!-- Node1 -->
<g id="Node000001" class="node">
<title>Node1</title>
<g id="a_Node000001"><a xlink:title=" ">
<polygon fill="#999999" stroke="#666666" points="540.5,-300 418.75,-300 418.75,-280 540.5,-280 540.5,-300"/>
<text text-anchor="middle" x="479.62" y="-286.5" font-family="Helvetica,sans-Serif" font-size="10.00">AI Behaviors/Harvester.h</text>
</a>
</g>
</g>
<!-- Node2 -->
<g id="Node000002" class="node">
<title>Node2</title>
<g id="a_Node000002"><a xlink:href="_vehicle_unit_8h.html" target="_top" xlink:title=" ">
<polygon fill="white" stroke="#666666" points="484.5,-244 410.75,-244 410.75,-224 484.5,-224 484.5,-244"/>
<text text-anchor="middle" x="447.62" y="-230.5" font-family="Helvetica,sans-Serif" font-size="10.00">VehicleUnit.h</text>
</a>
</g>
</g>
<!-- Node1&#45;&gt;Node2 -->
<g id="edge1_Node000001_Node000002" class="edge">
<title>Node1&#45;&gt;Node2</title>
<g id="a_edge1_Node000001_Node000002"><a xlink:title=" ">
<path fill="none" stroke="#63b8ff" d="M474.05,-279.59C469.88,-272.55 464.02,-262.67 458.88,-254"/>
<polygon fill="#63b8ff" stroke="#63b8ff" points="462.02,-252.42 453.91,-245.6 455.99,-255.99 462.02,-252.42"/>
</a>
</g>
</g>
<!-- Node22 -->
<g id="Node000022" class="node">
<title>Node22</title>
<g id="a_Node000022"><a xlink:href="_refinery_8h.html" target="_top" xlink:title=" ">
<polygon fill="white" stroke="#666666" points="588.38,-188 528.88,-188 528.88,-168 588.38,-168 588.38,-188"/>
<text text-anchor="middle" x="558.62" y="-174.5" font-family="Helvetica,sans-Serif" font-size="10.00">Refinery.h</text>
</a>
</g>
</g>
<!-- Node1&#45;&gt;Node22 -->
<g id="edge30_Node000001_Node000022" class="edge">
<title>Node1&#45;&gt;Node22</title>
<g id="a_edge30_Node000001_Node000022"><a xlink:title=" ">
<path fill="none" stroke="#63b8ff" d="M486.36,-279.62C499.36,-261.52 528.14,-221.45 545.19,-197.7"/>
<polygon fill="#63b8ff" stroke="#63b8ff" points="548.03,-199.75 551.02,-189.58 542.35,-195.66 548.03,-199.75"/>
</a>
</g>
</g>
<!-- Node3 -->
<g id="Node000003" class="node">
<title>Node3</title>
<g id="a_Node000003"><a xlink:href="_unit_8h.html" target="_top" xlink:title=" ">
<polygon fill="white" stroke="#666666" points="466.38,-188 424.88,-188 424.88,-168 466.38,-168 466.38,-188"/>
<text text-anchor="middle" x="445.62" y="-174.5" font-family="Helvetica,sans-Serif" font-size="10.00">Unit.h</text>
</a>
</g>
</g>
<!-- Node2&#45;&gt;Node3 -->
<g id="edge2_Node000002_Node000003" class="edge">
<title>Node2&#45;&gt;Node3</title>
<g id="a_edge2_Node000002_Node000003"><a xlink:title=" ">
<path fill="none" stroke="#63b8ff" d="M447.28,-223.59C447.03,-217.01 446.7,-207.96 446.39,-199.73"/>
<polygon fill="#63b8ff" stroke="#63b8ff" points="449.89,-199.67 446.03,-189.81 442.9,-199.93 449.89,-199.67"/>
</a>
</g>
</g>
<!-- Node4 -->
<g id="Node000004" class="node">
<title>Node4</title>
<g id="a_Node000004"><a xlink:title=" ">
<polygon fill="#e0e0e0" stroke="#999999" points="598.38,-76 544.88,-76 544.88,-56 598.38,-56 598.38,-76"/>
<text text-anchor="middle" x="571.62" y="-62.5" font-family="Helvetica,sans-Serif" font-size="10.00">iostream</text>
</a>
</g>
</g>
<!-- Node3&#45;&gt;Node4 -->
<g id="edge3_Node000003_Node000004" class="edge">
<title>Node3&#45;&gt;Node4</title>
<g id="a_edge3_Node000003_Node000004"><a xlink:title=" ">
<path fill="none" stroke="#63b8ff" d="M452.48,-167.93C462.73,-154.71 483.04,-129.82 503.62,-112 516.38,-100.96 531.99,-90.45 545.04,-82.37"/>
<polygon fill="#63b8ff" stroke="#63b8ff" points="546.8,-85.39 553.55,-77.22 543.18,-79.4 546.8,-85.39"/>
</a>
</g>
</g>
<!-- Node5 -->
<g id="Node000005" class="node">
<title>Node5</title>
<g id="a_Node000005"><a xlink:title=" ">
<polygon fill="#e0e0e0" stroke="#999999" points="330.12,-20 227.12,-20 227.12,0 330.12,0 330.12,-20"/>
<text text-anchor="middle" x="278.62" y="-6.5" font-family="Helvetica,sans-Serif" font-size="10.00">SFML/Graphics.hpp</text>
</a>
</g>
</g>
<!-- Node3&#45;&gt;Node5 -->
<g id="edge4_Node000003_Node000005" class="edge">
<title>Node3&#45;&gt;Node5</title>
<g id="a_edge4_Node000003_Node000005"><a xlink:title=" ">
<path fill="none" stroke="#63b8ff" d="M443.7,-167.76C438.62,-145.52 422.81,-88.46 388.62,-56 372.91,-41.08 351.57,-30.82 331.86,-23.92"/>
<polygon fill="#63b8ff" stroke="#63b8ff" points="333.16,-20.66 322.57,-20.89 330.99,-27.32 333.16,-20.66"/>
</a>
</g>
</g>
<!-- Node6 -->
<g id="Node000006" class="node">
<title>Node6</title>
<g id="a_Node000006"><a xlink:href="_global_8h.html" target="_top" xlink:title=" ">
<polygon fill="white" stroke="#666666" points="804.62,-76 752.62,-76 752.62,-56 804.62,-56 804.62,-76"/>
<text text-anchor="middle" x="778.62" y="-62.5" font-family="Helvetica,sans-Serif" font-size="10.00">Global.h</text>
</a>
</g>
</g>
<!-- Node3&#45;&gt;Node6 -->
<g id="edge5_Node000003_Node000006" class="edge">
<title>Node3&#45;&gt;Node6</title>
<g id="a_edge5_Node000003_Node000006"><a xlink:title=" ">
<path fill="none" stroke="#63b8ff" d="M466.82,-173.64C503.08,-167.55 579.07,-153.33 640.62,-132 680.61,-118.15 724.44,-96.26 751.74,-81.77"/>
<polygon fill="#63b8ff" stroke="#63b8ff" points="753.21,-84.96 760.36,-77.14 749.89,-78.79 753.21,-84.96"/>
</a>
</g>
</g>
<!-- Node10 -->
<g id="Node000010" class="node">
<title>Node10</title>
<g id="a_Node000010"><a xlink:title=" ">
<polygon fill="#e0e0e0" stroke="#999999" points="555.12,-132 512.12,-132 512.12,-112 555.12,-112 555.12,-132"/>
<text text-anchor="middle" x="533.62" y="-118.5" font-family="Helvetica,sans-Serif" font-size="10.00">cmath</text>
</a>
</g>
</g>
<!-- Node3&#45;&gt;Node10 -->
<g id="edge9_Node000003_Node000010" class="edge">
<title>Node3&#45;&gt;Node10</title>
<g id="a_edge9_Node000003_Node000010"><a xlink:title=" ">
<path fill="none" stroke="#63b8ff" d="M460.95,-167.59C474.12,-159.51 493.36,-147.71 508.73,-138.27"/>
<polygon fill="#63b8ff" stroke="#63b8ff" points="510.19,-141.48 516.89,-133.27 506.53,-135.52 510.19,-141.48"/>
</a>
</g>
</g>
<!-- Node11 -->
<g id="Node000011" class="node">
<title>Node11</title>
<g id="a_Node000011"><a xlink:href="_bullet_8h.html" target="_top" xlink:title=" ">
<polygon fill="white" stroke="#666666" points="190.12,-132 141.12,-132 141.12,-112 190.12,-112 190.12,-132"/>
<text text-anchor="middle" x="165.62" y="-118.5" font-family="Helvetica,sans-Serif" font-size="10.00">Bullet.h</text>
</a>
</g>
</g>
<!-- Node3&#45;&gt;Node11 -->
<g id="edge10_Node000003_Node000011" class="edge">
<title>Node3&#45;&gt;Node11</title>
<g id="a_edge10_Node000003_Node000011"><a xlink:title=" ">
<path fill="none" stroke="#63b8ff" d="M424.58,-172.94C377.01,-163.77 260.73,-141.34 201.52,-129.92"/>
<polygon fill="#63b8ff" stroke="#63b8ff" points="202.45,-126.54 191.97,-128.08 201.13,-133.41 202.45,-126.54"/>
</a>
</g>
</g>
<!-- Node13 -->
<g id="Node000013" class="node">
<title>Node13</title>
<g id="a_Node000013"><a xlink:href="_missile_8h.html" target="_top" xlink:title=" ">
<polygon fill="white" stroke="#666666" points="123.12,-132 68.12,-132 68.12,-112 123.12,-112 123.12,-132"/>
<text text-anchor="middle" x="95.62" y="-118.5" font-family="Helvetica,sans-Serif" font-size="10.00">Missile.h</text>
</a>
</g>
</g>
<!-- Node3&#45;&gt;Node13 -->
<g id="edge13_Node000003_Node000013" class="edge">
<title>Node3&#45;&gt;Node13</title>
<g id="a_edge13_Node000003_Node000013"><a xlink:title=" ">
<path fill="none" stroke="#63b8ff" d="M424.55,-174.74C375.42,-169.3 249.28,-154.43 134.54,-132.41"/>
<polygon fill="#63b8ff" stroke="#63b8ff" points="135.44,-129.02 124.96,-130.55 134.1,-135.9 135.44,-129.02"/>
</a>
</g>
</g>
<!-- Node14 -->
<g id="Node000014" class="node">
<title>Node14</title>
<g id="a_Node000014"><a xlink:href="_particle_system_8h.html" target="_top" xlink:title=" ">
<polygon fill="white" stroke="#666666" points="527.12,-76 436.12,-76 436.12,-56 527.12,-56 527.12,-76"/>
<text text-anchor="middle" x="481.62" y="-62.5" font-family="Helvetica,sans-Serif" font-size="10.00">ParticleSystem.h</text>
</a>
</g>
</g>
<!-- Node3&#45;&gt;Node14 -->
<g id="edge16_Node000003_Node000014" class="edge">
<title>Node3&#45;&gt;Node14</title>
<g id="a_edge16_Node000003_Node000014"><a xlink:title=" ">
<path fill="none" stroke="#63b8ff" d="M448.69,-167.62C454.51,-149.84 467.26,-110.88 475.08,-87"/>
<polygon fill="#63b8ff" stroke="#63b8ff" points="478.31,-88.39 478.09,-77.79 471.66,-86.21 478.31,-88.39"/>
</a>
</g>
</g>
<!-- Node15 -->
<g id="Node000015" class="node">
<title>Node15</title>
<g id="a_Node000015"><a xlink:href="_building_8h.html" target="_top" xlink:title=" ">
<polygon fill="white" stroke="#666666" points="632,-132 573.25,-132 573.25,-112 632,-112 632,-132"/>
<text text-anchor="middle" x="602.62" y="-118.5" font-family="Helvetica,sans-Serif" font-size="10.00">Building.h</text>
</a>
</g>
</g>
<!-- Node3&#45;&gt;Node15 -->
<g id="edge18_Node000003_Node000015" class="edge">
<title>Node3&#45;&gt;Node15</title>
<g id="a_edge18_Node000003_Node000015"><a xlink:title=" ">
<path fill="none" stroke="#63b8ff" d="M466.8,-169.72C491.77,-161.13 533.76,-146.69 564.46,-136.13"/>
<polygon fill="#63b8ff" stroke="#63b8ff" points="565.45,-139.49 573.77,-132.92 563.18,-132.87 565.45,-139.49"/>
</a>
</g>
</g>
<!-- Node17 -->
<g id="Node000017" class="node">
<title>Node17</title>
<g id="a_Node000017"><a xlink:href="_tile_8h.html" target="_top" xlink:title=" ">
<polygon fill="white" stroke="#666666" points="39.25,-132 0,-132 0,-112 39.25,-112 39.25,-132"/>
<text text-anchor="middle" x="19.62" y="-118.5" font-family="Helvetica,sans-Serif" font-size="10.00">Tile.h</text>
</a>
</g>
</g>
<!-- Node3&#45;&gt;Node17 -->
<g id="edge24_Node000003_Node000017" class="edge">
<title>Node3&#45;&gt;Node17</title>
<g id="a_edge24_Node000003_Node000017"><a xlink:title=" ">
<path fill="none" stroke="#63b8ff" d="M424.53,-175.38C366.09,-170.7 197.26,-155.98 58.62,-132 55.97,-131.54 53.22,-131.01 50.47,-130.45"/>
<polygon fill="#63b8ff" stroke="#63b8ff" points="51.38,-127.07 40.86,-128.33 49.87,-133.9 51.38,-127.07"/>
</a>
</g>
</g>
<!-- Node18 -->
<g id="Node000018" class="node">
<title>Node18</title>
<g id="a_Node000018"><a xlink:href="_sound_manager_8h.html" target="_top" xlink:title=" ">
<polygon fill="white" stroke="#666666" points="353.38,-132 263.88,-132 263.88,-112 353.38,-112 353.38,-132"/>
<text text-anchor="middle" x="308.62" y="-118.5" font-family="Helvetica,sans-Serif" font-size="10.00">SoundManager.h</text>
</a>
</g>
</g>
<!-- Node3&#45;&gt;Node18 -->
<g id="edge26_Node000003_Node000018" class="edge">
<title>Node3&#45;&gt;Node18</title>
<g id="a_edge26_Node000003_Node000018"><a xlink:title=" ">
<path fill="none" stroke="#63b8ff" d="M424.52,-168.68C402.71,-160.09 368.34,-146.54 342.69,-136.43"/>
<polygon fill="#63b8ff" stroke="#63b8ff" points="344.28,-133.29 333.69,-132.88 341.71,-139.8 344.28,-133.29"/>
</a>
</g>
</g>
<!-- Node7 -->
<g id="Node000007" class="node">
<title>Node7</title>
<g id="a_Node000007"><a xlink:title=" ">
<polygon fill="#e0e0e0" stroke="#999999" points="860.38,-20 818.88,-20 818.88,0 860.38,0 860.38,-20"/>
<text text-anchor="middle" x="839.62" y="-6.5" font-family="Helvetica,sans-Serif" font-size="10.00">vector</text>
</a>
</g>
</g>
<!-- Node6&#45;&gt;Node7 -->
<g id="edge6_Node000006_Node000007" class="edge">
<title>Node6&#45;&gt;Node7</title>
<g id="a_edge6_Node000006_Node000007"><a xlink:title=" ">
<path fill="none" stroke="#63b8ff" d="M789.25,-55.59C797.91,-47.93 810.36,-36.91 820.71,-27.75"/>
<polygon fill="#63b8ff" stroke="#63b8ff" points="822.82,-30.55 827.99,-21.3 818.18,-25.31 822.82,-30.55"/>
</a>
</g>
</g>
<!-- Node8 -->
<g id="Node000008" class="node">
<title>Node8</title>
<g id="a_Node000008"><a xlink:title=" ">
<polygon fill="#e0e0e0" stroke="#999999" points="737.5,-20 699.75,-20 699.75,0 737.5,0 737.5,-20"/>
<text text-anchor="middle" x="718.62" y="-6.5" font-family="Helvetica,sans-Serif" font-size="10.00">array</text>
</a>
</g>
</g>
<!-- Node6&#45;&gt;Node8 -->
<g id="edge7_Node000006_Node000008" class="edge">
<title>Node6&#45;&gt;Node8</title>
<g id="a_edge7_Node000006_Node000008"><a xlink:title=" ">
<path fill="none" stroke="#63b8ff" d="M768.17,-55.59C759.66,-47.93 747.41,-36.91 737.23,-27.75"/>
<polygon fill="#63b8ff" stroke="#63b8ff" points="739.86,-25.4 730.08,-21.31 735.17,-30.6 739.86,-25.4"/>
</a>
</g>
</g>
<!-- Node9 -->
<g id="Node000009" class="node">
<title>Node9</title>
<g id="a_Node000009"><a xlink:title=" ">
<polygon fill="#e0e0e0" stroke="#999999" points="801.25,-20 756,-20 756,0 801.25,0 801.25,-20"/>
<text text-anchor="middle" x="778.62" y="-6.5" font-family="Helvetica,sans-Serif" font-size="10.00">chrono</text>
</a>
</g>
</g>
<!-- Node6&#45;&gt;Node9 -->
<g id="edge8_Node000006_Node000009" class="edge">
<title>Node6&#45;&gt;Node9</title>
<g id="a_edge8_Node000006_Node000009"><a xlink:title=" ">
<path fill="none" stroke="#63b8ff" d="M778.62,-55.59C778.62,-49.01 778.62,-39.96 778.62,-31.73"/>
<polygon fill="#63b8ff" stroke="#63b8ff" points="782.13,-31.81 778.63,-21.81 775.13,-31.81 782.13,-31.81"/>
</a>
</g>
</g>
<!-- Node11&#45;&gt;Node5 -->
<g id="edge11_Node000011_Node000005" class="edge">
<title>Node11&#45;&gt;Node5</title>
<g id="a_edge11_Node000011_Node000005"><a xlink:title=" ">
<path fill="none" stroke="#63b8ff" d="M163.16,-111.61C160.18,-98 156.9,-72.62 168.62,-56 179.91,-40 197.94,-29.68 216.16,-23.03"/>
<polygon fill="#63b8ff" stroke="#63b8ff" points="217.02,-26.43 225.43,-19.99 214.84,-19.78 217.02,-26.43"/>
</a>
</g>
</g>
<!-- Node12 -->
<g id="Node000012" class="node">
<title>Node12</title>
<g id="a_Node000012"><a xlink:title=" ">
<polygon fill="#e0e0e0" stroke="#999999" points="121.75,-76 79.5,-76 79.5,-56 121.75,-56 121.75,-76"/>
<text text-anchor="middle" x="100.62" y="-62.5" font-family="Helvetica,sans-Serif" font-size="10.00">deque</text>
</a>
</g>
</g>
<!-- Node11&#45;&gt;Node12 -->
<g id="edge12_Node000011_Node000012" class="edge">
<title>Node11&#45;&gt;Node12</title>
<g id="a_edge12_Node000011_Node000012"><a xlink:title=" ">
<path fill="none" stroke="#63b8ff" d="M154.3,-111.59C144.98,-103.85 131.55,-92.69 120.45,-83.47"/>
<polygon fill="#63b8ff" stroke="#63b8ff" points="122.91,-80.96 112.98,-77.27 118.44,-86.35 122.91,-80.96"/>
</a>
</g>
</g>
<!-- Node13&#45;&gt;Node5 -->
<g id="edge14_Node000013_Node000005" class="edge">
<title>Node13&#45;&gt;Node5</title>
<g id="a_edge14_Node000013_Node000005"><a xlink:title=" ">
<path fill="none" stroke="#63b8ff" d="M86.71,-111.69C74.87,-98.19 56.96,-72.94 70.62,-56 88.6,-33.72 161.04,-21.92 215.41,-16.08"/>
<polygon fill="#63b8ff" stroke="#63b8ff" points="215.62,-19.58 225.21,-15.08 214.91,-12.62 215.62,-19.58"/>
</a>
</g>
</g>
<!-- Node13&#45;&gt;Node12 -->
<g id="edge15_Node000013_Node000012" class="edge">
<title>Node13&#45;&gt;Node12</title>
<g id="a_edge15_Node000013_Node000012"><a xlink:title=" ">
<path fill="none" stroke="#63b8ff" d="M96.5,-111.59C97.11,-105.01 97.94,-95.96 98.71,-87.73"/>
<polygon fill="#63b8ff" stroke="#63b8ff" points="102.19,-88.09 99.62,-77.81 95.22,-87.44 102.19,-88.09"/>
</a>
</g>
</g>
<!-- Node14&#45;&gt;Node5 -->
<g id="edge17_Node000014_Node000005" class="edge">
<title>Node14&#45;&gt;Node5</title>
<g id="a_edge17_Node000014_Node000005"><a xlink:title=" ">
<path fill="none" stroke="#63b8ff" d="M446.27,-55.59C412.7,-46.67 362.06,-33.19 325.22,-23.39"/>
<polygon fill="#63b8ff" stroke="#63b8ff" points="326.29,-20.06 315.72,-20.87 324.49,-26.82 326.29,-20.06"/>
</a>
</g>
</g>
<!-- Node15&#45;&gt;Node4 -->
<g id="edge19_Node000015_Node000004" class="edge">
<title>Node15&#45;&gt;Node4</title>
<g id="a_edge19_Node000015_Node000004"><a xlink:title=" ">
<path fill="none" stroke="#63b8ff" d="M597.23,-111.59C593.18,-104.55 587.51,-94.67 582.53,-86"/>
<polygon fill="#63b8ff" stroke="#63b8ff" points="585.73,-84.54 577.72,-77.61 579.66,-88.03 585.73,-84.54"/>
</a>
</g>
</g>
<!-- Node15&#45;&gt;Node5 -->
<g id="edge20_Node000015_Node000005" class="edge">
<title>Node15&#45;&gt;Node5</title>
<g id="a_edge20_Node000015_Node000005"><a xlink:title=" ">
<path fill="none" stroke="#63b8ff" d="M607.03,-111.74C612.93,-97.83 621.17,-71.52 607.62,-56 573.83,-17.27 427.51,-10.66 341.81,-10.22"/>
<polygon fill="#63b8ff" stroke="#63b8ff" points="341.91,-6.72 331.9,-10.2 341.9,-13.72 341.91,-6.72"/>
</a>
</g>
</g>
<!-- Node15&#45;&gt;Node6 -->
<g id="edge21_Node000015_Node000006" class="edge">
<title>Node15&#45;&gt;Node6</title>
<g id="a_edge21_Node000015_Node000006"><a xlink:title=" ">
<path fill="none" stroke="#63b8ff" d="M632.48,-111.84C662.57,-102.61 709.08,-88.34 741.52,-78.38"/>
<polygon fill="#63b8ff" stroke="#63b8ff" points="742.38,-81.78 750.92,-75.5 740.33,-75.09 742.38,-81.78"/>
</a>
</g>
</g>
<!-- Node15&#45;&gt;Node14 -->
<g id="edge23_Node000015_Node000014" class="edge">
<title>Node15&#45;&gt;Node14</title>
<g id="a_edge23_Node000015_Node000014"><a xlink:title=" ">
<path fill="none" stroke="#63b8ff" d="M581.55,-111.59C562.67,-103.17 534.71,-90.69 513.16,-81.07"/>
<polygon fill="#63b8ff" stroke="#63b8ff" points="514.81,-77.98 504.25,-77.1 511.95,-84.37 514.81,-77.98"/>
</a>
</g>
</g>
<!-- Node16 -->
<g id="Node000016" class="node">
<title>Node16</title>
<g id="a_Node000016"><a xlink:href="_building_type_8h.html" target="_top" xlink:title=" ">
<polygon fill="white" stroke="#666666" points="734.5,-76 654.75,-76 654.75,-56 734.5,-56 734.5,-76"/>
<text text-anchor="middle" x="694.62" y="-62.5" font-family="Helvetica,sans-Serif" font-size="10.00">BuildingType.h</text>
</a>
</g>
</g>
<!-- Node15&#45;&gt;Node16 -->
<g id="edge22_Node000015_Node000016" class="edge">
<title>Node15&#45;&gt;Node16</title>
<g id="a_edge22_Node000015_Node000016"><a xlink:title=" ">
<path fill="none" stroke="#63b8ff" d="M618.65,-111.59C632.42,-103.51 652.53,-91.71 668.6,-82.27"/>
<polygon fill="#63b8ff" stroke="#63b8ff" points="670.32,-85.33 677.17,-77.25 666.77,-79.29 670.32,-85.33"/>
</a>
</g>
</g>
<!-- Node17&#45;&gt;Node5 -->
<g id="edge25_Node000017_Node000005" class="edge">
<title>Node17&#45;&gt;Node5</title>
<g id="a_edge25_Node000017_Node000005"><a xlink:title=" ">
<path fill="none" stroke="#63b8ff" d="M23.03,-111.78C28.82,-97.44 42.02,-69.97 62.62,-56 107.78,-25.38 169.55,-14.9 215.47,-11.63"/>
<polygon fill="#63b8ff" stroke="#63b8ff" points="215.5,-15.14 225.27,-11.04 215.08,-8.15 215.5,-15.14"/>
</a>
</g>
</g>
<!-- Node19 -->
<g id="Node000019" class="node">
<title>Node19</title>
<g id="a_Node000019"><a xlink:title=" ">
<polygon fill="#e0e0e0" stroke="#999999" points="327,-76 238.25,-76 238.25,-56 327,-56 327,-76"/>
<text text-anchor="middle" x="282.62" y="-62.5" font-family="Helvetica,sans-Serif" font-size="10.00">SFML/Audio.hpp</text>
</a>
</g>
</g>
<!-- Node18&#45;&gt;Node19 -->
<g id="edge27_Node000018_Node000019" class="edge">
<title>Node18&#45;&gt;Node19</title>
<g id="a_edge27_Node000018_Node000019"><a xlink:title=" ">
<path fill="none" stroke="#63b8ff" d="M304.1,-111.59C300.78,-104.7 296.16,-95.1 292.05,-86.57"/>
<polygon fill="#63b8ff" stroke="#63b8ff" points="295.25,-85.15 287.76,-77.66 288.94,-88.19 295.25,-85.15"/>
</a>
</g>
</g>
<!-- Node20 -->
<g id="Node000020" class="node">
<title>Node20</title>
<g id="a_Node000020"><a xlink:title=" ">
<polygon fill="#e0e0e0" stroke="#999999" points="380,-76 345.25,-76 345.25,-56 380,-56 380,-76"/>
<text text-anchor="middle" x="362.62" y="-62.5" font-family="Helvetica,sans-Serif" font-size="10.00">map</text>
</a>
</g>
</g>
<!-- Node18&#45;&gt;Node20 -->
<g id="edge28_Node000018_Node000020" class="edge">
<title>Node18&#45;&gt;Node20</title>
<g id="a_edge28_Node000018_Node000020"><a xlink:title=" ">
<path fill="none" stroke="#63b8ff" d="M318.03,-111.59C325.54,-104.08 336.27,-93.35 345.32,-84.3"/>
<polygon fill="#63b8ff" stroke="#63b8ff" points="347.66,-86.91 352.26,-77.37 342.71,-81.96 347.66,-86.91"/>
</a>
</g>
</g>
<!-- Node21 -->
<g id="Node000021" class="node">
<title>Node21</title>
<g id="a_Node000021"><a xlink:title=" ">
<polygon fill="#e0e0e0" stroke="#999999" points="219.75,-76 177.5,-76 177.5,-56 219.75,-56 219.75,-76"/>
<text text-anchor="middle" x="198.62" y="-62.5" font-family="Helvetica,sans-Serif" font-size="10.00">queue</text>
</a>
</g>
</g>
<!-- Node18&#45;&gt;Node21 -->
<g id="edge29_Node000018_Node000021" class="edge">
<title>Node18&#45;&gt;Node21</title>
<g id="a_edge29_Node000018_Node000021"><a xlink:title=" ">
<path fill="none" stroke="#63b8ff" d="M289.46,-111.59C272.53,-103.28 247.58,-91.03 228.1,-81.47"/>
<polygon fill="#63b8ff" stroke="#63b8ff" points="229.81,-78.41 219.29,-77.15 226.73,-84.7 229.81,-78.41"/>
</a>
</g>
</g>
<!-- Node22&#45;&gt;Node15 -->
<g id="edge31_Node000022_Node000015" class="edge">
<title>Node22&#45;&gt;Node15</title>
<g id="a_edge31_Node000022_Node000015"><a xlink:title=" ">
<path fill="none" stroke="#63b8ff" d="M566.29,-167.59C572.22,-160.32 580.61,-150.02 587.84,-141.15"/>
<polygon fill="#63b8ff" stroke="#63b8ff" points="590.49,-143.43 594.09,-133.47 585.06,-139.01 590.49,-143.43"/>
</a>
</g>
</g>
</g>
</svg>
