<?xml version="1.0" encoding="UTF-8" standalone="no"?>
<!DOCTYPE svg PUBLIC "-//W3C//DTD SVG 1.1//EN"
 "http://www.w3.org/Graphics/SVG/1.1/DTD/svg11.dtd">
<!-- Generated by graphviz version 10.0.1 (20240210.2158)
 -->
<!-- Title: AI Behaviors/InfantryUnit.h Pages: 1 -->
<svg width="392pt" height="252pt"
 viewBox="0.00 0.00 391.75 252.00" xmlns="http://www.w3.org/2000/svg" xmlns:xlink="http://www.w3.org/1999/xlink">
<g id="graph0" class="graph" transform="scale(1 1) rotate(0) translate(4 248)">
<title>AI Behaviors/InfantryUnit.h</title>
<!-- Node1 -->
<g id="Node000001" class="node">
<title>Node1</title>
<g id="a_Node000001"><a xlink:title=" ">
<polygon fill="#999999" stroke="#666666" points="216.25,-244 86.25,-244 86.25,-224 216.25,-224 216.25,-244"/>
<text text-anchor="middle" x="151.25" y="-230.5" font-family="Helvetica,sans-Serif" font-size="10.00">AI Behaviors/InfantryUnit.h</text>
</a>
</g>
</g>
<!-- Node2 -->
<g id="Node000002" class="node">
<title>Node2</title>
<g id="a_Node000002"><a xlink:href="_infantry_unit_8cpp.html" target="_top" xlink:title=" ">
<polygon fill="white" stroke="#666666" points="140.5,-188 0,-188 0,-168 140.5,-168 140.5,-188"/>
<text text-anchor="middle" x="70.25" y="-174.5" font-family="Helvetica,sans-Serif" font-size="10.00">AI Behaviors/InfantryUnit.cpp</text>
</a>
</g>
</g>
<!-- Node1&#45;&gt;Node2 -->
<g id="edge1_Node000001_Node000002" class="edge">
<title>Node1&#45;&gt;Node2</title>
<g id="a_edge1_Node000001_Node000002"><a xlink:title=" ">
<path fill="none" stroke="#63b8ff" d="M127.66,-217.27C113.66,-207.94 96.39,-196.43 84.47,-188.48"/>
<polygon fill="#63b8ff" stroke="#63b8ff" points="125.62,-220.12 135.88,-222.75 129.5,-214.3 125.62,-220.12"/>
</a>
</g>
</g>
<!-- Node3 -->
<g id="Node000003" class="node">
<title>Node3</title>
<g id="a_Node000003"><a xlink:href="_rifleman_squad_8h.html" target="_top" xlink:title=" ">
<polygon fill="white" stroke="#666666" points="305.5,-188 159,-188 159,-168 305.5,-168 305.5,-188"/>
<text text-anchor="middle" x="232.25" y="-174.5" font-family="Helvetica,sans-Serif" font-size="10.00">AI Behaviors/RiflemanSquad.h</text>
</a>
</g>
</g>
<!-- Node1&#45;&gt;Node3 -->
<g id="edge2_Node000001_Node000003" class="edge">
<title>Node1&#45;&gt;Node3</title>
<g id="a_edge2_Node000001_Node000003"><a xlink:title=" ">
<path fill="none" stroke="#63b8ff" d="M174.84,-217.27C188.84,-207.94 206.11,-196.43 218.03,-188.48"/>
<polygon fill="#63b8ff" stroke="#63b8ff" points="173,-214.3 166.62,-222.75 176.88,-220.12 173,-214.3"/>
</a>
</g>
</g>
<!-- Node4 -->
<g id="Node000004" class="node">
<title>Node4</title>
<g id="a_Node000004"><a xlink:href="_g_u_i_8h.html" target="_top" xlink:title=" ">
<polygon fill="white" stroke="#666666" points="209.12,-132 111.38,-132 111.38,-112 209.12,-112 209.12,-132"/>
<text text-anchor="middle" x="160.25" y="-118.5" font-family="Helvetica,sans-Serif" font-size="10.00">AI Behaviors/GUI.h</text>
</a>
</g>
</g>
<!-- Node3&#45;&gt;Node4 -->
<g id="edge3_Node000003_Node000004" class="edge">
<title>Node3&#45;&gt;Node4</title>
<g id="a_edge3_Node000003_Node000004"><a xlink:title=" ">
<path fill="none" stroke="#63b8ff" d="M210.86,-160.95C198.4,-151.61 183.14,-140.16 172.65,-132.3"/>
<polygon fill="#63b8ff" stroke="#63b8ff" points="208.4,-163.49 218.5,-166.69 212.6,-157.89 208.4,-163.49"/>
</a>
</g>
</g>
<!-- Node9 -->
<g id="Node000009" class="node">
<title>Node9</title>
<g id="a_Node000009"><a xlink:href="_rifleman_squad_8cpp.html" target="_top" xlink:title=" ">
<polygon fill="white" stroke="#666666" points="383.75,-132 226.75,-132 226.75,-112 383.75,-112 383.75,-132"/>
<text text-anchor="middle" x="305.25" y="-118.5" font-family="Helvetica,sans-Serif" font-size="10.00">AI Behaviors/RiflemanSquad.cpp</text>
</a>
</g>
</g>
<!-- Node3&#45;&gt;Node9 -->
<g id="edge8_Node000003_Node000009" class="edge">
<title>Node3&#45;&gt;Node9</title>
<g id="a_edge8_Node000003_Node000009"><a xlink:title=" ">
<path fill="none" stroke="#63b8ff" d="M253.94,-160.95C266.57,-151.61 282.05,-140.16 292.68,-132.3"/>
<polygon fill="#63b8ff" stroke="#63b8ff" points="252.14,-157.93 246.18,-166.69 256.3,-163.56 252.14,-157.93"/>
</a>
</g>
</g>
<!-- Node5 -->
<g id="Node000005" class="node">
<title>Node5</title>
<g id="a_Node000005"><a xlink:href="_g_u_i_8cpp.html" target="_top" xlink:title=" ">
<polygon fill="white" stroke="#666666" points="151.38,-76 43.12,-76 43.12,-56 151.38,-56 151.38,-76"/>
<text text-anchor="middle" x="97.25" y="-62.5" font-family="Helvetica,sans-Serif" font-size="10.00">AI Behaviors/GUI.cpp</text>
</a>
</g>
</g>
<!-- Node4&#45;&gt;Node5 -->
<g id="edge4_Node000004_Node000005" class="edge">
<title>Node4&#45;&gt;Node5</title>
<g id="a_edge4_Node000004_Node000005"><a xlink:title=" ">
<path fill="none" stroke="#63b8ff" d="M140.56,-104.13C129.85,-94.94 117,-83.93 108.1,-76.3"/>
<polygon fill="#63b8ff" stroke="#63b8ff" points="138.26,-106.76 148.13,-110.61 142.81,-101.44 138.26,-106.76"/>
</a>
</g>
</g>
<!-- Node6 -->
<g id="Node000006" class="node">
<title>Node6</title>
<g id="a_Node000006"><a xlink:href="_game_8h.html" target="_top" xlink:title=" ">
<polygon fill="white" stroke="#666666" points="277,-76 169.5,-76 169.5,-56 277,-56 277,-76"/>
<text text-anchor="middle" x="223.25" y="-62.5" font-family="Helvetica,sans-Serif" font-size="10.00">AI Behaviors/Game.h</text>
</a>
</g>
</g>
<!-- Node4&#45;&gt;Node6 -->
<g id="edge5_Node000004_Node000006" class="edge">
<title>Node4&#45;&gt;Node6</title>
<g id="a_edge5_Node000004_Node000006"><a xlink:title=" ">
<path fill="none" stroke="#63b8ff" d="M179.94,-104.13C190.65,-94.94 203.5,-83.93 212.4,-76.3"/>
<polygon fill="#63b8ff" stroke="#63b8ff" points="177.69,-101.44 172.37,-110.61 182.24,-106.76 177.69,-101.44"/>
</a>
</g>
</g>
<!-- Node7 -->
<g id="Node000007" class="node">
<title>Node7</title>
<g id="a_Node000007"><a xlink:href="_game_8cpp.html" target="_top" xlink:title=" ">
<polygon fill="white" stroke="#666666" points="215.25,-20 97.25,-20 97.25,0 215.25,0 215.25,-20"/>
<text text-anchor="middle" x="156.25" y="-6.5" font-family="Helvetica,sans-Serif" font-size="10.00">AI Behaviors/Game.cpp</text>
</a>
</g>
</g>
<!-- Node6&#45;&gt;Node7 -->
<g id="edge6_Node000006_Node000007" class="edge">
<title>Node6&#45;&gt;Node7</title>
<g id="a_edge6_Node000006_Node000007"><a xlink:title=" ">
<path fill="none" stroke="#63b8ff" d="M202.66,-48.4C191.2,-39.17 177.35,-28.01 167.79,-20.3"/>
<polygon fill="#63b8ff" stroke="#63b8ff" points="200.42,-51.09 210.4,-54.64 204.81,-45.64 200.42,-51.09"/>
</a>
</g>
</g>
<!-- Node8 -->
<g id="Node000008" class="node">
<title>Node8</title>
<g id="a_Node000008"><a xlink:href="main_8cpp.html" target="_top" xlink:title=" ">
<polygon fill="white" stroke="#666666" points="345.62,-20 232.88,-20 232.88,0 345.62,0 345.62,-20"/>
<text text-anchor="middle" x="289.25" y="-6.5" font-family="Helvetica,sans-Serif" font-size="10.00">AI Behaviors/main.cpp</text>
</a>
</g>
</g>
<!-- Node6&#45;&gt;Node8 -->
<g id="edge7_Node000006_Node000008" class="edge">
<title>Node6&#45;&gt;Node8</title>
<g id="a_edge7_Node000006_Node000008"><a xlink:title=" ">
<path fill="none" stroke="#63b8ff" d="M243.54,-48.4C254.83,-39.17 268.46,-28.01 277.89,-20.3"/>
<polygon fill="#63b8ff" stroke="#63b8ff" points="241.44,-45.59 235.92,-54.64 245.87,-51.01 241.44,-45.59"/>
</a>
</g>
</g>
</g>
</svg>
