<?xml version="1.0" encoding="UTF-8" standalone="no"?>
<!DOCTYPE svg PUBLIC "-//W3C//DTD SVG 1.1//EN"
 "http://www.w3.org/Graphics/SVG/1.1/DTD/svg11.dtd">
<!-- Generated by graphviz version 10.0.1 (20240210.2158)
 -->
<!-- Title: AI Behaviors/InfantryType.h Pages: 1 -->
<svg width="318pt" height="252pt"
 viewBox="0.00 0.00 318.25 252.00" xmlns="http://www.w3.org/2000/svg" xmlns:xlink="http://www.w3.org/1999/xlink">
<g id="graph0" class="graph" transform="scale(1 1) rotate(0) translate(4 248)">
<title>AI Behaviors/InfantryType.h</title>
<!-- Node1 -->
<g id="Node000001" class="node">
<title>Node1</title>
<g id="a_Node000001"><a xlink:title=" ">
<polygon fill="#999999" stroke="#666666" points="227,-244 93.25,-244 93.25,-224 227,-224 227,-244"/>
<text text-anchor="middle" x="160.12" y="-230.5" font-family="Helvetica,sans-Serif" font-size="10.00">AI Behaviors/InfantryType.h</text>
</a>
</g>
</g>
<!-- Node2 -->
<g id="Node000002" class="node">
<title>Node2</title>
<g id="a_Node000002"><a xlink:href="_g_u_i_8h.html" target="_top" xlink:title=" ">
<polygon fill="white" stroke="#666666" points="166,-132 68.25,-132 68.25,-112 166,-112 166,-132"/>
<text text-anchor="middle" x="117.12" y="-118.5" font-family="Helvetica,sans-Serif" font-size="10.00">AI Behaviors/GUI.h</text>
</a>
</g>
</g>
<!-- Node1&#45;&gt;Node2 -->
<g id="edge1_Node000001_Node000002" class="edge">
<title>Node1&#45;&gt;Node2</title>
<g id="a_edge1_Node000001_Node000002"><a xlink:title=" ">
<path fill="none" stroke="#63b8ff" d="M148.72,-213.71C144.4,-205.91 139.67,-196.69 136.12,-188 128.31,-168.84 122.26,-145.3 119.24,-132.46"/>
<polygon fill="#63b8ff" stroke="#63b8ff" points="145.63,-215.37 153.63,-222.31 151.7,-211.89 145.63,-215.37"/>
</a>
</g>
</g>
<!-- Node7 -->
<g id="Node000007" class="node">
<title>Node7</title>
<g id="a_Node000007"><a xlink:href="_side_bar_8h.html" target="_top" xlink:title=" ">
<polygon fill="white" stroke="#666666" points="261,-188 145.25,-188 145.25,-168 261,-168 261,-188"/>
<text text-anchor="middle" x="203.12" y="-174.5" font-family="Helvetica,sans-Serif" font-size="10.00">AI Behaviors/SideBar.h</text>
</a>
</g>
</g>
<!-- Node1&#45;&gt;Node7 -->
<g id="edge6_Node000001_Node000007" class="edge">
<title>Node1&#45;&gt;Node7</title>
<g id="a_edge6_Node000001_Node000007"><a xlink:title=" ">
<path fill="none" stroke="#63b8ff" d="M174.68,-214.72C181.75,-205.84 189.95,-195.55 195.72,-188.3"/>
<polygon fill="#63b8ff" stroke="#63b8ff" points="172.05,-212.41 168.56,-222.41 177.53,-216.77 172.05,-212.41"/>
</a>
</g>
</g>
<!-- Node3 -->
<g id="Node000003" class="node">
<title>Node3</title>
<g id="a_Node000003"><a xlink:href="_g_u_i_8cpp.html" target="_top" xlink:title=" ">
<polygon fill="white" stroke="#666666" points="108.25,-76 0,-76 0,-56 108.25,-56 108.25,-76"/>
<text text-anchor="middle" x="54.12" y="-62.5" font-family="Helvetica,sans-Serif" font-size="10.00">AI Behaviors/GUI.cpp</text>
</a>
</g>
</g>
<!-- Node2&#45;&gt;Node3 -->
<g id="edge2_Node000002_Node000003" class="edge">
<title>Node2&#45;&gt;Node3</title>
<g id="a_edge2_Node000002_Node000003"><a xlink:title=" ">
<path fill="none" stroke="#63b8ff" d="M97.44,-104.13C86.72,-94.94 73.88,-83.93 64.97,-76.3"/>
<polygon fill="#63b8ff" stroke="#63b8ff" points="95.13,-106.76 105,-110.61 99.69,-101.44 95.13,-106.76"/>
</a>
</g>
</g>
<!-- Node4 -->
<g id="Node000004" class="node">
<title>Node4</title>
<g id="a_Node000004"><a xlink:href="_game_8h.html" target="_top" xlink:title=" ">
<polygon fill="white" stroke="#666666" points="233.88,-76 126.38,-76 126.38,-56 233.88,-56 233.88,-76"/>
<text text-anchor="middle" x="180.12" y="-62.5" font-family="Helvetica,sans-Serif" font-size="10.00">AI Behaviors/Game.h</text>
</a>
</g>
</g>
<!-- Node2&#45;&gt;Node4 -->
<g id="edge3_Node000002_Node000004" class="edge">
<title>Node2&#45;&gt;Node4</title>
<g id="a_edge3_Node000002_Node000004"><a xlink:title=" ">
<path fill="none" stroke="#63b8ff" d="M136.81,-104.13C147.53,-94.94 160.37,-83.93 169.28,-76.3"/>
<polygon fill="#63b8ff" stroke="#63b8ff" points="134.56,-101.44 129.25,-110.61 139.12,-106.76 134.56,-101.44"/>
</a>
</g>
</g>
<!-- Node5 -->
<g id="Node000005" class="node">
<title>Node5</title>
<g id="a_Node000005"><a xlink:href="_game_8cpp.html" target="_top" xlink:title=" ">
<polygon fill="white" stroke="#666666" points="172.12,-20 54.12,-20 54.12,0 172.12,0 172.12,-20"/>
<text text-anchor="middle" x="113.12" y="-6.5" font-family="Helvetica,sans-Serif" font-size="10.00">AI Behaviors/Game.cpp</text>
</a>
</g>
</g>
<!-- Node4&#45;&gt;Node5 -->
<g id="edge4_Node000004_Node000005" class="edge">
<title>Node4&#45;&gt;Node5</title>
<g id="a_edge4_Node000004_Node000005"><a xlink:title=" ">
<path fill="none" stroke="#63b8ff" d="M159.53,-48.4C148.07,-39.17 134.23,-28.01 124.66,-20.3"/>
<polygon fill="#63b8ff" stroke="#63b8ff" points="157.29,-51.09 167.28,-54.64 161.69,-45.64 157.29,-51.09"/>
</a>
</g>
</g>
<!-- Node6 -->
<g id="Node000006" class="node">
<title>Node6</title>
<g id="a_Node000006"><a xlink:href="main_8cpp.html" target="_top" xlink:title=" ">
<polygon fill="white" stroke="#666666" points="302.5,-20 189.75,-20 189.75,0 302.5,0 302.5,-20"/>
<text text-anchor="middle" x="246.12" y="-6.5" font-family="Helvetica,sans-Serif" font-size="10.00">AI Behaviors/main.cpp</text>
</a>
</g>
</g>
<!-- Node4&#45;&gt;Node6 -->
<g id="edge5_Node000004_Node000006" class="edge">
<title>Node4&#45;&gt;Node6</title>
<g id="a_edge5_Node000004_Node000006"><a xlink:title=" ">
<path fill="none" stroke="#63b8ff" d="M200.41,-48.4C211.7,-39.17 225.34,-28.01 234.76,-20.3"/>
<polygon fill="#63b8ff" stroke="#63b8ff" points="198.32,-45.59 192.79,-54.64 202.75,-51.01 198.32,-45.59"/>
</a>
</g>
</g>
<!-- Node7&#45;&gt;Node2 -->
<g id="edge7_Node000007_Node000002" class="edge">
<title>Node7&#45;&gt;Node2</title>
<g id="a_edge7_Node000007_Node000002"><a xlink:title=" ">
<path fill="none" stroke="#63b8ff" d="M178.51,-161.54C163.58,-152.17 145,-140.51 132.22,-132.48"/>
<polygon fill="#63b8ff" stroke="#63b8ff" points="176.53,-164.44 186.86,-166.79 180.26,-158.51 176.53,-164.44"/>
</a>
</g>
</g>
<!-- Node8 -->
<g id="Node000008" class="node">
<title>Node8</title>
<g id="a_Node000008"><a xlink:href="_side_bar_8cpp.html" target="_top" xlink:title=" ">
<polygon fill="white" stroke="#666666" points="310.25,-132 184,-132 184,-112 310.25,-112 310.25,-132"/>
<text text-anchor="middle" x="247.12" y="-118.5" font-family="Helvetica,sans-Serif" font-size="10.00">AI Behaviors/SideBar.cpp</text>
</a>
</g>
</g>
<!-- Node7&#45;&gt;Node8 -->
<g id="edge8_Node000007_Node000008" class="edge">
<title>Node7&#45;&gt;Node8</title>
<g id="a_edge8_Node000007_Node000008"><a xlink:title=" ">
<path fill="none" stroke="#63b8ff" d="M218.02,-158.72C225.26,-149.84 233.64,-139.55 239.55,-132.3"/>
<polygon fill="#63b8ff" stroke="#63b8ff" points="215.35,-156.46 211.75,-166.42 220.78,-160.88 215.35,-156.46"/>
</a>
</g>
</g>
</g>
</svg>
