<?xml version="1.0" encoding="UTF-8" standalone="no"?>
<!DOCTYPE svg PUBLIC "-//W3C//DTD SVG 1.1//EN"
 "http://www.w3.org/Graphics/SVG/1.1/DTD/svg11.dtd">
<!-- Generated by graphviz version 10.0.1 (20240210.2158)
 -->
<!-- Title: AI Behaviors/LevelEditor.h Pages: 1 -->
<svg width="487pt" height="196pt"
 viewBox="0.00 0.00 486.50 196.00" xmlns="http://www.w3.org/2000/svg" xmlns:xlink="http://www.w3.org/1999/xlink">

<svg id="main" version="1.1" xmlns="http://www.w3.org/2000/svg" xmlns:xlink="http://www.w3.org/1999/xlink" xml:space="preserve" onload="init(evt)">
<style type="text/css"><![CDATA[
.node, .edge {opacity: 0.7;}
.node.selected, .edge.selected {opacity: 1;}
.edge:hover path { stroke: red; }
.edge:hover polygon { stroke: red; fill: red; }
]]></style>
<script type="application/ecmascript" xlink:href="svg.min.js"/>
<svg id="graph" class="graph">
<g id="graph0" class="graph" transform="scale(1 1) rotate(0) translate(4 192)">
<title>AI Behaviors/LevelEditor.h</title>
<!-- Node1 -->
<g id="Node000001" class="node">
<title>Node1</title>
<g id="a_Node000001"><a xlink:title=" ">
<polygon fill="#999999" stroke="#666666" points="268.38,-188 139.88,-188 139.88,-168 268.38,-168 268.38,-188"/>
<text text-anchor="middle" x="204.12" y="-174.5" font-family="Helvetica,sans-Serif" font-size="10.00">AI Behaviors/LevelEditor.h</text>
</a>
</g>
</g>
<!-- Node2 -->
<g id="Node000002" class="node">
<title>Node2</title>
<g id="a_Node000002"><a xlink:href="_g_u_i_8h.html" target="_top" xlink:title=" ">
<polygon fill="white" stroke="#666666" points="127,-132 29.25,-132 29.25,-112 127,-112 127,-132"/>
<text text-anchor="middle" x="78.12" y="-118.5" font-family="Helvetica,sans-Serif" font-size="10.00">AI Behaviors/GUI.h</text>
</a>
</g>
</g>
<!-- Node1&#45;&gt;Node2 -->
<g id="edge1_Node000001_Node000002" class="edge">
<title>Node1&#45;&gt;Node2</title>
<g id="a_edge1_Node000001_Node000002"><a xlink:title=" ">
<path fill="none" stroke="#63b8ff" d="M171.79,-163.14C149.35,-153.52 120.05,-140.97 100.24,-132.48"/>
<polygon fill="#63b8ff" stroke="#63b8ff" points="170.22,-166.28 180.79,-167 172.97,-159.84 170.22,-166.28"/>
</a>
</g>
</g>
<!-- Node4 -->
<g id="Node000004" class="node">
<title>Node4</title>
<g id="a_Node000004"><a xlink:href="_game_8h.html" target="_top" xlink:title=" ">
<polygon fill="white" stroke="#666666" points="233.88,-76 126.38,-76 126.38,-56 233.88,-56 233.88,-76"/>
<text text-anchor="middle" x="180.12" y="-62.5" font-family="Helvetica,sans-Serif" font-size="10.00">AI Behaviors/Game.h</text>
</a>
</g>
</g>
<!-- Node1&#45;&gt;Node4 -->
<g id="edge6_Node000001_Node000004" class="edge">
<title>Node1&#45;&gt;Node4</title>
<g id="a_edge6_Node000001_Node000004"><a xlink:title=" ">
<path fill="none" stroke="#63b8ff" d="M188.22,-158.5C182.62,-150.82 177,-141.5 174.12,-132 168.35,-112.91 173.35,-89.35 177.04,-76.48"/>
<polygon fill="#63b8ff" stroke="#63b8ff" points="185.46,-160.65 194.4,-166.33 190.95,-156.31 185.46,-160.65"/>
</a>
</g>
</g>
<!-- Node7 -->
<g id="Node000007" class="node">
<title>Node7</title>
<g id="a_Node000007"><a xlink:href="_level_editor_8cpp.html" target="_top" xlink:title=" ">
<polygon fill="white" stroke="#666666" points="322.62,-132 183.62,-132 183.62,-112 322.62,-112 322.62,-132"/>
<text text-anchor="middle" x="253.12" y="-118.5" font-family="Helvetica,sans-Serif" font-size="10.00">AI Behaviors/LevelEditor.cpp</text>
</a>
</g>
</g>
<!-- Node1&#45;&gt;Node7 -->
<g id="edge7_Node000001_Node000007" class="edge">
<title>Node1&#45;&gt;Node7</title>
<g id="a_edge7_Node000001_Node000007"><a xlink:title=" ">
<path fill="none" stroke="#63b8ff" d="M220.2,-159.29C228.37,-150.28 237.97,-139.7 244.69,-132.3"/>
<polygon fill="#63b8ff" stroke="#63b8ff" points="217.81,-156.72 213.68,-166.47 222.99,-161.42 217.81,-156.72"/>
</a>
</g>
</g>
<!-- Node8 -->
<g id="Node000008" class="node">
<title>Node8</title>
<g id="a_Node000008"><a xlink:href="_level_loader_8h.html" target="_top" xlink:title=" ">
<polygon fill="white" stroke="#666666" points="473.25,-132 341,-132 341,-112 473.25,-112 473.25,-132"/>
<text text-anchor="middle" x="407.12" y="-118.5" font-family="Helvetica,sans-Serif" font-size="10.00">AI Behaviors/LevelLoader.h</text>
</a>
</g>
</g>
<!-- Node1&#45;&gt;Node8 -->
<g id="edge8_Node000001_Node000008" class="edge">
<title>Node1&#45;&gt;Node8</title>
<g id="a_edge8_Node000001_Node000008"><a xlink:title=" ">
<path fill="none" stroke="#63b8ff" d="M250.41,-164.69C287.18,-154.91 337.84,-141.43 371.49,-132.48"/>
<polygon fill="#63b8ff" stroke="#63b8ff" points="249.71,-161.25 240.95,-167.2 251.51,-168.02 249.71,-161.25"/>
</a>
</g>
</g>
<!-- Node3 -->
<g id="Node000003" class="node">
<title>Node3</title>
<g id="a_Node000003"><a xlink:href="_g_u_i_8cpp.html" target="_top" xlink:title=" ">
<polygon fill="white" stroke="#666666" points="108.25,-76 0,-76 0,-56 108.25,-56 108.25,-76"/>
<text text-anchor="middle" x="54.12" y="-62.5" font-family="Helvetica,sans-Serif" font-size="10.00">AI Behaviors/GUI.cpp</text>
</a>
</g>
</g>
<!-- Node2&#45;&gt;Node3 -->
<g id="edge2_Node000002_Node000003" class="edge">
<title>Node2&#45;&gt;Node3</title>
<g id="a_edge2_Node000002_Node000003"><a xlink:title=" ">
<path fill="none" stroke="#63b8ff" d="M69.37,-101.29C65.57,-92.75 61.31,-83.16 58.26,-76.3"/>
<polygon fill="#63b8ff" stroke="#63b8ff" points="66.07,-102.49 73.33,-110.21 72.47,-99.65 66.07,-102.49"/>
</a>
</g>
</g>
<!-- Node2&#45;&gt;Node4 -->
<g id="edge3_Node000002_Node000004" class="edge">
<title>Node2&#45;&gt;Node4</title>
<g id="a_edge3_Node000002_Node000004"><a xlink:title=" ">
<path fill="none" stroke="#63b8ff" d="M106.05,-106.21C123.97,-96.73 146.69,-84.7 162.22,-76.48"/>
<polygon fill="#63b8ff" stroke="#63b8ff" points="104.43,-103.11 97.23,-110.89 107.71,-109.3 104.43,-103.11"/>
</a>
</g>
</g>
<!-- Node5 -->
<g id="Node000005" class="node">
<title>Node5</title>
<g id="a_Node000005"><a xlink:href="_game_8cpp.html" target="_top" xlink:title=" ">
<polygon fill="white" stroke="#666666" points="173.12,-20 55.12,-20 55.12,0 173.12,0 173.12,-20"/>
<text text-anchor="middle" x="114.12" y="-6.5" font-family="Helvetica,sans-Serif" font-size="10.00">AI Behaviors/Game.cpp</text>
</a>
</g>
</g>
<!-- Node4&#45;&gt;Node5 -->
<g id="edge4_Node000004_Node000005" class="edge">
<title>Node4&#45;&gt;Node5</title>
<g id="a_edge4_Node000004_Node000005"><a xlink:title=" ">
<path fill="none" stroke="#63b8ff" d="M159.84,-48.4C148.55,-39.17 134.91,-28.01 125.49,-20.3"/>
<polygon fill="#63b8ff" stroke="#63b8ff" points="157.5,-51.01 167.46,-54.64 161.93,-45.59 157.5,-51.01"/>
</a>
</g>
</g>
<!-- Node6 -->
<g id="Node000006" class="node">
<title>Node6</title>
<g id="a_Node000006"><a xlink:href="main_8cpp.html" target="_top" xlink:title=" ">
<polygon fill="white" stroke="#666666" points="303.5,-20 190.75,-20 190.75,0 303.5,0 303.5,-20"/>
<text text-anchor="middle" x="247.12" y="-6.5" font-family="Helvetica,sans-Serif" font-size="10.00">AI Behaviors/main.cpp</text>
</a>
</g>
</g>
<!-- Node4&#45;&gt;Node6 -->
<g id="edge5_Node000004_Node000006" class="edge">
<title>Node4&#45;&gt;Node6</title>
<g id="a_edge5_Node000004_Node000006"><a xlink:title=" ">
<path fill="none" stroke="#63b8ff" d="M200.72,-48.4C212.18,-39.17 226.02,-28.01 235.59,-20.3"/>
<polygon fill="#63b8ff" stroke="#63b8ff" points="198.56,-45.64 192.97,-54.64 202.96,-51.09 198.56,-45.64"/>
</a>
</g>
</g>
<!-- Node8&#45;&gt;Node4 -->
<g id="edge9_Node000008_Node000004" class="edge">
<title>Node8&#45;&gt;Node4</title>
<g id="a_edge9_Node000008_Node000004"><a xlink:title=" ">
<path fill="none" stroke="#63b8ff" d="M356.16,-108.88C314.95,-99.07 257.75,-85.47 219.88,-76.46"/>
<polygon fill="#63b8ff" stroke="#63b8ff" points="355.31,-112.27 365.85,-111.18 356.93,-105.46 355.31,-112.27"/>
</a>
</g>
</g>
<!-- Node9 -->
<g id="Node000009" class="node">
<title>Node9</title>
<g id="a_Node000009"><a xlink:href="_level_loader_8cpp.html" target="_top" xlink:title=" ">
<polygon fill="white" stroke="#666666" points="478.5,-76 335.75,-76 335.75,-56 478.5,-56 478.5,-76"/>
<text text-anchor="middle" x="407.12" y="-62.5" font-family="Helvetica,sans-Serif" font-size="10.00">AI Behaviors/LevelLoader.cpp</text>
</a>
</g>
</g>
<!-- Node8&#45;&gt;Node9 -->
<g id="edge10_Node000008_Node000009" class="edge">
<title>Node8&#45;&gt;Node9</title>
<g id="a_edge10_Node000008_Node000009"><a xlink:title=" ">
<path fill="none" stroke="#63b8ff" d="M407.12,-100.13C407.12,-91.9 407.12,-82.85 407.12,-76.3"/>
<polygon fill="#63b8ff" stroke="#63b8ff" points="403.63,-100.08 407.13,-110.08 410.63,-100.08 403.63,-100.08"/>
</a>
</g>
</g>
</g>
</svg>
</svg>

<style type='text/css'>
<![CDATA[
[data-mouse-over-selected='false'] { opacity: 0.7; }
[data-mouse-over-selected='true']  { opacity: 1.0; }
]]>
</style>
<script type="application/ecmascript"><![CDATA[
document.addEventListener('DOMContentLoaded', (event) => {
  highlightEdges();
  highlightAdjacentNodes();
});
]]></script>
</svg>
