<?xml version="1.0" encoding="UTF-8" standalone="no"?>
<!DOCTYPE svg PUBLIC "-//W3C//DTD SVG 1.1//EN"
 "http://www.w3.org/Graphics/SVG/1.1/DTD/svg11.dtd">
<!-- Generated by graphviz version 10.0.1 (20240210.2158)
 -->
<!-- Title: AI Behaviors/LevelEditor.h Pages: 1 -->
<svg width="409pt" height="140pt"
 viewBox="0.00 0.00 409.38 140.00" xmlns="http://www.w3.org/2000/svg" xmlns:xlink="http://www.w3.org/1999/xlink">

<svg id="main" version="1.1" xmlns="http://www.w3.org/2000/svg" xmlns:xlink="http://www.w3.org/1999/xlink" xml:space="preserve" onload="init(evt)">
<style type="text/css"><![CDATA[
.node, .edge {opacity: 0.7;}
.node.selected, .edge.selected {opacity: 1;}
.edge:hover path { stroke: red; }
.edge:hover polygon { stroke: red; fill: red; }
]]></style>
<script type="application/ecmascript" xlink:href="svg.min.js"/>
<svg id="graph" class="graph">
<g id="graph0" class="graph" transform="scale(1 1) rotate(0) translate(4 136)">
<title>AI Behaviors/LevelEditor.h</title>
<!-- Node1 -->
<g id="Node000001" class="node">
<title>Node1</title>
<g id="a_Node000001"><a xlink:title=" ">
<polygon fill="#999999" stroke="#666666" points="227.75,-132 99.25,-132 99.25,-112 227.75,-112 227.75,-132"/>
<text text-anchor="middle" x="163.5" y="-118.5" font-family="Helvetica,sans-Serif" font-size="10.00">AI Behaviors/LevelEditor.h</text>
</a>
</g>
</g>
<!-- Node2 -->
<g id="Node000002" class="node">
<title>Node2</title>
<g id="a_Node000002"><a xlink:title=" ">
<polygon fill="#e0e0e0" stroke="#999999" points="103,-20 0,-20 0,0 103,0 103,-20"/>
<text text-anchor="middle" x="51.5" y="-6.5" font-family="Helvetica,sans-Serif" font-size="10.00">SFML/Graphics.hpp</text>
</a>
</g>
</g>
<!-- Node1&#45;&gt;Node2 -->
<g id="edge1_Node000001_Node000002" class="edge">
<title>Node1&#45;&gt;Node2</title>
<g id="a_edge1_Node000001_Node000002"><a xlink:title=" ">
<path fill="none" stroke="#63b8ff" d="M98.82,-118.31C68.41,-113.4 34.69,-101.89 15.5,-76 4.18,-60.72 17.83,-41.49 31.45,-27.92"/>
<polygon fill="#63b8ff" stroke="#63b8ff" points="33.63,-30.67 38.59,-21.32 28.87,-25.53 33.63,-30.67"/>
</a>
</g>
</g>
<!-- Node3 -->
<g id="Node000003" class="node">
<title>Node3</title>
<g id="a_Node000003"><a xlink:title=" ">
<polygon fill="#e0e0e0" stroke="#999999" points="78.25,-76 24.75,-76 24.75,-56 78.25,-56 78.25,-76"/>
<text text-anchor="middle" x="51.5" y="-62.5" font-family="Helvetica,sans-Serif" font-size="10.00">iostream</text>
</a>
</g>
</g>
<!-- Node1&#45;&gt;Node3 -->
<g id="edge2_Node000001_Node000003" class="edge">
<title>Node1&#45;&gt;Node3</title>
<g id="a_edge2_Node000001_Node000003"><a xlink:title=" ">
<path fill="none" stroke="#63b8ff" d="M143.99,-111.59C126.75,-103.28 101.34,-91.03 81.51,-81.47"/>
<polygon fill="#63b8ff" stroke="#63b8ff" points="83.05,-78.33 72.52,-77.14 80.01,-84.63 83.05,-78.33"/>
</a>
</g>
</g>
<!-- Node4 -->
<g id="Node000004" class="node">
<title>Node4</title>
<g id="a_Node000004"><a xlink:title=" ">
<polygon fill="#e0e0e0" stroke="#999999" points="200.25,-20 158.75,-20 158.75,0 200.25,0 200.25,-20"/>
<text text-anchor="middle" x="179.5" y="-6.5" font-family="Helvetica,sans-Serif" font-size="10.00">vector</text>
</a>
</g>
</g>
<!-- Node1&#45;&gt;Node4 -->
<g id="edge3_Node000001_Node000004" class="edge">
<title>Node1&#45;&gt;Node4</title>
<g id="a_edge3_Node000001_Node000004"><a xlink:title=" ">
<path fill="none" stroke="#63b8ff" d="M164.86,-111.62C167.43,-94.01 173.01,-55.59 176.5,-31.65"/>
<polygon fill="#63b8ff" stroke="#63b8ff" points="179.95,-32.25 177.92,-21.85 173.02,-31.24 179.95,-32.25"/>
</a>
</g>
</g>
<!-- Node5 -->
<g id="Node000005" class="node">
<title>Node5</title>
<g id="a_Node000005"><a xlink:href="_tile_8h.html" target="_top" xlink:title=" ">
<polygon fill="white" stroke="#666666" points="135.12,-76 95.88,-76 95.88,-56 135.12,-56 135.12,-76"/>
<text text-anchor="middle" x="115.5" y="-62.5" font-family="Helvetica,sans-Serif" font-size="10.00">Tile.h</text>
</a>
</g>
</g>
<!-- Node1&#45;&gt;Node5 -->
<g id="edge4_Node000001_Node000005" class="edge">
<title>Node1&#45;&gt;Node5</title>
<g id="a_edge4_Node000001_Node000005"><a xlink:title=" ">
<path fill="none" stroke="#63b8ff" d="M155.14,-111.59C148.6,-104.24 139.32,-93.8 131.38,-84.87"/>
<polygon fill="#63b8ff" stroke="#63b8ff" points="134.03,-82.58 124.77,-77.43 128.8,-87.23 134.03,-82.58"/>
</a>
</g>
</g>
<!-- Node6 -->
<g id="Node000006" class="node">
<title>Node6</title>
<g id="a_Node000006"><a xlink:title=" ">
<polygon fill="#e0e0e0" stroke="#999999" points="239.62,-76 191.38,-76 191.38,-56 239.62,-56 239.62,-76"/>
<text text-anchor="middle" x="215.5" y="-62.5" font-family="Helvetica,sans-Serif" font-size="10.00">fstream</text>
</a>
</g>
</g>
<!-- Node1&#45;&gt;Node6 -->
<g id="edge6_Node000001_Node000006" class="edge">
<title>Node1&#45;&gt;Node6</title>
<g id="a_edge6_Node000001_Node000006"><a xlink:title=" ">
<path fill="none" stroke="#63b8ff" d="M172.56,-111.59C179.72,-104.16 189.91,-93.58 198.57,-84.58"/>
<polygon fill="#63b8ff" stroke="#63b8ff" points="201.08,-87.02 205.5,-77.39 196.04,-82.16 201.08,-87.02"/>
</a>
</g>
</g>
<!-- Node7 -->
<g id="Node000007" class="node">
<title>Node7</title>
<g id="a_Node000007"><a xlink:href="_global_8h.html" target="_top" xlink:title=" ">
<polygon fill="white" stroke="#666666" points="309.5,-76 257.5,-76 257.5,-56 309.5,-56 309.5,-76"/>
<text text-anchor="middle" x="283.5" y="-62.5" font-family="Helvetica,sans-Serif" font-size="10.00">Global.h</text>
</a>
</g>
</g>
<!-- Node1&#45;&gt;Node7 -->
<g id="edge7_Node000001_Node000007" class="edge">
<title>Node1&#45;&gt;Node7</title>
<g id="a_edge7_Node000001_Node000007"><a xlink:title=" ">
<path fill="none" stroke="#63b8ff" d="M184.4,-111.59C203.13,-103.17 230.86,-90.69 252.22,-81.07"/>
<polygon fill="#63b8ff" stroke="#63b8ff" points="253.37,-84.4 261.05,-77.1 250.5,-78.01 253.37,-84.4"/>
</a>
</g>
</g>
<!-- Node10 -->
<g id="Node000010" class="node">
<title>Node10</title>
<g id="a_Node000010"><a xlink:href="_game_state_8h.html" target="_top" xlink:title=" ">
<polygon fill="white" stroke="#666666" points="401.38,-76 327.62,-76 327.62,-56 401.38,-56 401.38,-76"/>
<text text-anchor="middle" x="364.5" y="-62.5" font-family="Helvetica,sans-Serif" font-size="10.00">GameState.h</text>
</a>
</g>
</g>
<!-- Node1&#45;&gt;Node10 -->
<g id="edge11_Node000001_Node000010" class="edge">
<title>Node1&#45;&gt;Node10</title>
<g id="a_edge11_Node000001_Node000010"><a xlink:title=" ">
<path fill="none" stroke="#63b8ff" d="M198.51,-111.59C231.74,-102.67 281.89,-89.19 318.37,-79.39"/>
<polygon fill="#63b8ff" stroke="#63b8ff" points="319,-82.85 327.75,-76.87 317.19,-76.09 319,-82.85"/>
</a>
</g>
</g>
<!-- Node5&#45;&gt;Node2 -->
<g id="edge5_Node000005_Node000002" class="edge">
<title>Node5&#45;&gt;Node2</title>
<g id="a_edge5_Node000005_Node000002"><a xlink:title=" ">
<path fill="none" stroke="#63b8ff" d="M104.35,-55.59C95.17,-47.85 81.95,-36.69 71.02,-27.47"/>
<polygon fill="#63b8ff" stroke="#63b8ff" points="73.58,-25.05 63.68,-21.27 69.06,-30.4 73.58,-25.05"/>
</a>
</g>
</g>
<!-- Node7&#45;&gt;Node4 -->
<g id="edge8_Node000007_Node000004" class="edge">
<title>Node7&#45;&gt;Node4</title>
<g id="a_edge8_Node000007_Node000004"><a xlink:title=" ">
<path fill="none" stroke="#63b8ff" d="M265.38,-55.59C249.53,-47.36 226.22,-35.26 207.88,-25.74"/>
<polygon fill="#63b8ff" stroke="#63b8ff" points="209.59,-22.68 199.1,-21.18 206.36,-28.89 209.59,-22.68"/>
</a>
</g>
</g>
<!-- Node8 -->
<g id="Node000008" class="node">
<title>Node8</title>
<g id="a_Node000008"><a xlink:title=" ">
<polygon fill="#e0e0e0" stroke="#999999" points="272.38,-20 234.62,-20 234.62,0 272.38,0 272.38,-20"/>
<text text-anchor="middle" x="253.5" y="-6.5" font-family="Helvetica,sans-Serif" font-size="10.00">array</text>
</a>
</g>
</g>
<!-- Node7&#45;&gt;Node8 -->
<g id="edge9_Node000007_Node000008" class="edge">
<title>Node7&#45;&gt;Node8</title>
<g id="a_edge9_Node000007_Node000008"><a xlink:title=" ">
<path fill="none" stroke="#63b8ff" d="M278.27,-55.59C274.4,-48.63 268.99,-38.89 264.22,-30.29"/>
<polygon fill="#63b8ff" stroke="#63b8ff" points="267.32,-28.66 259.4,-21.62 261.2,-32.06 267.32,-28.66"/>
</a>
</g>
</g>
<!-- Node9 -->
<g id="Node000009" class="node">
<title>Node9</title>
<g id="a_Node000009"><a xlink:title=" ">
<polygon fill="#e0e0e0" stroke="#999999" points="336.12,-20 290.88,-20 290.88,0 336.12,0 336.12,-20"/>
<text text-anchor="middle" x="313.5" y="-6.5" font-family="Helvetica,sans-Serif" font-size="10.00">chrono</text>
</a>
</g>
</g>
<!-- Node7&#45;&gt;Node9 -->
<g id="edge10_Node000007_Node000009" class="edge">
<title>Node7&#45;&gt;Node9</title>
<g id="a_edge10_Node000007_Node000009"><a xlink:title=" ">
<path fill="none" stroke="#63b8ff" d="M288.73,-55.59C292.6,-48.63 298.01,-38.89 302.78,-30.29"/>
<polygon fill="#63b8ff" stroke="#63b8ff" points="305.8,-32.06 307.6,-21.62 299.68,-28.66 305.8,-32.06"/>
</a>
</g>
</g>
</g>
</svg>
</svg>

<style type='text/css'>
<![CDATA[
[data-mouse-over-selected='false'] { opacity: 0.7; }
[data-mouse-over-selected='true']  { opacity: 1.0; }
]]>
</style>
<script type="application/ecmascript"><![CDATA[
document.addEventListener('DOMContentLoaded', (event) => {
  highlightEdges();
  highlightAdjacentNodes();
});
]]></script>
</svg>
