<?xml version="1.0" encoding="UTF-8" standalone="no"?>
<!DOCTYPE svg PUBLIC "-//W3C//DTD SVG 1.1//EN"
 "http://www.w3.org/Graphics/SVG/1.1/DTD/svg11.dtd">
<!-- Generated by graphviz version 10.0.1 (20240210.2158)
 -->
<!-- Title: AI Behaviors/LevelLoader.cpp Pages: 1 -->
<svg width="463pt" height="252pt"
 viewBox="0.00 0.00 462.67 252.00" xmlns="http://www.w3.org/2000/svg" xmlns:xlink="http://www.w3.org/1999/xlink">

<svg id="main" version="1.1" xmlns="http://www.w3.org/2000/svg" xmlns:xlink="http://www.w3.org/1999/xlink" xml:space="preserve" onload="init(evt)">
<style type="text/css"><![CDATA[
.node, .edge {opacity: 0.7;}
.node.selected, .edge.selected {opacity: 1;}
.edge:hover path { stroke: red; }
.edge:hover polygon { stroke: red; fill: red; }
]]></style>
<script type="application/ecmascript" xlink:href="svg.min.js"/>
<svg id="graph" class="graph">
<g id="graph0" class="graph" transform="scale(1 1) rotate(0) translate(4 248)">
<title>AI Behaviors/LevelLoader.cpp</title>
<!-- Node1 -->
<g id="Node000001" class="node">
<title>Node1</title>
<g id="a_Node000001"><a xlink:title=" ">
<polygon fill="#999999" stroke="#666666" points="293.42,-244 150.67,-244 150.67,-224 293.42,-224 293.42,-244"/>
<text text-anchor="middle" x="222.04" y="-230.5" font-family="Helvetica,sans-Serif" font-size="10.00">AI Behaviors/LevelLoader.cpp</text>
</a>
</g>
</g>
<!-- Node2 -->
<g id="Node000002" class="node">
<title>Node2</title>
<g id="a_Node000002"><a xlink:href="_level_loader_8h.html" target="_top" xlink:title=" ">
<polygon fill="white" stroke="#666666" points="259.67,-188 184.42,-188 184.42,-168 259.67,-168 259.67,-188"/>
<text text-anchor="middle" x="222.04" y="-174.5" font-family="Helvetica,sans-Serif" font-size="10.00">LevelLoader.h</text>
</a>
</g>
</g>
<!-- Node1&#45;&gt;Node2 -->
<g id="edge1_Node000001_Node000002" class="edge">
<title>Node1&#45;&gt;Node2</title>
<g id="a_edge1_Node000001_Node000002"><a xlink:title=" ">
<path fill="none" stroke="#63b8ff" d="M222.04,-223.59C222.04,-217.01 222.04,-207.96 222.04,-199.73"/>
<polygon fill="#63b8ff" stroke="#63b8ff" points="225.54,-199.81 222.04,-189.81 218.54,-199.81 225.54,-199.81"/>
</a>
</g>
</g>
<!-- Node3 -->
<g id="Node000003" class="node">
<title>Node3</title>
<g id="a_Node000003"><a xlink:title=" ">
<polygon fill="#e0e0e0" stroke="#999999" points="66.79,-76 13.29,-76 13.29,-56 66.79,-56 66.79,-76"/>
<text text-anchor="middle" x="40.04" y="-62.5" font-family="Helvetica,sans-Serif" font-size="10.00">iostream</text>
</a>
</g>
</g>
<!-- Node2&#45;&gt;Node3 -->
<g id="edge2_Node000002_Node000003" class="edge">
<title>Node2&#45;&gt;Node3</title>
<g id="a_edge2_Node000002_Node000003"><a xlink:title=" ">
<path fill="none" stroke="#63b8ff" d="M205.75,-167.64C190.11,-158.62 165.87,-144.53 145.04,-132 117.26,-115.28 85.65,-95.63 64.44,-82.35"/>
<polygon fill="#63b8ff" stroke="#63b8ff" points="66.54,-79.53 56.2,-77.18 62.82,-85.46 66.54,-79.53"/>
</a>
</g>
</g>
<!-- Node4 -->
<g id="Node000004" class="node">
<title>Node4</title>
<g id="a_Node000004"><a xlink:title=" ">
<polygon fill="#e0e0e0" stroke="#999999" points="155.54,-20 52.54,-20 52.54,0 155.54,0 155.54,-20"/>
<text text-anchor="middle" x="104.04" y="-6.5" font-family="Helvetica,sans-Serif" font-size="10.00">SFML/Graphics.hpp</text>
</a>
</g>
</g>
<!-- Node2&#45;&gt;Node4 -->
<g id="edge3_Node000002_Node000004" class="edge">
<title>Node2&#45;&gt;Node4</title>
<g id="a_edge3_Node000002_Node000004"><a xlink:title=" ">
<path fill="none" stroke="#63b8ff" d="M184.33,-172.3C132.79,-163.58 42.37,-139.59 4.04,-76 -10.83,-51.33 19.99,-34.28 51.23,-23.85"/>
<polygon fill="#63b8ff" stroke="#63b8ff" points="52.27,-27.19 60.78,-20.89 50.19,-20.51 52.27,-27.19"/>
</a>
</g>
</g>
<!-- Node5 -->
<g id="Node000005" class="node">
<title>Node5</title>
<g id="a_Node000005"><a xlink:href="_game_state_8h.html" target="_top" xlink:title=" ">
<polygon fill="white" stroke="#666666" points="357.92,-76 284.17,-76 284.17,-56 357.92,-56 357.92,-76"/>
<text text-anchor="middle" x="321.04" y="-62.5" font-family="Helvetica,sans-Serif" font-size="10.00">GameState.h</text>
</a>
</g>
</g>
<!-- Node2&#45;&gt;Node5 -->
<g id="edge4_Node000002_Node000005" class="edge">
<title>Node2&#45;&gt;Node5</title>
<g id="a_edge4_Node000002_Node000005"><a xlink:title=" ">
<path fill="none" stroke="#63b8ff" d="M229.87,-167.61C240.56,-154.86 260.42,-131.41 278.04,-112 286.47,-102.71 296.09,-92.6 304.09,-84.32"/>
<polygon fill="#63b8ff" stroke="#63b8ff" points="306.49,-86.87 310.95,-77.26 301.47,-81.99 306.49,-86.87"/>
</a>
</g>
</g>
<!-- Node6 -->
<g id="Node000006" class="node">
<title>Node6</title>
<g id="a_Node000006"><a xlink:href="_global_8h.html" target="_top" xlink:title=" ">
<polygon fill="white" stroke="#666666" points="428.04,-76 376.04,-76 376.04,-56 428.04,-56 428.04,-76"/>
<text text-anchor="middle" x="402.04" y="-62.5" font-family="Helvetica,sans-Serif" font-size="10.00">Global.h</text>
</a>
</g>
</g>
<!-- Node2&#45;&gt;Node6 -->
<g id="edge5_Node000002_Node000006" class="edge">
<title>Node2&#45;&gt;Node6</title>
<g id="a_edge5_Node000002_Node000006"><a xlink:title=" ">
<path fill="none" stroke="#63b8ff" d="M233.4,-167.72C249.91,-154.46 281.75,-129.76 311.04,-112 330.01,-100.5 352.33,-89.43 370.11,-81.15"/>
<polygon fill="#63b8ff" stroke="#63b8ff" points="371.52,-84.35 379.15,-77 368.61,-77.99 371.52,-84.35"/>
</a>
</g>
</g>
<!-- Node10 -->
<g id="Node000010" class="node">
<title>Node10</title>
<g id="a_Node000010"><a xlink:href="_level_editor_8h.html" target="_top" xlink:title=" ">
<polygon fill="white" stroke="#666666" points="225.79,-132 154.29,-132 154.29,-112 225.79,-112 225.79,-132"/>
<text text-anchor="middle" x="190.04" y="-118.5" font-family="Helvetica,sans-Serif" font-size="10.00">LevelEditor.h</text>
</a>
</g>
</g>
<!-- Node2&#45;&gt;Node10 -->
<g id="edge9_Node000002_Node000010" class="edge">
<title>Node2&#45;&gt;Node10</title>
<g id="a_edge9_Node000002_Node000010"><a xlink:title=" ">
<path fill="none" stroke="#63b8ff" d="M216.47,-167.59C212.29,-160.55 206.44,-150.67 201.3,-142"/>
<polygon fill="#63b8ff" stroke="#63b8ff" points="204.43,-140.42 196.32,-133.6 198.41,-143.99 204.43,-140.42"/>
</a>
</g>
</g>
<!-- Node13 -->
<g id="Node000013" class="node">
<title>Node13</title>
<g id="a_Node000013"><a xlink:title=" ">
<polygon fill="#e0e0e0" stroke="#999999" points="380.17,-132 319.92,-132 319.92,-112 380.17,-112 380.17,-132"/>
<text text-anchor="middle" x="350.04" y="-118.5" font-family="Helvetica,sans-Serif" font-size="10.00">filesystem</text>
</a>
</g>
</g>
<!-- Node2&#45;&gt;Node13 -->
<g id="edge18_Node000002_Node000013" class="edge">
<title>Node2&#45;&gt;Node13</title>
<g id="a_edge18_Node000002_Node000013"><a xlink:title=" ">
<path fill="none" stroke="#63b8ff" d="M244.34,-167.59C264.4,-159.13 294.16,-146.58 316.99,-136.94"/>
<polygon fill="#63b8ff" stroke="#63b8ff" points="318.32,-140.18 326.18,-133.07 315.6,-133.73 318.32,-140.18"/>
</a>
</g>
</g>
<!-- Node7 -->
<g id="Node000007" class="node">
<title>Node7</title>
<g id="a_Node000007"><a xlink:title=" ">
<polygon fill="#e0e0e0" stroke="#999999" points="289.79,-20 248.29,-20 248.29,0 289.79,0 289.79,-20"/>
<text text-anchor="middle" x="269.04" y="-6.5" font-family="Helvetica,sans-Serif" font-size="10.00">vector</text>
</a>
</g>
</g>
<!-- Node6&#45;&gt;Node7 -->
<g id="edge6_Node000006_Node000007" class="edge">
<title>Node6&#45;&gt;Node7</title>
<g id="a_edge6_Node000006_Node000007"><a xlink:title=" ">
<path fill="none" stroke="#63b8ff" d="M378.87,-55.59C357.19,-46.79 324.61,-33.56 300.57,-23.8"/>
<polygon fill="#63b8ff" stroke="#63b8ff" points="302.17,-20.67 291.59,-20.16 299.54,-27.16 302.17,-20.67"/>
</a>
</g>
</g>
<!-- Node8 -->
<g id="Node000008" class="node">
<title>Node8</title>
<g id="a_Node000008"><a xlink:title=" ">
<polygon fill="#e0e0e0" stroke="#999999" points="390.92,-20 353.17,-20 353.17,0 390.92,0 390.92,-20"/>
<text text-anchor="middle" x="372.04" y="-6.5" font-family="Helvetica,sans-Serif" font-size="10.00">array</text>
</a>
</g>
</g>
<!-- Node6&#45;&gt;Node8 -->
<g id="edge7_Node000006_Node000008" class="edge">
<title>Node6&#45;&gt;Node8</title>
<g id="a_edge7_Node000006_Node000008"><a xlink:title=" ">
<path fill="none" stroke="#63b8ff" d="M396.82,-55.59C392.94,-48.63 387.53,-38.89 382.76,-30.29"/>
<polygon fill="#63b8ff" stroke="#63b8ff" points="385.86,-28.66 377.94,-21.62 379.74,-32.06 385.86,-28.66"/>
</a>
</g>
</g>
<!-- Node9 -->
<g id="Node000009" class="node">
<title>Node9</title>
<g id="a_Node000009"><a xlink:title=" ">
<polygon fill="#e0e0e0" stroke="#999999" points="454.67,-20 409.42,-20 409.42,0 454.67,0 454.67,-20"/>
<text text-anchor="middle" x="432.04" y="-6.5" font-family="Helvetica,sans-Serif" font-size="10.00">chrono</text>
</a>
</g>
</g>
<!-- Node6&#45;&gt;Node9 -->
<g id="edge8_Node000006_Node000009" class="edge">
<title>Node6&#45;&gt;Node9</title>
<g id="a_edge8_Node000006_Node000009"><a xlink:title=" ">
<path fill="none" stroke="#63b8ff" d="M407.27,-55.59C411.14,-48.63 416.55,-38.89 421.33,-30.29"/>
<polygon fill="#63b8ff" stroke="#63b8ff" points="424.34,-32.06 426.14,-21.62 418.22,-28.66 424.34,-32.06"/>
</a>
</g>
</g>
<!-- Node10&#45;&gt;Node3 -->
<g id="edge11_Node000010_Node000003" class="edge">
<title>Node10&#45;&gt;Node3</title>
<g id="a_edge11_Node000010_Node000003"><a xlink:title=" ">
<path fill="none" stroke="#63b8ff" d="M163.91,-111.59C139.86,-102.94 103.94,-90 76.96,-80.29"/>
<polygon fill="#63b8ff" stroke="#63b8ff" points="78.39,-77.09 67.8,-76.99 76.02,-83.67 78.39,-77.09"/>
</a>
</g>
</g>
<!-- Node10&#45;&gt;Node4 -->
<g id="edge10_Node000010_Node000004" class="edge">
<title>Node10&#45;&gt;Node4</title>
<g id="a_edge10_Node000010_Node000004"><a xlink:title=" ">
<path fill="none" stroke="#63b8ff" d="M182.71,-111.62C168.49,-93.44 136.95,-53.09 118.41,-29.38"/>
<polygon fill="#63b8ff" stroke="#63b8ff" points="121.2,-27.27 112.29,-21.55 115.69,-31.58 121.2,-27.27"/>
</a>
</g>
</g>
<!-- Node10&#45;&gt;Node5 -->
<g id="edge17_Node000010_Node000005" class="edge">
<title>Node10&#45;&gt;Node5</title>
<g id="a_edge17_Node000010_Node000005"><a xlink:title=" ">
<path fill="none" stroke="#63b8ff" d="M212.86,-111.59C233.49,-103.09 264.13,-90.46 287.54,-80.81"/>
<polygon fill="#63b8ff" stroke="#63b8ff" points="288.73,-84.1 296.65,-77.06 286.07,-77.63 288.73,-84.1"/>
</a>
</g>
</g>
<!-- Node10&#45;&gt;Node6 -->
<g id="edge16_Node000010_Node000006" class="edge">
<title>Node10&#45;&gt;Node6</title>
<g id="a_edge16_Node000010_Node000006"><a xlink:title=" ">
<path fill="none" stroke="#63b8ff" d="M225.98,-111.89C259.44,-103.41 311.01,-90.31 364.58,-76.63"/>
<polygon fill="#63b8ff" stroke="#63b8ff" points="365.38,-80.03 374.2,-74.16 363.65,-73.25 365.38,-80.03"/>
</a>
</g>
</g>
<!-- Node10&#45;&gt;Node7 -->
<g id="edge12_Node000010_Node000007" class="edge">
<title>Node10&#45;&gt;Node7</title>
<g id="a_edge12_Node000010_Node000007"><a xlink:title=" ">
<path fill="none" stroke="#63b8ff" d="M190.88,-111.81C192.49,-98.46 196.99,-73.4 209.04,-56 217.3,-44.08 229.73,-34.01 241.14,-26.44"/>
<polygon fill="#63b8ff" stroke="#63b8ff" points="242.84,-29.51 249.48,-21.25 239.14,-23.56 242.84,-29.51"/>
</a>
</g>
</g>
<!-- Node11 -->
<g id="Node000011" class="node">
<title>Node11</title>
<g id="a_Node000011"><a xlink:href="_tile_8h.html" target="_top" xlink:title=" ">
<polygon fill="white" stroke="#666666" points="123.67,-76 84.42,-76 84.42,-56 123.67,-56 123.67,-76"/>
<text text-anchor="middle" x="104.04" y="-62.5" font-family="Helvetica,sans-Serif" font-size="10.00">Tile.h</text>
</a>
</g>
</g>
<!-- Node10&#45;&gt;Node11 -->
<g id="edge13_Node000010_Node000011" class="edge">
<title>Node10&#45;&gt;Node11</title>
<g id="a_edge13_Node000010_Node000011"><a xlink:title=" ">
<path fill="none" stroke="#63b8ff" d="M175.06,-111.59C162.31,-103.59 143.75,-91.93 128.8,-82.54"/>
<polygon fill="#63b8ff" stroke="#63b8ff" points="130.75,-79.64 120.42,-77.28 127.03,-85.57 130.75,-79.64"/>
</a>
</g>
</g>
<!-- Node12 -->
<g id="Node000012" class="node">
<title>Node12</title>
<g id="a_Node000012"><a xlink:title=" ">
<polygon fill="#e0e0e0" stroke="#999999" points="266.17,-76 217.92,-76 217.92,-56 266.17,-56 266.17,-76"/>
<text text-anchor="middle" x="242.04" y="-62.5" font-family="Helvetica,sans-Serif" font-size="10.00">fstream</text>
</a>
</g>
</g>
<!-- Node10&#45;&gt;Node12 -->
<g id="edge15_Node000010_Node000012" class="edge">
<title>Node10&#45;&gt;Node12</title>
<g id="a_edge15_Node000010_Node000012"><a xlink:title=" ">
<path fill="none" stroke="#63b8ff" d="M199.1,-111.59C206.26,-104.16 216.45,-93.58 225.11,-84.58"/>
<polygon fill="#63b8ff" stroke="#63b8ff" points="227.62,-87.02 232.04,-77.39 222.58,-82.16 227.62,-87.02"/>
</a>
</g>
</g>
<!-- Node11&#45;&gt;Node4 -->
<g id="edge14_Node000011_Node000004" class="edge">
<title>Node11&#45;&gt;Node4</title>
<g id="a_edge14_Node000011_Node000004"><a xlink:title=" ">
<path fill="none" stroke="#63b8ff" d="M104.04,-55.59C104.04,-49.01 104.04,-39.96 104.04,-31.73"/>
<polygon fill="#63b8ff" stroke="#63b8ff" points="107.54,-31.81 104.04,-21.81 100.54,-31.81 107.54,-31.81"/>
</a>
</g>
</g>
</g>
</svg>
</svg>

<style type='text/css'>
<![CDATA[
[data-mouse-over-selected='false'] { opacity: 0.7; }
[data-mouse-over-selected='true']  { opacity: 1.0; }
]]>
</style>
<script type="application/ecmascript"><![CDATA[
document.addEventListener('DOMContentLoaded', (event) => {
  highlightEdges();
  highlightAdjacentNodes();
});
]]></script>
</svg>
