<?xml version="1.0" encoding="UTF-8" standalone="no"?>
<!DOCTYPE svg PUBLIC "-//W3C//DTD SVG 1.1//EN"
 "http://www.w3.org/Graphics/SVG/1.1/DTD/svg11.dtd">
<!-- Generated by graphviz version 10.0.1 (20240210.2158)
 -->
<!-- Title: AI Behaviors/MainMenu.cpp Pages: 1 -->
<svg width="519pt" height="196pt"
 viewBox="0.00 0.00 518.88 196.00" xmlns="http://www.w3.org/2000/svg" xmlns:xlink="http://www.w3.org/1999/xlink">
<g id="graph0" class="graph" transform="scale(1 1) rotate(0) translate(4 192)">
<title>AI Behaviors/MainMenu.cpp</title>
<!-- Node1 -->
<g id="Node000001" class="node">
<title>Node1</title>
<g id="a_Node000001"><a xlink:title=" ">
<polygon fill="#999999" stroke="#666666" points="287.12,-188 150.38,-188 150.38,-168 287.12,-168 287.12,-188"/>
<text text-anchor="middle" x="218.75" y="-174.5" font-family="Helvetica,sans-Serif" font-size="10.00">AI Behaviors/MainMenu.cpp</text>
</a>
</g>
</g>
<!-- Node2 -->
<g id="Node000002" class="node">
<title>Node2</title>
<g id="a_Node000002"><a xlink:href="_main_menu_8h.html" target="_top" xlink:title=" ">
<polygon fill="white" stroke="#666666" points="253.38,-132 184.12,-132 184.12,-112 253.38,-112 253.38,-132"/>
<text text-anchor="middle" x="218.75" y="-118.5" font-family="Helvetica,sans-Serif" font-size="10.00">MainMenu.h</text>
</a>
</g>
</g>
<!-- Node1&#45;&gt;Node2 -->
<g id="edge1_Node000001_Node000002" class="edge">
<title>Node1&#45;&gt;Node2</title>
<g id="a_edge1_Node000001_Node000002"><a xlink:title=" ">
<path fill="none" stroke="#63b8ff" d="M218.75,-167.59C218.75,-161.01 218.75,-151.96 218.75,-143.73"/>
<polygon fill="#63b8ff" stroke="#63b8ff" points="222.25,-143.81 218.75,-133.81 215.25,-143.81 222.25,-143.81"/>
</a>
</g>
</g>
<!-- Node3 -->
<g id="Node000003" class="node">
<title>Node3</title>
<g id="a_Node000003"><a xlink:title=" ">
<polygon fill="#e0e0e0" stroke="#999999" points="53.5,-76 0,-76 0,-56 53.5,-56 53.5,-76"/>
<text text-anchor="middle" x="26.75" y="-62.5" font-family="Helvetica,sans-Serif" font-size="10.00">iostream</text>
</a>
</g>
</g>
<!-- Node2&#45;&gt;Node3 -->
<g id="edge2_Node000002_Node000003" class="edge">
<title>Node2&#45;&gt;Node3</title>
<g id="a_edge2_Node000002_Node000003"><a xlink:title=" ">
<path fill="none" stroke="#63b8ff" d="M185.31,-111.59C151.67,-102.13 99.87,-87.57 64.71,-77.68"/>
<polygon fill="#63b8ff" stroke="#63b8ff" points="65.95,-74.39 55.38,-75.05 64.06,-81.13 65.95,-74.39"/>
</a>
</g>
</g>
<!-- Node4 -->
<g id="Node000004" class="node">
<title>Node4</title>
<g id="a_Node000004"><a xlink:title=" ">
<polygon fill="#e0e0e0" stroke="#999999" points="174.25,-76 71.25,-76 71.25,-56 174.25,-56 174.25,-76"/>
<text text-anchor="middle" x="122.75" y="-62.5" font-family="Helvetica,sans-Serif" font-size="10.00">SFML/Graphics.hpp</text>
</a>
</g>
</g>
<!-- Node2&#45;&gt;Node4 -->
<g id="edge3_Node000002_Node000004" class="edge">
<title>Node2&#45;&gt;Node4</title>
<g id="a_edge3_Node000002_Node000004"><a xlink:title=" ">
<path fill="none" stroke="#63b8ff" d="M202.03,-111.59C187.53,-103.44 166.28,-91.48 149.43,-82"/>
<polygon fill="#63b8ff" stroke="#63b8ff" points="151.35,-79.07 140.92,-77.22 147.92,-85.17 151.35,-79.07"/>
</a>
</g>
</g>
<!-- Node5 -->
<g id="Node000005" class="node">
<title>Node5</title>
<g id="a_Node000005"><a xlink:href="_global_8h.html" target="_top" xlink:title=" ">
<polygon fill="white" stroke="#666666" points="244.75,-76 192.75,-76 192.75,-56 244.75,-56 244.75,-76"/>
<text text-anchor="middle" x="218.75" y="-62.5" font-family="Helvetica,sans-Serif" font-size="10.00">Global.h</text>
</a>
</g>
</g>
<!-- Node2&#45;&gt;Node5 -->
<g id="edge4_Node000002_Node000005" class="edge">
<title>Node2&#45;&gt;Node5</title>
<g id="a_edge4_Node000002_Node000005"><a xlink:title=" ">
<path fill="none" stroke="#63b8ff" d="M218.75,-111.59C218.75,-105.01 218.75,-95.96 218.75,-87.73"/>
<polygon fill="#63b8ff" stroke="#63b8ff" points="222.25,-87.81 218.75,-77.81 215.25,-87.81 222.25,-87.81"/>
</a>
</g>
</g>
<!-- Node9 -->
<g id="Node000009" class="node">
<title>Node9</title>
<g id="a_Node000009"><a xlink:href="_game_state_8h.html" target="_top" xlink:title=" ">
<polygon fill="white" stroke="#666666" points="336.62,-76 262.88,-76 262.88,-56 336.62,-56 336.62,-76"/>
<text text-anchor="middle" x="299.75" y="-62.5" font-family="Helvetica,sans-Serif" font-size="10.00">GameState.h</text>
</a>
</g>
</g>
<!-- Node2&#45;&gt;Node9 -->
<g id="edge8_Node000002_Node000009" class="edge">
<title>Node2&#45;&gt;Node9</title>
<g id="a_edge8_Node000002_Node000009"><a xlink:title=" ">
<path fill="none" stroke="#63b8ff" d="M232.86,-111.59C244.75,-103.67 262.02,-92.16 276.03,-82.82"/>
<polygon fill="#63b8ff" stroke="#63b8ff" points="277.89,-85.78 284.27,-77.32 274.01,-79.95 277.89,-85.78"/>
</a>
</g>
</g>
<!-- Node10 -->
<g id="Node000010" class="node">
<title>Node10</title>
<g id="a_Node000010"><a xlink:href="_sound_manager_8h.html" target="_top" xlink:title=" ">
<polygon fill="white" stroke="#666666" points="466.5,-76 377,-76 377,-56 466.5,-56 466.5,-76"/>
<text text-anchor="middle" x="421.75" y="-62.5" font-family="Helvetica,sans-Serif" font-size="10.00">SoundManager.h</text>
</a>
</g>
</g>
<!-- Node2&#45;&gt;Node10 -->
<g id="edge9_Node000002_Node000010" class="edge">
<title>Node2&#45;&gt;Node10</title>
<g id="a_edge9_Node000002_Node000010"><a xlink:title=" ">
<path fill="none" stroke="#63b8ff" d="M253.65,-111.72C287.24,-102.78 338.26,-89.21 375.28,-79.36"/>
<polygon fill="#63b8ff" stroke="#63b8ff" points="376.06,-82.78 384.82,-76.82 374.26,-76.01 376.06,-82.78"/>
</a>
</g>
</g>
<!-- Node6 -->
<g id="Node000006" class="node">
<title>Node6</title>
<g id="a_Node000006"><a xlink:title=" ">
<polygon fill="#e0e0e0" stroke="#999999" points="170.5,-20 129,-20 129,0 170.5,0 170.5,-20"/>
<text text-anchor="middle" x="149.75" y="-6.5" font-family="Helvetica,sans-Serif" font-size="10.00">vector</text>
</a>
</g>
</g>
<!-- Node5&#45;&gt;Node6 -->
<g id="edge5_Node000005_Node000006" class="edge">
<title>Node5&#45;&gt;Node6</title>
<g id="a_edge5_Node000005_Node000006"><a xlink:title=" ">
<path fill="none" stroke="#63b8ff" d="M206.73,-55.59C196.74,-47.77 182.29,-36.46 170.44,-27.19"/>
<polygon fill="#63b8ff" stroke="#63b8ff" points="172.86,-24.64 162.82,-21.23 168.54,-30.15 172.86,-24.64"/>
</a>
</g>
</g>
<!-- Node7 -->
<g id="Node000007" class="node">
<title>Node7</title>
<g id="a_Node000007"><a xlink:title=" ">
<polygon fill="#e0e0e0" stroke="#999999" points="226.62,-20 188.88,-20 188.88,0 226.62,0 226.62,-20"/>
<text text-anchor="middle" x="207.75" y="-6.5" font-family="Helvetica,sans-Serif" font-size="10.00">array</text>
</a>
</g>
</g>
<!-- Node5&#45;&gt;Node7 -->
<g id="edge6_Node000005_Node000007" class="edge">
<title>Node5&#45;&gt;Node7</title>
<g id="a_edge6_Node000005_Node000007"><a xlink:title=" ">
<path fill="none" stroke="#63b8ff" d="M216.83,-55.59C215.48,-48.93 213.61,-39.75 211.91,-31.44"/>
<polygon fill="#63b8ff" stroke="#63b8ff" points="215.37,-30.88 209.95,-21.78 208.51,-32.28 215.37,-30.88"/>
</a>
</g>
</g>
<!-- Node8 -->
<g id="Node000008" class="node">
<title>Node8</title>
<g id="a_Node000008"><a xlink:title=" ">
<polygon fill="#e0e0e0" stroke="#999999" points="290.38,-20 245.12,-20 245.12,0 290.38,0 290.38,-20"/>
<text text-anchor="middle" x="267.75" y="-6.5" font-family="Helvetica,sans-Serif" font-size="10.00">chrono</text>
</a>
</g>
</g>
<!-- Node5&#45;&gt;Node8 -->
<g id="edge7_Node000005_Node000008" class="edge">
<title>Node5&#45;&gt;Node8</title>
<g id="a_edge7_Node000005_Node000008"><a xlink:title=" ">
<path fill="none" stroke="#63b8ff" d="M227.29,-55.59C234.03,-48.16 243.64,-37.58 251.79,-28.58"/>
<polygon fill="#63b8ff" stroke="#63b8ff" points="254.17,-31.18 258.3,-21.42 248.98,-26.47 254.17,-31.18"/>
</a>
</g>
</g>
<!-- Node11 -->
<g id="Node000011" class="node">
<title>Node11</title>
<g id="a_Node000011"><a xlink:title=" ">
<polygon fill="#e0e0e0" stroke="#999999" points="397.12,-20 308.38,-20 308.38,0 397.12,0 397.12,-20"/>
<text text-anchor="middle" x="352.75" y="-6.5" font-family="Helvetica,sans-Serif" font-size="10.00">SFML/Audio.hpp</text>
</a>
</g>
</g>
<!-- Node10&#45;&gt;Node11 -->
<g id="edge10_Node000010_Node000011" class="edge">
<title>Node10&#45;&gt;Node11</title>
<g id="a_edge10_Node000010_Node000011"><a xlink:title=" ">
<path fill="none" stroke="#63b8ff" d="M409.73,-55.59C399.74,-47.77 385.29,-36.46 373.44,-27.19"/>
<polygon fill="#63b8ff" stroke="#63b8ff" points="375.86,-24.64 365.82,-21.23 371.54,-30.15 375.86,-24.64"/>
</a>
</g>
</g>
<!-- Node12 -->
<g id="Node000012" class="node">
<title>Node12</title>
<g id="a_Node000012"><a xlink:title=" ">
<polygon fill="#e0e0e0" stroke="#999999" points="450.12,-20 415.38,-20 415.38,0 450.12,0 450.12,-20"/>
<text text-anchor="middle" x="432.75" y="-6.5" font-family="Helvetica,sans-Serif" font-size="10.00">map</text>
</a>
</g>
</g>
<!-- Node10&#45;&gt;Node12 -->
<g id="edge11_Node000010_Node000012" class="edge">
<title>Node10&#45;&gt;Node12</title>
<g id="a_edge11_Node000010_Node000012"><a xlink:title=" ">
<path fill="none" stroke="#63b8ff" d="M423.67,-55.59C425.02,-48.93 426.89,-39.75 428.59,-31.44"/>
<polygon fill="#63b8ff" stroke="#63b8ff" points="431.99,-32.28 430.55,-21.78 425.13,-30.88 431.99,-32.28"/>
</a>
</g>
</g>
<!-- Node13 -->
<g id="Node000013" class="node">
<title>Node13</title>
<g id="a_Node000013"><a xlink:title=" ">
<polygon fill="#e0e0e0" stroke="#999999" points="510.88,-20 468.62,-20 468.62,0 510.88,0 510.88,-20"/>
<text text-anchor="middle" x="489.75" y="-6.5" font-family="Helvetica,sans-Serif" font-size="10.00">queue</text>
</a>
</g>
</g>
<!-- Node10&#45;&gt;Node13 -->
<g id="edge12_Node000010_Node000013" class="edge">
<title>Node10&#45;&gt;Node13</title>
<g id="a_edge12_Node000010_Node000013"><a xlink:title=" ">
<path fill="none" stroke="#63b8ff" d="M433.59,-55.59C443.44,-47.77 457.68,-36.46 469.36,-27.19"/>
<polygon fill="#63b8ff" stroke="#63b8ff" points="471.2,-30.2 476.86,-21.24 466.85,-24.72 471.2,-30.2"/>
</a>
</g>
</g>
</g>
</svg>
