<?xml version="1.0" encoding="UTF-8" standalone="no"?>
<!DOCTYPE svg PUBLIC "-//W3C//DTD SVG 1.1//EN"
 "http://www.w3.org/Graphics/SVG/1.1/DTD/svg11.dtd">
<!-- Generated by graphviz version 10.0.1 (20240210.2158)
 -->
<!-- Title: AI Behaviors/MainMenu.h Pages: 1 -->
<svg width="341pt" height="140pt"
 viewBox="0.00 0.00 341.38 140.00" xmlns="http://www.w3.org/2000/svg" xmlns:xlink="http://www.w3.org/1999/xlink">
<g id="graph0" class="graph" transform="scale(1 1) rotate(0) translate(4 136)">
<title>AI Behaviors/MainMenu.h</title>
<!-- Node1 -->
<g id="Node000001" class="node">
<title>Node1</title>
<g id="a_Node000001"><a xlink:title=" ">
<polygon fill="#999999" stroke="#666666" points="258.12,-132 131.88,-132 131.88,-112 258.12,-112 258.12,-132"/>
<text text-anchor="middle" x="195" y="-118.5" font-family="Helvetica,sans-Serif" font-size="10.00">AI Behaviors/MainMenu.h</text>
</a>
</g>
</g>
<!-- Node2 -->
<g id="Node000002" class="node">
<title>Node2</title>
<g id="a_Node000002"><a xlink:href="_game_8h.html" target="_top" xlink:title=" ">
<polygon fill="white" stroke="#666666" points="178.75,-76 71.25,-76 71.25,-56 178.75,-56 178.75,-76"/>
<text text-anchor="middle" x="125" y="-62.5" font-family="Helvetica,sans-Serif" font-size="10.00">AI Behaviors/Game.h</text>
</a>
</g>
</g>
<!-- Node1&#45;&gt;Node2 -->
<g id="edge1_Node000001_Node000002" class="edge">
<title>Node1&#45;&gt;Node2</title>
<g id="a_edge1_Node000001_Node000002"><a xlink:title=" ">
<path fill="none" stroke="#63b8ff" d="M173.84,-104.68C161.8,-95.39 147.15,-84.09 137.05,-76.3"/>
<polygon fill="#63b8ff" stroke="#63b8ff" points="171.55,-107.33 181.61,-110.67 175.83,-101.79 171.55,-107.33"/>
</a>
</g>
</g>
<!-- Node5 -->
<g id="Node000005" class="node">
<title>Node5</title>
<g id="a_Node000005"><a xlink:href="_main_menu_8cpp.html" target="_top" xlink:title=" ">
<polygon fill="white" stroke="#666666" points="333.38,-76 196.62,-76 196.62,-56 333.38,-56 333.38,-76"/>
<text text-anchor="middle" x="265" y="-62.5" font-family="Helvetica,sans-Serif" font-size="10.00">AI Behaviors/MainMenu.cpp</text>
</a>
</g>
</g>
<!-- Node1&#45;&gt;Node5 -->
<g id="edge4_Node000001_Node000005" class="edge">
<title>Node1&#45;&gt;Node5</title>
<g id="a_edge4_Node000001_Node000005"><a xlink:title=" ">
<path fill="none" stroke="#63b8ff" d="M216.16,-104.68C228.2,-95.39 242.85,-84.09 252.95,-76.3"/>
<polygon fill="#63b8ff" stroke="#63b8ff" points="214.17,-101.79 208.39,-110.67 218.45,-107.33 214.17,-101.79"/>
</a>
</g>
</g>
<!-- Node3 -->
<g id="Node000003" class="node">
<title>Node3</title>
<g id="a_Node000003"><a xlink:href="_game_8cpp.html" target="_top" xlink:title=" ">
<polygon fill="white" stroke="#666666" points="118,-20 0,-20 0,0 118,0 118,-20"/>
<text text-anchor="middle" x="59" y="-6.5" font-family="Helvetica,sans-Serif" font-size="10.00">AI Behaviors/Game.cpp</text>
</a>
</g>
</g>
<!-- Node2&#45;&gt;Node3 -->
<g id="edge2_Node000002_Node000003" class="edge">
<title>Node2&#45;&gt;Node3</title>
<g id="a_edge2_Node000002_Node000003"><a xlink:title=" ">
<path fill="none" stroke="#63b8ff" d="M104.71,-48.4C93.42,-39.17 79.79,-28.01 70.36,-20.3"/>
<polygon fill="#63b8ff" stroke="#63b8ff" points="102.38,-51.01 112.33,-54.64 106.81,-45.59 102.38,-51.01"/>
</a>
</g>
</g>
<!-- Node4 -->
<g id="Node000004" class="node">
<title>Node4</title>
<g id="a_Node000004"><a xlink:href="main_8cpp.html" target="_top" xlink:title=" ">
<polygon fill="white" stroke="#666666" points="248.38,-20 135.62,-20 135.62,0 248.38,0 248.38,-20"/>
<text text-anchor="middle" x="192" y="-6.5" font-family="Helvetica,sans-Serif" font-size="10.00">AI Behaviors/main.cpp</text>
</a>
</g>
</g>
<!-- Node2&#45;&gt;Node4 -->
<g id="edge3_Node000002_Node000004" class="edge">
<title>Node2&#45;&gt;Node4</title>
<g id="a_edge3_Node000002_Node000004"><a xlink:title=" ">
<path fill="none" stroke="#63b8ff" d="M145.59,-48.4C157.05,-39.17 170.9,-28.01 180.46,-20.3"/>
<polygon fill="#63b8ff" stroke="#63b8ff" points="143.44,-45.64 137.85,-54.64 147.83,-51.09 143.44,-45.64"/>
</a>
</g>
</g>
</g>
</svg>
