<?xml version="1.0" encoding="UTF-8" standalone="no"?>
<!DOCTYPE svg PUBLIC "-//W3C//DTD SVG 1.1//EN"
 "http://www.w3.org/Graphics/SVG/1.1/DTD/svg11.dtd">
<!-- Generated by graphviz version 10.0.1 (20240210.2158)
 -->
<!-- Title: AI Behaviors/Missile.h Pages: 1 -->
<!--zoomable 364 -->

<svg id="main" version="1.1" xmlns="http://www.w3.org/2000/svg" xmlns:xlink="http://www.w3.org/1999/xlink" xml:space="preserve" onload="init(evt)">
<style type="text/css"><![CDATA[
.node, .edge {opacity: 0.7;}
.node.selected, .edge.selected {opacity: 1;}
.edge:hover path { stroke: red; }
.edge:hover polygon { stroke: red; fill: red; }
]]></style>

<defs>
  <circle id="rim" cx="0" cy="0" r="7"/>
  <circle id="rim2" cx="0" cy="0" r="3.5"/>
  <g id="zoomPlus">
    <use xlink:href="#rim" fill="#404040"><set attributeName="fill" to="#808080" begin="zoomplus.mouseover" end="zoomplus.mouseout"/></use>
    <path d="M-4,0h8M0,-4v8" fill="none" stroke="white" stroke-width="1.5" pointer-events="none"/>
  </g>
  <g id="zoomMin">
    <use xlink:href="#rim" fill="#404040"><set attributeName="fill" to="#808080" begin="zoomminus.mouseover" end="zoomminus.mouseout"/></use>
    <path d="M-4,0h8" fill="none" stroke="white" stroke-width="1.5" pointer-events="none"/>
  </g>
  <g id="arrowUp" transform="translate(30 24)">
    <use xlink:href="#rim"/>
    <path pointer-events="none" fill="none" stroke="white" stroke-width="1.5" d="M0,-3.0v7 M-2.5,-0.5L0,-3.0L2.5,-0.5"/>
  </g>
  <g id="arrowRight" transform="rotate(90) translate(36 -43)">
    <use xlink:href="#rim"/>
    <path pointer-events="none" fill="none" stroke="white" stroke-width="1.5" d="M0,-3.0v7 M-2.5,-0.5L0,-3.0L2.5,-0.5"/>
  </g>
  <g id="arrowDown" transform="rotate(180) translate(-30 -48)">
    <use xlink:href="#rim"/>
    <path pointer-events="none" fill="none" stroke="white" stroke-width="1.5" d="M0,-3.0v7 M-2.5,-0.5L0,-3.0L2.5,-0.5"/>
  </g>
  <g id="arrowLeft" transform="rotate(270) translate(-36 17)">
    <use xlink:href="#rim"/>
    <path pointer-events="none" fill="none" stroke="white" stroke-width="1.5" d="M0,-3.0v7 M-2.5,-0.5L0,-3.0L2.5,-0.5"/>
  </g>
  <g id="resetDef">
    <use xlink:href="#rim2" fill="#404040"><set attributeName="fill" to="#808080" begin="reset.mouseover" end="reset.mouseout"/></use>
  </g>
</defs>
<script type="application/ecmascript">
var viewWidth = 1359;
var viewHeight = 364;
var sectionId = 'dynsection-1';
</script>
<script type="application/ecmascript" xlink:href="svg.min.js"/>
<svg id="graph" class="graph">
<g id="viewport">
<title>AI Behaviors/Missile.h</title>
<!-- Node1 -->
<g id="Node000001" class="node">
<title>Node1</title>
<g id="a_Node000001"><a xlink:title=" ">
<polygon fill="#999999" stroke="#666666" points="758.88,-356 646.88,-356 646.88,-336 758.88,-336 758.88,-356"/>
<text text-anchor="middle" x="702.88" y="-342.5" font-family="Helvetica,sans-Serif" font-size="10.00">AI Behaviors/Missile.h</text>
</a>
</g>
</g>
<!-- Node2 -->
<g id="Node000002" class="node">
<title>Node2</title>
<g id="a_Node000002"><a xlink:href="_missile_8cpp.html" target="_top" xlink:title=" ">
<polygon fill="white" stroke="#666666" points="700.12,-300 577.62,-300 577.62,-280 700.12,-280 700.12,-300"/>
<text text-anchor="middle" x="638.88" y="-286.5" font-family="Helvetica,sans-Serif" font-size="10.00">AI Behaviors/Missile.cpp</text>
</a>
</g>
</g>
<!-- Node1&#45;&gt;Node2 -->
<g id="edge1_Node000001_Node000002" class="edge">
<title>Node1&#45;&gt;Node2</title>
<g id="a_edge1_Node000001_Node000002"><a xlink:title=" ">
<path fill="none" stroke="#63b8ff" d="M683.2,-328.4C672.26,-319.17 659.03,-308.01 649.9,-300.3"/>
<polygon fill="#63b8ff" stroke="#63b8ff" points="680.67,-330.84 690.57,-334.62 685.18,-325.49 680.67,-330.84"/>
</a>
</g>
</g>
<!-- Node3 -->
<g id="Node000003" class="node">
<title>Node3</title>
<g id="a_Node000003"><a xlink:href="_unit_8h.html" target="_top" xlink:title=" ">
<polygon fill="white" stroke="#666666" points="817.12,-300 718.62,-300 718.62,-280 817.12,-280 817.12,-300"/>
<text text-anchor="middle" x="767.88" y="-286.5" font-family="Helvetica,sans-Serif" font-size="10.00">AI Behaviors/Unit.h</text>
</a>
</g>
</g>
<!-- Node1&#45;&gt;Node3 -->
<g id="edge2_Node000001_Node000003" class="edge">
<title>Node1&#45;&gt;Node3</title>
<g id="a_edge2_Node000001_Node000003"><a xlink:title=" ">
<path fill="none" stroke="#63b8ff" d="M722.85,-328.4C733.97,-319.17 747.4,-308.01 756.68,-300.3"/>
<polygon fill="#63b8ff" stroke="#63b8ff" points="720.82,-325.54 715.36,-334.63 725.29,-330.93 720.82,-325.54"/>
</a>
</g>
</g>
<!-- Node4 -->
<g id="Node000004" class="node">
<title>Node4</title>
<g id="a_Node000004"><a xlink:href="_aircraft_unit_8h.html" target="_top" xlink:title=" ">
<polygon fill="white" stroke="#666666" points="356.5,-244 227.25,-244 227.25,-224 356.5,-224 356.5,-244"/>
<text text-anchor="middle" x="291.88" y="-230.5" font-family="Helvetica,sans-Serif" font-size="10.00">AI Behaviors/AircraftUnit.h</text>
</a>
</g>
</g>
<!-- Node3&#45;&gt;Node4 -->
<g id="edge3_Node000003_Node000004" class="edge">
<title>Node3&#45;&gt;Node4</title>
<g id="a_edge3_Node000003_Node000004"><a xlink:title=" ">
<path fill="none" stroke="#63b8ff" d="M706.94,-279.8C576.49,-263 436.8,-248.85 356.99,-241.13"/>
<polygon fill="#63b8ff" stroke="#63b8ff" points="706.45,-283.27 716.82,-281.09 707.35,-276.33 706.45,-283.27"/>
</a>
</g>
</g>
<!-- Node15 -->
<g id="Node000015" class="node">
<title>Node15</title>
<g id="a_Node000015"><a xlink:href="_infantry_unit_8h.html" target="_top" xlink:title=" ">
<polygon fill="white" stroke="#666666" points="751.88,-244 621.88,-244 621.88,-224 751.88,-224 751.88,-244"/>
<text text-anchor="middle" x="686.88" y="-230.5" font-family="Helvetica,sans-Serif" font-size="10.00">AI Behaviors/InfantryUnit.h</text>
</a>
</g>
</g>
<!-- Node3&#45;&gt;Node15 -->
<g id="edge15_Node000003_Node000015" class="edge">
<title>Node3&#45;&gt;Node15</title>
<g id="a_edge15_Node000003_Node000015"><a xlink:title=" ">
<path fill="none" stroke="#63b8ff" d="M744.28,-273.27C730.29,-263.94 713.02,-252.43 701.09,-244.48"/>
<polygon fill="#63b8ff" stroke="#63b8ff" points="742.24,-276.12 752.51,-278.75 746.13,-270.3 742.24,-276.12"/>
</a>
</g>
</g>
<!-- Node19 -->
<g id="Node000019" class="node">
<title>Node19</title>
<g id="a_Node000019"><a xlink:href="_unit_8cpp.html" target="_top" xlink:title=" ">
<polygon fill="white" stroke="#666666" points="1112.38,-244 1003.38,-244 1003.38,-224 1112.38,-224 1112.38,-244"/>
<text text-anchor="middle" x="1057.88" y="-230.5" font-family="Helvetica,sans-Serif" font-size="10.00">AI Behaviors/Unit.cpp</text>
</a>
</g>
</g>
<!-- Node3&#45;&gt;Node19 -->
<g id="edge20_Node000003_Node000019" class="edge">
<title>Node3&#45;&gt;Node19</title>
<g id="a_edge20_Node000003_Node000019"><a xlink:title=" ">
<path fill="none" stroke="#63b8ff" d="M828.66,-277.68C881.56,-267.83 957.37,-253.72 1007.09,-244.46"/>
<polygon fill="#63b8ff" stroke="#63b8ff" points="828.08,-274.23 818.89,-279.5 829.36,-281.11 828.08,-274.23"/>
</a>
</g>
</g>
<!-- Node20 -->
<g id="Node000020" class="node">
<title>Node20</title>
<g id="a_Node000020"><a xlink:href="_vehicle_unit_8h.html" target="_top" xlink:title=" ">
<polygon fill="white" stroke="#666666" points="985.25,-244 854.5,-244 854.5,-224 985.25,-224 985.25,-244"/>
<text text-anchor="middle" x="919.88" y="-230.5" font-family="Helvetica,sans-Serif" font-size="10.00">AI Behaviors/VehicleUnit.h</text>
</a>
</g>
</g>
<!-- Node3&#45;&gt;Node20 -->
<g id="edge21_Node000003_Node000020" class="edge">
<title>Node3&#45;&gt;Node20</title>
<g id="a_edge21_Node000003_Node000020"><a xlink:title=" ">
<path fill="none" stroke="#63b8ff" d="M805.05,-275.79C832.34,-266.1 868.75,-253.16 893.19,-244.48"/>
<polygon fill="#63b8ff" stroke="#63b8ff" points="804.03,-272.44 795.78,-279.09 806.37,-279.04 804.03,-272.44"/>
</a>
</g>
</g>
<!-- Node5 -->
<g id="Node000005" class="node">
<title>Node5</title>
<g id="a_Node000005"><a xlink:href="_aircraft_unit_8cpp.html" target="_top" xlink:title=" ">
<polygon fill="white" stroke="#666666" points="139.75,-188 0,-188 0,-168 139.75,-168 139.75,-188"/>
<text text-anchor="middle" x="69.88" y="-174.5" font-family="Helvetica,sans-Serif" font-size="10.00">AI Behaviors/AircraftUnit.cpp</text>
</a>
</g>
</g>
<!-- Node4&#45;&gt;Node5 -->
<g id="edge4_Node000004_Node000005" class="edge">
<title>Node4&#45;&gt;Node5</title>
<g id="a_edge4_Node000004_Node000005"><a xlink:title=" ">
<path fill="none" stroke="#63b8ff" d="M241.77,-220.81C201.49,-211.01 145.71,-197.45 108.75,-188.46"/>
<polygon fill="#63b8ff" stroke="#63b8ff" points="240.94,-224.21 251.48,-223.17 242.59,-217.41 240.94,-224.21"/>
</a>
</g>
</g>
<!-- Node6 -->
<g id="Node000006" class="node">
<title>Node6</title>
<g id="a_Node000006"><a xlink:href="_firehawk_8h.html" target="_top" xlink:title=" ">
<polygon fill="white" stroke="#666666" points="278,-188 157.75,-188 157.75,-168 278,-168 278,-188"/>
<text text-anchor="middle" x="217.88" y="-174.5" font-family="Helvetica,sans-Serif" font-size="10.00">AI Behaviors/Firehawk.h</text>
</a>
</g>
</g>
<!-- Node4&#45;&gt;Node6 -->
<g id="edge5_Node000004_Node000006" class="edge">
<title>Node4&#45;&gt;Node6</title>
<g id="a_edge5_Node000004_Node000006"><a xlink:title=" ">
<path fill="none" stroke="#63b8ff" d="M269.89,-216.95C257.09,-207.61 241.4,-196.16 230.62,-188.3"/>
<polygon fill="#63b8ff" stroke="#63b8ff" points="267.62,-219.63 277.76,-222.7 271.75,-213.98 267.62,-219.63"/>
</a>
</g>
</g>
<!-- Node13 -->
<g id="Node000013" class="node">
<title>Node13</title>
<g id="a_Node000013"><a xlink:href="_hammer_head_8h.html" target="_top" xlink:title=" ">
<polygon fill="white" stroke="#666666" points="436.12,-188 295.62,-188 295.62,-168 436.12,-168 436.12,-188"/>
<text text-anchor="middle" x="365.88" y="-174.5" font-family="Helvetica,sans-Serif" font-size="10.00">AI Behaviors/HammerHead.h</text>
</a>
</g>
</g>
<!-- Node4&#45;&gt;Node13 -->
<g id="edge12_Node000004_Node000013" class="edge">
<title>Node4&#45;&gt;Node13</title>
<g id="a_edge12_Node000004_Node000013"><a xlink:title=" ">
<path fill="none" stroke="#63b8ff" d="M313.86,-216.95C326.66,-207.61 342.35,-196.16 353.13,-188.3"/>
<polygon fill="#63b8ff" stroke="#63b8ff" points="312,-213.98 305.99,-222.7 316.13,-219.63 312,-213.98"/>
</a>
</g>
</g>
<!-- Node7 -->
<g id="Node000007" class="node">
<title>Node7</title>
<g id="a_Node000007"><a xlink:href="_firehawk_8cpp.html" target="_top" xlink:title=" ">
<polygon fill="white" stroke="#666666" points="278.25,-132 147.5,-132 147.5,-112 278.25,-112 278.25,-132"/>
<text text-anchor="middle" x="212.88" y="-118.5" font-family="Helvetica,sans-Serif" font-size="10.00">AI Behaviors/Firehawk.cpp</text>
</a>
</g>
</g>
<!-- Node6&#45;&gt;Node7 -->
<g id="edge6_Node000006_Node000007" class="edge">
<title>Node6&#45;&gt;Node7</title>
<g id="a_edge6_Node000006_Node000007"><a xlink:title=" ">
<path fill="none" stroke="#63b8ff" d="M215.94,-156.13C215.18,-147.9 214.34,-138.85 213.74,-132.3"/>
<polygon fill="#63b8ff" stroke="#63b8ff" points="212.46,-156.45 216.86,-166.09 219.43,-155.81 212.46,-156.45"/>
</a>
</g>
</g>
<!-- Node8 -->
<g id="Node000008" class="node">
<title>Node8</title>
<g id="a_Node000008"><a xlink:href="_g_u_i_8h.html" target="_top" xlink:title=" ">
<polygon fill="white" stroke="#666666" points="891.75,-132 794,-132 794,-112 891.75,-112 891.75,-132"/>
<text text-anchor="middle" x="842.88" y="-118.5" font-family="Helvetica,sans-Serif" font-size="10.00">AI Behaviors/GUI.h</text>
</a>
</g>
</g>
<!-- Node6&#45;&gt;Node8 -->
<g id="edge7_Node000006_Node000008" class="edge">
<title>Node6&#45;&gt;Node8</title>
<g id="a_edge7_Node000006_Node000008"><a xlink:title=" ">
<path fill="none" stroke="#63b8ff" d="M289.79,-167.76C504.72,-146.22 561.65,-153.67 773.88,-132 780.24,-131.35 786.93,-130.58 793.54,-129.78"/>
<polygon fill="#63b8ff" stroke="#63b8ff" points="289.54,-164.26 279.94,-168.75 290.24,-171.23 289.54,-164.26"/>
</a>
</g>
</g>
<!-- Node9 -->
<g id="Node000009" class="node">
<title>Node9</title>
<g id="a_Node000009"><a xlink:href="_g_u_i_8cpp.html" target="_top" xlink:title=" ">
<polygon fill="white" stroke="#666666" points="834,-76 725.75,-76 725.75,-56 834,-56 834,-76"/>
<text text-anchor="middle" x="779.88" y="-62.5" font-family="Helvetica,sans-Serif" font-size="10.00">AI Behaviors/GUI.cpp</text>
</a>
</g>
</g>
<!-- Node8&#45;&gt;Node9 -->
<g id="edge8_Node000008_Node000009" class="edge">
<title>Node8&#45;&gt;Node9</title>
<g id="a_edge8_Node000008_Node000009"><a xlink:title=" ">
<path fill="none" stroke="#63b8ff" d="M823.19,-104.13C812.47,-94.94 799.63,-83.93 790.72,-76.3"/>
<polygon fill="#63b8ff" stroke="#63b8ff" points="820.88,-106.76 830.75,-110.61 825.44,-101.44 820.88,-106.76"/>
</a>
</g>
</g>
<!-- Node10 -->
<g id="Node000010" class="node">
<title>Node10</title>
<g id="a_Node000010"><a xlink:href="_game_8h.html" target="_top" xlink:title=" ">
<polygon fill="white" stroke="#666666" points="959.62,-76 852.12,-76 852.12,-56 959.62,-56 959.62,-76"/>
<text text-anchor="middle" x="905.88" y="-62.5" font-family="Helvetica,sans-Serif" font-size="10.00">AI Behaviors/Game.h</text>
</a>
</g>
</g>
<!-- Node8&#45;&gt;Node10 -->
<g id="edge9_Node000008_Node000010" class="edge">
<title>Node8&#45;&gt;Node10</title>
<g id="a_edge9_Node000008_Node000010"><a xlink:title=" ">
<path fill="none" stroke="#63b8ff" d="M862.56,-104.13C873.28,-94.94 886.12,-83.93 895.03,-76.3"/>
<polygon fill="#63b8ff" stroke="#63b8ff" points="860.31,-101.44 855,-110.61 864.87,-106.76 860.31,-101.44"/>
</a>
</g>
</g>
<!-- Node11 -->
<g id="Node000011" class="node">
<title>Node11</title>
<g id="a_Node000011"><a xlink:href="_game_8cpp.html" target="_top" xlink:title=" ">
<polygon fill="white" stroke="#666666" points="898.88,-20 780.88,-20 780.88,0 898.88,0 898.88,-20"/>
<text text-anchor="middle" x="839.88" y="-6.5" font-family="Helvetica,sans-Serif" font-size="10.00">AI Behaviors/Game.cpp</text>
</a>
</g>
</g>
<!-- Node10&#45;&gt;Node11 -->
<g id="edge10_Node000010_Node000011" class="edge">
<title>Node10&#45;&gt;Node11</title>
<g id="a_edge10_Node000010_Node000011"><a xlink:title=" ">
<path fill="none" stroke="#63b8ff" d="M885.59,-48.4C874.3,-39.17 860.66,-28.01 851.24,-20.3"/>
<polygon fill="#63b8ff" stroke="#63b8ff" points="883.25,-51.01 893.21,-54.64 887.68,-45.59 883.25,-51.01"/>
</a>
</g>
</g>
<!-- Node12 -->
<g id="Node000012" class="node">
<title>Node12</title>
<g id="a_Node000012"><a xlink:href="main_8cpp.html" target="_top" xlink:title=" ">
<polygon fill="white" stroke="#666666" points="1029.25,-20 916.5,-20 916.5,0 1029.25,0 1029.25,-20"/>
<text text-anchor="middle" x="972.88" y="-6.5" font-family="Helvetica,sans-Serif" font-size="10.00">AI Behaviors/main.cpp</text>
</a>
</g>
</g>
<!-- Node10&#45;&gt;Node12 -->
<g id="edge11_Node000010_Node000012" class="edge">
<title>Node10&#45;&gt;Node12</title>
<g id="a_edge11_Node000010_Node000012"><a xlink:title=" ">
<path fill="none" stroke="#63b8ff" d="M926.47,-48.4C937.93,-39.17 951.77,-28.01 961.34,-20.3"/>
<polygon fill="#63b8ff" stroke="#63b8ff" points="924.31,-45.64 918.72,-54.64 928.71,-51.09 924.31,-45.64"/>
</a>
</g>
</g>
<!-- Node13&#45;&gt;Node8 -->
<g id="edge13_Node000013_Node000008" class="edge">
<title>Node13&#45;&gt;Node8</title>
<g id="a_edge13_Node000013_Node000008"><a xlink:title=" ">
<path fill="none" stroke="#63b8ff" d="M447.69,-167.8C593.48,-151.68 631.82,-149.06 773.88,-132 780.23,-131.24 786.91,-130.4 793.51,-129.56"/>
<polygon fill="#63b8ff" stroke="#63b8ff" points="447.6,-164.29 438.05,-168.87 448.37,-171.25 447.6,-164.29"/>
</a>
</g>
</g>
<!-- Node14 -->
<g id="Node000014" class="node">
<title>Node14</title>
<g id="a_Node000014"><a xlink:href="_hammer_head_8cpp.html" target="_top" xlink:title=" ">
<polygon fill="white" stroke="#666666" points="447.38,-132 296.38,-132 296.38,-112 447.38,-112 447.38,-132"/>
<text text-anchor="middle" x="371.88" y="-118.5" font-family="Helvetica,sans-Serif" font-size="10.00">AI Behaviors/HammerHead.cpp</text>
</a>
</g>
</g>
<!-- Node13&#45;&gt;Node14 -->
<g id="edge14_Node000013_Node000014" class="edge">
<title>Node13&#45;&gt;Node14</title>
<g id="a_edge14_Node000013_Node000014"><a xlink:title=" ">
<path fill="none" stroke="#63b8ff" d="M368.16,-156.43C369.09,-148.11 370.1,-138.93 370.84,-132.3"/>
<polygon fill="#63b8ff" stroke="#63b8ff" points="364.71,-155.76 367.09,-166.09 371.67,-156.54 364.71,-155.76"/>
</a>
</g>
</g>
<!-- Node16 -->
<g id="Node000016" class="node">
<title>Node16</title>
<g id="a_Node000016"><a xlink:href="_infantry_unit_8cpp.html" target="_top" xlink:title=" ">
<polygon fill="white" stroke="#666666" points="595.12,-188 454.62,-188 454.62,-168 595.12,-168 595.12,-188"/>
<text text-anchor="middle" x="524.88" y="-174.5" font-family="Helvetica,sans-Serif" font-size="10.00">AI Behaviors/InfantryUnit.cpp</text>
</a>
</g>
</g>
<!-- Node15&#45;&gt;Node16 -->
<g id="edge16_Node000015_Node000016" class="edge">
<title>Node15&#45;&gt;Node16</title>
<g id="a_edge16_Node000015_Node000016"><a xlink:title=" ">
<path fill="none" stroke="#63b8ff" d="M648.02,-220.05C618.86,-210.33 579.59,-197.24 553.31,-188.48"/>
<polygon fill="#63b8ff" stroke="#63b8ff" points="646.63,-223.27 657.22,-223.12 648.84,-216.63 646.63,-223.27"/>
</a>
</g>
</g>
<!-- Node17 -->
<g id="Node000017" class="node">
<title>Node17</title>
<g id="a_Node000017"><a xlink:href="_rifleman_squad_8h.html" target="_top" xlink:title=" ">
<polygon fill="white" stroke="#666666" points="760.12,-188 613.62,-188 613.62,-168 760.12,-168 760.12,-188"/>
<text text-anchor="middle" x="686.88" y="-174.5" font-family="Helvetica,sans-Serif" font-size="10.00">AI Behaviors/RiflemanSquad.h</text>
</a>
</g>
</g>
<!-- Node15&#45;&gt;Node17 -->
<g id="edge17_Node000015_Node000017" class="edge">
<title>Node15&#45;&gt;Node17</title>
<g id="a_edge17_Node000015_Node000017"><a xlink:title=" ">
<path fill="none" stroke="#63b8ff" d="M686.88,-212.13C686.88,-203.9 686.88,-194.85 686.88,-188.3"/>
<polygon fill="#63b8ff" stroke="#63b8ff" points="683.38,-212.08 686.88,-222.08 690.38,-212.08 683.38,-212.08"/>
</a>
</g>
</g>
<!-- Node17&#45;&gt;Node8 -->
<g id="edge18_Node000017_Node000008" class="edge">
<title>Node17&#45;&gt;Node8</title>
<g id="a_edge18_Node000017_Node000008"><a xlink:title=" ">
<path fill="none" stroke="#63b8ff" d="M724.66,-163.92C752.7,-154.21 790.3,-141.2 815.49,-132.48"/>
<polygon fill="#63b8ff" stroke="#63b8ff" points="723.78,-160.52 715.48,-167.1 726.07,-167.14 723.78,-160.52"/>
</a>
</g>
</g>
<!-- Node18 -->
<g id="Node000018" class="node">
<title>Node18</title>
<g id="a_Node000018"><a xlink:href="_rifleman_squad_8cpp.html" target="_top" xlink:title=" ">
<polygon fill="white" stroke="#666666" points="765.38,-132 608.38,-132 608.38,-112 765.38,-112 765.38,-132"/>
<text text-anchor="middle" x="686.88" y="-118.5" font-family="Helvetica,sans-Serif" font-size="10.00">AI Behaviors/RiflemanSquad.cpp</text>
</a>
</g>
</g>
<!-- Node17&#45;&gt;Node18 -->
<g id="edge19_Node000017_Node000018" class="edge">
<title>Node17&#45;&gt;Node18</title>
<g id="a_edge19_Node000017_Node000018"><a xlink:title=" ">
<path fill="none" stroke="#63b8ff" d="M686.88,-156.13C686.88,-147.9 686.88,-138.85 686.88,-132.3"/>
<polygon fill="#63b8ff" stroke="#63b8ff" points="683.38,-156.08 686.88,-166.08 690.38,-156.08 683.38,-156.08"/>
</a>
</g>
</g>
<!-- Node21 -->
<g id="Node000021" class="node">
<title>Node21</title>
<g id="a_Node000021"><a xlink:href="_buggy_8h.html" target="_top" xlink:title=" ">
<polygon fill="white" stroke="#666666" points="1046.38,-188 937.38,-188 937.38,-168 1046.38,-168 1046.38,-188"/>
<text text-anchor="middle" x="991.88" y="-174.5" font-family="Helvetica,sans-Serif" font-size="10.00">AI Behaviors/Buggy.h</text>
</a>
</g>
</g>
<!-- Node20&#45;&gt;Node21 -->
<g id="edge22_Node000020_Node000021" class="edge">
<title>Node20&#45;&gt;Node21</title>
<g id="a_edge22_Node000020_Node000021"><a xlink:title=" ">
<path fill="none" stroke="#63b8ff" d="M941.27,-216.95C953.72,-207.61 968.99,-196.16 979.48,-188.3"/>
<polygon fill="#63b8ff" stroke="#63b8ff" points="939.53,-213.89 933.63,-222.69 943.73,-219.49 939.53,-213.89"/>
</a>
</g>
</g>
<!-- Node23 -->
<g id="Node000023" class="node">
<title>Node23</title>
<g id="a_Node000023"><a xlink:href="_harvester_8h.html" target="_top" xlink:title=" ">
<polygon fill="white" stroke="#666666" points="1185.75,-188 1064,-188 1064,-168 1185.75,-168 1185.75,-188"/>
<text text-anchor="middle" x="1124.88" y="-174.5" font-family="Helvetica,sans-Serif" font-size="10.00">AI Behaviors/Harvester.h</text>
</a>
</g>
</g>
<!-- Node20&#45;&gt;Node23 -->
<g id="edge25_Node000020_Node000023" class="edge">
<title>Node20&#45;&gt;Node23</title>
<g id="a_edge25_Node000020_Node000023"><a xlink:title=" ">
<path fill="none" stroke="#63b8ff" d="M966.62,-220.69C1003.75,-210.91 1054.9,-197.43 1088.89,-188.48"/>
<polygon fill="#63b8ff" stroke="#63b8ff" points="965.83,-217.28 957.05,-223.21 967.61,-224.05 965.83,-217.28"/>
</a>
</g>
</g>
<!-- Node25 -->
<g id="Node000025" class="node">
<title>Node25</title>
<g id="a_Node000025"><a xlink:href="_tank_aurora_8h.html" target="_top" xlink:title=" ">
<polygon fill="white" stroke="#666666" points="1334.25,-188 1203.5,-188 1203.5,-168 1334.25,-168 1334.25,-188"/>
<text text-anchor="middle" x="1268.88" y="-174.5" font-family="Helvetica,sans-Serif" font-size="10.00">AI Behaviors/TankAurora.h</text>
</a>
</g>
</g>
<!-- Node20&#45;&gt;Node25 -->
<g id="edge28_Node000020_Node000025" class="edge">
<title>Node20&#45;&gt;Node25</title>
<g id="a_edge28_Node000020_Node000025"><a xlink:title=" ">
<path fill="none" stroke="#63b8ff" d="M992.22,-221.81C1055.93,-211.95 1147.66,-197.76 1207.75,-188.46"/>
<polygon fill="#63b8ff" stroke="#63b8ff" points="991.91,-218.31 982.56,-223.3 992.98,-225.23 991.91,-218.31"/>
</a>
</g>
</g>
<!-- Node27 -->
<g id="Node000027" class="node">
<title>Node27</title>
<g id="a_Node000027"><a xlink:href="_vehicle_unit_8cpp.html" target="_top" xlink:title=" ">
<polygon fill="white" stroke="#666666" points="919.5,-188 778.25,-188 778.25,-168 919.5,-168 919.5,-188"/>
<text text-anchor="middle" x="848.88" y="-174.5" font-family="Helvetica,sans-Serif" font-size="10.00">AI Behaviors/VehicleUnit.cpp</text>
</a>
</g>
</g>
<!-- Node20&#45;&gt;Node27 -->
<g id="edge31_Node000020_Node000027" class="edge">
<title>Node20&#45;&gt;Node27</title>
<g id="a_edge31_Node000020_Node000027"><a xlink:title=" ">
<path fill="none" stroke="#63b8ff" d="M898.42,-216.68C886.2,-207.39 871.34,-196.09 861.1,-188.3"/>
<polygon fill="#63b8ff" stroke="#63b8ff" points="896.22,-219.41 906.3,-222.68 900.46,-213.84 896.22,-219.41"/>
</a>
</g>
</g>
<!-- Node21&#45;&gt;Node8 -->
<g id="edge24_Node000021_Node000008" class="edge">
<title>Node21&#45;&gt;Node8</title>
<g id="a_edge24_Node000021_Node000008"><a xlink:title=" ">
<path fill="none" stroke="#63b8ff" d="M955.43,-163.79C928.68,-154.1 892.99,-141.16 869.03,-132.48"/>
<polygon fill="#63b8ff" stroke="#63b8ff" points="953.9,-166.96 964.5,-167.08 956.29,-160.38 953.9,-166.96"/>
</a>
</g>
</g>
<!-- Node22 -->
<g id="Node000022" class="node">
<title>Node22</title>
<g id="a_Node000022"><a xlink:href="_buggy_8cpp.html" target="_top" xlink:title=" ">
<polygon fill="white" stroke="#666666" points="1040.62,-132 921.12,-132 921.12,-112 1040.62,-112 1040.62,-132"/>
<text text-anchor="middle" x="980.88" y="-118.5" font-family="Helvetica,sans-Serif" font-size="10.00">AI Behaviors/Buggy.cpp</text>
</a>
</g>
</g>
<!-- Node21&#45;&gt;Node22 -->
<g id="edge23_Node000021_Node000022" class="edge">
<title>Node21&#45;&gt;Node22</title>
<g id="a_edge23_Node000021_Node000022"><a xlink:title=" ">
<path fill="none" stroke="#63b8ff" d="M987.68,-156.43C985.99,-148.11 984.12,-138.93 982.77,-132.3"/>
<polygon fill="#63b8ff" stroke="#63b8ff" points="984.23,-157.01 989.66,-166.11 991.09,-155.61 984.23,-157.01"/>
</a>
</g>
</g>
<!-- Node23&#45;&gt;Node8 -->
<g id="edge26_Node000023_Node000008" class="edge">
<title>Node23&#45;&gt;Node8</title>
<g id="a_edge26_Node000023_Node000008"><a xlink:title=" ">
<path fill="none" stroke="#63b8ff" d="M1064.13,-165.37C1012.6,-155.5 939.63,-141.53 891.79,-132.37"/>
<polygon fill="#63b8ff" stroke="#63b8ff" points="1063.47,-168.8 1073.95,-167.25 1064.78,-161.93 1063.47,-168.8"/>
</a>
</g>
</g>
<!-- Node24 -->
<g id="Node000024" class="node">
<title>Node24</title>
<g id="a_Node000024"><a xlink:href="_harvester_8cpp.html" target="_top" xlink:title=" ">
<polygon fill="white" stroke="#666666" points="1191,-132 1058.75,-132 1058.75,-112 1191,-112 1191,-132"/>
<text text-anchor="middle" x="1124.88" y="-118.5" font-family="Helvetica,sans-Serif" font-size="10.00">AI Behaviors/Harvester.cpp</text>
</a>
</g>
</g>
<!-- Node23&#45;&gt;Node24 -->
<g id="edge27_Node000023_Node000024" class="edge">
<title>Node23&#45;&gt;Node24</title>
<g id="a_edge27_Node000023_Node000024"><a xlink:title=" ">
<path fill="none" stroke="#63b8ff" d="M1124.88,-156.13C1124.88,-147.9 1124.88,-138.85 1124.88,-132.3"/>
<polygon fill="#63b8ff" stroke="#63b8ff" points="1121.38,-156.08 1124.88,-166.08 1128.38,-156.08 1121.38,-156.08"/>
</a>
</g>
</g>
<!-- Node25&#45;&gt;Node8 -->
<g id="edge29_Node000025_Node000008" class="edge">
<title>Node25&#45;&gt;Node8</title>
<g id="a_edge29_Node000025_Node000008"><a xlink:title=" ">
<path fill="none" stroke="#63b8ff" d="M1191.8,-167.38C1119.49,-158.34 1008.33,-144.37 911.88,-132 905.52,-131.19 898.85,-130.32 892.25,-129.47"/>
<polygon fill="#63b8ff" stroke="#63b8ff" points="1191.21,-170.84 1201.56,-168.6 1192.08,-163.89 1191.21,-170.84"/>
</a>
</g>
</g>
<!-- Node26 -->
<g id="Node000026" class="node">
<title>Node26</title>
<g id="a_Node000026"><a xlink:href="_tank_aurora_8cpp.html" target="_top" xlink:title=" ">
<polygon fill="white" stroke="#666666" points="1350.5,-132 1209.25,-132 1209.25,-112 1350.5,-112 1350.5,-132"/>
<text text-anchor="middle" x="1279.88" y="-118.5" font-family="Helvetica,sans-Serif" font-size="10.00">AI Behaviors/TankAurora.cpp</text>
</a>
</g>
</g>
<!-- Node25&#45;&gt;Node26 -->
<g id="edge30_Node000025_Node000026" class="edge">
<title>Node25&#45;&gt;Node26</title>
<g id="a_edge30_Node000025_Node000026"><a xlink:title=" ">
<path fill="none" stroke="#63b8ff" d="M1273.07,-156.43C1274.76,-148.11 1276.63,-138.93 1277.98,-132.3"/>
<polygon fill="#63b8ff" stroke="#63b8ff" points="1269.66,-155.61 1271.09,-166.11 1276.52,-157.01 1269.66,-155.61"/>
</a>
</g>
</g>
</g>
</svg>

<g id="navigator" transform="translate(0 0)" fill="#404254">
  <rect fill="#f2f5e9" fill-opacity="0.5" stroke="#606060" stroke-width=".5" x="0" y="0" width="60" height="60"/>
  <use id="zoomplus" xlink:href="#zoomPlus" x="17" y="9" onmousedown="handleZoom(evt,'in')"/>
  <use id="zoomminus" xlink:href="#zoomMin" x="42" y="9" onmousedown="handleZoom(evt,'out')"/>
  <use id="reset" xlink:href="#resetDef" x="30" y="36" onmousedown="handleReset()"/>
   <use id="arrowup" xlink:href="#arrowUp" x="0" y="0" onmousedown="handlePan(0,-1)"/>
  <use id="arrowright" xlink:href="#arrowRight" x="0" y="0" onmousedown="handlePan(1,0)"/>
  <use id="arrowdown" xlink:href="#arrowDown" x="0" y="0" onmousedown="handlePan(0,1)"/>
  <use id="arrowleft" xlink:href="#arrowLeft" x="0" y="0" onmousedown="handlePan(-1,0)"/>
</g>
<svg viewBox="0 0 15 15" width="100%" height="30px" preserveAspectRatio="xMaxYMin meet">
 <g id="arrow_out" transform="scale(0.3 0.3)">
  <a xlink:href="_missile_8h__dep__incl_org.svg" target="_base">
   <rect id="button" ry="5" rx="5" y="6" x="6" height="38" width="38"
        fill="#f2f5e9" fill-opacity="0.5" stroke="#606060" stroke-width="1.0"/>
   <path id="arrow"
     d="M 11.500037,31.436501 C 11.940474,20.09759 22.043105,11.32322 32.158766,21.979434 L 37.068811,17.246167 C 37.068811,17.246167 37.088388,32 37.088388,32 L 22.160133,31.978069 C 22.160133,31.978069 26.997745,27.140456 26.997745,27.140456 C 18.528582,18.264221 13.291696,25.230495 11.500037,31.436501 z"
     style="fill:#404040;"/>
  </a>
 </g>
</svg>

<style type='text/css'>
<![CDATA[
[data-mouse-over-selected='false'] { opacity: 0.7; }
[data-mouse-over-selected='true']  { opacity: 1.0; }
]]>
</style>
<script type="application/ecmascript"><![CDATA[
document.addEventListener('DOMContentLoaded', (event) => {
  highlightEdges();
  highlightAdjacentNodes();
});
]]></script>
</svg>
