<?xml version="1.0" encoding="UTF-8" standalone="no"?>
<!DOCTYPE svg PUBLIC "-//W3C//DTD SVG 1.1//EN"
 "http://www.w3.org/Graphics/SVG/1.1/DTD/svg11.dtd">
<!-- Generated by graphviz version 10.0.1 (20240210.2158)
 -->
<!-- Title: AI Behaviors/NeuralNetworks.h Pages: 1 -->
<svg width="365pt" height="140pt"
 viewBox="0.00 0.00 365.00 140.00" xmlns="http://www.w3.org/2000/svg" xmlns:xlink="http://www.w3.org/1999/xlink">

<svg id="main" version="1.1" xmlns="http://www.w3.org/2000/svg" xmlns:xlink="http://www.w3.org/1999/xlink" xml:space="preserve" onload="init(evt)">
<style type="text/css"><![CDATA[
.node, .edge {opacity: 0.7;}
.node.selected, .edge.selected {opacity: 1;}
.edge:hover path { stroke: red; }
.edge:hover polygon { stroke: red; fill: red; }
]]></style>
<script type="application/ecmascript" xlink:href="svg.min.js"/>
<svg id="graph" class="graph">
<g id="graph0" class="graph" transform="scale(1 1) rotate(0) translate(4 136)">
<title>AI Behaviors/NeuralNetworks.h</title>
<!-- Node1 -->
<g id="Node000001" class="node">
<title>Node1</title>
<g id="a_Node000001"><a xlink:title=" ">
<polygon fill="#999999" stroke="#666666" points="275.75,-132 126.25,-132 126.25,-112 275.75,-112 275.75,-132"/>
<text text-anchor="middle" x="201" y="-118.5" font-family="Helvetica,sans-Serif" font-size="10.00">AI Behaviors/NeuralNetworks.h</text>
</a>
</g>
</g>
<!-- Node2 -->
<g id="Node000002" class="node">
<title>Node2</title>
<g id="a_Node000002"><a xlink:href="_game_8h.html" target="_top" xlink:title=" ">
<polygon fill="white" stroke="#666666" points="178.75,-76 71.25,-76 71.25,-56 178.75,-56 178.75,-76"/>
<text text-anchor="middle" x="125" y="-62.5" font-family="Helvetica,sans-Serif" font-size="10.00">AI Behaviors/Game.h</text>
</a>
</g>
</g>
<!-- Node1&#45;&gt;Node2 -->
<g id="edge1_Node000001_Node000002" class="edge">
<title>Node1&#45;&gt;Node2</title>
<g id="a_edge1_Node000001_Node000002"><a xlink:title=" ">
<path fill="none" stroke="#63b8ff" d="M178.48,-105C165.42,-95.72 149.42,-84.35 138.34,-76.48"/>
<polygon fill="#63b8ff" stroke="#63b8ff" points="176.35,-107.78 186.53,-110.72 180.4,-102.07 176.35,-107.78"/>
</a>
</g>
</g>
<!-- Node5 -->
<g id="Node000005" class="node">
<title>Node5</title>
<g id="a_Node000005"><a xlink:href="_neural_networks_8cpp.html" target="_top" xlink:title=" ">
<polygon fill="white" stroke="#666666" points="357,-76 197,-76 197,-56 357,-56 357,-76"/>
<text text-anchor="middle" x="277" y="-62.5" font-family="Helvetica,sans-Serif" font-size="10.00">AI Behaviors/NeuralNetworks.cpp</text>
</a>
</g>
</g>
<!-- Node1&#45;&gt;Node5 -->
<g id="edge4_Node000001_Node000005" class="edge">
<title>Node1&#45;&gt;Node5</title>
<g id="a_edge4_Node000001_Node000005"><a xlink:title=" ">
<path fill="none" stroke="#63b8ff" d="M223.52,-105C236.58,-95.72 252.58,-84.35 263.66,-76.48"/>
<polygon fill="#63b8ff" stroke="#63b8ff" points="221.6,-102.07 215.47,-110.72 225.65,-107.78 221.6,-102.07"/>
</a>
</g>
</g>
<!-- Node3 -->
<g id="Node000003" class="node">
<title>Node3</title>
<g id="a_Node000003"><a xlink:href="_game_8cpp.html" target="_top" xlink:title=" ">
<polygon fill="white" stroke="#666666" points="118,-20 0,-20 0,0 118,0 118,-20"/>
<text text-anchor="middle" x="59" y="-6.5" font-family="Helvetica,sans-Serif" font-size="10.00">AI Behaviors/Game.cpp</text>
</a>
</g>
</g>
<!-- Node2&#45;&gt;Node3 -->
<g id="edge2_Node000002_Node000003" class="edge">
<title>Node2&#45;&gt;Node3</title>
<g id="a_edge2_Node000002_Node000003"><a xlink:title=" ">
<path fill="none" stroke="#63b8ff" d="M104.71,-48.4C93.42,-39.17 79.79,-28.01 70.36,-20.3"/>
<polygon fill="#63b8ff" stroke="#63b8ff" points="102.38,-51.01 112.33,-54.64 106.81,-45.59 102.38,-51.01"/>
</a>
</g>
</g>
<!-- Node4 -->
<g id="Node000004" class="node">
<title>Node4</title>
<g id="a_Node000004"><a xlink:href="main_8cpp.html" target="_top" xlink:title=" ">
<polygon fill="white" stroke="#666666" points="248.38,-20 135.62,-20 135.62,0 248.38,0 248.38,-20"/>
<text text-anchor="middle" x="192" y="-6.5" font-family="Helvetica,sans-Serif" font-size="10.00">AI Behaviors/main.cpp</text>
</a>
</g>
</g>
<!-- Node2&#45;&gt;Node4 -->
<g id="edge3_Node000002_Node000004" class="edge">
<title>Node2&#45;&gt;Node4</title>
<g id="a_edge3_Node000002_Node000004"><a xlink:title=" ">
<path fill="none" stroke="#63b8ff" d="M145.59,-48.4C157.05,-39.17 170.9,-28.01 180.46,-20.3"/>
<polygon fill="#63b8ff" stroke="#63b8ff" points="143.44,-45.64 137.85,-54.64 147.83,-51.09 143.44,-45.64"/>
</a>
</g>
</g>
</g>
</svg>
</svg>

<style type='text/css'>
<![CDATA[
[data-mouse-over-selected='false'] { opacity: 0.7; }
[data-mouse-over-selected='true']  { opacity: 1.0; }
]]>
</style>
<script type="application/ecmascript"><![CDATA[
document.addEventListener('DOMContentLoaded', (event) => {
  highlightEdges();
  highlightAdjacentNodes();
});
]]></script>
</svg>
