<?xml version="1.0" encoding="UTF-8" standalone="no"?>
<!DOCTYPE svg PUBLIC "-//W3C//DTD SVG 1.1//EN"
 "http://www.w3.org/Graphics/SVG/1.1/DTD/svg11.dtd">
<!-- Generated by graphviz version 10.0.1 (20240210.2158)
 -->
<!-- Title: AI Behaviors/NeuralNetworks.h Pages: 1 -->
<svg width="411pt" height="140pt"
 viewBox="0.00 0.00 410.62 140.00" xmlns="http://www.w3.org/2000/svg" xmlns:xlink="http://www.w3.org/1999/xlink">
<g id="graph0" class="graph" transform="scale(1 1) rotate(0) translate(4 136)">
<title>AI Behaviors/NeuralNetworks.h</title>
<!-- Node1 -->
<g id="Node000001" class="node">
<title>Node1</title>
<g id="a_Node000001"><a xlink:title=" ">
<polygon fill="#999999" stroke="#666666" points="291.5,-132 142,-132 142,-112 291.5,-112 291.5,-132"/>
<text text-anchor="middle" x="216.75" y="-118.5" font-family="Helvetica,sans-Serif" font-size="10.00">AI Behaviors/NeuralNetworks.h</text>
</a>
</g>
</g>
<!-- Node2 -->
<g id="Node000002" class="node">
<title>Node2</title>
<g id="a_Node000002"><a xlink:title=" ">
<polygon fill="#e0e0e0" stroke="#999999" points="53.5,-76 0,-76 0,-56 53.5,-56 53.5,-76"/>
<text text-anchor="middle" x="26.75" y="-62.5" font-family="Helvetica,sans-Serif" font-size="10.00">iostream</text>
</a>
</g>
</g>
<!-- Node1&#45;&gt;Node2 -->
<g id="edge1_Node000001_Node000002" class="edge">
<title>Node1&#45;&gt;Node2</title>
<g id="a_edge1_Node000001_Node000002"><a xlink:title=" ">
<path fill="none" stroke="#63b8ff" d="M183.65,-111.59C150.46,-102.16 99.41,-87.65 64.62,-77.76"/>
<polygon fill="#63b8ff" stroke="#63b8ff" points="65.97,-74.51 55.39,-75.14 64.05,-81.24 65.97,-74.51"/>
</a>
</g>
</g>
<!-- Node3 -->
<g id="Node000003" class="node">
<title>Node3</title>
<g id="a_Node000003"><a xlink:title=" ">
<polygon fill="#e0e0e0" stroke="#999999" points="174.25,-76 71.25,-76 71.25,-56 174.25,-56 174.25,-76"/>
<text text-anchor="middle" x="122.75" y="-62.5" font-family="Helvetica,sans-Serif" font-size="10.00">SFML/Graphics.hpp</text>
</a>
</g>
</g>
<!-- Node1&#45;&gt;Node3 -->
<g id="edge2_Node000001_Node000003" class="edge">
<title>Node1&#45;&gt;Node3</title>
<g id="a_edge2_Node000001_Node000003"><a xlink:title=" ">
<path fill="none" stroke="#63b8ff" d="M200.38,-111.59C186.18,-103.44 165.37,-91.48 148.87,-82"/>
<polygon fill="#63b8ff" stroke="#63b8ff" points="150.98,-79.18 140.56,-77.23 147.49,-85.25 150.98,-79.18"/>
</a>
</g>
</g>
<!-- Node4 -->
<g id="Node000004" class="node">
<title>Node4</title>
<g id="a_Node000004"><a xlink:title=" ">
<polygon fill="#e0e0e0" stroke="#999999" points="240.88,-76 192.62,-76 192.62,-56 240.88,-56 240.88,-76"/>
<text text-anchor="middle" x="216.75" y="-62.5" font-family="Helvetica,sans-Serif" font-size="10.00">random</text>
</a>
</g>
</g>
<!-- Node1&#45;&gt;Node4 -->
<g id="edge3_Node000001_Node000004" class="edge">
<title>Node1&#45;&gt;Node4</title>
<g id="a_edge3_Node000001_Node000004"><a xlink:title=" ">
<path fill="none" stroke="#63b8ff" d="M216.75,-111.59C216.75,-105.01 216.75,-95.96 216.75,-87.73"/>
<polygon fill="#63b8ff" stroke="#63b8ff" points="220.25,-87.81 216.75,-77.81 213.25,-87.81 220.25,-87.81"/>
</a>
</g>
</g>
<!-- Node5 -->
<g id="Node000005" class="node">
<title>Node5</title>
<g id="a_Node000005"><a xlink:href="_global_8h.html" target="_top" xlink:title=" ">
<polygon fill="white" stroke="#666666" points="310.75,-76 258.75,-76 258.75,-56 310.75,-56 310.75,-76"/>
<text text-anchor="middle" x="284.75" y="-62.5" font-family="Helvetica,sans-Serif" font-size="10.00">Global.h</text>
</a>
</g>
</g>
<!-- Node1&#45;&gt;Node5 -->
<g id="edge4_Node000001_Node000005" class="edge">
<title>Node1&#45;&gt;Node5</title>
<g id="a_edge4_Node000001_Node000005"><a xlink:title=" ">
<path fill="none" stroke="#63b8ff" d="M228.59,-111.59C238.44,-103.77 252.68,-92.46 264.36,-83.19"/>
<polygon fill="#63b8ff" stroke="#63b8ff" points="266.2,-86.2 271.86,-77.24 261.85,-80.72 266.2,-86.2"/>
</a>
</g>
</g>
<!-- Node9 -->
<g id="Node000009" class="node">
<title>Node9</title>
<g id="a_Node000009"><a xlink:href="_game_state_8h.html" target="_top" xlink:title=" ">
<polygon fill="white" stroke="#666666" points="402.62,-76 328.88,-76 328.88,-56 402.62,-56 402.62,-76"/>
<text text-anchor="middle" x="365.75" y="-62.5" font-family="Helvetica,sans-Serif" font-size="10.00">GameState.h</text>
</a>
</g>
</g>
<!-- Node1&#45;&gt;Node9 -->
<g id="edge8_Node000001_Node000009" class="edge">
<title>Node1&#45;&gt;Node9</title>
<g id="a_edge8_Node000001_Node000009"><a xlink:title=" ">
<path fill="none" stroke="#63b8ff" d="M242.7,-111.59C266.59,-102.94 302.28,-90 329.08,-80.29"/>
<polygon fill="#63b8ff" stroke="#63b8ff" points="329.96,-83.69 338.17,-77 327.58,-77.11 329.96,-83.69"/>
</a>
</g>
</g>
<!-- Node6 -->
<g id="Node000006" class="node">
<title>Node6</title>
<g id="a_Node000006"><a xlink:title=" ">
<polygon fill="#e0e0e0" stroke="#999999" points="247.5,-20 206,-20 206,0 247.5,0 247.5,-20"/>
<text text-anchor="middle" x="226.75" y="-6.5" font-family="Helvetica,sans-Serif" font-size="10.00">vector</text>
</a>
</g>
</g>
<!-- Node5&#45;&gt;Node6 -->
<g id="edge5_Node000005_Node000006" class="edge">
<title>Node5&#45;&gt;Node6</title>
<g id="a_edge5_Node000005_Node000006"><a xlink:title=" ">
<path fill="none" stroke="#63b8ff" d="M274.65,-55.59C266.5,-48.01 254.82,-37.13 245.03,-28.02"/>
<polygon fill="#63b8ff" stroke="#63b8ff" points="247.55,-25.58 237.84,-21.33 242.78,-30.71 247.55,-25.58"/>
</a>
</g>
</g>
<!-- Node7 -->
<g id="Node000007" class="node">
<title>Node7</title>
<g id="a_Node000007"><a xlink:title=" ">
<polygon fill="#e0e0e0" stroke="#999999" points="303.62,-20 265.88,-20 265.88,0 303.62,0 303.62,-20"/>
<text text-anchor="middle" x="284.75" y="-6.5" font-family="Helvetica,sans-Serif" font-size="10.00">array</text>
</a>
</g>
</g>
<!-- Node5&#45;&gt;Node7 -->
<g id="edge6_Node000005_Node000007" class="edge">
<title>Node5&#45;&gt;Node7</title>
<g id="a_edge6_Node000005_Node000007"><a xlink:title=" ">
<path fill="none" stroke="#63b8ff" d="M284.75,-55.59C284.75,-49.01 284.75,-39.96 284.75,-31.73"/>
<polygon fill="#63b8ff" stroke="#63b8ff" points="288.25,-31.81 284.75,-21.81 281.25,-31.81 288.25,-31.81"/>
</a>
</g>
</g>
<!-- Node8 -->
<g id="Node000008" class="node">
<title>Node8</title>
<g id="a_Node000008"><a xlink:title=" ">
<polygon fill="#e0e0e0" stroke="#999999" points="367.38,-20 322.12,-20 322.12,0 367.38,0 367.38,-20"/>
<text text-anchor="middle" x="344.75" y="-6.5" font-family="Helvetica,sans-Serif" font-size="10.00">chrono</text>
</a>
</g>
</g>
<!-- Node5&#45;&gt;Node8 -->
<g id="edge7_Node000005_Node000008" class="edge">
<title>Node5&#45;&gt;Node8</title>
<g id="a_edge7_Node000005_Node000008"><a xlink:title=" ">
<path fill="none" stroke="#63b8ff" d="M295.2,-55.59C303.72,-47.93 315.96,-36.91 326.14,-27.75"/>
<polygon fill="#63b8ff" stroke="#63b8ff" points="328.2,-30.6 333.29,-21.31 323.52,-25.4 328.2,-30.6"/>
</a>
</g>
</g>
</g>
</svg>
