<?xml version="1.0" encoding="UTF-8" standalone="no"?>
<!DOCTYPE svg PUBLIC "-//W3C//DTD SVG 1.1//EN"
 "http://www.w3.org/Graphics/SVG/1.1/DTD/svg11.dtd">
<!-- Generated by graphviz version 10.0.1 (20240210.2158)
 -->
<!-- Title: AI Behaviors/ParticleSystem.h Pages: 1 -->
<svg width="2143pt" height="420pt"
 viewBox="0.00 0.00 2142.75 420.00" xmlns="http://www.w3.org/2000/svg" xmlns:xlink="http://www.w3.org/1999/xlink">
<g id="graph0" class="graph" transform="scale(1 1) rotate(0) translate(4 416)">
<title>AI Behaviors/ParticleSystem.h</title>
<!-- Node1 -->
<g id="Node000001" class="node">
<title>Node1</title>
<g id="a_Node000001"><a xlink:title=" ">
<polygon fill="#999999" stroke="#666666" points="1882.5,-412 1734.5,-412 1734.5,-392 1882.5,-392 1882.5,-412"/>
<text text-anchor="middle" x="1808.5" y="-398.5" font-family="Helvetica,sans-Serif" font-size="10.00">AI Behaviors/ParticleSystem.h</text>
</a>
</g>
</g>
<!-- Node2 -->
<g id="Node000002" class="node">
<title>Node2</title>
<g id="a_Node000002"><a xlink:href="_building_8h.html" target="_top" xlink:title=" ">
<polygon fill="white" stroke="#666666" points="746.38,-356 630.62,-356 630.62,-336 746.38,-336 746.38,-356"/>
<text text-anchor="middle" x="688.5" y="-342.5" font-family="Helvetica,sans-Serif" font-size="10.00">AI Behaviors/Building.h</text>
</a>
</g>
</g>
<!-- Node1&#45;&gt;Node2 -->
<g id="edge1_Node000001_Node000002" class="edge">
<title>Node1&#45;&gt;Node2</title>
<g id="a_edge1_Node000001_Node000002"><a xlink:title=" ">
<path fill="none" stroke="#63b8ff" d="M1722.77,-396.87C1504.41,-386.34 931.54,-358.72 746.81,-349.81"/>
<polygon fill="#63b8ff" stroke="#63b8ff" points="1722.48,-400.36 1732.63,-397.34 1722.81,-393.36 1722.48,-400.36"/>
</a>
</g>
</g>
<!-- Node7 -->
<g id="Node000007" class="node">
<title>Node7</title>
<g id="a_Node000007"><a xlink:href="_game_8h.html" target="_top" xlink:title=" ">
<polygon fill="white" stroke="#666666" points="1491.25,-76 1383.75,-76 1383.75,-56 1491.25,-56 1491.25,-76"/>
<text text-anchor="middle" x="1437.5" y="-62.5" font-family="Helvetica,sans-Serif" font-size="10.00">AI Behaviors/Game.h</text>
</a>
</g>
</g>
<!-- Node1&#45;&gt;Node7 -->
<g id="edge49_Node000001_Node000007" class="edge">
<title>Node1&#45;&gt;Node7</title>
<g id="a_edge49_Node000001_Node000007"><a xlink:title=" ">
<path fill="none" stroke="#63b8ff" d="M1851.25,-387.66C1892.42,-371.83 1948.5,-341.08 1948.5,-291 1948.5,-291 1948.5,-291 1948.5,-177 1948.5,-146.9 1952.74,-131.13 1929.5,-112 1896.27,-84.64 1612.61,-72.52 1491.71,-68.56"/>
<polygon fill="#63b8ff" stroke="#63b8ff" points="1850.23,-384.31 1842.04,-391.03 1852.63,-390.88 1850.23,-384.31"/>
</a>
</g>
</g>
<!-- Node19 -->
<g id="Node000019" class="node">
<title>Node19</title>
<g id="a_Node000019"><a xlink:href="_unit_8h.html" target="_top" xlink:title=" ">
<polygon fill="white" stroke="#666666" points="1367.75,-300 1269.25,-300 1269.25,-280 1367.75,-280 1367.75,-300"/>
<text text-anchor="middle" x="1318.5" y="-286.5" font-family="Helvetica,sans-Serif" font-size="10.00">AI Behaviors/Unit.h</text>
</a>
</g>
</g>
<!-- Node1&#45;&gt;Node19 -->
<g id="edge51_Node000001_Node000019" class="edge">
<title>Node1&#45;&gt;Node19</title>
<g id="a_edge51_Node000001_Node000019"><a xlink:title=" ">
<path fill="none" stroke="#63b8ff" d="M1755.17,-389.03C1657.09,-367.01 1449.93,-320.51 1360.77,-300.49"/>
<polygon fill="#63b8ff" stroke="#63b8ff" points="1754.3,-392.42 1764.82,-391.19 1755.83,-385.59 1754.3,-392.42"/>
</a>
</g>
</g>
<!-- Node39 -->
<g id="Node000039" class="node">
<title>Node39</title>
<g id="a_Node000039"><a xlink:href="_particle_system_8cpp.html" target="_top" xlink:title=" ">
<polygon fill="white" stroke="#666666" points="2134.75,-356 1976.25,-356 1976.25,-336 2134.75,-336 2134.75,-356"/>
<text text-anchor="middle" x="2055.5" y="-342.5" font-family="Helvetica,sans-Serif" font-size="10.00">AI Behaviors/ParticleSystem.cpp</text>
</a>
</g>
</g>
<!-- Node1&#45;&gt;Node39 -->
<g id="edge50_Node000001_Node000039" class="edge">
<title>Node1&#45;&gt;Node39</title>
<g id="a_edge50_Node000001_Node000039"><a xlink:title=" ">
<path fill="none" stroke="#63b8ff" d="M1862.81,-389.13C1907.73,-379.31 1970.68,-365.54 2012.24,-356.46"/>
<polygon fill="#63b8ff" stroke="#63b8ff" points="1862.31,-385.65 1853.29,-391.21 1863.8,-392.49 1862.31,-385.65"/>
</a>
</g>
</g>
<!-- Node3 -->
<g id="Node000003" class="node">
<title>Node3</title>
<g id="a_Node000003"><a xlink:href="_air_craft_8h.html" target="_top" xlink:title=" ">
<polygon fill="white" stroke="#666666" points="673.25,-300 559.75,-300 559.75,-280 673.25,-280 673.25,-300"/>
<text text-anchor="middle" x="616.5" y="-286.5" font-family="Helvetica,sans-Serif" font-size="10.00">AI Behaviors/AirCraft.h</text>
</a>
</g>
</g>
<!-- Node2&#45;&gt;Node3 -->
<g id="edge2_Node000002_Node000003" class="edge">
<title>Node2&#45;&gt;Node3</title>
<g id="a_edge2_Node000002_Node000003"><a xlink:title=" ">
<path fill="none" stroke="#63b8ff" d="M667.11,-328.95C654.65,-319.61 639.39,-308.16 628.9,-300.3"/>
<polygon fill="#63b8ff" stroke="#63b8ff" points="664.65,-331.49 674.75,-334.69 668.85,-325.89 664.65,-331.49"/>
</a>
</g>
</g>
<!-- Node10 -->
<g id="Node000010" class="node">
<title>Node10</title>
<g id="a_Node000010"><a xlink:href="_barracks_8h.html" target="_top" xlink:title=" ">
<polygon fill="white" stroke="#666666" points="397.62,-300 277.38,-300 277.38,-280 397.62,-280 397.62,-300"/>
<text text-anchor="middle" x="337.5" y="-286.5" font-family="Helvetica,sans-Serif" font-size="10.00">AI Behaviors/Barracks.h</text>
</a>
</g>
</g>
<!-- Node2&#45;&gt;Node10 -->
<g id="edge9_Node000002_Node000010" class="edge">
<title>Node2&#45;&gt;Node10</title>
<g id="a_edge9_Node000002_Node000010"><a xlink:title=" ">
<path fill="none" stroke="#63b8ff" d="M618.87,-334.29C554.39,-324.37 459.47,-309.76 398.06,-300.32"/>
<polygon fill="#63b8ff" stroke="#63b8ff" points="618.23,-337.73 628.65,-335.79 619.3,-330.81 618.23,-337.73"/>
</a>
</g>
</g>
<!-- Node12 -->
<g id="Node000012" class="node">
<title>Node12</title>
<g id="a_Node000012"><a xlink:href="_building_8cpp.html" target="_top" xlink:title=" ">
<polygon fill="white" stroke="#666666" points="541.62,-300 415.38,-300 415.38,-280 541.62,-280 541.62,-300"/>
<text text-anchor="middle" x="478.5" y="-286.5" font-family="Helvetica,sans-Serif" font-size="10.00">AI Behaviors/Building.cpp</text>
</a>
</g>
</g>
<!-- Node2&#45;&gt;Node12 -->
<g id="edge12_Node000002_Node000012" class="edge">
<title>Node2&#45;&gt;Node12</title>
<g id="a_edge12_Node000002_Node000012"><a xlink:title=" ">
<path fill="none" stroke="#63b8ff" d="M641.11,-332.81C603.03,-323.02 550.33,-309.47 515.36,-300.48"/>
<polygon fill="#63b8ff" stroke="#63b8ff" points="639.9,-336.12 650.45,-335.22 641.64,-329.34 639.9,-336.12"/>
</a>
</g>
</g>
<!-- Node13 -->
<g id="Node000013" class="node">
<title>Node13</title>
<g id="a_Node000013"><a xlink:href="_headquarters_8h.html" target="_top" xlink:title=" ">
<polygon fill="white" stroke="#666666" points="830,-300 691,-300 691,-280 830,-280 830,-300"/>
<text text-anchor="middle" x="760.5" y="-286.5" font-family="Helvetica,sans-Serif" font-size="10.00">AI Behaviors/Headquarters.h</text>
</a>
</g>
</g>
<!-- Node2&#45;&gt;Node13 -->
<g id="edge13_Node000002_Node000013" class="edge">
<title>Node2&#45;&gt;Node13</title>
<g id="a_edge13_Node000002_Node000013"><a xlink:title=" ">
<path fill="none" stroke="#63b8ff" d="M709.89,-328.95C722.35,-319.61 737.61,-308.16 748.1,-300.3"/>
<polygon fill="#63b8ff" stroke="#63b8ff" points="708.15,-325.89 702.25,-334.69 712.35,-331.49 708.15,-325.89"/>
</a>
</g>
</g>
<!-- Node15 -->
<g id="Node000015" class="node">
<title>Node15</title>
<g id="a_Node000015"><a xlink:href="_refinery_8h.html" target="_top" xlink:title=" ">
<polygon fill="white" stroke="#666666" points="263.75,-244 147.25,-244 147.25,-224 263.75,-224 263.75,-244"/>
<text text-anchor="middle" x="205.5" y="-230.5" font-family="Helvetica,sans-Serif" font-size="10.00">AI Behaviors/Refinery.h</text>
</a>
</g>
</g>
<!-- Node2&#45;&gt;Node15 -->
<g id="edge16_Node000002_Node000015" class="edge">
<title>Node2&#45;&gt;Node15</title>
<g id="a_edge16_Node000002_Node000015"><a xlink:title=" ">
<path fill="none" stroke="#63b8ff" d="M619.24,-343.25C516.3,-339.71 328.61,-329.33 268.5,-300 242.23,-287.18 220.88,-258.68 211.16,-244.05"/>
<polygon fill="#63b8ff" stroke="#63b8ff" points="618.82,-346.74 628.94,-343.57 619.06,-339.74 618.82,-346.74"/>
</a>
</g>
</g>
<!-- Node2&#45;&gt;Node19 -->
<g id="edge22_Node000002_Node000019" class="edge">
<title>Node2&#45;&gt;Node19</title>
<g id="a_edge22_Node000002_Node000019"><a xlink:title=" ">
<path fill="none" stroke="#63b8ff" d="M757.85,-339.06C886.07,-328.07 1157.27,-304.82 1268.9,-295.25"/>
<polygon fill="#63b8ff" stroke="#63b8ff" points="757.81,-335.55 748.15,-339.89 758.41,-342.52 757.81,-335.55"/>
</a>
</g>
</g>
<!-- Node37 -->
<g id="Node000037" class="node">
<title>Node37</title>
<g id="a_Node000037"><a xlink:href="_war_factory_8h.html" target="_top" xlink:title=" ">
<polygon fill="white" stroke="#666666" points="980.62,-300 848.38,-300 848.38,-280 980.62,-280 980.62,-300"/>
<text text-anchor="middle" x="914.5" y="-286.5" font-family="Helvetica,sans-Serif" font-size="10.00">AI Behaviors/WarFactory.h</text>
</a>
</g>
</g>
<!-- Node2&#45;&gt;Node37 -->
<g id="edge46_Node000002_Node000037" class="edge">
<title>Node2&#45;&gt;Node37</title>
<g id="a_edge46_Node000002_Node000037"><a xlink:title=" ">
<path fill="none" stroke="#63b8ff" d="M739.25,-332.88C780.27,-323.07 837.21,-309.47 874.92,-300.46"/>
<polygon fill="#63b8ff" stroke="#63b8ff" points="738.51,-329.45 729.6,-335.18 740.14,-336.26 738.51,-329.45"/>
</a>
</g>
</g>
<!-- Node4 -->
<g id="Node000004" class="node">
<title>Node4</title>
<g id="a_Node000004"><a xlink:href="_air_craft_8cpp.html" target="_top" xlink:title=" ">
<polygon fill="white" stroke="#666666" points="591.5,-244 467.5,-244 467.5,-224 591.5,-224 591.5,-244"/>
<text text-anchor="middle" x="529.5" y="-230.5" font-family="Helvetica,sans-Serif" font-size="10.00">AI Behaviors/AirCraft.cpp</text>
</a>
</g>
</g>
<!-- Node3&#45;&gt;Node4 -->
<g id="edge3_Node000003_Node000004" class="edge">
<title>Node3&#45;&gt;Node4</title>
<g id="a_edge3_Node000003_Node000004"><a xlink:title=" ">
<path fill="none" stroke="#63b8ff" d="M591.6,-273.54C576.49,-264.17 557.7,-252.51 544.77,-244.48"/>
<polygon fill="#63b8ff" stroke="#63b8ff" points="589.72,-276.5 600.06,-278.8 593.41,-270.55 589.72,-276.5"/>
</a>
</g>
</g>
<!-- Node5 -->
<g id="Node000005" class="node">
<title>Node5</title>
<g id="a_Node000005"><a xlink:href="_g_u_i_8h.html" target="_top" xlink:title=" ">
<polygon fill="white" stroke="#666666" points="798.38,-132 700.62,-132 700.62,-112 798.38,-112 798.38,-132"/>
<text text-anchor="middle" x="749.5" y="-118.5" font-family="Helvetica,sans-Serif" font-size="10.00">AI Behaviors/GUI.h</text>
</a>
</g>
</g>
<!-- Node3&#45;&gt;Node5 -->
<g id="edge4_Node000003_Node000005" class="edge">
<title>Node3&#45;&gt;Node5</title>
<g id="a_edge4_Node000003_Node000005"><a xlink:title=" ">
<path fill="none" stroke="#63b8ff" d="M621.56,-268.68C628.88,-242.73 644.58,-197.66 671.5,-168 686.21,-151.79 708.16,-139.85 725.03,-132.36"/>
<polygon fill="#63b8ff" stroke="#63b8ff" points="618.2,-267.7 619.02,-278.26 624.96,-269.5 618.2,-267.7"/>
</a>
</g>
</g>
<!-- Node6 -->
<g id="Node000006" class="node">
<title>Node6</title>
<g id="a_Node000006"><a xlink:href="_g_u_i_8cpp.html" target="_top" xlink:title=" ">
<polygon fill="white" stroke="#666666" points="803.62,-76 695.38,-76 695.38,-56 803.62,-56 803.62,-76"/>
<text text-anchor="middle" x="749.5" y="-62.5" font-family="Helvetica,sans-Serif" font-size="10.00">AI Behaviors/GUI.cpp</text>
</a>
</g>
</g>
<!-- Node5&#45;&gt;Node6 -->
<g id="edge5_Node000005_Node000006" class="edge">
<title>Node5&#45;&gt;Node6</title>
<g id="a_edge5_Node000005_Node000006"><a xlink:title=" ">
<path fill="none" stroke="#63b8ff" d="M749.5,-100.13C749.5,-91.9 749.5,-82.85 749.5,-76.3"/>
<polygon fill="#63b8ff" stroke="#63b8ff" points="746,-100.08 749.5,-110.08 753,-100.08 746,-100.08"/>
</a>
</g>
</g>
<!-- Node5&#45;&gt;Node7 -->
<g id="edge6_Node000005_Node000007" class="edge">
<title>Node5&#45;&gt;Node7</title>
<g id="a_edge6_Node000005_Node000007"><a xlink:title=" ">
<path fill="none" stroke="#63b8ff" d="M809.81,-116.08C826.25,-114.74 844.06,-113.31 860.5,-112 1052.81,-96.7 1281.22,-79.04 1383.4,-71.16"/>
<polygon fill="#63b8ff" stroke="#63b8ff" points="809.87,-112.56 800.18,-116.86 810.43,-119.54 809.87,-112.56"/>
</a>
</g>
</g>
<!-- Node8 -->
<g id="Node000008" class="node">
<title>Node8</title>
<g id="a_Node000008"><a xlink:href="_game_8cpp.html" target="_top" xlink:title=" ">
<polygon fill="white" stroke="#666666" points="1430.5,-20 1312.5,-20 1312.5,0 1430.5,0 1430.5,-20"/>
<text text-anchor="middle" x="1371.5" y="-6.5" font-family="Helvetica,sans-Serif" font-size="10.00">AI Behaviors/Game.cpp</text>
</a>
</g>
</g>
<!-- Node7&#45;&gt;Node8 -->
<g id="edge7_Node000007_Node000008" class="edge">
<title>Node7&#45;&gt;Node8</title>
<g id="a_edge7_Node000007_Node000008"><a xlink:title=" ">
<path fill="none" stroke="#63b8ff" d="M1417.21,-48.4C1405.92,-39.17 1392.29,-28.01 1382.86,-20.3"/>
<polygon fill="#63b8ff" stroke="#63b8ff" points="1414.88,-51.01 1424.83,-54.64 1419.31,-45.59 1414.88,-51.01"/>
</a>
</g>
</g>
<!-- Node9 -->
<g id="Node000009" class="node">
<title>Node9</title>
<g id="a_Node000009"><a xlink:href="main_8cpp.html" target="_top" xlink:title=" ">
<polygon fill="white" stroke="#666666" points="1560.88,-20 1448.12,-20 1448.12,0 1560.88,0 1560.88,-20"/>
<text text-anchor="middle" x="1504.5" y="-6.5" font-family="Helvetica,sans-Serif" font-size="10.00">AI Behaviors/main.cpp</text>
</a>
</g>
</g>
<!-- Node7&#45;&gt;Node9 -->
<g id="edge8_Node000007_Node000009" class="edge">
<title>Node7&#45;&gt;Node9</title>
<g id="a_edge8_Node000007_Node000009"><a xlink:title=" ">
<path fill="none" stroke="#63b8ff" d="M1458.09,-48.4C1469.55,-39.17 1483.4,-28.01 1492.96,-20.3"/>
<polygon fill="#63b8ff" stroke="#63b8ff" points="1455.94,-45.64 1450.35,-54.64 1460.33,-51.09 1455.94,-45.64"/>
</a>
</g>
</g>
<!-- Node10&#45;&gt;Node5 -->
<g id="edge11_Node000010_Node000005" class="edge">
<title>Node10&#45;&gt;Node5</title>
<g id="a_edge11_Node000010_Node000005"><a xlink:title=" ">
<path fill="none" stroke="#63b8ff" d="M320.73,-271.11C309.77,-257.2 299.37,-237.98 310.5,-224 358.84,-163.27 596.16,-136 700.32,-126.81"/>
<polygon fill="#63b8ff" stroke="#63b8ff" points="318,-273.3 327.17,-278.62 323.31,-268.75 318,-273.3"/>
</a>
</g>
</g>
<!-- Node11 -->
<g id="Node000011" class="node">
<title>Node11</title>
<g id="a_Node000011"><a xlink:href="_barracks_8cpp.html" target="_top" xlink:title=" ">
<polygon fill="white" stroke="#666666" points="449.88,-244 319.12,-244 319.12,-224 449.88,-224 449.88,-244"/>
<text text-anchor="middle" x="384.5" y="-230.5" font-family="Helvetica,sans-Serif" font-size="10.00">AI Behaviors/Barracks.cpp</text>
</a>
</g>
</g>
<!-- Node10&#45;&gt;Node11 -->
<g id="edge10_Node000010_Node000011" class="edge">
<title>Node10&#45;&gt;Node11</title>
<g id="a_edge10_Node000010_Node000011"><a xlink:title=" ">
<path fill="none" stroke="#63b8ff" d="M353.16,-271C360.95,-262.06 370.03,-251.62 376.41,-244.3"/>
<polygon fill="#63b8ff" stroke="#63b8ff" points="350.61,-268.61 346.68,-278.45 355.89,-273.21 350.61,-268.61"/>
</a>
</g>
</g>
<!-- Node13&#45;&gt;Node5 -->
<g id="edge14_Node000013_Node000005" class="edge">
<title>Node13&#45;&gt;Node5</title>
<g id="a_edge14_Node000013_Node000005"><a xlink:title=" ">
<path fill="none" stroke="#63b8ff" d="M715.1,-275.37C700.14,-268.48 685.13,-258.42 676.5,-244 667.97,-229.75 669.86,-190.33 683.5,-168 693.48,-151.67 711.88,-139.87 726.72,-132.46"/>
<polygon fill="#63b8ff" stroke="#63b8ff" points="713.4,-278.45 723.97,-279.07 716.09,-271.99 713.4,-278.45"/>
</a>
</g>
</g>
<!-- Node14 -->
<g id="Node000014" class="node">
<title>Node14</title>
<g id="a_Node000014"><a xlink:href="_headquarters_8cpp.html" target="_top" xlink:title=" ">
<polygon fill="white" stroke="#666666" points="835.25,-244 685.75,-244 685.75,-224 835.25,-224 835.25,-244"/>
<text text-anchor="middle" x="760.5" y="-230.5" font-family="Helvetica,sans-Serif" font-size="10.00">AI Behaviors/Headquarters.cpp</text>
</a>
</g>
</g>
<!-- Node13&#45;&gt;Node14 -->
<g id="edge15_Node000013_Node000014" class="edge">
<title>Node13&#45;&gt;Node14</title>
<g id="a_edge15_Node000013_Node000014"><a xlink:title=" ">
<path fill="none" stroke="#63b8ff" d="M760.5,-268.13C760.5,-259.9 760.5,-250.85 760.5,-244.3"/>
<polygon fill="#63b8ff" stroke="#63b8ff" points="757,-268.08 760.5,-278.08 764,-268.08 757,-268.08"/>
</a>
</g>
</g>
<!-- Node15&#45;&gt;Node5 -->
<g id="edge17_Node000015_Node000005" class="edge">
<title>Node15&#45;&gt;Node5</title>
<g id="a_edge17_Node000015_Node000005"><a xlink:title=" ">
<path fill="none" stroke="#63b8ff" d="M229.73,-217.46C257.16,-200.17 300.36,-173.87 318.5,-168 388.47,-145.35 602.93,-131.05 700.39,-125.56"/>
<polygon fill="#63b8ff" stroke="#63b8ff" points="227.93,-214.46 221.36,-222.78 231.68,-220.37 227.93,-214.46"/>
</a>
</g>
</g>
<!-- Node16 -->
<g id="Node000016" class="node">
<title>Node16</title>
<g id="a_Node000016"><a xlink:href="_harvester_8h.html" target="_top" xlink:title=" ">
<polygon fill="white" stroke="#666666" points="266.38,-188 144.62,-188 144.62,-168 266.38,-168 266.38,-188"/>
<text text-anchor="middle" x="205.5" y="-174.5" font-family="Helvetica,sans-Serif" font-size="10.00">AI Behaviors/Harvester.h</text>
</a>
</g>
</g>
<!-- Node15&#45;&gt;Node16 -->
<g id="edge18_Node000015_Node000016" class="edge">
<title>Node15&#45;&gt;Node16</title>
<g id="a_edge18_Node000015_Node000016"><a xlink:title=" ">
<path fill="none" stroke="#63b8ff" d="M205.5,-212.13C205.5,-203.9 205.5,-194.85 205.5,-188.3"/>
<polygon fill="#63b8ff" stroke="#63b8ff" points="202,-212.08 205.5,-222.08 209,-212.08 202,-212.08"/>
</a>
</g>
</g>
<!-- Node18 -->
<g id="Node000018" class="node">
<title>Node18</title>
<g id="a_Node000018"><a xlink:href="_refinery_8cpp.html" target="_top" xlink:title=" ">
<polygon fill="white" stroke="#666666" points="127,-188 0,-188 0,-168 127,-168 127,-188"/>
<text text-anchor="middle" x="63.5" y="-174.5" font-family="Helvetica,sans-Serif" font-size="10.00">AI Behaviors/Refinery.cpp</text>
</a>
</g>
</g>
<!-- Node15&#45;&gt;Node18 -->
<g id="edge21_Node000015_Node000018" class="edge">
<title>Node15&#45;&gt;Node18</title>
<g id="a_edge21_Node000015_Node000018"><a xlink:title=" ">
<path fill="none" stroke="#63b8ff" d="M170.08,-219.53C144.67,-209.87 111.06,-197.08 88.43,-188.48"/>
<polygon fill="#63b8ff" stroke="#63b8ff" points="168.76,-222.77 179.35,-223.06 171.25,-216.23 168.76,-222.77"/>
</a>
</g>
</g>
<!-- Node16&#45;&gt;Node5 -->
<g id="edge19_Node000016_Node000005" class="edge">
<title>Node16&#45;&gt;Node5</title>
<g id="a_edge19_Node000016_Node000005"><a xlink:title=" ">
<path fill="none" stroke="#63b8ff" d="M277.48,-168.33C278.5,-168.22 279.5,-168.11 280.5,-168 433.39,-151.49 614.66,-134.96 700.17,-127.34"/>
<polygon fill="#63b8ff" stroke="#63b8ff" points="277.53,-164.8 267.98,-169.39 278.31,-171.76 277.53,-164.8"/>
</a>
</g>
</g>
<!-- Node17 -->
<g id="Node000017" class="node">
<title>Node17</title>
<g id="a_Node000017"><a xlink:href="_harvester_8cpp.html" target="_top" xlink:title=" ">
<polygon fill="white" stroke="#666666" points="271.62,-132 139.38,-132 139.38,-112 271.62,-112 271.62,-132"/>
<text text-anchor="middle" x="205.5" y="-118.5" font-family="Helvetica,sans-Serif" font-size="10.00">AI Behaviors/Harvester.cpp</text>
</a>
</g>
</g>
<!-- Node16&#45;&gt;Node17 -->
<g id="edge20_Node000016_Node000017" class="edge">
<title>Node16&#45;&gt;Node17</title>
<g id="a_edge20_Node000016_Node000017"><a xlink:title=" ">
<path fill="none" stroke="#63b8ff" d="M205.5,-156.13C205.5,-147.9 205.5,-138.85 205.5,-132.3"/>
<polygon fill="#63b8ff" stroke="#63b8ff" points="202,-156.08 205.5,-166.08 209,-156.08 202,-156.08"/>
</a>
</g>
</g>
<!-- Node20 -->
<g id="Node000020" class="node">
<title>Node20</title>
<g id="a_Node000020"><a xlink:href="_aircraft_unit_8h.html" target="_top" xlink:title=" ">
<polygon fill="white" stroke="#666666" points="1457.12,-244 1327.88,-244 1327.88,-224 1457.12,-224 1457.12,-244"/>
<text text-anchor="middle" x="1392.5" y="-230.5" font-family="Helvetica,sans-Serif" font-size="10.00">AI Behaviors/AircraftUnit.h</text>
</a>
</g>
</g>
<!-- Node19&#45;&gt;Node20 -->
<g id="edge23_Node000019_Node000020" class="edge">
<title>Node19&#45;&gt;Node20</title>
<g id="a_edge23_Node000019_Node000020"><a xlink:title=" ">
<path fill="none" stroke="#63b8ff" d="M1340.49,-272.95C1353.29,-263.61 1368.98,-252.16 1379.76,-244.3"/>
<polygon fill="#63b8ff" stroke="#63b8ff" points="1338.63,-269.98 1332.61,-278.7 1342.75,-275.63 1338.63,-269.98"/>
</a>
</g>
</g>
<!-- Node26 -->
<g id="Node000026" class="node">
<title>Node26</title>
<g id="a_Node000026"><a xlink:href="_infantry_unit_8h.html" target="_top" xlink:title=" ">
<polygon fill="white" stroke="#666666" points="1750.5,-244 1620.5,-244 1620.5,-224 1750.5,-224 1750.5,-244"/>
<text text-anchor="middle" x="1685.5" y="-230.5" font-family="Helvetica,sans-Serif" font-size="10.00">AI Behaviors/InfantryUnit.h</text>
</a>
</g>
</g>
<!-- Node19&#45;&gt;Node26 -->
<g id="edge31_Node000019_Node000026" class="edge">
<title>Node19&#45;&gt;Node26</title>
<g id="a_edge31_Node000019_Node000026"><a xlink:title=" ">
<path fill="none" stroke="#63b8ff" d="M1379.17,-280.07C1445.94,-270.25 1552.84,-254.52 1621.08,-244.48"/>
<polygon fill="#63b8ff" stroke="#63b8ff" points="1378.88,-276.58 1369.49,-281.5 1379.9,-283.5 1378.88,-276.58"/>
</a>
</g>
</g>
<!-- Node30 -->
<g id="Node000030" class="node">
<title>Node30</title>
<g id="a_Node000030"><a xlink:href="_unit_8cpp.html" target="_top" xlink:title=" ">
<polygon fill="white" stroke="#666666" points="1161,-244 1052,-244 1052,-224 1161,-224 1161,-244"/>
<text text-anchor="middle" x="1106.5" y="-230.5" font-family="Helvetica,sans-Serif" font-size="10.00">AI Behaviors/Unit.cpp</text>
</a>
</g>
</g>
<!-- Node19&#45;&gt;Node30 -->
<g id="edge36_Node000019_Node000030" class="edge">
<title>Node19&#45;&gt;Node30</title>
<g id="a_edge36_Node000019_Node000030"><a xlink:title=" ">
<path fill="none" stroke="#63b8ff" d="M1270.65,-276.81C1232.22,-267.02 1179.01,-253.47 1143.72,-244.48"/>
<polygon fill="#63b8ff" stroke="#63b8ff" points="1269.55,-280.14 1280.11,-279.22 1271.28,-273.36 1269.55,-280.14"/>
</a>
</g>
</g>
<!-- Node31 -->
<g id="Node000031" class="node">
<title>Node31</title>
<g id="a_Node000031"><a xlink:href="_vehicle_unit_8h.html" target="_top" xlink:title=" ">
<polygon fill="white" stroke="#666666" points="1309.88,-244 1179.12,-244 1179.12,-224 1309.88,-224 1309.88,-244"/>
<text text-anchor="middle" x="1244.5" y="-230.5" font-family="Helvetica,sans-Serif" font-size="10.00">AI Behaviors/VehicleUnit.h</text>
</a>
</g>
</g>
<!-- Node19&#45;&gt;Node31 -->
<g id="edge37_Node000019_Node000031" class="edge">
<title>Node19&#45;&gt;Node31</title>
<g id="a_edge37_Node000019_Node000031"><a xlink:title=" ">
<path fill="none" stroke="#63b8ff" d="M1296.51,-272.95C1283.71,-263.61 1268.02,-252.16 1257.24,-244.3"/>
<polygon fill="#63b8ff" stroke="#63b8ff" points="1294.25,-275.63 1304.39,-278.7 1298.37,-269.98 1294.25,-275.63"/>
</a>
</g>
</g>
<!-- Node21 -->
<g id="Node000021" class="node">
<title>Node21</title>
<g id="a_Node000021"><a xlink:href="_aircraft_unit_8cpp.html" target="_top" xlink:title=" ">
<polygon fill="white" stroke="#666666" points="1459.38,-188 1319.62,-188 1319.62,-168 1459.38,-168 1459.38,-188"/>
<text text-anchor="middle" x="1389.5" y="-174.5" font-family="Helvetica,sans-Serif" font-size="10.00">AI Behaviors/AircraftUnit.cpp</text>
</a>
</g>
</g>
<!-- Node20&#45;&gt;Node21 -->
<g id="edge24_Node000020_Node000021" class="edge">
<title>Node20&#45;&gt;Node21</title>
<g id="a_edge24_Node000020_Node000021"><a xlink:title=" ">
<path fill="none" stroke="#63b8ff" d="M1391.34,-212.13C1390.88,-203.9 1390.38,-194.85 1390.02,-188.3"/>
<polygon fill="#63b8ff" stroke="#63b8ff" points="1387.84,-212.29 1391.89,-222.08 1394.83,-211.9 1387.84,-212.29"/>
</a>
</g>
</g>
<!-- Node22 -->
<g id="Node000022" class="node">
<title>Node22</title>
<g id="a_Node000022"><a xlink:href="_firehawk_8h.html" target="_top" xlink:title=" ">
<polygon fill="white" stroke="#666666" points="1597.62,-188 1477.38,-188 1477.38,-168 1597.62,-168 1597.62,-188"/>
<text text-anchor="middle" x="1537.5" y="-174.5" font-family="Helvetica,sans-Serif" font-size="10.00">AI Behaviors/Firehawk.h</text>
</a>
</g>
</g>
<!-- Node20&#45;&gt;Node22 -->
<g id="edge25_Node000020_Node000022" class="edge">
<title>Node20&#45;&gt;Node22</title>
<g id="a_edge25_Node000020_Node000022"><a xlink:title=" ">
<path fill="none" stroke="#63b8ff" d="M1428.32,-219.66C1454.31,-209.98 1488.84,-197.12 1512.05,-188.48"/>
<polygon fill="#63b8ff" stroke="#63b8ff" points="1427.33,-216.3 1419.18,-223.07 1429.77,-222.86 1427.33,-216.3"/>
</a>
</g>
</g>
<!-- Node24 -->
<g id="Node000024" class="node">
<title>Node24</title>
<g id="a_Node000024"><a xlink:href="_hammer_head_8h.html" target="_top" xlink:title=" ">
<polygon fill="white" stroke="#666666" points="1301.75,-188 1161.25,-188 1161.25,-168 1301.75,-168 1301.75,-188"/>
<text text-anchor="middle" x="1231.5" y="-174.5" font-family="Helvetica,sans-Serif" font-size="10.00">AI Behaviors/HammerHead.h</text>
</a>
</g>
</g>
<!-- Node20&#45;&gt;Node24 -->
<g id="edge28_Node000020_Node000024" class="edge">
<title>Node20&#45;&gt;Node24</title>
<g id="a_edge28_Node000020_Node000024"><a xlink:title=" ">
<path fill="none" stroke="#63b8ff" d="M1353.89,-220.05C1324.9,-210.33 1285.88,-197.24 1259.76,-188.48"/>
<polygon fill="#63b8ff" stroke="#63b8ff" points="1352.43,-223.25 1363.02,-223.11 1354.65,-216.61 1352.43,-223.25"/>
</a>
</g>
</g>
<!-- Node22&#45;&gt;Node5 -->
<g id="edge27_Node000022_Node000005" class="edge">
<title>Node22&#45;&gt;Node5</title>
<g id="a_edge27_Node000022_Node000005"><a xlink:title=" ">
<path fill="none" stroke="#63b8ff" d="M1465.66,-167.79C1197.1,-142.7 1126.84,-150.68 860.5,-132 840.25,-130.58 817.94,-128.81 798.66,-127.22"/>
<polygon fill="#63b8ff" stroke="#63b8ff" points="1465.15,-171.26 1475.44,-168.71 1465.81,-164.29 1465.15,-171.26"/>
</a>
</g>
</g>
<!-- Node23 -->
<g id="Node000023" class="node">
<title>Node23</title>
<g id="a_Node000023"><a xlink:href="_firehawk_8cpp.html" target="_top" xlink:title=" ">
<polygon fill="white" stroke="#666666" points="1602.88,-132 1472.12,-132 1472.12,-112 1602.88,-112 1602.88,-132"/>
<text text-anchor="middle" x="1537.5" y="-118.5" font-family="Helvetica,sans-Serif" font-size="10.00">AI Behaviors/Firehawk.cpp</text>
</a>
</g>
</g>
<!-- Node22&#45;&gt;Node23 -->
<g id="edge26_Node000022_Node000023" class="edge">
<title>Node22&#45;&gt;Node23</title>
<g id="a_edge26_Node000022_Node000023"><a xlink:title=" ">
<path fill="none" stroke="#63b8ff" d="M1537.5,-156.13C1537.5,-147.9 1537.5,-138.85 1537.5,-132.3"/>
<polygon fill="#63b8ff" stroke="#63b8ff" points="1534,-156.08 1537.5,-166.08 1541,-156.08 1534,-156.08"/>
</a>
</g>
</g>
<!-- Node24&#45;&gt;Node5 -->
<g id="edge29_Node000024_Node000005" class="edge">
<title>Node24&#45;&gt;Node5</title>
<g id="a_edge29_Node000024_Node000005"><a xlink:title=" ">
<path fill="none" stroke="#63b8ff" d="M1149.6,-167.79C1016.17,-152.82 872.4,-136.74 798.7,-128.5"/>
<polygon fill="#63b8ff" stroke="#63b8ff" points="1149,-171.24 1159.33,-168.88 1149.78,-164.29 1149,-171.24"/>
</a>
</g>
</g>
<!-- Node25 -->
<g id="Node000025" class="node">
<title>Node25</title>
<g id="a_Node000025"><a xlink:href="_hammer_head_8cpp.html" target="_top" xlink:title=" ">
<polygon fill="white" stroke="#666666" points="1317,-132 1166,-132 1166,-112 1317,-112 1317,-132"/>
<text text-anchor="middle" x="1241.5" y="-118.5" font-family="Helvetica,sans-Serif" font-size="10.00">AI Behaviors/HammerHead.cpp</text>
</a>
</g>
</g>
<!-- Node24&#45;&gt;Node25 -->
<g id="edge30_Node000024_Node000025" class="edge">
<title>Node24&#45;&gt;Node25</title>
<g id="a_edge30_Node000024_Node000025"><a xlink:title=" ">
<path fill="none" stroke="#63b8ff" d="M1235.31,-156.43C1236.85,-148.11 1238.55,-138.93 1239.78,-132.3"/>
<polygon fill="#63b8ff" stroke="#63b8ff" points="1231.9,-155.64 1233.52,-166.11 1238.78,-156.91 1231.9,-155.64"/>
</a>
</g>
</g>
<!-- Node27 -->
<g id="Node000027" class="node">
<title>Node27</title>
<g id="a_Node000027"><a xlink:href="_infantry_unit_8cpp.html" target="_top" xlink:title=" ">
<polygon fill="white" stroke="#666666" points="1755.75,-188 1615.25,-188 1615.25,-168 1755.75,-168 1755.75,-188"/>
<text text-anchor="middle" x="1685.5" y="-174.5" font-family="Helvetica,sans-Serif" font-size="10.00">AI Behaviors/InfantryUnit.cpp</text>
</a>
</g>
</g>
<!-- Node26&#45;&gt;Node27 -->
<g id="edge32_Node000026_Node000027" class="edge">
<title>Node26&#45;&gt;Node27</title>
<g id="a_edge32_Node000026_Node000027"><a xlink:title=" ">
<path fill="none" stroke="#63b8ff" d="M1685.5,-212.13C1685.5,-203.9 1685.5,-194.85 1685.5,-188.3"/>
<polygon fill="#63b8ff" stroke="#63b8ff" points="1682,-212.08 1685.5,-222.08 1689,-212.08 1682,-212.08"/>
</a>
</g>
</g>
<!-- Node28 -->
<g id="Node000028" class="node">
<title>Node28</title>
<g id="a_Node000028"><a xlink:href="_rifleman_squad_8h.html" target="_top" xlink:title=" ">
<polygon fill="white" stroke="#666666" points="1920.75,-188 1774.25,-188 1774.25,-168 1920.75,-168 1920.75,-188"/>
<text text-anchor="middle" x="1847.5" y="-174.5" font-family="Helvetica,sans-Serif" font-size="10.00">AI Behaviors/RiflemanSquad.h</text>
</a>
</g>
</g>
<!-- Node26&#45;&gt;Node28 -->
<g id="edge33_Node000026_Node000028" class="edge">
<title>Node26&#45;&gt;Node28</title>
<g id="a_edge33_Node000026_Node000028"><a xlink:title=" ">
<path fill="none" stroke="#63b8ff" d="M1724.35,-220.05C1753.52,-210.33 1792.78,-197.24 1819.06,-188.48"/>
<polygon fill="#63b8ff" stroke="#63b8ff" points="1723.53,-216.63 1715.15,-223.12 1725.75,-223.27 1723.53,-216.63"/>
</a>
</g>
</g>
<!-- Node28&#45;&gt;Node5 -->
<g id="edge34_Node000028_Node000005" class="edge">
<title>Node28&#45;&gt;Node5</title>
<g id="a_edge34_Node000028_Node000005"><a xlink:title=" ">
<path fill="none" stroke="#63b8ff" d="M1762.42,-167.91C1361.59,-138.64 1258.14,-156.03 860.5,-132 840.24,-130.78 817.92,-129.04 798.65,-127.42"/>
<polygon fill="#63b8ff" stroke="#63b8ff" points="1762.02,-171.39 1772.25,-168.63 1762.53,-164.4 1762.02,-171.39"/>
</a>
</g>
</g>
<!-- Node29 -->
<g id="Node000029" class="node">
<title>Node29</title>
<g id="a_Node000029"><a xlink:href="_rifleman_squad_8cpp.html" target="_top" xlink:title=" ">
<polygon fill="white" stroke="#666666" points="1920,-132 1763,-132 1763,-112 1920,-112 1920,-132"/>
<text text-anchor="middle" x="1841.5" y="-118.5" font-family="Helvetica,sans-Serif" font-size="10.00">AI Behaviors/RiflemanSquad.cpp</text>
</a>
</g>
</g>
<!-- Node28&#45;&gt;Node29 -->
<g id="edge35_Node000028_Node000029" class="edge">
<title>Node28&#45;&gt;Node29</title>
<g id="a_edge35_Node000028_Node000029"><a xlink:title=" ">
<path fill="none" stroke="#63b8ff" d="M1845.21,-156.43C1844.29,-148.11 1843.27,-138.93 1842.53,-132.3"/>
<polygon fill="#63b8ff" stroke="#63b8ff" points="1841.7,-156.54 1846.29,-166.09 1848.66,-155.76 1841.7,-156.54"/>
</a>
</g>
</g>
<!-- Node31&#45;&gt;Node16 -->
<g id="edge41_Node000031_Node000016" class="edge">
<title>Node31&#45;&gt;Node16</title>
<g id="a_edge41_Node000031_Node000016"><a xlink:title=" ">
<path fill="none" stroke="#63b8ff" d="M1167.49,-223.81C820.99,-195.13 418.07,-183.76 266.85,-180.28"/>
<polygon fill="#63b8ff" stroke="#63b8ff" points="1166.99,-227.28 1177.25,-224.62 1167.58,-220.3 1166.99,-227.28"/>
</a>
</g>
</g>
<!-- Node32 -->
<g id="Node000032" class="node">
<title>Node32</title>
<g id="a_Node000032"><a xlink:href="_buggy_8h.html" target="_top" xlink:title=" ">
<polygon fill="white" stroke="#666666" points="994,-188 885,-188 885,-168 994,-168 994,-188"/>
<text text-anchor="middle" x="939.5" y="-174.5" font-family="Helvetica,sans-Serif" font-size="10.00">AI Behaviors/Buggy.h</text>
</a>
</g>
</g>
<!-- Node31&#45;&gt;Node32 -->
<g id="edge38_Node000031_Node000032" class="edge">
<title>Node31&#45;&gt;Node32</title>
<g id="a_edge38_Node000031_Node000032"><a xlink:title=" ">
<path fill="none" stroke="#63b8ff" d="M1179.88,-221.56C1124.28,-211.71 1045,-197.68 992.91,-188.46"/>
<polygon fill="#63b8ff" stroke="#63b8ff" points="1179.08,-224.97 1189.53,-223.27 1180.3,-218.08 1179.08,-224.97"/>
</a>
</g>
</g>
<!-- Node34 -->
<g id="Node000034" class="node">
<title>Node34</title>
<g id="a_Node000034"><a xlink:href="_tank_aurora_8h.html" target="_top" xlink:title=" ">
<polygon fill="white" stroke="#666666" points="1142.88,-188 1012.12,-188 1012.12,-168 1142.88,-168 1142.88,-188"/>
<text text-anchor="middle" x="1077.5" y="-174.5" font-family="Helvetica,sans-Serif" font-size="10.00">AI Behaviors/TankAurora.h</text>
</a>
</g>
</g>
<!-- Node31&#45;&gt;Node34 -->
<g id="edge42_Node000031_Node000034" class="edge">
<title>Node31&#45;&gt;Node34</title>
<g id="a_edge42_Node000031_Node000034"><a xlink:title=" ">
<path fill="none" stroke="#63b8ff" d="M1204.84,-220.18C1174.74,-210.44 1134.02,-197.28 1106.82,-188.48"/>
<polygon fill="#63b8ff" stroke="#63b8ff" points="1203.38,-223.38 1213.97,-223.13 1205.53,-216.72 1203.38,-223.38"/>
</a>
</g>
</g>
<!-- Node36 -->
<g id="Node000036" class="node">
<title>Node36</title>
<g id="a_Node000036"><a xlink:href="_vehicle_unit_8cpp.html" target="_top" xlink:title=" ">
<polygon fill="white" stroke="#666666" points="867.12,-188 725.88,-188 725.88,-168 867.12,-168 867.12,-188"/>
<text text-anchor="middle" x="796.5" y="-174.5" font-family="Helvetica,sans-Serif" font-size="10.00">AI Behaviors/VehicleUnit.cpp</text>
</a>
</g>
</g>
<!-- Node31&#45;&gt;Node36 -->
<g id="edge45_Node000031_Node000036" class="edge">
<title>Node31&#45;&gt;Node36</title>
<g id="a_edge45_Node000031_Node000036"><a xlink:title=" ">
<path fill="none" stroke="#63b8ff" d="M1167.38,-223.62C1056.93,-210.27 940.24,-196.25 867.51,-187.52"/>
<polygon fill="#63b8ff" stroke="#63b8ff" points="1166.88,-227.09 1177.23,-224.82 1167.72,-220.14 1166.88,-227.09"/>
</a>
</g>
</g>
<!-- Node32&#45;&gt;Node5 -->
<g id="edge40_Node000032_Node000005" class="edge">
<title>Node32&#45;&gt;Node5</title>
<g id="a_edge40_Node000032_Node000005"><a xlink:title=" ">
<path fill="none" stroke="#63b8ff" d="M895.73,-164.56C861.36,-154.79 814.22,-141.39 782.85,-132.48"/>
<polygon fill="#63b8ff" stroke="#63b8ff" points="894.37,-167.81 904.95,-167.18 896.29,-161.08 894.37,-167.81"/>
</a>
</g>
</g>
<!-- Node33 -->
<g id="Node000033" class="node">
<title>Node33</title>
<g id="a_Node000033"><a xlink:href="_buggy_8cpp.html" target="_top" xlink:title=" ">
<polygon fill="white" stroke="#666666" points="989.25,-132 869.75,-132 869.75,-112 989.25,-112 989.25,-132"/>
<text text-anchor="middle" x="929.5" y="-118.5" font-family="Helvetica,sans-Serif" font-size="10.00">AI Behaviors/Buggy.cpp</text>
</a>
</g>
</g>
<!-- Node32&#45;&gt;Node33 -->
<g id="edge39_Node000032_Node000033" class="edge">
<title>Node32&#45;&gt;Node33</title>
<g id="a_edge39_Node000032_Node000033"><a xlink:title=" ">
<path fill="none" stroke="#63b8ff" d="M935.69,-156.43C934.15,-148.11 932.45,-138.93 931.22,-132.3"/>
<polygon fill="#63b8ff" stroke="#63b8ff" points="932.22,-156.91 937.48,-166.11 939.1,-155.64 932.22,-156.91"/>
</a>
</g>
</g>
<!-- Node34&#45;&gt;Node5 -->
<g id="edge43_Node000034_Node000005" class="edge">
<title>Node34&#45;&gt;Node5</title>
<g id="a_edge43_Node000034_Node000005"><a xlink:title=" ">
<path fill="none" stroke="#63b8ff" d="M1008.99,-165.72C946.12,-155.37 854.51,-140.29 798.64,-131.09"/>
<polygon fill="#63b8ff" stroke="#63b8ff" points="1008.06,-169.12 1018.5,-167.29 1009.2,-162.21 1008.06,-169.12"/>
</a>
</g>
</g>
<!-- Node35 -->
<g id="Node000035" class="node">
<title>Node35</title>
<g id="a_Node000035"><a xlink:href="_tank_aurora_8cpp.html" target="_top" xlink:title=" ">
<polygon fill="white" stroke="#666666" points="1148.12,-132 1006.88,-132 1006.88,-112 1148.12,-112 1148.12,-132"/>
<text text-anchor="middle" x="1077.5" y="-118.5" font-family="Helvetica,sans-Serif" font-size="10.00">AI Behaviors/TankAurora.cpp</text>
</a>
</g>
</g>
<!-- Node34&#45;&gt;Node35 -->
<g id="edge44_Node000034_Node000035" class="edge">
<title>Node34&#45;&gt;Node35</title>
<g id="a_edge44_Node000034_Node000035"><a xlink:title=" ">
<path fill="none" stroke="#63b8ff" d="M1077.5,-156.13C1077.5,-147.9 1077.5,-138.85 1077.5,-132.3"/>
<polygon fill="#63b8ff" stroke="#63b8ff" points="1074,-156.08 1077.5,-166.08 1081,-156.08 1074,-156.08"/>
</a>
</g>
</g>
<!-- Node37&#45;&gt;Node5 -->
<g id="edge47_Node000037_Node000005" class="edge">
<title>Node37&#45;&gt;Node5</title>
<g id="a_edge47_Node000037_Node000005"><a xlink:title=" ">
<path fill="none" stroke="#63b8ff" d="M899.41,-270.85C886.31,-256.21 866.09,-236.11 844.5,-224 792.96,-195.09 752.18,-235.11 716.5,-188 702.9,-170.04 724.16,-145.63 738.39,-132.42"/>
<polygon fill="#63b8ff" stroke="#63b8ff" points="896.75,-273.13 905.94,-278.4 902.05,-268.55 896.75,-273.13"/>
</a>
</g>
</g>
<!-- Node38 -->
<g id="Node000038" class="node">
<title>Node38</title>
<g id="a_Node000038"><a xlink:href="_war_factory_8cpp.html" target="_top" xlink:title=" ">
<polygon fill="white" stroke="#666666" points="1033.88,-244 891.12,-244 891.12,-224 1033.88,-224 1033.88,-244"/>
<text text-anchor="middle" x="962.5" y="-230.5" font-family="Helvetica,sans-Serif" font-size="10.00">AI Behaviors/WarFactory.cpp</text>
</a>
</g>
</g>
<!-- Node37&#45;&gt;Node38 -->
<g id="edge48_Node000037_Node000038" class="edge">
<title>Node37&#45;&gt;Node38</title>
<g id="a_edge48_Node000037_Node000038"><a xlink:title=" ">
<path fill="none" stroke="#63b8ff" d="M930.5,-271C938.45,-262.06 947.72,-251.62 954.23,-244.3"/>
<polygon fill="#63b8ff" stroke="#63b8ff" points="927.89,-268.66 923.87,-278.46 933.13,-273.31 927.89,-268.66"/>
</a>
</g>
</g>
</g>
</svg>
