<?xml version="1.0" encoding="UTF-8" standalone="no"?>
<!DOCTYPE svg PUBLIC "-//W3C//DTD SVG 1.1//EN"
 "http://www.w3.org/Graphics/SVG/1.1/DTD/svg11.dtd">
<!-- Generated by graphviz version 10.0.1 (20240210.2158)
 -->
<!-- Title: AI Behaviors/SideBar.h Pages: 1 -->
<svg width="636pt" height="140pt"
 viewBox="0.00 0.00 636.25 140.00" xmlns="http://www.w3.org/2000/svg" xmlns:xlink="http://www.w3.org/1999/xlink">
<g id="graph0" class="graph" transform="scale(1 1) rotate(0) translate(4 136)">
<title>AI Behaviors/SideBar.h</title>
<!-- Node1 -->
<g id="Node000001" class="node">
<title>Node1</title>
<g id="a_Node000001"><a xlink:title=" ">
<polygon fill="#999999" stroke="#666666" points="360.38,-132 244.62,-132 244.62,-112 360.38,-112 360.38,-132"/>
<text text-anchor="middle" x="302.5" y="-118.5" font-family="Helvetica,sans-Serif" font-size="10.00">AI Behaviors/SideBar.h</text>
</a>
</g>
</g>
<!-- Node2 -->
<g id="Node000002" class="node">
<title>Node2</title>
<g id="a_Node000002"><a xlink:title=" ">
<polygon fill="#e0e0e0" stroke="#999999" points="103,-76 0,-76 0,-56 103,-56 103,-76"/>
<text text-anchor="middle" x="51.5" y="-62.5" font-family="Helvetica,sans-Serif" font-size="10.00">SFML/Graphics.hpp</text>
</a>
</g>
</g>
<!-- Node1&#45;&gt;Node2 -->
<g id="edge1_Node000001_Node000002" class="edge">
<title>Node1&#45;&gt;Node2</title>
<g id="a_edge1_Node000001_Node000002"><a xlink:title=" ">
<path fill="none" stroke="#63b8ff" d="M258.49,-111.53C216.24,-102.44 152.27,-88.68 106.64,-78.86"/>
<polygon fill="#63b8ff" stroke="#63b8ff" points="107.45,-75.46 96.94,-76.78 105.98,-82.3 107.45,-75.46"/>
</a>
</g>
</g>
<!-- Node3 -->
<g id="Node000003" class="node">
<title>Node3</title>
<g id="a_Node000003"><a xlink:title=" ">
<polygon fill="#e0e0e0" stroke="#999999" points="174.25,-76 120.75,-76 120.75,-56 174.25,-56 174.25,-76"/>
<text text-anchor="middle" x="147.5" y="-62.5" font-family="Helvetica,sans-Serif" font-size="10.00">iostream</text>
</a>
</g>
</g>
<!-- Node1&#45;&gt;Node3 -->
<g id="edge2_Node000001_Node000003" class="edge">
<title>Node1&#45;&gt;Node3</title>
<g id="a_edge2_Node000001_Node000003"><a xlink:title=" ">
<path fill="none" stroke="#63b8ff" d="M275.5,-111.59C250.54,-102.9 213.2,-89.89 185.28,-80.16"/>
<polygon fill="#63b8ff" stroke="#63b8ff" points="186.73,-76.96 176.14,-76.98 184.43,-83.57 186.73,-76.96"/>
</a>
</g>
</g>
<!-- Node4 -->
<g id="Node000004" class="node">
<title>Node4</title>
<g id="a_Node000004"><a xlink:href="_global_8h.html" target="_top" xlink:title=" ">
<polygon fill="white" stroke="#666666" points="244.5,-76 192.5,-76 192.5,-56 244.5,-56 244.5,-76"/>
<text text-anchor="middle" x="218.5" y="-62.5" font-family="Helvetica,sans-Serif" font-size="10.00">Global.h</text>
</a>
</g>
</g>
<!-- Node1&#45;&gt;Node4 -->
<g id="edge3_Node000001_Node000004" class="edge">
<title>Node1&#45;&gt;Node4</title>
<g id="a_edge3_Node000001_Node000004"><a xlink:title=" ">
<path fill="none" stroke="#63b8ff" d="M287.87,-111.59C275.42,-103.59 257.28,-91.93 242.68,-82.54"/>
<polygon fill="#63b8ff" stroke="#63b8ff" points="244.82,-79.76 234.52,-77.3 241.04,-85.65 244.82,-79.76"/>
</a>
</g>
</g>
<!-- Node8 -->
<g id="Node000008" class="node">
<title>Node8</title>
<g id="a_Node000008"><a xlink:href="_building_type_8h.html" target="_top" xlink:title=" ">
<polygon fill="white" stroke="#666666" points="342.38,-76 262.62,-76 262.62,-56 342.38,-56 342.38,-76"/>
<text text-anchor="middle" x="302.5" y="-62.5" font-family="Helvetica,sans-Serif" font-size="10.00">BuildingType.h</text>
</a>
</g>
</g>
<!-- Node1&#45;&gt;Node8 -->
<g id="edge7_Node000001_Node000008" class="edge">
<title>Node1&#45;&gt;Node8</title>
<g id="a_edge7_Node000001_Node000008"><a xlink:title=" ">
<path fill="none" stroke="#63b8ff" d="M302.5,-111.59C302.5,-105.01 302.5,-95.96 302.5,-87.73"/>
<polygon fill="#63b8ff" stroke="#63b8ff" points="306,-87.81 302.5,-77.81 299,-87.81 306,-87.81"/>
</a>
</g>
</g>
<!-- Node9 -->
<g id="Node000009" class="node">
<title>Node9</title>
<g id="a_Node000009"><a xlink:href="_infantry_type_8h.html" target="_top" xlink:title=" ">
<polygon fill="white" stroke="#666666" points="436.88,-76 360.12,-76 360.12,-56 436.88,-56 436.88,-76"/>
<text text-anchor="middle" x="398.5" y="-62.5" font-family="Helvetica,sans-Serif" font-size="10.00">InfantryType.h</text>
</a>
</g>
</g>
<!-- Node1&#45;&gt;Node9 -->
<g id="edge8_Node000001_Node000009" class="edge">
<title>Node1&#45;&gt;Node9</title>
<g id="a_edge8_Node000001_Node000009"><a xlink:title=" ">
<path fill="none" stroke="#63b8ff" d="M319.22,-111.59C333.72,-103.44 354.97,-91.48 371.82,-82"/>
<polygon fill="#63b8ff" stroke="#63b8ff" points="373.33,-85.17 380.33,-77.22 369.9,-79.07 373.33,-85.17"/>
</a>
</g>
</g>
<!-- Node10 -->
<g id="Node000010" class="node">
<title>Node10</title>
<g id="a_Node000010"><a xlink:href="_vehicle_type_8h.html" target="_top" xlink:title=" ">
<polygon fill="white" stroke="#666666" points="532.25,-76 454.75,-76 454.75,-56 532.25,-56 532.25,-76"/>
<text text-anchor="middle" x="493.5" y="-62.5" font-family="Helvetica,sans-Serif" font-size="10.00">VehicleType.h</text>
</a>
</g>
</g>
<!-- Node1&#45;&gt;Node10 -->
<g id="edge9_Node000001_Node000010" class="edge">
<title>Node1&#45;&gt;Node10</title>
<g id="a_edge9_Node000001_Node000010"><a xlink:title=" ">
<path fill="none" stroke="#63b8ff" d="M335.77,-111.59C367.21,-102.71 414.59,-89.31 449.21,-79.52"/>
<polygon fill="#63b8ff" stroke="#63b8ff" points="449.84,-82.98 458.51,-76.89 447.94,-76.24 449.84,-82.98"/>
</a>
</g>
</g>
<!-- Node11 -->
<g id="Node000011" class="node">
<title>Node11</title>
<g id="a_Node000011"><a xlink:href="_air_craft_type_8h.html" target="_top" xlink:title=" ">
<polygon fill="white" stroke="#666666" points="628.25,-76 550.75,-76 550.75,-56 628.25,-56 628.25,-76"/>
<text text-anchor="middle" x="589.5" y="-62.5" font-family="Helvetica,sans-Serif" font-size="10.00">AirCraftType.h</text>
</a>
</g>
</g>
<!-- Node1&#45;&gt;Node11 -->
<g id="edge10_Node000001_Node000011" class="edge">
<title>Node1&#45;&gt;Node11</title>
<g id="a_edge10_Node000001_Node000011"><a xlink:title=" ">
<path fill="none" stroke="#63b8ff" d="M352.82,-111.53C405.24,-101.67 486.89,-86.31 539.27,-76.45"/>
<polygon fill="#63b8ff" stroke="#63b8ff" points="539.64,-79.94 548.82,-74.65 538.35,-73.06 539.64,-79.94"/>
</a>
</g>
</g>
<!-- Node5 -->
<g id="Node000005" class="node">
<title>Node5</title>
<g id="a_Node000005"><a xlink:title=" ">
<polygon fill="#e0e0e0" stroke="#999999" points="181.25,-20 139.75,-20 139.75,0 181.25,0 181.25,-20"/>
<text text-anchor="middle" x="160.5" y="-6.5" font-family="Helvetica,sans-Serif" font-size="10.00">vector</text>
</a>
</g>
</g>
<!-- Node4&#45;&gt;Node5 -->
<g id="edge4_Node000004_Node000005" class="edge">
<title>Node4&#45;&gt;Node5</title>
<g id="a_edge4_Node000004_Node000005"><a xlink:title=" ">
<path fill="none" stroke="#63b8ff" d="M208.4,-55.59C200.25,-48.01 188.57,-37.13 178.78,-28.02"/>
<polygon fill="#63b8ff" stroke="#63b8ff" points="181.3,-25.58 171.59,-21.33 176.53,-30.71 181.3,-25.58"/>
</a>
</g>
</g>
<!-- Node6 -->
<g id="Node000006" class="node">
<title>Node6</title>
<g id="a_Node000006"><a xlink:title=" ">
<polygon fill="#e0e0e0" stroke="#999999" points="237.38,-20 199.62,-20 199.62,0 237.38,0 237.38,-20"/>
<text text-anchor="middle" x="218.5" y="-6.5" font-family="Helvetica,sans-Serif" font-size="10.00">array</text>
</a>
</g>
</g>
<!-- Node4&#45;&gt;Node6 -->
<g id="edge5_Node000004_Node000006" class="edge">
<title>Node4&#45;&gt;Node6</title>
<g id="a_edge5_Node000004_Node000006"><a xlink:title=" ">
<path fill="none" stroke="#63b8ff" d="M218.5,-55.59C218.5,-49.01 218.5,-39.96 218.5,-31.73"/>
<polygon fill="#63b8ff" stroke="#63b8ff" points="222,-31.81 218.5,-21.81 215,-31.81 222,-31.81"/>
</a>
</g>
</g>
<!-- Node7 -->
<g id="Node000007" class="node">
<title>Node7</title>
<g id="a_Node000007"><a xlink:title=" ">
<polygon fill="#e0e0e0" stroke="#999999" points="301.12,-20 255.88,-20 255.88,0 301.12,0 301.12,-20"/>
<text text-anchor="middle" x="278.5" y="-6.5" font-family="Helvetica,sans-Serif" font-size="10.00">chrono</text>
</a>
</g>
</g>
<!-- Node4&#45;&gt;Node7 -->
<g id="edge6_Node000004_Node000007" class="edge">
<title>Node4&#45;&gt;Node7</title>
<g id="a_edge6_Node000004_Node000007"><a xlink:title=" ">
<path fill="none" stroke="#63b8ff" d="M228.95,-55.59C237.47,-47.93 249.71,-36.91 259.89,-27.75"/>
<polygon fill="#63b8ff" stroke="#63b8ff" points="261.95,-30.6 267.04,-21.31 257.27,-25.4 261.95,-30.6"/>
</a>
</g>
</g>
</g>
</svg>
