<?xml version="1.0" encoding="UTF-8" standalone="no"?>
<!DOCTYPE svg PUBLIC "-//W3C//DTD SVG 1.1//EN"
 "http://www.w3.org/Graphics/SVG/1.1/DTD/svg11.dtd">
<!-- Generated by graphviz version 10.0.1 (20240210.2158)
 -->
<!-- Title: AI Behaviors/SoundManager.h Pages: 1 -->
<svg width="1376pt" height="364pt"
 viewBox="0.00 0.00 1376.46 364.00" xmlns="http://www.w3.org/2000/svg" xmlns:xlink="http://www.w3.org/1999/xlink">
<g id="graph0" class="graph" transform="scale(1 1) rotate(0) translate(4 360)">
<title>AI Behaviors/SoundManager.h</title>
<!-- Node1 -->
<g id="Node000001" class="node">
<title>Node1</title>
<g id="a_Node000001"><a xlink:title=" ">
<polygon fill="#999999" stroke="#666666" points="595.46,-356 448.96,-356 448.96,-336 595.46,-336 595.46,-356"/>
<text text-anchor="middle" x="522.21" y="-342.5" font-family="Helvetica,sans-Serif" font-size="10.00">AI Behaviors/SoundManager.h</text>
</a>
</g>
</g>
<!-- Node2 -->
<g id="Node000002" class="node">
<title>Node2</title>
<g id="a_Node000002"><a xlink:href="_main_menu_8h.html" target="_top" xlink:title=" ">
<polygon fill="white" stroke="#666666" points="218.33,-300 92.08,-300 92.08,-280 218.33,-280 218.33,-300"/>
<text text-anchor="middle" x="155.21" y="-286.5" font-family="Helvetica,sans-Serif" font-size="10.00">AI Behaviors/MainMenu.h</text>
</a>
</g>
</g>
<!-- Node1&#45;&gt;Node2 -->
<g id="edge1_Node000001_Node000002" class="edge">
<title>Node1&#45;&gt;Node2</title>
<g id="a_edge1_Node000001_Node000002"><a xlink:title=" ">
<path fill="none" stroke="#63b8ff" d="M446.49,-333.86C379.16,-323.95 281.85,-309.63 218.56,-300.32"/>
<polygon fill="#63b8ff" stroke="#63b8ff" points="445.96,-337.32 456.36,-335.31 446.98,-330.39 445.96,-337.32"/>
</a>
</g>
</g>
<!-- Node7 -->
<g id="Node000007" class="node">
<title>Node7</title>
<g id="a_Node000007"><a xlink:href="_sound_manager_8cpp.html" target="_top" xlink:title=" ">
<polygon fill="white" stroke="#666666" points="746.71,-300 589.71,-300 589.71,-280 746.71,-280 746.71,-300"/>
<text text-anchor="middle" x="668.21" y="-286.5" font-family="Helvetica,sans-Serif" font-size="10.00">AI Behaviors/SoundManager.cpp</text>
</a>
</g>
</g>
<!-- Node1&#45;&gt;Node7 -->
<g id="edge6_Node000001_Node000007" class="edge">
<title>Node1&#45;&gt;Node7</title>
<g id="a_edge6_Node000001_Node000007"><a xlink:title=" ">
<path fill="none" stroke="#63b8ff" d="M558.27,-331.66C584.44,-321.98 619.21,-309.12 642.58,-300.48"/>
<polygon fill="#63b8ff" stroke="#63b8ff" points="557.22,-328.32 549.06,-335.07 559.65,-334.88 557.22,-328.32"/>
</a>
</g>
</g>
<!-- Node8 -->
<g id="Node000008" class="node">
<title>Node8</title>
<g id="a_Node000008"><a xlink:href="_unit_8h.html" target="_top" xlink:title=" ">
<polygon fill="white" stroke="#666666" points="571.46,-300 472.96,-300 472.96,-280 571.46,-280 571.46,-300"/>
<text text-anchor="middle" x="522.21" y="-286.5" font-family="Helvetica,sans-Serif" font-size="10.00">AI Behaviors/Unit.h</text>
</a>
</g>
</g>
<!-- Node1&#45;&gt;Node8 -->
<g id="edge7_Node000001_Node000008" class="edge">
<title>Node1&#45;&gt;Node8</title>
<g id="a_edge7_Node000001_Node000008"><a xlink:title=" ">
<path fill="none" stroke="#63b8ff" d="M522.21,-324.13C522.21,-315.9 522.21,-306.85 522.21,-300.3"/>
<polygon fill="#63b8ff" stroke="#63b8ff" points="518.71,-324.08 522.21,-334.08 525.71,-324.08 518.71,-324.08"/>
</a>
</g>
</g>
<!-- Node3 -->
<g id="Node000003" class="node">
<title>Node3</title>
<g id="a_Node000003"><a xlink:href="_game_8h.html" target="_top" xlink:title=" ">
<polygon fill="white" stroke="#666666" points="248.96,-76 141.46,-76 141.46,-56 248.96,-56 248.96,-76"/>
<text text-anchor="middle" x="195.21" y="-62.5" font-family="Helvetica,sans-Serif" font-size="10.00">AI Behaviors/Game.h</text>
</a>
</g>
</g>
<!-- Node2&#45;&gt;Node3 -->
<g id="edge2_Node000002_Node000003" class="edge">
<title>Node2&#45;&gt;Node3</title>
<g id="a_edge2_Node000002_Node000003"><a xlink:title=" ">
<path fill="none" stroke="#63b8ff" d="M126.16,-274.49C111.2,-266.42 93.04,-255.66 78.21,-244 26.95,-203.71 -25.95,-163.36 14.21,-112 29.76,-92.1 93.57,-79.75 141.05,-73.13"/>
<polygon fill="#63b8ff" stroke="#63b8ff" points="124.11,-277.36 134.59,-278.92 127.37,-271.17 124.11,-277.36"/>
</a>
</g>
</g>
<!-- Node6 -->
<g id="Node000006" class="node">
<title>Node6</title>
<g id="a_Node000006"><a xlink:href="_main_menu_8cpp.html" target="_top" xlink:title=" ">
<polygon fill="white" stroke="#666666" points="223.58,-244 86.83,-244 86.83,-224 223.58,-224 223.58,-244"/>
<text text-anchor="middle" x="155.21" y="-230.5" font-family="Helvetica,sans-Serif" font-size="10.00">AI Behaviors/MainMenu.cpp</text>
</a>
</g>
</g>
<!-- Node2&#45;&gt;Node6 -->
<g id="edge5_Node000002_Node000006" class="edge">
<title>Node2&#45;&gt;Node6</title>
<g id="a_edge5_Node000002_Node000006"><a xlink:title=" ">
<path fill="none" stroke="#63b8ff" d="M155.21,-268.13C155.21,-259.9 155.21,-250.85 155.21,-244.3"/>
<polygon fill="#63b8ff" stroke="#63b8ff" points="151.71,-268.08 155.21,-278.08 158.71,-268.08 151.71,-268.08"/>
</a>
</g>
</g>
<!-- Node4 -->
<g id="Node000004" class="node">
<title>Node4</title>
<g id="a_Node000004"><a xlink:href="_game_8cpp.html" target="_top" xlink:title=" ">
<polygon fill="white" stroke="#666666" points="188.21,-20 70.21,-20 70.21,0 188.21,0 188.21,-20"/>
<text text-anchor="middle" x="129.21" y="-6.5" font-family="Helvetica,sans-Serif" font-size="10.00">AI Behaviors/Game.cpp</text>
</a>
</g>
</g>
<!-- Node3&#45;&gt;Node4 -->
<g id="edge3_Node000003_Node000004" class="edge">
<title>Node3&#45;&gt;Node4</title>
<g id="a_edge3_Node000003_Node000004"><a xlink:title=" ">
<path fill="none" stroke="#63b8ff" d="M174.92,-48.4C163.63,-39.17 150,-28.01 140.57,-20.3"/>
<polygon fill="#63b8ff" stroke="#63b8ff" points="172.58,-51.01 182.54,-54.64 177.01,-45.59 172.58,-51.01"/>
</a>
</g>
</g>
<!-- Node5 -->
<g id="Node000005" class="node">
<title>Node5</title>
<g id="a_Node000005"><a xlink:href="main_8cpp.html" target="_top" xlink:title=" ">
<polygon fill="white" stroke="#666666" points="318.58,-20 205.83,-20 205.83,0 318.58,0 318.58,-20"/>
<text text-anchor="middle" x="262.21" y="-6.5" font-family="Helvetica,sans-Serif" font-size="10.00">AI Behaviors/main.cpp</text>
</a>
</g>
</g>
<!-- Node3&#45;&gt;Node5 -->
<g id="edge4_Node000003_Node000005" class="edge">
<title>Node3&#45;&gt;Node5</title>
<g id="a_edge4_Node000003_Node000005"><a xlink:title=" ">
<path fill="none" stroke="#63b8ff" d="M215.8,-48.4C227.26,-39.17 241.1,-28.01 250.67,-20.3"/>
<polygon fill="#63b8ff" stroke="#63b8ff" points="213.64,-45.64 208.05,-54.64 218.04,-51.09 213.64,-45.64"/>
</a>
</g>
</g>
<!-- Node9 -->
<g id="Node000009" class="node">
<title>Node9</title>
<g id="a_Node000009"><a xlink:href="_aircraft_unit_8h.html" target="_top" xlink:title=" ">
<polygon fill="white" stroke="#666666" points="816.83,-244 687.58,-244 687.58,-224 816.83,-224 816.83,-244"/>
<text text-anchor="middle" x="752.21" y="-230.5" font-family="Helvetica,sans-Serif" font-size="10.00">AI Behaviors/AircraftUnit.h</text>
</a>
</g>
</g>
<!-- Node8&#45;&gt;Node9 -->
<g id="edge8_Node000008_Node000009" class="edge">
<title>Node8&#45;&gt;Node9</title>
<g id="a_edge8_Node000008_Node000009"><a xlink:title=" ">
<path fill="none" stroke="#63b8ff" d="M573.58,-276.94C615.35,-267.13 673.47,-253.49 711.93,-244.46"/>
<polygon fill="#63b8ff" stroke="#63b8ff" points="572.94,-273.49 564.01,-279.19 574.54,-280.31 572.94,-273.49"/>
</a>
</g>
</g>
<!-- Node17 -->
<g id="Node000017" class="node">
<title>Node17</title>
<g id="a_Node000017"><a xlink:href="_infantry_unit_8h.html" target="_top" xlink:title=" ">
<polygon fill="white" stroke="#666666" points="1201.21,-244 1071.21,-244 1071.21,-224 1201.21,-224 1201.21,-244"/>
<text text-anchor="middle" x="1136.21" y="-230.5" font-family="Helvetica,sans-Serif" font-size="10.00">AI Behaviors/InfantryUnit.h</text>
</a>
</g>
</g>
<!-- Node8&#45;&gt;Node17 -->
<g id="edge18_Node000008_Node000017" class="edge">
<title>Node8&#45;&gt;Node17</title>
<g id="a_edge18_Node000008_Node000017"><a xlink:title=" ">
<path fill="none" stroke="#63b8ff" d="M582.95,-279.88C766.22,-258.82 969.38,-245.03 1071.12,-238.79"/>
<polygon fill="#63b8ff" stroke="#63b8ff" points="582.78,-276.38 573.25,-281.01 583.59,-283.33 582.78,-276.38"/>
</a>
</g>
</g>
<!-- Node21 -->
<g id="Node000021" class="node">
<title>Node21</title>
<g id="a_Node000021"><a xlink:href="_unit_8cpp.html" target="_top" xlink:title=" ">
<polygon fill="white" stroke="#666666" points="576.71,-244 467.71,-244 467.71,-224 576.71,-224 576.71,-244"/>
<text text-anchor="middle" x="522.21" y="-230.5" font-family="Helvetica,sans-Serif" font-size="10.00">AI Behaviors/Unit.cpp</text>
</a>
</g>
</g>
<!-- Node8&#45;&gt;Node21 -->
<g id="edge23_Node000008_Node000021" class="edge">
<title>Node8&#45;&gt;Node21</title>
<g id="a_edge23_Node000008_Node000021"><a xlink:title=" ">
<path fill="none" stroke="#63b8ff" d="M522.21,-268.13C522.21,-259.9 522.21,-250.85 522.21,-244.3"/>
<polygon fill="#63b8ff" stroke="#63b8ff" points="518.71,-268.08 522.21,-278.08 525.71,-268.08 518.71,-268.08"/>
</a>
</g>
</g>
<!-- Node22 -->
<g id="Node000022" class="node">
<title>Node22</title>
<g id="a_Node000022"><a xlink:href="_vehicle_unit_8h.html" target="_top" xlink:title=" ">
<polygon fill="white" stroke="#666666" points="430.58,-244 299.83,-244 299.83,-224 430.58,-224 430.58,-244"/>
<text text-anchor="middle" x="365.21" y="-230.5" font-family="Helvetica,sans-Serif" font-size="10.00">AI Behaviors/VehicleUnit.h</text>
</a>
</g>
</g>
<!-- Node8&#45;&gt;Node22 -->
<g id="edge24_Node000008_Node000022" class="edge">
<title>Node8&#45;&gt;Node22</title>
<g id="a_edge24_Node000008_Node000022"><a xlink:title=" ">
<path fill="none" stroke="#63b8ff" d="M484.18,-275.92C455.95,-266.21 418.12,-253.2 392.77,-244.48"/>
<polygon fill="#63b8ff" stroke="#63b8ff" points="482.83,-279.16 493.43,-279.1 485.11,-272.54 482.83,-279.16"/>
</a>
</g>
</g>
<!-- Node10 -->
<g id="Node000010" class="node">
<title>Node10</title>
<g id="a_Node000010"><a xlink:href="_aircraft_unit_8cpp.html" target="_top" xlink:title=" ">
<polygon fill="white" stroke="#666666" points="748.08,-188 608.33,-188 608.33,-168 748.08,-168 748.08,-188"/>
<text text-anchor="middle" x="678.21" y="-174.5" font-family="Helvetica,sans-Serif" font-size="10.00">AI Behaviors/AircraftUnit.cpp</text>
</a>
</g>
</g>
<!-- Node9&#45;&gt;Node10 -->
<g id="edge9_Node000009_Node000010" class="edge">
<title>Node9&#45;&gt;Node10</title>
<g id="a_edge9_Node000009_Node000010"><a xlink:title=" ">
<path fill="none" stroke="#63b8ff" d="M730.22,-216.95C717.42,-207.61 701.73,-196.16 690.95,-188.3"/>
<polygon fill="#63b8ff" stroke="#63b8ff" points="727.95,-219.63 738.09,-222.7 732.08,-213.98 727.95,-219.63"/>
</a>
</g>
</g>
<!-- Node11 -->
<g id="Node000011" class="node">
<title>Node11</title>
<g id="a_Node000011"><a xlink:href="_firehawk_8h.html" target="_top" xlink:title=" ">
<polygon fill="white" stroke="#666666" points="886.33,-188 766.08,-188 766.08,-168 886.33,-168 886.33,-188"/>
<text text-anchor="middle" x="826.21" y="-174.5" font-family="Helvetica,sans-Serif" font-size="10.00">AI Behaviors/Firehawk.h</text>
</a>
</g>
</g>
<!-- Node9&#45;&gt;Node11 -->
<g id="edge10_Node000009_Node000011" class="edge">
<title>Node9&#45;&gt;Node11</title>
<g id="a_edge10_Node000009_Node000011"><a xlink:title=" ">
<path fill="none" stroke="#63b8ff" d="M774.19,-216.95C787,-207.61 802.69,-196.16 813.46,-188.3"/>
<polygon fill="#63b8ff" stroke="#63b8ff" points="772.33,-213.98 766.32,-222.7 776.46,-219.63 772.33,-213.98"/>
</a>
</g>
</g>
<!-- Node15 -->
<g id="Node000015" class="node">
<title>Node15</title>
<g id="a_Node000015"><a xlink:href="_hammer_head_8h.html" target="_top" xlink:title=" ">
<polygon fill="white" stroke="#666666" points="1044.46,-188 903.96,-188 903.96,-168 1044.46,-168 1044.46,-188"/>
<text text-anchor="middle" x="974.21" y="-174.5" font-family="Helvetica,sans-Serif" font-size="10.00">AI Behaviors/HammerHead.h</text>
</a>
</g>
</g>
<!-- Node9&#45;&gt;Node15 -->
<g id="edge15_Node000009_Node000015" class="edge">
<title>Node9&#45;&gt;Node15</title>
<g id="a_edge15_Node000009_Node000015"><a xlink:title=" ">
<path fill="none" stroke="#63b8ff" d="M802.31,-220.81C842.59,-211.01 898.37,-197.45 935.33,-188.46"/>
<polygon fill="#63b8ff" stroke="#63b8ff" points="801.49,-217.41 792.6,-223.17 803.14,-224.21 801.49,-217.41"/>
</a>
</g>
</g>
<!-- Node12 -->
<g id="Node000012" class="node">
<title>Node12</title>
<g id="a_Node000012"><a xlink:href="_firehawk_8cpp.html" target="_top" xlink:title=" ">
<polygon fill="white" stroke="#666666" points="880.58,-132 749.83,-132 749.83,-112 880.58,-112 880.58,-132"/>
<text text-anchor="middle" x="815.21" y="-118.5" font-family="Helvetica,sans-Serif" font-size="10.00">AI Behaviors/Firehawk.cpp</text>
</a>
</g>
</g>
<!-- Node11&#45;&gt;Node12 -->
<g id="edge11_Node000011_Node000012" class="edge">
<title>Node11&#45;&gt;Node12</title>
<g id="a_edge11_Node000011_Node000012"><a xlink:title=" ">
<path fill="none" stroke="#63b8ff" d="M822.01,-156.43C820.32,-148.11 818.45,-138.93 817.1,-132.3"/>
<polygon fill="#63b8ff" stroke="#63b8ff" points="818.56,-157.01 823.99,-166.11 825.42,-155.61 818.56,-157.01"/>
</a>
</g>
</g>
<!-- Node13 -->
<g id="Node000013" class="node">
<title>Node13</title>
<g id="a_Node000013"><a xlink:href="_g_u_i_8h.html" target="_top" xlink:title=" ">
<polygon fill="white" stroke="#666666" points="569.08,-132 471.33,-132 471.33,-112 569.08,-112 569.08,-132"/>
<text text-anchor="middle" x="520.21" y="-118.5" font-family="Helvetica,sans-Serif" font-size="10.00">AI Behaviors/GUI.h</text>
</a>
</g>
</g>
<!-- Node11&#45;&gt;Node13 -->
<g id="edge12_Node000011_Node000013" class="edge">
<title>Node11&#45;&gt;Node13</title>
<g id="a_edge12_Node000011_Node000013"><a xlink:title=" ">
<path fill="none" stroke="#63b8ff" d="M761.42,-165.57C703.98,-155.43 621.35,-140.85 569.24,-131.65"/>
<polygon fill="#63b8ff" stroke="#63b8ff" points="760.61,-168.98 771.06,-167.27 761.82,-162.08 760.61,-168.98"/>
</a>
</g>
</g>
<!-- Node13&#45;&gt;Node3 -->
<g id="edge14_Node000013_Node000003" class="edge">
<title>Node13&#45;&gt;Node3</title>
<g id="a_edge14_Node000013_Node000003"><a xlink:title=" ">
<path fill="none" stroke="#63b8ff" d="M459.58,-110.93C399.2,-100.9 307.38,-85.64 249.37,-76"/>
<polygon fill="#63b8ff" stroke="#63b8ff" points="458.91,-114.36 469.35,-112.55 460.06,-107.46 458.91,-114.36"/>
</a>
</g>
</g>
<!-- Node14 -->
<g id="Node000014" class="node">
<title>Node14</title>
<g id="a_Node000014"><a xlink:href="_g_u_i_8cpp.html" target="_top" xlink:title=" ">
<polygon fill="white" stroke="#666666" points="574.33,-76 466.08,-76 466.08,-56 574.33,-56 574.33,-76"/>
<text text-anchor="middle" x="520.21" y="-62.5" font-family="Helvetica,sans-Serif" font-size="10.00">AI Behaviors/GUI.cpp</text>
</a>
</g>
</g>
<!-- Node13&#45;&gt;Node14 -->
<g id="edge13_Node000013_Node000014" class="edge">
<title>Node13&#45;&gt;Node14</title>
<g id="a_edge13_Node000013_Node000014"><a xlink:title=" ">
<path fill="none" stroke="#63b8ff" d="M520.21,-100.13C520.21,-91.9 520.21,-82.85 520.21,-76.3"/>
<polygon fill="#63b8ff" stroke="#63b8ff" points="516.71,-100.08 520.21,-110.08 523.71,-100.08 516.71,-100.08"/>
</a>
</g>
</g>
<!-- Node15&#45;&gt;Node13 -->
<g id="edge16_Node000015_Node000013" class="edge">
<title>Node15&#45;&gt;Node13</title>
<g id="a_edge16_Node000015_Node000013"><a xlink:title=" ">
<path fill="none" stroke="#63b8ff" d="M892.59,-167.29C798.55,-156.11 647.03,-138.09 569.45,-128.86"/>
<polygon fill="#63b8ff" stroke="#63b8ff" points="891.92,-170.74 902.26,-168.44 892.75,-163.79 891.92,-170.74"/>
</a>
</g>
</g>
<!-- Node16 -->
<g id="Node000016" class="node">
<title>Node16</title>
<g id="a_Node000016"><a xlink:href="_hammer_head_8cpp.html" target="_top" xlink:title=" ">
<polygon fill="white" stroke="#666666" points="1049.71,-132 898.71,-132 898.71,-112 1049.71,-112 1049.71,-132"/>
<text text-anchor="middle" x="974.21" y="-118.5" font-family="Helvetica,sans-Serif" font-size="10.00">AI Behaviors/HammerHead.cpp</text>
</a>
</g>
</g>
<!-- Node15&#45;&gt;Node16 -->
<g id="edge17_Node000015_Node000016" class="edge">
<title>Node15&#45;&gt;Node16</title>
<g id="a_edge17_Node000015_Node000016"><a xlink:title=" ">
<path fill="none" stroke="#63b8ff" d="M974.21,-156.13C974.21,-147.9 974.21,-138.85 974.21,-132.3"/>
<polygon fill="#63b8ff" stroke="#63b8ff" points="970.71,-156.08 974.21,-166.08 977.71,-156.08 970.71,-156.08"/>
</a>
</g>
</g>
<!-- Node18 -->
<g id="Node000018" class="node">
<title>Node18</title>
<g id="a_Node000018"><a xlink:href="_infantry_unit_8cpp.html" target="_top" xlink:title=" ">
<polygon fill="white" stroke="#666666" points="1368.46,-188 1227.96,-188 1227.96,-168 1368.46,-168 1368.46,-188"/>
<text text-anchor="middle" x="1298.21" y="-174.5" font-family="Helvetica,sans-Serif" font-size="10.00">AI Behaviors/InfantryUnit.cpp</text>
</a>
</g>
</g>
<!-- Node17&#45;&gt;Node18 -->
<g id="edge19_Node000017_Node000018" class="edge">
<title>Node17&#45;&gt;Node18</title>
<g id="a_edge19_Node000017_Node000018"><a xlink:title=" ">
<path fill="none" stroke="#63b8ff" d="M1175.06,-220.05C1204.22,-210.33 1243.49,-197.24 1269.77,-188.48"/>
<polygon fill="#63b8ff" stroke="#63b8ff" points="1174.24,-216.63 1165.86,-223.12 1176.45,-223.27 1174.24,-216.63"/>
</a>
</g>
</g>
<!-- Node19 -->
<g id="Node000019" class="node">
<title>Node19</title>
<g id="a_Node000019"><a xlink:href="_rifleman_squad_8h.html" target="_top" xlink:title=" ">
<polygon fill="white" stroke="#666666" points="1209.46,-188 1062.96,-188 1062.96,-168 1209.46,-168 1209.46,-188"/>
<text text-anchor="middle" x="1136.21" y="-174.5" font-family="Helvetica,sans-Serif" font-size="10.00">AI Behaviors/RiflemanSquad.h</text>
</a>
</g>
</g>
<!-- Node17&#45;&gt;Node19 -->
<g id="edge20_Node000017_Node000019" class="edge">
<title>Node17&#45;&gt;Node19</title>
<g id="a_edge20_Node000017_Node000019"><a xlink:title=" ">
<path fill="none" stroke="#63b8ff" d="M1136.21,-212.13C1136.21,-203.9 1136.21,-194.85 1136.21,-188.3"/>
<polygon fill="#63b8ff" stroke="#63b8ff" points="1132.71,-212.08 1136.21,-222.08 1139.71,-212.08 1132.71,-212.08"/>
</a>
</g>
</g>
<!-- Node19&#45;&gt;Node13 -->
<g id="edge21_Node000019_Node000013" class="edge">
<title>Node19&#45;&gt;Node13</title>
<g id="a_edge21_Node000019_Node000013"><a xlink:title=" ">
<path fill="none" stroke="#63b8ff" d="M1051.6,-167.87C866.84,-150.17 661.67,-133.9 569.48,-126.77"/>
<polygon fill="#63b8ff" stroke="#63b8ff" points="1051.1,-171.34 1061.39,-168.81 1051.77,-164.37 1051.1,-171.34"/>
</a>
</g>
</g>
<!-- Node20 -->
<g id="Node000020" class="node">
<title>Node20</title>
<g id="a_Node000020"><a xlink:href="_rifleman_squad_8cpp.html" target="_top" xlink:title=" ">
<polygon fill="white" stroke="#666666" points="1224.71,-132 1067.71,-132 1067.71,-112 1224.71,-112 1224.71,-132"/>
<text text-anchor="middle" x="1146.21" y="-118.5" font-family="Helvetica,sans-Serif" font-size="10.00">AI Behaviors/RiflemanSquad.cpp</text>
</a>
</g>
</g>
<!-- Node19&#45;&gt;Node20 -->
<g id="edge22_Node000019_Node000020" class="edge">
<title>Node19&#45;&gt;Node20</title>
<g id="a_edge22_Node000019_Node000020"><a xlink:title=" ">
<path fill="none" stroke="#63b8ff" d="M1140.02,-156.43C1141.56,-148.11 1143.26,-138.93 1144.48,-132.3"/>
<polygon fill="#63b8ff" stroke="#63b8ff" points="1136.6,-155.64 1138.22,-166.11 1143.49,-156.91 1136.6,-155.64"/>
</a>
</g>
</g>
<!-- Node23 -->
<g id="Node000023" class="node">
<title>Node23</title>
<g id="a_Node000023"><a xlink:href="_buggy_8h.html" target="_top" xlink:title=" ">
<polygon fill="white" stroke="#666666" points="142.71,-188 33.71,-188 33.71,-168 142.71,-168 142.71,-188"/>
<text text-anchor="middle" x="88.21" y="-174.5" font-family="Helvetica,sans-Serif" font-size="10.00">AI Behaviors/Buggy.h</text>
</a>
</g>
</g>
<!-- Node22&#45;&gt;Node23 -->
<g id="edge25_Node000022_Node000023" class="edge">
<title>Node22&#45;&gt;Node23</title>
<g id="a_edge25_Node000022_Node000023"><a xlink:title=" ">
<path fill="none" stroke="#63b8ff" d="M305.57,-221.37C255.12,-211.54 183.72,-197.62 136.72,-188.46"/>
<polygon fill="#63b8ff" stroke="#63b8ff" points="304.67,-224.76 315.15,-223.24 306.01,-217.89 304.67,-224.76"/>
</a>
</g>
</g>
<!-- Node25 -->
<g id="Node000025" class="node">
<title>Node25</title>
<g id="a_Node000025"><a xlink:href="_harvester_8h.html" target="_top" xlink:title=" ">
<polygon fill="white" stroke="#666666" points="282.08,-188 160.33,-188 160.33,-168 282.08,-168 282.08,-188"/>
<text text-anchor="middle" x="221.21" y="-174.5" font-family="Helvetica,sans-Serif" font-size="10.00">AI Behaviors/Harvester.h</text>
</a>
</g>
</g>
<!-- Node22&#45;&gt;Node25 -->
<g id="edge28_Node000022_Node000025" class="edge">
<title>Node22&#45;&gt;Node25</title>
<g id="a_edge28_Node000022_Node000025"><a xlink:title=" ">
<path fill="none" stroke="#63b8ff" d="M329.64,-219.66C303.83,-209.98 269.53,-197.12 246.48,-188.48"/>
<polygon fill="#63b8ff" stroke="#63b8ff" points="328.11,-222.83 338.71,-223.06 330.57,-216.27 328.11,-222.83"/>
</a>
</g>
</g>
<!-- Node27 -->
<g id="Node000027" class="node">
<title>Node27</title>
<g id="a_Node000027"><a xlink:href="_tank_aurora_8h.html" target="_top" xlink:title=" ">
<polygon fill="white" stroke="#666666" points="430.58,-188 299.83,-188 299.83,-168 430.58,-168 430.58,-188"/>
<text text-anchor="middle" x="365.21" y="-174.5" font-family="Helvetica,sans-Serif" font-size="10.00">AI Behaviors/TankAurora.h</text>
</a>
</g>
</g>
<!-- Node22&#45;&gt;Node27 -->
<g id="edge31_Node000022_Node000027" class="edge">
<title>Node22&#45;&gt;Node27</title>
<g id="a_edge31_Node000022_Node000027"><a xlink:title=" ">
<path fill="none" stroke="#63b8ff" d="M365.21,-212.13C365.21,-203.9 365.21,-194.85 365.21,-188.3"/>
<polygon fill="#63b8ff" stroke="#63b8ff" points="361.71,-212.08 365.21,-222.08 368.71,-212.08 361.71,-212.08"/>
</a>
</g>
</g>
<!-- Node29 -->
<g id="Node000029" class="node">
<title>Node29</title>
<g id="a_Node000029"><a xlink:href="_vehicle_unit_8cpp.html" target="_top" xlink:title=" ">
<polygon fill="white" stroke="#666666" points="589.83,-188 448.58,-188 448.58,-168 589.83,-168 589.83,-188"/>
<text text-anchor="middle" x="519.21" y="-174.5" font-family="Helvetica,sans-Serif" font-size="10.00">AI Behaviors/VehicleUnit.cpp</text>
</a>
</g>
</g>
<!-- Node22&#45;&gt;Node29 -->
<g id="edge34_Node000022_Node000029" class="edge">
<title>Node22&#45;&gt;Node29</title>
<g id="a_edge34_Node000022_Node000029"><a xlink:title=" ">
<path fill="none" stroke="#63b8ff" d="M402.87,-219.79C430.52,-210.1 467.41,-197.16 492.17,-188.48"/>
<polygon fill="#63b8ff" stroke="#63b8ff" points="401.74,-216.48 393.46,-223.09 404.05,-223.09 401.74,-216.48"/>
</a>
</g>
</g>
<!-- Node23&#45;&gt;Node13 -->
<g id="edge27_Node000023_Node000013" class="edge">
<title>Node23&#45;&gt;Node13</title>
<g id="a_edge27_Node000023_Node000013"><a xlink:title=" ">
<path fill="none" stroke="#63b8ff" d="M154.49,-167.6C291.13,-150.17 327.95,-150.18 462.21,-132 465.03,-131.62 467.94,-131.21 470.86,-130.79"/>
<polygon fill="#63b8ff" stroke="#63b8ff" points="154.14,-164.12 144.67,-168.87 155.04,-171.06 154.14,-164.12"/>
</a>
</g>
</g>
<!-- Node24 -->
<g id="Node000024" class="node">
<title>Node24</title>
<g id="a_Node000024"><a xlink:href="_buggy_8cpp.html" target="_top" xlink:title=" ">
<polygon fill="white" stroke="#666666" points="142.96,-132 23.46,-132 23.46,-112 142.96,-112 142.96,-132"/>
<text text-anchor="middle" x="83.21" y="-118.5" font-family="Helvetica,sans-Serif" font-size="10.00">AI Behaviors/Buggy.cpp</text>
</a>
</g>
</g>
<!-- Node23&#45;&gt;Node24 -->
<g id="edge26_Node000023_Node000024" class="edge">
<title>Node23&#45;&gt;Node24</title>
<g id="a_edge26_Node000023_Node000024"><a xlink:title=" ">
<path fill="none" stroke="#63b8ff" d="M86.27,-156.13C85.51,-147.9 84.67,-138.85 84.07,-132.3"/>
<polygon fill="#63b8ff" stroke="#63b8ff" points="82.79,-156.45 87.2,-166.09 89.76,-155.81 82.79,-156.45"/>
</a>
</g>
</g>
<!-- Node25&#45;&gt;Node13 -->
<g id="edge29_Node000025_Node000013" class="edge">
<title>Node25&#45;&gt;Node13</title>
<g id="a_edge29_Node000025_Node000013"><a xlink:title=" ">
<path fill="none" stroke="#63b8ff" d="M284.79,-165.52C340.55,-155.45 420.44,-141.02 471.32,-131.83"/>
<polygon fill="#63b8ff" stroke="#63b8ff" points="284.34,-162.04 275.12,-167.26 285.58,-168.93 284.34,-162.04"/>
</a>
</g>
</g>
<!-- Node26 -->
<g id="Node000026" class="node">
<title>Node26</title>
<g id="a_Node000026"><a xlink:href="_harvester_8cpp.html" target="_top" xlink:title=" ">
<polygon fill="white" stroke="#666666" points="293.33,-132 161.08,-132 161.08,-112 293.33,-112 293.33,-132"/>
<text text-anchor="middle" x="227.21" y="-118.5" font-family="Helvetica,sans-Serif" font-size="10.00">AI Behaviors/Harvester.cpp</text>
</a>
</g>
</g>
<!-- Node25&#45;&gt;Node26 -->
<g id="edge30_Node000025_Node000026" class="edge">
<title>Node25&#45;&gt;Node26</title>
<g id="a_edge30_Node000025_Node000026"><a xlink:title=" ">
<path fill="none" stroke="#63b8ff" d="M223.49,-156.43C224.42,-148.11 225.44,-138.93 226.17,-132.3"/>
<polygon fill="#63b8ff" stroke="#63b8ff" points="220.04,-155.76 222.42,-166.09 227,-156.54 220.04,-155.76"/>
</a>
</g>
</g>
<!-- Node27&#45;&gt;Node13 -->
<g id="edge32_Node000027_Node000013" class="edge">
<title>Node27&#45;&gt;Node13</title>
<g id="a_edge32_Node000027_Node000013"><a xlink:title=" ">
<path fill="none" stroke="#63b8ff" d="M402.75,-163.92C430.61,-154.21 467.96,-141.2 493,-132.48"/>
<polygon fill="#63b8ff" stroke="#63b8ff" points="401.93,-160.5 393.63,-167.1 404.23,-167.11 401.93,-160.5"/>
</a>
</g>
</g>
<!-- Node28 -->
<g id="Node000028" class="node">
<title>Node28</title>
<g id="a_Node000028"><a xlink:href="_tank_aurora_8cpp.html" target="_top" xlink:title=" ">
<polygon fill="white" stroke="#666666" points="452.83,-132 311.58,-132 311.58,-112 452.83,-112 452.83,-132"/>
<text text-anchor="middle" x="382.21" y="-118.5" font-family="Helvetica,sans-Serif" font-size="10.00">AI Behaviors/TankAurora.cpp</text>
</a>
</g>
</g>
<!-- Node27&#45;&gt;Node28 -->
<g id="edge33_Node000027_Node000028" class="edge">
<title>Node27&#45;&gt;Node28</title>
<g id="a_edge33_Node000027_Node000028"><a xlink:title=" ">
<path fill="none" stroke="#63b8ff" d="M371.59,-156.71C374.23,-148.32 377.17,-139.01 379.28,-132.3"/>
<polygon fill="#63b8ff" stroke="#63b8ff" points="368.29,-155.56 368.62,-166.15 374.96,-157.66 368.29,-155.56"/>
</a>
</g>
</g>
</g>
</svg>
