<?xml version="1.0" encoding="UTF-8" standalone="no"?>
<!DOCTYPE svg PUBLIC "-//W3C//DTD SVG 1.1//EN"
 "http://www.w3.org/Graphics/SVG/1.1/DTD/svg11.dtd">
<!-- Generated by graphviz version 10.0.1 (20240210.2158)
 -->
<!-- Title: AI Behaviors/SoundManager.cpp Pages: 1 -->
<svg width="211pt" height="140pt"
 viewBox="0.00 0.00 210.88 140.00" xmlns="http://www.w3.org/2000/svg" xmlns:xlink="http://www.w3.org/1999/xlink">
<g id="graph0" class="graph" transform="scale(1 1) rotate(0) translate(4 136)">
<title>AI Behaviors/SoundManager.cpp</title>
<!-- Node1 -->
<g id="Node000001" class="node">
<title>Node1</title>
<g id="a_Node000001"><a xlink:title=" ">
<polygon fill="#999999" stroke="#666666" points="202.88,-132 45.88,-132 45.88,-112 202.88,-112 202.88,-132"/>
<text text-anchor="middle" x="124.38" y="-118.5" font-family="Helvetica,sans-Serif" font-size="10.00">AI Behaviors/SoundManager.cpp</text>
</a>
</g>
</g>
<!-- Node2 -->
<g id="Node000002" class="node">
<title>Node2</title>
<g id="a_Node000002"><a xlink:href="_sound_manager_8h.html" target="_top" xlink:title=" ">
<polygon fill="white" stroke="#666666" points="169.12,-76 79.62,-76 79.62,-56 169.12,-56 169.12,-76"/>
<text text-anchor="middle" x="124.38" y="-62.5" font-family="Helvetica,sans-Serif" font-size="10.00">SoundManager.h</text>
</a>
</g>
</g>
<!-- Node1&#45;&gt;Node2 -->
<g id="edge1_Node000001_Node000002" class="edge">
<title>Node1&#45;&gt;Node2</title>
<g id="a_edge1_Node000001_Node000002"><a xlink:title=" ">
<path fill="none" stroke="#63b8ff" d="M124.38,-111.59C124.38,-105.01 124.38,-95.96 124.38,-87.73"/>
<polygon fill="#63b8ff" stroke="#63b8ff" points="127.88,-87.81 124.38,-77.81 120.88,-87.81 127.88,-87.81"/>
</a>
</g>
</g>
<!-- Node3 -->
<g id="Node000003" class="node">
<title>Node3</title>
<g id="a_Node000003"><a xlink:title=" ">
<polygon fill="#e0e0e0" stroke="#999999" points="88.75,-20 0,-20 0,0 88.75,0 88.75,-20"/>
<text text-anchor="middle" x="44.38" y="-6.5" font-family="Helvetica,sans-Serif" font-size="10.00">SFML/Audio.hpp</text>
</a>
</g>
</g>
<!-- Node2&#45;&gt;Node3 -->
<g id="edge2_Node000002_Node000003" class="edge">
<title>Node2&#45;&gt;Node3</title>
<g id="a_edge2_Node000002_Node000003"><a xlink:title=" ">
<path fill="none" stroke="#63b8ff" d="M110.44,-55.59C98.7,-47.67 81.64,-36.16 67.81,-26.82"/>
<polygon fill="#63b8ff" stroke="#63b8ff" points="69.92,-24.02 59.67,-21.33 66,-29.82 69.92,-24.02"/>
</a>
</g>
</g>
<!-- Node4 -->
<g id="Node000004" class="node">
<title>Node4</title>
<g id="a_Node000004"><a xlink:title=" ">
<polygon fill="#e0e0e0" stroke="#999999" points="141.75,-20 107,-20 107,0 141.75,0 141.75,-20"/>
<text text-anchor="middle" x="124.38" y="-6.5" font-family="Helvetica,sans-Serif" font-size="10.00">map</text>
</a>
</g>
</g>
<!-- Node2&#45;&gt;Node4 -->
<g id="edge3_Node000002_Node000004" class="edge">
<title>Node2&#45;&gt;Node4</title>
<g id="a_edge3_Node000002_Node000004"><a xlink:title=" ">
<path fill="none" stroke="#63b8ff" d="M124.38,-55.59C124.38,-49.01 124.38,-39.96 124.38,-31.73"/>
<polygon fill="#63b8ff" stroke="#63b8ff" points="127.88,-31.81 124.38,-21.81 120.88,-31.81 127.88,-31.81"/>
</a>
</g>
</g>
<!-- Node5 -->
<g id="Node000005" class="node">
<title>Node5</title>
<g id="a_Node000005"><a xlink:title=" ">
<polygon fill="#e0e0e0" stroke="#999999" points="202.5,-20 160.25,-20 160.25,0 202.5,0 202.5,-20"/>
<text text-anchor="middle" x="181.38" y="-6.5" font-family="Helvetica,sans-Serif" font-size="10.00">queue</text>
</a>
</g>
</g>
<!-- Node2&#45;&gt;Node5 -->
<g id="edge4_Node000002_Node000005" class="edge">
<title>Node2&#45;&gt;Node5</title>
<g id="a_edge4_Node000002_Node000005"><a xlink:title=" ">
<path fill="none" stroke="#63b8ff" d="M134.3,-55.59C142.31,-48.01 153.79,-37.13 163.41,-28.02"/>
<polygon fill="#63b8ff" stroke="#63b8ff" points="165.61,-30.76 170.46,-21.34 160.79,-25.68 165.61,-30.76"/>
</a>
</g>
</g>
</g>
</svg>
