<?xml version="1.0" encoding="UTF-8" standalone="no"?>
<!DOCTYPE svg PUBLIC "-//W3C//DTD SVG 1.1//EN"
 "http://www.w3.org/Graphics/SVG/1.1/DTD/svg11.dtd">
<!-- Generated by graphviz version 10.0.1 (20240210.2158)
 -->
<!-- Title: AI Behaviors/Tile.h Pages: 1 -->
<svg width="1769pt" height="364pt"
 viewBox="0.00 0.00 1769.00 364.00" xmlns="http://www.w3.org/2000/svg" xmlns:xlink="http://www.w3.org/1999/xlink">
<g id="graph0" class="graph" transform="scale(1 1) rotate(0) translate(4 360)">
<title>AI Behaviors/Tile.h</title>
<!-- Node1 -->
<g id="Node000001" class="node">
<title>Node1</title>
<g id="a_Node000001"><a xlink:title=" ">
<polygon fill="#999999" stroke="#666666" points="1015.62,-356 919.38,-356 919.38,-336 1015.62,-336 1015.62,-356"/>
<text text-anchor="middle" x="967.5" y="-342.5" font-family="Helvetica,sans-Serif" font-size="10.00">AI Behaviors/Tile.h</text>
</a>
</g>
</g>
<!-- Node2 -->
<g id="Node000002" class="node">
<title>Node2</title>
<g id="a_Node000002"><a xlink:href="_g_u_i_8h.html" target="_top" xlink:title=" ">
<polygon fill="white" stroke="#666666" points="994.38,-132 896.62,-132 896.62,-112 994.38,-112 994.38,-132"/>
<text text-anchor="middle" x="945.5" y="-118.5" font-family="Helvetica,sans-Serif" font-size="10.00">AI Behaviors/GUI.h</text>
</a>
</g>
</g>
<!-- Node1&#45;&gt;Node2 -->
<g id="edge1_Node000001_Node000002" class="edge">
<title>Node1&#45;&gt;Node2</title>
<g id="a_edge1_Node000001_Node000002"><a xlink:title=" ">
<path fill="none" stroke="#63b8ff" d="M965.46,-324.45C960.84,-277.79 949.7,-165.36 946.42,-132.3"/>
<polygon fill="#63b8ff" stroke="#63b8ff" points="961.96,-324.63 966.43,-334.24 968.93,-323.94 961.96,-324.63"/>
</a>
</g>
</g>
<!-- Node4 -->
<g id="Node000004" class="node">
<title>Node4</title>
<g id="a_Node000004"><a xlink:href="_game_8h.html" target="_top" xlink:title=" ">
<polygon fill="white" stroke="#666666" points="409.25,-76 301.75,-76 301.75,-56 409.25,-56 409.25,-76"/>
<text text-anchor="middle" x="355.5" y="-62.5" font-family="Helvetica,sans-Serif" font-size="10.00">AI Behaviors/Game.h</text>
</a>
</g>
</g>
<!-- Node1&#45;&gt;Node4 -->
<g id="edge6_Node000001_Node000004" class="edge">
<title>Node1&#45;&gt;Node4</title>
<g id="a_edge6_Node000001_Node000004"><a xlink:title=" ">
<path fill="none" stroke="#63b8ff" d="M907.88,-340.52C754.02,-328.15 355.5,-290.75 355.5,-235 355.5,-235 355.5,-235 355.5,-177 355.5,-139.76 355.5,-95.43 355.5,-76.42"/>
<polygon fill="#63b8ff" stroke="#63b8ff" points="907.21,-343.98 917.46,-341.28 907.77,-337 907.21,-343.98"/>
</a>
</g>
</g>
<!-- Node7 -->
<g id="Node000007" class="node">
<title>Node7</title>
<g id="a_Node000007"><a xlink:href="_level_editor_8h.html" target="_top" xlink:title=" ">
<polygon fill="white" stroke="#666666" points="327.75,-188 199.25,-188 199.25,-168 327.75,-168 327.75,-188"/>
<text text-anchor="middle" x="263.5" y="-174.5" font-family="Helvetica,sans-Serif" font-size="10.00">AI Behaviors/LevelEditor.h</text>
</a>
</g>
</g>
<!-- Node1&#45;&gt;Node7 -->
<g id="edge7_Node000001_Node000007" class="edge">
<title>Node1&#45;&gt;Node7</title>
<g id="a_edge7_Node000001_Node000007"><a xlink:title=" ">
<path fill="none" stroke="#63b8ff" d="M907.43,-343.72C760.11,-340.14 389.41,-328.4 341.5,-300 297.42,-273.88 273.92,-212 266.31,-188.38"/>
<polygon fill="#63b8ff" stroke="#63b8ff" points="907.3,-347.21 917.38,-343.95 907.47,-340.22 907.3,-347.21"/>
</a>
</g>
</g>
<!-- Node11 -->
<g id="Node000011" class="node">
<title>Node11</title>
<g id="a_Node000011"><a xlink:href="_tile_8cpp.html" target="_top" xlink:title=" ">
<polygon fill="white" stroke="#666666" points="1221.88,-300 1115.12,-300 1115.12,-280 1221.88,-280 1221.88,-300"/>
<text text-anchor="middle" x="1168.5" y="-286.5" font-family="Helvetica,sans-Serif" font-size="10.00">AI Behaviors/Tile.cpp</text>
</a>
</g>
</g>
<!-- Node1&#45;&gt;Node11 -->
<g id="edge14_Node000001_Node000011" class="edge">
<title>Node1&#45;&gt;Node11</title>
<g id="a_edge14_Node000001_Node000011"><a xlink:title=" ">
<path fill="none" stroke="#63b8ff" d="M1013.33,-332.69C1049.74,-322.91 1099.89,-309.43 1133.22,-300.48"/>
<polygon fill="#63b8ff" stroke="#63b8ff" points="1012.72,-329.23 1003.97,-335.2 1014.54,-335.99 1012.72,-329.23"/>
</a>
</g>
</g>
<!-- Node12 -->
<g id="Node000012" class="node">
<title>Node12</title>
<g id="a_Node000012"><a xlink:href="_unit_8h.html" target="_top" xlink:title=" ">
<polygon fill="white" stroke="#666666" points="1096.75,-300 998.25,-300 998.25,-280 1096.75,-280 1096.75,-300"/>
<text text-anchor="middle" x="1047.5" y="-286.5" font-family="Helvetica,sans-Serif" font-size="10.00">AI Behaviors/Unit.h</text>
</a>
</g>
</g>
<!-- Node1&#45;&gt;Node12 -->
<g id="edge15_Node000001_Node000012" class="edge">
<title>Node1&#45;&gt;Node12</title>
<g id="a_edge15_Node000001_Node000012"><a xlink:title=" ">
<path fill="none" stroke="#63b8ff" d="M990.8,-329.27C1004.62,-319.94 1021.68,-308.43 1033.46,-300.48"/>
<polygon fill="#63b8ff" stroke="#63b8ff" points="989.02,-326.25 982.69,-334.75 992.94,-332.05 989.02,-326.25"/>
</a>
</g>
</g>
<!-- Node3 -->
<g id="Node000003" class="node">
<title>Node3</title>
<g id="a_Node000003"><a xlink:href="_g_u_i_8cpp.html" target="_top" xlink:title=" ">
<polygon fill="white" stroke="#666666" points="999.62,-76 891.38,-76 891.38,-56 999.62,-56 999.62,-76"/>
<text text-anchor="middle" x="945.5" y="-62.5" font-family="Helvetica,sans-Serif" font-size="10.00">AI Behaviors/GUI.cpp</text>
</a>
</g>
</g>
<!-- Node2&#45;&gt;Node3 -->
<g id="edge2_Node000002_Node000003" class="edge">
<title>Node2&#45;&gt;Node3</title>
<g id="a_edge2_Node000002_Node000003"><a xlink:title=" ">
<path fill="none" stroke="#63b8ff" d="M945.5,-100.13C945.5,-91.9 945.5,-82.85 945.5,-76.3"/>
<polygon fill="#63b8ff" stroke="#63b8ff" points="942,-100.08 945.5,-110.08 949,-100.08 942,-100.08"/>
</a>
</g>
</g>
<!-- Node2&#45;&gt;Node4 -->
<g id="edge3_Node000002_Node000004" class="edge">
<title>Node2&#45;&gt;Node4</title>
<g id="a_edge3_Node000002_Node000004"><a xlink:title=" ">
<path fill="none" stroke="#63b8ff" d="M884.89,-111.76C704.87,-90.55 503.96,-76.41 409.62,-70.33"/>
<polygon fill="#63b8ff" stroke="#63b8ff" points="884.32,-115.22 894.67,-112.93 885.15,-108.27 884.32,-115.22"/>
</a>
</g>
</g>
<!-- Node5 -->
<g id="Node000005" class="node">
<title>Node5</title>
<g id="a_Node000005"><a xlink:href="_game_8cpp.html" target="_top" xlink:title=" ">
<polygon fill="white" stroke="#666666" points="347.5,-20 229.5,-20 229.5,0 347.5,0 347.5,-20"/>
<text text-anchor="middle" x="288.5" y="-6.5" font-family="Helvetica,sans-Serif" font-size="10.00">AI Behaviors/Game.cpp</text>
</a>
</g>
</g>
<!-- Node4&#45;&gt;Node5 -->
<g id="edge4_Node000004_Node000005" class="edge">
<title>Node4&#45;&gt;Node5</title>
<g id="a_edge4_Node000004_Node000005"><a xlink:title=" ">
<path fill="none" stroke="#63b8ff" d="M334.91,-48.4C323.45,-39.17 309.6,-28.01 300.04,-20.3"/>
<polygon fill="#63b8ff" stroke="#63b8ff" points="332.67,-51.09 342.65,-54.64 337.06,-45.64 332.67,-51.09"/>
</a>
</g>
</g>
<!-- Node6 -->
<g id="Node000006" class="node">
<title>Node6</title>
<g id="a_Node000006"><a xlink:href="main_8cpp.html" target="_top" xlink:title=" ">
<polygon fill="white" stroke="#666666" points="477.88,-20 365.12,-20 365.12,0 477.88,0 477.88,-20"/>
<text text-anchor="middle" x="421.5" y="-6.5" font-family="Helvetica,sans-Serif" font-size="10.00">AI Behaviors/main.cpp</text>
</a>
</g>
</g>
<!-- Node4&#45;&gt;Node6 -->
<g id="edge5_Node000004_Node000006" class="edge">
<title>Node4&#45;&gt;Node6</title>
<g id="a_edge5_Node000004_Node000006"><a xlink:title=" ">
<path fill="none" stroke="#63b8ff" d="M375.79,-48.4C387.08,-39.17 400.71,-28.01 410.14,-20.3"/>
<polygon fill="#63b8ff" stroke="#63b8ff" points="373.69,-45.59 368.17,-54.64 378.12,-51.01 373.69,-45.59"/>
</a>
</g>
</g>
<!-- Node7&#45;&gt;Node2 -->
<g id="edge8_Node000007_Node000002" class="edge">
<title>Node7&#45;&gt;Node2</title>
<g id="a_edge8_Node000007_Node000002"><a xlink:title=" ">
<path fill="none" stroke="#63b8ff" d="M339.26,-170.75C351.05,-169.81 363.1,-168.86 374.5,-168 602.41,-150.76 660.37,-157.55 887.5,-132 890.34,-131.68 893.24,-131.32 896.18,-130.94"/>
<polygon fill="#63b8ff" stroke="#63b8ff" points="339.25,-167.24 329.56,-171.53 339.81,-174.21 339.25,-167.24"/>
</a>
</g>
</g>
<!-- Node7&#45;&gt;Node4 -->
<g id="edge9_Node000007_Node000004" class="edge">
<title>Node7&#45;&gt;Node4</title>
<g id="a_edge9_Node000007_Node000004"><a xlink:title=" ">
<path fill="none" stroke="#63b8ff" d="M278.64,-158.9C298.44,-135.22 332.42,-94.6 347.68,-76.35"/>
<polygon fill="#63b8ff" stroke="#63b8ff" points="276.05,-156.54 272.31,-166.46 281.42,-161.04 276.05,-156.54"/>
</a>
</g>
</g>
<!-- Node8 -->
<g id="Node000008" class="node">
<title>Node8</title>
<g id="a_Node000008"><a xlink:href="_level_editor_8cpp.html" target="_top" xlink:title=" ">
<polygon fill="white" stroke="#666666" points="139,-132 0,-132 0,-112 139,-112 139,-132"/>
<text text-anchor="middle" x="69.5" y="-118.5" font-family="Helvetica,sans-Serif" font-size="10.00">AI Behaviors/LevelEditor.cpp</text>
</a>
</g>
</g>
<!-- Node7&#45;&gt;Node8 -->
<g id="edge10_Node000007_Node000008" class="edge">
<title>Node7&#45;&gt;Node8</title>
<g id="a_edge10_Node000007_Node000008"><a xlink:title=" ">
<path fill="none" stroke="#63b8ff" d="M218.81,-164.56C183.71,-154.79 135.58,-141.39 103.56,-132.48"/>
<polygon fill="#63b8ff" stroke="#63b8ff" points="217.68,-167.88 228.25,-167.19 219.55,-161.13 217.68,-167.88"/>
</a>
</g>
</g>
<!-- Node9 -->
<g id="Node000009" class="node">
<title>Node9</title>
<g id="a_Node000009"><a xlink:href="_level_loader_8h.html" target="_top" xlink:title=" ">
<polygon fill="white" stroke="#666666" points="289.62,-132 157.38,-132 157.38,-112 289.62,-112 289.62,-132"/>
<text text-anchor="middle" x="223.5" y="-118.5" font-family="Helvetica,sans-Serif" font-size="10.00">AI Behaviors/LevelLoader.h</text>
</a>
</g>
</g>
<!-- Node7&#45;&gt;Node9 -->
<g id="edge11_Node000007_Node000009" class="edge">
<title>Node7&#45;&gt;Node9</title>
<g id="a_edge11_Node000007_Node000009"><a xlink:title=" ">
<path fill="none" stroke="#63b8ff" d="M249.75,-158.44C243.22,-149.62 235.7,-139.47 230.39,-132.3"/>
<polygon fill="#63b8ff" stroke="#63b8ff" points="246.87,-160.43 255.63,-166.38 252.49,-156.26 246.87,-160.43"/>
</a>
</g>
</g>
<!-- Node9&#45;&gt;Node4 -->
<g id="edge12_Node000009_Node000004" class="edge">
<title>Node9&#45;&gt;Node4</title>
<g id="a_edge12_Node000009_Node000004"><a xlink:title=" ">
<path fill="none" stroke="#63b8ff" d="M257.06,-107.27C280.6,-97.64 311.48,-85.01 332.33,-76.48"/>
<polygon fill="#63b8ff" stroke="#63b8ff" points="255.82,-104 247.89,-111.02 258.47,-110.47 255.82,-104"/>
</a>
</g>
</g>
<!-- Node10 -->
<g id="Node000010" class="node">
<title>Node10</title>
<g id="a_Node000010"><a xlink:href="_level_loader_8cpp.html" target="_top" xlink:title=" ">
<polygon fill="white" stroke="#666666" points="283.88,-76 141.12,-76 141.12,-56 283.88,-56 283.88,-76"/>
<text text-anchor="middle" x="212.5" y="-62.5" font-family="Helvetica,sans-Serif" font-size="10.00">AI Behaviors/LevelLoader.cpp</text>
</a>
</g>
</g>
<!-- Node9&#45;&gt;Node10 -->
<g id="edge13_Node000009_Node000010" class="edge">
<title>Node9&#45;&gt;Node10</title>
<g id="a_edge13_Node000009_Node000010"><a xlink:title=" ">
<path fill="none" stroke="#63b8ff" d="M219.31,-100.43C217.61,-92.11 215.75,-82.93 214.39,-76.3"/>
<polygon fill="#63b8ff" stroke="#63b8ff" points="215.86,-101.01 221.28,-110.11 222.72,-99.61 215.86,-101.01"/>
</a>
</g>
</g>
<!-- Node13 -->
<g id="Node000013" class="node">
<title>Node13</title>
<g id="a_Node000013"><a xlink:href="_aircraft_unit_8h.html" target="_top" xlink:title=" ">
<polygon fill="white" stroke="#666666" points="1260.12,-244 1130.88,-244 1130.88,-224 1260.12,-224 1260.12,-244"/>
<text text-anchor="middle" x="1195.5" y="-230.5" font-family="Helvetica,sans-Serif" font-size="10.00">AI Behaviors/AircraftUnit.h</text>
</a>
</g>
</g>
<!-- Node12&#45;&gt;Node13 -->
<g id="edge16_Node000012_Node000013" class="edge">
<title>Node12&#45;&gt;Node13</title>
<g id="a_edge16_Node000012_Node000013"><a xlink:title=" ">
<path fill="none" stroke="#63b8ff" d="M1084.06,-275.66C1110.58,-265.98 1145.83,-253.12 1169.52,-244.48"/>
<polygon fill="#63b8ff" stroke="#63b8ff" points="1082.9,-272.36 1074.7,-279.08 1085.3,-278.94 1082.9,-272.36"/>
</a>
</g>
</g>
<!-- Node19 -->
<g id="Node000019" class="node">
<title>Node19</title>
<g id="a_Node000019"><a xlink:href="_infantry_unit_8h.html" target="_top" xlink:title=" ">
<polygon fill="white" stroke="#666666" points="1585.5,-244 1455.5,-244 1455.5,-224 1585.5,-224 1585.5,-244"/>
<text text-anchor="middle" x="1520.5" y="-230.5" font-family="Helvetica,sans-Serif" font-size="10.00">AI Behaviors/InfantryUnit.h</text>
</a>
</g>
</g>
<!-- Node12&#45;&gt;Node19 -->
<g id="edge24_Node000012_Node000019" class="edge">
<title>Node12&#45;&gt;Node19</title>
<g id="a_edge24_Node000012_Node000019"><a xlink:title=" ">
<path fill="none" stroke="#63b8ff" d="M1108.33,-279.82C1237.56,-263.12 1375.78,-248.98 1455.15,-241.23"/>
<polygon fill="#63b8ff" stroke="#63b8ff" points="1108.02,-276.33 1098.55,-281.09 1108.92,-283.27 1108.02,-276.33"/>
</a>
</g>
</g>
<!-- Node23 -->
<g id="Node000023" class="node">
<title>Node23</title>
<g id="a_Node000023"><a xlink:href="_unit_8cpp.html" target="_top" xlink:title=" ">
<polygon fill="white" stroke="#666666" points="1105,-244 996,-244 996,-224 1105,-224 1105,-244"/>
<text text-anchor="middle" x="1050.5" y="-230.5" font-family="Helvetica,sans-Serif" font-size="10.00">AI Behaviors/Unit.cpp</text>
</a>
</g>
</g>
<!-- Node12&#45;&gt;Node23 -->
<g id="edge29_Node000012_Node000023" class="edge">
<title>Node12&#45;&gt;Node23</title>
<g id="a_edge29_Node000012_Node000023"><a xlink:title=" ">
<path fill="none" stroke="#63b8ff" d="M1048.66,-268.13C1049.12,-259.9 1049.62,-250.85 1049.98,-244.3"/>
<polygon fill="#63b8ff" stroke="#63b8ff" points="1045.17,-267.9 1048.11,-278.08 1052.16,-268.29 1045.17,-267.9"/>
</a>
</g>
</g>
<!-- Node24 -->
<g id="Node000024" class="node">
<title>Node24</title>
<g id="a_Node000024"><a xlink:href="_vehicle_unit_8h.html" target="_top" xlink:title=" ">
<polygon fill="white" stroke="#666666" points="810.88,-244 680.12,-244 680.12,-224 810.88,-224 810.88,-244"/>
<text text-anchor="middle" x="745.5" y="-230.5" font-family="Helvetica,sans-Serif" font-size="10.00">AI Behaviors/VehicleUnit.h</text>
</a>
</g>
</g>
<!-- Node12&#45;&gt;Node24 -->
<g id="edge30_Node000012_Node000024" class="edge">
<title>Node12&#45;&gt;Node24</title>
<g id="a_edge30_Node000012_Node000024"><a xlink:title=" ">
<path fill="none" stroke="#63b8ff" d="M986.96,-278.17C931.85,-268.32 851.28,-253.91 798.62,-244.5"/>
<polygon fill="#63b8ff" stroke="#63b8ff" points="986.02,-281.56 996.48,-279.88 987.25,-274.67 986.02,-281.56"/>
</a>
</g>
</g>
<!-- Node14 -->
<g id="Node000014" class="node">
<title>Node14</title>
<g id="a_Node000014"><a xlink:href="_aircraft_unit_8cpp.html" target="_top" xlink:title=" ">
<polygon fill="white" stroke="#666666" points="1273.38,-188 1133.62,-188 1133.62,-168 1273.38,-168 1273.38,-188"/>
<text text-anchor="middle" x="1203.5" y="-174.5" font-family="Helvetica,sans-Serif" font-size="10.00">AI Behaviors/AircraftUnit.cpp</text>
</a>
</g>
</g>
<!-- Node13&#45;&gt;Node14 -->
<g id="edge17_Node000013_Node000014" class="edge">
<title>Node13&#45;&gt;Node14</title>
<g id="a_edge17_Node000013_Node000014"><a xlink:title=" ">
<path fill="none" stroke="#63b8ff" d="M1198.55,-212.43C1199.78,-204.11 1201.14,-194.93 1202.12,-188.3"/>
<polygon fill="#63b8ff" stroke="#63b8ff" points="1195.12,-211.69 1197.12,-222.1 1202.04,-212.72 1195.12,-211.69"/>
</a>
</g>
</g>
<!-- Node15 -->
<g id="Node000015" class="node">
<title>Node15</title>
<g id="a_Node000015"><a xlink:href="_firehawk_8h.html" target="_top" xlink:title=" ">
<polygon fill="white" stroke="#666666" points="1115.62,-188 995.38,-188 995.38,-168 1115.62,-168 1115.62,-188"/>
<text text-anchor="middle" x="1055.5" y="-174.5" font-family="Helvetica,sans-Serif" font-size="10.00">AI Behaviors/Firehawk.h</text>
</a>
</g>
</g>
<!-- Node13&#45;&gt;Node15 -->
<g id="edge18_Node000013_Node000015" class="edge">
<title>Node13&#45;&gt;Node15</title>
<g id="a_edge18_Node000013_Node000015"><a xlink:title=" ">
<path fill="none" stroke="#63b8ff" d="M1160.58,-219.53C1135.53,-209.87 1102.39,-197.08 1080.08,-188.48"/>
<polygon fill="#63b8ff" stroke="#63b8ff" points="1159.11,-222.72 1169.7,-223.05 1161.63,-216.18 1159.11,-222.72"/>
</a>
</g>
</g>
<!-- Node17 -->
<g id="Node000017" class="node">
<title>Node17</title>
<g id="a_Node000017"><a xlink:href="_hammer_head_8h.html" target="_top" xlink:title=" ">
<polygon fill="white" stroke="#666666" points="1431.75,-188 1291.25,-188 1291.25,-168 1431.75,-168 1431.75,-188"/>
<text text-anchor="middle" x="1361.5" y="-174.5" font-family="Helvetica,sans-Serif" font-size="10.00">AI Behaviors/HammerHead.h</text>
</a>
</g>
</g>
<!-- Node13&#45;&gt;Node17 -->
<g id="edge21_Node000013_Node000017" class="edge">
<title>Node13&#45;&gt;Node17</title>
<g id="a_edge21_Node000013_Node000017"><a xlink:title=" ">
<path fill="none" stroke="#63b8ff" d="M1235.31,-220.05C1265.2,-210.33 1305.43,-197.24 1332.36,-188.48"/>
<polygon fill="#63b8ff" stroke="#63b8ff" points="1234.28,-216.7 1225.85,-223.13 1236.45,-223.36 1234.28,-216.7"/>
</a>
</g>
</g>
<!-- Node15&#45;&gt;Node2 -->
<g id="edge20_Node000015_Node000002" class="edge">
<title>Node15&#45;&gt;Node2</title>
<g id="a_edge20_Node000015_Node000002"><a xlink:title=" ">
<path fill="none" stroke="#63b8ff" d="M1026.19,-162.61C1006.75,-153.07 981.79,-140.81 964.81,-132.48"/>
<polygon fill="#63b8ff" stroke="#63b8ff" points="1024.46,-165.66 1034.98,-166.93 1027.55,-159.38 1024.46,-165.66"/>
</a>
</g>
</g>
<!-- Node16 -->
<g id="Node000016" class="node">
<title>Node16</title>
<g id="a_Node000016"><a xlink:href="_firehawk_8cpp.html" target="_top" xlink:title=" ">
<polygon fill="white" stroke="#666666" points="1142.88,-132 1012.12,-132 1012.12,-112 1142.88,-112 1142.88,-132"/>
<text text-anchor="middle" x="1077.5" y="-118.5" font-family="Helvetica,sans-Serif" font-size="10.00">AI Behaviors/Firehawk.cpp</text>
</a>
</g>
</g>
<!-- Node15&#45;&gt;Node16 -->
<g id="edge19_Node000015_Node000016" class="edge">
<title>Node15&#45;&gt;Node16</title>
<g id="a_edge19_Node000015_Node000016"><a xlink:title=" ">
<path fill="none" stroke="#63b8ff" d="M1063.65,-157C1067.1,-148.54 1070.95,-139.08 1073.71,-132.3"/>
<polygon fill="#63b8ff" stroke="#63b8ff" points="1060.43,-155.61 1059.9,-166.19 1066.92,-158.25 1060.43,-155.61"/>
</a>
</g>
</g>
<!-- Node17&#45;&gt;Node2 -->
<g id="edge22_Node000017_Node000002" class="edge">
<title>Node17&#45;&gt;Node2</title>
<g id="a_edge22_Node000017_Node000002"><a xlink:title=" ">
<path fill="none" stroke="#63b8ff" d="M1279.44,-167.37C1206.82,-158.68 1098.01,-145.27 1003.5,-132 1000.67,-131.6 997.77,-131.19 994.85,-130.76"/>
<polygon fill="#63b8ff" stroke="#63b8ff" points="1278.93,-170.83 1289.27,-168.54 1279.76,-163.88 1278.93,-170.83"/>
</a>
</g>
</g>
<!-- Node18 -->
<g id="Node000018" class="node">
<title>Node18</title>
<g id="a_Node000018"><a xlink:href="_hammer_head_8cpp.html" target="_top" xlink:title=" ">
<polygon fill="white" stroke="#666666" points="1437,-132 1286,-132 1286,-112 1437,-112 1437,-132"/>
<text text-anchor="middle" x="1361.5" y="-118.5" font-family="Helvetica,sans-Serif" font-size="10.00">AI Behaviors/HammerHead.cpp</text>
</a>
</g>
</g>
<!-- Node17&#45;&gt;Node18 -->
<g id="edge23_Node000017_Node000018" class="edge">
<title>Node17&#45;&gt;Node18</title>
<g id="a_edge23_Node000017_Node000018"><a xlink:title=" ">
<path fill="none" stroke="#63b8ff" d="M1361.5,-156.13C1361.5,-147.9 1361.5,-138.85 1361.5,-132.3"/>
<polygon fill="#63b8ff" stroke="#63b8ff" points="1358,-156.08 1361.5,-166.08 1365,-156.08 1358,-156.08"/>
</a>
</g>
</g>
<!-- Node20 -->
<g id="Node000020" class="node">
<title>Node20</title>
<g id="a_Node000020"><a xlink:href="_infantry_unit_8cpp.html" target="_top" xlink:title=" ">
<polygon fill="white" stroke="#666666" points="1590.75,-188 1450.25,-188 1450.25,-168 1590.75,-168 1590.75,-188"/>
<text text-anchor="middle" x="1520.5" y="-174.5" font-family="Helvetica,sans-Serif" font-size="10.00">AI Behaviors/InfantryUnit.cpp</text>
</a>
</g>
</g>
<!-- Node19&#45;&gt;Node20 -->
<g id="edge25_Node000019_Node000020" class="edge">
<title>Node19&#45;&gt;Node20</title>
<g id="a_edge25_Node000019_Node000020"><a xlink:title=" ">
<path fill="none" stroke="#63b8ff" d="M1520.5,-212.13C1520.5,-203.9 1520.5,-194.85 1520.5,-188.3"/>
<polygon fill="#63b8ff" stroke="#63b8ff" points="1517,-212.08 1520.5,-222.08 1524,-212.08 1517,-212.08"/>
</a>
</g>
</g>
<!-- Node21 -->
<g id="Node000021" class="node">
<title>Node21</title>
<g id="a_Node000021"><a xlink:href="_rifleman_squad_8h.html" target="_top" xlink:title=" ">
<polygon fill="white" stroke="#666666" points="1755.75,-188 1609.25,-188 1609.25,-168 1755.75,-168 1755.75,-188"/>
<text text-anchor="middle" x="1682.5" y="-174.5" font-family="Helvetica,sans-Serif" font-size="10.00">AI Behaviors/RiflemanSquad.h</text>
</a>
</g>
</g>
<!-- Node19&#45;&gt;Node21 -->
<g id="edge26_Node000019_Node000021" class="edge">
<title>Node19&#45;&gt;Node21</title>
<g id="a_edge26_Node000019_Node000021"><a xlink:title=" ">
<path fill="none" stroke="#63b8ff" d="M1559.35,-220.05C1588.52,-210.33 1627.78,-197.24 1654.06,-188.48"/>
<polygon fill="#63b8ff" stroke="#63b8ff" points="1558.53,-216.63 1550.15,-223.12 1560.75,-223.27 1558.53,-216.63"/>
</a>
</g>
</g>
<!-- Node21&#45;&gt;Node2 -->
<g id="edge27_Node000021_Node000002" class="edge">
<title>Node21&#45;&gt;Node2</title>
<g id="a_edge27_Node000021_Node000002"><a xlink:title=" ">
<path fill="none" stroke="#63b8ff" d="M1597.64,-167.89C1333.18,-146.08 1263.74,-159.99 1003.5,-132 1000.66,-131.69 997.75,-131.35 994.82,-130.97"/>
<polygon fill="#63b8ff" stroke="#63b8ff" points="1596.99,-171.35 1607.24,-168.69 1597.57,-164.37 1596.99,-171.35"/>
</a>
</g>
</g>
<!-- Node22 -->
<g id="Node000022" class="node">
<title>Node22</title>
<g id="a_Node000022"><a xlink:href="_rifleman_squad_8cpp.html" target="_top" xlink:title=" ">
<polygon fill="white" stroke="#666666" points="1761,-132 1604,-132 1604,-112 1761,-112 1761,-132"/>
<text text-anchor="middle" x="1682.5" y="-118.5" font-family="Helvetica,sans-Serif" font-size="10.00">AI Behaviors/RiflemanSquad.cpp</text>
</a>
</g>
</g>
<!-- Node21&#45;&gt;Node22 -->
<g id="edge28_Node000021_Node000022" class="edge">
<title>Node21&#45;&gt;Node22</title>
<g id="a_edge28_Node000021_Node000022"><a xlink:title=" ">
<path fill="none" stroke="#63b8ff" d="M1682.5,-156.13C1682.5,-147.9 1682.5,-138.85 1682.5,-132.3"/>
<polygon fill="#63b8ff" stroke="#63b8ff" points="1679,-156.08 1682.5,-166.08 1686,-156.08 1679,-156.08"/>
</a>
</g>
</g>
<!-- Node25 -->
<g id="Node000025" class="node">
<title>Node25</title>
<g id="a_Node000025"><a xlink:href="_buggy_8h.html" target="_top" xlink:title=" ">
<polygon fill="white" stroke="#666666" points="800,-188 691,-188 691,-168 800,-168 800,-188"/>
<text text-anchor="middle" x="745.5" y="-174.5" font-family="Helvetica,sans-Serif" font-size="10.00">AI Behaviors/Buggy.h</text>
</a>
</g>
</g>
<!-- Node24&#45;&gt;Node25 -->
<g id="edge31_Node000024_Node000025" class="edge">
<title>Node24&#45;&gt;Node25</title>
<g id="a_edge31_Node000024_Node000025"><a xlink:title=" ">
<path fill="none" stroke="#63b8ff" d="M745.5,-212.13C745.5,-203.9 745.5,-194.85 745.5,-188.3"/>
<polygon fill="#63b8ff" stroke="#63b8ff" points="742,-212.08 745.5,-222.08 749,-212.08 742,-212.08"/>
</a>
</g>
</g>
<!-- Node27 -->
<g id="Node000027" class="node">
<title>Node27</title>
<g id="a_Node000027"><a xlink:href="_harvester_8h.html" target="_top" xlink:title=" ">
<polygon fill="white" stroke="#666666" points="939.38,-188 817.62,-188 817.62,-168 939.38,-168 939.38,-188"/>
<text text-anchor="middle" x="878.5" y="-174.5" font-family="Helvetica,sans-Serif" font-size="10.00">AI Behaviors/Harvester.h</text>
</a>
</g>
</g>
<!-- Node24&#45;&gt;Node27 -->
<g id="edge34_Node000024_Node000027" class="edge">
<title>Node24&#45;&gt;Node27</title>
<g id="a_edge34_Node000024_Node000027"><a xlink:title=" ">
<path fill="none" stroke="#63b8ff" d="M779.31,-219.27C803.04,-209.64 834.15,-197.01 855.15,-188.48"/>
<polygon fill="#63b8ff" stroke="#63b8ff" points="778.02,-216.02 770.07,-223.02 780.65,-222.51 778.02,-216.02"/>
</a>
</g>
</g>
<!-- Node29 -->
<g id="Node000029" class="node">
<title>Node29</title>
<g id="a_Node000029"><a xlink:href="_tank_aurora_8h.html" target="_top" xlink:title=" ">
<polygon fill="white" stroke="#666666" points="513.88,-188 383.12,-188 383.12,-168 513.88,-168 513.88,-188"/>
<text text-anchor="middle" x="448.5" y="-174.5" font-family="Helvetica,sans-Serif" font-size="10.00">AI Behaviors/TankAurora.h</text>
</a>
</g>
</g>
<!-- Node24&#45;&gt;Node29 -->
<g id="edge37_Node000024_Node000029" class="edge">
<title>Node24&#45;&gt;Node29</title>
<g id="a_edge37_Node000024_Node000029"><a xlink:title=" ">
<path fill="none" stroke="#63b8ff" d="M682.24,-221.5C628.11,-211.66 551.13,-197.66 500.51,-188.46"/>
<polygon fill="#63b8ff" stroke="#63b8ff" points="681.47,-224.92 691.94,-223.26 682.72,-218.03 681.47,-224.92"/>
</a>
</g>
</g>
<!-- Node31 -->
<g id="Node000031" class="node">
<title>Node31</title>
<g id="a_Node000031"><a xlink:href="_vehicle_unit_8cpp.html" target="_top" xlink:title=" ">
<polygon fill="white" stroke="#666666" points="673.12,-188 531.88,-188 531.88,-168 673.12,-168 673.12,-188"/>
<text text-anchor="middle" x="602.5" y="-174.5" font-family="Helvetica,sans-Serif" font-size="10.00">AI Behaviors/VehicleUnit.cpp</text>
</a>
</g>
</g>
<!-- Node24&#45;&gt;Node31 -->
<g id="edge40_Node000024_Node000031" class="edge">
<title>Node24&#45;&gt;Node31</title>
<g id="a_edge40_Node000024_Node000031"><a xlink:title=" ">
<path fill="none" stroke="#63b8ff" d="M709.84,-219.53C684.24,-209.87 650.39,-197.08 627.6,-188.48"/>
<polygon fill="#63b8ff" stroke="#63b8ff" points="708.58,-222.8 719.18,-223.06 711.06,-216.25 708.58,-222.8"/>
</a>
</g>
</g>
<!-- Node25&#45;&gt;Node2 -->
<g id="edge33_Node000025_Node000002" class="edge">
<title>Node25&#45;&gt;Node2</title>
<g id="a_edge33_Node000025_Node000002"><a xlink:title=" ">
<path fill="none" stroke="#63b8ff" d="M791.11,-164.69C827.33,-154.91 877.23,-141.43 910.39,-132.48"/>
<polygon fill="#63b8ff" stroke="#63b8ff" points="790.54,-161.21 781.8,-167.2 792.37,-167.97 790.54,-161.21"/>
</a>
</g>
</g>
<!-- Node26 -->
<g id="Node000026" class="node">
<title>Node26</title>
<g id="a_Node000026"><a xlink:href="_buggy_8cpp.html" target="_top" xlink:title=" ">
<polygon fill="white" stroke="#666666" points="728.25,-132 608.75,-132 608.75,-112 728.25,-112 728.25,-132"/>
<text text-anchor="middle" x="668.5" y="-118.5" font-family="Helvetica,sans-Serif" font-size="10.00">AI Behaviors/Buggy.cpp</text>
</a>
</g>
</g>
<!-- Node25&#45;&gt;Node26 -->
<g id="edge32_Node000025_Node000026" class="edge">
<title>Node25&#45;&gt;Node26</title>
<g id="a_edge32_Node000025_Node000026"><a xlink:title=" ">
<path fill="none" stroke="#63b8ff" d="M722.68,-161C709.45,-151.72 693.24,-140.35 682.02,-132.48"/>
<polygon fill="#63b8ff" stroke="#63b8ff" points="720.65,-163.85 730.85,-166.72 724.67,-158.12 720.65,-163.85"/>
</a>
</g>
</g>
<!-- Node27&#45;&gt;Node2 -->
<g id="edge35_Node000027_Node000002" class="edge">
<title>Node27&#45;&gt;Node2</title>
<g id="a_edge35_Node000027_Node000002"><a xlink:title=" ">
<path fill="none" stroke="#63b8ff" d="M899.09,-160.4C910.55,-151.17 924.4,-140.01 933.96,-132.3"/>
<polygon fill="#63b8ff" stroke="#63b8ff" points="896.94,-157.64 891.35,-166.64 901.33,-163.09 896.94,-157.64"/>
</a>
</g>
</g>
<!-- Node28 -->
<g id="Node000028" class="node">
<title>Node28</title>
<g id="a_Node000028"><a xlink:href="_harvester_8cpp.html" target="_top" xlink:title=" ">
<polygon fill="white" stroke="#666666" points="878.62,-132 746.38,-132 746.38,-112 878.62,-112 878.62,-132"/>
<text text-anchor="middle" x="812.5" y="-118.5" font-family="Helvetica,sans-Serif" font-size="10.00">AI Behaviors/Harvester.cpp</text>
</a>
</g>
</g>
<!-- Node27&#45;&gt;Node28 -->
<g id="edge36_Node000027_Node000028" class="edge">
<title>Node27&#45;&gt;Node28</title>
<g id="a_edge36_Node000027_Node000028"><a xlink:title=" ">
<path fill="none" stroke="#63b8ff" d="M858.21,-160.4C846.92,-151.17 833.29,-140.01 823.86,-132.3"/>
<polygon fill="#63b8ff" stroke="#63b8ff" points="855.88,-163.01 865.83,-166.64 860.31,-157.59 855.88,-163.01"/>
</a>
</g>
</g>
<!-- Node29&#45;&gt;Node2 -->
<g id="edge38_Node000029_Node000002" class="edge">
<title>Node29&#45;&gt;Node2</title>
<g id="a_edge38_Node000029_Node000002"><a xlink:title=" ">
<path fill="none" stroke="#63b8ff" d="M525.54,-167.69C686.44,-150.25 729.42,-152.05 887.5,-132 890.33,-131.64 893.24,-131.25 896.17,-130.85"/>
<polygon fill="#63b8ff" stroke="#63b8ff" points="525.32,-164.19 515.76,-168.76 526.08,-171.15 525.32,-164.19"/>
</a>
</g>
</g>
<!-- Node30 -->
<g id="Node000030" class="node">
<title>Node30</title>
<g id="a_Node000030"><a xlink:href="_tank_aurora_8cpp.html" target="_top" xlink:title=" ">
<polygon fill="white" stroke="#666666" points="525.12,-132 383.88,-132 383.88,-112 525.12,-112 525.12,-132"/>
<text text-anchor="middle" x="454.5" y="-118.5" font-family="Helvetica,sans-Serif" font-size="10.00">AI Behaviors/TankAurora.cpp</text>
</a>
</g>
</g>
<!-- Node29&#45;&gt;Node30 -->
<g id="edge39_Node000029_Node000030" class="edge">
<title>Node29&#45;&gt;Node30</title>
<g id="a_edge39_Node000029_Node000030"><a xlink:title=" ">
<path fill="none" stroke="#63b8ff" d="M450.79,-156.43C451.71,-148.11 452.73,-138.93 453.47,-132.3"/>
<polygon fill="#63b8ff" stroke="#63b8ff" points="447.34,-155.76 449.71,-166.09 454.3,-156.54 447.34,-155.76"/>
</a>
</g>
</g>
</g>
</svg>
