<?xml version="1.0" encoding="UTF-8" standalone="no"?>
<!DOCTYPE svg PUBLIC "-//W3C//DTD SVG 1.1//EN"
 "http://www.w3.org/Graphics/SVG/1.1/DTD/svg11.dtd">
<!-- Generated by graphviz version 10.0.1 (20240210.2158)
 -->
<!-- Title: AI Behaviors/Unit.cpp Pages: 1 -->
<svg width="788pt" height="252pt"
 viewBox="0.00 0.00 787.62 252.00" xmlns="http://www.w3.org/2000/svg" xmlns:xlink="http://www.w3.org/1999/xlink">
<g id="graph0" class="graph" transform="scale(1 1) rotate(0) translate(4 248)">
<title>AI Behaviors/Unit.cpp</title>
<!-- Node1 -->
<g id="Node000001" class="node">
<title>Node1</title>
<g id="a_Node000001"><a xlink:title=" ">
<polygon fill="#999999" stroke="#666666" points="445,-244 336,-244 336,-224 445,-224 445,-244"/>
<text text-anchor="middle" x="390.5" y="-230.5" font-family="Helvetica,sans-Serif" font-size="10.00">AI Behaviors/Unit.cpp</text>
</a>
</g>
</g>
<!-- Node2 -->
<g id="Node000002" class="node">
<title>Node2</title>
<g id="a_Node000002"><a xlink:href="_unit_8h.html" target="_top" xlink:title=" ">
<polygon fill="white" stroke="#666666" points="411.25,-188 369.75,-188 369.75,-168 411.25,-168 411.25,-188"/>
<text text-anchor="middle" x="390.5" y="-174.5" font-family="Helvetica,sans-Serif" font-size="10.00">Unit.h</text>
</a>
</g>
</g>
<!-- Node1&#45;&gt;Node2 -->
<g id="edge1_Node000001_Node000002" class="edge">
<title>Node1&#45;&gt;Node2</title>
<g id="a_edge1_Node000001_Node000002"><a xlink:title=" ">
<path fill="none" stroke="#63b8ff" d="M390.5,-223.59C390.5,-217.01 390.5,-207.96 390.5,-199.73"/>
<polygon fill="#63b8ff" stroke="#63b8ff" points="394,-199.81 390.5,-189.81 387,-199.81 394,-199.81"/>
</a>
</g>
</g>
<!-- Node3 -->
<g id="Node000003" class="node">
<title>Node3</title>
<g id="a_Node000003"><a xlink:title=" ">
<polygon fill="#e0e0e0" stroke="#999999" points="277.25,-76 223.75,-76 223.75,-56 277.25,-56 277.25,-76"/>
<text text-anchor="middle" x="250.5" y="-62.5" font-family="Helvetica,sans-Serif" font-size="10.00">iostream</text>
</a>
</g>
</g>
<!-- Node2&#45;&gt;Node3 -->
<g id="edge2_Node000002_Node000003" class="edge">
<title>Node2&#45;&gt;Node3</title>
<g id="a_edge2_Node000002_Node000003"><a xlink:title=" ">
<path fill="none" stroke="#63b8ff" d="M369.31,-168.73C351,-160.95 324.42,-148.1 304.5,-132 287.97,-118.64 272.86,-99.59 262.85,-85.57"/>
<polygon fill="#63b8ff" stroke="#63b8ff" points="265.94,-83.88 257.38,-77.64 260.18,-87.86 265.94,-83.88"/>
</a>
</g>
</g>
<!-- Node4 -->
<g id="Node000004" class="node">
<title>Node4</title>
<g id="a_Node000004"><a xlink:title=" ">
<polygon fill="#e0e0e0" stroke="#999999" points="325,-20 222,-20 222,0 325,0 325,-20"/>
<text text-anchor="middle" x="273.5" y="-6.5" font-family="Helvetica,sans-Serif" font-size="10.00">SFML/Graphics.hpp</text>
</a>
</g>
</g>
<!-- Node2&#45;&gt;Node4 -->
<g id="edge3_Node000002_Node000004" class="edge">
<title>Node2&#45;&gt;Node4</title>
<g id="a_edge3_Node000002_Node000004"><a xlink:title=" ">
<path fill="none" stroke="#63b8ff" d="M409.65,-167.52C422.68,-159.9 438.9,-147.86 446.5,-132 459.4,-105.09 421.91,-57.23 420.5,-56 397.14,-35.65 364.73,-24.5 336.29,-18.4"/>
<polygon fill="#63b8ff" stroke="#63b8ff" points="337.18,-15 326.69,-16.51 335.83,-21.87 337.18,-15"/>
</a>
</g>
</g>
<!-- Node5 -->
<g id="Node000005" class="node">
<title>Node5</title>
<g id="a_Node000005"><a xlink:href="_global_8h.html" target="_top" xlink:title=" ">
<polygon fill="white" stroke="#666666" points="559.5,-76 507.5,-76 507.5,-56 559.5,-56 559.5,-76"/>
<text text-anchor="middle" x="533.5" y="-62.5" font-family="Helvetica,sans-Serif" font-size="10.00">Global.h</text>
</a>
</g>
</g>
<!-- Node2&#45;&gt;Node5 -->
<g id="edge4_Node000002_Node000005" class="edge">
<title>Node2&#45;&gt;Node5</title>
<g id="a_edge4_Node000002_Node000005"><a xlink:title=" ">
<path fill="none" stroke="#63b8ff" d="M411.49,-171.88C433.87,-165.56 469.35,-152.99 493.5,-132 507.86,-119.52 518.7,-100.58 525.44,-86.37"/>
<polygon fill="#63b8ff" stroke="#63b8ff" points="528.49,-88.13 529.35,-77.57 522.09,-85.29 528.49,-88.13"/>
</a>
</g>
</g>
<!-- Node9 -->
<g id="Node000009" class="node">
<title>Node9</title>
<g id="a_Node000009"><a xlink:title=" ">
<polygon fill="#e0e0e0" stroke="#999999" points="589,-132 546,-132 546,-112 589,-112 589,-132"/>
<text text-anchor="middle" x="567.5" y="-118.5" font-family="Helvetica,sans-Serif" font-size="10.00">cmath</text>
</a>
</g>
</g>
<!-- Node2&#45;&gt;Node9 -->
<g id="edge8_Node000002_Node000009" class="edge">
<title>Node2&#45;&gt;Node9</title>
<g id="a_edge8_Node000002_Node000009"><a xlink:title=" ">
<path fill="none" stroke="#63b8ff" d="M411.5,-170.59C441.99,-161.29 498.8,-143.96 534.8,-132.98"/>
<polygon fill="#63b8ff" stroke="#63b8ff" points="535.71,-136.36 544.25,-130.09 533.66,-129.66 535.71,-136.36"/>
</a>
</g>
</g>
<!-- Node10 -->
<g id="Node000010" class="node">
<title>Node10</title>
<g id="a_Node000010"><a xlink:href="_bullet_8h.html" target="_top" xlink:title=" ">
<polygon fill="white" stroke="#666666" points="122,-132 73,-132 73,-112 122,-112 122,-132"/>
<text text-anchor="middle" x="97.5" y="-118.5" font-family="Helvetica,sans-Serif" font-size="10.00">Bullet.h</text>
</a>
</g>
</g>
<!-- Node2&#45;&gt;Node10 -->
<g id="edge9_Node000002_Node000010" class="edge">
<title>Node2&#45;&gt;Node10</title>
<g id="a_edge9_Node000002_Node000010"><a xlink:title=" ">
<path fill="none" stroke="#63b8ff" d="M369.43,-173.12C319.87,-163.98 195.47,-141.06 133.6,-129.65"/>
<polygon fill="#63b8ff" stroke="#63b8ff" points="134.41,-126.24 123.95,-127.87 133.15,-133.13 134.41,-126.24"/>
</a>
</g>
</g>
<!-- Node12 -->
<g id="Node000012" class="node">
<title>Node12</title>
<g id="a_Node000012"><a xlink:href="_missile_8h.html" target="_top" xlink:title=" ">
<polygon fill="white" stroke="#666666" points="55,-132 0,-132 0,-112 55,-112 55,-132"/>
<text text-anchor="middle" x="27.5" y="-118.5" font-family="Helvetica,sans-Serif" font-size="10.00">Missile.h</text>
</a>
</g>
</g>
<!-- Node2&#45;&gt;Node12 -->
<g id="edge12_Node000002_Node000012" class="edge">
<title>Node2&#45;&gt;Node12</title>
<g id="a_edge12_Node000002_Node000012"><a xlink:title=" ">
<path fill="none" stroke="#63b8ff" d="M369.33,-174.89C318.68,-169.67 186.34,-155.05 66.52,-132.42"/>
<polygon fill="#63b8ff" stroke="#63b8ff" points="67.31,-129.01 56.83,-130.56 65.99,-135.88 67.31,-129.01"/>
</a>
</g>
</g>
<!-- Node13 -->
<g id="Node000013" class="node">
<title>Node13</title>
<g id="a_Node000013"><a xlink:href="_particle_system_8h.html" target="_top" xlink:title=" ">
<polygon fill="white" stroke="#666666" points="206,-76 115,-76 115,-56 206,-56 206,-76"/>
<text text-anchor="middle" x="160.5" y="-62.5" font-family="Helvetica,sans-Serif" font-size="10.00">ParticleSystem.h</text>
</a>
</g>
</g>
<!-- Node2&#45;&gt;Node13 -->
<g id="edge15_Node000002_Node000013" class="edge">
<title>Node2&#45;&gt;Node13</title>
<g id="a_edge15_Node000002_Node000013"><a xlink:title=" ">
<path fill="none" stroke="#63b8ff" d="M369.33,-169C347.16,-160.44 311.48,-146.19 281.5,-132 248.08,-116.18 210.76,-95.68 186.52,-81.97"/>
<polygon fill="#63b8ff" stroke="#63b8ff" points="188.41,-79.02 177.99,-77.11 184.95,-85.1 188.41,-79.02"/>
</a>
</g>
</g>
<!-- Node14 -->
<g id="Node000014" class="node">
<title>Node14</title>
<g id="a_Node000014"><a xlink:href="_building_8h.html" target="_top" xlink:title=" ">
<polygon fill="white" stroke="#666666" points="371.88,-132 313.12,-132 313.12,-112 371.88,-112 371.88,-132"/>
<text text-anchor="middle" x="342.5" y="-118.5" font-family="Helvetica,sans-Serif" font-size="10.00">Building.h</text>
</a>
</g>
</g>
<!-- Node2&#45;&gt;Node14 -->
<g id="edge17_Node000002_Node000014" class="edge">
<title>Node2&#45;&gt;Node14</title>
<g id="a_edge17_Node000002_Node000014"><a xlink:title=" ">
<path fill="none" stroke="#63b8ff" d="M382.14,-167.59C375.6,-160.24 366.32,-149.8 358.38,-140.87"/>
<polygon fill="#63b8ff" stroke="#63b8ff" points="361.03,-138.58 351.77,-133.43 355.8,-143.23 361.03,-138.58"/>
</a>
</g>
</g>
<!-- Node16 -->
<g id="Node000016" class="node">
<title>Node16</title>
<g id="a_Node000016"><a xlink:href="_tile_8h.html" target="_top" xlink:title=" ">
<polygon fill="white" stroke="#666666" points="437.12,-132 397.88,-132 397.88,-112 437.12,-112 437.12,-132"/>
<text text-anchor="middle" x="417.5" y="-118.5" font-family="Helvetica,sans-Serif" font-size="10.00">Tile.h</text>
</a>
</g>
</g>
<!-- Node2&#45;&gt;Node16 -->
<g id="edge23_Node000002_Node000016" class="edge">
<title>Node2&#45;&gt;Node16</title>
<g id="a_edge23_Node000002_Node000016"><a xlink:title=" ">
<path fill="none" stroke="#63b8ff" d="M395.2,-167.59C398.65,-160.7 403.45,-151.1 407.71,-142.57"/>
<polygon fill="#63b8ff" stroke="#63b8ff" points="410.83,-144.16 412.17,-133.65 404.57,-141.03 410.83,-144.16"/>
</a>
</g>
</g>
<!-- Node17 -->
<g id="Node000017" class="node">
<title>Node17</title>
<g id="a_Node000017"><a xlink:href="_sound_manager_8h.html" target="_top" xlink:title=" ">
<polygon fill="white" stroke="#666666" points="721.25,-132 631.75,-132 631.75,-112 721.25,-112 721.25,-132"/>
<text text-anchor="middle" x="676.5" y="-118.5" font-family="Helvetica,sans-Serif" font-size="10.00">SoundManager.h</text>
</a>
</g>
</g>
<!-- Node2&#45;&gt;Node17 -->
<g id="edge25_Node000002_Node000017" class="edge">
<title>Node2&#45;&gt;Node17</title>
<g id="a_edge25_Node000002_Node000017"><a xlink:title=" ">
<path fill="none" stroke="#63b8ff" d="M411.53,-173.03C455.04,-164.81 556.19,-145.72 620.17,-133.63"/>
<polygon fill="#63b8ff" stroke="#63b8ff" points="620.61,-137.11 629.79,-131.82 619.31,-130.24 620.61,-137.11"/>
</a>
</g>
</g>
<!-- Node6 -->
<g id="Node000006" class="node">
<title>Node6</title>
<g id="a_Node000006"><a xlink:title=" ">
<polygon fill="#e0e0e0" stroke="#999999" points="496.25,-20 454.75,-20 454.75,0 496.25,0 496.25,-20"/>
<text text-anchor="middle" x="475.5" y="-6.5" font-family="Helvetica,sans-Serif" font-size="10.00">vector</text>
</a>
</g>
</g>
<!-- Node5&#45;&gt;Node6 -->
<g id="edge5_Node000005_Node000006" class="edge">
<title>Node5&#45;&gt;Node6</title>
<g id="a_edge5_Node000005_Node000006"><a xlink:title=" ">
<path fill="none" stroke="#63b8ff" d="M523.4,-55.59C515.25,-48.01 503.57,-37.13 493.78,-28.02"/>
<polygon fill="#63b8ff" stroke="#63b8ff" points="496.3,-25.58 486.59,-21.33 491.53,-30.71 496.3,-25.58"/>
</a>
</g>
</g>
<!-- Node7 -->
<g id="Node000007" class="node">
<title>Node7</title>
<g id="a_Node000007"><a xlink:title=" ">
<polygon fill="#e0e0e0" stroke="#999999" points="552.38,-20 514.62,-20 514.62,0 552.38,0 552.38,-20"/>
<text text-anchor="middle" x="533.5" y="-6.5" font-family="Helvetica,sans-Serif" font-size="10.00">array</text>
</a>
</g>
</g>
<!-- Node5&#45;&gt;Node7 -->
<g id="edge6_Node000005_Node000007" class="edge">
<title>Node5&#45;&gt;Node7</title>
<g id="a_edge6_Node000005_Node000007"><a xlink:title=" ">
<path fill="none" stroke="#63b8ff" d="M533.5,-55.59C533.5,-49.01 533.5,-39.96 533.5,-31.73"/>
<polygon fill="#63b8ff" stroke="#63b8ff" points="537,-31.81 533.5,-21.81 530,-31.81 537,-31.81"/>
</a>
</g>
</g>
<!-- Node8 -->
<g id="Node000008" class="node">
<title>Node8</title>
<g id="a_Node000008"><a xlink:title=" ">
<polygon fill="#e0e0e0" stroke="#999999" points="616.12,-20 570.88,-20 570.88,0 616.12,0 616.12,-20"/>
<text text-anchor="middle" x="593.5" y="-6.5" font-family="Helvetica,sans-Serif" font-size="10.00">chrono</text>
</a>
</g>
</g>
<!-- Node5&#45;&gt;Node8 -->
<g id="edge7_Node000005_Node000008" class="edge">
<title>Node5&#45;&gt;Node8</title>
<g id="a_edge7_Node000005_Node000008"><a xlink:title=" ">
<path fill="none" stroke="#63b8ff" d="M543.95,-55.59C552.47,-47.93 564.71,-36.91 574.89,-27.75"/>
<polygon fill="#63b8ff" stroke="#63b8ff" points="576.95,-30.6 582.04,-21.31 572.27,-25.4 576.95,-30.6"/>
</a>
</g>
</g>
<!-- Node10&#45;&gt;Node4 -->
<g id="edge10_Node000010_Node000004" class="edge">
<title>Node10&#45;&gt;Node4</title>
<g id="a_edge10_Node000010_Node000004"><a xlink:title=" ">
<path fill="none" stroke="#63b8ff" d="M95.72,-111.76C93.61,-97.88 91.92,-71.61 105.5,-56 119.43,-39.98 168.74,-27.98 210.36,-20.42"/>
<polygon fill="#63b8ff" stroke="#63b8ff" points="210.85,-23.89 220.09,-18.72 209.64,-17 210.85,-23.89"/>
</a>
</g>
</g>
<!-- Node11 -->
<g id="Node000011" class="node">
<title>Node11</title>
<g id="a_Node000011"><a xlink:title=" ">
<polygon fill="#e0e0e0" stroke="#999999" points="58.62,-76 16.38,-76 16.38,-56 58.62,-56 58.62,-76"/>
<text text-anchor="middle" x="37.5" y="-62.5" font-family="Helvetica,sans-Serif" font-size="10.00">deque</text>
</a>
</g>
</g>
<!-- Node10&#45;&gt;Node11 -->
<g id="edge11_Node000010_Node000011" class="edge">
<title>Node10&#45;&gt;Node11</title>
<g id="a_edge11_Node000010_Node000011"><a xlink:title=" ">
<path fill="none" stroke="#63b8ff" d="M87.05,-111.59C78.53,-103.93 66.29,-92.91 56.11,-83.75"/>
<polygon fill="#63b8ff" stroke="#63b8ff" points="58.73,-81.4 48.96,-77.31 54.05,-86.6 58.73,-81.4"/>
</a>
</g>
</g>
<!-- Node12&#45;&gt;Node4 -->
<g id="edge13_Node000012_Node000004" class="edge">
<title>Node12&#45;&gt;Node4</title>
<g id="a_edge13_Node000012_Node000004"><a xlink:title=" ">
<path fill="none" stroke="#63b8ff" d="M19.63,-111.51C9.24,-97.77 -6.22,-72.23 7.5,-56 32.95,-25.88 139.99,-15.92 210.29,-12.62"/>
<polygon fill="#63b8ff" stroke="#63b8ff" points="210.31,-16.12 220.15,-12.2 210.01,-9.13 210.31,-16.12"/>
</a>
</g>
</g>
<!-- Node12&#45;&gt;Node11 -->
<g id="edge14_Node000012_Node000011" class="edge">
<title>Node12&#45;&gt;Node11</title>
<g id="a_edge14_Node000012_Node000011"><a xlink:title=" ">
<path fill="none" stroke="#63b8ff" d="M29.24,-111.59C30.48,-104.93 32.18,-95.75 33.71,-87.44"/>
<polygon fill="#63b8ff" stroke="#63b8ff" points="37.12,-88.26 35.5,-77.79 30.24,-86.98 37.12,-88.26"/>
</a>
</g>
</g>
<!-- Node13&#45;&gt;Node4 -->
<g id="edge16_Node000013_Node000004" class="edge">
<title>Node13&#45;&gt;Node4</title>
<g id="a_edge16_Node000013_Node000004"><a xlink:title=" ">
<path fill="none" stroke="#63b8ff" d="M180.18,-55.59C197.66,-47.24 223.45,-34.92 243.5,-25.34"/>
<polygon fill="#63b8ff" stroke="#63b8ff" points="244.78,-28.6 252.3,-21.13 241.77,-22.29 244.78,-28.6"/>
</a>
</g>
</g>
<!-- Node14&#45;&gt;Node3 -->
<g id="edge18_Node000014_Node000003" class="edge">
<title>Node14&#45;&gt;Node3</title>
<g id="a_edge18_Node000014_Node000003"><a xlink:title=" ">
<path fill="none" stroke="#63b8ff" d="M326.47,-111.59C312.71,-103.51 292.6,-91.71 276.52,-82.27"/>
<polygon fill="#63b8ff" stroke="#63b8ff" points="278.35,-79.29 267.96,-77.25 274.81,-85.33 278.35,-79.29"/>
</a>
</g>
</g>
<!-- Node14&#45;&gt;Node4 -->
<g id="edge19_Node000014_Node000004" class="edge">
<title>Node14&#45;&gt;Node4</title>
<g id="a_edge19_Node000014_Node000004"><a xlink:title=" ">
<path fill="none" stroke="#63b8ff" d="M356.11,-111.67C372.91,-98.98 397.71,-75.61 384.5,-56 373.33,-39.42 354.9,-28.95 336.23,-22.33"/>
<polygon fill="#63b8ff" stroke="#63b8ff" points="337.3,-19 326.71,-19.32 335.19,-25.67 337.3,-19"/>
</a>
</g>
</g>
<!-- Node14&#45;&gt;Node5 -->
<g id="edge20_Node000014_Node000005" class="edge">
<title>Node14&#45;&gt;Node5</title>
<g id="a_edge20_Node000014_Node000005"><a xlink:title=" ">
<path fill="none" stroke="#63b8ff" d="M372.34,-112.56C405.76,-103.11 459.97,-87.79 496.17,-77.55"/>
<polygon fill="#63b8ff" stroke="#63b8ff" points="497.12,-80.92 505.79,-74.84 495.21,-74.19 497.12,-80.92"/>
</a>
</g>
</g>
<!-- Node14&#45;&gt;Node13 -->
<g id="edge22_Node000014_Node000013" class="edge">
<title>Node14&#45;&gt;Node13</title>
<g id="a_edge22_Node000014_Node000013"><a xlink:title=" ">
<path fill="none" stroke="#63b8ff" d="M312.85,-112.2C283.08,-103.37 236.91,-89.67 203.19,-79.67"/>
<polygon fill="#63b8ff" stroke="#63b8ff" points="204.31,-76.35 193.73,-76.86 202.32,-83.06 204.31,-76.35"/>
</a>
</g>
</g>
<!-- Node15 -->
<g id="Node000015" class="node">
<title>Node15</title>
<g id="a_Node000015"><a xlink:href="_building_type_8h.html" target="_top" xlink:title=" ">
<polygon fill="white" stroke="#666666" points="375.38,-76 295.62,-76 295.62,-56 375.38,-56 375.38,-76"/>
<text text-anchor="middle" x="335.5" y="-62.5" font-family="Helvetica,sans-Serif" font-size="10.00">BuildingType.h</text>
</a>
</g>
</g>
<!-- Node14&#45;&gt;Node15 -->
<g id="edge21_Node000014_Node000015" class="edge">
<title>Node14&#45;&gt;Node15</title>
<g id="a_edge21_Node000014_Node000015"><a xlink:title=" ">
<path fill="none" stroke="#63b8ff" d="M341.28,-111.59C340.42,-104.93 339.23,-95.75 338.15,-87.44"/>
<polygon fill="#63b8ff" stroke="#63b8ff" points="341.66,-87.27 336.9,-77.8 334.71,-88.17 341.66,-87.27"/>
</a>
</g>
</g>
<!-- Node16&#45;&gt;Node4 -->
<g id="edge24_Node000016_Node000004" class="edge">
<title>Node16&#45;&gt;Node4</title>
<g id="a_edge24_Node000016_Node000004"><a xlink:title=" ">
<path fill="none" stroke="#63b8ff" d="M417.66,-111.77C417.4,-97.89 414.86,-71.63 400.5,-56 383.84,-37.87 359.41,-27.04 336.41,-20.57"/>
<polygon fill="#63b8ff" stroke="#63b8ff" points="337.3,-17.18 326.74,-18.11 335.57,-23.97 337.3,-17.18"/>
</a>
</g>
</g>
<!-- Node18 -->
<g id="Node000018" class="node">
<title>Node18</title>
<g id="a_Node000018"><a xlink:title=" ">
<polygon fill="#e0e0e0" stroke="#999999" points="665.88,-76 577.12,-76 577.12,-56 665.88,-56 665.88,-76"/>
<text text-anchor="middle" x="621.5" y="-62.5" font-family="Helvetica,sans-Serif" font-size="10.00">SFML/Audio.hpp</text>
</a>
</g>
</g>
<!-- Node17&#45;&gt;Node18 -->
<g id="edge26_Node000017_Node000018" class="edge">
<title>Node17&#45;&gt;Node18</title>
<g id="a_edge26_Node000017_Node000018"><a xlink:title=" ">
<path fill="none" stroke="#63b8ff" d="M666.92,-111.59C659.27,-104.08 648.34,-93.35 639.12,-84.3"/>
<polygon fill="#63b8ff" stroke="#63b8ff" points="641.64,-81.87 632.05,-77.36 636.73,-86.86 641.64,-81.87"/>
</a>
</g>
</g>
<!-- Node19 -->
<g id="Node000019" class="node">
<title>Node19</title>
<g id="a_Node000019"><a xlink:title=" ">
<polygon fill="#e0e0e0" stroke="#999999" points="718.88,-76 684.12,-76 684.12,-56 718.88,-56 718.88,-76"/>
<text text-anchor="middle" x="701.5" y="-62.5" font-family="Helvetica,sans-Serif" font-size="10.00">map</text>
</a>
</g>
</g>
<!-- Node17&#45;&gt;Node19 -->
<g id="edge27_Node000017_Node000019" class="edge">
<title>Node17&#45;&gt;Node19</title>
<g id="a_edge27_Node000017_Node000019"><a xlink:title=" ">
<path fill="none" stroke="#63b8ff" d="M680.85,-111.59C684.05,-104.7 688.49,-95.1 692.44,-86.57"/>
<polygon fill="#63b8ff" stroke="#63b8ff" points="695.53,-88.22 696.56,-77.67 689.18,-85.28 695.53,-88.22"/>
</a>
</g>
</g>
<!-- Node20 -->
<g id="Node000020" class="node">
<title>Node20</title>
<g id="a_Node000020"><a xlink:title=" ">
<polygon fill="#e0e0e0" stroke="#999999" points="779.62,-76 737.38,-76 737.38,-56 779.62,-56 779.62,-76"/>
<text text-anchor="middle" x="758.5" y="-62.5" font-family="Helvetica,sans-Serif" font-size="10.00">queue</text>
</a>
</g>
</g>
<!-- Node17&#45;&gt;Node20 -->
<g id="edge28_Node000017_Node000020" class="edge">
<title>Node17&#45;&gt;Node20</title>
<g id="a_edge28_Node000017_Node000020"><a xlink:title=" ">
<path fill="none" stroke="#63b8ff" d="M690.78,-111.59C702.94,-103.59 720.64,-91.93 734.9,-82.54"/>
<polygon fill="#63b8ff" stroke="#63b8ff" points="736.41,-85.73 742.84,-77.31 732.56,-79.89 736.41,-85.73"/>
</a>
</g>
</g>
</g>
</svg>
