<?xml version="1.0" encoding="UTF-8" standalone="no"?>
<!DOCTYPE svg PUBLIC "-//W3C//DTD SVG 1.1//EN"
 "http://www.w3.org/Graphics/SVG/1.1/DTD/svg11.dtd">
<!-- Generated by graphviz version 10.0.1 (20240210.2158)
 -->
<!-- Title: AI Behaviors/VehicleUnit.h Pages: 1 -->
<!--zoomable 252 -->

<svg id="main" version="1.1" xmlns="http://www.w3.org/2000/svg" xmlns:xlink="http://www.w3.org/1999/xlink" xml:space="preserve" onload="init(evt)">
<style type="text/css"><![CDATA[
.node, .edge {opacity: 0.7;}
.node.selected, .edge.selected {opacity: 1;}
.edge:hover path { stroke: red; }
.edge:hover polygon { stroke: red; fill: red; }
]]></style>

<defs>
  <circle id="rim" cx="0" cy="0" r="7"/>
  <circle id="rim2" cx="0" cy="0" r="3.5"/>
  <g id="zoomPlus">
    <use xlink:href="#rim" fill="#404040"><set attributeName="fill" to="#808080" begin="zoomplus.mouseover" end="zoomplus.mouseout"/></use>
    <path d="M-4,0h8M0,-4v8" fill="none" stroke="white" stroke-width="1.5" pointer-events="none"/>
  </g>
  <g id="zoomMin">
    <use xlink:href="#rim" fill="#404040"><set attributeName="fill" to="#808080" begin="zoomminus.mouseover" end="zoomminus.mouseout"/></use>
    <path d="M-4,0h8" fill="none" stroke="white" stroke-width="1.5" pointer-events="none"/>
  </g>
  <g id="arrowUp" transform="translate(30 24)">
    <use xlink:href="#rim"/>
    <path pointer-events="none" fill="none" stroke="white" stroke-width="1.5" d="M0,-3.0v7 M-2.5,-0.5L0,-3.0L2.5,-0.5"/>
  </g>
  <g id="arrowRight" transform="rotate(90) translate(36 -43)">
    <use xlink:href="#rim"/>
    <path pointer-events="none" fill="none" stroke="white" stroke-width="1.5" d="M0,-3.0v7 M-2.5,-0.5L0,-3.0L2.5,-0.5"/>
  </g>
  <g id="arrowDown" transform="rotate(180) translate(-30 -48)">
    <use xlink:href="#rim"/>
    <path pointer-events="none" fill="none" stroke="white" stroke-width="1.5" d="M0,-3.0v7 M-2.5,-0.5L0,-3.0L2.5,-0.5"/>
  </g>
  <g id="arrowLeft" transform="rotate(270) translate(-36 17)">
    <use xlink:href="#rim"/>
    <path pointer-events="none" fill="none" stroke="white" stroke-width="1.5" d="M0,-3.0v7 M-2.5,-0.5L0,-3.0L2.5,-0.5"/>
  </g>
  <g id="resetDef">
    <use xlink:href="#rim2" fill="#404040"><set attributeName="fill" to="#808080" begin="reset.mouseover" end="reset.mouseout"/></use>
  </g>
</defs>
<script type="application/ecmascript">
var viewWidth = 632;
var viewHeight = 252;
var sectionId = 'dynsection-1';
</script>
<script type="application/ecmascript" xlink:href="svg.min.js"/>
<svg id="graph" class="graph">
<g id="viewport">
<title>AI Behaviors/VehicleUnit.h</title>
<!-- Node1 -->
<g id="Node000001" class="node">
<title>Node1</title>
<g id="a_Node000001"><a xlink:title=" ">
<polygon fill="#999999" stroke="#666666" points="393.12,-244 262.38,-244 262.38,-224 393.12,-224 393.12,-244"/>
<text text-anchor="middle" x="327.75" y="-230.5" font-family="Helvetica,sans-Serif" font-size="10.00">AI Behaviors/VehicleUnit.h</text>
</a>
</g>
</g>
<!-- Node2 -->
<g id="Node000002" class="node">
<title>Node2</title>
<g id="a_Node000002"><a xlink:href="_buggy_8h.html" target="_top" xlink:title=" ">
<polygon fill="white" stroke="#666666" points="177.25,-188 68.25,-188 68.25,-168 177.25,-168 177.25,-188"/>
<text text-anchor="middle" x="122.75" y="-174.5" font-family="Helvetica,sans-Serif" font-size="10.00">AI Behaviors/Buggy.h</text>
</a>
</g>
</g>
<!-- Node1&#45;&gt;Node2 -->
<g id="edge1_Node000001_Node000002" class="edge">
<title>Node1&#45;&gt;Node2</title>
<g id="a_edge1_Node000001_Node000002"><a xlink:title=" ">
<path fill="none" stroke="#63b8ff" d="M281,-220.69C243.88,-210.91 192.72,-197.43 158.74,-188.48"/>
<polygon fill="#63b8ff" stroke="#63b8ff" points="280.02,-224.05 290.58,-223.21 281.8,-217.28 280.02,-224.05"/>
</a>
</g>
</g>
<!-- Node9 -->
<g id="Node000009" class="node">
<title>Node9</title>
<g id="a_Node000009"><a xlink:href="_harvester_8h.html" target="_top" xlink:title=" ">
<polygon fill="white" stroke="#666666" points="316.62,-188 194.88,-188 194.88,-168 316.62,-168 316.62,-188"/>
<text text-anchor="middle" x="255.75" y="-174.5" font-family="Helvetica,sans-Serif" font-size="10.00">AI Behaviors/Harvester.h</text>
</a>
</g>
</g>
<!-- Node1&#45;&gt;Node9 -->
<g id="edge8_Node000001_Node000009" class="edge">
<title>Node1&#45;&gt;Node9</title>
<g id="a_edge8_Node000001_Node000009"><a xlink:title=" ">
<path fill="none" stroke="#63b8ff" d="M306.36,-216.95C293.9,-207.61 278.64,-196.16 268.15,-188.3"/>
<polygon fill="#63b8ff" stroke="#63b8ff" points="303.9,-219.49 314,-222.69 308.1,-213.89 303.9,-219.49"/>
</a>
</g>
</g>
<!-- Node11 -->
<g id="Node000011" class="node">
<title>Node11</title>
<g id="a_Node000011"><a xlink:href="_tank_aurora_8h.html" target="_top" xlink:title=" ">
<polygon fill="white" stroke="#666666" points="465.12,-188 334.38,-188 334.38,-168 465.12,-168 465.12,-188"/>
<text text-anchor="middle" x="399.75" y="-174.5" font-family="Helvetica,sans-Serif" font-size="10.00">AI Behaviors/TankAurora.h</text>
</a>
</g>
</g>
<!-- Node1&#45;&gt;Node11 -->
<g id="edge11_Node000001_Node000011" class="edge">
<title>Node1&#45;&gt;Node11</title>
<g id="a_edge11_Node000001_Node000011"><a xlink:title=" ">
<path fill="none" stroke="#63b8ff" d="M349.14,-216.95C361.6,-207.61 376.86,-196.16 387.35,-188.3"/>
<polygon fill="#63b8ff" stroke="#63b8ff" points="347.4,-213.89 341.5,-222.69 351.6,-219.49 347.4,-213.89"/>
</a>
</g>
</g>
<!-- Node13 -->
<g id="Node000013" class="node">
<title>Node13</title>
<g id="a_Node000013"><a xlink:href="_vehicle_unit_8cpp.html" target="_top" xlink:title=" ">
<polygon fill="white" stroke="#666666" points="624.38,-188 483.12,-188 483.12,-168 624.38,-168 624.38,-188"/>
<text text-anchor="middle" x="553.75" y="-174.5" font-family="Helvetica,sans-Serif" font-size="10.00">AI Behaviors/VehicleUnit.cpp</text>
</a>
</g>
</g>
<!-- Node1&#45;&gt;Node13 -->
<g id="edge14_Node000001_Node000013" class="edge">
<title>Node1&#45;&gt;Node13</title>
<g id="a_edge14_Node000001_Node000013"><a xlink:title=" ">
<path fill="none" stroke="#63b8ff" d="M378.5,-220.88C419.52,-211.07 476.46,-197.47 514.17,-188.46"/>
<polygon fill="#63b8ff" stroke="#63b8ff" points="377.76,-217.45 368.85,-223.18 379.39,-224.26 377.76,-217.45"/>
</a>
</g>
</g>
<!-- Node3 -->
<g id="Node000003" class="node">
<title>Node3</title>
<g id="a_Node000003"><a xlink:href="_buggy_8cpp.html" target="_top" xlink:title=" ">
<polygon fill="white" stroke="#666666" points="119.5,-132 0,-132 0,-112 119.5,-112 119.5,-132"/>
<text text-anchor="middle" x="59.75" y="-118.5" font-family="Helvetica,sans-Serif" font-size="10.00">AI Behaviors/Buggy.cpp</text>
</a>
</g>
</g>
<!-- Node2&#45;&gt;Node3 -->
<g id="edge2_Node000002_Node000003" class="edge">
<title>Node2&#45;&gt;Node3</title>
<g id="a_edge2_Node000002_Node000003"><a xlink:title=" ">
<path fill="none" stroke="#63b8ff" d="M103.06,-160.13C92.35,-150.94 79.5,-139.93 70.6,-132.3"/>
<polygon fill="#63b8ff" stroke="#63b8ff" points="100.76,-162.76 110.63,-166.61 105.31,-157.44 100.76,-162.76"/>
</a>
</g>
</g>
<!-- Node4 -->
<g id="Node000004" class="node">
<title>Node4</title>
<g id="a_Node000004"><a xlink:href="_g_u_i_8h.html" target="_top" xlink:title=" ">
<polygon fill="white" stroke="#666666" points="235.62,-132 137.88,-132 137.88,-112 235.62,-112 235.62,-132"/>
<text text-anchor="middle" x="186.75" y="-118.5" font-family="Helvetica,sans-Serif" font-size="10.00">AI Behaviors/GUI.h</text>
</a>
</g>
</g>
<!-- Node2&#45;&gt;Node4 -->
<g id="edge3_Node000002_Node000004" class="edge">
<title>Node2&#45;&gt;Node4</title>
<g id="a_edge3_Node000002_Node000004"><a xlink:title=" ">
<path fill="none" stroke="#63b8ff" d="M142.42,-160.4C153.37,-151.17 166.59,-140.01 175.73,-132.3"/>
<polygon fill="#63b8ff" stroke="#63b8ff" points="140.44,-157.49 135.05,-166.62 144.95,-162.84 140.44,-157.49"/>
</a>
</g>
</g>
<!-- Node5 -->
<g id="Node000005" class="node">
<title>Node5</title>
<g id="a_Node000005"><a xlink:href="_g_u_i_8cpp.html" target="_top" xlink:title=" ">
<polygon fill="white" stroke="#666666" points="177.88,-76 69.62,-76 69.62,-56 177.88,-56 177.88,-76"/>
<text text-anchor="middle" x="123.75" y="-62.5" font-family="Helvetica,sans-Serif" font-size="10.00">AI Behaviors/GUI.cpp</text>
</a>
</g>
</g>
<!-- Node4&#45;&gt;Node5 -->
<g id="edge4_Node000004_Node000005" class="edge">
<title>Node4&#45;&gt;Node5</title>
<g id="a_edge4_Node000004_Node000005"><a xlink:title=" ">
<path fill="none" stroke="#63b8ff" d="M167.06,-104.13C156.35,-94.94 143.5,-83.93 134.6,-76.3"/>
<polygon fill="#63b8ff" stroke="#63b8ff" points="164.76,-106.76 174.63,-110.61 169.31,-101.44 164.76,-106.76"/>
</a>
</g>
</g>
<!-- Node6 -->
<g id="Node000006" class="node">
<title>Node6</title>
<g id="a_Node000006"><a xlink:href="_game_8h.html" target="_top" xlink:title=" ">
<polygon fill="white" stroke="#666666" points="303.5,-76 196,-76 196,-56 303.5,-56 303.5,-76"/>
<text text-anchor="middle" x="249.75" y="-62.5" font-family="Helvetica,sans-Serif" font-size="10.00">AI Behaviors/Game.h</text>
</a>
</g>
</g>
<!-- Node4&#45;&gt;Node6 -->
<g id="edge5_Node000004_Node000006" class="edge">
<title>Node4&#45;&gt;Node6</title>
<g id="a_edge5_Node000004_Node000006"><a xlink:title=" ">
<path fill="none" stroke="#63b8ff" d="M206.44,-104.13C217.15,-94.94 230,-83.93 238.9,-76.3"/>
<polygon fill="#63b8ff" stroke="#63b8ff" points="204.19,-101.44 198.87,-110.61 208.74,-106.76 204.19,-101.44"/>
</a>
</g>
</g>
<!-- Node7 -->
<g id="Node000007" class="node">
<title>Node7</title>
<g id="a_Node000007"><a xlink:href="_game_8cpp.html" target="_top" xlink:title=" ">
<polygon fill="white" stroke="#666666" points="242.75,-20 124.75,-20 124.75,0 242.75,0 242.75,-20"/>
<text text-anchor="middle" x="183.75" y="-6.5" font-family="Helvetica,sans-Serif" font-size="10.00">AI Behaviors/Game.cpp</text>
</a>
</g>
</g>
<!-- Node6&#45;&gt;Node7 -->
<g id="edge6_Node000006_Node000007" class="edge">
<title>Node6&#45;&gt;Node7</title>
<g id="a_edge6_Node000006_Node000007"><a xlink:title=" ">
<path fill="none" stroke="#63b8ff" d="M229.46,-48.4C218.17,-39.17 204.54,-28.01 195.11,-20.3"/>
<polygon fill="#63b8ff" stroke="#63b8ff" points="227.13,-51.01 237.08,-54.64 231.56,-45.59 227.13,-51.01"/>
</a>
</g>
</g>
<!-- Node8 -->
<g id="Node000008" class="node">
<title>Node8</title>
<g id="a_Node000008"><a xlink:href="main_8cpp.html" target="_top" xlink:title=" ">
<polygon fill="white" stroke="#666666" points="373.12,-20 260.38,-20 260.38,0 373.12,0 373.12,-20"/>
<text text-anchor="middle" x="316.75" y="-6.5" font-family="Helvetica,sans-Serif" font-size="10.00">AI Behaviors/main.cpp</text>
</a>
</g>
</g>
<!-- Node6&#45;&gt;Node8 -->
<g id="edge7_Node000006_Node000008" class="edge">
<title>Node6&#45;&gt;Node8</title>
<g id="a_edge7_Node000006_Node000008"><a xlink:title=" ">
<path fill="none" stroke="#63b8ff" d="M270.34,-48.4C281.8,-39.17 295.65,-28.01 305.21,-20.3"/>
<polygon fill="#63b8ff" stroke="#63b8ff" points="268.19,-45.64 262.6,-54.64 272.58,-51.09 268.19,-45.64"/>
</a>
</g>
</g>
<!-- Node9&#45;&gt;Node4 -->
<g id="edge9_Node000009_Node000004" class="edge">
<title>Node9&#45;&gt;Node4</title>
<g id="a_edge9_Node000009_Node000004"><a xlink:title=" ">
<path fill="none" stroke="#63b8ff" d="M234.9,-160.68C223.02,-151.39 208.58,-140.09 198.63,-132.3"/>
<polygon fill="#63b8ff" stroke="#63b8ff" points="232.51,-163.25 242.54,-166.66 236.82,-157.74 232.51,-163.25"/>
</a>
</g>
</g>
<!-- Node10 -->
<g id="Node000010" class="node">
<title>Node10</title>
<g id="a_Node000010"><a xlink:href="_harvester_8cpp.html" target="_top" xlink:title=" ">
<polygon fill="white" stroke="#666666" points="385.88,-132 253.62,-132 253.62,-112 385.88,-112 385.88,-132"/>
<text text-anchor="middle" x="319.75" y="-118.5" font-family="Helvetica,sans-Serif" font-size="10.00">AI Behaviors/Harvester.cpp</text>
</a>
</g>
</g>
<!-- Node9&#45;&gt;Node10 -->
<g id="edge10_Node000009_Node000010" class="edge">
<title>Node9&#45;&gt;Node10</title>
<g id="a_edge10_Node000009_Node000010"><a xlink:title=" ">
<path fill="none" stroke="#63b8ff" d="M275.42,-160.4C286.37,-151.17 299.59,-140.01 308.73,-132.3"/>
<polygon fill="#63b8ff" stroke="#63b8ff" points="273.44,-157.49 268.05,-166.62 277.95,-162.84 273.44,-157.49"/>
</a>
</g>
</g>
<!-- Node11&#45;&gt;Node4 -->
<g id="edge12_Node000011_Node000004" class="edge">
<title>Node11&#45;&gt;Node4</title>
<g id="a_edge12_Node000011_Node000004"><a xlink:title=" ">
<path fill="none" stroke="#63b8ff" d="M351.68,-164.81C313.06,-155.02 259.6,-141.47 224.14,-132.48"/>
<polygon fill="#63b8ff" stroke="#63b8ff" points="350.63,-168.16 361.18,-167.22 352.35,-161.37 350.63,-168.16"/>
</a>
</g>
</g>
<!-- Node12 -->
<g id="Node000012" class="node">
<title>Node12</title>
<g id="a_Node000012"><a xlink:href="_tank_aurora_8cpp.html" target="_top" xlink:title=" ">
<polygon fill="white" stroke="#666666" points="545.38,-132 404.12,-132 404.12,-112 545.38,-112 545.38,-132"/>
<text text-anchor="middle" x="474.75" y="-118.5" font-family="Helvetica,sans-Serif" font-size="10.00">AI Behaviors/TankAurora.cpp</text>
</a>
</g>
</g>
<!-- Node11&#45;&gt;Node12 -->
<g id="edge13_Node000011_Node000012" class="edge">
<title>Node11&#45;&gt;Node12</title>
<g id="a_edge13_Node000011_Node000012"><a xlink:title=" ">
<path fill="none" stroke="#63b8ff" d="M421.97,-161C434.86,-151.72 450.65,-140.35 461.58,-132.48"/>
<polygon fill="#63b8ff" stroke="#63b8ff" points="420.11,-158.03 414.04,-166.71 424.2,-163.71 420.11,-158.03"/>
</a>
</g>
</g>
</g>
</svg>

<g id="navigator" transform="translate(0 0)" fill="#404254">
  <rect fill="#f2f5e9" fill-opacity="0.5" stroke="#606060" stroke-width=".5" x="0" y="0" width="60" height="60"/>
  <use id="zoomplus" xlink:href="#zoomPlus" x="17" y="9" onmousedown="handleZoom(evt,'in')"/>
  <use id="zoomminus" xlink:href="#zoomMin" x="42" y="9" onmousedown="handleZoom(evt,'out')"/>
  <use id="reset" xlink:href="#resetDef" x="30" y="36" onmousedown="handleReset()"/>
   <use id="arrowup" xlink:href="#arrowUp" x="0" y="0" onmousedown="handlePan(0,-1)"/>
  <use id="arrowright" xlink:href="#arrowRight" x="0" y="0" onmousedown="handlePan(1,0)"/>
  <use id="arrowdown" xlink:href="#arrowDown" x="0" y="0" onmousedown="handlePan(0,1)"/>
  <use id="arrowleft" xlink:href="#arrowLeft" x="0" y="0" onmousedown="handlePan(-1,0)"/>
</g>
<svg viewBox="0 0 15 15" width="100%" height="30px" preserveAspectRatio="xMaxYMin meet">
 <g id="arrow_out" transform="scale(0.3 0.3)">
  <a xlink:href="_vehicle_unit_8h__dep__incl_org.svg" target="_base">
   <rect id="button" ry="5" rx="5" y="6" x="6" height="38" width="38"
        fill="#f2f5e9" fill-opacity="0.5" stroke="#606060" stroke-width="1.0"/>
   <path id="arrow"
     d="M 11.500037,31.436501 C 11.940474,20.09759 22.043105,11.32322 32.158766,21.979434 L 37.068811,17.246167 C 37.068811,17.246167 37.088388,32 37.088388,32 L 22.160133,31.978069 C 22.160133,31.978069 26.997745,27.140456 26.997745,27.140456 C 18.528582,18.264221 13.291696,25.230495 11.500037,31.436501 z"
     style="fill:#404040;"/>
  </a>
 </g>
</svg>

<style type='text/css'>
<![CDATA[
[data-mouse-over-selected='false'] { opacity: 0.7; }
[data-mouse-over-selected='true']  { opacity: 1.0; }
]]>
</style>
<script type="application/ecmascript"><![CDATA[
document.addEventListener('DOMContentLoaded', (event) => {
  highlightEdges();
  highlightAdjacentNodes();
});
]]></script>
</svg>
