<?xml version="1.0" encoding="UTF-8" standalone="no"?>
<!DOCTYPE svg PUBLIC "-//W3C//DTD SVG 1.1//EN"
 "http://www.w3.org/Graphics/SVG/1.1/DTD/svg11.dtd">
<!-- Generated by graphviz version 10.0.1 (20240210.2158)
 -->
<!-- Title: ParticleSystem::render Pages: 1 -->
<svg width="536pt" height="313pt"
 viewBox="0.00 0.00 536.25 313.00" xmlns="http://www.w3.org/2000/svg" xmlns:xlink="http://www.w3.org/1999/xlink">
<g id="graph0" class="graph" transform="scale(1 1) rotate(0) translate(4 309)">
<title>ParticleSystem::render</title>
<!-- Node1 -->
<g id="Node000001" class="node">
<title>Node1</title>
<g id="a_Node000001"><a xlink:title="Renders the particles into existence.">
<polygon fill="#999999" stroke="#666666" points="528.25,-77 412.5,-77 412.5,-57 528.25,-57 528.25,-77"/>
<text text-anchor="middle" x="470.38" y="-63.5" font-family="Helvetica,sans-Serif" font-size="10.00">ParticleSystem::render</text>
</a>
</g>
</g>
<!-- Node2 -->
<g id="Node000002" class="node">
<title>Node2</title>
<g id="a_Node000002"><a xlink:href="class_building.html#a17f70ec3c6e96f935fa63fa4108901a2" target="_top" xlink:title=" ">
<polygon fill="white" stroke="#666666" points="376.5,-210 293,-210 293,-190 376.5,-190 376.5,-210"/>
<text text-anchor="middle" x="334.75" y="-196.5" font-family="Helvetica,sans-Serif" font-size="10.00">Building::render</text>
</a>
</g>
</g>
<!-- Node1&#45;&gt;Node2 -->
<g id="edge1_Node000001_Node000002" class="edge">
<title>Node1&#45;&gt;Node2</title>
<g id="a_edge1_Node000001_Node000002"><a xlink:title=" ">
<path fill="none" stroke="#63b8ff" d="M450.93,-85.36C422.47,-113.69 368.78,-167.13 346.19,-189.61"/>
<polygon fill="#63b8ff" stroke="#63b8ff" points="453.2,-88.04 457.82,-78.5 448.26,-83.08 453.2,-88.04"/>
</a>
</g>
</g>
<!-- Node8 -->
<g id="Node000008" class="node">
<title>Node8</title>
<g id="a_Node000008"><a xlink:href="class_unit.html#abd8cdcaade9bfafedcf23aadd4f5539a" target="_top" xlink:title="Renders the units and anything related to it.">
<polygon fill="white" stroke="#666666" points="367.88,-77 301.62,-77 301.62,-57 367.88,-57 367.88,-77"/>
<text text-anchor="middle" x="334.75" y="-63.5" font-family="Helvetica,sans-Serif" font-size="10.00">Unit::render</text>
</a>
</g>
</g>
<!-- Node1&#45;&gt;Node8 -->
<g id="edge7_Node000001_Node000008" class="edge">
<title>Node1&#45;&gt;Node8</title>
<g id="a_edge7_Node000001_Node000008"><a xlink:title=" ">
<path fill="none" stroke="#63b8ff" d="M400.96,-67C389.58,-67 378.26,-67 368.32,-67"/>
<polygon fill="#63b8ff" stroke="#63b8ff" points="400.8,-70.5 410.8,-67 400.8,-63.5 400.8,-70.5"/>
</a>
</g>
</g>
<!-- Node14 -->
<g id="Node000014" class="node">
<title>Node14</title>
<g id="a_Node000014"><a xlink:href="class_tank_aurora.html#ae64a175ca2527c56289658bc29ae3c17" target="_top" xlink:title="Renders the units and anything related to it.">
<polygon fill="white" stroke="#666666" points="106.38,-20 7.88,-20 7.88,0 106.38,0 106.38,-20"/>
<text text-anchor="middle" x="57.13" y="-6.5" font-family="Helvetica,sans-Serif" font-size="10.00">TankAurora::render</text>
</a>
</g>
</g>
<!-- Node1&#45;&gt;Node14 -->
<g id="edge14_Node000001_Node000014" class="edge">
<title>Node1&#45;&gt;Node14</title>
<g id="a_edge14_Node000001_Node000014"><a xlink:title=" ">
<path fill="none" stroke="#63b8ff" d="M429.68,-52.98C387.48,-38.89 318.5,-18.11 257,-10 206,-3.27 146.99,-4.38 106.58,-6.48"/>
<polygon fill="#63b8ff" stroke="#63b8ff" points="428.29,-56.21 438.89,-56.1 430.54,-49.58 428.29,-56.21"/>
</a>
</g>
</g>
<!-- Node3 -->
<g id="Node000003" class="node">
<title>Node3</title>
<g id="a_Node000003"><a xlink:href="class_air_craft.html#aaa852c2bf3f7fd53b7795989ff89501e" target="_top" xlink:title=" ">
<polygon fill="white" stroke="#666666" points="244.25,-305 163,-305 163,-285 244.25,-285 244.25,-305"/>
<text text-anchor="middle" x="203.62" y="-291.5" font-family="Helvetica,sans-Serif" font-size="10.00">AirCraft::render</text>
</a>
</g>
</g>
<!-- Node2&#45;&gt;Node3 -->
<g id="edge2_Node000002_Node000003" class="edge">
<title>Node2&#45;&gt;Node3</title>
<g id="a_edge2_Node000002_Node000003"><a xlink:title=" ">
<path fill="none" stroke="#63b8ff" d="M318.87,-218.81C304.59,-235.79 281.6,-260.43 257,-276 251.77,-279.31 245.88,-282.15 239.99,-284.56"/>
<polygon fill="#63b8ff" stroke="#63b8ff" points="321.28,-221.4 324.91,-211.45 315.87,-216.96 321.28,-221.4"/>
</a>
</g>
</g>
<!-- Node4 -->
<g id="Node000004" class="node">
<title>Node4</title>
<g id="a_Node000004"><a xlink:href="class_barracks.html#ab3f973b61dfb08a47667762d4e8d7c8b" target="_top" xlink:title=" ">
<polygon fill="white" stroke="#666666" points="247.62,-267 159.62,-267 159.62,-247 247.62,-247 247.62,-267"/>
<text text-anchor="middle" x="203.62" y="-253.5" font-family="Helvetica,sans-Serif" font-size="10.00">Barracks::render</text>
</a>
</g>
</g>
<!-- Node2&#45;&gt;Node4 -->
<g id="edge3_Node000002_Node000004" class="edge">
<title>Node2&#45;&gt;Node4</title>
<g id="a_edge3_Node000002_Node000004"><a xlink:title=" ">
<path fill="none" stroke="#63b8ff" d="M304.06,-215.67C289.97,-222.85 272.8,-231.25 257,-238 250.06,-240.96 242.49,-243.89 235.31,-246.52"/>
<polygon fill="#63b8ff" stroke="#63b8ff" points="305.53,-218.85 312.81,-211.15 302.32,-212.63 305.53,-218.85"/>
</a>
</g>
</g>
<!-- Node5 -->
<g id="Node000005" class="node">
<title>Node5</title>
<g id="a_Node000005"><a xlink:href="class_headquarters.html#a17cca0c747ab5c0ec19a773a036c1ae7" target="_top" xlink:title=" ">
<polygon fill="white" stroke="#666666" points="257,-229 150.25,-229 150.25,-209 257,-209 257,-229"/>
<text text-anchor="middle" x="203.62" y="-215.5" font-family="Helvetica,sans-Serif" font-size="10.00">Headquarters::render</text>
</a>
</g>
</g>
<!-- Node2&#45;&gt;Node5 -->
<g id="edge4_Node000002_Node000005" class="edge">
<title>Node2&#45;&gt;Node5</title>
<g id="a_edge4_Node000002_Node000005"><a xlink:title=" ">
<path fill="none" stroke="#63b8ff" d="M281.2,-207.73C273.3,-208.89 265.16,-210.09 257.26,-211.26"/>
<polygon fill="#63b8ff" stroke="#63b8ff" points="281.66,-211.2 291.04,-206.28 280.64,-204.28 281.66,-211.2"/>
</a>
</g>
</g>
<!-- Node6 -->
<g id="Node000006" class="node">
<title>Node6</title>
<g id="a_Node000006"><a xlink:href="class_refinery.html#acd7c64516640902874aef19bfec85b9d" target="_top" xlink:title=" ">
<polygon fill="white" stroke="#666666" points="245.75,-191 161.5,-191 161.5,-171 245.75,-171 245.75,-191"/>
<text text-anchor="middle" x="203.62" y="-177.5" font-family="Helvetica,sans-Serif" font-size="10.00">Refinery::render</text>
</a>
</g>
</g>
<!-- Node2&#45;&gt;Node6 -->
<g id="edge5_Node000002_Node000006" class="edge">
<title>Node2&#45;&gt;Node6</title>
<g id="a_edge5_Node000002_Node000006"><a xlink:title=" ">
<path fill="none" stroke="#63b8ff" d="M281.42,-192.3C269.59,-190.56 257.19,-188.73 245.89,-187.07"/>
<polygon fill="#63b8ff" stroke="#63b8ff" points="280.64,-195.72 291.04,-193.72 281.66,-188.8 280.64,-195.72"/>
</a>
</g>
</g>
<!-- Node7 -->
<g id="Node000007" class="node">
<title>Node7</title>
<g id="a_Node000007"><a xlink:href="class_war_factory.html#ad09683b78d19ae3f5b52db16bc659c80" target="_top" xlink:title=" ">
<polygon fill="white" stroke="#666666" points="253.62,-153 153.62,-153 153.62,-133 253.62,-133 253.62,-153"/>
<text text-anchor="middle" x="203.62" y="-139.5" font-family="Helvetica,sans-Serif" font-size="10.00">WarFactory::render</text>
</a>
</g>
</g>
<!-- Node2&#45;&gt;Node7 -->
<g id="edge6_Node000002_Node000007" class="edge">
<title>Node2&#45;&gt;Node7</title>
<g id="a_edge6_Node000002_Node000007"><a xlink:title=" ">
<path fill="none" stroke="#63b8ff" d="M304.06,-184.33C289.97,-177.15 272.8,-168.75 257,-162 250.06,-159.04 242.49,-156.11 235.31,-153.48"/>
<polygon fill="#63b8ff" stroke="#63b8ff" points="302.32,-187.37 312.81,-188.85 305.53,-181.15 302.32,-187.37"/>
</a>
</g>
</g>
<!-- Node9 -->
<g id="Node000009" class="node">
<title>Node9</title>
<g id="a_Node000009"><a xlink:href="class_aircraft_unit.html#a021587d41ae653ddc0b0effafd353007" target="_top" xlink:title="Renders the units and anything related to it.">
<polygon fill="white" stroke="#666666" points="252.12,-115 155.12,-115 155.12,-95 252.12,-95 252.12,-115"/>
<text text-anchor="middle" x="203.62" y="-101.5" font-family="Helvetica,sans-Serif" font-size="10.00">AircraftUnit::render</text>
</a>
</g>
</g>
<!-- Node8&#45;&gt;Node9 -->
<g id="edge8_Node000008_Node000009" class="edge">
<title>Node8&#45;&gt;Node9</title>
<g id="a_edge8_Node000008_Node000009"><a xlink:title=" ">
<path fill="none" stroke="#63b8ff" d="M290.22,-79.81C273.85,-84.63 255.45,-90.04 239.92,-94.61"/>
<polygon fill="#63b8ff" stroke="#63b8ff" points="291.11,-83.2 299.71,-77.02 289.13,-76.48 291.11,-83.2"/>
</a>
</g>
</g>
<!-- Node11 -->
<g id="Node000011" class="node">
<title>Node11</title>
<g id="a_Node000011"><a xlink:href="class_infantry_unit.html#aca40a05689745fe6a675009dc9c27f22" target="_top" xlink:title="Renders the units and anything related to it.">
<polygon fill="white" stroke="#666666" points="252.5,-77 154.75,-77 154.75,-57 252.5,-57 252.5,-77"/>
<text text-anchor="middle" x="203.62" y="-63.5" font-family="Helvetica,sans-Serif" font-size="10.00">InfantryUnit::render</text>
</a>
</g>
</g>
<!-- Node8&#45;&gt;Node11 -->
<g id="edge10_Node000008_Node000011" class="edge">
<title>Node8&#45;&gt;Node11</title>
<g id="a_edge10_Node000008_Node000011"><a xlink:title=" ">
<path fill="none" stroke="#63b8ff" d="M289.7,-67C277.82,-67 264.91,-67 252.82,-67"/>
<polygon fill="#63b8ff" stroke="#63b8ff" points="289.65,-70.5 299.65,-67 289.65,-63.5 289.65,-70.5"/>
</a>
</g>
</g>
<!-- Node13 -->
<g id="Node000013" class="node">
<title>Node13</title>
<g id="a_Node000013"><a xlink:href="class_vehicle_unit.html#ae308c42a1dde64acaa2a7d18d8333c90" target="_top" xlink:title="Renders the units and anything related to it.">
<polygon fill="white" stroke="#666666" points="252.88,-39 154.38,-39 154.38,-19 252.88,-19 252.88,-39"/>
<text text-anchor="middle" x="203.62" y="-25.5" font-family="Helvetica,sans-Serif" font-size="10.00">VehicleUnit::render</text>
</a>
</g>
</g>
<!-- Node8&#45;&gt;Node13 -->
<g id="edge12_Node000008_Node000013" class="edge">
<title>Node8&#45;&gt;Node13</title>
<g id="a_edge12_Node000008_Node000013"><a xlink:title=" ">
<path fill="none" stroke="#63b8ff" d="M290.22,-54.19C273.85,-49.37 255.45,-43.96 239.92,-39.39"/>
<polygon fill="#63b8ff" stroke="#63b8ff" points="289.13,-57.52 299.71,-56.98 291.11,-50.8 289.13,-57.52"/>
</a>
</g>
</g>
<!-- Node10 -->
<g id="Node000010" class="node">
<title>Node10</title>
<g id="a_Node000010"><a xlink:href="class_hammer_head.html#aa38a617a5666307ff1c02f52bf6fb8d9" target="_top" xlink:title="Renders the units and anything related to it.">
<polygon fill="white" stroke="#666666" points="111.25,-115 3,-115 3,-95 111.25,-95 111.25,-115"/>
<text text-anchor="middle" x="57.13" y="-101.5" font-family="Helvetica,sans-Serif" font-size="10.00">HammerHead::render</text>
</a>
</g>
</g>
<!-- Node9&#45;&gt;Node10 -->
<g id="edge9_Node000009_Node000010" class="edge">
<title>Node9&#45;&gt;Node10</title>
<g id="a_edge9_Node000009_Node000010"><a xlink:title=" ">
<path fill="none" stroke="#63b8ff" d="M143.59,-105C132.98,-105 121.97,-105 111.53,-105"/>
<polygon fill="#63b8ff" stroke="#63b8ff" points="143.4,-108.5 153.4,-105 143.4,-101.5 143.4,-108.5"/>
</a>
</g>
</g>
<!-- Node12 -->
<g id="Node000012" class="node">
<title>Node12</title>
<g id="a_Node000012"><a xlink:href="class_rifleman_squad.html#a68f0295ba704a7db0cb475369e48c42c" target="_top" xlink:title="Renders the units and anything related to it.">
<polygon fill="white" stroke="#666666" points="114.25,-77 0,-77 0,-57 114.25,-57 114.25,-77"/>
<text text-anchor="middle" x="57.13" y="-63.5" font-family="Helvetica,sans-Serif" font-size="10.00">RiflemanSquad::render</text>
</a>
</g>
</g>
<!-- Node11&#45;&gt;Node12 -->
<g id="edge11_Node000011_Node000012" class="edge">
<title>Node11&#45;&gt;Node12</title>
<g id="a_edge11_Node000011_Node000012"><a xlink:title=" ">
<path fill="none" stroke="#63b8ff" d="M143.16,-67C133.7,-67 123.93,-67 114.54,-67"/>
<polygon fill="#63b8ff" stroke="#63b8ff" points="143,-70.5 153,-67 143,-63.5 143,-70.5"/>
</a>
</g>
</g>
<!-- Node13&#45;&gt;Node14 -->
<g id="edge13_Node000013_Node000014" class="edge">
<title>Node13&#45;&gt;Node14</title>
<g id="a_edge13_Node000013_Node000014"><a xlink:title=" ">
<path fill="none" stroke="#63b8ff" d="M142.79,-21.13C130.79,-19.56 118.32,-17.92 106.76,-16.4"/>
<polygon fill="#63b8ff" stroke="#63b8ff" points="142.24,-24.59 152.61,-22.42 143.15,-17.65 142.24,-24.59"/>
</a>
</g>
</g>
</g>
</svg>
