<?xml version="1.0" encoding="UTF-8" standalone="no"?>
<!DOCTYPE svg PUBLIC "-//W3C//DTD SVG 1.1//EN"
 "http://www.w3.org/Graphics/SVG/1.1/DTD/svg11.dtd">
<!-- Generated by graphviz version 10.0.1 (20240210.2158)
 -->
<!-- Title: AirCraft::update Pages: 1 -->
<svg width="563pt" height="66pt"
 viewBox="0.00 0.00 562.50 66.00" xmlns="http://www.w3.org/2000/svg" xmlns:xlink="http://www.w3.org/1999/xlink">
<g id="graph0" class="graph" transform="scale(1 1) rotate(0) translate(4 62)">
<title>AirCraft::update</title>
<!-- Node1 -->
<g id="Node000001" class="node">
<title>Node1</title>
<g id="a_Node000001"><a xlink:title=" ">
<polygon fill="#999999" stroke="#666666" points="83.5,-39 0,-39 0,-19 83.5,-19 83.5,-39"/>
<text text-anchor="middle" x="41.75" y="-25.5" font-family="Helvetica,sans-Serif" font-size="10.00">AirCraft::update</text>
</a>
</g>
</g>
<!-- Node2 -->
<g id="Node000002" class="node">
<title>Node2</title>
<g id="a_Node000002"><a xlink:href="class_building.html#a92ed9c2981dbc964248a031cbef4fbec" target="_top" xlink:title=" ">
<polygon fill="white" stroke="#666666" points="205.25,-39 119.5,-39 119.5,-19 205.25,-19 205.25,-39"/>
<text text-anchor="middle" x="162.38" y="-25.5" font-family="Helvetica,sans-Serif" font-size="10.00">Building::update</text>
</a>
</g>
</g>
<!-- Node1&#45;&gt;Node2 -->
<g id="edge1_Node000001_Node000002" class="edge">
<title>Node1&#45;&gt;Node2</title>
<g id="a_edge1_Node000001_Node000002"><a xlink:title=" ">
<path fill="none" stroke="#63b8ff" d="M83.91,-29C91.55,-29 99.64,-29 107.59,-29"/>
<polygon fill="#63b8ff" stroke="#63b8ff" points="107.57,-32.5 117.57,-29 107.57,-25.5 107.57,-32.5"/>
</a>
</g>
</g>
<!-- Node3 -->
<g id="Node000003" class="node">
<title>Node3</title>
<g id="a_Node000003"><a xlink:href="class_building.html#ab9d7d236e9684d09ea362dee94c36604" target="_top" xlink:title="Spawns smoke when health on the building is low.">
<polygon fill="white" stroke="#666666" points="381,-58 241.25,-58 241.25,-38 381,-38 381,-58"/>
<text text-anchor="middle" x="311.12" y="-44.5" font-family="Helvetica,sans-Serif" font-size="10.00">Building::spawnSmokeEffect</text>
</a>
</g>
</g>
<!-- Node2&#45;&gt;Node3 -->
<g id="edge2_Node000002_Node000003" class="edge">
<title>Node2&#45;&gt;Node3</title>
<g id="a_edge2_Node000002_Node000003"><a xlink:title=" ">
<path fill="none" stroke="#63b8ff" d="M205.43,-34.44C213.06,-35.43 221.24,-36.49 229.55,-37.57"/>
<polygon fill="#63b8ff" stroke="#63b8ff" points="229.05,-41.03 239.41,-38.84 229.95,-34.09 229.05,-41.03"/>
</a>
</g>
</g>
<!-- Node5 -->
<g id="Node000005" class="node">
<title>Node5</title>
<g id="a_Node000005"><a xlink:href="class_particle_system.html#ad395c1ed8a4e35546ab040dc75955732" target="_top" xlink:title=" ">
<polygon fill="white" stroke="#666666" points="370.12,-20 252.12,-20 252.12,0 370.12,0 370.12,-20"/>
<text text-anchor="middle" x="311.12" y="-6.5" font-family="Helvetica,sans-Serif" font-size="10.00">ParticleSystem::update</text>
</a>
</g>
</g>
<!-- Node2&#45;&gt;Node5 -->
<g id="edge4_Node000002_Node000005" class="edge">
<title>Node2&#45;&gt;Node5</title>
<g id="a_edge4_Node000002_Node000005"><a xlink:title=" ">
<path fill="none" stroke="#63b8ff" d="M205.43,-23.56C216.34,-22.14 228.39,-20.58 240.31,-19.04"/>
<polygon fill="#63b8ff" stroke="#63b8ff" points="240.69,-22.52 250.16,-17.76 239.79,-15.58 240.69,-22.52"/>
</a>
</g>
</g>
<!-- Node4 -->
<g id="Node000004" class="node">
<title>Node4</title>
<g id="a_Node000004"><a xlink:href="class_particle_system.html#a5a3f496f17c45823c1afb465f903c531" target="_top" xlink:title="Adds the particle into the vector.">
<polygon fill="white" stroke="#666666" points="554.5,-58 417,-58 417,-38 554.5,-38 554.5,-58"/>
<text text-anchor="middle" x="485.75" y="-44.5" font-family="Helvetica,sans-Serif" font-size="10.00">ParticleSystem::addParticle</text>
</a>
</g>
</g>
<!-- Node3&#45;&gt;Node4 -->
<g id="edge3_Node000003_Node000004" class="edge">
<title>Node3&#45;&gt;Node4</title>
<g id="a_edge3_Node000003_Node000004"><a xlink:title=" ">
<path fill="none" stroke="#63b8ff" d="M381.34,-48C389.25,-48 397.35,-48 405.38,-48"/>
<polygon fill="#63b8ff" stroke="#63b8ff" points="405.13,-51.5 415.13,-48 405.13,-44.5 405.13,-51.5"/>
</a>
</g>
</g>
</g>
</svg>
