<?xml version="1.0" encoding="UTF-8" standalone="no"?>
<!DOCTYPE svg PUBLIC "-//W3C//DTD SVG 1.1//EN"
 "http://www.w3.org/Graphics/SVG/1.1/DTD/svg11.dtd">
<!-- Generated by graphviz version 10.0.1 (20240210.2158)
 -->
<!-- Title: WarFactory::update Pages: 1 -->
<svg width="581pt" height="66pt"
 viewBox="0.00 0.00 581.25 66.00" xmlns="http://www.w3.org/2000/svg" xmlns:xlink="http://www.w3.org/1999/xlink">
<g id="graph0" class="graph" transform="scale(1 1) rotate(0) translate(4 62)">
<title>WarFactory::update</title>
<!-- Node1 -->
<g id="Node000001" class="node">
<title>Node1</title>
<g id="a_Node000001"><a xlink:title=" ">
<polygon fill="#999999" stroke="#666666" points="102.25,-39 0,-39 0,-19 102.25,-19 102.25,-39"/>
<text text-anchor="middle" x="51.12" y="-25.5" font-family="Helvetica,sans-Serif" font-size="10.00">WarFactory::update</text>
</a>
</g>
</g>
<!-- Node2 -->
<g id="Node000002" class="node">
<title>Node2</title>
<g id="a_Node000002"><a xlink:href="class_building.html#a92ed9c2981dbc964248a031cbef4fbec" target="_top" xlink:title=" ">
<polygon fill="white" stroke="#666666" points="224,-39 138.25,-39 138.25,-19 224,-19 224,-39"/>
<text text-anchor="middle" x="181.12" y="-25.5" font-family="Helvetica,sans-Serif" font-size="10.00">Building::update</text>
</a>
</g>
</g>
<!-- Node1&#45;&gt;Node2 -->
<g id="edge1_Node000001_Node000002" class="edge">
<title>Node1&#45;&gt;Node2</title>
<g id="a_edge1_Node000001_Node000002"><a xlink:title=" ">
<path fill="none" stroke="#63b8ff" d="M102.71,-29C110.6,-29 118.77,-29 126.72,-29"/>
<polygon fill="#63b8ff" stroke="#63b8ff" points="126.63,-32.5 136.63,-29 126.63,-25.5 126.63,-32.5"/>
</a>
</g>
</g>
<!-- Node3 -->
<g id="Node000003" class="node">
<title>Node3</title>
<g id="a_Node000003"><a xlink:href="class_building.html#ab9d7d236e9684d09ea362dee94c36604" target="_top" xlink:title="Spawns smoke when health on the building is low.">
<polygon fill="white" stroke="#666666" points="399.75,-58 260,-58 260,-38 399.75,-38 399.75,-58"/>
<text text-anchor="middle" x="329.88" y="-44.5" font-family="Helvetica,sans-Serif" font-size="10.00">Building::spawnSmokeEffect</text>
</a>
</g>
</g>
<!-- Node2&#45;&gt;Node3 -->
<g id="edge2_Node000002_Node000003" class="edge">
<title>Node2&#45;&gt;Node3</title>
<g id="a_edge2_Node000002_Node000003"><a xlink:title=" ">
<path fill="none" stroke="#63b8ff" d="M224.18,-34.44C231.81,-35.43 239.99,-36.49 248.3,-37.57"/>
<polygon fill="#63b8ff" stroke="#63b8ff" points="247.8,-41.03 258.16,-38.84 248.7,-34.09 247.8,-41.03"/>
</a>
</g>
</g>
<!-- Node5 -->
<g id="Node000005" class="node">
<title>Node5</title>
<g id="a_Node000005"><a xlink:href="class_particle_system.html#ad395c1ed8a4e35546ab040dc75955732" target="_top" xlink:title=" ">
<polygon fill="white" stroke="#666666" points="388.88,-20 270.88,-20 270.88,0 388.88,0 388.88,-20"/>
<text text-anchor="middle" x="329.88" y="-6.5" font-family="Helvetica,sans-Serif" font-size="10.00">ParticleSystem::update</text>
</a>
</g>
</g>
<!-- Node2&#45;&gt;Node5 -->
<g id="edge4_Node000002_Node000005" class="edge">
<title>Node2&#45;&gt;Node5</title>
<g id="a_edge4_Node000002_Node000005"><a xlink:title=" ">
<path fill="none" stroke="#63b8ff" d="M224.18,-23.56C235.09,-22.14 247.14,-20.58 259.06,-19.04"/>
<polygon fill="#63b8ff" stroke="#63b8ff" points="259.44,-22.52 268.91,-17.76 258.54,-15.58 259.44,-22.52"/>
</a>
</g>
</g>
<!-- Node4 -->
<g id="Node000004" class="node">
<title>Node4</title>
<g id="a_Node000004"><a xlink:href="class_particle_system.html#a5a3f496f17c45823c1afb465f903c531" target="_top" xlink:title="Adds the particle into the vector.">
<polygon fill="white" stroke="#666666" points="573.25,-58 435.75,-58 435.75,-38 573.25,-38 573.25,-58"/>
<text text-anchor="middle" x="504.5" y="-44.5" font-family="Helvetica,sans-Serif" font-size="10.00">ParticleSystem::addParticle</text>
</a>
</g>
</g>
<!-- Node3&#45;&gt;Node4 -->
<g id="edge3_Node000003_Node000004" class="edge">
<title>Node3&#45;&gt;Node4</title>
<g id="a_edge3_Node000003_Node000004"><a xlink:title=" ">
<path fill="none" stroke="#63b8ff" d="M400.09,-48C408,-48 416.1,-48 424.13,-48"/>
<polygon fill="#63b8ff" stroke="#63b8ff" points="423.88,-51.5 433.88,-48 423.88,-44.5 423.88,-51.5"/>
</a>
</g>
</g>
</g>
</svg>
