<?xml version="1.0" encoding="UTF-8" standalone="no"?>
<!DOCTYPE svg PUBLIC "-//W3C//DTD SVG 1.1//EN"
 "http://www.w3.org/Graphics/SVG/1.1/DTD/svg11.dtd">
<!-- Generated by graphviz version 10.0.1 (20240210.2158)
 -->
<!-- Title: Unit::avoidCollisionsWithWalls Pages: 1 -->
<svg width="457pt" height="162pt"
 viewBox="0.00 0.00 457.25 161.71" xmlns="http://www.w3.org/2000/svg" xmlns:xlink="http://www.w3.org/1999/xlink">

<svg id="main" version="1.1" xmlns="http://www.w3.org/2000/svg" xmlns:xlink="http://www.w3.org/1999/xlink" xml:space="preserve" onload="init(evt)">
<style type="text/css"><![CDATA[
.node, .edge {opacity: 0.7;}
.node.selected, .edge.selected {opacity: 1;}
.edge:hover path { stroke: red; }
.edge:hover polygon { stroke: red; fill: red; }
]]></style>
<script type="application/ecmascript" xlink:href="svg.min.js"/>
<svg id="graph" class="graph">
<g id="graph0" class="graph" transform="scale(1 1) rotate(0) translate(4 157.71)">
<title>Unit::avoidCollisionsWithWalls</title>
<!-- Node1 -->
<g id="Node000001" class="node">
<title>Node1</title>
<g id="a_Node000001"><a xlink:title="To avoid walls for units.">
<polygon fill="#999999" stroke="#666666" points="148,-96 0,-96 0,-76 148,-76 148,-96"/>
<text text-anchor="middle" x="74" y="-82.5" font-family="Helvetica,sans-Serif" font-size="10.00">Unit::avoidCollisionsWithWalls</text>
</a>
</g>
</g>
<!-- Node2 -->
<g id="Node000002" class="node">
<title>Node2</title>
<g id="a_Node000002"><a xlink:href="class_unit.html#a42777458d8e2ae32407212027719b6d2" target="_top" xlink:title="This looks for a suitable direction to avoid walls when a direct path is blocked It tries various ang...">
<polygon fill="white" stroke="#666666" points="320.75,-134 184,-134 184,-114 320.75,-114 320.75,-134"/>
<text text-anchor="middle" x="252.38" y="-120.5" font-family="Helvetica,sans-Serif" font-size="10.00">Unit::findAvoidanceDirection</text>
</a>
</g>
</g>
<!-- Node1&#45;&gt;Node2 -->
<g id="edge1_Node000001_Node000002" class="edge">
<title>Node1&#45;&gt;Node2</title>
<g id="a_edge1_Node000001_Node000002"><a xlink:title=" ">
<path fill="none" stroke="#63b8ff" d="M123.66,-96.48C144.77,-101.03 169.69,-106.4 191.89,-111.18"/>
<polygon fill="#63b8ff" stroke="#63b8ff" points="190.88,-114.55 201.39,-113.23 192.35,-107.7 190.88,-114.55"/>
</a>
</g>
</g>
<!-- Node3 -->
<g id="Node000003" class="node">
<title>Node3</title>
<g id="a_Node000003"><a xlink:href="class_unit.html#a829181674d469a36b7e0a6a975d9f66f" target="_top" xlink:title=" ">
<polygon fill="white" stroke="#666666" points="443.62,-153 362.38,-153 362.38,-133 443.62,-133 443.62,-153"/>
<text text-anchor="middle" x="403" y="-139.5" font-family="Helvetica,sans-Serif" font-size="10.00">Unit::normalize</text>
</a>
</g>
</g>
<!-- Node1&#45;&gt;Node3 -->
<g id="edge6_Node000001_Node000003" class="edge">
<title>Node1&#45;&gt;Node3</title>
<g id="a_edge6_Node000001_Node000003"><a xlink:title=" ">
<path fill="none" stroke="#63b8ff" d="M89.25,-96.36C109.24,-110.19 147.29,-133.98 184,-143 239.67,-156.68 305.78,-154.17 350.48,-149.84"/>
<polygon fill="#63b8ff" stroke="#63b8ff" points="350.85,-153.32 360.43,-148.8 350.12,-146.36 350.85,-153.32"/>
</a>
</g>
</g>
<!-- Node4 -->
<g id="Node000004" class="node">
<title>Node4</title>
<g id="a_Node000004"><a xlink:href="class_unit.html#acabd56084730e0bb32811ab6b7be625a" target="_top" xlink:title=" ">
<polygon fill="white" stroke="#666666" points="449.25,-115 356.75,-115 356.75,-95 449.25,-95 449.25,-115"/>
<text text-anchor="middle" x="403" y="-101.5" font-family="Helvetica,sans-Serif" font-size="10.00">Unit::rotateVector</text>
</a>
</g>
</g>
<!-- Node1&#45;&gt;Node4 -->
<g id="edge7_Node000001_Node000004" class="edge">
<title>Node1&#45;&gt;Node4</title>
<g id="a_edge7_Node000001_Node000004"><a xlink:title=" ">
<path fill="none" stroke="#63b8ff" d="M148.39,-90.26C207.98,-93.73 290.8,-98.54 345.37,-101.71"/>
<polygon fill="#63b8ff" stroke="#63b8ff" points="344.87,-105.19 355.05,-102.27 345.27,-98.2 344.87,-105.19"/>
</a>
</g>
</g>
<!-- Node5 -->
<g id="Node000005" class="node">
<title>Node5</title>
<g id="a_Node000005"><a xlink:href="class_unit.html#aa33e6fe8098210a9aeac019345f8a235" target="_top" xlink:title=" ">
<polygon fill="white" stroke="#666666" points="296.38,-58 208.38,-58 208.38,-38 296.38,-38 296.38,-58"/>
<text text-anchor="middle" x="252.38" y="-44.5" font-family="Helvetica,sans-Serif" font-size="10.00">Unit::getPosition</text>
</a>
</g>
</g>
<!-- Node1&#45;&gt;Node5 -->
<g id="edge4_Node000001_Node000005" class="edge">
<title>Node1&#45;&gt;Node5</title>
<g id="a_edge4_Node000001_Node000005"><a xlink:title=" ">
<path fill="none" stroke="#63b8ff" d="M123.66,-75.52C146.36,-70.63 173.46,-64.79 196.84,-59.75"/>
<polygon fill="#63b8ff" stroke="#63b8ff" points="197.47,-63.19 206.51,-57.67 195.99,-56.35 197.47,-63.19"/>
</a>
</g>
</g>
<!-- Node6 -->
<g id="Node000006" class="node">
<title>Node6</title>
<g id="a_Node000006"><a xlink:href="class_unit.html#a2ee0326af0abc525deadf772e485f657" target="_top" xlink:title=" ">
<polygon fill="white" stroke="#666666" points="279.88,-20 224.88,-20 224.88,0 279.88,0 279.88,-20"/>
<text text-anchor="middle" x="252.38" y="-6.5" font-family="Helvetica,sans-Serif" font-size="10.00">Unit::lerp</text>
</a>
</g>
</g>
<!-- Node1&#45;&gt;Node6 -->
<g id="edge5_Node000001_Node000006" class="edge">
<title>Node1&#45;&gt;Node6</title>
<g id="a_edge5_Node000001_Node000006"><a xlink:title=" ">
<path fill="none" stroke="#63b8ff" d="M92.22,-75.56C113.27,-63.15 150.26,-42.41 184,-29 193.33,-25.29 203.67,-21.99 213.38,-19.23"/>
<polygon fill="#63b8ff" stroke="#63b8ff" points="214.2,-22.64 222.93,-16.64 212.36,-15.88 214.2,-22.64"/>
</a>
</g>
</g>
<!-- Node2&#45;&gt;Node3 -->
<g id="edge2_Node000002_Node000003" class="edge">
<title>Node2&#45;&gt;Node3</title>
<g id="a_edge2_Node000002_Node000003"><a xlink:title=" ">
<path fill="none" stroke="#63b8ff" d="M321.16,-132.67C331.07,-133.93 341.13,-135.22 350.64,-136.43"/>
<polygon fill="#63b8ff" stroke="#63b8ff" points="350.05,-139.89 360.41,-137.68 350.93,-132.94 350.05,-139.89"/>
</a>
</g>
</g>
<!-- Node2&#45;&gt;Node4 -->
<g id="edge3_Node000002_Node000004" class="edge">
<title>Node2&#45;&gt;Node4</title>
<g id="a_edge3_Node000002_Node000004"><a xlink:title=" ">
<path fill="none" stroke="#63b8ff" d="M321.16,-115.33C329.19,-114.31 337.31,-113.27 345.17,-112.27"/>
<polygon fill="#63b8ff" stroke="#63b8ff" points="345.45,-115.76 354.92,-111.02 344.56,-108.81 345.45,-115.76"/>
</a>
</g>
</g>
</g>
</svg>
</svg>

<style type='text/css'>
<![CDATA[
[data-mouse-over-selected='false'] { opacity: 0.7; }
[data-mouse-over-selected='true']  { opacity: 1.0; }
]]>
</style>
<script type="application/ecmascript"><![CDATA[
document.addEventListener('DOMContentLoaded', (event) => {
  highlightEdges();
  highlightAdjacentNodes();
});
]]></script>
</svg>
