<?xml version="1.0" encoding="UTF-8" standalone="no"?>
<!DOCTYPE svg PUBLIC "-//W3C//DTD SVG 1.1//EN"
 "http://www.w3.org/Graphics/SVG/1.1/DTD/svg11.dtd">
<!-- Generated by graphviz version 10.0.1 (20240210.2158)
 -->
<!-- Title: Headquarters::update Pages: 1 -->
<svg width="588pt" height="66pt"
 viewBox="0.00 0.00 588.00 66.00" xmlns="http://www.w3.org/2000/svg" xmlns:xlink="http://www.w3.org/1999/xlink">
<g id="graph0" class="graph" transform="scale(1 1) rotate(0) translate(4 62)">
<title>Headquarters::update</title>
<!-- Node1 -->
<g id="Node000001" class="node">
<title>Node1</title>
<g id="a_Node000001"><a xlink:title=" ">
<polygon fill="#999999" stroke="#666666" points="109,-39 0,-39 0,-19 109,-19 109,-39"/>
<text text-anchor="middle" x="54.5" y="-25.5" font-family="Helvetica,sans-Serif" font-size="10.00">Headquarters::update</text>
</a>
</g>
</g>
<!-- Node2 -->
<g id="Node000002" class="node">
<title>Node2</title>
<g id="a_Node000002"><a xlink:href="class_building.html#a92ed9c2981dbc964248a031cbef4fbec" target="_top" xlink:title=" ">
<polygon fill="white" stroke="#666666" points="230.75,-39 145,-39 145,-19 230.75,-19 230.75,-39"/>
<text text-anchor="middle" x="187.88" y="-25.5" font-family="Helvetica,sans-Serif" font-size="10.00">Building::update</text>
</a>
</g>
</g>
<!-- Node1&#45;&gt;Node2 -->
<g id="edge1_Node000001_Node000002" class="edge">
<title>Node1&#45;&gt;Node2</title>
<g id="a_edge1_Node000001_Node000002"><a xlink:title=" ">
<path fill="none" stroke="#63b8ff" d="M109.31,-29C117.22,-29 125.36,-29 133.26,-29"/>
<polygon fill="#63b8ff" stroke="#63b8ff" points="133.09,-32.5 143.09,-29 133.09,-25.5 133.09,-32.5"/>
</a>
</g>
</g>
<!-- Node3 -->
<g id="Node000003" class="node">
<title>Node3</title>
<g id="a_Node000003"><a xlink:href="class_building.html#ab9d7d236e9684d09ea362dee94c36604" target="_top" xlink:title="Spawns smoke when health on the building is low.">
<polygon fill="white" stroke="#666666" points="406.5,-58 266.75,-58 266.75,-38 406.5,-38 406.5,-58"/>
<text text-anchor="middle" x="336.62" y="-44.5" font-family="Helvetica,sans-Serif" font-size="10.00">Building::spawnSmokeEffect</text>
</a>
</g>
</g>
<!-- Node2&#45;&gt;Node3 -->
<g id="edge2_Node000002_Node000003" class="edge">
<title>Node2&#45;&gt;Node3</title>
<g id="a_edge2_Node000002_Node000003"><a xlink:title=" ">
<path fill="none" stroke="#63b8ff" d="M230.93,-34.44C238.56,-35.43 246.74,-36.49 255.05,-37.57"/>
<polygon fill="#63b8ff" stroke="#63b8ff" points="254.55,-41.03 264.91,-38.84 255.45,-34.09 254.55,-41.03"/>
</a>
</g>
</g>
<!-- Node5 -->
<g id="Node000005" class="node">
<title>Node5</title>
<g id="a_Node000005"><a xlink:href="class_particle_system.html#ad395c1ed8a4e35546ab040dc75955732" target="_top" xlink:title=" ">
<polygon fill="white" stroke="#666666" points="395.62,-20 277.62,-20 277.62,0 395.62,0 395.62,-20"/>
<text text-anchor="middle" x="336.62" y="-6.5" font-family="Helvetica,sans-Serif" font-size="10.00">ParticleSystem::update</text>
</a>
</g>
</g>
<!-- Node2&#45;&gt;Node5 -->
<g id="edge4_Node000002_Node000005" class="edge">
<title>Node2&#45;&gt;Node5</title>
<g id="a_edge4_Node000002_Node000005"><a xlink:title=" ">
<path fill="none" stroke="#63b8ff" d="M230.93,-23.56C241.84,-22.14 253.89,-20.58 265.81,-19.04"/>
<polygon fill="#63b8ff" stroke="#63b8ff" points="266.19,-22.52 275.66,-17.76 265.29,-15.58 266.19,-22.52"/>
</a>
</g>
</g>
<!-- Node4 -->
<g id="Node000004" class="node">
<title>Node4</title>
<g id="a_Node000004"><a xlink:href="class_particle_system.html#a5a3f496f17c45823c1afb465f903c531" target="_top" xlink:title="Adds the particle into the vector.">
<polygon fill="white" stroke="#666666" points="580,-58 442.5,-58 442.5,-38 580,-38 580,-58"/>
<text text-anchor="middle" x="511.25" y="-44.5" font-family="Helvetica,sans-Serif" font-size="10.00">ParticleSystem::addParticle</text>
</a>
</g>
</g>
<!-- Node3&#45;&gt;Node4 -->
<g id="edge3_Node000003_Node000004" class="edge">
<title>Node3&#45;&gt;Node4</title>
<g id="a_edge3_Node000003_Node000004"><a xlink:title=" ">
<path fill="none" stroke="#63b8ff" d="M406.84,-48C414.75,-48 422.85,-48 430.88,-48"/>
<polygon fill="#63b8ff" stroke="#63b8ff" points="430.63,-51.5 440.63,-48 430.63,-44.5 430.63,-51.5"/>
</a>
</g>
</g>
</g>
</svg>
