<?xml version="1.0" encoding="UTF-8" standalone="no"?>
<!DOCTYPE svg PUBLIC "-//W3C//DTD SVG 1.1//EN"
 "http://www.w3.org/Graphics/SVG/1.1/DTD/svg11.dtd">
<!-- Generated by graphviz version 10.0.1 (20240210.2158)
 -->
<!-- Title: Unit::findAvoidanceDirection Pages: 1 -->
<svg width="273pt" height="66pt"
 viewBox="0.00 0.00 273.25 66.00" xmlns="http://www.w3.org/2000/svg" xmlns:xlink="http://www.w3.org/1999/xlink">
<g id="graph0" class="graph" transform="scale(1 1) rotate(0) translate(4 62)">
<title>Unit::findAvoidanceDirection</title>
<!-- Node1 -->
<g id="Node000001" class="node">
<title>Node1</title>
<g id="a_Node000001"><a xlink:title="This looks for a suitable direction to avoid walls when a direct path is blocked It tries various ang...">
<polygon fill="#999999" stroke="#666666" points="136.75,-39 0,-39 0,-19 136.75,-19 136.75,-39"/>
<text text-anchor="middle" x="68.38" y="-25.5" font-family="Helvetica,sans-Serif" font-size="10.00">Unit::findAvoidanceDirection</text>
</a>
</g>
</g>
<!-- Node2 -->
<g id="Node000002" class="node">
<title>Node2</title>
<g id="a_Node000002"><a xlink:href="class_unit.html#a829181674d469a36b7e0a6a975d9f66f" target="_top" xlink:title=" ">
<polygon fill="white" stroke="#666666" points="259.62,-58 178.38,-58 178.38,-38 259.62,-38 259.62,-58"/>
<text text-anchor="middle" x="219" y="-44.5" font-family="Helvetica,sans-Serif" font-size="10.00">Unit::normalize</text>
</a>
</g>
</g>
<!-- Node1&#45;&gt;Node2 -->
<g id="edge1_Node000001_Node000002" class="edge">
<title>Node1&#45;&gt;Node2</title>
<g id="a_edge1_Node000001_Node000002"><a xlink:title=" ">
<path fill="none" stroke="#63b8ff" d="M137.16,-37.67C147.07,-38.93 157.13,-40.22 166.64,-41.43"/>
<polygon fill="#63b8ff" stroke="#63b8ff" points="166.05,-44.89 176.41,-42.68 166.93,-37.94 166.05,-44.89"/>
</a>
</g>
</g>
<!-- Node3 -->
<g id="Node000003" class="node">
<title>Node3</title>
<g id="a_Node000003"><a xlink:href="class_unit.html#acabd56084730e0bb32811ab6b7be625a" target="_top" xlink:title=" ">
<polygon fill="white" stroke="#666666" points="265.25,-20 172.75,-20 172.75,0 265.25,0 265.25,-20"/>
<text text-anchor="middle" x="219" y="-6.5" font-family="Helvetica,sans-Serif" font-size="10.00">Unit::rotateVector</text>
</a>
</g>
</g>
<!-- Node1&#45;&gt;Node3 -->
<g id="edge2_Node000001_Node000003" class="edge">
<title>Node1&#45;&gt;Node3</title>
<g id="a_edge2_Node000001_Node000003"><a xlink:title=" ">
<path fill="none" stroke="#63b8ff" d="M137.16,-20.33C145.19,-19.31 153.31,-18.27 161.17,-17.27"/>
<polygon fill="#63b8ff" stroke="#63b8ff" points="161.45,-20.76 170.92,-16.02 160.56,-13.81 161.45,-20.76"/>
</a>
</g>
</g>
</g>
</svg>
