<?xml version="1.0" encoding="UTF-8" standalone="no"?>
<!DOCTYPE svg PUBLIC "-//W3C//DTD SVG 1.1//EN"
 "http://www.w3.org/Graphics/SVG/1.1/DTD/svg11.dtd">
<!-- Generated by graphviz version 10.0.1 (20240210.2158)
 -->
<!-- Title: AircraftUnit::update Pages: 1 -->
<svg width="254pt" height="66pt"
 viewBox="0.00 0.00 253.75 66.00" xmlns="http://www.w3.org/2000/svg" xmlns:xlink="http://www.w3.org/1999/xlink">
<g id="graph0" class="graph" transform="scale(1 1) rotate(0) translate(4 62)">
<title>AircraftUnit::update</title>
<!-- Node1 -->
<g id="Node000001" class="node">
<title>Node1</title>
<g id="a_Node000001"><a xlink:title=" ">
<polygon fill="#999999" stroke="#666666" points="245.75,-39 146.5,-39 146.5,-19 245.75,-19 245.75,-39"/>
<text text-anchor="middle" x="196.12" y="-25.5" font-family="Helvetica,sans-Serif" font-size="10.00">AircraftUnit::update</text>
</a>
</g>
</g>
<!-- Node2 -->
<g id="Node000002" class="node">
<title>Node2</title>
<g id="a_Node000002"><a xlink:href="class_firehawk.html#a39f1f9ed23fa4203edf940c9057b8b2a" target="_top" xlink:title=" ">
<polygon fill="white" stroke="#666666" points="100.38,-58 10.12,-58 10.12,-38 100.38,-38 100.38,-58"/>
<text text-anchor="middle" x="55.25" y="-44.5" font-family="Helvetica,sans-Serif" font-size="10.00">Firehawk::update</text>
</a>
</g>
</g>
<!-- Node1&#45;&gt;Node2 -->
<g id="edge1_Node000001_Node000002" class="edge">
<title>Node1&#45;&gt;Node2</title>
<g id="a_edge1_Node000001_Node000002"><a xlink:title=" ">
<path fill="none" stroke="#63b8ff" d="M134.83,-37.25C123.33,-38.82 111.49,-40.44 100.6,-41.93"/>
<polygon fill="#63b8ff" stroke="#63b8ff" points="135.23,-40.73 144.66,-35.9 134.28,-33.79 135.23,-40.73"/>
</a>
</g>
</g>
<!-- Node3 -->
<g id="Node000003" class="node">
<title>Node3</title>
<g id="a_Node000003"><a xlink:href="class_hammer_head.html#a57c18e3d80cb32b40aa995bf76f59949" target="_top" xlink:title=" ">
<polygon fill="white" stroke="#666666" points="110.5,-20 0,-20 0,0 110.5,0 110.5,-20"/>
<text text-anchor="middle" x="55.25" y="-6.5" font-family="Helvetica,sans-Serif" font-size="10.00">HammerHead::update</text>
</a>
</g>
</g>
<!-- Node1&#45;&gt;Node3 -->
<g id="edge2_Node000001_Node000003" class="edge">
<title>Node1&#45;&gt;Node3</title>
<g id="a_edge2_Node000001_Node000003"><a xlink:title=" ">
<path fill="none" stroke="#63b8ff" d="M135,-20.77C127,-19.68 118.83,-18.56 110.92,-17.48"/>
<polygon fill="#63b8ff" stroke="#63b8ff" points="134.28,-24.21 144.66,-22.1 135.23,-17.27 134.28,-24.21"/>
</a>
</g>
</g>
</g>
</svg>
