<?xml version="1.0" encoding="UTF-8" standalone="no"?>
<!DOCTYPE svg PUBLIC "-//W3C//DTD SVG 1.1//EN"
 "http://www.w3.org/Graphics/SVG/1.1/DTD/svg11.dtd">
<!-- Generated by graphviz version 10.0.1 (20240210.2158)
 -->
<!-- Title: Building::setPlacementRadiusSize Pages: 1 -->
<svg width="348pt" height="180pt"
 viewBox="0.00 0.00 347.50 180.00" xmlns="http://www.w3.org/2000/svg" xmlns:xlink="http://www.w3.org/1999/xlink">

<svg id="main" version="1.1" xmlns="http://www.w3.org/2000/svg" xmlns:xlink="http://www.w3.org/1999/xlink" xml:space="preserve" onload="init(evt)">
<style type="text/css"><![CDATA[
.node, .edge {opacity: 0.7;}
.node.selected, .edge.selected {opacity: 1;}
.edge:hover path { stroke: red; }
.edge:hover polygon { stroke: red; fill: red; }
]]></style>
<script type="application/ecmascript" xlink:href="svg.min.js"/>
<svg id="graph" class="graph">
<g id="graph0" class="graph" transform="scale(1 1) rotate(0) translate(4 176)">
<title>Building::setPlacementRadiusSize</title>
<!-- Node1 -->
<g id="Node000001" class="node">
<title>Node1</title>
<g id="a_Node000001"><a xlink:title="sets the placement radius">
<polygon fill="#999999" stroke="#666666" points="339.5,-96 173.5,-96 173.5,-76 339.5,-76 339.5,-96"/>
<text text-anchor="middle" x="256.5" y="-82.5" font-family="Helvetica,sans-Serif" font-size="10.00">Building::setPlacementRadiusSize</text>
</a>
</g>
</g>
<!-- Node2 -->
<g id="Node000002" class="node">
<title>Node2</title>
<g id="a_Node000002"><a xlink:href="class_air_craft.html#a7ffbd6f4da5c11951b751cc2767e6e0f" target="_top" xlink:title=" ">
<polygon fill="white" stroke="#666666" points="112,-172 25.5,-172 25.5,-152 112,-152 112,-172"/>
<text text-anchor="middle" x="68.75" y="-158.5" font-family="Helvetica,sans-Serif" font-size="10.00">AirCraft::AirCraft</text>
</a>
</g>
</g>
<!-- Node1&#45;&gt;Node2 -->
<g id="edge1_Node000001_Node000002" class="edge">
<title>Node1&#45;&gt;Node2</title>
<g id="a_edge1_Node000001_Node000002"><a xlink:title=" ">
<path fill="none" stroke="#63b8ff" d="M226.75,-101.66C203.24,-114.03 168.87,-131.13 137.5,-143 129.16,-146.16 120.07,-149.06 111.33,-151.59"/>
<polygon fill="#63b8ff" stroke="#63b8ff" points="228.22,-104.84 235.41,-97.05 224.94,-98.66 228.22,-104.84"/>
</a>
</g>
</g>
<!-- Node3 -->
<g id="Node000003" class="node">
<title>Node3</title>
<g id="a_Node000003"><a xlink:href="class_barracks.html#a3a46faa94ab87e28b376f37ef186c795" target="_top" xlink:title=" ">
<polygon fill="white" stroke="#666666" points="118.75,-134 18.75,-134 18.75,-114 118.75,-114 118.75,-134"/>
<text text-anchor="middle" x="68.75" y="-120.5" font-family="Helvetica,sans-Serif" font-size="10.00">Barracks::Barracks</text>
</a>
</g>
</g>
<!-- Node1&#45;&gt;Node3 -->
<g id="edge2_Node000001_Node000003" class="edge">
<title>Node1&#45;&gt;Node3</title>
<g id="a_edge2_Node000001_Node000003"><a xlink:title=" ">
<path fill="none" stroke="#63b8ff" d="M193.08,-98.77C169.02,-103.69 141.9,-109.24 119.23,-113.88"/>
<polygon fill="#63b8ff" stroke="#63b8ff" points="193.67,-102.22 202.77,-96.79 192.27,-95.36 193.67,-102.22"/>
</a>
</g>
</g>
<!-- Node4 -->
<g id="Node000004" class="node">
<title>Node4</title>
<g id="a_Node000004"><a xlink:href="class_headquarters.html#a47ada4046d4b5feaadc63d64439420ab" target="_top" xlink:title=" ">
<polygon fill="white" stroke="#666666" points="137.5,-96 0,-96 0,-76 137.5,-76 137.5,-96"/>
<text text-anchor="middle" x="68.75" y="-82.5" font-family="Helvetica,sans-Serif" font-size="10.00">Headquarters::Headquarters</text>
</a>
</g>
</g>
<!-- Node1&#45;&gt;Node4 -->
<g id="edge3_Node000001_Node000004" class="edge">
<title>Node1&#45;&gt;Node4</title>
<g id="a_edge3_Node000001_Node000004"><a xlink:title=" ">
<path fill="none" stroke="#63b8ff" d="M161.79,-86C153.7,-86 145.62,-86 137.78,-86"/>
<polygon fill="#63b8ff" stroke="#63b8ff" points="161.7,-89.5 171.7,-86 161.7,-82.5 161.7,-89.5"/>
</a>
</g>
</g>
<!-- Node5 -->
<g id="Node000005" class="node">
<title>Node5</title>
<g id="a_Node000005"><a xlink:href="class_refinery.html#ab6f3fa0385a031bd4e5314aedc74eca4" target="_top" xlink:title=" ">
<polygon fill="white" stroke="#666666" points="115,-58 22.5,-58 22.5,-38 115,-38 115,-58"/>
<text text-anchor="middle" x="68.75" y="-44.5" font-family="Helvetica,sans-Serif" font-size="10.00">Refinery::Refinery</text>
</a>
</g>
</g>
<!-- Node1&#45;&gt;Node5 -->
<g id="edge4_Node000001_Node000005" class="edge">
<title>Node1&#45;&gt;Node5</title>
<g id="a_edge4_Node000001_Node000005"><a xlink:title=" ">
<path fill="none" stroke="#63b8ff" d="M193.21,-73.26C167.77,-68.05 138.88,-62.14 115.45,-57.35"/>
<polygon fill="#63b8ff" stroke="#63b8ff" points="192.27,-76.64 202.77,-75.21 193.67,-69.78 192.27,-76.64"/>
</a>
</g>
</g>
<!-- Node6 -->
<g id="Node000006" class="node">
<title>Node6</title>
<g id="a_Node000006"><a xlink:href="class_war_factory.html#a0a7077f16ad2e9556a585904fd71618f" target="_top" xlink:title=" ">
<polygon fill="white" stroke="#666666" points="130.75,-20 6.75,-20 6.75,0 130.75,0 130.75,-20"/>
<text text-anchor="middle" x="68.75" y="-6.5" font-family="Helvetica,sans-Serif" font-size="10.00">WarFactory::WarFactory</text>
</a>
</g>
</g>
<!-- Node1&#45;&gt;Node6 -->
<g id="edge5_Node000001_Node000006" class="edge">
<title>Node1&#45;&gt;Node6</title>
<g id="a_edge5_Node000001_Node000006"><a xlink:title=" ">
<path fill="none" stroke="#63b8ff" d="M226.75,-70.34C203.24,-57.97 168.87,-40.87 137.5,-29 129.16,-25.84 120.07,-22.94 111.33,-20.41"/>
<polygon fill="#63b8ff" stroke="#63b8ff" points="224.94,-73.34 235.41,-74.95 228.22,-67.16 224.94,-73.34"/>
</a>
</g>
</g>
</g>
</svg>
</svg>

<style type='text/css'>
<![CDATA[
[data-mouse-over-selected='false'] { opacity: 0.7; }
[data-mouse-over-selected='true']  { opacity: 1.0; }
]]>
</style>
<script type="application/ecmascript"><![CDATA[
document.addEventListener('DOMContentLoaded', (event) => {
  highlightEdges();
  highlightAdjacentNodes();
});
]]></script>
</svg>
