<?xml version="1.0" encoding="UTF-8" standalone="no"?>
<!DOCTYPE svg PUBLIC "-//W3C//DTD SVG 1.1//EN"
 "http://www.w3.org/Graphics/SVG/1.1/DTD/svg11.dtd">
<!-- Generated by graphviz version 10.0.1 (20240210.2158)
 -->
<!-- Title: SoundManager::playMusic Pages: 1 -->
<svg width="528pt" height="85pt"
 viewBox="0.00 0.00 527.75 85.00" xmlns="http://www.w3.org/2000/svg" xmlns:xlink="http://www.w3.org/1999/xlink">
<g id="graph0" class="graph" transform="scale(1 1) rotate(0) translate(4 81)">
<title>SoundManager::playMusic</title>
<!-- Node1 -->
<g id="Node000001" class="node">
<title>Node1</title>
<g id="a_Node000001"><a xlink:title="plays music">
<polygon fill="#999999" stroke="#666666" points="519.75,-58 388.25,-58 388.25,-38 519.75,-38 519.75,-58"/>
<text text-anchor="middle" x="454" y="-44.5" font-family="Helvetica,sans-Serif" font-size="10.00">SoundManager::playMusic</text>
</a>
</g>
</g>
<!-- Node2 -->
<g id="Node000002" class="node">
<title>Node2</title>
<g id="a_Node000002"><a xlink:href="class_main_menu.html#a53eecf9d5ffd094f54ac4193e7e57eaf" target="_top" xlink:title=" ">
<polygon fill="white" stroke="#666666" points="333.5,-77 221.5,-77 221.5,-57 333.5,-57 333.5,-77"/>
<text text-anchor="middle" x="277.5" y="-63.5" font-family="Helvetica,sans-Serif" font-size="10.00">MainMenu::MainMenu</text>
</a>
</g>
</g>
<!-- Node1&#45;&gt;Node2 -->
<g id="edge1_Node000001_Node000002" class="edge">
<title>Node1&#45;&gt;Node2</title>
<g id="a_edge1_Node000001_Node000002"><a xlink:title=" ">
<path fill="none" stroke="#63b8ff" d="M376.59,-56.32C362.2,-57.89 347.4,-59.5 333.8,-60.98"/>
<polygon fill="#63b8ff" stroke="#63b8ff" points="376.96,-59.8 386.52,-55.24 376.2,-52.84 376.96,-59.8"/>
</a>
</g>
</g>
<!-- Node3 -->
<g id="Node000003" class="node">
<title>Node3</title>
<g id="a_Node000003"><a xlink:href="class_sound_manager.html#a4df606df9541a5513e5dcfd16f4b68b3" target="_top" xlink:title="plays the next track for music if there is any">
<polygon fill="white" stroke="#666666" points="352.25,-39 202.75,-39 202.75,-19 352.25,-19 352.25,-39"/>
<text text-anchor="middle" x="277.5" y="-25.5" font-family="Helvetica,sans-Serif" font-size="10.00">SoundManager::playNextTrack</text>
</a>
</g>
</g>
<!-- Node1&#45;&gt;Node3 -->
<g id="edge2_Node000001_Node000003" class="edge">
<title>Node1&#45;&gt;Node3</title>
<g id="a_edge2_Node000001_Node000003"><a xlink:title=" ">
<path fill="none" stroke="#63b8ff" d="M376.8,-39.7C368.78,-38.83 360.64,-37.94 352.64,-37.07"/>
<polygon fill="#63b8ff" stroke="#63b8ff" points="376.2,-43.16 386.52,-40.76 376.96,-36.2 376.2,-43.16"/>
</a>
</g>
</g>
<!-- Node4 -->
<g id="Node000004" class="node">
<title>Node4</title>
<g id="a_Node000004"><a xlink:href="class_main_menu.html#a21a5eef38283b271749a28bc954fbddd" target="_top" xlink:title="handles the button presses">
<polygon fill="white" stroke="#666666" points="156.25,-58 10.5,-58 10.5,-38 156.25,-38 156.25,-58"/>
<text text-anchor="middle" x="83.38" y="-44.5" font-family="Helvetica,sans-Serif" font-size="10.00">MainMenu::handleButtonClick</text>
</a>
</g>
</g>
<!-- Node3&#45;&gt;Node4 -->
<g id="edge3_Node000003_Node000004" class="edge">
<title>Node3&#45;&gt;Node4</title>
<g id="a_edge3_Node000003_Node000004"><a xlink:title=" ">
<path fill="none" stroke="#63b8ff" d="M191.04,-37.45C179.49,-38.59 167.73,-39.76 156.44,-40.87"/>
<polygon fill="#63b8ff" stroke="#63b8ff" points="191.38,-40.93 200.99,-36.47 190.69,-33.97 191.38,-40.93"/>
</a>
</g>
</g>
<!-- Node5 -->
<g id="Node000005" class="node">
<title>Node5</title>
<g id="a_Node000005"><a xlink:href="class_sound_manager.html#a237964589201c404a015660fe601eff5" target="_top" xlink:title="updates the track when the current one stops playing">
<polygon fill="white" stroke="#666666" points="166.75,-20 0,-20 0,0 166.75,0 166.75,-20"/>
<text text-anchor="middle" x="83.38" y="-6.5" font-family="Helvetica,sans-Serif" font-size="10.00">SoundManager::updateMusicTrack</text>
</a>
</g>
</g>
<!-- Node3&#45;&gt;Node5 -->
<g id="edge4_Node000003_Node000005" class="edge">
<title>Node3&#45;&gt;Node5</title>
<g id="a_edge4_Node000003_Node000005"><a xlink:title=" ">
<path fill="none" stroke="#63b8ff" d="M191.2,-20.56C183.15,-19.77 175,-18.96 166.98,-18.17"/>
<polygon fill="#63b8ff" stroke="#63b8ff" points="190.69,-24.03 200.99,-21.53 191.38,-17.07 190.69,-24.03"/>
</a>
</g>
</g>
</g>
</svg>
