<?xml version="1.0" encoding="UTF-8" standalone="no"?>
<!DOCTYPE svg PUBLIC "-//W3C//DTD SVG 1.1//EN"
 "http://www.w3.org/Graphics/SVG/1.1/DTD/svg11.dtd">
<!-- Generated by graphviz version 10.0.1 (20240210.2158)
 -->
<!-- Title: VehicleUnit::render Pages: 1 -->
<svg width="361pt" height="28pt"
 viewBox="0.00 0.00 360.50 28.00" xmlns="http://www.w3.org/2000/svg" xmlns:xlink="http://www.w3.org/1999/xlink">
<g id="graph0" class="graph" transform="scale(1 1) rotate(0) translate(4 24)">
<title>VehicleUnit::render</title>
<!-- Node1 -->
<g id="Node000001" class="node">
<title>Node1</title>
<g id="a_Node000001"><a xlink:title="Renders the units and anything related to it.">
<polygon fill="#999999" stroke="#666666" points="98.5,-20 0,-20 0,0 98.5,0 98.5,-20"/>
<text text-anchor="middle" x="49.25" y="-6.5" font-family="Helvetica,sans-Serif" font-size="10.00">VehicleUnit::render</text>
</a>
</g>
</g>
<!-- Node2 -->
<g id="Node000002" class="node">
<title>Node2</title>
<g id="a_Node000002"><a xlink:href="class_unit.html#abd8cdcaade9bfafedcf23aadd4f5539a" target="_top" xlink:title="Renders the units and anything related to it.">
<polygon fill="white" stroke="#666666" points="200.75,-20 134.5,-20 134.5,0 200.75,0 200.75,-20"/>
<text text-anchor="middle" x="167.62" y="-6.5" font-family="Helvetica,sans-Serif" font-size="10.00">Unit::render</text>
</a>
</g>
</g>
<!-- Node1&#45;&gt;Node2 -->
<g id="edge1_Node000001_Node000002" class="edge">
<title>Node1&#45;&gt;Node2</title>
<g id="a_edge1_Node000001_Node000002"><a xlink:title=" ">
<path fill="none" stroke="#63b8ff" d="M98.93,-10C106.79,-10 114.88,-10 122.62,-10"/>
<polygon fill="#63b8ff" stroke="#63b8ff" points="122.51,-13.5 132.51,-10 122.51,-6.5 122.51,-13.5"/>
</a>
</g>
</g>
<!-- Node3 -->
<g id="Node000003" class="node">
<title>Node3</title>
<g id="a_Node000003"><a xlink:href="class_particle_system.html#a12f342988eeb7d9ac023e279b8b9dd8c" target="_top" xlink:title="Renders the particles into existence.">
<polygon fill="white" stroke="#666666" points="352.5,-20 236.75,-20 236.75,0 352.5,0 352.5,-20"/>
<text text-anchor="middle" x="294.62" y="-6.5" font-family="Helvetica,sans-Serif" font-size="10.00">ParticleSystem::render</text>
</a>
</g>
</g>
<!-- Node2&#45;&gt;Node3 -->
<g id="edge2_Node000002_Node000003" class="edge">
<title>Node2&#45;&gt;Node3</title>
<g id="a_edge2_Node000002_Node000003"><a xlink:title=" ">
<path fill="none" stroke="#63b8ff" d="M201.14,-10C208.6,-10 216.81,-10 225.16,-10"/>
<polygon fill="#63b8ff" stroke="#63b8ff" points="225.06,-13.5 235.06,-10 225.06,-6.5 225.06,-13.5"/>
</a>
</g>
</g>
</g>
</svg>
