<?xml version="1.0" encoding="UTF-8" standalone="no"?>
<!DOCTYPE svg PUBLIC "-//W3C//DTD SVG 1.1//EN"
 "http://www.w3.org/Graphics/SVG/1.1/DTD/svg11.dtd">
<!-- Generated by graphviz version 10.0.1 (20240210.2158)
 -->
<!-- Title: GUI::handleMouseClick Pages: 1 -->
<!--zoomable 598 -->

<svg id="main" version="1.1" xmlns="http://www.w3.org/2000/svg" xmlns:xlink="http://www.w3.org/1999/xlink" xml:space="preserve" onload="init(evt)">
<style type="text/css"><![CDATA[
.node, .edge {opacity: 0.7;}
.node.selected, .edge.selected {opacity: 1;}
.edge:hover path { stroke: red; }
.edge:hover polygon { stroke: red; fill: red; }
]]></style>

<defs>
  <circle id="rim" cx="0" cy="0" r="7"/>
  <circle id="rim2" cx="0" cy="0" r="3.5"/>
  <g id="zoomPlus">
    <use xlink:href="#rim" fill="#404040"><set attributeName="fill" to="#808080" begin="zoomplus.mouseover" end="zoomplus.mouseout"/></use>
    <path d="M-4,0h8M0,-4v8" fill="none" stroke="white" stroke-width="1.5" pointer-events="none"/>
  </g>
  <g id="zoomMin">
    <use xlink:href="#rim" fill="#404040"><set attributeName="fill" to="#808080" begin="zoomminus.mouseover" end="zoomminus.mouseout"/></use>
    <path d="M-4,0h8" fill="none" stroke="white" stroke-width="1.5" pointer-events="none"/>
  </g>
  <g id="arrowUp" transform="translate(30 24)">
    <use xlink:href="#rim"/>
    <path pointer-events="none" fill="none" stroke="white" stroke-width="1.5" d="M0,-3.0v7 M-2.5,-0.5L0,-3.0L2.5,-0.5"/>
  </g>
  <g id="arrowRight" transform="rotate(90) translate(36 -43)">
    <use xlink:href="#rim"/>
    <path pointer-events="none" fill="none" stroke="white" stroke-width="1.5" d="M0,-3.0v7 M-2.5,-0.5L0,-3.0L2.5,-0.5"/>
  </g>
  <g id="arrowDown" transform="rotate(180) translate(-30 -48)">
    <use xlink:href="#rim"/>
    <path pointer-events="none" fill="none" stroke="white" stroke-width="1.5" d="M0,-3.0v7 M-2.5,-0.5L0,-3.0L2.5,-0.5"/>
  </g>
  <g id="arrowLeft" transform="rotate(270) translate(-36 17)">
    <use xlink:href="#rim"/>
    <path pointer-events="none" fill="none" stroke="white" stroke-width="1.5" d="M0,-3.0v7 M-2.5,-0.5L0,-3.0L2.5,-0.5"/>
  </g>
  <g id="resetDef">
    <use xlink:href="#rim2" fill="#404040"><set attributeName="fill" to="#808080" begin="reset.mouseover" end="reset.mouseout"/></use>
  </g>
</defs>
<script type="application/ecmascript">
var viewWidth = 516;
var viewHeight = 598;
var sectionId = 'dynsection-4';
</script>
<script type="application/ecmascript" xlink:href="svg.min.js"/>
<svg id="graph" class="graph">
<g id="viewport">
<title>GUI::handleMouseClick</title>
<!-- Node1 -->
<g id="Node000001" class="node">
<title>Node1</title>
<g id="a_Node000001"><a xlink:title="handles the mouse clicks for GUI related stuff">
<polygon fill="#999999" stroke="#666666" points="118,-343 0,-343 0,-323 118,-323 118,-343"/>
<text text-anchor="middle" x="59" y="-329.5" font-family="Helvetica,sans-Serif" font-size="10.00">GUI::handleMouseClick</text>
</a>
</g>
</g>
<!-- Node2 -->
<g id="Node000002" class="node">
<title>Node2</title>
<g id="a_Node000002"><a xlink:href="class_unit.html#a8ed00bb67423863eafa5a0e483fd2dd9" target="_top" xlink:title=" ">
<polygon fill="white" stroke="#666666" points="303.12,-590 187.38,-590 187.38,-570 303.12,-570 303.12,-590"/>
<text text-anchor="middle" x="245.25" y="-576.5" font-family="Helvetica,sans-Serif" font-size="10.00">Unit::checkAffordability</text>
</a>
</g>
</g>
<!-- Node1&#45;&gt;Node2 -->
<g id="edge1_Node000001_Node000002" class="edge">
<title>Node1&#45;&gt;Node2</title>
<g id="a_edge1_Node000001_Node000002"><a xlink:title=" ">
<path fill="none" stroke="#63b8ff" d="M60.91,-343.13C64.69,-379.08 82.56,-501.6 154,-561 160.51,-566.41 168.17,-570.4 176.24,-573.31"/>
<polygon fill="#63b8ff" stroke="#63b8ff" points="174.98,-576.59 185.57,-576.13 177.01,-569.89 174.98,-576.59"/>
</a>
</g>
</g>
<!-- Node3 -->
<g id="Node000003" class="node">
<title>Node3</title>
<g id="a_Node000003"><a xlink:href="class_side_bar.html#a6fe150acbd921f8aab7080a5711d063b" target="_top" xlink:title=" ">
<polygon fill="white" stroke="#666666" points="323,-552 167.5,-552 167.5,-532 323,-532 323,-552"/>
<text text-anchor="middle" x="245.25" y="-538.5" font-family="Helvetica,sans-Serif" font-size="10.00">SideBar::getAirCraftIconPosition</text>
</a>
</g>
</g>
<!-- Node1&#45;&gt;Node3 -->
<g id="edge2_Node000001_Node000003" class="edge">
<title>Node1&#45;&gt;Node3</title>
<g id="a_edge2_Node000001_Node000003"><a xlink:title=" ">
<path fill="none" stroke="#63b8ff" d="M61.82,-343.22C68.11,-375.33 92.05,-474.97 154,-523 155.52,-524.18 157.1,-525.29 158.73,-526.34"/>
<polygon fill="#63b8ff" stroke="#63b8ff" points="156.71,-529.23 167.17,-530.92 160.05,-523.08 156.71,-529.23"/>
</a>
</g>
</g>
<!-- Node4 -->
<g id="Node000004" class="node">
<title>Node4</title>
<g id="a_Node000004"><a xlink:href="class_side_bar.html#a784d3c48ee380edca17a40fd5bb34343" target="_top" xlink:title=" ">
<polygon fill="white" stroke="#666666" points="326.38,-514 164.12,-514 164.12,-494 326.38,-494 326.38,-514"/>
<text text-anchor="middle" x="245.25" y="-500.5" font-family="Helvetica,sans-Serif" font-size="10.00">SideBar::getBarracksIconPosition</text>
</a>
</g>
</g>
<!-- Node1&#45;&gt;Node4 -->
<g id="edge3_Node000001_Node000004" class="edge">
<title>Node1&#45;&gt;Node4</title>
<g id="a_edge3_Node000001_Node000004"><a xlink:title=" ">
<path fill="none" stroke="#63b8ff" d="M63.1,-343.12C72.14,-370.75 101.18,-447.91 154,-485 155.82,-486.28 157.7,-487.47 159.65,-488.59"/>
<polygon fill="#63b8ff" stroke="#63b8ff" points="157.88,-491.62 168.4,-492.88 160.96,-485.34 157.88,-491.62"/>
</a>
</g>
</g>
<!-- Node5 -->
<g id="Node000005" class="node">
<title>Node5</title>
<g id="a_Node000005"><a xlink:href="class_side_bar.html#ad1b03caf2f481402bd547db44173741d" target="_top" xlink:title=" ">
<polygon fill="white" stroke="#666666" points="320.75,-476 169.75,-476 169.75,-456 320.75,-456 320.75,-476"/>
<text text-anchor="middle" x="245.25" y="-462.5" font-family="Helvetica,sans-Serif" font-size="10.00">SideBar::getBuggyIconPosition</text>
</a>
</g>
</g>
<!-- Node1&#45;&gt;Node5 -->
<g id="edge4_Node000001_Node000005" class="edge">
<title>Node1&#45;&gt;Node5</title>
<g id="a_edge4_Node000001_Node000005"><a xlink:title=" ">
<path fill="none" stroke="#63b8ff" d="M65.23,-343.16C77.43,-365.8 110.11,-420.43 154,-447 156.46,-448.49 159.01,-449.86 161.64,-451.13"/>
<polygon fill="#63b8ff" stroke="#63b8ff" points="160.11,-454.28 170.69,-454.92 162.82,-447.82 160.11,-454.28"/>
</a>
</g>
</g>
<!-- Node6 -->
<g id="Node000006" class="node">
<title>Node6</title>
<g id="a_Node000006"><a xlink:href="class_side_bar.html#aba78ce197b2069026a62dd77bde88e14" target="_top" xlink:title=" ">
<polygon fill="white" stroke="#666666" points="326.38,-438 164.12,-438 164.12,-418 326.38,-418 326.38,-438"/>
<text text-anchor="middle" x="245.25" y="-424.5" font-family="Helvetica,sans-Serif" font-size="10.00">SideBar::getFirehawkIconPosition</text>
</a>
</g>
</g>
<!-- Node1&#45;&gt;Node6 -->
<g id="edge5_Node000001_Node000006" class="edge">
<title>Node1&#45;&gt;Node6</title>
<g id="a_edge5_Node000001_Node000006"><a xlink:title=" ">
<path fill="none" stroke="#63b8ff" d="M69.59,-343.45C85.46,-360.07 118.94,-392.33 154,-409 157.95,-410.88 162.09,-412.57 166.33,-414.1"/>
<polygon fill="#63b8ff" stroke="#63b8ff" points="165,-417.35 175.59,-417.1 167.16,-410.69 165,-417.35"/>
</a>
</g>
</g>
<!-- Node7 -->
<g id="Node000007" class="node">
<title>Node7</title>
<g id="a_Node000007"><a xlink:href="class_side_bar.html#a122e9445ca95cb0a3fd1ace6c11416ab" target="_top" xlink:title=" ">
<polygon fill="white" stroke="#666666" points="336.5,-400 154,-400 154,-380 336.5,-380 336.5,-400"/>
<text text-anchor="middle" x="245.25" y="-386.5" font-family="Helvetica,sans-Serif" font-size="10.00">SideBar::getHammerHeadIconPosition</text>
</a>
</g>
</g>
<!-- Node1&#45;&gt;Node7 -->
<g id="edge6_Node000001_Node000007" class="edge">
<title>Node1&#45;&gt;Node7</title>
<g id="a_edge6_Node000001_Node000007"><a xlink:title=" ">
<path fill="none" stroke="#63b8ff" d="M82.39,-343.36C101.18,-351.74 128.91,-363.35 154,-371 161.1,-373.16 168.59,-375.17 176.09,-377"/>
<polygon fill="#63b8ff" stroke="#63b8ff" points="175.04,-380.35 185.58,-379.21 176.63,-373.53 175.04,-380.35"/>
</a>
</g>
</g>
<!-- Node8 -->
<g id="Node000008" class="node">
<title>Node8</title>
<g id="a_Node000008"><a xlink:href="class_side_bar.html#a1ecc06b775217732365fbad6f6bbbf62" target="_top" xlink:title=" ">
<polygon fill="white" stroke="#666666" points="327.12,-362 163.38,-362 163.38,-342 327.12,-342 327.12,-362"/>
<text text-anchor="middle" x="245.25" y="-348.5" font-family="Helvetica,sans-Serif" font-size="10.00">SideBar::getHarvesterIconPosition</text>
</a>
</g>
</g>
<!-- Node1&#45;&gt;Node8 -->
<g id="edge7_Node000001_Node000008" class="edge">
<title>Node1&#45;&gt;Node8</title>
<g id="a_edge7_Node000001_Node000008"><a xlink:title=" ">
<path fill="none" stroke="#63b8ff" d="M118.3,-339.01C128.97,-340.11 140.35,-341.29 151.74,-342.46"/>
<polygon fill="#63b8ff" stroke="#63b8ff" points="151.29,-345.93 161.59,-343.48 152.01,-338.97 151.29,-345.93"/>
</a>
</g>
</g>
<!-- Node9 -->
<g id="Node000009" class="node">
<title>Node9</title>
<g id="a_Node000009"><a xlink:href="class_side_bar.html#a8095fb8c494a0830365c243583496ca1" target="_top" xlink:title=" ">
<polygon fill="white" stroke="#666666" points="324.5,-324 166,-324 166,-304 324.5,-304 324.5,-324"/>
<text text-anchor="middle" x="245.25" y="-310.5" font-family="Helvetica,sans-Serif" font-size="10.00">SideBar::getRefineryIconPosition</text>
</a>
</g>
</g>
<!-- Node1&#45;&gt;Node9 -->
<g id="edge8_Node000001_Node000009" class="edge">
<title>Node1&#45;&gt;Node9</title>
<g id="a_edge8_Node000001_Node000009"><a xlink:title=" ">
<path fill="none" stroke="#63b8ff" d="M118.3,-326.99C129.84,-325.8 142.21,-324.52 154.51,-323.25"/>
<polygon fill="#63b8ff" stroke="#63b8ff" points="154.68,-326.75 164.27,-322.25 153.97,-319.79 154.68,-326.75"/>
</a>
</g>
</g>
<!-- Node10 -->
<g id="Node000010" class="node">
<title>Node10</title>
<g id="a_Node000010"><a xlink:href="class_side_bar.html#a9559e88577ccabcd20cbb1c47a6cc1b5" target="_top" xlink:title=" ">
<polygon fill="white" stroke="#666666" points="325.62,-286 164.88,-286 164.88,-266 325.62,-266 325.62,-286"/>
<text text-anchor="middle" x="245.25" y="-272.5" font-family="Helvetica,sans-Serif" font-size="10.00">SideBar::getRiflemanIconPosition</text>
</a>
</g>
</g>
<!-- Node1&#45;&gt;Node10 -->
<g id="edge9_Node000001_Node000010" class="edge">
<title>Node1&#45;&gt;Node10</title>
<g id="a_edge9_Node000001_Node000010"><a xlink:title=" ">
<path fill="none" stroke="#63b8ff" d="M82.39,-322.64C101.18,-314.26 128.91,-302.65 154,-295 161.1,-292.84 168.59,-290.83 176.09,-289"/>
<polygon fill="#63b8ff" stroke="#63b8ff" points="176.63,-292.47 185.58,-286.79 175.04,-285.65 176.63,-292.47"/>
</a>
</g>
</g>
<!-- Node11 -->
<g id="Node000011" class="node">
<title>Node11</title>
<g id="a_Node000011"><a xlink:href="class_side_bar.html#a8cadba8295bec933be8c224461d9d83c" target="_top" xlink:title=" ">
<polygon fill="white" stroke="#666666" points="301.25,-248 189.25,-248 189.25,-228 301.25,-228 301.25,-248"/>
<text text-anchor="middle" x="245.25" y="-234.5" font-family="Helvetica,sans-Serif" font-size="10.00">SideBar::getSellSprite</text>
</a>
</g>
</g>
<!-- Node1&#45;&gt;Node11 -->
<g id="edge10_Node000001_Node000011" class="edge">
<title>Node1&#45;&gt;Node11</title>
<g id="a_edge10_Node000001_Node000011"><a xlink:title=" ">
<path fill="none" stroke="#63b8ff" d="M69.59,-322.55C85.46,-305.93 118.94,-273.67 154,-257 161.54,-253.42 169.76,-250.5 178.05,-248.14"/>
<polygon fill="#63b8ff" stroke="#63b8ff" points="178.69,-251.59 187.5,-245.71 176.94,-244.81 178.69,-251.59"/>
</a>
</g>
</g>
<!-- Node12 -->
<g id="Node000012" class="node">
<title>Node12</title>
<g id="a_Node000012"><a xlink:href="class_side_bar.html#a1fbb645d9d6a779d07fb55a1cef56b4f" target="_top" xlink:title=" ">
<polygon fill="white" stroke="#666666" points="307.62,-210 182.88,-210 182.88,-190 307.62,-190 307.62,-210"/>
<text text-anchor="middle" x="245.25" y="-196.5" font-family="Helvetica,sans-Serif" font-size="10.00">SideBar::getSideBarRect</text>
</a>
</g>
</g>
<!-- Node1&#45;&gt;Node12 -->
<g id="edge11_Node000001_Node000012" class="edge">
<title>Node1&#45;&gt;Node12</title>
<g id="a_edge11_Node000001_Node000012"><a xlink:title=" ">
<path fill="none" stroke="#63b8ff" d="M65.23,-322.84C77.43,-300.2 110.11,-245.57 154,-219 159.53,-215.65 165.56,-212.89 171.79,-210.61"/>
<polygon fill="#63b8ff" stroke="#63b8ff" points="172.52,-214.05 180.98,-207.67 170.39,-207.38 172.52,-214.05"/>
</a>
</g>
</g>
<!-- Node13 -->
<g id="Node000013" class="node">
<title>Node13</title>
<g id="a_Node000013"><a xlink:href="class_side_bar.html#aa20184b6fa227eedb85a17f5013b7868" target="_top" xlink:title=" ">
<polygon fill="white" stroke="#666666" points="331.62,-172 158.88,-172 158.88,-152 331.62,-152 331.62,-172"/>
<text text-anchor="middle" x="245.25" y="-158.5" font-family="Helvetica,sans-Serif" font-size="10.00">SideBar::getTankAuroraIconPosition</text>
</a>
</g>
</g>
<!-- Node1&#45;&gt;Node13 -->
<g id="edge12_Node000001_Node000013" class="edge">
<title>Node1&#45;&gt;Node13</title>
<g id="a_edge12_Node000001_Node000013"><a xlink:title=" ">
<path fill="none" stroke="#63b8ff" d="M63.1,-322.88C72.14,-295.25 101.18,-218.09 154,-181 155.82,-179.72 157.7,-178.53 159.65,-177.41"/>
<polygon fill="#63b8ff" stroke="#63b8ff" points="160.96,-180.66 168.4,-173.12 157.88,-174.38 160.96,-180.66"/>
</a>
</g>
</g>
<!-- Node14 -->
<g id="Node000014" class="node">
<title>Node14</title>
<g id="a_Node000014"><a xlink:href="class_side_bar.html#af2cf493e577385cc8e83bd5b02de4000" target="_top" xlink:title=" ">
<polygon fill="white" stroke="#666666" points="323,-134 167.5,-134 167.5,-114 323,-114 323,-134"/>
<text text-anchor="middle" x="245.25" y="-120.5" font-family="Helvetica,sans-Serif" font-size="10.00">SideBar::getVehicleIconPosition</text>
</a>
</g>
</g>
<!-- Node1&#45;&gt;Node14 -->
<g id="edge13_Node000001_Node000014" class="edge">
<title>Node1&#45;&gt;Node14</title>
<g id="a_edge13_Node000001_Node000014"><a xlink:title=" ">
<path fill="none" stroke="#63b8ff" d="M61.82,-322.78C68.11,-290.67 92.05,-191.03 154,-143 155.52,-141.82 157.1,-140.71 158.73,-139.66"/>
<polygon fill="#63b8ff" stroke="#63b8ff" points="160.05,-142.92 167.17,-135.08 156.71,-136.77 160.05,-142.92"/>
</a>
</g>
</g>
<!-- Node15 -->
<g id="Node000015" class="node">
<title>Node15</title>
<g id="a_Node000015"><a xlink:href="class_g_u_i.html#a1bcc3e44a9aa9708d761049d77ae97d1" target="_top" xlink:title="What &quot;Buttons&quot; suppose to appear when clicking on the building type in gameplay.">
<polygon fill="white" stroke="#666666" points="316.25,-96 174.25,-96 174.25,-76 316.25,-76 316.25,-96"/>
<text text-anchor="middle" x="245.25" y="-82.5" font-family="Helvetica,sans-Serif" font-size="10.00">GUI::handleBuildingSelection</text>
</a>
</g>
</g>
<!-- Node1&#45;&gt;Node15 -->
<g id="edge14_Node000001_Node000015" class="edge">
<title>Node1&#45;&gt;Node15</title>
<g id="a_edge14_Node000001_Node000015"><a xlink:title=" ">
<path fill="none" stroke="#63b8ff" d="M60.91,-322.87C64.69,-286.92 82.56,-164.4 154,-105 157.05,-102.47 160.35,-100.25 163.83,-98.3"/>
<polygon fill="#63b8ff" stroke="#63b8ff" points="165.09,-101.57 172.66,-94.16 162.12,-95.23 165.09,-101.57"/>
</a>
</g>
</g>
<!-- Node16 -->
<g id="Node000016" class="node">
<title>Node16</title>
<g id="a_Node000016"><a xlink:href="class_side_bar.html#a8bfd240baf0383a6fa11822cf1c5776f" target="_top" xlink:title="Adds the buttons for the air units when the aircraft building is clicked on.">
<polygon fill="white" stroke="#666666" points="506.62,-172 373.62,-172 373.62,-152 506.62,-152 506.62,-172"/>
<text text-anchor="middle" x="440.12" y="-158.5" font-family="Helvetica,sans-Serif" font-size="10.00">SideBar::addAirCraftButton</text>
</a>
</g>
</g>
<!-- Node15&#45;&gt;Node16 -->
<g id="edge15_Node000015_Node000016" class="edge">
<title>Node15&#45;&gt;Node16</title>
<g id="a_edge15_Node000015_Node000016"><a xlink:title=" ">
<path fill="none" stroke="#63b8ff" d="M316.3,-96.28C323.35,-98.62 330.21,-101.48 336.5,-105 356.8,-116.36 352.61,-130.94 372.5,-143 374.97,-144.5 377.57,-145.89 380.25,-147.17"/>
<polygon fill="#63b8ff" stroke="#63b8ff" points="378.89,-150.39 389.47,-151.02 381.59,-143.93 378.89,-150.39"/>
</a>
</g>
</g>
<!-- Node17 -->
<g id="Node000017" class="node">
<title>Node17</title>
<g id="a_Node000017"><a xlink:href="class_side_bar.html#a0a755f0ea7a46f3d6f0478b82f3d8ad5" target="_top" xlink:title="Adds the building buttons for the sidebar.">
<polygon fill="white" stroke="#666666" points="507.75,-134 372.5,-134 372.5,-114 507.75,-114 507.75,-134"/>
<text text-anchor="middle" x="440.12" y="-120.5" font-family="Helvetica,sans-Serif" font-size="10.00">SideBar::addBuildingButton</text>
</a>
</g>
</g>
<!-- Node15&#45;&gt;Node17 -->
<g id="edge16_Node000015_Node000017" class="edge">
<title>Node15&#45;&gt;Node17</title>
<g id="a_edge16_Node000015_Node000017"><a xlink:title=" ">
<path fill="none" stroke="#63b8ff" d="M299.46,-96.48C322.86,-101.09 350.55,-106.55 375.07,-111.38"/>
<polygon fill="#63b8ff" stroke="#63b8ff" points="374.11,-114.76 384.6,-113.26 375.46,-107.89 374.11,-114.76"/>
</a>
</g>
</g>
<!-- Node18 -->
<g id="Node000018" class="node">
<title>Node18</title>
<g id="a_Node000018"><a xlink:href="class_side_bar.html#a38a8e07a7b7fd8da23825dd193d659a3" target="_top" xlink:title="Adds the buttons for the infantry when barracks building is clicked on.">
<polygon fill="white" stroke="#666666" points="506.25,-96 374,-96 374,-76 506.25,-76 506.25,-96"/>
<text text-anchor="middle" x="440.12" y="-82.5" font-family="Helvetica,sans-Serif" font-size="10.00">SideBar::addInfantryButton</text>
</a>
</g>
</g>
<!-- Node15&#45;&gt;Node18 -->
<g id="edge17_Node000015_Node000018" class="edge">
<title>Node15&#45;&gt;Node18</title>
<g id="a_edge17_Node000015_Node000018"><a xlink:title=" ">
<path fill="none" stroke="#63b8ff" d="M316.7,-86C331.54,-86 347.26,-86 362.31,-86"/>
<polygon fill="#63b8ff" stroke="#63b8ff" points="362.16,-89.5 372.16,-86 362.16,-82.5 362.16,-89.5"/>
</a>
</g>
</g>
<!-- Node19 -->
<g id="Node000019" class="node">
<title>Node19</title>
<g id="a_Node000019"><a xlink:href="class_side_bar.html#a41846d720598c76c51371c790145a515" target="_top" xlink:title="Adds the buttons for vehicles when the warfactory building is clicked on.">
<polygon fill="white" stroke="#666666" points="506.62,-58 373.62,-58 373.62,-38 506.62,-38 506.62,-58"/>
<text text-anchor="middle" x="440.12" y="-44.5" font-family="Helvetica,sans-Serif" font-size="10.00">SideBar::addVehicleButton</text>
</a>
</g>
</g>
<!-- Node15&#45;&gt;Node19 -->
<g id="edge18_Node000015_Node000019" class="edge">
<title>Node15&#45;&gt;Node19</title>
<g id="a_edge18_Node000015_Node000019"><a xlink:title=" ">
<path fill="none" stroke="#63b8ff" d="M299.46,-75.52C322.86,-70.91 350.55,-65.45 375.07,-60.62"/>
<polygon fill="#63b8ff" stroke="#63b8ff" points="375.46,-64.11 384.6,-58.74 374.11,-57.24 375.46,-64.11"/>
</a>
</g>
</g>
<!-- Node20 -->
<g id="Node000020" class="node">
<title>Node20</title>
<g id="a_Node000020"><a xlink:href="class_side_bar.html#ad45013b35dc68cfc580bc8a35352dd63" target="_top" xlink:title="Just to clear everything.">
<polygon fill="white" stroke="#666666" points="495.75,-20 384.5,-20 384.5,0 495.75,0 495.75,-20"/>
<text text-anchor="middle" x="440.12" y="-6.5" font-family="Helvetica,sans-Serif" font-size="10.00">SideBar::clearButtons</text>
</a>
</g>
</g>
<!-- Node15&#45;&gt;Node20 -->
<g id="edge19_Node000015_Node000020" class="edge">
<title>Node15&#45;&gt;Node20</title>
<g id="a_edge19_Node000015_Node000020"><a xlink:title=" ">
<path fill="none" stroke="#63b8ff" d="M266.86,-75.57C291.54,-63.34 334.33,-42.97 372.5,-29 377.53,-27.16 382.83,-25.38 388.14,-23.71"/>
<polygon fill="#63b8ff" stroke="#63b8ff" points="389.01,-27.1 397.56,-20.85 386.97,-20.4 389.01,-27.1"/>
</a>
</g>
</g>
</g>
</svg>

<g id="navigator" transform="translate(0 0)" fill="#404254">
  <rect fill="#f2f5e9" fill-opacity="0.5" stroke="#606060" stroke-width=".5" x="0" y="0" width="60" height="60"/>
  <use id="zoomplus" xlink:href="#zoomPlus" x="17" y="9" onmousedown="handleZoom(evt,'in')"/>
  <use id="zoomminus" xlink:href="#zoomMin" x="42" y="9" onmousedown="handleZoom(evt,'out')"/>
  <use id="reset" xlink:href="#resetDef" x="30" y="36" onmousedown="handleReset()"/>
   <use id="arrowup" xlink:href="#arrowUp" x="0" y="0" onmousedown="handlePan(0,-1)"/>
  <use id="arrowright" xlink:href="#arrowRight" x="0" y="0" onmousedown="handlePan(1,0)"/>
  <use id="arrowdown" xlink:href="#arrowDown" x="0" y="0" onmousedown="handlePan(0,1)"/>
  <use id="arrowleft" xlink:href="#arrowLeft" x="0" y="0" onmousedown="handlePan(-1,0)"/>
</g>
<svg viewBox="0 0 15 15" width="100%" height="30px" preserveAspectRatio="xMaxYMin meet">
 <g id="arrow_out" transform="scale(0.3 0.3)">
  <a xlink:href="class_g_u_i_a55b453ffb65fc7861cce79d5fea554e7_cgraph_org.svg" target="_base">
   <rect id="button" ry="5" rx="5" y="6" x="6" height="38" width="38"
        fill="#f2f5e9" fill-opacity="0.5" stroke="#606060" stroke-width="1.0"/>
   <path id="arrow"
     d="M 11.500037,31.436501 C 11.940474,20.09759 22.043105,11.32322 32.158766,21.979434 L 37.068811,17.246167 C 37.068811,17.246167 37.088388,32 37.088388,32 L 22.160133,31.978069 C 22.160133,31.978069 26.997745,27.140456 26.997745,27.140456 C 18.528582,18.264221 13.291696,25.230495 11.500037,31.436501 z"
     style="fill:#404040;"/>
  </a>
 </g>
</svg>

<style type='text/css'>
<![CDATA[
[data-mouse-over-selected='false'] { opacity: 0.7; }
[data-mouse-over-selected='true']  { opacity: 1.0; }
]]>
</style>
<script type="application/ecmascript"><![CDATA[
document.addEventListener('DOMContentLoaded', (event) => {
  highlightEdges();
  highlightAdjacentNodes();
});
]]></script>
</svg>
