<?xml version="1.0" encoding="UTF-8" standalone="no"?>
<!DOCTYPE svg PUBLIC "-//W3C//DTD SVG 1.1//EN"
 "http://www.w3.org/Graphics/SVG/1.1/DTD/svg11.dtd">
<!-- Generated by graphviz version 10.0.1 (20240210.2158)
 -->
<!-- Title: Firehawk::update Pages: 1 -->
<svg width="823pt" height="256pt"
 viewBox="0.00 0.00 823.25 256.00" xmlns="http://www.w3.org/2000/svg" xmlns:xlink="http://www.w3.org/1999/xlink">
<g id="graph0" class="graph" transform="scale(1 1) rotate(0) translate(4 252)">
<title>Firehawk::update</title>
<!-- Node1 -->
<g id="Node000001" class="node">
<title>Node1</title>
<g id="a_Node000001"><a xlink:title=" ">
<polygon fill="#999999" stroke="#666666" points="90.25,-124 0,-124 0,-104 90.25,-104 90.25,-124"/>
<text text-anchor="middle" x="45.12" y="-110.5" font-family="Helvetica,sans-Serif" font-size="10.00">Firehawk::update</text>
</a>
</g>
</g>
<!-- Node2 -->
<g id="Node000002" class="node">
<title>Node2</title>
<g id="a_Node000002"><a xlink:href="class_aircraft_unit.html#a383a50ac692f739ef21306ba9860c4e5" target="_top" xlink:title=" ">
<polygon fill="white" stroke="#666666" points="225.5,-124 126.25,-124 126.25,-104 225.5,-104 225.5,-124"/>
<text text-anchor="middle" x="175.88" y="-110.5" font-family="Helvetica,sans-Serif" font-size="10.00">AircraftUnit::update</text>
</a>
</g>
</g>
<!-- Node1&#45;&gt;Node2 -->
<g id="edge1_Node000001_Node000002" class="edge">
<title>Node1&#45;&gt;Node2</title>
<g id="a_edge1_Node000001_Node000002"><a xlink:title=" ">
<path fill="none" stroke="#63b8ff" d="M90.43,-114C98.25,-114 106.49,-114 114.65,-114"/>
<polygon fill="#63b8ff" stroke="#63b8ff" points="114.56,-117.5 124.56,-114 114.56,-110.5 114.56,-117.5"/>
</a>
</g>
</g>
<!-- Node3 -->
<g id="Node000003" class="node">
<title>Node3</title>
<g id="a_Node000003"><a xlink:href="class_unit.html#a1170c0150d547432074d11e0a5896494" target="_top" xlink:title=" ">
<polygon fill="white" stroke="#666666" points="330,-124 261.5,-124 261.5,-104 330,-104 330,-124"/>
<text text-anchor="middle" x="295.75" y="-110.5" font-family="Helvetica,sans-Serif" font-size="10.00">Unit::update</text>
</a>
</g>
</g>
<!-- Node2&#45;&gt;Node3 -->
<g id="edge2_Node000002_Node000003" class="edge">
<title>Node2&#45;&gt;Node3</title>
<g id="a_edge2_Node000002_Node000003"><a xlink:title=" ">
<path fill="none" stroke="#63b8ff" d="M225.84,-114C233.74,-114 241.88,-114 249.68,-114"/>
<polygon fill="#63b8ff" stroke="#63b8ff" points="249.66,-117.5 259.66,-114 249.66,-110.5 249.66,-117.5"/>
</a>
</g>
</g>
<!-- Node4 -->
<g id="Node000004" class="node">
<title>Node4</title>
<g id="a_Node000004"><a xlink:href="class_unit.html#a5a0d56542c689f13276b9db77c1b36d8" target="_top" xlink:title="its to avoid colliding with each other">
<polygon fill="white" stroke="#666666" points="512.88,-181 367.12,-181 367.12,-161 512.88,-161 512.88,-181"/>
<text text-anchor="middle" x="440" y="-167.5" font-family="Helvetica,sans-Serif" font-size="10.00">Unit::avoidCollisionsWithUnits</text>
</a>
</g>
</g>
<!-- Node3&#45;&gt;Node4 -->
<g id="edge3_Node000003_Node000004" class="edge">
<title>Node3&#45;&gt;Node4</title>
<g id="a_edge3_Node000003_Node000004"><a xlink:title=" ">
<path fill="none" stroke="#63b8ff" d="M322.84,-124.45C345.2,-133.41 377.64,-146.41 402.56,-156.4"/>
<polygon fill="#63b8ff" stroke="#63b8ff" points="401.09,-159.58 411.67,-160.05 403.69,-153.08 401.09,-159.58"/>
</a>
</g>
</g>
<!-- Node8 -->
<g id="Node000008" class="node">
<title>Node8</title>
<g id="a_Node000008"><a xlink:href="class_unit.html#ae5032b9bfa0290392ae1a33c2525a18f" target="_top" xlink:title="To avoid walls for units.">
<polygon fill="white" stroke="#666666" points="514,-124 366,-124 366,-104 514,-104 514,-124"/>
<text text-anchor="middle" x="440" y="-110.5" font-family="Helvetica,sans-Serif" font-size="10.00">Unit::avoidCollisionsWithWalls</text>
</a>
</g>
</g>
<!-- Node3&#45;&gt;Node8 -->
<g id="edge7_Node000003_Node000008" class="edge">
<title>Node3&#45;&gt;Node8</title>
<g id="a_edge7_Node000003_Node000008"><a xlink:title=" ">
<path fill="none" stroke="#63b8ff" d="M330.46,-114C337.8,-114 345.89,-114 354.24,-114"/>
<polygon fill="#63b8ff" stroke="#63b8ff" points="354.22,-117.5 364.22,-114 354.22,-110.5 354.22,-117.5"/>
</a>
</g>
</g>
<!-- Node12 -->
<g id="Node000012" class="node">
<title>Node12</title>
<g id="a_Node000012"><a xlink:href="class_particle_system.html#ad395c1ed8a4e35546ab040dc75955732" target="_top" xlink:title=" ">
<polygon fill="white" stroke="#666666" points="499,-86 381,-86 381,-66 499,-66 499,-86"/>
<text text-anchor="middle" x="440" y="-72.5" font-family="Helvetica,sans-Serif" font-size="10.00">ParticleSystem::update</text>
</a>
</g>
</g>
<!-- Node3&#45;&gt;Node12 -->
<g id="edge15_Node000003_Node000012" class="edge">
<title>Node3&#45;&gt;Node12</title>
<g id="a_edge15_Node000003_Node000012"><a xlink:title=" ">
<path fill="none" stroke="#63b8ff" d="M330.19,-104.73C341.55,-101.61 354.32,-98.12 366,-95 372.89,-93.16 380.15,-91.24 387.32,-89.36"/>
<polygon fill="#63b8ff" stroke="#63b8ff" points="388.18,-92.75 396.97,-86.84 386.41,-85.98 388.18,-92.75"/>
</a>
</g>
</g>
<!-- Node5 -->
<g id="Node000005" class="node">
<title>Node5</title>
<g id="a_Node000005"><a xlink:href="class_unit.html#a7101070923fae272f484c94e6455312f" target="_top" xlink:title=" ">
<polygon fill="white" stroke="#666666" points="656.38,-248 580.38,-248 580.38,-228 656.38,-228 656.38,-248"/>
<text text-anchor="middle" x="618.38" y="-234.5" font-family="Helvetica,sans-Serif" font-size="10.00">Unit::distance</text>
</a>
</g>
</g>
<!-- Node4&#45;&gt;Node5 -->
<g id="edge4_Node000004_Node000005" class="edge">
<title>Node4&#45;&gt;Node5</title>
<g id="a_edge4_Node000004_Node000005"><a xlink:title=" ">
<path fill="none" stroke="#63b8ff" d="M466.89,-181.5C488.92,-190.36 521.43,-203.28 550,-214 558.58,-217.22 567.82,-220.58 576.62,-223.73"/>
<polygon fill="#63b8ff" stroke="#63b8ff" points="575.43,-227.02 586.02,-227.07 577.77,-220.43 575.43,-227.02"/>
</a>
</g>
</g>
<!-- Node6 -->
<g id="Node000006" class="node">
<title>Node6</title>
<g id="a_Node000006"><a xlink:href="class_unit.html#aa33e6fe8098210a9aeac019345f8a235" target="_top" xlink:title=" ">
<polygon fill="white" stroke="#666666" points="662.38,-172 574.38,-172 574.38,-152 662.38,-152 662.38,-172"/>
<text text-anchor="middle" x="618.38" y="-158.5" font-family="Helvetica,sans-Serif" font-size="10.00">Unit::getPosition</text>
</a>
</g>
</g>
<!-- Node4&#45;&gt;Node6 -->
<g id="edge5_Node000004_Node000006" class="edge">
<title>Node4&#45;&gt;Node6</title>
<g id="a_edge5_Node000004_Node000006"><a xlink:title=" ">
<path fill="none" stroke="#63b8ff" d="M513.25,-167.31C529.86,-166.47 547.25,-165.58 562.96,-164.78"/>
<polygon fill="#63b8ff" stroke="#63b8ff" points="562.75,-168.29 572.55,-164.29 562.39,-161.3 562.75,-168.29"/>
</a>
</g>
</g>
<!-- Node7 -->
<g id="Node000007" class="node">
<title>Node7</title>
<g id="a_Node000007"><a xlink:href="class_unit.html#a829181674d469a36b7e0a6a975d9f66f" target="_top" xlink:title=" ">
<polygon fill="white" stroke="#666666" points="809.62,-134 728.38,-134 728.38,-114 809.62,-114 809.62,-134"/>
<text text-anchor="middle" x="769" y="-120.5" font-family="Helvetica,sans-Serif" font-size="10.00">Unit::normalize</text>
</a>
</g>
</g>
<!-- Node4&#45;&gt;Node7 -->
<g id="edge6_Node000004_Node000007" class="edge">
<title>Node4&#45;&gt;Node7</title>
<g id="a_edge6_Node000004_Node000007"><a xlink:title=" ">
<path fill="none" stroke="#63b8ff" d="M484.35,-181.48C534.39,-191.61 618.55,-202.54 686.75,-181 711.2,-173.28 734.68,-155.28 750.05,-141.55"/>
<polygon fill="#63b8ff" stroke="#63b8ff" points="752.05,-144.47 757,-135.11 747.29,-139.34 752.05,-144.47"/>
</a>
</g>
</g>
<!-- Node8&#45;&gt;Node6 -->
<g id="edge11_Node000008_Node000006" class="edge">
<title>Node8&#45;&gt;Node6</title>
<g id="a_edge11_Node000008_Node000006"><a xlink:title=" ">
<path fill="none" stroke="#63b8ff" d="M479.27,-124.42C505.3,-131.5 539.98,-140.94 568.07,-148.58"/>
<polygon fill="#63b8ff" stroke="#63b8ff" points="566.85,-151.88 577.41,-151.12 568.68,-145.12 566.85,-151.88"/>
</a>
</g>
</g>
<!-- Node8&#45;&gt;Node7 -->
<g id="edge13_Node000008_Node000007" class="edge">
<title>Node8&#45;&gt;Node7</title>
<g id="a_edge13_Node000008_Node000007"><a xlink:title=" ">
<path fill="none" stroke="#63b8ff" d="M514.39,-116.24C575.96,-118.13 662.34,-120.77 716.71,-122.43"/>
<polygon fill="#63b8ff" stroke="#63b8ff" points="716.53,-125.93 726.63,-122.73 716.74,-118.93 716.53,-125.93"/>
</a>
</g>
</g>
<!-- Node9 -->
<g id="Node000009" class="node">
<title>Node9</title>
<g id="a_Node000009"><a xlink:href="class_unit.html#a42777458d8e2ae32407212027719b6d2" target="_top" xlink:title="This looks for a suitable direction to avoid walls when a direct path is blocked It tries various ang...">
<polygon fill="white" stroke="#666666" points="686.75,-96 550,-96 550,-76 686.75,-76 686.75,-96"/>
<text text-anchor="middle" x="618.38" y="-82.5" font-family="Helvetica,sans-Serif" font-size="10.00">Unit::findAvoidanceDirection</text>
</a>
</g>
</g>
<!-- Node8&#45;&gt;Node9 -->
<g id="edge8_Node000008_Node000009" class="edge">
<title>Node8&#45;&gt;Node9</title>
<g id="a_edge8_Node000008_Node000009"><a xlink:title=" ">
<path fill="none" stroke="#63b8ff" d="M506.93,-103.53C517.67,-101.83 528.89,-100.05 539.89,-98.3"/>
<polygon fill="#63b8ff" stroke="#63b8ff" points="540.41,-101.76 549.74,-96.74 539.31,-94.85 540.41,-101.76"/>
</a>
</g>
</g>
<!-- Node10 -->
<g id="Node000010" class="node">
<title>Node10</title>
<g id="a_Node000010"><a xlink:href="class_unit.html#acabd56084730e0bb32811ab6b7be625a" target="_top" xlink:title=" ">
<polygon fill="white" stroke="#666666" points="815.25,-77 722.75,-77 722.75,-57 815.25,-57 815.25,-77"/>
<text text-anchor="middle" x="769" y="-63.5" font-family="Helvetica,sans-Serif" font-size="10.00">Unit::rotateVector</text>
</a>
</g>
</g>
<!-- Node8&#45;&gt;Node10 -->
<g id="edge14_Node000008_Node000010" class="edge">
<title>Node8&#45;&gt;Node10</title>
<g id="a_edge14_Node000008_Node000010"><a xlink:title=" ">
<path fill="none" stroke="#63b8ff" d="M492.23,-103.51C499.71,-101.17 507.19,-98.36 514,-95 532.18,-86.04 530.83,-73.58 550,-67 602.36,-49.03 666.06,-51.6 711.04,-57.1"/>
<polygon fill="#63b8ff" stroke="#63b8ff" points="710.47,-60.55 720.84,-58.39 711.38,-53.61 710.47,-60.55"/>
</a>
</g>
</g>
<!-- Node11 -->
<g id="Node000011" class="node">
<title>Node11</title>
<g id="a_Node000011"><a xlink:href="class_unit.html#a2ee0326af0abc525deadf772e485f657" target="_top" xlink:title=" ">
<polygon fill="white" stroke="#666666" points="645.88,-20 590.88,-20 590.88,0 645.88,0 645.88,-20"/>
<text text-anchor="middle" x="618.38" y="-6.5" font-family="Helvetica,sans-Serif" font-size="10.00">Unit::lerp</text>
</a>
</g>
</g>
<!-- Node8&#45;&gt;Node11 -->
<g id="edge12_Node000008_Node000011" class="edge">
<title>Node8&#45;&gt;Node11</title>
<g id="a_edge12_Node000008_Node000011"><a xlink:title=" ">
<path fill="none" stroke="#63b8ff" d="M498.81,-103.63C504.22,-101.31 509.4,-98.47 514,-95 539.13,-76.05 525.72,-54.04 550,-34 558.51,-26.98 569.23,-21.94 579.6,-18.35"/>
<polygon fill="#63b8ff" stroke="#63b8ff" points="580.6,-21.71 589.15,-15.45 578.56,-15.01 580.6,-21.71"/>
</a>
</g>
</g>
<!-- Node9&#45;&gt;Node7 -->
<g id="edge9_Node000009_Node000007" class="edge">
<title>Node9&#45;&gt;Node7</title>
<g id="a_edge9_Node000009_Node000007"><a xlink:title=" ">
<path fill="none" stroke="#63b8ff" d="M660.38,-96.48C677.81,-100.94 698.33,-106.19 716.75,-110.9"/>
<polygon fill="#63b8ff" stroke="#63b8ff" points="715.88,-114.29 726.43,-113.37 717.61,-107.5 715.88,-114.29"/>
</a>
</g>
</g>
<!-- Node9&#45;&gt;Node10 -->
<g id="edge10_Node000009_Node000010" class="edge">
<title>Node9&#45;&gt;Node10</title>
<g id="a_edge10_Node000009_Node000010"><a xlink:title=" ">
<path fill="none" stroke="#63b8ff" d="M687.16,-77.33C695.19,-76.31 703.31,-75.27 711.17,-74.27"/>
<polygon fill="#63b8ff" stroke="#63b8ff" points="711.45,-77.76 720.92,-73.02 710.56,-70.81 711.45,-77.76"/>
</a>
</g>
</g>
</g>
</svg>
