<?xml version="1.0" encoding="UTF-8" standalone="no"?>
<!DOCTYPE svg PUBLIC "-//W3C//DTD SVG 1.1//EN"
 "http://www.w3.org/Graphics/SVG/1.1/DTD/svg11.dtd">
<!-- Generated by graphviz version 10.0.1 (20240210.2158)
 -->
<!-- Title: AirCraft Pages: 1 -->
<!--zoomable 809 -->

<svg id="main" version="1.1" xmlns="http://www.w3.org/2000/svg" xmlns:xlink="http://www.w3.org/1999/xlink" xml:space="preserve" onload="init(evt)">
<style type="text/css"><![CDATA[
.node, .edge {opacity: 0.7;}
.node.selected, .edge.selected {opacity: 1;}
.edge:hover path { stroke: red; }
.edge:hover polygon { stroke: red; fill: red; }
]]></style>

<defs>
  <circle id="rim" cx="0" cy="0" r="7"/>
  <circle id="rim2" cx="0" cy="0" r="3.5"/>
  <g id="zoomPlus">
    <use xlink:href="#rim" fill="#404040"><set attributeName="fill" to="#808080" begin="zoomplus.mouseover" end="zoomplus.mouseout"/></use>
    <path d="M-4,0h8M0,-4v8" fill="none" stroke="white" stroke-width="1.5" pointer-events="none"/>
  </g>
  <g id="zoomMin">
    <use xlink:href="#rim" fill="#404040"><set attributeName="fill" to="#808080" begin="zoomminus.mouseover" end="zoomminus.mouseout"/></use>
    <path d="M-4,0h8" fill="none" stroke="white" stroke-width="1.5" pointer-events="none"/>
  </g>
  <g id="arrowUp" transform="translate(30 24)">
    <use xlink:href="#rim"/>
    <path pointer-events="none" fill="none" stroke="white" stroke-width="1.5" d="M0,-3.0v7 M-2.5,-0.5L0,-3.0L2.5,-0.5"/>
  </g>
  <g id="arrowRight" transform="rotate(90) translate(36 -43)">
    <use xlink:href="#rim"/>
    <path pointer-events="none" fill="none" stroke="white" stroke-width="1.5" d="M0,-3.0v7 M-2.5,-0.5L0,-3.0L2.5,-0.5"/>
  </g>
  <g id="arrowDown" transform="rotate(180) translate(-30 -48)">
    <use xlink:href="#rim"/>
    <path pointer-events="none" fill="none" stroke="white" stroke-width="1.5" d="M0,-3.0v7 M-2.5,-0.5L0,-3.0L2.5,-0.5"/>
  </g>
  <g id="arrowLeft" transform="rotate(270) translate(-36 17)">
    <use xlink:href="#rim"/>
    <path pointer-events="none" fill="none" stroke="white" stroke-width="1.5" d="M0,-3.0v7 M-2.5,-0.5L0,-3.0L2.5,-0.5"/>
  </g>
  <g id="resetDef">
    <use xlink:href="#rim2" fill="#404040"><set attributeName="fill" to="#808080" begin="reset.mouseover" end="reset.mouseout"/></use>
  </g>
</defs>
<script type="application/ecmascript">
var viewWidth = 254;
var viewHeight = 809;
var sectionId = 'dynsection-1';
</script>
<script type="application/ecmascript" xlink:href="svg.min.js"/>
<svg id="graph" class="graph">
<g id="viewport">
<title>AirCraft</title>
<!-- Node1 -->
<g id="Node000001" class="node">
<title>Node1</title>
<g id="a_Node000001"><a xlink:title=" ">
<polygon fill="#999999" stroke="none" points="243,-100 3,-100 3,0 243,0 243,-100"/>
<text text-anchor="start" x="106.88" y="-86.5" font-family="Helvetica,sans-Serif" font-size="10.00">AirCraft</text>
<text text-anchor="start" x="121.5" y="-70.5" font-family="Helvetica,sans-Serif" font-size="10.00"> </text>
<text text-anchor="start" x="7" y="-54.5" font-family="Helvetica,sans-Serif" font-size="10.00">+</text>
<text text-anchor="start" x="17" y="-54.5" font-family="Helvetica,sans-Serif" font-size="10.00">AirCraft()</text>
<text text-anchor="start" x="7" y="-38.5" font-family="Helvetica,sans-Serif" font-size="10.00">+</text>
<text text-anchor="start" x="17" y="-38.5" font-family="Helvetica,sans-Serif" font-size="10.00">~AirCraft()</text>
<text text-anchor="start" x="7" y="-22.5" font-family="Helvetica,sans-Serif" font-size="10.00">+</text>
<text text-anchor="start" x="17" y="-22.5" font-family="Helvetica,sans-Serif" font-size="10.00">void update(sf::Time t_deltaTime) override</text>
<text text-anchor="start" x="7" y="-6.5" font-family="Helvetica,sans-Serif" font-size="10.00">+</text>
<text text-anchor="start" x="17" y="-6.5" font-family="Helvetica,sans-Serif" font-size="10.00">void render(sf::RenderWindow &amp;m_window) override</text>
<polygon fill="#666666" stroke="#666666" points="3,-82 3,-82 243,-82 243,-82 3,-82"/>
<polygon fill="#666666" stroke="#666666" points="3,-66 3,-66 243,-66 243,-66 3,-66"/>
<polygon fill="none" stroke="#666666" points="3,0 3,-100 243,-100 243,0 3,0"/>
</a>
</g>
</g>
<!-- Node2 -->
<g id="Node000002" class="node">
<title>Node2</title>
<g id="a_Node000002"><a xlink:href="class_building.html" target="_top" xlink:title=" ">
<polygon fill="white" stroke="none" points="246,-669 0,-669 0,-137 246,-137 246,-669"/>
<text text-anchor="start" x="105.75" y="-655.5" font-family="Helvetica,sans-Serif" font-size="10.00">Building</text>
<text text-anchor="start" x="4.38" y="-639.5" font-family="Helvetica,sans-Serif" font-size="10.00">#</text>
<text text-anchor="start" x="14" y="-639.5" font-family="Helvetica,sans-Serif" font-size="10.00">sf::Texture m_smokeTexture</text>
<text text-anchor="start" x="4.38" y="-623.5" font-family="Helvetica,sans-Serif" font-size="10.00">#</text>
<text text-anchor="start" x="14" y="-623.5" font-family="Helvetica,sans-Serif" font-size="10.00">sf::Vector2f m_position</text>
<text text-anchor="start" x="4.38" y="-607.5" font-family="Helvetica,sans-Serif" font-size="10.00">#</text>
<text text-anchor="start" x="14" y="-607.5" font-family="Helvetica,sans-Serif" font-size="10.00">std::string m_name</text>
<text text-anchor="start" x="4.38" y="-591.5" font-family="Helvetica,sans-Serif" font-size="10.00">#</text>
<text text-anchor="start" x="14" y="-591.5" font-family="Helvetica,sans-Serif" font-size="10.00">sf::Texture m_buildingTexture</text>
<text text-anchor="start" x="4.38" y="-575.5" font-family="Helvetica,sans-Serif" font-size="10.00">#</text>
<text text-anchor="start" x="14" y="-575.5" font-family="Helvetica,sans-Serif" font-size="10.00">sf::Sprite m_buildingSprite</text>
<text text-anchor="start" x="4.38" y="-559.5" font-family="Helvetica,sans-Serif" font-size="10.00">#</text>
<text text-anchor="start" x="14" y="-559.5" font-family="Helvetica,sans-Serif" font-size="10.00">sf::CircleShape m_placementRadius</text>
<text text-anchor="start" x="4.38" y="-543.5" font-family="Helvetica,sans-Serif" font-size="10.00">#</text>
<text text-anchor="start" x="14" y="-543.5" font-family="Helvetica,sans-Serif" font-size="10.00">sf::RectangleShape m_healthBar</text>
<text text-anchor="start" x="4.38" y="-527.5" font-family="Helvetica,sans-Serif" font-size="10.00">#</text>
<text text-anchor="start" x="14" y="-527.5" font-family="Helvetica,sans-Serif" font-size="10.00">sf::RectangleShape m_healthBarBackground</text>
<text text-anchor="start" x="4.38" y="-511.5" font-family="Helvetica,sans-Serif" font-size="10.00">#</text>
<text text-anchor="start" x="14" y="-511.5" font-family="Helvetica,sans-Serif" font-size="10.00">int m_health</text>
<text text-anchor="start" x="4.38" y="-495.5" font-family="Helvetica,sans-Serif" font-size="10.00">#</text>
<text text-anchor="start" x="14" y="-495.5" font-family="Helvetica,sans-Serif" font-size="10.00">int m_maxHealth</text>
<text text-anchor="start" x="4.38" y="-479.5" font-family="Helvetica,sans-Serif" font-size="10.00">#</text>
<text text-anchor="start" x="14" y="-479.5" font-family="Helvetica,sans-Serif" font-size="10.00">int m_cost</text>
<text text-anchor="start" x="4.38" y="-463.5" font-family="Helvetica,sans-Serif" font-size="10.00">#</text>
<text text-anchor="start" x="14" y="-463.5" font-family="Helvetica,sans-Serif" font-size="10.00">BuildingType m_type</text>
<text text-anchor="start" x="4.38" y="-447.5" font-family="Helvetica,sans-Serif" font-size="10.00">#</text>
<text text-anchor="start" x="14" y="-447.5" font-family="Helvetica,sans-Serif" font-size="10.00">bool m_placementRadiusVisible</text>
<text text-anchor="start" x="4" y="-431.5" font-family="Helvetica,sans-Serif" font-size="10.00">+</text>
<text text-anchor="start" x="14" y="-431.5" font-family="Helvetica,sans-Serif" font-size="10.00">Building(BuildingType m_type)</text>
<text text-anchor="start" x="4" y="-415.5" font-family="Helvetica,sans-Serif" font-size="10.00">+</text>
<text text-anchor="start" x="14" y="-415.5" font-family="Helvetica,sans-Serif" font-size="10.00">virtual ~Building()</text>
<text text-anchor="start" x="4" y="-399.5" font-family="Helvetica,sans-Serif" font-size="10.00">+</text>
<text text-anchor="start" x="14" y="-399.5" font-family="Helvetica,sans-Serif" font-size="10.00">virtual void update(sf::Time t_deltaTime)</text>
<text text-anchor="start" x="4" y="-383.5" font-family="Helvetica,sans-Serif" font-size="10.00">+</text>
<text text-anchor="start" x="14" y="-383.5" font-family="Helvetica,sans-Serif" font-size="10.00">virtual void render(sf::RenderWindow &amp;m_window)</text>
<text text-anchor="start" x="4" y="-367.5" font-family="Helvetica,sans-Serif" font-size="10.00">+</text>
<text text-anchor="start" x="14" y="-367.5" font-family="Helvetica,sans-Serif" font-size="10.00">void takeDamage(float m_damageAmount)</text>
<text text-anchor="start" x="4" y="-351.5" font-family="Helvetica,sans-Serif" font-size="10.00">+</text>
<text text-anchor="start" x="14" y="-351.5" font-family="Helvetica,sans-Serif" font-size="10.00">void setPosition(const sf::Vector2f &amp;m_position)</text>
<text text-anchor="start" x="4" y="-335.5" font-family="Helvetica,sans-Serif" font-size="10.00">+</text>
<text text-anchor="start" x="14" y="-335.5" font-family="Helvetica,sans-Serif" font-size="10.00">sf::Vector2f getPosition()</text>
<text text-anchor="start" x="4" y="-319.5" font-family="Helvetica,sans-Serif" font-size="10.00">+</text>
<text text-anchor="start" x="14" y="-319.5" font-family="Helvetica,sans-Serif" font-size="10.00">int getCost() const</text>
<text text-anchor="start" x="4" y="-303.5" font-family="Helvetica,sans-Serif" font-size="10.00">+</text>
<text text-anchor="start" x="14" y="-303.5" font-family="Helvetica,sans-Serif" font-size="10.00">float getHealth() const</text>
<text text-anchor="start" x="4" y="-287.5" font-family="Helvetica,sans-Serif" font-size="10.00">+</text>
<text text-anchor="start" x="14" y="-287.5" font-family="Helvetica,sans-Serif" font-size="10.00">BuildingType getType() const</text>
<text text-anchor="start" x="4" y="-271.5" font-family="Helvetica,sans-Serif" font-size="10.00">+</text>
<text text-anchor="start" x="14" y="-271.5" font-family="Helvetica,sans-Serif" font-size="10.00">bool checkAffordability()</text>
<text text-anchor="start" x="4" y="-255.5" font-family="Helvetica,sans-Serif" font-size="10.00">+</text>
<text text-anchor="start" x="14" y="-255.5" font-family="Helvetica,sans-Serif" font-size="10.00">void setPlacementRadiusSize(float m_radius)</text>
<text text-anchor="start" x="4" y="-239.5" font-family="Helvetica,sans-Serif" font-size="10.00">+</text>
<text text-anchor="start" x="14" y="-239.5" font-family="Helvetica,sans-Serif" font-size="10.00">void setHealth(float newHealth)</text>
<text text-anchor="start" x="4" y="-223.5" font-family="Helvetica,sans-Serif" font-size="10.00">+</text>
<text text-anchor="start" x="14" y="-223.5" font-family="Helvetica,sans-Serif" font-size="10.00">const sf::Sprite &amp; getBuildingSprite() const</text>
<text text-anchor="start" x="4" y="-207.5" font-family="Helvetica,sans-Serif" font-size="10.00">+</text>
<text text-anchor="start" x="14" y="-207.5" font-family="Helvetica,sans-Serif" font-size="10.00">const sf::Texture &amp; getBuildingTexture() const</text>
<text text-anchor="start" x="4" y="-191.5" font-family="Helvetica,sans-Serif" font-size="10.00">+</text>
<text text-anchor="start" x="14" y="-191.5" font-family="Helvetica,sans-Serif" font-size="10.00">const sf::CircleShape &amp; getPlacementRadius() const</text>
<text text-anchor="start" x="4" y="-175.5" font-family="Helvetica,sans-Serif" font-size="10.00">+</text>
<text text-anchor="start" x="14" y="-175.5" font-family="Helvetica,sans-Serif" font-size="10.00">void updateHealthBar()</text>
<text text-anchor="start" x="4.38" y="-159.5" font-family="Helvetica,sans-Serif" font-size="10.00">#</text>
<text text-anchor="start" x="14" y="-159.5" font-family="Helvetica,sans-Serif" font-size="10.00">void initSmokeEffect()</text>
<text text-anchor="start" x="4.38" y="-143.5" font-family="Helvetica,sans-Serif" font-size="10.00">#</text>
<text text-anchor="start" x="14" y="-143.5" font-family="Helvetica,sans-Serif" font-size="10.00">void spawnSmokeEffect()</text>
<polygon fill="#666666" stroke="#666666" points="0,-651 0,-651 246,-651 246,-651 0,-651"/>
<polygon fill="#666666" stroke="#666666" points="0,-443 0,-443 12,-443 12,-443 0,-443"/>
<polygon fill="#666666" stroke="#666666" points="12,-443 12,-443 246,-443 246,-443 12,-443"/>
<polygon fill="none" stroke="#666666" points="0,-137 0,-669 246,-669 246,-137 0,-137"/>
</a>
</g>
</g>
<!-- Node2&#45;&gt;Node1 -->
<g id="edge1_Node000001_Node000002" class="edge">
<title>Node2&#45;&gt;Node1</title>
<g id="a_edge1_Node000001_Node000002"><a xlink:title=" ">
<path fill="none" stroke="#63b8ff" d="M123,-126.1C123,-116.77 123,-108 123,-99.99"/>
<polygon fill="none" stroke="#63b8ff" points="119.5,-125.8 123,-135.8 126.5,-125.8 119.5,-125.8"/>
</a>
</g>
</g>
<!-- Node3 -->
<g id="Node000003" class="node">
<title>Node3</title>
<g id="a_Node000003"><a xlink:href="class_particle_system.html" target="_top" xlink:title=" ">
<polygon fill="white" stroke="none" points="226.5,-801 19.5,-801 19.5,-717 226.5,-717 226.5,-801"/>
<text text-anchor="start" x="89.62" y="-787.5" font-family="Helvetica,sans-Serif" font-size="10.00">ParticleSystem</text>
<text text-anchor="start" x="23.5" y="-771.5" font-family="Helvetica,sans-Serif" font-size="10.00">+</text>
<text text-anchor="start" x="33.5" y="-771.5" font-family="Helvetica,sans-Serif" font-size="10.00">std::vector&lt; Particle &gt; m_particles</text>
<text text-anchor="start" x="23.5" y="-755.5" font-family="Helvetica,sans-Serif" font-size="10.00">+</text>
<text text-anchor="start" x="33.5" y="-755.5" font-family="Helvetica,sans-Serif" font-size="10.00">void update(sf::Time t_deltaTime)</text>
<text text-anchor="start" x="23.5" y="-739.5" font-family="Helvetica,sans-Serif" font-size="10.00">+</text>
<text text-anchor="start" x="33.5" y="-739.5" font-family="Helvetica,sans-Serif" font-size="10.00">void render(sf::RenderWindow &amp;m_window)</text>
<text text-anchor="start" x="23.5" y="-723.5" font-family="Helvetica,sans-Serif" font-size="10.00">+</text>
<text text-anchor="start" x="33.5" y="-723.5" font-family="Helvetica,sans-Serif" font-size="10.00">void addParticle(const Particle &amp;m_particle)</text>
<polygon fill="#666666" stroke="#666666" points="19.5,-783 19.5,-783 226.5,-783 226.5,-783 19.5,-783"/>
<polygon fill="#666666" stroke="#666666" points="19.5,-767 19.5,-767 31.5,-767 31.5,-767 19.5,-767"/>
<polygon fill="#666666" stroke="#666666" points="31.5,-767 31.5,-767 226.5,-767 226.5,-767 31.5,-767"/>
<polygon fill="none" stroke="#666666" points="19.5,-717 19.5,-801 226.5,-801 226.5,-717 19.5,-717"/>
</a>
</g>
</g>
<!-- Node3&#45;&gt;Node2 -->
<g id="edge2_Node000002_Node000003" class="edge">
<title>Node3&#45;&gt;Node2</title>
<g id="a_edge2_Node000002_Node000003"><a xlink:title=" ">
<path fill="none" stroke="#63b8ff" d="M123,-717.05C123,-706.63 123,-694.64 123,-681.54"/>
<polygon fill="none" stroke="#63b8ff" points="123,-681.57 119,-675.57 123,-669.57 127,-675.57 123,-681.57"/>
</a>
</g>
<text text-anchor="middle" x="160.88" y="-689.5" font-family="Helvetica,sans-Serif" font-size="10.00" fill="grey"> #m_smokeEffect</text>
</g>
</g>
</svg>

<g id="navigator" transform="translate(0 0)" fill="#404254">
  <rect fill="#f2f5e9" fill-opacity="0.5" stroke="#606060" stroke-width=".5" x="0" y="0" width="60" height="60"/>
  <use id="zoomplus" xlink:href="#zoomPlus" x="17" y="9" onmousedown="handleZoom(evt,'in')"/>
  <use id="zoomminus" xlink:href="#zoomMin" x="42" y="9" onmousedown="handleZoom(evt,'out')"/>
  <use id="reset" xlink:href="#resetDef" x="30" y="36" onmousedown="handleReset()"/>
   <use id="arrowup" xlink:href="#arrowUp" x="0" y="0" onmousedown="handlePan(0,-1)"/>
  <use id="arrowright" xlink:href="#arrowRight" x="0" y="0" onmousedown="handlePan(1,0)"/>
  <use id="arrowdown" xlink:href="#arrowDown" x="0" y="0" onmousedown="handlePan(0,1)"/>
  <use id="arrowleft" xlink:href="#arrowLeft" x="0" y="0" onmousedown="handlePan(-1,0)"/>
</g>
<svg viewBox="0 0 15 15" width="100%" height="30px" preserveAspectRatio="xMaxYMin meet">
 <g id="arrow_out" transform="scale(0.3 0.3)">
  <a xlink:href="class_air_craft__coll__graph_org.svg" target="_base">
   <rect id="button" ry="5" rx="5" y="6" x="6" height="38" width="38"
        fill="#f2f5e9" fill-opacity="0.5" stroke="#606060" stroke-width="1.0"/>
   <path id="arrow"
     d="M 11.500037,31.436501 C 11.940474,20.09759 22.043105,11.32322 32.158766,21.979434 L 37.068811,17.246167 C 37.068811,17.246167 37.088388,32 37.088388,32 L 22.160133,31.978069 C 22.160133,31.978069 26.997745,27.140456 26.997745,27.140456 C 18.528582,18.264221 13.291696,25.230495 11.500037,31.436501 z"
     style="fill:#404040;"/>
  </a>
 </g>
</svg>

<style type='text/css'>
<![CDATA[
[data-mouse-over-selected='false'] { opacity: 0.7; }
[data-mouse-over-selected='true']  { opacity: 1.0; }
]]>
</style>
<script type="application/ecmascript"><![CDATA[
document.addEventListener('DOMContentLoaded', (event) => {
  highlightEdges();
  highlightAdjacentNodes();
});
]]></script>
</svg>
