<?xml version="1.0" encoding="UTF-8" standalone="no"?>
<!DOCTYPE svg PUBLIC "-//W3C//DTD SVG 1.1//EN"
 "http://www.w3.org/Graphics/SVG/1.1/DTD/svg11.dtd">
<!-- Generated by graphviz version 10.0.1 (20240210.2158)
 -->
<!-- Title: WarFactory::render Pages: 1 -->
<svg width="379pt" height="28pt"
 viewBox="0.00 0.00 379.25 28.00" xmlns="http://www.w3.org/2000/svg" xmlns:xlink="http://www.w3.org/1999/xlink">
<g id="graph0" class="graph" transform="scale(1 1) rotate(0) translate(4 24)">
<title>WarFactory::render</title>
<!-- Node1 -->
<g id="Node000001" class="node">
<title>Node1</title>
<g id="a_Node000001"><a xlink:title=" ">
<polygon fill="#999999" stroke="#666666" points="100,-20 0,-20 0,0 100,0 100,-20"/>
<text text-anchor="middle" x="50" y="-6.5" font-family="Helvetica,sans-Serif" font-size="10.00">WarFactory::render</text>
</a>
</g>
</g>
<!-- Node2 -->
<g id="Node000002" class="node">
<title>Node2</title>
<g id="a_Node000002"><a xlink:href="class_building.html#a17f70ec3c6e96f935fa63fa4108901a2" target="_top" xlink:title=" ">
<polygon fill="white" stroke="#666666" points="219.5,-20 136,-20 136,0 219.5,0 219.5,-20"/>
<text text-anchor="middle" x="177.75" y="-6.5" font-family="Helvetica,sans-Serif" font-size="10.00">Building::render</text>
</a>
</g>
</g>
<!-- Node1&#45;&gt;Node2 -->
<g id="edge1_Node000001_Node000002" class="edge">
<title>Node1&#45;&gt;Node2</title>
<g id="a_edge1_Node000001_Node000002"><a xlink:title=" ">
<path fill="none" stroke="#63b8ff" d="M100.34,-10C108.2,-10 116.35,-10 124.28,-10"/>
<polygon fill="#63b8ff" stroke="#63b8ff" points="124.16,-13.5 134.16,-10 124.16,-6.5 124.16,-13.5"/>
</a>
</g>
</g>
<!-- Node3 -->
<g id="Node000003" class="node">
<title>Node3</title>
<g id="a_Node000003"><a xlink:href="class_particle_system.html#a12f342988eeb7d9ac023e279b8b9dd8c" target="_top" xlink:title="Renders the particles into existence.">
<polygon fill="white" stroke="#666666" points="371.25,-20 255.5,-20 255.5,0 371.25,0 371.25,-20"/>
<text text-anchor="middle" x="313.38" y="-6.5" font-family="Helvetica,sans-Serif" font-size="10.00">ParticleSystem::render</text>
</a>
</g>
</g>
<!-- Node2&#45;&gt;Node3 -->
<g id="edge2_Node000002_Node000003" class="edge">
<title>Node2&#45;&gt;Node3</title>
<g id="a_edge2_Node000002_Node000003"><a xlink:title=" ">
<path fill="none" stroke="#63b8ff" d="M219.93,-10C227.63,-10 235.86,-10 244.12,-10"/>
<polygon fill="#63b8ff" stroke="#63b8ff" points="243.85,-13.5 253.85,-10 243.85,-6.5 243.85,-13.5"/>
</a>
</g>
</g>
</g>
</svg>
