<?xml version="1.0" encoding="UTF-8" standalone="no"?>
<!DOCTYPE svg PUBLIC "-//W3C//DTD SVG 1.1//EN"
 "http://www.w3.org/Graphics/SVG/1.1/DTD/svg11.dtd">
<!-- Generated by graphviz version 10.0.1 (20240210.2158)
 -->
<!-- Title: Unit::Unit Pages: 1 -->
<svg width="195pt" height="104pt"
 viewBox="0.00 0.00 195.25 104.00" xmlns="http://www.w3.org/2000/svg" xmlns:xlink="http://www.w3.org/1999/xlink">
<g id="graph0" class="graph" transform="scale(1 1) rotate(0) translate(4 100)">
<title>Unit::Unit</title>
<!-- Node1 -->
<g id="Node000001" class="node">
<title>Node1</title>
<g id="a_Node000001"><a xlink:title=" ">
<polygon fill="#999999" stroke="#666666" points="56.5,-58 0,-58 0,-38 56.5,-38 56.5,-58"/>
<text text-anchor="middle" x="28.25" y="-44.5" font-family="Helvetica,sans-Serif" font-size="10.00">Unit::Unit</text>
</a>
</g>
</g>
<!-- Node2 -->
<g id="Node000002" class="node">
<title>Node2</title>
<g id="a_Node000002"><a xlink:href="class_unit.html#aa9c0487be6bedf93c5f79e068f215be6" target="_top" xlink:title="initializes health bar">
<polygon fill="white" stroke="#666666" points="187.25,-96 92.5,-96 92.5,-76 187.25,-76 187.25,-96"/>
<text text-anchor="middle" x="139.88" y="-82.5" font-family="Helvetica,sans-Serif" font-size="10.00">Unit::initHealthBar</text>
</a>
</g>
</g>
<!-- Node1&#45;&gt;Node2 -->
<g id="edge1_Node000001_Node000002" class="edge">
<title>Node1&#45;&gt;Node2</title>
<g id="a_edge1_Node000001_Node000002"><a xlink:title=" ">
<path fill="none" stroke="#63b8ff" d="M56.91,-57.59C69.43,-61.93 84.46,-67.14 98.22,-71.91"/>
<polygon fill="#63b8ff" stroke="#63b8ff" points="96.89,-75.15 107.48,-75.12 99.18,-68.54 96.89,-75.15"/>
</a>
</g>
</g>
<!-- Node3 -->
<g id="Node000003" class="node">
<title>Node3</title>
<g id="a_Node000003"><a xlink:href="class_unit.html#a64e556f3bd178fcbfece63883b990153" target="_top" xlink:title="initializes shaders">
<polygon fill="white" stroke="#666666" points="181.25,-58 98.5,-58 98.5,-38 181.25,-38 181.25,-58"/>
<text text-anchor="middle" x="139.88" y="-44.5" font-family="Helvetica,sans-Serif" font-size="10.00">Unit::initShader</text>
</a>
</g>
</g>
<!-- Node1&#45;&gt;Node3 -->
<g id="edge2_Node000001_Node000003" class="edge">
<title>Node1&#45;&gt;Node3</title>
<g id="a_edge2_Node000001_Node000003"><a xlink:title=" ">
<path fill="none" stroke="#63b8ff" d="M56.91,-48C66.14,-48 76.73,-48 87.17,-48"/>
<polygon fill="#63b8ff" stroke="#63b8ff" points="86.86,-51.5 96.86,-48 86.86,-44.5 86.86,-51.5"/>
</a>
</g>
</g>
<!-- Node4 -->
<g id="Node000004" class="node">
<title>Node4</title>
<g id="a_Node000004"><a xlink:href="class_unit.html#a6b409acedf32f53bb1c080cf29c8e999" target="_top" xlink:title="initializes view">
<polygon fill="white" stroke="#666666" points="176.38,-20 103.38,-20 103.38,0 176.38,0 176.38,-20"/>
<text text-anchor="middle" x="139.88" y="-6.5" font-family="Helvetica,sans-Serif" font-size="10.00">Unit::initView</text>
</a>
</g>
</g>
<!-- Node1&#45;&gt;Node4 -->
<g id="edge3_Node000001_Node000004" class="edge">
<title>Node1&#45;&gt;Node4</title>
<g id="a_edge3_Node000001_Node000004"><a xlink:title=" ">
<path fill="none" stroke="#63b8ff" d="M56.91,-38.41C69.43,-34.07 84.46,-28.86 98.22,-24.09"/>
<polygon fill="#63b8ff" stroke="#63b8ff" points="99.18,-27.46 107.48,-20.88 96.89,-20.85 99.18,-27.46"/>
</a>
</g>
</g>
</g>
</svg>
