<?xml version="1.0" encoding="UTF-8" standalone="no"?>
<!DOCTYPE svg PUBLIC "-//W3C//DTD SVG 1.1//EN"
 "http://www.w3.org/Graphics/SVG/1.1/DTD/svg11.dtd">
<!-- Generated by graphviz version 10.0.1 (20240210.2158)
 -->
<!-- Title: Unit::orientSpriteToMovement Pages: 1 -->
<svg width="272pt" height="66pt"
 viewBox="0.00 0.00 271.75 66.00" xmlns="http://www.w3.org/2000/svg" xmlns:xlink="http://www.w3.org/1999/xlink">
<g id="graph0" class="graph" transform="scale(1 1) rotate(0) translate(4 62)">
<title>Unit::orientSpriteToMovement</title>
<!-- Node1 -->
<g id="Node000001" class="node">
<title>Node1</title>
<g id="a_Node000001"><a xlink:title="it just orientates the sprite a bit">
<polygon fill="#999999" stroke="#666666" points="143.5,-39 0,-39 0,-19 143.5,-19 143.5,-39"/>
<text text-anchor="middle" x="71.75" y="-25.5" font-family="Helvetica,sans-Serif" font-size="10.00">Unit::orientSpriteToMovement</text>
</a>
</g>
</g>
<!-- Node2 -->
<g id="Node000002" class="node">
<title>Node2</title>
<g id="a_Node000002"><a xlink:href="class_unit.html#a90612b354704a618a5647ec4742b427b" target="_top" xlink:title=" ">
<polygon fill="white" stroke="#666666" points="263.75,-58 179.5,-58 179.5,-38 263.75,-38 263.75,-58"/>
<text text-anchor="middle" x="221.62" y="-44.5" font-family="Helvetica,sans-Serif" font-size="10.00">Unit::magnitude</text>
</a>
</g>
</g>
<!-- Node1&#45;&gt;Node2 -->
<g id="edge1_Node000001_Node000002" class="edge">
<title>Node1&#45;&gt;Node2</title>
<g id="a_edge1_Node000001_Node000002"><a xlink:title=" ">
<path fill="none" stroke="#63b8ff" d="M143.66,-38.11C151.82,-39.16 160.04,-40.22 167.91,-41.23"/>
<polygon fill="#63b8ff" stroke="#63b8ff" points="167.27,-44.67 177.63,-42.48 168.16,-37.73 167.27,-44.67"/>
</a>
</g>
</g>
<!-- Node3 -->
<g id="Node000003" class="node">
<title>Node3</title>
<g id="a_Node000003"><a xlink:href="class_unit.html#a1eb792473a50b709972cf726a693186b" target="_top" xlink:title=" ">
<polygon fill="white" stroke="#666666" points="263.38,-20 179.88,-20 179.88,0 263.38,0 263.38,-20"/>
<text text-anchor="middle" x="221.62" y="-6.5" font-family="Helvetica,sans-Serif" font-size="10.00">Unit::toDegrees</text>
</a>
</g>
</g>
<!-- Node1&#45;&gt;Node3 -->
<g id="edge2_Node000001_Node000003" class="edge">
<title>Node1&#45;&gt;Node3</title>
<g id="a_edge2_Node000001_Node000003"><a xlink:title=" ">
<path fill="none" stroke="#63b8ff" d="M143.66,-19.89C151.92,-18.83 160.24,-17.76 168.19,-16.74"/>
<polygon fill="#63b8ff" stroke="#63b8ff" points="168.57,-20.22 178.04,-15.47 167.67,-13.27 168.57,-20.22"/>
</a>
</g>
</g>
</g>
</svg>
