<?xml version="1.0" encoding="UTF-8" standalone="no"?>
<!DOCTYPE svg PUBLIC "-//W3C//DTD SVG 1.1//EN"
 "http://www.w3.org/Graphics/SVG/1.1/DTD/svg11.dtd">
<!-- Generated by graphviz version 10.0.1 (20240210.2158)
 -->
<!-- Title: SoundManager::getInstance Pages: 1 -->
<svg width="327pt" height="66pt"
 viewBox="0.00 0.00 327.25 66.00" xmlns="http://www.w3.org/2000/svg" xmlns:xlink="http://www.w3.org/1999/xlink">
<g id="graph0" class="graph" transform="scale(1 1) rotate(0) translate(4 62)">
<title>SoundManager::getInstance</title>
<!-- Node1 -->
<g id="Node000001" class="node">
<title>Node1</title>
<g id="a_Node000001"><a xlink:title=" ">
<polygon fill="#999999" stroke="#666666" points="319.25,-39 181.75,-39 181.75,-19 319.25,-19 319.25,-39"/>
<text text-anchor="middle" x="250.5" y="-25.5" font-family="Helvetica,sans-Serif" font-size="10.00">SoundManager::getInstance</text>
</a>
</g>
</g>
<!-- Node2 -->
<g id="Node000002" class="node">
<title>Node2</title>
<g id="a_Node000002"><a xlink:href="class_main_menu.html#a21a5eef38283b271749a28bc954fbddd" target="_top" xlink:title="handles the button presses">
<polygon fill="white" stroke="#666666" points="145.75,-58 0,-58 0,-38 145.75,-38 145.75,-58"/>
<text text-anchor="middle" x="72.88" y="-44.5" font-family="Helvetica,sans-Serif" font-size="10.00">MainMenu::handleButtonClick</text>
</a>
</g>
</g>
<!-- Node1&#45;&gt;Node2 -->
<g id="edge1_Node000001_Node000002" class="edge">
<title>Node1&#45;&gt;Node2</title>
<g id="a_edge1_Node000001_Node000002"><a xlink:title=" ">
<path fill="none" stroke="#63b8ff" d="M170.11,-37.59C162.1,-38.46 153.99,-39.33 146.06,-40.19"/>
<polygon fill="#63b8ff" stroke="#63b8ff" points="170.28,-41.09 179.84,-36.54 169.52,-34.13 170.28,-41.09"/>
</a>
</g>
</g>
<!-- Node3 -->
<g id="Node000003" class="node">
<title>Node3</title>
<g id="a_Node000003"><a xlink:href="class_main_menu.html#a53eecf9d5ffd094f54ac4193e7e57eaf" target="_top" xlink:title=" ">
<polygon fill="white" stroke="#666666" points="128.88,-20 16.88,-20 16.88,0 128.88,0 128.88,-20"/>
<text text-anchor="middle" x="72.88" y="-6.5" font-family="Helvetica,sans-Serif" font-size="10.00">MainMenu::MainMenu</text>
</a>
</g>
</g>
<!-- Node1&#45;&gt;Node3 -->
<g id="edge2_Node000001_Node000003" class="edge">
<title>Node1&#45;&gt;Node3</title>
<g id="a_edge2_Node000001_Node000003"><a xlink:title=" ">
<path fill="none" stroke="#63b8ff" d="M170.31,-20.43C156.44,-18.93 142.27,-17.4 129.22,-15.99"/>
<polygon fill="#63b8ff" stroke="#63b8ff" points="169.52,-23.87 179.84,-21.46 170.28,-16.91 169.52,-23.87"/>
</a>
</g>
</g>
</g>
</svg>
