<?xml version="1.0" encoding="UTF-8" standalone="no"?>
<!DOCTYPE svg PUBLIC "-//W3C//DTD SVG 1.1//EN"
 "http://www.w3.org/Graphics/SVG/1.1/DTD/svg11.dtd">
<!-- Generated by graphviz version 10.0.1 (20240210.2158)
 -->
<!-- Title: Barracks Pages: 1 -->
<svg width="254pt" height="809pt"
 viewBox="0.00 0.00 254.00 809.00" xmlns="http://www.w3.org/2000/svg" xmlns:xlink="http://www.w3.org/1999/xlink">
<g id="graph0" class="graph" transform="scale(1 1) rotate(0) translate(4 805)">
<title>Barracks</title>
<!-- Node1 -->
<g id="Node000001" class="node">
<title>Node1</title>
<g id="a_Node000001"><a xlink:title=" ">
<polygon fill="#999999" stroke="none" points="243,-100 3,-100 3,0 243,0 243,-100"/>
<text text-anchor="start" x="103.5" y="-86.5" font-family="Helvetica,sans-Serif" font-size="10.00">Barracks</text>
<text text-anchor="start" x="121.5" y="-70.5" font-family="Helvetica,sans-Serif" font-size="10.00"> </text>
<text text-anchor="start" x="7" y="-54.5" font-family="Helvetica,sans-Serif" font-size="10.00">+</text>
<text text-anchor="start" x="17" y="-54.5" font-family="Helvetica,sans-Serif" font-size="10.00">Barracks()</text>
<text text-anchor="start" x="7" y="-38.5" font-family="Helvetica,sans-Serif" font-size="10.00">+</text>
<text text-anchor="start" x="17" y="-38.5" font-family="Helvetica,sans-Serif" font-size="10.00">~Barracks()</text>
<text text-anchor="start" x="7" y="-22.5" font-family="Helvetica,sans-Serif" font-size="10.00">+</text>
<text text-anchor="start" x="17" y="-22.5" font-family="Helvetica,sans-Serif" font-size="10.00">void update(sf::Time t_deltaTime) override</text>
<text text-anchor="start" x="7" y="-6.5" font-family="Helvetica,sans-Serif" font-size="10.00">+</text>
<text text-anchor="start" x="17" y="-6.5" font-family="Helvetica,sans-Serif" font-size="10.00">void render(sf::RenderWindow &amp;m_window) override</text>
<polygon fill="#666666" stroke="#666666" points="3,-82 3,-82 243,-82 243,-82 3,-82"/>
<polygon fill="#666666" stroke="#666666" points="3,-66 3,-66 243,-66 243,-66 3,-66"/>
<polygon fill="none" stroke="#666666" points="3,0 3,-100 243,-100 243,0 3,0"/>
</a>
</g>
</g>
<!-- Node2 -->
<g id="Node000002" class="node">
<title>Node2</title>
<g id="a_Node000002"><a xlink:href="class_building.html" target="_top" xlink:title=" ">
<polygon fill="white" stroke="none" points="246,-669 0,-669 0,-137 246,-137 246,-669"/>
<text text-anchor="start" x="105.75" y="-655.5" font-family="Helvetica,sans-Serif" font-size="10.00">Building</text>
<text text-anchor="start" x="4.38" y="-639.5" font-family="Helvetica,sans-Serif" font-size="10.00">#</text>
<text text-anchor="start" x="14" y="-639.5" font-family="Helvetica,sans-Serif" font-size="10.00">sf::Texture m_smokeTexture</text>
<text text-anchor="start" x="4.38" y="-623.5" font-family="Helvetica,sans-Serif" font-size="10.00">#</text>
<text text-anchor="start" x="14" y="-623.5" font-family="Helvetica,sans-Serif" font-size="10.00">sf::Vector2f m_position</text>
<text text-anchor="start" x="4.38" y="-607.5" font-family="Helvetica,sans-Serif" font-size="10.00">#</text>
<text text-anchor="start" x="14" y="-607.5" font-family="Helvetica,sans-Serif" font-size="10.00">std::string m_name</text>
<text text-anchor="start" x="4.38" y="-591.5" font-family="Helvetica,sans-Serif" font-size="10.00">#</text>
<text text-anchor="start" x="14" y="-591.5" font-family="Helvetica,sans-Serif" font-size="10.00">sf::Texture m_buildingTexture</text>
<text text-anchor="start" x="4.38" y="-575.5" font-family="Helvetica,sans-Serif" font-size="10.00">#</text>
<text text-anchor="start" x="14" y="-575.5" font-family="Helvetica,sans-Serif" font-size="10.00">sf::Sprite m_buildingSprite</text>
<text text-anchor="start" x="4.38" y="-559.5" font-family="Helvetica,sans-Serif" font-size="10.00">#</text>
<text text-anchor="start" x="14" y="-559.5" font-family="Helvetica,sans-Serif" font-size="10.00">sf::CircleShape m_placementRadius</text>
<text text-anchor="start" x="4.38" y="-543.5" font-family="Helvetica,sans-Serif" font-size="10.00">#</text>
<text text-anchor="start" x="14" y="-543.5" font-family="Helvetica,sans-Serif" font-size="10.00">sf::RectangleShape m_healthBar</text>
<text text-anchor="start" x="4.38" y="-527.5" font-family="Helvetica,sans-Serif" font-size="10.00">#</text>
<text text-anchor="start" x="14" y="-527.5" font-family="Helvetica,sans-Serif" font-size="10.00">sf::RectangleShape m_healthBarBackground</text>
<text text-anchor="start" x="4.38" y="-511.5" font-family="Helvetica,sans-Serif" font-size="10.00">#</text>
<text text-anchor="start" x="14" y="-511.5" font-family="Helvetica,sans-Serif" font-size="10.00">int m_health</text>
<text text-anchor="start" x="4.38" y="-495.5" font-family="Helvetica,sans-Serif" font-size="10.00">#</text>
<text text-anchor="start" x="14" y="-495.5" font-family="Helvetica,sans-Serif" font-size="10.00">int m_maxHealth</text>
<text text-anchor="start" x="4.38" y="-479.5" font-family="Helvetica,sans-Serif" font-size="10.00">#</text>
<text text-anchor="start" x="14" y="-479.5" font-family="Helvetica,sans-Serif" font-size="10.00">int m_cost</text>
<text text-anchor="start" x="4.38" y="-463.5" font-family="Helvetica,sans-Serif" font-size="10.00">#</text>
<text text-anchor="start" x="14" y="-463.5" font-family="Helvetica,sans-Serif" font-size="10.00">BuildingType m_type</text>
<text text-anchor="start" x="4.38" y="-447.5" font-family="Helvetica,sans-Serif" font-size="10.00">#</text>
<text text-anchor="start" x="14" y="-447.5" font-family="Helvetica,sans-Serif" font-size="10.00">bool m_placementRadiusVisible</text>
<text text-anchor="start" x="4" y="-431.5" font-family="Helvetica,sans-Serif" font-size="10.00">+</text>
<text text-anchor="start" x="14" y="-431.5" font-family="Helvetica,sans-Serif" font-size="10.00">Building(BuildingType m_type)</text>
<text text-anchor="start" x="4" y="-415.5" font-family="Helvetica,sans-Serif" font-size="10.00">+</text>
<text text-anchor="start" x="14" y="-415.5" font-family="Helvetica,sans-Serif" font-size="10.00">virtual ~Building()</text>
<text text-anchor="start" x="4" y="-399.5" font-family="Helvetica,sans-Serif" font-size="10.00">+</text>
<text text-anchor="start" x="14" y="-399.5" font-family="Helvetica,sans-Serif" font-size="10.00">virtual void update(sf::Time t_deltaTime)</text>
<text text-anchor="start" x="4" y="-383.5" font-family="Helvetica,sans-Serif" font-size="10.00">+</text>
<text text-anchor="start" x="14" y="-383.5" font-family="Helvetica,sans-Serif" font-size="10.00">virtual void render(sf::RenderWindow &amp;m_window)</text>
<text text-anchor="start" x="4" y="-367.5" font-family="Helvetica,sans-Serif" font-size="10.00">+</text>
<text text-anchor="start" x="14" y="-367.5" font-family="Helvetica,sans-Serif" font-size="10.00">void takeDamage(float m_damageAmount)</text>
<text text-anchor="start" x="4" y="-351.5" font-family="Helvetica,sans-Serif" font-size="10.00">+</text>
<text text-anchor="start" x="14" y="-351.5" font-family="Helvetica,sans-Serif" font-size="10.00">void setPosition(const sf::Vector2f &amp;m_position)</text>
<text text-anchor="start" x="4" y="-335.5" font-family="Helvetica,sans-Serif" font-size="10.00">+</text>
<text text-anchor="start" x="14" y="-335.5" font-family="Helvetica,sans-Serif" font-size="10.00">sf::Vector2f getPosition()</text>
<text text-anchor="start" x="4" y="-319.5" font-family="Helvetica,sans-Serif" font-size="10.00">+</text>
<text text-anchor="start" x="14" y="-319.5" font-family="Helvetica,sans-Serif" font-size="10.00">int getCost() const</text>
<text text-anchor="start" x="4" y="-303.5" font-family="Helvetica,sans-Serif" font-size="10.00">+</text>
<text text-anchor="start" x="14" y="-303.5" font-family="Helvetica,sans-Serif" font-size="10.00">float getHealth() const</text>
<text text-anchor="start" x="4" y="-287.5" font-family="Helvetica,sans-Serif" font-size="10.00">+</text>
<text text-anchor="start" x="14" y="-287.5" font-family="Helvetica,sans-Serif" font-size="10.00">BuildingType getType() const</text>
<text text-anchor="start" x="4" y="-271.5" font-family="Helvetica,sans-Serif" font-size="10.00">+</text>
<text text-anchor="start" x="14" y="-271.5" font-family="Helvetica,sans-Serif" font-size="10.00">bool checkAffordability()</text>
<text text-anchor="start" x="4" y="-255.5" font-family="Helvetica,sans-Serif" font-size="10.00">+</text>
<text text-anchor="start" x="14" y="-255.5" font-family="Helvetica,sans-Serif" font-size="10.00">void setPlacementRadiusSize(float m_radius)</text>
<text text-anchor="start" x="4" y="-239.5" font-family="Helvetica,sans-Serif" font-size="10.00">+</text>
<text text-anchor="start" x="14" y="-239.5" font-family="Helvetica,sans-Serif" font-size="10.00">void setHealth(float newHealth)</text>
<text text-anchor="start" x="4" y="-223.5" font-family="Helvetica,sans-Serif" font-size="10.00">+</text>
<text text-anchor="start" x="14" y="-223.5" font-family="Helvetica,sans-Serif" font-size="10.00">const sf::Sprite &amp; getBuildingSprite() const</text>
<text text-anchor="start" x="4" y="-207.5" font-family="Helvetica,sans-Serif" font-size="10.00">+</text>
<text text-anchor="start" x="14" y="-207.5" font-family="Helvetica,sans-Serif" font-size="10.00">const sf::Texture &amp; getBuildingTexture() const</text>
<text text-anchor="start" x="4" y="-191.5" font-family="Helvetica,sans-Serif" font-size="10.00">+</text>
<text text-anchor="start" x="14" y="-191.5" font-family="Helvetica,sans-Serif" font-size="10.00">const sf::CircleShape &amp; getPlacementRadius() const</text>
<text text-anchor="start" x="4" y="-175.5" font-family="Helvetica,sans-Serif" font-size="10.00">+</text>
<text text-anchor="start" x="14" y="-175.5" font-family="Helvetica,sans-Serif" font-size="10.00">void updateHealthBar()</text>
<text text-anchor="start" x="4.38" y="-159.5" font-family="Helvetica,sans-Serif" font-size="10.00">#</text>
<text text-anchor="start" x="14" y="-159.5" font-family="Helvetica,sans-Serif" font-size="10.00">void initSmokeEffect()</text>
<text text-anchor="start" x="4.38" y="-143.5" font-family="Helvetica,sans-Serif" font-size="10.00">#</text>
<text text-anchor="start" x="14" y="-143.5" font-family="Helvetica,sans-Serif" font-size="10.00">void spawnSmokeEffect()</text>
<polygon fill="#666666" stroke="#666666" points="0,-651 0,-651 246,-651 246,-651 0,-651"/>
<polygon fill="#666666" stroke="#666666" points="0,-443 0,-443 12,-443 12,-443 0,-443"/>
<polygon fill="#666666" stroke="#666666" points="12,-443 12,-443 246,-443 246,-443 12,-443"/>
<polygon fill="none" stroke="#666666" points="0,-137 0,-669 246,-669 246,-137 0,-137"/>
</a>
</g>
</g>
<!-- Node2&#45;&gt;Node1 -->
<g id="edge1_Node000001_Node000002" class="edge">
<title>Node2&#45;&gt;Node1</title>
<g id="a_edge1_Node000001_Node000002"><a xlink:title=" ">
<path fill="none" stroke="#63b8ff" d="M123,-126.1C123,-116.77 123,-108 123,-99.99"/>
<polygon fill="none" stroke="#63b8ff" points="119.5,-125.8 123,-135.8 126.5,-125.8 119.5,-125.8"/>
</a>
</g>
</g>
<!-- Node3 -->
<g id="Node000003" class="node">
<title>Node3</title>
<g id="a_Node000003"><a xlink:href="class_particle_system.html" target="_top" xlink:title=" ">
<polygon fill="white" stroke="none" points="226.5,-801 19.5,-801 19.5,-717 226.5,-717 226.5,-801"/>
<text text-anchor="start" x="89.62" y="-787.5" font-family="Helvetica,sans-Serif" font-size="10.00">ParticleSystem</text>
<text text-anchor="start" x="23.5" y="-771.5" font-family="Helvetica,sans-Serif" font-size="10.00">+</text>
<text text-anchor="start" x="33.5" y="-771.5" font-family="Helvetica,sans-Serif" font-size="10.00">std::vector&lt; Particle &gt; m_particles</text>
<text text-anchor="start" x="23.5" y="-755.5" font-family="Helvetica,sans-Serif" font-size="10.00">+</text>
<text text-anchor="start" x="33.5" y="-755.5" font-family="Helvetica,sans-Serif" font-size="10.00">void update(sf::Time t_deltaTime)</text>
<text text-anchor="start" x="23.5" y="-739.5" font-family="Helvetica,sans-Serif" font-size="10.00">+</text>
<text text-anchor="start" x="33.5" y="-739.5" font-family="Helvetica,sans-Serif" font-size="10.00">void render(sf::RenderWindow &amp;m_window)</text>
<text text-anchor="start" x="23.5" y="-723.5" font-family="Helvetica,sans-Serif" font-size="10.00">+</text>
<text text-anchor="start" x="33.5" y="-723.5" font-family="Helvetica,sans-Serif" font-size="10.00">void addParticle(const Particle &amp;m_particle)</text>
<polygon fill="#666666" stroke="#666666" points="19.5,-783 19.5,-783 226.5,-783 226.5,-783 19.5,-783"/>
<polygon fill="#666666" stroke="#666666" points="19.5,-767 19.5,-767 31.5,-767 31.5,-767 19.5,-767"/>
<polygon fill="#666666" stroke="#666666" points="31.5,-767 31.5,-767 226.5,-767 226.5,-767 31.5,-767"/>
<polygon fill="none" stroke="#666666" points="19.5,-717 19.5,-801 226.5,-801 226.5,-717 19.5,-717"/>
</a>
</g>
</g>
<!-- Node3&#45;&gt;Node2 -->
<g id="edge2_Node000002_Node000003" class="edge">
<title>Node3&#45;&gt;Node2</title>
<g id="a_edge2_Node000002_Node000003"><a xlink:title=" ">
<path fill="none" stroke="#63b8ff" d="M123,-717.05C123,-706.63 123,-694.64 123,-681.54"/>
<polygon fill="none" stroke="#63b8ff" points="123,-681.57 119,-675.57 123,-669.57 127,-675.57 123,-681.57"/>
</a>
</g>
<text text-anchor="middle" x="160.88" y="-689.5" font-family="Helvetica,sans-Serif" font-size="10.00" fill="grey"> #m_smokeEffect</text>
</g>
</g>
</svg>
