<?xml version="1.0" encoding="UTF-8" standalone="no"?>
<!DOCTYPE svg PUBLIC "-//W3C//DTD SVG 1.1//EN"
 "http://www.w3.org/Graphics/SVG/1.1/DTD/svg11.dtd">
<!-- Generated by graphviz version 10.0.1 (20240210.2158)
 -->
<!-- Title: GUI::handleBuildingPlacement Pages: 1 -->
<svg width="341pt" height="142pt"
 viewBox="0.00 0.00 340.75 142.00" xmlns="http://www.w3.org/2000/svg" xmlns:xlink="http://www.w3.org/1999/xlink">
<g id="graph0" class="graph" transform="scale(1 1) rotate(0) translate(4 138)">
<title>GUI::handleBuildingPlacement</title>
<!-- Node1 -->
<g id="Node000001" class="node">
<title>Node1</title>
<g id="a_Node000001"><a xlink:title="This is more for the ghost buildings and confirms placement.">
<polygon fill="#999999" stroke="#666666" points="148,-77 0,-77 0,-57 148,-57 148,-77"/>
<text text-anchor="middle" x="74" y="-63.5" font-family="Helvetica,sans-Serif" font-size="10.00">GUI::handleBuildingPlacement</text>
</a>
</g>
</g>
<!-- Node2 -->
<g id="Node000002" class="node">
<title>Node2</title>
<g id="a_Node000002"><a xlink:href="class_building.html#a1d7272aa95009f1e624986f70b2d694e" target="_top" xlink:title="checks if it can be bought">
<polygon fill="white" stroke="#666666" points="324.88,-134 191.88,-134 191.88,-114 324.88,-114 324.88,-134"/>
<text text-anchor="middle" x="258.38" y="-120.5" font-family="Helvetica,sans-Serif" font-size="10.00">Building::checkAffordability</text>
</a>
</g>
</g>
<!-- Node1&#45;&gt;Node2 -->
<g id="edge1_Node000001_Node000002" class="edge">
<title>Node1&#45;&gt;Node2</title>
<g id="a_edge1_Node000001_Node000002"><a xlink:title=" ">
<path fill="none" stroke="#63b8ff" d="M103.02,-77.48C124.92,-85.5 156.19,-96.57 184,-105 190.29,-106.91 196.92,-108.8 203.52,-110.6"/>
<polygon fill="#63b8ff" stroke="#63b8ff" points="202.5,-113.95 213.07,-113.15 204.31,-107.18 202.5,-113.95"/>
</a>
</g>
</g>
<!-- Node3 -->
<g id="Node000003" class="node">
<title>Node3</title>
<g id="a_Node000003"><a xlink:href="class_building.html#af8054c0e09c73c99e820073a203623be" target="_top" xlink:title=" ">
<polygon fill="white" stroke="#666666" points="323.38,-96 193.38,-96 193.38,-76 323.38,-76 323.38,-96"/>
<text text-anchor="middle" x="258.38" y="-82.5" font-family="Helvetica,sans-Serif" font-size="10.00">Building::getBuildingSprite</text>
</a>
</g>
</g>
<!-- Node1&#45;&gt;Node3 -->
<g id="edge2_Node000001_Node000003" class="edge">
<title>Node1&#45;&gt;Node3</title>
<g id="a_edge2_Node000001_Node000003"><a xlink:title=" ">
<path fill="none" stroke="#63b8ff" d="M148.39,-74.65C159.34,-75.79 170.64,-76.96 181.63,-78.11"/>
<polygon fill="#63b8ff" stroke="#63b8ff" points="181.13,-81.58 191.44,-79.13 181.86,-74.61 181.13,-81.58"/>
</a>
</g>
</g>
<!-- Node4 -->
<g id="Node000004" class="node">
<title>Node4</title>
<g id="a_Node000004"><a xlink:href="class_g_u_i.html#a0ef418104a0dc3b331a7b3636b0c132a" target="_top" xlink:title="checks if the placement is valid for buildings">
<polygon fill="white" stroke="#666666" points="315.5,-58 201.25,-58 201.25,-38 315.5,-38 315.5,-58"/>
<text text-anchor="middle" x="258.38" y="-44.5" font-family="Helvetica,sans-Serif" font-size="10.00">GUI::IsPlacementValid</text>
</a>
</g>
</g>
<!-- Node1&#45;&gt;Node4 -->
<g id="edge3_Node000001_Node000004" class="edge">
<title>Node1&#45;&gt;Node4</title>
<g id="a_edge3_Node000001_Node000004"><a xlink:title=" ">
<path fill="none" stroke="#63b8ff" d="M148.39,-59.35C162.08,-57.93 176.32,-56.44 189.82,-55.04"/>
<polygon fill="#63b8ff" stroke="#63b8ff" points="189.87,-58.55 199.45,-54.03 189.15,-51.59 189.87,-58.55"/>
</a>
</g>
</g>
<!-- Node5 -->
<g id="Node000005" class="node">
<title>Node5</title>
<g id="a_Node000005"><a xlink:href="class_g_u_i.html#aeefde1f8fd80fb00b225080ddb0d57c8" target="_top" xlink:title="checks if the placement is valid for tiles">
<polygon fill="white" stroke="#666666" points="332.75,-20 184,-20 184,0 332.75,0 332.75,-20"/>
<text text-anchor="middle" x="258.38" y="-6.5" font-family="Helvetica,sans-Serif" font-size="10.00">GUI::IsPlacementValidForTiles</text>
</a>
</g>
</g>
<!-- Node1&#45;&gt;Node5 -->
<g id="edge4_Node000001_Node000005" class="edge">
<title>Node1&#45;&gt;Node5</title>
<g id="a_edge4_Node000001_Node000005"><a xlink:title=" ">
<path fill="none" stroke="#63b8ff" d="M103.02,-56.52C124.92,-48.5 156.19,-37.43 184,-29 190.29,-27.09 196.92,-25.2 203.52,-23.4"/>
<polygon fill="#63b8ff" stroke="#63b8ff" points="204.31,-26.82 213.07,-20.85 202.5,-20.05 204.31,-26.82"/>
</a>
</g>
</g>
</g>
</svg>
