<?xml version="1.0" encoding="UTF-8" standalone="no"?>
<!DOCTYPE svg PUBLIC "-//W3C//DTD SVG 1.1//EN"
 "http://www.w3.org/Graphics/SVG/1.1/DTD/svg11.dtd">
<!-- Generated by graphviz version 10.0.1 (20240210.2158)
 -->
<!-- Title: AircraftUnit::update Pages: 1 -->
<!--zoomable 256 -->

<svg id="main" version="1.1" xmlns="http://www.w3.org/2000/svg" xmlns:xlink="http://www.w3.org/1999/xlink" xml:space="preserve" onload="init(evt)">
<style type="text/css"><![CDATA[
.node, .edge {opacity: 0.7;}
.node.selected, .edge.selected {opacity: 1;}
.edge:hover path { stroke: red; }
.edge:hover polygon { stroke: red; fill: red; }
]]></style>

<defs>
  <circle id="rim" cx="0" cy="0" r="7"/>
  <circle id="rim2" cx="0" cy="0" r="3.5"/>
  <g id="zoomPlus">
    <use xlink:href="#rim" fill="#404040"><set attributeName="fill" to="#808080" begin="zoomplus.mouseover" end="zoomplus.mouseout"/></use>
    <path d="M-4,0h8M0,-4v8" fill="none" stroke="white" stroke-width="1.5" pointer-events="none"/>
  </g>
  <g id="zoomMin">
    <use xlink:href="#rim" fill="#404040"><set attributeName="fill" to="#808080" begin="zoomminus.mouseover" end="zoomminus.mouseout"/></use>
    <path d="M-4,0h8" fill="none" stroke="white" stroke-width="1.5" pointer-events="none"/>
  </g>
  <g id="arrowUp" transform="translate(30 24)">
    <use xlink:href="#rim"/>
    <path pointer-events="none" fill="none" stroke="white" stroke-width="1.5" d="M0,-3.0v7 M-2.5,-0.5L0,-3.0L2.5,-0.5"/>
  </g>
  <g id="arrowRight" transform="rotate(90) translate(36 -43)">
    <use xlink:href="#rim"/>
    <path pointer-events="none" fill="none" stroke="white" stroke-width="1.5" d="M0,-3.0v7 M-2.5,-0.5L0,-3.0L2.5,-0.5"/>
  </g>
  <g id="arrowDown" transform="rotate(180) translate(-30 -48)">
    <use xlink:href="#rim"/>
    <path pointer-events="none" fill="none" stroke="white" stroke-width="1.5" d="M0,-3.0v7 M-2.5,-0.5L0,-3.0L2.5,-0.5"/>
  </g>
  <g id="arrowLeft" transform="rotate(270) translate(-36 17)">
    <use xlink:href="#rim"/>
    <path pointer-events="none" fill="none" stroke="white" stroke-width="1.5" d="M0,-3.0v7 M-2.5,-0.5L0,-3.0L2.5,-0.5"/>
  </g>
  <g id="resetDef">
    <use xlink:href="#rim2" fill="#404040"><set attributeName="fill" to="#808080" begin="reset.mouseover" end="reset.mouseout"/></use>
  </g>
</defs>
<script type="application/ecmascript">
var viewWidth = 697;
var viewHeight = 256;
var sectionId = 'dynsection-4';
</script>
<script type="application/ecmascript" xlink:href="svg.min.js"/>
<svg id="graph" class="graph">
<g id="viewport">
<title>AircraftUnit::update</title>
<!-- Node1 -->
<g id="Node000001" class="node">
<title>Node1</title>
<g id="a_Node000001"><a xlink:title=" ">
<polygon fill="#999999" stroke="#666666" points="99.25,-124 0,-124 0,-104 99.25,-104 99.25,-124"/>
<text text-anchor="middle" x="49.62" y="-110.5" font-family="Helvetica,sans-Serif" font-size="10.00">AircraftUnit::update</text>
</a>
</g>
</g>
<!-- Node2 -->
<g id="Node000002" class="node">
<title>Node2</title>
<g id="a_Node000002"><a xlink:href="class_unit.html#a1170c0150d547432074d11e0a5896494" target="_top" xlink:title=" ">
<polygon fill="white" stroke="#666666" points="203.75,-124 135.25,-124 135.25,-104 203.75,-104 203.75,-124"/>
<text text-anchor="middle" x="169.5" y="-110.5" font-family="Helvetica,sans-Serif" font-size="10.00">Unit::update</text>
</a>
</g>
</g>
<!-- Node1&#45;&gt;Node2 -->
<g id="edge1_Node000001_Node000002" class="edge">
<title>Node1&#45;&gt;Node2</title>
<g id="a_edge1_Node000001_Node000002"><a xlink:title=" ">
<path fill="none" stroke="#63b8ff" d="M99.59,-114C107.49,-114 115.63,-114 123.43,-114"/>
<polygon fill="#63b8ff" stroke="#63b8ff" points="123.41,-117.5 133.41,-114 123.41,-110.5 123.41,-117.5"/>
</a>
</g>
</g>
<!-- Node3 -->
<g id="Node000003" class="node">
<title>Node3</title>
<g id="a_Node000003"><a xlink:href="class_unit.html#a5a0d56542c689f13276b9db77c1b36d8" target="_top" xlink:title="its to avoid colliding with each other">
<polygon fill="white" stroke="#666666" points="386.62,-181 240.88,-181 240.88,-161 386.62,-161 386.62,-181"/>
<text text-anchor="middle" x="313.75" y="-167.5" font-family="Helvetica,sans-Serif" font-size="10.00">Unit::avoidCollisionsWithUnits</text>
</a>
</g>
</g>
<!-- Node2&#45;&gt;Node3 -->
<g id="edge2_Node000002_Node000003" class="edge">
<title>Node2&#45;&gt;Node3</title>
<g id="a_edge2_Node000002_Node000003"><a xlink:title=" ">
<path fill="none" stroke="#63b8ff" d="M196.59,-124.45C218.95,-133.41 251.39,-146.41 276.31,-156.4"/>
<polygon fill="#63b8ff" stroke="#63b8ff" points="274.84,-159.58 285.42,-160.05 277.44,-153.08 274.84,-159.58"/>
</a>
</g>
</g>
<!-- Node7 -->
<g id="Node000007" class="node">
<title>Node7</title>
<g id="a_Node000007"><a xlink:href="class_unit.html#ae5032b9bfa0290392ae1a33c2525a18f" target="_top" xlink:title="To avoid walls for units.">
<polygon fill="white" stroke="#666666" points="387.75,-124 239.75,-124 239.75,-104 387.75,-104 387.75,-124"/>
<text text-anchor="middle" x="313.75" y="-110.5" font-family="Helvetica,sans-Serif" font-size="10.00">Unit::avoidCollisionsWithWalls</text>
</a>
</g>
</g>
<!-- Node2&#45;&gt;Node7 -->
<g id="edge6_Node000002_Node000007" class="edge">
<title>Node2&#45;&gt;Node7</title>
<g id="a_edge6_Node000002_Node000007"><a xlink:title=" ">
<path fill="none" stroke="#63b8ff" d="M204.21,-114C211.55,-114 219.64,-114 227.99,-114"/>
<polygon fill="#63b8ff" stroke="#63b8ff" points="227.97,-117.5 237.97,-114 227.97,-110.5 227.97,-117.5"/>
</a>
</g>
</g>
<!-- Node11 -->
<g id="Node000011" class="node">
<title>Node11</title>
<g id="a_Node000011"><a xlink:href="class_particle_system.html#ad395c1ed8a4e35546ab040dc75955732" target="_top" xlink:title=" ">
<polygon fill="white" stroke="#666666" points="372.75,-86 254.75,-86 254.75,-66 372.75,-66 372.75,-86"/>
<text text-anchor="middle" x="313.75" y="-72.5" font-family="Helvetica,sans-Serif" font-size="10.00">ParticleSystem::update</text>
</a>
</g>
</g>
<!-- Node2&#45;&gt;Node11 -->
<g id="edge14_Node000002_Node000011" class="edge">
<title>Node2&#45;&gt;Node11</title>
<g id="a_edge14_Node000002_Node000011"><a xlink:title=" ">
<path fill="none" stroke="#63b8ff" d="M203.94,-104.73C215.3,-101.61 228.07,-98.12 239.75,-95 246.64,-93.16 253.9,-91.24 261.07,-89.36"/>
<polygon fill="#63b8ff" stroke="#63b8ff" points="261.93,-92.75 270.72,-86.84 260.16,-85.98 261.93,-92.75"/>
</a>
</g>
</g>
<!-- Node4 -->
<g id="Node000004" class="node">
<title>Node4</title>
<g id="a_Node000004"><a xlink:href="class_unit.html#a7101070923fae272f484c94e6455312f" target="_top" xlink:title=" ">
<polygon fill="white" stroke="#666666" points="530.12,-248 454.12,-248 454.12,-228 530.12,-228 530.12,-248"/>
<text text-anchor="middle" x="492.12" y="-234.5" font-family="Helvetica,sans-Serif" font-size="10.00">Unit::distance</text>
</a>
</g>
</g>
<!-- Node3&#45;&gt;Node4 -->
<g id="edge3_Node000003_Node000004" class="edge">
<title>Node3&#45;&gt;Node4</title>
<g id="a_edge3_Node000003_Node000004"><a xlink:title=" ">
<path fill="none" stroke="#63b8ff" d="M340.64,-181.5C362.67,-190.36 395.18,-203.28 423.75,-214 432.33,-217.22 441.57,-220.58 450.37,-223.73"/>
<polygon fill="#63b8ff" stroke="#63b8ff" points="449.18,-227.02 459.77,-227.07 451.52,-220.43 449.18,-227.02"/>
</a>
</g>
</g>
<!-- Node5 -->
<g id="Node000005" class="node">
<title>Node5</title>
<g id="a_Node000005"><a xlink:href="class_unit.html#aa33e6fe8098210a9aeac019345f8a235" target="_top" xlink:title=" ">
<polygon fill="white" stroke="#666666" points="536.12,-172 448.12,-172 448.12,-152 536.12,-152 536.12,-172"/>
<text text-anchor="middle" x="492.12" y="-158.5" font-family="Helvetica,sans-Serif" font-size="10.00">Unit::getPosition</text>
</a>
</g>
</g>
<!-- Node3&#45;&gt;Node5 -->
<g id="edge4_Node000003_Node000005" class="edge">
<title>Node3&#45;&gt;Node5</title>
<g id="a_edge4_Node000003_Node000005"><a xlink:title=" ">
<path fill="none" stroke="#63b8ff" d="M387,-167.31C403.61,-166.47 421,-165.58 436.71,-164.78"/>
<polygon fill="#63b8ff" stroke="#63b8ff" points="436.5,-168.29 446.3,-164.29 436.14,-161.3 436.5,-168.29"/>
</a>
</g>
</g>
<!-- Node6 -->
<g id="Node000006" class="node">
<title>Node6</title>
<g id="a_Node000006"><a xlink:href="class_unit.html#a829181674d469a36b7e0a6a975d9f66f" target="_top" xlink:title=" ">
<polygon fill="white" stroke="#666666" points="683.38,-134 602.12,-134 602.12,-114 683.38,-114 683.38,-134"/>
<text text-anchor="middle" x="642.75" y="-120.5" font-family="Helvetica,sans-Serif" font-size="10.00">Unit::normalize</text>
</a>
</g>
</g>
<!-- Node3&#45;&gt;Node6 -->
<g id="edge5_Node000003_Node000006" class="edge">
<title>Node3&#45;&gt;Node6</title>
<g id="a_edge5_Node000003_Node000006"><a xlink:title=" ">
<path fill="none" stroke="#63b8ff" d="M358.1,-181.48C408.14,-191.61 492.3,-202.54 560.5,-181 584.95,-173.28 608.43,-155.28 623.8,-141.55"/>
<polygon fill="#63b8ff" stroke="#63b8ff" points="625.8,-144.47 630.75,-135.11 621.04,-139.34 625.8,-144.47"/>
</a>
</g>
</g>
<!-- Node7&#45;&gt;Node5 -->
<g id="edge10_Node000007_Node000005" class="edge">
<title>Node7&#45;&gt;Node5</title>
<g id="a_edge10_Node000007_Node000005"><a xlink:title=" ">
<path fill="none" stroke="#63b8ff" d="M353.02,-124.42C379.05,-131.5 413.73,-140.94 441.82,-148.58"/>
<polygon fill="#63b8ff" stroke="#63b8ff" points="440.6,-151.88 451.16,-151.12 442.43,-145.12 440.6,-151.88"/>
</a>
</g>
</g>
<!-- Node7&#45;&gt;Node6 -->
<g id="edge12_Node000007_Node000006" class="edge">
<title>Node7&#45;&gt;Node6</title>
<g id="a_edge12_Node000007_Node000006"><a xlink:title=" ">
<path fill="none" stroke="#63b8ff" d="M388.14,-116.24C449.71,-118.13 536.09,-120.77 590.46,-122.43"/>
<polygon fill="#63b8ff" stroke="#63b8ff" points="590.28,-125.93 600.38,-122.73 590.49,-118.93 590.28,-125.93"/>
</a>
</g>
</g>
<!-- Node8 -->
<g id="Node000008" class="node">
<title>Node8</title>
<g id="a_Node000008"><a xlink:href="class_unit.html#a42777458d8e2ae32407212027719b6d2" target="_top" xlink:title="This looks for a suitable direction to avoid walls when a direct path is blocked It tries various ang...">
<polygon fill="white" stroke="#666666" points="560.5,-96 423.75,-96 423.75,-76 560.5,-76 560.5,-96"/>
<text text-anchor="middle" x="492.12" y="-82.5" font-family="Helvetica,sans-Serif" font-size="10.00">Unit::findAvoidanceDirection</text>
</a>
</g>
</g>
<!-- Node7&#45;&gt;Node8 -->
<g id="edge7_Node000007_Node000008" class="edge">
<title>Node7&#45;&gt;Node8</title>
<g id="a_edge7_Node000007_Node000008"><a xlink:title=" ">
<path fill="none" stroke="#63b8ff" d="M380.68,-103.53C391.42,-101.83 402.64,-100.05 413.64,-98.3"/>
<polygon fill="#63b8ff" stroke="#63b8ff" points="414.16,-101.76 423.49,-96.74 413.06,-94.85 414.16,-101.76"/>
</a>
</g>
</g>
<!-- Node9 -->
<g id="Node000009" class="node">
<title>Node9</title>
<g id="a_Node000009"><a xlink:href="class_unit.html#acabd56084730e0bb32811ab6b7be625a" target="_top" xlink:title=" ">
<polygon fill="white" stroke="#666666" points="689,-77 596.5,-77 596.5,-57 689,-57 689,-77"/>
<text text-anchor="middle" x="642.75" y="-63.5" font-family="Helvetica,sans-Serif" font-size="10.00">Unit::rotateVector</text>
</a>
</g>
</g>
<!-- Node7&#45;&gt;Node9 -->
<g id="edge13_Node000007_Node000009" class="edge">
<title>Node7&#45;&gt;Node9</title>
<g id="a_edge13_Node000007_Node000009"><a xlink:title=" ">
<path fill="none" stroke="#63b8ff" d="M365.98,-103.51C373.46,-101.17 380.94,-98.36 387.75,-95 405.93,-86.04 404.58,-73.58 423.75,-67 476.11,-49.03 539.81,-51.6 584.79,-57.1"/>
<polygon fill="#63b8ff" stroke="#63b8ff" points="584.22,-60.55 594.59,-58.39 585.13,-53.61 584.22,-60.55"/>
</a>
</g>
</g>
<!-- Node10 -->
<g id="Node000010" class="node">
<title>Node10</title>
<g id="a_Node000010"><a xlink:href="class_unit.html#a2ee0326af0abc525deadf772e485f657" target="_top" xlink:title=" ">
<polygon fill="white" stroke="#666666" points="519.62,-20 464.62,-20 464.62,0 519.62,0 519.62,-20"/>
<text text-anchor="middle" x="492.12" y="-6.5" font-family="Helvetica,sans-Serif" font-size="10.00">Unit::lerp</text>
</a>
</g>
</g>
<!-- Node7&#45;&gt;Node10 -->
<g id="edge11_Node000007_Node000010" class="edge">
<title>Node7&#45;&gt;Node10</title>
<g id="a_edge11_Node000007_Node000010"><a xlink:title=" ">
<path fill="none" stroke="#63b8ff" d="M372.56,-103.63C377.97,-101.31 383.15,-98.47 387.75,-95 412.88,-76.05 399.47,-54.04 423.75,-34 432.26,-26.98 442.98,-21.94 453.35,-18.35"/>
<polygon fill="#63b8ff" stroke="#63b8ff" points="454.35,-21.71 462.9,-15.45 452.31,-15.01 454.35,-21.71"/>
</a>
</g>
</g>
<!-- Node8&#45;&gt;Node6 -->
<g id="edge8_Node000008_Node000006" class="edge">
<title>Node8&#45;&gt;Node6</title>
<g id="a_edge8_Node000008_Node000006"><a xlink:title=" ">
<path fill="none" stroke="#63b8ff" d="M534.13,-96.48C551.56,-100.94 572.08,-106.19 590.5,-110.9"/>
<polygon fill="#63b8ff" stroke="#63b8ff" points="589.63,-114.29 600.18,-113.37 591.36,-107.5 589.63,-114.29"/>
</a>
</g>
</g>
<!-- Node8&#45;&gt;Node9 -->
<g id="edge9_Node000008_Node000009" class="edge">
<title>Node8&#45;&gt;Node9</title>
<g id="a_edge9_Node000008_Node000009"><a xlink:title=" ">
<path fill="none" stroke="#63b8ff" d="M560.91,-77.33C568.94,-76.31 577.06,-75.27 584.92,-74.27"/>
<polygon fill="#63b8ff" stroke="#63b8ff" points="585.2,-77.76 594.67,-73.02 584.31,-70.81 585.2,-77.76"/>
</a>
</g>
</g>
</g>
</svg>

<g id="navigator" transform="translate(0 0)" fill="#404254">
  <rect fill="#f2f5e9" fill-opacity="0.5" stroke="#606060" stroke-width=".5" x="0" y="0" width="60" height="60"/>
  <use id="zoomplus" xlink:href="#zoomPlus" x="17" y="9" onmousedown="handleZoom(evt,'in')"/>
  <use id="zoomminus" xlink:href="#zoomMin" x="42" y="9" onmousedown="handleZoom(evt,'out')"/>
  <use id="reset" xlink:href="#resetDef" x="30" y="36" onmousedown="handleReset()"/>
   <use id="arrowup" xlink:href="#arrowUp" x="0" y="0" onmousedown="handlePan(0,-1)"/>
  <use id="arrowright" xlink:href="#arrowRight" x="0" y="0" onmousedown="handlePan(1,0)"/>
  <use id="arrowdown" xlink:href="#arrowDown" x="0" y="0" onmousedown="handlePan(0,1)"/>
  <use id="arrowleft" xlink:href="#arrowLeft" x="0" y="0" onmousedown="handlePan(-1,0)"/>
</g>
<svg viewBox="0 0 15 15" width="100%" height="30px" preserveAspectRatio="xMaxYMin meet">
 <g id="arrow_out" transform="scale(0.3 0.3)">
  <a xlink:href="class_aircraft_unit_a383a50ac692f739ef21306ba9860c4e5_cgraph_org.svg" target="_base">
   <rect id="button" ry="5" rx="5" y="6" x="6" height="38" width="38"
        fill="#f2f5e9" fill-opacity="0.5" stroke="#606060" stroke-width="1.0"/>
   <path id="arrow"
     d="M 11.500037,31.436501 C 11.940474,20.09759 22.043105,11.32322 32.158766,21.979434 L 37.068811,17.246167 C 37.068811,17.246167 37.088388,32 37.088388,32 L 22.160133,31.978069 C 22.160133,31.978069 26.997745,27.140456 26.997745,27.140456 C 18.528582,18.264221 13.291696,25.230495 11.500037,31.436501 z"
     style="fill:#404040;"/>
  </a>
 </g>
</svg>

<style type='text/css'>
<![CDATA[
[data-mouse-over-selected='false'] { opacity: 0.7; }
[data-mouse-over-selected='true']  { opacity: 1.0; }
]]>
</style>
<script type="application/ecmascript"><![CDATA[
document.addEventListener('DOMContentLoaded', (event) => {
  highlightEdges();
  highlightAdjacentNodes();
});
]]></script>
</svg>
