<?xml version="1.0" encoding="UTF-8" standalone="no"?>
<!DOCTYPE svg PUBLIC "-//W3C//DTD SVG 1.1//EN"
 "http://www.w3.org/Graphics/SVG/1.1/DTD/svg11.dtd">
<!-- Generated by graphviz version 10.0.1 (20240210.2158)
 -->
<!-- Title: Game::Game Pages: 1 -->
<svg width="288pt" height="104pt"
 viewBox="0.00 0.00 288.25 104.00" xmlns="http://www.w3.org/2000/svg" xmlns:xlink="http://www.w3.org/1999/xlink">

<svg id="main" version="1.1" xmlns="http://www.w3.org/2000/svg" xmlns:xlink="http://www.w3.org/1999/xlink" xml:space="preserve" onload="init(evt)">
<style type="text/css"><![CDATA[
.node, .edge {opacity: 0.7;}
.node.selected, .edge.selected {opacity: 1;}
.edge:hover path { stroke: red; }
.edge:hover polygon { stroke: red; fill: red; }
]]></style>
<script type="application/ecmascript" xlink:href="svg.min.js"/>
<svg id="graph" class="graph">
<g id="graph0" class="graph" transform="scale(1 1) rotate(0) translate(4 100)">
<title>Game::Game</title>
<!-- Node1 -->
<g id="Node000001" class="node">
<title>Node1</title>
<g id="a_Node000001"><a xlink:title="default constructor">
<polygon fill="#999999" stroke="#666666" points="74.5,-58 0,-58 0,-38 74.5,-38 74.5,-58"/>
<text text-anchor="middle" x="37.25" y="-44.5" font-family="Helvetica,sans-Serif" font-size="10.00">Game::Game</text>
</a>
</g>
</g>
<!-- Node2 -->
<g id="Node000002" class="node">
<title>Node2</title>
<g id="a_Node000002"><a xlink:href="class_neural_networks.html#a01571f5a037af8e439e6fe32abe78ccc" target="_top" xlink:title=" ">
<polygon fill="white" stroke="#666666" points="275,-96 115.75,-96 115.75,-76 275,-76 275,-96"/>
<text text-anchor="middle" x="195.38" y="-82.5" font-family="Helvetica,sans-Serif" font-size="10.00">NeuralNetworks::getBiasNeurons</text>
</a>
</g>
</g>
<!-- Node1&#45;&gt;Node2 -->
<g id="edge1_Node000001_Node000002" class="edge">
<title>Node1&#45;&gt;Node2</title>
<g id="a_edge1_Node000001_Node000002"><a xlink:title=" ">
<path fill="none" stroke="#63b8ff" d="M74.94,-57.91C86.32,-60.91 98.91,-64.16 110.5,-67 118.67,-69 127.3,-71.04 135.8,-73"/>
<polygon fill="#63b8ff" stroke="#63b8ff" points="134.84,-76.37 145.37,-75.19 136.4,-69.55 134.84,-76.37"/>
</a>
</g>
</g>
<!-- Node3 -->
<g id="Node000003" class="node">
<title>Node3</title>
<g id="a_Node000003"><a xlink:href="class_neural_networks.html#a6c41257179aefcfc73d2b2945b1851c9" target="_top" xlink:title=" ">
<polygon fill="white" stroke="#666666" points="280.25,-58 110.5,-58 110.5,-38 280.25,-38 280.25,-58"/>
<text text-anchor="middle" x="195.38" y="-44.5" font-family="Helvetica,sans-Serif" font-size="10.00">NeuralNetworks::getHiddenNeurons</text>
</a>
</g>
</g>
<!-- Node1&#45;&gt;Node3 -->
<g id="edge2_Node000001_Node000003" class="edge">
<title>Node1&#45;&gt;Node3</title>
<g id="a_edge2_Node000001_Node000003"><a xlink:title=" ">
<path fill="none" stroke="#63b8ff" d="M74.85,-48C82.31,-48 90.48,-48 98.94,-48"/>
<polygon fill="#63b8ff" stroke="#63b8ff" points="98.67,-51.5 108.67,-48 98.67,-44.5 98.67,-51.5"/>
</a>
</g>
</g>
<!-- Node4 -->
<g id="Node000004" class="node">
<title>Node4</title>
<g id="a_Node000004"><a xlink:href="class_level_editor.html#a984362b83939349a692676df1450ee3e" target="_top" xlink:title="Resets the fog.">
<polygon fill="white" stroke="#666666" points="263,-20 127.75,-20 127.75,0 263,0 263,-20"/>
<text text-anchor="middle" x="195.38" y="-6.5" font-family="Helvetica,sans-Serif" font-size="10.00">LevelEditor::resetFogOfWar</text>
</a>
</g>
</g>
<!-- Node1&#45;&gt;Node4 -->
<g id="edge3_Node000001_Node000004" class="edge">
<title>Node1&#45;&gt;Node4</title>
<g id="a_edge3_Node000001_Node000004"><a xlink:title=" ">
<path fill="none" stroke="#63b8ff" d="M74.94,-38.09C86.32,-35.09 98.91,-31.84 110.5,-29 118.67,-27 127.3,-24.96 135.8,-23"/>
<polygon fill="#63b8ff" stroke="#63b8ff" points="136.4,-26.45 145.37,-20.81 134.84,-19.63 136.4,-26.45"/>
</a>
</g>
</g>
</g>
</svg>
</svg>

<style type='text/css'>
<![CDATA[
[data-mouse-over-selected='false'] { opacity: 0.7; }
[data-mouse-over-selected='true']  { opacity: 1.0; }
]]>
</style>
<script type="application/ecmascript"><![CDATA[
document.addEventListener('DOMContentLoaded', (event) => {
  highlightEdges();
  highlightAdjacentNodes();
});
]]></script>
</svg>
