<?xml version="1.0" encoding="UTF-8" standalone="no"?>
<!DOCTYPE svg PUBLIC "-//W3C//DTD SVG 1.1//EN"
 "http://www.w3.org/Graphics/SVG/1.1/DTD/svg11.dtd">
<!-- Generated by graphviz version 10.0.1 (20240210.2158)
 -->
<!-- Title: MainMenu::MainMenu Pages: 1 -->
<svg width="294pt" height="104pt"
 viewBox="0.00 0.00 293.50 104.00" xmlns="http://www.w3.org/2000/svg" xmlns:xlink="http://www.w3.org/1999/xlink">
<g id="graph0" class="graph" transform="scale(1 1) rotate(0) translate(4 100)">
<title>MainMenu::MainMenu</title>
<!-- Node1 -->
<g id="Node000001" class="node">
<title>Node1</title>
<g id="a_Node000001"><a xlink:title=" ">
<polygon fill="#999999" stroke="#666666" points="112,-58 0,-58 0,-38 112,-38 112,-58"/>
<text text-anchor="middle" x="56" y="-44.5" font-family="Helvetica,sans-Serif" font-size="10.00">MainMenu::MainMenu</text>
</a>
</g>
</g>
<!-- Node2 -->
<g id="Node000002" class="node">
<title>Node2</title>
<g id="a_Node000002"><a xlink:href="class_sound_manager.html#a45d4742f2cc9a5caf0fab51cd05919ae" target="_top" xlink:title=" ">
<polygon fill="white" stroke="#666666" points="285.5,-96 148,-96 148,-76 285.5,-76 285.5,-96"/>
<text text-anchor="middle" x="216.75" y="-82.5" font-family="Helvetica,sans-Serif" font-size="10.00">SoundManager::getInstance</text>
</a>
</g>
</g>
<!-- Node1&#45;&gt;Node2 -->
<g id="edge1_Node000001_Node000002" class="edge">
<title>Node1&#45;&gt;Node2</title>
<g id="a_edge1_Node000001_Node000002"><a xlink:title=" ">
<path fill="none" stroke="#63b8ff" d="M100.8,-58.48C119.45,-62.95 141.41,-68.21 161.11,-72.92"/>
<polygon fill="#63b8ff" stroke="#63b8ff" points="160.08,-76.27 170.62,-75.2 161.71,-69.47 160.08,-76.27"/>
</a>
</g>
</g>
<!-- Node3 -->
<g id="Node000003" class="node">
<title>Node3</title>
<g id="a_Node000003"><a xlink:href="class_sound_manager.html#afa1471a3f32972e3c5dc7529fdc1115e" target="_top" xlink:title="Loads music.">
<polygon fill="white" stroke="#666666" points="282.5,-58 151,-58 151,-38 282.5,-38 282.5,-58"/>
<text text-anchor="middle" x="216.75" y="-44.5" font-family="Helvetica,sans-Serif" font-size="10.00">SoundManager::loadMusic</text>
</a>
</g>
</g>
<!-- Node1&#45;&gt;Node3 -->
<g id="edge2_Node000001_Node000003" class="edge">
<title>Node1&#45;&gt;Node3</title>
<g id="a_edge2_Node000001_Node000003"><a xlink:title=" ">
<path fill="none" stroke="#63b8ff" d="M112.08,-48C120.93,-48 130.22,-48 139.46,-48"/>
<polygon fill="#63b8ff" stroke="#63b8ff" points="139.16,-51.5 149.16,-48 139.16,-44.5 139.16,-51.5"/>
</a>
</g>
</g>
<!-- Node4 -->
<g id="Node000004" class="node">
<title>Node4</title>
<g id="a_Node000004"><a xlink:href="class_sound_manager.html#a680ef232be763e1f839892e18937d74b" target="_top" xlink:title="plays music">
<polygon fill="white" stroke="#666666" points="282.5,-20 151,-20 151,0 282.5,0 282.5,-20"/>
<text text-anchor="middle" x="216.75" y="-6.5" font-family="Helvetica,sans-Serif" font-size="10.00">SoundManager::playMusic</text>
</a>
</g>
</g>
<!-- Node1&#45;&gt;Node4 -->
<g id="edge3_Node000001_Node000004" class="edge">
<title>Node1&#45;&gt;Node4</title>
<g id="a_edge3_Node000001_Node000004"><a xlink:title=" ">
<path fill="none" stroke="#63b8ff" d="M100.8,-37.52C119.45,-33.05 141.41,-27.79 161.11,-23.08"/>
<polygon fill="#63b8ff" stroke="#63b8ff" points="161.71,-26.53 170.62,-20.8 160.08,-19.73 161.71,-26.53"/>
</a>
</g>
</g>
</g>
</svg>
