<?xml version="1.0" encoding="UTF-8" standalone="no"?>
<!DOCTYPE svg PUBLIC "-//W3C//DTD SVG 1.1//EN"
 "http://www.w3.org/Graphics/SVG/1.1/DTD/svg11.dtd">
<!-- Generated by graphviz version 10.0.1 (20240210.2158)
 -->
<!-- Title: TankAurora::update Pages: 1 -->
<svg width="835pt" height="256pt"
 viewBox="0.00 0.00 835.25 256.00" xmlns="http://www.w3.org/2000/svg" xmlns:xlink="http://www.w3.org/1999/xlink">
<g id="graph0" class="graph" transform="scale(1 1) rotate(0) translate(4 252)">
<title>TankAurora::update</title>
<!-- Node1 -->
<g id="Node000001" class="node">
<title>Node1</title>
<g id="a_Node000001"><a xlink:title=" ">
<polygon fill="#999999" stroke="#666666" points="100.75,-96 0,-96 0,-76 100.75,-76 100.75,-96"/>
<text text-anchor="middle" x="50.38" y="-82.5" font-family="Helvetica,sans-Serif" font-size="10.00">TankAurora::update</text>
</a>
</g>
</g>
<!-- Node2 -->
<g id="Node000002" class="node">
<title>Node2</title>
<g id="a_Node000002"><a xlink:href="class_unit.html#aa33e6fe8098210a9aeac019345f8a235" target="_top" xlink:title=" ">
<polygon fill="white" stroke="#666666" points="674.38,-96 586.38,-96 586.38,-76 674.38,-76 674.38,-96"/>
<text text-anchor="middle" x="630.38" y="-82.5" font-family="Helvetica,sans-Serif" font-size="10.00">Unit::getPosition</text>
</a>
</g>
</g>
<!-- Node1&#45;&gt;Node2 -->
<g id="edge1_Node000001_Node000002" class="edge">
<title>Node1&#45;&gt;Node2</title>
<g id="a_edge1_Node000001_Node000002"><a xlink:title=" ">
<path fill="none" stroke="#63b8ff" d="M89.75,-96.42C104.35,-99.88 121.2,-103.29 136.75,-105 308.71,-123.9 353.71,-120.7 526,-105 542.01,-103.54 559.25,-100.84 574.97,-97.91"/>
<polygon fill="#63b8ff" stroke="#63b8ff" points="575.47,-101.38 584.62,-96.05 574.14,-94.51 575.47,-101.38"/>
</a>
</g>
</g>
<!-- Node3 -->
<g id="Node000003" class="node">
<title>Node3</title>
<g id="a_Node000003"><a xlink:href="class_unit.html#a90612b354704a618a5647ec4742b427b" target="_top" xlink:title=" ">
<polygon fill="white" stroke="#666666" points="229.25,-58 145,-58 145,-38 229.25,-38 229.25,-58"/>
<text text-anchor="middle" x="187.12" y="-44.5" font-family="Helvetica,sans-Serif" font-size="10.00">Unit::magnitude</text>
</a>
</g>
</g>
<!-- Node1&#45;&gt;Node3 -->
<g id="edge2_Node000001_Node000003" class="edge">
<title>Node1&#45;&gt;Node3</title>
<g id="a_edge2_Node000001_Node000003"><a xlink:title=" ">
<path fill="none" stroke="#63b8ff" d="M88.55,-75.52C103.87,-71.2 121.81,-66.14 138.11,-61.54"/>
<polygon fill="#63b8ff" stroke="#63b8ff" points="138.94,-64.94 147.61,-58.86 137.04,-58.21 138.94,-64.94"/>
</a>
</g>
</g>
<!-- Node4 -->
<g id="Node000004" class="node">
<title>Node4</title>
<g id="a_Node000004"><a xlink:href="class_vehicle_unit.html#a8509cb11b318348f4953dae4932ea071" target="_top" xlink:title=" ">
<polygon fill="white" stroke="#666666" points="237.5,-96 136.75,-96 136.75,-76 237.5,-76 237.5,-96"/>
<text text-anchor="middle" x="187.12" y="-82.5" font-family="Helvetica,sans-Serif" font-size="10.00">VehicleUnit::update</text>
</a>
</g>
</g>
<!-- Node1&#45;&gt;Node4 -->
<g id="edge3_Node000001_Node000004" class="edge">
<title>Node1&#45;&gt;Node4</title>
<g id="a_edge3_Node000001_Node000004"><a xlink:title=" ">
<path fill="none" stroke="#63b8ff" d="M101.17,-86C109.02,-86 117.2,-86 125.27,-86"/>
<polygon fill="#63b8ff" stroke="#63b8ff" points="125.02,-89.5 135.02,-86 125.02,-82.5 125.02,-89.5"/>
</a>
</g>
</g>
<!-- Node5 -->
<g id="Node000005" class="node">
<title>Node5</title>
<g id="a_Node000005"><a xlink:href="class_unit.html#a1170c0150d547432074d11e0a5896494" target="_top" xlink:title=" ">
<polygon fill="white" stroke="#666666" points="342,-96 273.5,-96 273.5,-76 342,-76 342,-96"/>
<text text-anchor="middle" x="307.75" y="-82.5" font-family="Helvetica,sans-Serif" font-size="10.00">Unit::update</text>
</a>
</g>
</g>
<!-- Node4&#45;&gt;Node5 -->
<g id="edge4_Node000004_Node000005" class="edge">
<title>Node4&#45;&gt;Node5</title>
<g id="a_edge4_Node000004_Node000005"><a xlink:title=" ">
<path fill="none" stroke="#63b8ff" d="M237.75,-86C245.76,-86 254.03,-86 261.92,-86"/>
<polygon fill="#63b8ff" stroke="#63b8ff" points="261.65,-89.5 271.65,-86 261.65,-82.5 261.65,-89.5"/>
</a>
</g>
</g>
<!-- Node6 -->
<g id="Node000006" class="node">
<title>Node6</title>
<g id="a_Node000006"><a xlink:href="class_unit.html#a5a0d56542c689f13276b9db77c1b36d8" target="_top" xlink:title="its to avoid colliding with each other">
<polygon fill="white" stroke="#666666" points="524.88,-58 379.12,-58 379.12,-38 524.88,-38 524.88,-58"/>
<text text-anchor="middle" x="452" y="-44.5" font-family="Helvetica,sans-Serif" font-size="10.00">Unit::avoidCollisionsWithUnits</text>
</a>
</g>
</g>
<!-- Node5&#45;&gt;Node6 -->
<g id="edge5_Node000005_Node000006" class="edge">
<title>Node5&#45;&gt;Node6</title>
<g id="a_edge5_Node000005_Node000006"><a xlink:title=" ">
<path fill="none" stroke="#63b8ff" d="M342.19,-76.73C353.55,-73.61 366.32,-70.12 378,-67 384.89,-65.16 392.15,-63.24 399.32,-61.36"/>
<polygon fill="#63b8ff" stroke="#63b8ff" points="400.18,-64.75 408.97,-58.84 398.41,-57.98 400.18,-64.75"/>
</a>
</g>
</g>
<!-- Node9 -->
<g id="Node000009" class="node">
<title>Node9</title>
<g id="a_Node000009"><a xlink:href="class_unit.html#ae5032b9bfa0290392ae1a33c2525a18f" target="_top" xlink:title="To avoid walls for units.">
<polygon fill="white" stroke="#666666" points="526,-172 378,-172 378,-152 526,-152 526,-172"/>
<text text-anchor="middle" x="452" y="-158.5" font-family="Helvetica,sans-Serif" font-size="10.00">Unit::avoidCollisionsWithWalls</text>
</a>
</g>
</g>
<!-- Node5&#45;&gt;Node9 -->
<g id="edge9_Node000005_Node000009" class="edge">
<title>Node5&#45;&gt;Node9</title>
<g id="a_edge9_Node000005_Node000009"><a xlink:title=" ">
<path fill="none" stroke="#63b8ff" d="M328.23,-96.41C352.39,-109.31 393.78,-131.43 421.75,-146.38"/>
<polygon fill="#63b8ff" stroke="#63b8ff" points="419.95,-149.38 430.42,-151 423.25,-143.2 419.95,-149.38"/>
</a>
</g>
</g>
<!-- Node13 -->
<g id="Node000013" class="node">
<title>Node13</title>
<g id="a_Node000013"><a xlink:href="class_particle_system.html#ad395c1ed8a4e35546ab040dc75955732" target="_top" xlink:title=" ">
<polygon fill="white" stroke="#666666" points="511,-96 393,-96 393,-76 511,-76 511,-96"/>
<text text-anchor="middle" x="452" y="-82.5" font-family="Helvetica,sans-Serif" font-size="10.00">ParticleSystem::update</text>
</a>
</g>
</g>
<!-- Node5&#45;&gt;Node13 -->
<g id="edge17_Node000005_Node000013" class="edge">
<title>Node5&#45;&gt;Node13</title>
<g id="a_edge17_Node000005_Node000013"><a xlink:title=" ">
<path fill="none" stroke="#63b8ff" d="M342.46,-86C354.21,-86 367.86,-86 381.43,-86"/>
<polygon fill="#63b8ff" stroke="#63b8ff" points="381.26,-89.5 391.26,-86 381.26,-82.5 381.26,-89.5"/>
</a>
</g>
</g>
<!-- Node6&#45;&gt;Node2 -->
<g id="edge7_Node000006_Node000002" class="edge">
<title>Node6&#45;&gt;Node2</title>
<g id="a_edge7_Node000006_Node000002"><a xlink:title=" ">
<path fill="none" stroke="#63b8ff" d="M501.66,-58.48C524.36,-63.37 551.46,-69.21 574.84,-74.25"/>
<polygon fill="#63b8ff" stroke="#63b8ff" points="573.99,-77.65 584.51,-76.33 575.47,-70.81 573.99,-77.65"/>
</a>
</g>
</g>
<!-- Node7 -->
<g id="Node000007" class="node">
<title>Node7</title>
<g id="a_Node000007"><a xlink:href="class_unit.html#a7101070923fae272f484c94e6455312f" target="_top" xlink:title=" ">
<polygon fill="white" stroke="#666666" points="668.38,-20 592.38,-20 592.38,0 668.38,0 668.38,-20"/>
<text text-anchor="middle" x="630.38" y="-6.5" font-family="Helvetica,sans-Serif" font-size="10.00">Unit::distance</text>
</a>
</g>
</g>
<!-- Node6&#45;&gt;Node7 -->
<g id="edge6_Node000006_Node000007" class="edge">
<title>Node6&#45;&gt;Node7</title>
<g id="a_edge6_Node000006_Node000007"><a xlink:title=" ">
<path fill="none" stroke="#63b8ff" d="M501.66,-37.52C526.42,-32.18 556.42,-25.72 581.12,-20.4"/>
<polygon fill="#63b8ff" stroke="#63b8ff" points="581.54,-23.89 590.58,-18.36 580.07,-17.04 581.54,-23.89"/>
</a>
</g>
</g>
<!-- Node8 -->
<g id="Node000008" class="node">
<title>Node8</title>
<g id="a_Node000008"><a xlink:href="class_unit.html#a829181674d469a36b7e0a6a975d9f66f" target="_top" xlink:title=" ">
<polygon fill="white" stroke="#666666" points="821.62,-134 740.38,-134 740.38,-114 821.62,-114 821.62,-134"/>
<text text-anchor="middle" x="781" y="-120.5" font-family="Helvetica,sans-Serif" font-size="10.00">Unit::normalize</text>
</a>
</g>
</g>
<!-- Node6&#45;&gt;Node8 -->
<g id="edge8_Node000006_Node000008" class="edge">
<title>Node6&#45;&gt;Node8</title>
<g id="a_edge8_Node000006_Node000008"><a xlink:title=" ">
<path fill="none" stroke="#63b8ff" d="M525.26,-43.69C575.37,-43.05 642.86,-46.95 698.75,-67 722.48,-75.51 745.62,-92.91 761.1,-106.26"/>
<polygon fill="#63b8ff" stroke="#63b8ff" points="758.35,-108.5 768.14,-112.54 763.01,-103.27 758.35,-108.5"/>
</a>
</g>
</g>
<!-- Node9&#45;&gt;Node2 -->
<g id="edge13_Node000009_Node000002" class="edge">
<title>Node9&#45;&gt;Node2</title>
<g id="a_edge13_Node000009_Node000002"><a xlink:title=" ">
<path fill="none" stroke="#63b8ff" d="M493.04,-151.56C504.04,-147.97 515.76,-143.46 526,-138 543.89,-128.47 544.23,-119.75 562,-110 568.51,-106.43 575.65,-103.22 582.77,-100.4"/>
<polygon fill="#63b8ff" stroke="#63b8ff" points="583.92,-103.7 592.07,-96.94 581.48,-97.14 583.92,-103.7"/>
</a>
</g>
</g>
<!-- Node9&#45;&gt;Node8 -->
<g id="edge15_Node000009_Node000008" class="edge">
<title>Node9&#45;&gt;Node8</title>
<g id="a_edge15_Node000009_Node000008"><a xlink:title=" ">
<path fill="none" stroke="#63b8ff" d="M507.75,-151.51C525.06,-148.45 544.29,-145.31 562,-143 618.89,-135.58 684.51,-130.3 728.78,-127.22"/>
<polygon fill="#63b8ff" stroke="#63b8ff" points="728.86,-130.72 738.6,-126.55 728.38,-123.74 728.86,-130.72"/>
</a>
</g>
</g>
<!-- Node10 -->
<g id="Node000010" class="node">
<title>Node10</title>
<g id="a_Node000010"><a xlink:href="class_unit.html#a42777458d8e2ae32407212027719b6d2" target="_top" xlink:title="This looks for a suitable direction to avoid walls when a direct path is blocked It tries various ang...">
<polygon fill="white" stroke="#666666" points="698.75,-172 562,-172 562,-152 698.75,-152 698.75,-172"/>
<text text-anchor="middle" x="630.38" y="-158.5" font-family="Helvetica,sans-Serif" font-size="10.00">Unit::findAvoidanceDirection</text>
</a>
</g>
</g>
<!-- Node9&#45;&gt;Node10 -->
<g id="edge10_Node000009_Node000010" class="edge">
<title>Node9&#45;&gt;Node10</title>
<g id="a_edge10_Node000009_Node000010"><a xlink:title=" ">
<path fill="none" stroke="#63b8ff" d="M526.27,-162C534.24,-162 542.39,-162 550.43,-162"/>
<polygon fill="#63b8ff" stroke="#63b8ff" points="550.19,-165.5 560.19,-162 550.19,-158.5 550.19,-165.5"/>
</a>
</g>
</g>
<!-- Node11 -->
<g id="Node000011" class="node">
<title>Node11</title>
<g id="a_Node000011"><a xlink:href="class_unit.html#acabd56084730e0bb32811ab6b7be625a" target="_top" xlink:title=" ">
<polygon fill="white" stroke="#666666" points="827.25,-191 734.75,-191 734.75,-171 827.25,-171 827.25,-191"/>
<text text-anchor="middle" x="781" y="-177.5" font-family="Helvetica,sans-Serif" font-size="10.00">Unit::rotateVector</text>
</a>
</g>
</g>
<!-- Node9&#45;&gt;Node11 -->
<g id="edge16_Node000009_Node000011" class="edge">
<title>Node9&#45;&gt;Node11</title>
<g id="a_edge16_Node000009_Node000011"><a xlink:title=" ">
<path fill="none" stroke="#63b8ff" d="M502.41,-172.47C521,-175.92 542.38,-179.3 562,-181 616.52,-185.72 678.99,-185.1 723.04,-183.68"/>
<polygon fill="#63b8ff" stroke="#63b8ff" points="723.01,-187.18 732.88,-183.33 722.76,-180.19 723.01,-187.18"/>
</a>
</g>
</g>
<!-- Node12 -->
<g id="Node000012" class="node">
<title>Node12</title>
<g id="a_Node000012"><a xlink:href="class_unit.html#a2ee0326af0abc525deadf772e485f657" target="_top" xlink:title=" ">
<polygon fill="white" stroke="#666666" points="657.88,-248 602.88,-248 602.88,-228 657.88,-228 657.88,-248"/>
<text text-anchor="middle" x="630.38" y="-234.5" font-family="Helvetica,sans-Serif" font-size="10.00">Unit::lerp</text>
</a>
</g>
</g>
<!-- Node9&#45;&gt;Node12 -->
<g id="edge14_Node000009_Node000012" class="edge">
<title>Node9&#45;&gt;Node12</title>
<g id="a_edge14_Node000009_Node000012"><a xlink:title=" ">
<path fill="none" stroke="#63b8ff" d="M473.21,-172.41C494.88,-183.39 530.44,-200.89 562,-214 571.58,-217.98 582.09,-221.92 591.89,-225.42"/>
<polygon fill="#63b8ff" stroke="#63b8ff" points="590.55,-228.66 601.15,-228.66 592.87,-222.05 590.55,-228.66"/>
</a>
</g>
</g>
<!-- Node10&#45;&gt;Node8 -->
<g id="edge11_Node000010_Node000008" class="edge">
<title>Node10&#45;&gt;Node8</title>
<g id="a_edge11_Node000010_Node000008"><a xlink:title=" ">
<path fill="none" stroke="#63b8ff" d="M672.38,-151.52C689.81,-147.06 710.33,-141.81 728.75,-137.1"/>
<polygon fill="#63b8ff" stroke="#63b8ff" points="729.61,-140.5 738.43,-134.63 727.88,-133.71 729.61,-140.5"/>
</a>
</g>
</g>
<!-- Node10&#45;&gt;Node11 -->
<g id="edge12_Node000010_Node000011" class="edge">
<title>Node10&#45;&gt;Node11</title>
<g id="a_edge12_Node000010_Node000011"><a xlink:title=" ">
<path fill="none" stroke="#63b8ff" d="M699.16,-170.67C707.19,-171.69 715.31,-172.73 723.17,-173.73"/>
<polygon fill="#63b8ff" stroke="#63b8ff" points="722.56,-177.19 732.92,-174.98 723.45,-170.24 722.56,-177.19"/>
</a>
</g>
</g>
</g>
</svg>
