<?xml version="1.0" encoding="UTF-8" standalone="no"?>
<!DOCTYPE svg PUBLIC "-//W3C//DTD SVG 1.1//EN"
 "http://www.w3.org/Graphics/SVG/1.1/DTD/svg11.dtd">
<!-- Generated by graphviz version 10.0.1 (20240210.2158)
 -->
<!-- Title: Buggy::update Pages: 1 -->
<svg width="814pt" height="256pt"
 viewBox="0.00 0.00 813.50 256.00" xmlns="http://www.w3.org/2000/svg" xmlns:xlink="http://www.w3.org/1999/xlink">
<g id="graph0" class="graph" transform="scale(1 1) rotate(0) translate(4 252)">
<title>Buggy::update</title>
<!-- Node1 -->
<g id="Node000001" class="node">
<title>Node1</title>
<g id="a_Node000001"><a xlink:title=" ">
<polygon fill="#999999" stroke="#666666" points="79,-124 0,-124 0,-104 79,-104 79,-124"/>
<text text-anchor="middle" x="39.5" y="-110.5" font-family="Helvetica,sans-Serif" font-size="10.00">Buggy::update</text>
</a>
</g>
</g>
<!-- Node2 -->
<g id="Node000002" class="node">
<title>Node2</title>
<g id="a_Node000002"><a xlink:href="class_vehicle_unit.html#a8509cb11b318348f4953dae4932ea071" target="_top" xlink:title=" ">
<polygon fill="white" stroke="#666666" points="215.75,-124 115,-124 115,-104 215.75,-104 215.75,-124"/>
<text text-anchor="middle" x="165.38" y="-110.5" font-family="Helvetica,sans-Serif" font-size="10.00">VehicleUnit::update</text>
</a>
</g>
</g>
<!-- Node1&#45;&gt;Node2 -->
<g id="edge1_Node000001_Node000002" class="edge">
<title>Node1&#45;&gt;Node2</title>
<g id="a_edge1_Node000001_Node000002"><a xlink:title=" ">
<path fill="none" stroke="#63b8ff" d="M79.35,-114C86.97,-114 95.14,-114 103.28,-114"/>
<polygon fill="#63b8ff" stroke="#63b8ff" points="103.21,-117.5 113.21,-114 103.21,-110.5 103.21,-117.5"/>
</a>
</g>
</g>
<!-- Node3 -->
<g id="Node000003" class="node">
<title>Node3</title>
<g id="a_Node000003"><a xlink:href="class_unit.html#a1170c0150d547432074d11e0a5896494" target="_top" xlink:title=" ">
<polygon fill="white" stroke="#666666" points="320.25,-124 251.75,-124 251.75,-104 320.25,-104 320.25,-124"/>
<text text-anchor="middle" x="286" y="-110.5" font-family="Helvetica,sans-Serif" font-size="10.00">Unit::update</text>
</a>
</g>
</g>
<!-- Node2&#45;&gt;Node3 -->
<g id="edge2_Node000002_Node000003" class="edge">
<title>Node2&#45;&gt;Node3</title>
<g id="a_edge2_Node000002_Node000003"><a xlink:title=" ">
<path fill="none" stroke="#63b8ff" d="M216,-114C224.01,-114 232.28,-114 240.17,-114"/>
<polygon fill="#63b8ff" stroke="#63b8ff" points="239.9,-117.5 249.9,-114 239.9,-110.5 239.9,-117.5"/>
</a>
</g>
</g>
<!-- Node4 -->
<g id="Node000004" class="node">
<title>Node4</title>
<g id="a_Node000004"><a xlink:href="class_unit.html#a5a0d56542c689f13276b9db77c1b36d8" target="_top" xlink:title="its to avoid colliding with each other">
<polygon fill="white" stroke="#666666" points="503.12,-181 357.38,-181 357.38,-161 503.12,-161 503.12,-181"/>
<text text-anchor="middle" x="430.25" y="-167.5" font-family="Helvetica,sans-Serif" font-size="10.00">Unit::avoidCollisionsWithUnits</text>
</a>
</g>
</g>
<!-- Node3&#45;&gt;Node4 -->
<g id="edge3_Node000003_Node000004" class="edge">
<title>Node3&#45;&gt;Node4</title>
<g id="a_edge3_Node000003_Node000004"><a xlink:title=" ">
<path fill="none" stroke="#63b8ff" d="M313.09,-124.45C335.45,-133.41 367.89,-146.41 392.81,-156.4"/>
<polygon fill="#63b8ff" stroke="#63b8ff" points="391.34,-159.58 401.92,-160.05 393.94,-153.08 391.34,-159.58"/>
</a>
</g>
</g>
<!-- Node8 -->
<g id="Node000008" class="node">
<title>Node8</title>
<g id="a_Node000008"><a xlink:href="class_unit.html#ae5032b9bfa0290392ae1a33c2525a18f" target="_top" xlink:title="To avoid walls for units.">
<polygon fill="white" stroke="#666666" points="504.25,-124 356.25,-124 356.25,-104 504.25,-104 504.25,-124"/>
<text text-anchor="middle" x="430.25" y="-110.5" font-family="Helvetica,sans-Serif" font-size="10.00">Unit::avoidCollisionsWithWalls</text>
</a>
</g>
</g>
<!-- Node3&#45;&gt;Node8 -->
<g id="edge7_Node000003_Node000008" class="edge">
<title>Node3&#45;&gt;Node8</title>
<g id="a_edge7_Node000003_Node000008"><a xlink:title=" ">
<path fill="none" stroke="#63b8ff" d="M320.71,-114C328.05,-114 336.14,-114 344.49,-114"/>
<polygon fill="#63b8ff" stroke="#63b8ff" points="344.47,-117.5 354.47,-114 344.47,-110.5 344.47,-117.5"/>
</a>
</g>
</g>
<!-- Node12 -->
<g id="Node000012" class="node">
<title>Node12</title>
<g id="a_Node000012"><a xlink:href="class_particle_system.html#ad395c1ed8a4e35546ab040dc75955732" target="_top" xlink:title=" ">
<polygon fill="white" stroke="#666666" points="489.25,-86 371.25,-86 371.25,-66 489.25,-66 489.25,-86"/>
<text text-anchor="middle" x="430.25" y="-72.5" font-family="Helvetica,sans-Serif" font-size="10.00">ParticleSystem::update</text>
</a>
</g>
</g>
<!-- Node3&#45;&gt;Node12 -->
<g id="edge15_Node000003_Node000012" class="edge">
<title>Node3&#45;&gt;Node12</title>
<g id="a_edge15_Node000003_Node000012"><a xlink:title=" ">
<path fill="none" stroke="#63b8ff" d="M320.44,-104.73C331.8,-101.61 344.57,-98.12 356.25,-95 363.14,-93.16 370.4,-91.24 377.57,-89.36"/>
<polygon fill="#63b8ff" stroke="#63b8ff" points="378.43,-92.75 387.22,-86.84 376.66,-85.98 378.43,-92.75"/>
</a>
</g>
</g>
<!-- Node5 -->
<g id="Node000005" class="node">
<title>Node5</title>
<g id="a_Node000005"><a xlink:href="class_unit.html#a7101070923fae272f484c94e6455312f" target="_top" xlink:title=" ">
<polygon fill="white" stroke="#666666" points="646.62,-248 570.62,-248 570.62,-228 646.62,-228 646.62,-248"/>
<text text-anchor="middle" x="608.62" y="-234.5" font-family="Helvetica,sans-Serif" font-size="10.00">Unit::distance</text>
</a>
</g>
</g>
<!-- Node4&#45;&gt;Node5 -->
<g id="edge4_Node000004_Node000005" class="edge">
<title>Node4&#45;&gt;Node5</title>
<g id="a_edge4_Node000004_Node000005"><a xlink:title=" ">
<path fill="none" stroke="#63b8ff" d="M457.14,-181.5C479.17,-190.36 511.68,-203.28 540.25,-214 548.83,-217.22 558.07,-220.58 566.87,-223.73"/>
<polygon fill="#63b8ff" stroke="#63b8ff" points="565.68,-227.02 576.27,-227.07 568.02,-220.43 565.68,-227.02"/>
</a>
</g>
</g>
<!-- Node6 -->
<g id="Node000006" class="node">
<title>Node6</title>
<g id="a_Node000006"><a xlink:href="class_unit.html#aa33e6fe8098210a9aeac019345f8a235" target="_top" xlink:title=" ">
<polygon fill="white" stroke="#666666" points="652.62,-172 564.62,-172 564.62,-152 652.62,-152 652.62,-172"/>
<text text-anchor="middle" x="608.62" y="-158.5" font-family="Helvetica,sans-Serif" font-size="10.00">Unit::getPosition</text>
</a>
</g>
</g>
<!-- Node4&#45;&gt;Node6 -->
<g id="edge5_Node000004_Node000006" class="edge">
<title>Node4&#45;&gt;Node6</title>
<g id="a_edge5_Node000004_Node000006"><a xlink:title=" ">
<path fill="none" stroke="#63b8ff" d="M503.5,-167.31C520.11,-166.47 537.5,-165.58 553.21,-164.78"/>
<polygon fill="#63b8ff" stroke="#63b8ff" points="553,-168.29 562.8,-164.29 552.64,-161.3 553,-168.29"/>
</a>
</g>
</g>
<!-- Node7 -->
<g id="Node000007" class="node">
<title>Node7</title>
<g id="a_Node000007"><a xlink:href="class_unit.html#a829181674d469a36b7e0a6a975d9f66f" target="_top" xlink:title=" ">
<polygon fill="white" stroke="#666666" points="799.88,-134 718.62,-134 718.62,-114 799.88,-114 799.88,-134"/>
<text text-anchor="middle" x="759.25" y="-120.5" font-family="Helvetica,sans-Serif" font-size="10.00">Unit::normalize</text>
</a>
</g>
</g>
<!-- Node4&#45;&gt;Node7 -->
<g id="edge6_Node000004_Node000007" class="edge">
<title>Node4&#45;&gt;Node7</title>
<g id="a_edge6_Node000004_Node000007"><a xlink:title=" ">
<path fill="none" stroke="#63b8ff" d="M474.6,-181.48C524.64,-191.61 608.8,-202.54 677,-181 701.45,-173.28 724.93,-155.28 740.3,-141.55"/>
<polygon fill="#63b8ff" stroke="#63b8ff" points="742.3,-144.47 747.25,-135.11 737.54,-139.34 742.3,-144.47"/>
</a>
</g>
</g>
<!-- Node8&#45;&gt;Node6 -->
<g id="edge11_Node000008_Node000006" class="edge">
<title>Node8&#45;&gt;Node6</title>
<g id="a_edge11_Node000008_Node000006"><a xlink:title=" ">
<path fill="none" stroke="#63b8ff" d="M469.52,-124.42C495.55,-131.5 530.23,-140.94 558.32,-148.58"/>
<polygon fill="#63b8ff" stroke="#63b8ff" points="557.1,-151.88 567.66,-151.12 558.93,-145.12 557.1,-151.88"/>
</a>
</g>
</g>
<!-- Node8&#45;&gt;Node7 -->
<g id="edge13_Node000008_Node000007" class="edge">
<title>Node8&#45;&gt;Node7</title>
<g id="a_edge13_Node000008_Node000007"><a xlink:title=" ">
<path fill="none" stroke="#63b8ff" d="M504.64,-116.24C566.21,-118.13 652.59,-120.77 706.96,-122.43"/>
<polygon fill="#63b8ff" stroke="#63b8ff" points="706.78,-125.93 716.88,-122.73 706.99,-118.93 706.78,-125.93"/>
</a>
</g>
</g>
<!-- Node9 -->
<g id="Node000009" class="node">
<title>Node9</title>
<g id="a_Node000009"><a xlink:href="class_unit.html#a42777458d8e2ae32407212027719b6d2" target="_top" xlink:title="This looks for a suitable direction to avoid walls when a direct path is blocked It tries various ang...">
<polygon fill="white" stroke="#666666" points="677,-96 540.25,-96 540.25,-76 677,-76 677,-96"/>
<text text-anchor="middle" x="608.62" y="-82.5" font-family="Helvetica,sans-Serif" font-size="10.00">Unit::findAvoidanceDirection</text>
</a>
</g>
</g>
<!-- Node8&#45;&gt;Node9 -->
<g id="edge8_Node000008_Node000009" class="edge">
<title>Node8&#45;&gt;Node9</title>
<g id="a_edge8_Node000008_Node000009"><a xlink:title=" ">
<path fill="none" stroke="#63b8ff" d="M497.18,-103.53C507.92,-101.83 519.14,-100.05 530.14,-98.3"/>
<polygon fill="#63b8ff" stroke="#63b8ff" points="530.66,-101.76 539.99,-96.74 529.56,-94.85 530.66,-101.76"/>
</a>
</g>
</g>
<!-- Node10 -->
<g id="Node000010" class="node">
<title>Node10</title>
<g id="a_Node000010"><a xlink:href="class_unit.html#acabd56084730e0bb32811ab6b7be625a" target="_top" xlink:title=" ">
<polygon fill="white" stroke="#666666" points="805.5,-77 713,-77 713,-57 805.5,-57 805.5,-77"/>
<text text-anchor="middle" x="759.25" y="-63.5" font-family="Helvetica,sans-Serif" font-size="10.00">Unit::rotateVector</text>
</a>
</g>
</g>
<!-- Node8&#45;&gt;Node10 -->
<g id="edge14_Node000008_Node000010" class="edge">
<title>Node8&#45;&gt;Node10</title>
<g id="a_edge14_Node000008_Node000010"><a xlink:title=" ">
<path fill="none" stroke="#63b8ff" d="M482.48,-103.51C489.96,-101.17 497.44,-98.36 504.25,-95 522.43,-86.04 521.08,-73.58 540.25,-67 592.61,-49.03 656.31,-51.6 701.29,-57.1"/>
<polygon fill="#63b8ff" stroke="#63b8ff" points="700.72,-60.55 711.09,-58.39 701.63,-53.61 700.72,-60.55"/>
</a>
</g>
</g>
<!-- Node11 -->
<g id="Node000011" class="node">
<title>Node11</title>
<g id="a_Node000011"><a xlink:href="class_unit.html#a2ee0326af0abc525deadf772e485f657" target="_top" xlink:title=" ">
<polygon fill="white" stroke="#666666" points="636.12,-20 581.12,-20 581.12,0 636.12,0 636.12,-20"/>
<text text-anchor="middle" x="608.62" y="-6.5" font-family="Helvetica,sans-Serif" font-size="10.00">Unit::lerp</text>
</a>
</g>
</g>
<!-- Node8&#45;&gt;Node11 -->
<g id="edge12_Node000008_Node000011" class="edge">
<title>Node8&#45;&gt;Node11</title>
<g id="a_edge12_Node000008_Node000011"><a xlink:title=" ">
<path fill="none" stroke="#63b8ff" d="M489.06,-103.63C494.47,-101.31 499.65,-98.47 504.25,-95 529.38,-76.05 515.97,-54.04 540.25,-34 548.76,-26.98 559.48,-21.94 569.85,-18.35"/>
<polygon fill="#63b8ff" stroke="#63b8ff" points="570.85,-21.71 579.4,-15.45 568.81,-15.01 570.85,-21.71"/>
</a>
</g>
</g>
<!-- Node9&#45;&gt;Node7 -->
<g id="edge9_Node000009_Node000007" class="edge">
<title>Node9&#45;&gt;Node7</title>
<g id="a_edge9_Node000009_Node000007"><a xlink:title=" ">
<path fill="none" stroke="#63b8ff" d="M650.63,-96.48C668.06,-100.94 688.58,-106.19 707,-110.9"/>
<polygon fill="#63b8ff" stroke="#63b8ff" points="706.13,-114.29 716.68,-113.37 707.86,-107.5 706.13,-114.29"/>
</a>
</g>
</g>
<!-- Node9&#45;&gt;Node10 -->
<g id="edge10_Node000009_Node000010" class="edge">
<title>Node9&#45;&gt;Node10</title>
<g id="a_edge10_Node000009_Node000010"><a xlink:title=" ">
<path fill="none" stroke="#63b8ff" d="M677.41,-77.33C685.44,-76.31 693.56,-75.27 701.42,-74.27"/>
<polygon fill="#63b8ff" stroke="#63b8ff" points="701.7,-77.76 711.17,-73.02 700.81,-70.81 701.7,-77.76"/>
</a>
</g>
</g>
</g>
</svg>
