<?xml version="1.0" encoding="UTF-8" standalone="no"?>
<!DOCTYPE svg PUBLIC "-//W3C//DTD SVG 1.1//EN"
 "http://www.w3.org/Graphics/SVG/1.1/DTD/svg11.dtd">
<!-- Generated by graphviz version 10.0.1 (20240210.2158)
 -->
<!-- Title: Unit::render Pages: 1 -->
<svg width="359pt" height="104pt"
 viewBox="0.00 0.00 359.00 104.00" xmlns="http://www.w3.org/2000/svg" xmlns:xlink="http://www.w3.org/1999/xlink">
<g id="graph0" class="graph" transform="scale(1 1) rotate(0) translate(4 100)">
<title>Unit::render</title>
<!-- Node1 -->
<g id="Node000001" class="node">
<title>Node1</title>
<g id="a_Node000001"><a xlink:title="Renders the units and anything related to it.">
<polygon fill="#999999" stroke="#666666" points="351,-58 284.75,-58 284.75,-38 351,-38 351,-58"/>
<text text-anchor="middle" x="317.88" y="-44.5" font-family="Helvetica,sans-Serif" font-size="10.00">Unit::render</text>
</a>
</g>
</g>
<!-- Node2 -->
<g id="Node000002" class="node">
<title>Node2</title>
<g id="a_Node000002"><a xlink:href="class_aircraft_unit.html#a021587d41ae653ddc0b0effafd353007" target="_top" xlink:title="Renders the units and anything related to it.">
<polygon fill="white" stroke="#666666" points="248,-96 151,-96 151,-76 248,-76 248,-96"/>
<text text-anchor="middle" x="199.5" y="-82.5" font-family="Helvetica,sans-Serif" font-size="10.00">AircraftUnit::render</text>
</a>
</g>
</g>
<!-- Node1&#45;&gt;Node2 -->
<g id="edge1_Node000001_Node000002" class="edge">
<title>Node1&#45;&gt;Node2</title>
<g id="a_edge1_Node000001_Node000002"><a xlink:title=" ">
<path fill="none" stroke="#63b8ff" d="M274.07,-61.98C260.32,-66.47 245.34,-71.36 232.5,-75.55"/>
<polygon fill="#63b8ff" stroke="#63b8ff" points="274.91,-65.39 283.33,-58.95 272.74,-58.73 274.91,-65.39"/>
</a>
</g>
</g>
<!-- Node4 -->
<g id="Node000004" class="node">
<title>Node4</title>
<g id="a_Node000004"><a xlink:href="class_infantry_unit.html#aca40a05689745fe6a675009dc9c27f22" target="_top" xlink:title="Renders the units and anything related to it.">
<polygon fill="white" stroke="#666666" points="248.38,-58 150.62,-58 150.62,-38 248.38,-38 248.38,-58"/>
<text text-anchor="middle" x="199.5" y="-44.5" font-family="Helvetica,sans-Serif" font-size="10.00">InfantryUnit::render</text>
</a>
</g>
</g>
<!-- Node1&#45;&gt;Node4 -->
<g id="edge3_Node000001_Node000004" class="edge">
<title>Node1&#45;&gt;Node4</title>
<g id="a_edge3_Node000001_Node000004"><a xlink:title=" ">
<path fill="none" stroke="#63b8ff" d="M273.18,-48C265.24,-48 256.91,-48 248.85,-48"/>
<polygon fill="#63b8ff" stroke="#63b8ff" points="272.94,-51.5 282.94,-48 272.94,-44.5 272.94,-51.5"/>
</a>
</g>
</g>
<!-- Node6 -->
<g id="Node000006" class="node">
<title>Node6</title>
<g id="a_Node000006"><a xlink:href="class_vehicle_unit.html#ae308c42a1dde64acaa2a7d18d8333c90" target="_top" xlink:title="Renders the units and anything related to it.">
<polygon fill="white" stroke="#666666" points="248.75,-20 150.25,-20 150.25,0 248.75,0 248.75,-20"/>
<text text-anchor="middle" x="199.5" y="-6.5" font-family="Helvetica,sans-Serif" font-size="10.00">VehicleUnit::render</text>
</a>
</g>
</g>
<!-- Node1&#45;&gt;Node6 -->
<g id="edge5_Node000001_Node000006" class="edge">
<title>Node1&#45;&gt;Node6</title>
<g id="a_edge5_Node000001_Node000006"><a xlink:title=" ">
<path fill="none" stroke="#63b8ff" d="M274.07,-34.02C260.32,-29.53 245.34,-24.64 232.5,-20.45"/>
<polygon fill="#63b8ff" stroke="#63b8ff" points="272.74,-37.27 283.33,-37.05 274.91,-30.61 272.74,-37.27"/>
</a>
</g>
</g>
<!-- Node3 -->
<g id="Node000003" class="node">
<title>Node3</title>
<g id="a_Node000003"><a xlink:href="class_hammer_head.html#aa38a617a5666307ff1c02f52bf6fb8d9" target="_top" xlink:title="Renders the units and anything related to it.">
<polygon fill="white" stroke="#666666" points="111.25,-96 3,-96 3,-76 111.25,-76 111.25,-96"/>
<text text-anchor="middle" x="57.13" y="-82.5" font-family="Helvetica,sans-Serif" font-size="10.00">HammerHead::render</text>
</a>
</g>
</g>
<!-- Node2&#45;&gt;Node3 -->
<g id="edge2_Node000002_Node000003" class="edge">
<title>Node2&#45;&gt;Node3</title>
<g id="a_edge2_Node000002_Node000003"><a xlink:title=" ">
<path fill="none" stroke="#63b8ff" d="M139.18,-86C130.02,-86 120.62,-86 111.61,-86"/>
<polygon fill="#63b8ff" stroke="#63b8ff" points="139.07,-89.5 149.07,-86 139.07,-82.5 139.07,-89.5"/>
</a>
</g>
</g>
<!-- Node5 -->
<g id="Node000005" class="node">
<title>Node5</title>
<g id="a_Node000005"><a xlink:href="class_rifleman_squad.html#a68f0295ba704a7db0cb475369e48c42c" target="_top" xlink:title="Renders the units and anything related to it.">
<polygon fill="white" stroke="#666666" points="114.25,-58 0,-58 0,-38 114.25,-38 114.25,-58"/>
<text text-anchor="middle" x="57.13" y="-44.5" font-family="Helvetica,sans-Serif" font-size="10.00">RiflemanSquad::render</text>
</a>
</g>
</g>
<!-- Node4&#45;&gt;Node5 -->
<g id="edge4_Node000004_Node000005" class="edge">
<title>Node4&#45;&gt;Node5</title>
<g id="a_edge4_Node000004_Node000005"><a xlink:title=" ">
<path fill="none" stroke="#63b8ff" d="M138.72,-48C130.77,-48 122.64,-48 114.74,-48"/>
<polygon fill="#63b8ff" stroke="#63b8ff" points="138.68,-51.5 148.68,-48 138.68,-44.5 138.68,-51.5"/>
</a>
</g>
</g>
<!-- Node7 -->
<g id="Node000007" class="node">
<title>Node7</title>
<g id="a_Node000007"><a xlink:href="class_tank_aurora.html#ae64a175ca2527c56289658bc29ae3c17" target="_top" xlink:title="Renders the units and anything related to it.">
<polygon fill="white" stroke="#666666" points="106.38,-20 7.88,-20 7.88,0 106.38,0 106.38,-20"/>
<text text-anchor="middle" x="57.13" y="-6.5" font-family="Helvetica,sans-Serif" font-size="10.00">TankAurora::render</text>
</a>
</g>
</g>
<!-- Node6&#45;&gt;Node7 -->
<g id="edge6_Node000006_Node000007" class="edge">
<title>Node6&#45;&gt;Node7</title>
<g id="a_edge6_Node000006_Node000007"><a xlink:title=" ">
<path fill="none" stroke="#63b8ff" d="M138.47,-10C127.88,-10 116.97,-10 106.74,-10"/>
<polygon fill="#63b8ff" stroke="#63b8ff" points="138.28,-13.5 148.28,-10 138.28,-6.5 138.28,-13.5"/>
</a>
</g>
</g>
</g>
</svg>
