<?xml version="1.0" encoding="UTF-8" standalone="no"?>
<!DOCTYPE svg PUBLIC "-//W3C//DTD SVG 1.1//EN"
 "http://www.w3.org/Graphics/SVG/1.1/DTD/svg11.dtd">
<!-- Generated by graphviz version 10.0.1 (20240210.2158)
 -->
<!-- Title: InfantryUnit::update Pages: 1 -->
<svg width="698pt" height="256pt"
 viewBox="0.00 0.00 697.75 256.00" xmlns="http://www.w3.org/2000/svg" xmlns:xlink="http://www.w3.org/1999/xlink">
<g id="graph0" class="graph" transform="scale(1 1) rotate(0) translate(4 252)">
<title>InfantryUnit::update</title>
<!-- Node1 -->
<g id="Node000001" class="node">
<title>Node1</title>
<g id="a_Node000001"><a xlink:title=" ">
<polygon fill="#999999" stroke="#666666" points="100,-124 0,-124 0,-104 100,-104 100,-124"/>
<text text-anchor="middle" x="50" y="-110.5" font-family="Helvetica,sans-Serif" font-size="10.00">InfantryUnit::update</text>
</a>
</g>
</g>
<!-- Node2 -->
<g id="Node000002" class="node">
<title>Node2</title>
<g id="a_Node000002"><a xlink:href="class_unit.html#a1170c0150d547432074d11e0a5896494" target="_top" xlink:title=" ">
<polygon fill="white" stroke="#666666" points="204.5,-124 136,-124 136,-104 204.5,-104 204.5,-124"/>
<text text-anchor="middle" x="170.25" y="-110.5" font-family="Helvetica,sans-Serif" font-size="10.00">Unit::update</text>
</a>
</g>
</g>
<!-- Node1&#45;&gt;Node2 -->
<g id="edge1_Node000001_Node000002" class="edge">
<title>Node1&#45;&gt;Node2</title>
<g id="a_edge1_Node000001_Node000002"><a xlink:title=" ">
<path fill="none" stroke="#63b8ff" d="M100.46,-114C108.36,-114 116.5,-114 124.29,-114"/>
<polygon fill="#63b8ff" stroke="#63b8ff" points="124.26,-117.5 134.26,-114 124.26,-110.5 124.26,-117.5"/>
</a>
</g>
</g>
<!-- Node3 -->
<g id="Node000003" class="node">
<title>Node3</title>
<g id="a_Node000003"><a xlink:href="class_unit.html#a5a0d56542c689f13276b9db77c1b36d8" target="_top" xlink:title="its to avoid colliding with each other">
<polygon fill="white" stroke="#666666" points="387.38,-181 241.62,-181 241.62,-161 387.38,-161 387.38,-181"/>
<text text-anchor="middle" x="314.5" y="-167.5" font-family="Helvetica,sans-Serif" font-size="10.00">Unit::avoidCollisionsWithUnits</text>
</a>
</g>
</g>
<!-- Node2&#45;&gt;Node3 -->
<g id="edge2_Node000002_Node000003" class="edge">
<title>Node2&#45;&gt;Node3</title>
<g id="a_edge2_Node000002_Node000003"><a xlink:title=" ">
<path fill="none" stroke="#63b8ff" d="M197.34,-124.45C219.7,-133.41 252.14,-146.41 277.06,-156.4"/>
<polygon fill="#63b8ff" stroke="#63b8ff" points="275.59,-159.58 286.17,-160.05 278.19,-153.08 275.59,-159.58"/>
</a>
</g>
</g>
<!-- Node7 -->
<g id="Node000007" class="node">
<title>Node7</title>
<g id="a_Node000007"><a xlink:href="class_unit.html#ae5032b9bfa0290392ae1a33c2525a18f" target="_top" xlink:title="To avoid walls for units.">
<polygon fill="white" stroke="#666666" points="388.5,-124 240.5,-124 240.5,-104 388.5,-104 388.5,-124"/>
<text text-anchor="middle" x="314.5" y="-110.5" font-family="Helvetica,sans-Serif" font-size="10.00">Unit::avoidCollisionsWithWalls</text>
</a>
</g>
</g>
<!-- Node2&#45;&gt;Node7 -->
<g id="edge6_Node000002_Node000007" class="edge">
<title>Node2&#45;&gt;Node7</title>
<g id="a_edge6_Node000002_Node000007"><a xlink:title=" ">
<path fill="none" stroke="#63b8ff" d="M204.96,-114C212.3,-114 220.39,-114 228.74,-114"/>
<polygon fill="#63b8ff" stroke="#63b8ff" points="228.72,-117.5 238.72,-114 228.72,-110.5 228.72,-117.5"/>
</a>
</g>
</g>
<!-- Node11 -->
<g id="Node000011" class="node">
<title>Node11</title>
<g id="a_Node000011"><a xlink:href="class_particle_system.html#ad395c1ed8a4e35546ab040dc75955732" target="_top" xlink:title=" ">
<polygon fill="white" stroke="#666666" points="373.5,-86 255.5,-86 255.5,-66 373.5,-66 373.5,-86"/>
<text text-anchor="middle" x="314.5" y="-72.5" font-family="Helvetica,sans-Serif" font-size="10.00">ParticleSystem::update</text>
</a>
</g>
</g>
<!-- Node2&#45;&gt;Node11 -->
<g id="edge14_Node000002_Node000011" class="edge">
<title>Node2&#45;&gt;Node11</title>
<g id="a_edge14_Node000002_Node000011"><a xlink:title=" ">
<path fill="none" stroke="#63b8ff" d="M204.69,-104.73C216.05,-101.61 228.82,-98.12 240.5,-95 247.39,-93.16 254.65,-91.24 261.82,-89.36"/>
<polygon fill="#63b8ff" stroke="#63b8ff" points="262.68,-92.75 271.47,-86.84 260.91,-85.98 262.68,-92.75"/>
</a>
</g>
</g>
<!-- Node4 -->
<g id="Node000004" class="node">
<title>Node4</title>
<g id="a_Node000004"><a xlink:href="class_unit.html#a7101070923fae272f484c94e6455312f" target="_top" xlink:title=" ">
<polygon fill="white" stroke="#666666" points="530.88,-248 454.88,-248 454.88,-228 530.88,-228 530.88,-248"/>
<text text-anchor="middle" x="492.88" y="-234.5" font-family="Helvetica,sans-Serif" font-size="10.00">Unit::distance</text>
</a>
</g>
</g>
<!-- Node3&#45;&gt;Node4 -->
<g id="edge3_Node000003_Node000004" class="edge">
<title>Node3&#45;&gt;Node4</title>
<g id="a_edge3_Node000003_Node000004"><a xlink:title=" ">
<path fill="none" stroke="#63b8ff" d="M341.39,-181.5C363.42,-190.36 395.93,-203.28 424.5,-214 433.08,-217.22 442.32,-220.58 451.12,-223.73"/>
<polygon fill="#63b8ff" stroke="#63b8ff" points="449.93,-227.02 460.52,-227.07 452.27,-220.43 449.93,-227.02"/>
</a>
</g>
</g>
<!-- Node5 -->
<g id="Node000005" class="node">
<title>Node5</title>
<g id="a_Node000005"><a xlink:href="class_unit.html#aa33e6fe8098210a9aeac019345f8a235" target="_top" xlink:title=" ">
<polygon fill="white" stroke="#666666" points="536.88,-172 448.88,-172 448.88,-152 536.88,-152 536.88,-172"/>
<text text-anchor="middle" x="492.88" y="-158.5" font-family="Helvetica,sans-Serif" font-size="10.00">Unit::getPosition</text>
</a>
</g>
</g>
<!-- Node3&#45;&gt;Node5 -->
<g id="edge4_Node000003_Node000005" class="edge">
<title>Node3&#45;&gt;Node5</title>
<g id="a_edge4_Node000003_Node000005"><a xlink:title=" ">
<path fill="none" stroke="#63b8ff" d="M387.75,-167.31C404.36,-166.47 421.75,-165.58 437.46,-164.78"/>
<polygon fill="#63b8ff" stroke="#63b8ff" points="437.25,-168.29 447.05,-164.29 436.89,-161.3 437.25,-168.29"/>
</a>
</g>
</g>
<!-- Node6 -->
<g id="Node000006" class="node">
<title>Node6</title>
<g id="a_Node000006"><a xlink:href="class_unit.html#a829181674d469a36b7e0a6a975d9f66f" target="_top" xlink:title=" ">
<polygon fill="white" stroke="#666666" points="684.12,-134 602.88,-134 602.88,-114 684.12,-114 684.12,-134"/>
<text text-anchor="middle" x="643.5" y="-120.5" font-family="Helvetica,sans-Serif" font-size="10.00">Unit::normalize</text>
</a>
</g>
</g>
<!-- Node3&#45;&gt;Node6 -->
<g id="edge5_Node000003_Node000006" class="edge">
<title>Node3&#45;&gt;Node6</title>
<g id="a_edge5_Node000003_Node000006"><a xlink:title=" ">
<path fill="none" stroke="#63b8ff" d="M358.85,-181.48C408.89,-191.61 493.05,-202.54 561.25,-181 585.7,-173.28 609.18,-155.28 624.55,-141.55"/>
<polygon fill="#63b8ff" stroke="#63b8ff" points="626.55,-144.47 631.5,-135.11 621.79,-139.34 626.55,-144.47"/>
</a>
</g>
</g>
<!-- Node7&#45;&gt;Node5 -->
<g id="edge10_Node000007_Node000005" class="edge">
<title>Node7&#45;&gt;Node5</title>
<g id="a_edge10_Node000007_Node000005"><a xlink:title=" ">
<path fill="none" stroke="#63b8ff" d="M353.77,-124.42C379.8,-131.5 414.48,-140.94 442.57,-148.58"/>
<polygon fill="#63b8ff" stroke="#63b8ff" points="441.35,-151.88 451.91,-151.12 443.18,-145.12 441.35,-151.88"/>
</a>
</g>
</g>
<!-- Node7&#45;&gt;Node6 -->
<g id="edge12_Node000007_Node000006" class="edge">
<title>Node7&#45;&gt;Node6</title>
<g id="a_edge12_Node000007_Node000006"><a xlink:title=" ">
<path fill="none" stroke="#63b8ff" d="M388.89,-116.24C450.46,-118.13 536.84,-120.77 591.21,-122.43"/>
<polygon fill="#63b8ff" stroke="#63b8ff" points="591.03,-125.93 601.13,-122.73 591.24,-118.93 591.03,-125.93"/>
</a>
</g>
</g>
<!-- Node8 -->
<g id="Node000008" class="node">
<title>Node8</title>
<g id="a_Node000008"><a xlink:href="class_unit.html#a42777458d8e2ae32407212027719b6d2" target="_top" xlink:title="This looks for a suitable direction to avoid walls when a direct path is blocked It tries various ang...">
<polygon fill="white" stroke="#666666" points="561.25,-96 424.5,-96 424.5,-76 561.25,-76 561.25,-96"/>
<text text-anchor="middle" x="492.88" y="-82.5" font-family="Helvetica,sans-Serif" font-size="10.00">Unit::findAvoidanceDirection</text>
</a>
</g>
</g>
<!-- Node7&#45;&gt;Node8 -->
<g id="edge7_Node000007_Node000008" class="edge">
<title>Node7&#45;&gt;Node8</title>
<g id="a_edge7_Node000007_Node000008"><a xlink:title=" ">
<path fill="none" stroke="#63b8ff" d="M381.43,-103.53C392.17,-101.83 403.39,-100.05 414.39,-98.3"/>
<polygon fill="#63b8ff" stroke="#63b8ff" points="414.91,-101.76 424.24,-96.74 413.81,-94.85 414.91,-101.76"/>
</a>
</g>
</g>
<!-- Node9 -->
<g id="Node000009" class="node">
<title>Node9</title>
<g id="a_Node000009"><a xlink:href="class_unit.html#acabd56084730e0bb32811ab6b7be625a" target="_top" xlink:title=" ">
<polygon fill="white" stroke="#666666" points="689.75,-77 597.25,-77 597.25,-57 689.75,-57 689.75,-77"/>
<text text-anchor="middle" x="643.5" y="-63.5" font-family="Helvetica,sans-Serif" font-size="10.00">Unit::rotateVector</text>
</a>
</g>
</g>
<!-- Node7&#45;&gt;Node9 -->
<g id="edge13_Node000007_Node000009" class="edge">
<title>Node7&#45;&gt;Node9</title>
<g id="a_edge13_Node000007_Node000009"><a xlink:title=" ">
<path fill="none" stroke="#63b8ff" d="M366.73,-103.51C374.21,-101.17 381.69,-98.36 388.5,-95 406.68,-86.04 405.33,-73.58 424.5,-67 476.86,-49.03 540.56,-51.6 585.54,-57.1"/>
<polygon fill="#63b8ff" stroke="#63b8ff" points="584.97,-60.55 595.34,-58.39 585.88,-53.61 584.97,-60.55"/>
</a>
</g>
</g>
<!-- Node10 -->
<g id="Node000010" class="node">
<title>Node10</title>
<g id="a_Node000010"><a xlink:href="class_unit.html#a2ee0326af0abc525deadf772e485f657" target="_top" xlink:title=" ">
<polygon fill="white" stroke="#666666" points="520.38,-20 465.38,-20 465.38,0 520.38,0 520.38,-20"/>
<text text-anchor="middle" x="492.88" y="-6.5" font-family="Helvetica,sans-Serif" font-size="10.00">Unit::lerp</text>
</a>
</g>
</g>
<!-- Node7&#45;&gt;Node10 -->
<g id="edge11_Node000007_Node000010" class="edge">
<title>Node7&#45;&gt;Node10</title>
<g id="a_edge11_Node000007_Node000010"><a xlink:title=" ">
<path fill="none" stroke="#63b8ff" d="M373.31,-103.63C378.72,-101.31 383.9,-98.47 388.5,-95 413.63,-76.05 400.22,-54.04 424.5,-34 433.01,-26.98 443.73,-21.94 454.1,-18.35"/>
<polygon fill="#63b8ff" stroke="#63b8ff" points="455.1,-21.71 463.65,-15.45 453.06,-15.01 455.1,-21.71"/>
</a>
</g>
</g>
<!-- Node8&#45;&gt;Node6 -->
<g id="edge8_Node000008_Node000006" class="edge">
<title>Node8&#45;&gt;Node6</title>
<g id="a_edge8_Node000008_Node000006"><a xlink:title=" ">
<path fill="none" stroke="#63b8ff" d="M534.88,-96.48C552.31,-100.94 572.83,-106.19 591.25,-110.9"/>
<polygon fill="#63b8ff" stroke="#63b8ff" points="590.38,-114.29 600.93,-113.37 592.11,-107.5 590.38,-114.29"/>
</a>
</g>
</g>
<!-- Node8&#45;&gt;Node9 -->
<g id="edge9_Node000008_Node000009" class="edge">
<title>Node8&#45;&gt;Node9</title>
<g id="a_edge9_Node000008_Node000009"><a xlink:title=" ">
<path fill="none" stroke="#63b8ff" d="M561.66,-77.33C569.69,-76.31 577.81,-75.27 585.67,-74.27"/>
<polygon fill="#63b8ff" stroke="#63b8ff" points="585.95,-77.76 595.42,-73.02 585.06,-70.81 585.95,-77.76"/>
</a>
</g>
</g>
</g>
</svg>
