<?xml version="1.0" encoding="UTF-8" standalone="no"?>
<!DOCTYPE svg PUBLIC "-//W3C//DTD SVG 1.1//EN"
 "http://www.w3.org/Graphics/SVG/1.1/DTD/svg11.dtd">
<!-- Generated by graphviz version 10.0.1 (20240210.2158)
 -->
<!-- Title: Harvester::update Pages: 1 -->
<svg width="826pt" height="256pt"
 viewBox="0.00 0.00 826.25 256.00" xmlns="http://www.w3.org/2000/svg" xmlns:xlink="http://www.w3.org/1999/xlink">
<g id="graph0" class="graph" transform="scale(1 1) rotate(0) translate(4 252)">
<title>Harvester::update</title>
<!-- Node1 -->
<g id="Node000001" class="node">
<title>Node1</title>
<g id="a_Node000001"><a xlink:title=" ">
<polygon fill="#999999" stroke="#666666" points="91.75,-124 0,-124 0,-104 91.75,-104 91.75,-124"/>
<text text-anchor="middle" x="45.88" y="-110.5" font-family="Helvetica,sans-Serif" font-size="10.00">Harvester::update</text>
</a>
</g>
</g>
<!-- Node2 -->
<g id="Node000002" class="node">
<title>Node2</title>
<g id="a_Node000002"><a xlink:href="class_vehicle_unit.html#a8509cb11b318348f4953dae4932ea071" target="_top" xlink:title=" ">
<polygon fill="white" stroke="#666666" points="228.5,-124 127.75,-124 127.75,-104 228.5,-104 228.5,-124"/>
<text text-anchor="middle" x="178.12" y="-110.5" font-family="Helvetica,sans-Serif" font-size="10.00">VehicleUnit::update</text>
</a>
</g>
</g>
<!-- Node1&#45;&gt;Node2 -->
<g id="edge1_Node000001_Node000002" class="edge">
<title>Node1&#45;&gt;Node2</title>
<g id="a_edge1_Node000001_Node000002"><a xlink:title=" ">
<path fill="none" stroke="#63b8ff" d="M92.06,-114C99.86,-114 108.07,-114 116.19,-114"/>
<polygon fill="#63b8ff" stroke="#63b8ff" points="116.05,-117.5 126.05,-114 116.05,-110.5 116.05,-117.5"/>
</a>
</g>
</g>
<!-- Node3 -->
<g id="Node000003" class="node">
<title>Node3</title>
<g id="a_Node000003"><a xlink:href="class_unit.html#a1170c0150d547432074d11e0a5896494" target="_top" xlink:title=" ">
<polygon fill="white" stroke="#666666" points="333,-124 264.5,-124 264.5,-104 333,-104 333,-124"/>
<text text-anchor="middle" x="298.75" y="-110.5" font-family="Helvetica,sans-Serif" font-size="10.00">Unit::update</text>
</a>
</g>
</g>
<!-- Node2&#45;&gt;Node3 -->
<g id="edge2_Node000002_Node000003" class="edge">
<title>Node2&#45;&gt;Node3</title>
<g id="a_edge2_Node000002_Node000003"><a xlink:title=" ">
<path fill="none" stroke="#63b8ff" d="M228.75,-114C236.76,-114 245.03,-114 252.92,-114"/>
<polygon fill="#63b8ff" stroke="#63b8ff" points="252.65,-117.5 262.65,-114 252.65,-110.5 252.65,-117.5"/>
</a>
</g>
</g>
<!-- Node4 -->
<g id="Node000004" class="node">
<title>Node4</title>
<g id="a_Node000004"><a xlink:href="class_unit.html#a5a0d56542c689f13276b9db77c1b36d8" target="_top" xlink:title="its to avoid colliding with each other">
<polygon fill="white" stroke="#666666" points="515.88,-181 370.12,-181 370.12,-161 515.88,-161 515.88,-181"/>
<text text-anchor="middle" x="443" y="-167.5" font-family="Helvetica,sans-Serif" font-size="10.00">Unit::avoidCollisionsWithUnits</text>
</a>
</g>
</g>
<!-- Node3&#45;&gt;Node4 -->
<g id="edge3_Node000003_Node000004" class="edge">
<title>Node3&#45;&gt;Node4</title>
<g id="a_edge3_Node000003_Node000004"><a xlink:title=" ">
<path fill="none" stroke="#63b8ff" d="M325.84,-124.45C348.2,-133.41 380.64,-146.41 405.56,-156.4"/>
<polygon fill="#63b8ff" stroke="#63b8ff" points="404.09,-159.58 414.67,-160.05 406.69,-153.08 404.09,-159.58"/>
</a>
</g>
</g>
<!-- Node8 -->
<g id="Node000008" class="node">
<title>Node8</title>
<g id="a_Node000008"><a xlink:href="class_unit.html#ae5032b9bfa0290392ae1a33c2525a18f" target="_top" xlink:title="To avoid walls for units.">
<polygon fill="white" stroke="#666666" points="517,-124 369,-124 369,-104 517,-104 517,-124"/>
<text text-anchor="middle" x="443" y="-110.5" font-family="Helvetica,sans-Serif" font-size="10.00">Unit::avoidCollisionsWithWalls</text>
</a>
</g>
</g>
<!-- Node3&#45;&gt;Node8 -->
<g id="edge7_Node000003_Node000008" class="edge">
<title>Node3&#45;&gt;Node8</title>
<g id="a_edge7_Node000003_Node000008"><a xlink:title=" ">
<path fill="none" stroke="#63b8ff" d="M333.46,-114C340.8,-114 348.89,-114 357.24,-114"/>
<polygon fill="#63b8ff" stroke="#63b8ff" points="357.22,-117.5 367.22,-114 357.22,-110.5 357.22,-117.5"/>
</a>
</g>
</g>
<!-- Node12 -->
<g id="Node000012" class="node">
<title>Node12</title>
<g id="a_Node000012"><a xlink:href="class_particle_system.html#ad395c1ed8a4e35546ab040dc75955732" target="_top" xlink:title=" ">
<polygon fill="white" stroke="#666666" points="502,-86 384,-86 384,-66 502,-66 502,-86"/>
<text text-anchor="middle" x="443" y="-72.5" font-family="Helvetica,sans-Serif" font-size="10.00">ParticleSystem::update</text>
</a>
</g>
</g>
<!-- Node3&#45;&gt;Node12 -->
<g id="edge15_Node000003_Node000012" class="edge">
<title>Node3&#45;&gt;Node12</title>
<g id="a_edge15_Node000003_Node000012"><a xlink:title=" ">
<path fill="none" stroke="#63b8ff" d="M333.19,-104.73C344.55,-101.61 357.32,-98.12 369,-95 375.89,-93.16 383.15,-91.24 390.32,-89.36"/>
<polygon fill="#63b8ff" stroke="#63b8ff" points="391.18,-92.75 399.97,-86.84 389.41,-85.98 391.18,-92.75"/>
</a>
</g>
</g>
<!-- Node5 -->
<g id="Node000005" class="node">
<title>Node5</title>
<g id="a_Node000005"><a xlink:href="class_unit.html#a7101070923fae272f484c94e6455312f" target="_top" xlink:title=" ">
<polygon fill="white" stroke="#666666" points="659.38,-248 583.38,-248 583.38,-228 659.38,-228 659.38,-248"/>
<text text-anchor="middle" x="621.38" y="-234.5" font-family="Helvetica,sans-Serif" font-size="10.00">Unit::distance</text>
</a>
</g>
</g>
<!-- Node4&#45;&gt;Node5 -->
<g id="edge4_Node000004_Node000005" class="edge">
<title>Node4&#45;&gt;Node5</title>
<g id="a_edge4_Node000004_Node000005"><a xlink:title=" ">
<path fill="none" stroke="#63b8ff" d="M469.89,-181.5C491.92,-190.36 524.43,-203.28 553,-214 561.58,-217.22 570.82,-220.58 579.62,-223.73"/>
<polygon fill="#63b8ff" stroke="#63b8ff" points="578.43,-227.02 589.02,-227.07 580.77,-220.43 578.43,-227.02"/>
</a>
</g>
</g>
<!-- Node6 -->
<g id="Node000006" class="node">
<title>Node6</title>
<g id="a_Node000006"><a xlink:href="class_unit.html#aa33e6fe8098210a9aeac019345f8a235" target="_top" xlink:title=" ">
<polygon fill="white" stroke="#666666" points="665.38,-172 577.38,-172 577.38,-152 665.38,-152 665.38,-172"/>
<text text-anchor="middle" x="621.38" y="-158.5" font-family="Helvetica,sans-Serif" font-size="10.00">Unit::getPosition</text>
</a>
</g>
</g>
<!-- Node4&#45;&gt;Node6 -->
<g id="edge5_Node000004_Node000006" class="edge">
<title>Node4&#45;&gt;Node6</title>
<g id="a_edge5_Node000004_Node000006"><a xlink:title=" ">
<path fill="none" stroke="#63b8ff" d="M516.25,-167.31C532.86,-166.47 550.25,-165.58 565.96,-164.78"/>
<polygon fill="#63b8ff" stroke="#63b8ff" points="565.75,-168.29 575.55,-164.29 565.39,-161.3 565.75,-168.29"/>
</a>
</g>
</g>
<!-- Node7 -->
<g id="Node000007" class="node">
<title>Node7</title>
<g id="a_Node000007"><a xlink:href="class_unit.html#a829181674d469a36b7e0a6a975d9f66f" target="_top" xlink:title=" ">
<polygon fill="white" stroke="#666666" points="812.62,-134 731.38,-134 731.38,-114 812.62,-114 812.62,-134"/>
<text text-anchor="middle" x="772" y="-120.5" font-family="Helvetica,sans-Serif" font-size="10.00">Unit::normalize</text>
</a>
</g>
</g>
<!-- Node4&#45;&gt;Node7 -->
<g id="edge6_Node000004_Node000007" class="edge">
<title>Node4&#45;&gt;Node7</title>
<g id="a_edge6_Node000004_Node000007"><a xlink:title=" ">
<path fill="none" stroke="#63b8ff" d="M487.35,-181.48C537.39,-191.61 621.55,-202.54 689.75,-181 714.2,-173.28 737.68,-155.28 753.05,-141.55"/>
<polygon fill="#63b8ff" stroke="#63b8ff" points="755.05,-144.47 760,-135.11 750.29,-139.34 755.05,-144.47"/>
</a>
</g>
</g>
<!-- Node8&#45;&gt;Node6 -->
<g id="edge11_Node000008_Node000006" class="edge">
<title>Node8&#45;&gt;Node6</title>
<g id="a_edge11_Node000008_Node000006"><a xlink:title=" ">
<path fill="none" stroke="#63b8ff" d="M482.27,-124.42C508.3,-131.5 542.98,-140.94 571.07,-148.58"/>
<polygon fill="#63b8ff" stroke="#63b8ff" points="569.85,-151.88 580.41,-151.12 571.68,-145.12 569.85,-151.88"/>
</a>
</g>
</g>
<!-- Node8&#45;&gt;Node7 -->
<g id="edge13_Node000008_Node000007" class="edge">
<title>Node8&#45;&gt;Node7</title>
<g id="a_edge13_Node000008_Node000007"><a xlink:title=" ">
<path fill="none" stroke="#63b8ff" d="M517.39,-116.24C578.96,-118.13 665.34,-120.77 719.71,-122.43"/>
<polygon fill="#63b8ff" stroke="#63b8ff" points="719.53,-125.93 729.63,-122.73 719.74,-118.93 719.53,-125.93"/>
</a>
</g>
</g>
<!-- Node9 -->
<g id="Node000009" class="node">
<title>Node9</title>
<g id="a_Node000009"><a xlink:href="class_unit.html#a42777458d8e2ae32407212027719b6d2" target="_top" xlink:title="This looks for a suitable direction to avoid walls when a direct path is blocked It tries various ang...">
<polygon fill="white" stroke="#666666" points="689.75,-96 553,-96 553,-76 689.75,-76 689.75,-96"/>
<text text-anchor="middle" x="621.38" y="-82.5" font-family="Helvetica,sans-Serif" font-size="10.00">Unit::findAvoidanceDirection</text>
</a>
</g>
</g>
<!-- Node8&#45;&gt;Node9 -->
<g id="edge8_Node000008_Node000009" class="edge">
<title>Node8&#45;&gt;Node9</title>
<g id="a_edge8_Node000008_Node000009"><a xlink:title=" ">
<path fill="none" stroke="#63b8ff" d="M509.93,-103.53C520.67,-101.83 531.89,-100.05 542.89,-98.3"/>
<polygon fill="#63b8ff" stroke="#63b8ff" points="543.41,-101.76 552.74,-96.74 542.31,-94.85 543.41,-101.76"/>
</a>
</g>
</g>
<!-- Node10 -->
<g id="Node000010" class="node">
<title>Node10</title>
<g id="a_Node000010"><a xlink:href="class_unit.html#acabd56084730e0bb32811ab6b7be625a" target="_top" xlink:title=" ">
<polygon fill="white" stroke="#666666" points="818.25,-77 725.75,-77 725.75,-57 818.25,-57 818.25,-77"/>
<text text-anchor="middle" x="772" y="-63.5" font-family="Helvetica,sans-Serif" font-size="10.00">Unit::rotateVector</text>
</a>
</g>
</g>
<!-- Node8&#45;&gt;Node10 -->
<g id="edge14_Node000008_Node000010" class="edge">
<title>Node8&#45;&gt;Node10</title>
<g id="a_edge14_Node000008_Node000010"><a xlink:title=" ">
<path fill="none" stroke="#63b8ff" d="M495.23,-103.51C502.71,-101.17 510.19,-98.36 517,-95 535.18,-86.04 533.83,-73.58 553,-67 605.36,-49.03 669.06,-51.6 714.04,-57.1"/>
<polygon fill="#63b8ff" stroke="#63b8ff" points="713.47,-60.55 723.84,-58.39 714.38,-53.61 713.47,-60.55"/>
</a>
</g>
</g>
<!-- Node11 -->
<g id="Node000011" class="node">
<title>Node11</title>
<g id="a_Node000011"><a xlink:href="class_unit.html#a2ee0326af0abc525deadf772e485f657" target="_top" xlink:title=" ">
<polygon fill="white" stroke="#666666" points="648.88,-20 593.88,-20 593.88,0 648.88,0 648.88,-20"/>
<text text-anchor="middle" x="621.38" y="-6.5" font-family="Helvetica,sans-Serif" font-size="10.00">Unit::lerp</text>
</a>
</g>
</g>
<!-- Node8&#45;&gt;Node11 -->
<g id="edge12_Node000008_Node000011" class="edge">
<title>Node8&#45;&gt;Node11</title>
<g id="a_edge12_Node000008_Node000011"><a xlink:title=" ">
<path fill="none" stroke="#63b8ff" d="M501.81,-103.63C507.22,-101.31 512.4,-98.47 517,-95 542.13,-76.05 528.72,-54.04 553,-34 561.51,-26.98 572.23,-21.94 582.6,-18.35"/>
<polygon fill="#63b8ff" stroke="#63b8ff" points="583.6,-21.71 592.15,-15.45 581.56,-15.01 583.6,-21.71"/>
</a>
</g>
</g>
<!-- Node9&#45;&gt;Node7 -->
<g id="edge9_Node000009_Node000007" class="edge">
<title>Node9&#45;&gt;Node7</title>
<g id="a_edge9_Node000009_Node000007"><a xlink:title=" ">
<path fill="none" stroke="#63b8ff" d="M663.38,-96.48C680.81,-100.94 701.33,-106.19 719.75,-110.9"/>
<polygon fill="#63b8ff" stroke="#63b8ff" points="718.88,-114.29 729.43,-113.37 720.61,-107.5 718.88,-114.29"/>
</a>
</g>
</g>
<!-- Node9&#45;&gt;Node10 -->
<g id="edge10_Node000009_Node000010" class="edge">
<title>Node9&#45;&gt;Node10</title>
<g id="a_edge10_Node000009_Node000010"><a xlink:title=" ">
<path fill="none" stroke="#63b8ff" d="M690.16,-77.33C698.19,-76.31 706.31,-75.27 714.17,-74.27"/>
<polygon fill="#63b8ff" stroke="#63b8ff" points="714.45,-77.76 723.92,-73.02 713.56,-70.81 714.45,-77.76"/>
</a>
</g>
</g>
</g>
</svg>
