<?xml version="1.0" encoding="UTF-8" standalone="no"?>
<!DOCTYPE svg PUBLIC "-//W3C//DTD SVG 1.1//EN"
 "http://www.w3.org/Graphics/SVG/1.1/DTD/svg11.dtd">
<!-- Generated by graphviz version 10.0.1 (20240210.2158)
 -->
<!-- Title: MainMenu::handleButtonClick Pages: 1 -->
<svg width="507pt" height="104pt"
 viewBox="0.00 0.00 506.75 104.00" xmlns="http://www.w3.org/2000/svg" xmlns:xlink="http://www.w3.org/1999/xlink">
<g id="graph0" class="graph" transform="scale(1 1) rotate(0) translate(4 100)">
<title>MainMenu::handleButtonClick</title>
<!-- Node1 -->
<g id="Node000001" class="node">
<title>Node1</title>
<g id="a_Node000001"><a xlink:title="handles the button presses">
<polygon fill="#999999" stroke="#666666" points="145.75,-58 0,-58 0,-38 145.75,-38 145.75,-58"/>
<text text-anchor="middle" x="72.88" y="-44.5" font-family="Helvetica,sans-Serif" font-size="10.00">MainMenu::handleButtonClick</text>
</a>
</g>
</g>
<!-- Node2 -->
<g id="Node000002" class="node">
<title>Node2</title>
<g id="a_Node000002"><a xlink:href="class_sound_manager.html#a45d4742f2cc9a5caf0fab51cd05919ae" target="_top" xlink:title=" ">
<polygon fill="white" stroke="#666666" points="325.25,-96 187.75,-96 187.75,-76 325.25,-76 325.25,-96"/>
<text text-anchor="middle" x="256.5" y="-82.5" font-family="Helvetica,sans-Serif" font-size="10.00">SoundManager::getInstance</text>
</a>
</g>
</g>
<!-- Node1&#45;&gt;Node2 -->
<g id="edge1_Node000001_Node000002" class="edge">
<title>Node1&#45;&gt;Node2</title>
<g id="a_edge1_Node000001_Node000002"><a xlink:title=" ">
<path fill="none" stroke="#63b8ff" d="M123.99,-58.48C145.82,-63.05 171.62,-68.45 194.55,-73.25"/>
<polygon fill="#63b8ff" stroke="#63b8ff" points="193.57,-76.62 204.07,-75.24 195,-69.77 193.57,-76.62"/>
</a>
</g>
</g>
<!-- Node3 -->
<g id="Node000003" class="node">
<title>Node3</title>
<g id="a_Node000003"><a xlink:href="class_sound_manager.html#a4df606df9541a5513e5dcfd16f4b68b3" target="_top" xlink:title="plays the next track for music if there is any">
<polygon fill="white" stroke="#666666" points="331.25,-58 181.75,-58 181.75,-38 331.25,-38 331.25,-58"/>
<text text-anchor="middle" x="256.5" y="-44.5" font-family="Helvetica,sans-Serif" font-size="10.00">SoundManager::playNextTrack</text>
</a>
</g>
</g>
<!-- Node1&#45;&gt;Node3 -->
<g id="edge2_Node000001_Node000003" class="edge">
<title>Node1&#45;&gt;Node3</title>
<g id="a_edge2_Node000001_Node000003"><a xlink:title=" ">
<path fill="none" stroke="#63b8ff" d="M146.18,-48C154.05,-48 162.11,-48 170.11,-48"/>
<polygon fill="#63b8ff" stroke="#63b8ff" points="169.85,-51.5 179.85,-48 169.85,-44.5 169.85,-51.5"/>
</a>
</g>
</g>
<!-- Node5 -->
<g id="Node000005" class="node">
<title>Node5</title>
<g id="a_Node000005"><a xlink:href="class_sound_manager.html#abc224f0e248785f6dcfc09e115996329" target="_top" xlink:title="stops music">
<polygon fill="white" stroke="#666666" points="322.62,-20 190.38,-20 190.38,0 322.62,0 322.62,-20"/>
<text text-anchor="middle" x="256.5" y="-6.5" font-family="Helvetica,sans-Serif" font-size="10.00">SoundManager::stopMusic</text>
</a>
</g>
</g>
<!-- Node1&#45;&gt;Node5 -->
<g id="edge4_Node000001_Node000005" class="edge">
<title>Node1&#45;&gt;Node5</title>
<g id="a_edge4_Node000001_Node000005"><a xlink:title=" ">
<path fill="none" stroke="#63b8ff" d="M123.99,-37.52C145.82,-32.95 171.62,-27.55 194.55,-22.75"/>
<polygon fill="#63b8ff" stroke="#63b8ff" points="195,-26.23 204.07,-20.76 193.57,-19.38 195,-26.23"/>
</a>
</g>
</g>
<!-- Node4 -->
<g id="Node000004" class="node">
<title>Node4</title>
<g id="a_Node000004"><a xlink:href="class_sound_manager.html#a680ef232be763e1f839892e18937d74b" target="_top" xlink:title="plays music">
<polygon fill="white" stroke="#666666" points="498.75,-58 367.25,-58 367.25,-38 498.75,-38 498.75,-58"/>
<text text-anchor="middle" x="433" y="-44.5" font-family="Helvetica,sans-Serif" font-size="10.00">SoundManager::playMusic</text>
</a>
</g>
</g>
<!-- Node3&#45;&gt;Node4 -->
<g id="edge3_Node000003_Node000004" class="edge">
<title>Node3&#45;&gt;Node4</title>
<g id="a_edge3_Node000003_Node000004"><a xlink:title=" ">
<path fill="none" stroke="#63b8ff" d="M331.5,-48C339.52,-48 347.69,-48 355.74,-48"/>
<polygon fill="#63b8ff" stroke="#63b8ff" points="355.48,-51.5 365.48,-48 355.48,-44.5 355.48,-51.5"/>
</a>
</g>
</g>
</g>
</svg>
