<?xml version="1.0" encoding="UTF-8" standalone="no"?>
<!DOCTYPE svg PUBLIC "-//W3C//DTD SVG 1.1//EN"
 "http://www.w3.org/Graphics/SVG/1.1/DTD/svg11.dtd">
<!-- Generated by graphviz version 10.0.1 (20240210.2158)
 -->
<!-- Title: Unit::magnitude Pages: 1 -->
<svg width="418pt" height="104pt"
 viewBox="0.00 0.00 418.25 104.00" xmlns="http://www.w3.org/2000/svg" xmlns:xlink="http://www.w3.org/1999/xlink">
<g id="graph0" class="graph" transform="scale(1 1) rotate(0) translate(4 100)">
<title>Unit::magnitude</title>
<!-- Node1 -->
<g id="Node000001" class="node">
<title>Node1</title>
<g id="a_Node000001"><a xlink:title=" ">
<polygon fill="#999999" stroke="#666666" points="410.25,-58 326,-58 326,-38 410.25,-38 410.25,-58"/>
<text text-anchor="middle" x="368.12" y="-44.5" font-family="Helvetica,sans-Serif" font-size="10.00">Unit::magnitude</text>
</a>
</g>
</g>
<!-- Node2 -->
<g id="Node000002" class="node">
<title>Node2</title>
<g id="a_Node000002"><a xlink:href="class_unit.html#a9262163e015dca7a29a114798b7ede32" target="_top" xlink:title="it just orientates the sprite a bit">
<polygon fill="white" stroke="#666666" points="290,-96 146.5,-96 146.5,-76 290,-76 290,-96"/>
<text text-anchor="middle" x="218.25" y="-82.5" font-family="Helvetica,sans-Serif" font-size="10.00">Unit::orientSpriteToMovement</text>
</a>
</g>
</g>
<!-- Node1&#45;&gt;Node2 -->
<g id="edge1_Node000001_Node000002" class="edge">
<title>Node1&#45;&gt;Node2</title>
<g id="a_edge1_Node000001_Node000002"><a xlink:title=" ">
<path fill="none" stroke="#63b8ff" d="M315.32,-61.31C297.16,-65.98 277.03,-71.15 259.92,-75.55"/>
<polygon fill="#63b8ff" stroke="#63b8ff" points="316.05,-64.74 324.86,-58.86 314.3,-57.96 316.05,-64.74"/>
</a>
</g>
</g>
<!-- Node4 -->
<g id="Node000004" class="node">
<title>Node4</title>
<g id="a_Node000004"><a xlink:href="class_unit.html#a717bca7d26b5632119fe20b9dfa24f75" target="_top" xlink:title="Makes it slowly steer towards that direction.">
<polygon fill="white" stroke="#666666" points="266.75,-58 169.75,-58 169.75,-38 266.75,-38 266.75,-58"/>
<text text-anchor="middle" x="218.25" y="-44.5" font-family="Helvetica,sans-Serif" font-size="10.00">Unit::steerTowards</text>
</a>
</g>
</g>
<!-- Node1&#45;&gt;Node4 -->
<g id="edge3_Node000001_Node000004" class="edge">
<title>Node1&#45;&gt;Node4</title>
<g id="a_edge3_Node000001_Node000004"><a xlink:title=" ">
<path fill="none" stroke="#63b8ff" d="M314.1,-48C298.74,-48 282.06,-48 267.04,-48"/>
<polygon fill="#63b8ff" stroke="#63b8ff" points="314.03,-51.5 324.03,-48 314.03,-44.5 314.03,-51.5"/>
</a>
</g>
</g>
<!-- Node5 -->
<g id="Node000005" class="node">
<title>Node5</title>
<g id="a_Node000005"><a xlink:href="class_tank_aurora.html#a929635e820b74db6381f9ea239b57178" target="_top" xlink:title=" ">
<polygon fill="white" stroke="#666666" points="268.62,-20 167.88,-20 167.88,0 268.62,0 268.62,-20"/>
<text text-anchor="middle" x="218.25" y="-6.5" font-family="Helvetica,sans-Serif" font-size="10.00">TankAurora::update</text>
</a>
</g>
</g>
<!-- Node1&#45;&gt;Node5 -->
<g id="edge4_Node000001_Node000005" class="edge">
<title>Node1&#45;&gt;Node5</title>
<g id="a_edge4_Node000001_Node000005"><a xlink:title=" ">
<path fill="none" stroke="#63b8ff" d="M315.32,-34.69C297.16,-30.02 277.03,-24.85 259.92,-20.45"/>
<polygon fill="#63b8ff" stroke="#63b8ff" points="314.3,-38.04 324.86,-37.14 316.05,-31.26 314.3,-38.04"/>
</a>
</g>
</g>
<!-- Node3 -->
<g id="Node000003" class="node">
<title>Node3</title>
<g id="a_Node000003"><a xlink:href="class_hammer_head.html#a57c18e3d80cb32b40aa995bf76f59949" target="_top" xlink:title=" ">
<polygon fill="white" stroke="#666666" points="110.5,-96 0,-96 0,-76 110.5,-76 110.5,-96"/>
<text text-anchor="middle" x="55.25" y="-82.5" font-family="Helvetica,sans-Serif" font-size="10.00">HammerHead::update</text>
</a>
</g>
</g>
<!-- Node2&#45;&gt;Node3 -->
<g id="edge2_Node000002_Node000003" class="edge">
<title>Node2&#45;&gt;Node3</title>
<g id="a_edge2_Node000002_Node000003"><a xlink:title=" ">
<path fill="none" stroke="#63b8ff" d="M134.78,-86C126.72,-86 118.68,-86 111,-86"/>
<polygon fill="#63b8ff" stroke="#63b8ff" points="134.65,-89.5 144.65,-86 134.65,-82.5 134.65,-89.5"/>
</a>
</g>
</g>
</g>
</svg>
