<?xml version="1.0" encoding="UTF-8" standalone="no"?>
<!DOCTYPE svg PUBLIC "-//W3C//DTD SVG 1.1//EN"
 "http://www.w3.org/Graphics/SVG/1.1/DTD/svg11.dtd">
<!-- Generated by graphviz version 10.0.1 (20240210.2158)
 -->
<!-- Title: HammerHead::render Pages: 1 -->
<svg width="503pt" height="28pt"
 viewBox="0.00 0.00 503.25 28.00" xmlns="http://www.w3.org/2000/svg" xmlns:xlink="http://www.w3.org/1999/xlink">
<g id="graph0" class="graph" transform="scale(1 1) rotate(0) translate(4 24)">
<title>HammerHead::render</title>
<!-- Node1 -->
<g id="Node000001" class="node">
<title>Node1</title>
<g id="a_Node000001"><a xlink:title="Renders the units and anything related to it.">
<polygon fill="#999999" stroke="#666666" points="108.25,-20 0,-20 0,0 108.25,0 108.25,-20"/>
<text text-anchor="middle" x="54.12" y="-6.5" font-family="Helvetica,sans-Serif" font-size="10.00">HammerHead::render</text>
</a>
</g>
</g>
<!-- Node2 -->
<g id="Node000002" class="node">
<title>Node2</title>
<g id="a_Node000002"><a xlink:href="class_aircraft_unit.html#a021587d41ae653ddc0b0effafd353007" target="_top" xlink:title="Renders the units and anything related to it.">
<polygon fill="white" stroke="#666666" points="241.25,-20 144.25,-20 144.25,0 241.25,0 241.25,-20"/>
<text text-anchor="middle" x="192.75" y="-6.5" font-family="Helvetica,sans-Serif" font-size="10.00">AircraftUnit::render</text>
</a>
</g>
</g>
<!-- Node1&#45;&gt;Node2 -->
<g id="edge1_Node000001_Node000002" class="edge">
<title>Node1&#45;&gt;Node2</title>
<g id="a_edge1_Node000001_Node000002"><a xlink:title=" ">
<path fill="none" stroke="#63b8ff" d="M108.73,-10C116.57,-10 124.67,-10 132.61,-10"/>
<polygon fill="#63b8ff" stroke="#63b8ff" points="132.56,-13.5 142.56,-10 132.56,-6.5 132.56,-13.5"/>
</a>
</g>
</g>
<!-- Node3 -->
<g id="Node000003" class="node">
<title>Node3</title>
<g id="a_Node000003"><a xlink:href="class_unit.html#abd8cdcaade9bfafedcf23aadd4f5539a" target="_top" xlink:title="Renders the units and anything related to it.">
<polygon fill="white" stroke="#666666" points="343.5,-20 277.25,-20 277.25,0 343.5,0 343.5,-20"/>
<text text-anchor="middle" x="310.38" y="-6.5" font-family="Helvetica,sans-Serif" font-size="10.00">Unit::render</text>
</a>
</g>
</g>
<!-- Node2&#45;&gt;Node3 -->
<g id="edge2_Node000002_Node000003" class="edge">
<title>Node2&#45;&gt;Node3</title>
<g id="a_edge2_Node000002_Node000003"><a xlink:title=" ">
<path fill="none" stroke="#63b8ff" d="M241.45,-10C249.47,-10 257.76,-10 265.68,-10"/>
<polygon fill="#63b8ff" stroke="#63b8ff" points="265.42,-13.5 275.42,-10 265.42,-6.5 265.42,-13.5"/>
</a>
</g>
</g>
<!-- Node4 -->
<g id="Node000004" class="node">
<title>Node4</title>
<g id="a_Node000004"><a xlink:href="class_particle_system.html#a12f342988eeb7d9ac023e279b8b9dd8c" target="_top" xlink:title="Renders the particles into existence.">
<polygon fill="white" stroke="#666666" points="495.25,-20 379.5,-20 379.5,0 495.25,0 495.25,-20"/>
<text text-anchor="middle" x="437.38" y="-6.5" font-family="Helvetica,sans-Serif" font-size="10.00">ParticleSystem::render</text>
</a>
</g>
</g>
<!-- Node3&#45;&gt;Node4 -->
<g id="edge3_Node000003_Node000004" class="edge">
<title>Node3&#45;&gt;Node4</title>
<g id="a_edge3_Node000003_Node000004"><a xlink:title=" ">
<path fill="none" stroke="#63b8ff" d="M343.89,-10C351.35,-10 359.56,-10 367.91,-10"/>
<polygon fill="#63b8ff" stroke="#63b8ff" points="367.81,-13.5 377.81,-10 367.81,-6.5 367.81,-13.5"/>
</a>
</g>
</g>
</g>
</svg>
