<?xml version="1.0" encoding="UTF-8" standalone="no"?>
<!DOCTYPE svg PUBLIC "-//W3C//DTD SVG 1.1//EN"
 "http://www.w3.org/Graphics/SVG/1.1/DTD/svg11.dtd">
<!-- Generated by graphviz version 10.0.1 (20240210.2158)
 -->
<!-- Title: ParticleSystem::addParticle Pages: 1 -->
<!--zoomable 180 -->

<svg id="main" version="1.1" xmlns="http://www.w3.org/2000/svg" xmlns:xlink="http://www.w3.org/1999/xlink" xml:space="preserve" onload="init(evt)">
<style type="text/css"><![CDATA[
.node, .edge {opacity: 0.7;}
.node.selected, .edge.selected {opacity: 1;}
.edge:hover path { stroke: red; }
.edge:hover polygon { stroke: red; fill: red; }
]]></style>

<defs>
  <circle id="rim" cx="0" cy="0" r="7"/>
  <circle id="rim2" cx="0" cy="0" r="3.5"/>
  <g id="zoomPlus">
    <use xlink:href="#rim" fill="#404040"><set attributeName="fill" to="#808080" begin="zoomplus.mouseover" end="zoomplus.mouseout"/></use>
    <path d="M-4,0h8M0,-4v8" fill="none" stroke="white" stroke-width="1.5" pointer-events="none"/>
  </g>
  <g id="zoomMin">
    <use xlink:href="#rim" fill="#404040"><set attributeName="fill" to="#808080" begin="zoomminus.mouseover" end="zoomminus.mouseout"/></use>
    <path d="M-4,0h8" fill="none" stroke="white" stroke-width="1.5" pointer-events="none"/>
  </g>
  <g id="arrowUp" transform="translate(30 24)">
    <use xlink:href="#rim"/>
    <path pointer-events="none" fill="none" stroke="white" stroke-width="1.5" d="M0,-3.0v7 M-2.5,-0.5L0,-3.0L2.5,-0.5"/>
  </g>
  <g id="arrowRight" transform="rotate(90) translate(36 -43)">
    <use xlink:href="#rim"/>
    <path pointer-events="none" fill="none" stroke="white" stroke-width="1.5" d="M0,-3.0v7 M-2.5,-0.5L0,-3.0L2.5,-0.5"/>
  </g>
  <g id="arrowDown" transform="rotate(180) translate(-30 -48)">
    <use xlink:href="#rim"/>
    <path pointer-events="none" fill="none" stroke="white" stroke-width="1.5" d="M0,-3.0v7 M-2.5,-0.5L0,-3.0L2.5,-0.5"/>
  </g>
  <g id="arrowLeft" transform="rotate(270) translate(-36 17)">
    <use xlink:href="#rim"/>
    <path pointer-events="none" fill="none" stroke="white" stroke-width="1.5" d="M0,-3.0v7 M-2.5,-0.5L0,-3.0L2.5,-0.5"/>
  </g>
  <g id="resetDef">
    <use xlink:href="#rim2" fill="#404040"><set attributeName="fill" to="#808080" begin="reset.mouseover" end="reset.mouseout"/></use>
  </g>
</defs>
<script type="application/ecmascript">
var viewWidth = 588;
var viewHeight = 180;
var sectionId = 'dynsection-1';
</script>
<script type="application/ecmascript" xlink:href="svg.min.js"/>
<svg id="graph" class="graph">
<g id="viewport">
<title>ParticleSystem::addParticle</title>
<!-- Node1 -->
<g id="Node000001" class="node">
<title>Node1</title>
<g id="a_Node000001"><a xlink:title="Adds the particle into the vector.">
<polygon fill="#999999" stroke="#666666" points="580,-96 442.5,-96 442.5,-76 580,-76 580,-96"/>
<text text-anchor="middle" x="511.25" y="-82.5" font-family="Helvetica,sans-Serif" font-size="10.00">ParticleSystem::addParticle</text>
</a>
</g>
</g>
<!-- Node2 -->
<g id="Node000002" class="node">
<title>Node2</title>
<g id="a_Node000002"><a xlink:href="class_building.html#ab9d7d236e9684d09ea362dee94c36604" target="_top" xlink:title="Spawns smoke when health on the building is low.">
<polygon fill="white" stroke="#666666" points="406.5,-96 266.75,-96 266.75,-76 406.5,-76 406.5,-96"/>
<text text-anchor="middle" x="336.62" y="-82.5" font-family="Helvetica,sans-Serif" font-size="10.00">Building::spawnSmokeEffect</text>
</a>
</g>
</g>
<!-- Node1&#45;&gt;Node2 -->
<g id="edge1_Node000001_Node000002" class="edge">
<title>Node1&#45;&gt;Node2</title>
<g id="a_edge1_Node000001_Node000002"><a xlink:title=" ">
<path fill="none" stroke="#63b8ff" d="M430.77,-86C422.76,-86 414.66,-86 406.77,-86"/>
<polygon fill="#63b8ff" stroke="#63b8ff" points="430.51,-89.5 440.51,-86 430.51,-82.5 430.51,-89.5"/>
</a>
</g>
</g>
<!-- Node3 -->
<g id="Node000003" class="node">
<title>Node3</title>
<g id="a_Node000003"><a xlink:href="class_building.html#a92ed9c2981dbc964248a031cbef4fbec" target="_top" xlink:title=" ">
<polygon fill="white" stroke="#666666" points="230.75,-96 145,-96 145,-76 230.75,-76 230.75,-96"/>
<text text-anchor="middle" x="187.88" y="-82.5" font-family="Helvetica,sans-Serif" font-size="10.00">Building::update</text>
</a>
</g>
</g>
<!-- Node2&#45;&gt;Node3 -->
<g id="edge2_Node000002_Node000003" class="edge">
<title>Node2&#45;&gt;Node3</title>
<g id="a_edge2_Node000002_Node000003"><a xlink:title=" ">
<path fill="none" stroke="#63b8ff" d="M255.11,-86C246.75,-86 238.52,-86 230.85,-86"/>
<polygon fill="#63b8ff" stroke="#63b8ff" points="255.03,-89.5 265.03,-86 255.03,-82.5 255.03,-89.5"/>
</a>
</g>
</g>
<!-- Node4 -->
<g id="Node000004" class="node">
<title>Node4</title>
<g id="a_Node000004"><a xlink:href="class_air_craft.html#a6f035076036ee054bbe29b8d8cb5028e" target="_top" xlink:title=" ">
<polygon fill="white" stroke="#666666" points="96.25,-172 12.75,-172 12.75,-152 96.25,-152 96.25,-172"/>
<text text-anchor="middle" x="54.5" y="-158.5" font-family="Helvetica,sans-Serif" font-size="10.00">AirCraft::update</text>
</a>
</g>
</g>
<!-- Node3&#45;&gt;Node4 -->
<g id="edge3_Node000003_Node000004" class="edge">
<title>Node3&#45;&gt;Node4</title>
<g id="a_edge3_Node000003_Node000004"><a xlink:title=" ">
<path fill="none" stroke="#63b8ff" d="M166.42,-103.54C151.32,-115.83 129.85,-131.97 109,-143 102.9,-146.23 96.14,-149.11 89.53,-151.59"/>
<polygon fill="#63b8ff" stroke="#63b8ff" points="168.32,-106.52 173.77,-97.43 163.85,-101.13 168.32,-106.52"/>
</a>
</g>
</g>
<!-- Node5 -->
<g id="Node000005" class="node">
<title>Node5</title>
<g id="a_Node000005"><a xlink:href="class_barracks.html#a78313b0a5805ab0f81f73d2ca4335931" target="_top" xlink:title=" ">
<polygon fill="white" stroke="#666666" points="99.62,-134 9.38,-134 9.38,-114 99.62,-114 99.62,-134"/>
<text text-anchor="middle" x="54.5" y="-120.5" font-family="Helvetica,sans-Serif" font-size="10.00">Barracks::update</text>
</a>
</g>
</g>
<!-- Node3&#45;&gt;Node5 -->
<g id="edge4_Node000003_Node000005" class="edge">
<title>Node3&#45;&gt;Node5</title>
<g id="a_edge4_Node000003_Node000005"><a xlink:title=" ">
<path fill="none" stroke="#63b8ff" d="M139.93,-99.58C124.04,-104.18 106.55,-109.23 91.63,-113.55"/>
<polygon fill="#63b8ff" stroke="#63b8ff" points="140.54,-103.05 149.17,-96.9 138.6,-96.32 140.54,-103.05"/>
</a>
</g>
</g>
<!-- Node6 -->
<g id="Node000006" class="node">
<title>Node6</title>
<g id="a_Node000006"><a xlink:href="class_headquarters.html#a604008735607161a2403549c259792d9" target="_top" xlink:title=" ">
<polygon fill="white" stroke="#666666" points="109,-96 0,-96 0,-76 109,-76 109,-96"/>
<text text-anchor="middle" x="54.5" y="-82.5" font-family="Helvetica,sans-Serif" font-size="10.00">Headquarters::update</text>
</a>
</g>
</g>
<!-- Node3&#45;&gt;Node6 -->
<g id="edge5_Node000003_Node000006" class="edge">
<title>Node3&#45;&gt;Node6</title>
<g id="a_edge5_Node000003_Node000006"><a xlink:title=" ">
<path fill="none" stroke="#63b8ff" d="M133.22,-86C125.31,-86 117.16,-86 109.25,-86"/>
<polygon fill="#63b8ff" stroke="#63b8ff" points="133.07,-89.5 143.07,-86 133.07,-82.5 133.07,-89.5"/>
</a>
</g>
</g>
<!-- Node7 -->
<g id="Node000007" class="node">
<title>Node7</title>
<g id="a_Node000007"><a xlink:href="class_refinery.html#a7f43ed86e1e97891be7ed601fe69c8b4" target="_top" xlink:title=" ">
<polygon fill="white" stroke="#666666" points="97.75,-58 11.25,-58 11.25,-38 97.75,-38 97.75,-58"/>
<text text-anchor="middle" x="54.5" y="-44.5" font-family="Helvetica,sans-Serif" font-size="10.00">Refinery::update</text>
</a>
</g>
</g>
<!-- Node3&#45;&gt;Node7 -->
<g id="edge6_Node000003_Node000007" class="edge">
<title>Node3&#45;&gt;Node7</title>
<g id="a_edge6_Node000003_Node000007"><a xlink:title=" ">
<path fill="none" stroke="#63b8ff" d="M139.93,-72.42C124.04,-67.82 106.55,-62.77 91.63,-58.45"/>
<polygon fill="#63b8ff" stroke="#63b8ff" points="138.6,-75.68 149.17,-75.1 140.54,-68.95 138.6,-75.68"/>
</a>
</g>
</g>
<!-- Node8 -->
<g id="Node000008" class="node">
<title>Node8</title>
<g id="a_Node000008"><a xlink:href="class_war_factory.html#ab12942856bdd178f522837c0410b0933" target="_top" xlink:title=" ">
<polygon fill="white" stroke="#666666" points="105.62,-20 3.38,-20 3.38,0 105.62,0 105.62,-20"/>
<text text-anchor="middle" x="54.5" y="-6.5" font-family="Helvetica,sans-Serif" font-size="10.00">WarFactory::update</text>
</a>
</g>
</g>
<!-- Node3&#45;&gt;Node8 -->
<g id="edge7_Node000003_Node000008" class="edge">
<title>Node3&#45;&gt;Node8</title>
<g id="a_edge7_Node000003_Node000008"><a xlink:title=" ">
<path fill="none" stroke="#63b8ff" d="M166.42,-68.46C151.32,-56.17 129.85,-40.03 109,-29 102.9,-25.77 96.14,-22.89 89.53,-20.41"/>
<polygon fill="#63b8ff" stroke="#63b8ff" points="163.85,-70.87 173.77,-74.57 168.32,-65.48 163.85,-70.87"/>
</a>
</g>
</g>
</g>
</svg>

<g id="navigator" transform="translate(0 0)" fill="#404254">
  <rect fill="#f2f5e9" fill-opacity="0.5" stroke="#606060" stroke-width=".5" x="0" y="0" width="60" height="60"/>
  <use id="zoomplus" xlink:href="#zoomPlus" x="17" y="9" onmousedown="handleZoom(evt,'in')"/>
  <use id="zoomminus" xlink:href="#zoomMin" x="42" y="9" onmousedown="handleZoom(evt,'out')"/>
  <use id="reset" xlink:href="#resetDef" x="30" y="36" onmousedown="handleReset()"/>
   <use id="arrowup" xlink:href="#arrowUp" x="0" y="0" onmousedown="handlePan(0,-1)"/>
  <use id="arrowright" xlink:href="#arrowRight" x="0" y="0" onmousedown="handlePan(1,0)"/>
  <use id="arrowdown" xlink:href="#arrowDown" x="0" y="0" onmousedown="handlePan(0,1)"/>
  <use id="arrowleft" xlink:href="#arrowLeft" x="0" y="0" onmousedown="handlePan(-1,0)"/>
</g>
<svg viewBox="0 0 15 15" width="100%" height="30px" preserveAspectRatio="xMaxYMin meet">
 <g id="arrow_out" transform="scale(0.3 0.3)">
  <a xlink:href="class_particle_system_a5a3f496f17c45823c1afb465f903c531_icgraph_org.svg" target="_base">
   <rect id="button" ry="5" rx="5" y="6" x="6" height="38" width="38"
        fill="#f2f5e9" fill-opacity="0.5" stroke="#606060" stroke-width="1.0"/>
   <path id="arrow"
     d="M 11.500037,31.436501 C 11.940474,20.09759 22.043105,11.32322 32.158766,21.979434 L 37.068811,17.246167 C 37.068811,17.246167 37.088388,32 37.088388,32 L 22.160133,31.978069 C 22.160133,31.978069 26.997745,27.140456 26.997745,27.140456 C 18.528582,18.264221 13.291696,25.230495 11.500037,31.436501 z"
     style="fill:#404040;"/>
  </a>
 </g>
</svg>

<style type='text/css'>
<![CDATA[
[data-mouse-over-selected='false'] { opacity: 0.7; }
[data-mouse-over-selected='true']  { opacity: 1.0; }
]]>
</style>
<script type="application/ecmascript"><![CDATA[
document.addEventListener('DOMContentLoaded', (event) => {
  highlightEdges();
  highlightAdjacentNodes();
});
]]></script>
</svg>
