<?xml version="1.0" encoding="UTF-8" standalone="no"?>
<!DOCTYPE svg PUBLIC "-//W3C//DTD SVG 1.1//EN"
 "http://www.w3.org/Graphics/SVG/1.1/DTD/svg11.dtd">
<!-- Generated by graphviz version 10.0.1 (20240210.2158)
 -->
<!-- Title: SoundManager::updateMusicTrack Pages: 1 -->
<svg width="528pt" height="28pt"
 viewBox="0.00 0.00 527.75 28.00" xmlns="http://www.w3.org/2000/svg" xmlns:xlink="http://www.w3.org/1999/xlink">
<g id="graph0" class="graph" transform="scale(1 1) rotate(0) translate(4 24)">
<title>SoundManager::updateMusicTrack</title>
<!-- Node1 -->
<g id="Node000001" class="node">
<title>Node1</title>
<g id="a_Node000001"><a xlink:title="updates the track when the current one stops playing">
<polygon fill="#999999" stroke="#666666" points="166.75,-20 0,-20 0,0 166.75,0 166.75,-20"/>
<text text-anchor="middle" x="83.38" y="-6.5" font-family="Helvetica,sans-Serif" font-size="10.00">SoundManager::updateMusicTrack</text>
</a>
</g>
</g>
<!-- Node2 -->
<g id="Node000002" class="node">
<title>Node2</title>
<g id="a_Node000002"><a xlink:href="class_sound_manager.html#a4df606df9541a5513e5dcfd16f4b68b3" target="_top" xlink:title="plays the next track for music if there is any">
<polygon fill="white" stroke="#666666" points="352.25,-20 202.75,-20 202.75,0 352.25,0 352.25,-20"/>
<text text-anchor="middle" x="277.5" y="-6.5" font-family="Helvetica,sans-Serif" font-size="10.00">SoundManager::playNextTrack</text>
</a>
</g>
</g>
<!-- Node1&#45;&gt;Node2 -->
<g id="edge1_Node000001_Node000002" class="edge">
<title>Node1&#45;&gt;Node2</title>
<g id="a_edge1_Node000001_Node000002"><a xlink:title=" ">
<path fill="none" stroke="#63b8ff" d="M167.25,-10C175.09,-10 183.06,-10 190.93,-10"/>
<polygon fill="#63b8ff" stroke="#63b8ff" points="190.86,-13.5 200.86,-10 190.86,-6.5 190.86,-13.5"/>
</a>
</g>
</g>
<!-- Node3 -->
<g id="Node000003" class="node">
<title>Node3</title>
<g id="a_Node000003"><a xlink:href="class_sound_manager.html#a680ef232be763e1f839892e18937d74b" target="_top" xlink:title="plays music">
<polygon fill="white" stroke="#666666" points="519.75,-20 388.25,-20 388.25,0 519.75,0 519.75,-20"/>
<text text-anchor="middle" x="454" y="-6.5" font-family="Helvetica,sans-Serif" font-size="10.00">SoundManager::playMusic</text>
</a>
</g>
</g>
<!-- Node2&#45;&gt;Node3 -->
<g id="edge2_Node000002_Node000003" class="edge">
<title>Node2&#45;&gt;Node3</title>
<g id="a_edge2_Node000002_Node000003"><a xlink:title=" ">
<path fill="none" stroke="#63b8ff" d="M352.5,-10C360.52,-10 368.69,-10 376.74,-10"/>
<polygon fill="#63b8ff" stroke="#63b8ff" points="376.48,-13.5 386.48,-10 376.48,-6.5 376.48,-13.5"/>
</a>
</g>
</g>
</g>
</svg>
