<?xml version="1.0" encoding="UTF-8" standalone="no"?>
<!DOCTYPE svg PUBLIC "-//W3C//DTD SVG 1.1//EN"
 "http://www.w3.org/Graphics/SVG/1.1/DTD/svg11.dtd">
<!-- Generated by graphviz version 10.0.1 (20240210.2158)
 -->
<!-- Title: ParticleSystem::update Pages: 1 -->
<!--zoomable 370 -->

<svg id="main" version="1.1" xmlns="http://www.w3.org/2000/svg" xmlns:xlink="http://www.w3.org/1999/xlink" xml:space="preserve" onload="init(evt)">
<style type="text/css"><![CDATA[
.node, .edge {opacity: 0.7;}
.node.selected, .edge.selected {opacity: 1;}
.edge:hover path { stroke: red; }
.edge:hover polygon { stroke: red; fill: red; }
]]></style>

<defs>
  <circle id="rim" cx="0" cy="0" r="7"/>
  <circle id="rim2" cx="0" cy="0" r="3.5"/>
  <g id="zoomPlus">
    <use xlink:href="#rim" fill="#404040"><set attributeName="fill" to="#808080" begin="zoomplus.mouseover" end="zoomplus.mouseout"/></use>
    <path d="M-4,0h8M0,-4v8" fill="none" stroke="white" stroke-width="1.5" pointer-events="none"/>
  </g>
  <g id="zoomMin">
    <use xlink:href="#rim" fill="#404040"><set attributeName="fill" to="#808080" begin="zoomminus.mouseover" end="zoomminus.mouseout"/></use>
    <path d="M-4,0h8" fill="none" stroke="white" stroke-width="1.5" pointer-events="none"/>
  </g>
  <g id="arrowUp" transform="translate(30 24)">
    <use xlink:href="#rim"/>
    <path pointer-events="none" fill="none" stroke="white" stroke-width="1.5" d="M0,-3.0v7 M-2.5,-0.5L0,-3.0L2.5,-0.5"/>
  </g>
  <g id="arrowRight" transform="rotate(90) translate(36 -43)">
    <use xlink:href="#rim"/>
    <path pointer-events="none" fill="none" stroke="white" stroke-width="1.5" d="M0,-3.0v7 M-2.5,-0.5L0,-3.0L2.5,-0.5"/>
  </g>
  <g id="arrowDown" transform="rotate(180) translate(-30 -48)">
    <use xlink:href="#rim"/>
    <path pointer-events="none" fill="none" stroke="white" stroke-width="1.5" d="M0,-3.0v7 M-2.5,-0.5L0,-3.0L2.5,-0.5"/>
  </g>
  <g id="arrowLeft" transform="rotate(270) translate(-36 17)">
    <use xlink:href="#rim"/>
    <path pointer-events="none" fill="none" stroke="white" stroke-width="1.5" d="M0,-3.0v7 M-2.5,-0.5L0,-3.0L2.5,-0.5"/>
  </g>
  <g id="resetDef">
    <use xlink:href="#rim2" fill="#404040"><set attributeName="fill" to="#808080" begin="reset.mouseover" end="reset.mouseout"/></use>
  </g>
</defs>
<script type="application/ecmascript">
var viewWidth = 545;
var viewHeight = 370;
var sectionId = 'dynsection-3';
</script>
<script type="application/ecmascript" xlink:href="svg.min.js"/>
<svg id="graph" class="graph">
<g id="viewport">
<title>ParticleSystem::update</title>
<!-- Node1 -->
<g id="Node000001" class="node">
<title>Node1</title>
<g id="a_Node000001"><a xlink:title=" ">
<polygon fill="#999999" stroke="#666666" points="537.25,-191 419.25,-191 419.25,-171 537.25,-171 537.25,-191"/>
<text text-anchor="middle" x="478.25" y="-177.5" font-family="Helvetica,sans-Serif" font-size="10.00">ParticleSystem::update</text>
</a>
</g>
</g>
<!-- Node2 -->
<g id="Node000002" class="node">
<title>Node2</title>
<g id="a_Node000002"><a xlink:href="class_building.html#a92ed9c2981dbc964248a031cbef4fbec" target="_top" xlink:title=" ">
<polygon fill="white" stroke="#666666" points="383.25,-267 297.5,-267 297.5,-247 383.25,-247 383.25,-267"/>
<text text-anchor="middle" x="340.38" y="-253.5" font-family="Helvetica,sans-Serif" font-size="10.00">Building::update</text>
</a>
</g>
</g>
<!-- Node1&#45;&gt;Node2 -->
<g id="edge1_Node000001_Node000002" class="edge">
<title>Node1&#45;&gt;Node2</title>
<g id="a_edge1_Node000001_Node000002"><a xlink:title=" ">
<path fill="none" stroke="#63b8ff" d="M448.7,-196.97C421.9,-211.96 382.62,-233.93 359.76,-246.72"/>
<polygon fill="#63b8ff" stroke="#63b8ff" points="450.3,-200.08 457.32,-192.15 446.88,-193.97 450.3,-200.08"/>
</a>
</g>
</g>
<!-- Node8 -->
<g id="Node000008" class="node">
<title>Node8</title>
<g id="a_Node000008"><a xlink:href="class_unit.html#a1170c0150d547432074d11e0a5896494" target="_top" xlink:title=" ">
<polygon fill="white" stroke="#666666" points="374.62,-153 306.12,-153 306.12,-133 374.62,-133 374.62,-153"/>
<text text-anchor="middle" x="340.38" y="-139.5" font-family="Helvetica,sans-Serif" font-size="10.00">Unit::update</text>
</a>
</g>
</g>
<!-- Node1&#45;&gt;Node8 -->
<g id="edge7_Node000001_Node000008" class="edge">
<title>Node1&#45;&gt;Node8</title>
<g id="a_edge7_Node000001_Node000008"><a xlink:title=" ">
<path fill="none" stroke="#63b8ff" d="M428.71,-167.42C410.93,-162.45 391.22,-156.94 375.03,-152.41"/>
<polygon fill="#63b8ff" stroke="#63b8ff" points="427.73,-170.79 438.3,-170.11 429.62,-164.04 427.73,-170.79"/>
</a>
</g>
</g>
<!-- Node3 -->
<g id="Node000003" class="node">
<title>Node3</title>
<g id="a_Node000003"><a xlink:href="class_air_craft.html#a6f035076036ee054bbe29b8d8cb5028e" target="_top" xlink:title=" ">
<polygon fill="white" stroke="#666666" points="248.75,-362 165.25,-362 165.25,-342 248.75,-342 248.75,-362"/>
<text text-anchor="middle" x="207" y="-348.5" font-family="Helvetica,sans-Serif" font-size="10.00">AirCraft::update</text>
</a>
</g>
</g>
<!-- Node2&#45;&gt;Node3 -->
<g id="edge2_Node000002_Node000003" class="edge">
<title>Node2&#45;&gt;Node3</title>
<g id="a_edge2_Node000002_Node000003"><a xlink:title=" ">
<path fill="none" stroke="#63b8ff" d="M324.25,-275.84C309.73,-292.84 286.39,-317.49 261.5,-333 256.15,-336.34 250.13,-339.19 244.11,-341.6"/>
<polygon fill="#63b8ff" stroke="#63b8ff" points="326.69,-278.38 330.39,-268.46 321.31,-273.91 326.69,-278.38"/>
</a>
</g>
</g>
<!-- Node4 -->
<g id="Node000004" class="node">
<title>Node4</title>
<g id="a_Node000004"><a xlink:href="class_barracks.html#a78313b0a5805ab0f81f73d2ca4335931" target="_top" xlink:title=" ">
<polygon fill="white" stroke="#666666" points="252.12,-324 161.88,-324 161.88,-304 252.12,-304 252.12,-324"/>
<text text-anchor="middle" x="207" y="-310.5" font-family="Helvetica,sans-Serif" font-size="10.00">Barracks::update</text>
</a>
</g>
</g>
<!-- Node2&#45;&gt;Node4 -->
<g id="edge3_Node000002_Node000004" class="edge">
<title>Node2&#45;&gt;Node4</title>
<g id="a_edge3_Node000002_Node000004"><a xlink:title=" ">
<path fill="none" stroke="#63b8ff" d="M309.25,-272.69C294.95,-279.87 277.53,-288.27 261.5,-295 254.41,-297.98 246.68,-300.9 239.35,-303.53"/>
<polygon fill="#63b8ff" stroke="#63b8ff" points="310.82,-275.81 318.14,-268.16 307.64,-269.57 310.82,-275.81"/>
</a>
</g>
</g>
<!-- Node5 -->
<g id="Node000005" class="node">
<title>Node5</title>
<g id="a_Node000005"><a xlink:href="class_headquarters.html#a604008735607161a2403549c259792d9" target="_top" xlink:title=" ">
<polygon fill="white" stroke="#666666" points="261.5,-286 152.5,-286 152.5,-266 261.5,-266 261.5,-286"/>
<text text-anchor="middle" x="207" y="-272.5" font-family="Helvetica,sans-Serif" font-size="10.00">Headquarters::update</text>
</a>
</g>
</g>
<!-- Node2&#45;&gt;Node5 -->
<g id="edge4_Node000002_Node000005" class="edge">
<title>Node2&#45;&gt;Node5</title>
<g id="a_edge4_Node000002_Node000005"><a xlink:title=" ">
<path fill="none" stroke="#63b8ff" d="M285.72,-264.76C277.81,-265.9 269.66,-267.08 261.75,-268.23"/>
<polygon fill="#63b8ff" stroke="#63b8ff" points="286.19,-268.23 295.59,-263.33 285.19,-261.3 286.19,-268.23"/>
</a>
</g>
</g>
<!-- Node6 -->
<g id="Node000006" class="node">
<title>Node6</title>
<g id="a_Node000006"><a xlink:href="class_refinery.html#a7f43ed86e1e97891be7ed601fe69c8b4" target="_top" xlink:title=" ">
<polygon fill="white" stroke="#666666" points="250.25,-248 163.75,-248 163.75,-228 250.25,-228 250.25,-248"/>
<text text-anchor="middle" x="207" y="-234.5" font-family="Helvetica,sans-Serif" font-size="10.00">Refinery::update</text>
</a>
</g>
</g>
<!-- Node2&#45;&gt;Node6 -->
<g id="edge5_Node000002_Node000006" class="edge">
<title>Node2&#45;&gt;Node6</title>
<g id="a_edge5_Node000002_Node000006"><a xlink:title=" ">
<path fill="none" stroke="#63b8ff" d="M286.02,-249.28C274.25,-247.58 261.94,-245.8 250.66,-244.17"/>
<polygon fill="#63b8ff" stroke="#63b8ff" points="285.19,-252.7 295.59,-250.67 286.19,-245.77 285.19,-252.7"/>
</a>
</g>
</g>
<!-- Node7 -->
<g id="Node000007" class="node">
<title>Node7</title>
<g id="a_Node000007"><a xlink:href="class_war_factory.html#ab12942856bdd178f522837c0410b0933" target="_top" xlink:title=" ">
<polygon fill="white" stroke="#666666" points="258.12,-210 155.88,-210 155.88,-190 258.12,-190 258.12,-210"/>
<text text-anchor="middle" x="207" y="-196.5" font-family="Helvetica,sans-Serif" font-size="10.00">WarFactory::update</text>
</a>
</g>
</g>
<!-- Node2&#45;&gt;Node7 -->
<g id="edge6_Node000002_Node000007" class="edge">
<title>Node2&#45;&gt;Node7</title>
<g id="a_edge6_Node000002_Node000007"><a xlink:title=" ">
<path fill="none" stroke="#63b8ff" d="M309.25,-241.31C294.95,-234.13 277.53,-225.73 261.5,-219 254.41,-216.02 246.68,-213.1 239.35,-210.47"/>
<polygon fill="#63b8ff" stroke="#63b8ff" points="307.64,-244.43 318.14,-245.84 310.82,-238.19 307.64,-244.43"/>
</a>
</g>
</g>
<!-- Node9 -->
<g id="Node000009" class="node">
<title>Node9</title>
<g id="a_Node000009"><a xlink:href="class_aircraft_unit.html#a383a50ac692f739ef21306ba9860c4e5" target="_top" xlink:title=" ">
<polygon fill="white" stroke="#666666" points="256.62,-172 157.38,-172 157.38,-152 256.62,-152 256.62,-172"/>
<text text-anchor="middle" x="207" y="-158.5" font-family="Helvetica,sans-Serif" font-size="10.00">AircraftUnit::update</text>
</a>
</g>
</g>
<!-- Node8&#45;&gt;Node9 -->
<g id="edge8_Node000008_Node000009" class="edge">
<title>Node8&#45;&gt;Node9</title>
<g id="a_edge8_Node000008_Node000009"><a xlink:title=" ">
<path fill="none" stroke="#63b8ff" d="M294.66,-149.47C282.56,-151.22 269.39,-153.12 257.06,-154.91"/>
<polygon fill="#63b8ff" stroke="#63b8ff" points="294.99,-152.96 304.39,-148.06 293.99,-146.03 294.99,-152.96"/>
</a>
</g>
</g>
<!-- Node12 -->
<g id="Node000012" class="node">
<title>Node12</title>
<g id="a_Node000012"><a xlink:href="class_infantry_unit.html#aabd1427d781ff0e5ae2b21bbe67e4c84" target="_top" xlink:title=" ">
<polygon fill="white" stroke="#666666" points="257,-134 157,-134 157,-114 257,-114 257,-134"/>
<text text-anchor="middle" x="207" y="-120.5" font-family="Helvetica,sans-Serif" font-size="10.00">InfantryUnit::update</text>
</a>
</g>
</g>
<!-- Node8&#45;&gt;Node12 -->
<g id="edge11_Node000008_Node000012" class="edge">
<title>Node8&#45;&gt;Node12</title>
<g id="a_edge11_Node000008_Node000012"><a xlink:title=" ">
<path fill="none" stroke="#63b8ff" d="M294.72,-136.54C282.68,-134.8 269.59,-132.91 257.31,-131.13"/>
<polygon fill="#63b8ff" stroke="#63b8ff" points="293.99,-139.97 304.39,-137.94 294.99,-133.04 293.99,-139.97"/>
</a>
</g>
</g>
<!-- Node14 -->
<g id="Node000014" class="node">
<title>Node14</title>
<g id="a_Node000014"><a xlink:href="class_vehicle_unit.html#a8509cb11b318348f4953dae4932ea071" target="_top" xlink:title=" ">
<polygon fill="white" stroke="#666666" points="257.38,-77 156.62,-77 156.62,-57 257.38,-57 257.38,-77"/>
<text text-anchor="middle" x="207" y="-63.5" font-family="Helvetica,sans-Serif" font-size="10.00">VehicleUnit::update</text>
</a>
</g>
</g>
<!-- Node8&#45;&gt;Node14 -->
<g id="edge13_Node000008_Node000014" class="edge">
<title>Node8&#45;&gt;Node14</title>
<g id="a_edge13_Node000008_Node000014"><a xlink:title=" ">
<path fill="none" stroke="#63b8ff" d="M311.43,-126.83C285.53,-111.85 247.78,-90.01 225.77,-77.28"/>
<polygon fill="#63b8ff" stroke="#63b8ff" points="309.66,-129.86 320.07,-131.83 313.17,-123.8 309.66,-129.86"/>
</a>
</g>
</g>
<!-- Node10 -->
<g id="Node000010" class="node">
<title>Node10</title>
<g id="a_Node000010"><a xlink:href="class_firehawk.html#a39f1f9ed23fa4203edf940c9057b8b2a" target="_top" xlink:title=" ">
<polygon fill="white" stroke="#666666" points="103.38,-210 13.12,-210 13.12,-190 103.38,-190 103.38,-210"/>
<text text-anchor="middle" x="58.25" y="-196.5" font-family="Helvetica,sans-Serif" font-size="10.00">Firehawk::update</text>
</a>
</g>
</g>
<!-- Node9&#45;&gt;Node10 -->
<g id="edge9_Node000009_Node000010" class="edge">
<title>Node9&#45;&gt;Node10</title>
<g id="a_edge9_Node000009_Node000010"><a xlink:title=" ">
<path fill="none" stroke="#63b8ff" d="M154.59,-175.31C136.56,-179.98 116.59,-185.15 99.61,-189.55"/>
<polygon fill="#63b8ff" stroke="#63b8ff" points="155.24,-178.76 164.05,-172.86 153.49,-171.98 155.24,-178.76"/>
</a>
</g>
</g>
<!-- Node11 -->
<g id="Node000011" class="node">
<title>Node11</title>
<g id="a_Node000011"><a xlink:href="class_hammer_head.html#a57c18e3d80cb32b40aa995bf76f59949" target="_top" xlink:title=" ">
<polygon fill="white" stroke="#666666" points="113.5,-172 3,-172 3,-152 113.5,-152 113.5,-172"/>
<text text-anchor="middle" x="58.25" y="-158.5" font-family="Helvetica,sans-Serif" font-size="10.00">HammerHead::update</text>
</a>
</g>
</g>
<!-- Node9&#45;&gt;Node11 -->
<g id="edge10_Node000009_Node000011" class="edge">
<title>Node9&#45;&gt;Node11</title>
<g id="a_edge10_Node000009_Node000011"><a xlink:title=" ">
<path fill="none" stroke="#63b8ff" d="M145.87,-162C135.31,-162 124.38,-162 113.98,-162"/>
<polygon fill="#63b8ff" stroke="#63b8ff" points="145.62,-165.5 155.62,-162 145.62,-158.5 145.62,-165.5"/>
</a>
</g>
</g>
<!-- Node13 -->
<g id="Node000013" class="node">
<title>Node13</title>
<g id="a_Node000013"><a xlink:href="class_rifleman_squad.html#a4050724b94874b38c91944bbf319cc34" target="_top" xlink:title=" ">
<polygon fill="white" stroke="#666666" points="116.5,-134 0,-134 0,-114 116.5,-114 116.5,-134"/>
<text text-anchor="middle" x="58.25" y="-120.5" font-family="Helvetica,sans-Serif" font-size="10.00">RiflemanSquad::update</text>
</a>
</g>
</g>
<!-- Node12&#45;&gt;Node13 -->
<g id="edge12_Node000012_Node000013" class="edge">
<title>Node12&#45;&gt;Node13</title>
<g id="a_edge12_Node000012_Node000013"><a xlink:title=" ">
<path fill="none" stroke="#63b8ff" d="M145.37,-124C135.91,-124 126.16,-124 116.77,-124"/>
<polygon fill="#63b8ff" stroke="#63b8ff" points="145.21,-127.5 155.21,-124 145.21,-120.5 145.21,-127.5"/>
</a>
</g>
</g>
<!-- Node15 -->
<g id="Node000015" class="node">
<title>Node15</title>
<g id="a_Node000015"><a xlink:href="class_tank_aurora.html#a929635e820b74db6381f9ea239b57178" target="_top" xlink:title=" ">
<polygon fill="white" stroke="#666666" points="108.62,-96 7.88,-96 7.88,-76 108.62,-76 108.62,-96"/>
<text text-anchor="middle" x="58.25" y="-82.5" font-family="Helvetica,sans-Serif" font-size="10.00">TankAurora::update</text>
</a>
</g>
</g>
<!-- Node14&#45;&gt;Node15 -->
<g id="edge14_Node000014_Node000015" class="edge">
<title>Node14&#45;&gt;Node15</title>
<g id="a_edge14_Node000014_Node000015"><a xlink:title=" ">
<path fill="none" stroke="#63b8ff" d="M144.97,-74.9C132.95,-76.46 120.47,-78.07 108.88,-79.57"/>
<polygon fill="#63b8ff" stroke="#63b8ff" points="145.35,-78.38 154.82,-73.63 144.45,-71.44 145.35,-78.38"/>
</a>
</g>
</g>
<!-- Node16 -->
<g id="Node000016" class="node">
<title>Node16</title>
<g id="a_Node000016"><a xlink:href="class_buggy.html#a14e9377226ef591039712bc6f0cfa061" target="_top" xlink:title=" ">
<polygon fill="white" stroke="#666666" points="97.75,-58 18.75,-58 18.75,-38 97.75,-38 97.75,-58"/>
<text text-anchor="middle" x="58.25" y="-44.5" font-family="Helvetica,sans-Serif" font-size="10.00">Buggy::update</text>
</a>
</g>
</g>
<!-- Node14&#45;&gt;Node16 -->
<g id="edge15_Node000014_Node000016" class="edge">
<title>Node14&#45;&gt;Node16</title>
<g id="a_edge15_Node000014_Node000016"><a xlink:title=" ">
<path fill="none" stroke="#63b8ff" d="M144.98,-59.1C129.16,-57.05 112.56,-54.9 98.22,-53.04"/>
<polygon fill="#63b8ff" stroke="#63b8ff" points="144.45,-62.56 154.82,-60.37 145.35,-55.62 144.45,-62.56"/>
</a>
</g>
</g>
<!-- Node17 -->
<g id="Node000017" class="node">
<title>Node17</title>
<g id="a_Node000017"><a xlink:href="class_harvester.html#ac6e106e888fc20099bba4f57f833c216" target="_top" xlink:title=" ">
<polygon fill="white" stroke="#666666" points="104.12,-20 12.38,-20 12.38,0 104.12,0 104.12,-20"/>
<text text-anchor="middle" x="58.25" y="-6.5" font-family="Helvetica,sans-Serif" font-size="10.00">Harvester::update</text>
</a>
</g>
</g>
<!-- Node14&#45;&gt;Node17 -->
<g id="edge16_Node000014_Node000017" class="edge">
<title>Node14&#45;&gt;Node17</title>
<g id="a_edge16_Node000014_Node000017"><a xlink:title=" ">
<path fill="none" stroke="#63b8ff" d="M172.66,-52.09C155.93,-44.8 135.28,-36.09 116.5,-29 108.76,-26.08 100.35,-23.15 92.41,-20.5"/>
<polygon fill="#63b8ff" stroke="#63b8ff" points="171.08,-55.21 181.64,-56.03 173.89,-48.8 171.08,-55.21"/>
</a>
</g>
</g>
</g>
</svg>

<g id="navigator" transform="translate(0 0)" fill="#404254">
  <rect fill="#f2f5e9" fill-opacity="0.5" stroke="#606060" stroke-width=".5" x="0" y="0" width="60" height="60"/>
  <use id="zoomplus" xlink:href="#zoomPlus" x="17" y="9" onmousedown="handleZoom(evt,'in')"/>
  <use id="zoomminus" xlink:href="#zoomMin" x="42" y="9" onmousedown="handleZoom(evt,'out')"/>
  <use id="reset" xlink:href="#resetDef" x="30" y="36" onmousedown="handleReset()"/>
   <use id="arrowup" xlink:href="#arrowUp" x="0" y="0" onmousedown="handlePan(0,-1)"/>
  <use id="arrowright" xlink:href="#arrowRight" x="0" y="0" onmousedown="handlePan(1,0)"/>
  <use id="arrowdown" xlink:href="#arrowDown" x="0" y="0" onmousedown="handlePan(0,1)"/>
  <use id="arrowleft" xlink:href="#arrowLeft" x="0" y="0" onmousedown="handlePan(-1,0)"/>
</g>
<svg viewBox="0 0 15 15" width="100%" height="30px" preserveAspectRatio="xMaxYMin meet">
 <g id="arrow_out" transform="scale(0.3 0.3)">
  <a xlink:href="class_particle_system_ad395c1ed8a4e35546ab040dc75955732_icgraph_org.svg" target="_base">
   <rect id="button" ry="5" rx="5" y="6" x="6" height="38" width="38"
        fill="#f2f5e9" fill-opacity="0.5" stroke="#606060" stroke-width="1.0"/>
   <path id="arrow"
     d="M 11.500037,31.436501 C 11.940474,20.09759 22.043105,11.32322 32.158766,21.979434 L 37.068811,17.246167 C 37.068811,17.246167 37.088388,32 37.088388,32 L 22.160133,31.978069 C 22.160133,31.978069 26.997745,27.140456 26.997745,27.140456 C 18.528582,18.264221 13.291696,25.230495 11.500037,31.436501 z"
     style="fill:#404040;"/>
  </a>
 </g>
</svg>

<style type='text/css'>
<![CDATA[
[data-mouse-over-selected='false'] { opacity: 0.7; }
[data-mouse-over-selected='true']  { opacity: 1.0; }
]]>
</style>
<script type="application/ecmascript"><![CDATA[
document.addEventListener('DOMContentLoaded', (event) => {
  highlightEdges();
  highlightAdjacentNodes();
});
]]></script>
</svg>
