<?xml version="1.0" encoding="UTF-8" standalone="no"?>
<!DOCTYPE svg PUBLIC "-//W3C//DTD SVG 1.1//EN"
 "http://www.w3.org/Graphics/SVG/1.1/DTD/svg11.dtd">
<!-- Generated by graphviz version 10.0.1 (20240210.2158)
 -->
<!-- Title: Unit::getPosition Pages: 1 -->
<!--zoomable 218 -->

<svg id="main" version="1.1" xmlns="http://www.w3.org/2000/svg" xmlns:xlink="http://www.w3.org/1999/xlink" xml:space="preserve" onload="init(evt)">
<style type="text/css"><![CDATA[
.node, .edge {opacity: 0.7;}
.node.selected, .edge.selected {opacity: 1;}
.edge:hover path { stroke: red; }
.edge:hover polygon { stroke: red; fill: red; }
]]></style>

<defs>
  <circle id="rim" cx="0" cy="0" r="7"/>
  <circle id="rim2" cx="0" cy="0" r="3.5"/>
  <g id="zoomPlus">
    <use xlink:href="#rim" fill="#404040"><set attributeName="fill" to="#808080" begin="zoomplus.mouseover" end="zoomplus.mouseout"/></use>
    <path d="M-4,0h8M0,-4v8" fill="none" stroke="white" stroke-width="1.5" pointer-events="none"/>
  </g>
  <g id="zoomMin">
    <use xlink:href="#rim" fill="#404040"><set attributeName="fill" to="#808080" begin="zoomminus.mouseover" end="zoomminus.mouseout"/></use>
    <path d="M-4,0h8" fill="none" stroke="white" stroke-width="1.5" pointer-events="none"/>
  </g>
  <g id="arrowUp" transform="translate(30 24)">
    <use xlink:href="#rim"/>
    <path pointer-events="none" fill="none" stroke="white" stroke-width="1.5" d="M0,-3.0v7 M-2.5,-0.5L0,-3.0L2.5,-0.5"/>
  </g>
  <g id="arrowRight" transform="rotate(90) translate(36 -43)">
    <use xlink:href="#rim"/>
    <path pointer-events="none" fill="none" stroke="white" stroke-width="1.5" d="M0,-3.0v7 M-2.5,-0.5L0,-3.0L2.5,-0.5"/>
  </g>
  <g id="arrowDown" transform="rotate(180) translate(-30 -48)">
    <use xlink:href="#rim"/>
    <path pointer-events="none" fill="none" stroke="white" stroke-width="1.5" d="M0,-3.0v7 M-2.5,-0.5L0,-3.0L2.5,-0.5"/>
  </g>
  <g id="arrowLeft" transform="rotate(270) translate(-36 17)">
    <use xlink:href="#rim"/>
    <path pointer-events="none" fill="none" stroke="white" stroke-width="1.5" d="M0,-3.0v7 M-2.5,-0.5L0,-3.0L2.5,-0.5"/>
  </g>
  <g id="resetDef">
    <use xlink:href="#rim2" fill="#404040"><set attributeName="fill" to="#808080" begin="reset.mouseover" end="reset.mouseout"/></use>
  </g>
</defs>
<script type="application/ecmascript">
var viewWidth = 674;
var viewHeight = 218;
var sectionId = 'dynsection-12';
</script>
<script type="application/ecmascript" xlink:href="svg.min.js"/>
<svg id="graph" class="graph">
<g id="viewport">
<title>Unit::getPosition</title>
<!-- Node1 -->
<g id="Node000001" class="node">
<title>Node1</title>
<g id="a_Node000001"><a xlink:title=" ">
<polygon fill="#999999" stroke="#666666" points="665.75,-157 577.75,-157 577.75,-137 665.75,-137 665.75,-157"/>
<text text-anchor="middle" x="621.75" y="-143.5" font-family="Helvetica,sans-Serif" font-size="10.00">Unit::getPosition</text>
</a>
</g>
</g>
<!-- Node2 -->
<g id="Node000002" class="node">
<title>Node2</title>
<g id="a_Node000002"><a xlink:href="class_unit.html#a5a0d56542c689f13276b9db77c1b36d8" target="_top" xlink:title="its to avoid colliding with each other">
<polygon fill="white" stroke="#666666" points="540.62,-119 394.88,-119 394.88,-99 540.62,-99 540.62,-119"/>
<text text-anchor="middle" x="467.75" y="-105.5" font-family="Helvetica,sans-Serif" font-size="10.00">Unit::avoidCollisionsWithUnits</text>
</a>
</g>
</g>
<!-- Node1&#45;&gt;Node2 -->
<g id="edge1_Node000001_Node000002" class="edge">
<title>Node1&#45;&gt;Node2</title>
<g id="a_edge1_Node000001_Node000002"><a xlink:title=" ">
<path fill="none" stroke="#63b8ff" d="M567.76,-133.75C549.02,-129.07 528.23,-123.87 510.55,-119.45"/>
<polygon fill="#63b8ff" stroke="#63b8ff" points="566.79,-137.12 577.34,-136.15 568.49,-130.33 566.79,-137.12"/>
</a>
</g>
</g>
<!-- Node10 -->
<g id="Node000010" class="node">
<title>Node10</title>
<g id="a_Node000010"><a xlink:href="class_tank_aurora.html#a929635e820b74db6381f9ea239b57178" target="_top" xlink:title=" ">
<polygon fill="white" stroke="#666666" points="108.62,-210 7.88,-210 7.88,-190 108.62,-190 108.62,-210"/>
<text text-anchor="middle" x="58.25" y="-196.5" font-family="Helvetica,sans-Serif" font-size="10.00">TankAurora::update</text>
</a>
</g>
</g>
<!-- Node1&#45;&gt;Node10 -->
<g id="edge14_Node000001_Node000010" class="edge">
<title>Node1&#45;&gt;Node10</title>
<g id="a_edge14_Node000001_Node000010"><a xlink:title=" ">
<path fill="none" stroke="#63b8ff" d="M571.9,-160.08C561.98,-162.36 551.58,-164.48 541.75,-166 384.9,-190.22 196.66,-197.21 108.87,-199.21"/>
<polygon fill="#63b8ff" stroke="#63b8ff" points="572.45,-163.55 581.36,-157.82 570.82,-156.74 572.45,-163.55"/>
</a>
</g>
</g>
<!-- Node13 -->
<g id="Node000013" class="node">
<title>Node13</title>
<g id="a_Node000013"><a xlink:href="class_unit.html#ae5032b9bfa0290392ae1a33c2525a18f" target="_top" xlink:title="To avoid walls for units.">
<polygon fill="white" stroke="#666666" points="541.75,-157 393.75,-157 393.75,-137 541.75,-137 541.75,-157"/>
<text text-anchor="middle" x="467.75" y="-143.5" font-family="Helvetica,sans-Serif" font-size="10.00">Unit::avoidCollisionsWithWalls</text>
</a>
</g>
</g>
<!-- Node1&#45;&gt;Node13 -->
<g id="edge12_Node000001_Node000013" class="edge">
<title>Node1&#45;&gt;Node13</title>
<g id="a_edge12_Node000001_Node000013"><a xlink:title=" ">
<path fill="none" stroke="#63b8ff" d="M566.11,-147C558.35,-147 550.26,-147 542.21,-147"/>
<polygon fill="#63b8ff" stroke="#63b8ff" points="566.09,-150.5 576.09,-147 566.09,-143.5 566.09,-150.5"/>
</a>
</g>
</g>
<!-- Node3 -->
<g id="Node000003" class="node">
<title>Node3</title>
<g id="a_Node000003"><a xlink:href="class_unit.html#a1170c0150d547432074d11e0a5896494" target="_top" xlink:title=" ">
<polygon fill="white" stroke="#666666" points="357.75,-119 289.25,-119 289.25,-99 357.75,-99 357.75,-119"/>
<text text-anchor="middle" x="323.5" y="-105.5" font-family="Helvetica,sans-Serif" font-size="10.00">Unit::update</text>
</a>
</g>
</g>
<!-- Node2&#45;&gt;Node3 -->
<g id="edge2_Node000002_Node000003" class="edge">
<title>Node2&#45;&gt;Node3</title>
<g id="a_edge2_Node000002_Node000003"><a xlink:title=" ">
<path fill="none" stroke="#63b8ff" d="M383.43,-109C374.54,-109 365.9,-109 358.11,-109"/>
<polygon fill="#63b8ff" stroke="#63b8ff" points="383.28,-112.5 393.28,-109 383.28,-105.5 383.28,-112.5"/>
</a>
</g>
</g>
<!-- Node4 -->
<g id="Node000004" class="node">
<title>Node4</title>
<g id="a_Node000004"><a xlink:href="class_aircraft_unit.html#a383a50ac692f739ef21306ba9860c4e5" target="_top" xlink:title=" ">
<polygon fill="white" stroke="#666666" points="252.5,-58 153.25,-58 153.25,-38 252.5,-38 252.5,-58"/>
<text text-anchor="middle" x="202.88" y="-44.5" font-family="Helvetica,sans-Serif" font-size="10.00">AircraftUnit::update</text>
</a>
</g>
</g>
<!-- Node3&#45;&gt;Node4 -->
<g id="edge3_Node000003_Node000004" class="edge">
<title>Node3&#45;&gt;Node4</title>
<g id="a_edge3_Node000003_Node000004"><a xlink:title=" ">
<path fill="none" stroke="#63b8ff" d="M291.91,-93.27C270.54,-82.28 242.61,-67.92 224,-58.35"/>
<polygon fill="#63b8ff" stroke="#63b8ff" points="290.27,-96.36 300.76,-97.82 293.47,-90.14 290.27,-96.36"/>
</a>
</g>
</g>
<!-- Node7 -->
<g id="Node000007" class="node">
<title>Node7</title>
<g id="a_Node000007"><a xlink:href="class_infantry_unit.html#aabd1427d781ff0e5ae2b21bbe67e4c84" target="_top" xlink:title=" ">
<polygon fill="white" stroke="#666666" points="252.88,-115 152.88,-115 152.88,-95 252.88,-95 252.88,-115"/>
<text text-anchor="middle" x="202.88" y="-101.5" font-family="Helvetica,sans-Serif" font-size="10.00">InfantryUnit::update</text>
</a>
</g>
</g>
<!-- Node3&#45;&gt;Node7 -->
<g id="edge6_Node000003_Node000007" class="edge">
<title>Node3&#45;&gt;Node7</title>
<g id="a_edge6_Node000003_Node000007"><a xlink:title=" ">
<path fill="none" stroke="#63b8ff" d="M277.49,-107.48C269.53,-107.21 261.21,-106.93 253.14,-106.66"/>
<polygon fill="#63b8ff" stroke="#63b8ff" points="277.2,-110.97 287.31,-107.81 277.44,-103.98 277.2,-110.97"/>
</a>
</g>
</g>
<!-- Node9 -->
<g id="Node000009" class="node">
<title>Node9</title>
<g id="a_Node000009"><a xlink:href="class_vehicle_unit.html#a8509cb11b318348f4953dae4932ea071" target="_top" xlink:title=" ">
<polygon fill="white" stroke="#666666" points="253.25,-153 152.5,-153 152.5,-133 253.25,-133 253.25,-153"/>
<text text-anchor="middle" x="202.88" y="-139.5" font-family="Helvetica,sans-Serif" font-size="10.00">VehicleUnit::update</text>
</a>
</g>
</g>
<!-- Node3&#45;&gt;Node9 -->
<g id="edge8_Node000003_Node000009" class="edge">
<title>Node3&#45;&gt;Node9</title>
<g id="a_edge8_Node000003_Node000009"><a xlink:title=" ">
<path fill="none" stroke="#63b8ff" d="M278.12,-121.72C265.59,-125.31 252.12,-129.17 240.13,-132.61"/>
<polygon fill="#63b8ff" stroke="#63b8ff" points="278.72,-125.19 287.37,-119.07 276.79,-118.46 278.72,-125.19"/>
</a>
</g>
</g>
<!-- Node5 -->
<g id="Node000005" class="node">
<title>Node5</title>
<g id="a_Node000005"><a xlink:href="class_firehawk.html#a39f1f9ed23fa4203edf940c9057b8b2a" target="_top" xlink:title=" ">
<polygon fill="white" stroke="#666666" points="103.38,-20 13.12,-20 13.12,0 103.38,0 103.38,-20"/>
<text text-anchor="middle" x="58.25" y="-6.5" font-family="Helvetica,sans-Serif" font-size="10.00">Firehawk::update</text>
</a>
</g>
</g>
<!-- Node4&#45;&gt;Node5 -->
<g id="edge4_Node000004_Node000005" class="edge">
<title>Node4&#45;&gt;Node5</title>
<g id="a_edge4_Node000004_Node000005"><a xlink:title=" ">
<path fill="none" stroke="#63b8ff" d="M151.41,-34.55C134.02,-29.92 114.83,-24.81 98.47,-20.45"/>
<polygon fill="#63b8ff" stroke="#63b8ff" points="150.5,-37.93 161.06,-37.13 152.3,-31.17 150.5,-37.93"/>
</a>
</g>
</g>
<!-- Node6 -->
<g id="Node000006" class="node">
<title>Node6</title>
<g id="a_Node000006"><a xlink:href="class_hammer_head.html#a57c18e3d80cb32b40aa995bf76f59949" target="_top" xlink:title=" ">
<polygon fill="white" stroke="#666666" points="113.5,-58 3,-58 3,-38 113.5,-38 113.5,-58"/>
<text text-anchor="middle" x="58.25" y="-44.5" font-family="Helvetica,sans-Serif" font-size="10.00">HammerHead::update</text>
</a>
</g>
</g>
<!-- Node4&#45;&gt;Node6 -->
<g id="edge5_Node000004_Node000006" class="edge">
<title>Node4&#45;&gt;Node6</title>
<g id="a_edge5_Node000004_Node000006"><a xlink:title=" ">
<path fill="none" stroke="#63b8ff" d="M141.37,-48C132.22,-48 122.82,-48 113.8,-48"/>
<polygon fill="#63b8ff" stroke="#63b8ff" points="141.28,-51.5 151.28,-48 141.28,-44.5 141.28,-51.5"/>
</a>
</g>
</g>
<!-- Node8 -->
<g id="Node000008" class="node">
<title>Node8</title>
<g id="a_Node000008"><a xlink:href="class_rifleman_squad.html#a4050724b94874b38c91944bbf319cc34" target="_top" xlink:title=" ">
<polygon fill="white" stroke="#666666" points="116.5,-96 0,-96 0,-76 116.5,-76 116.5,-96"/>
<text text-anchor="middle" x="58.25" y="-82.5" font-family="Helvetica,sans-Serif" font-size="10.00">RiflemanSquad::update</text>
</a>
</g>
</g>
<!-- Node7&#45;&gt;Node8 -->
<g id="edge7_Node000007_Node000008" class="edge">
<title>Node7&#45;&gt;Node8</title>
<g id="a_edge7_Node000007_Node000008"><a xlink:title=" ">
<path fill="none" stroke="#63b8ff" d="M141.2,-96.92C133.17,-95.85 124.95,-94.75 116.97,-93.69"/>
<polygon fill="#63b8ff" stroke="#63b8ff" points="140.52,-100.36 150.89,-98.21 141.44,-93.42 140.52,-100.36"/>
</a>
</g>
</g>
<!-- Node9&#45;&gt;Node10 -->
<g id="edge9_Node000009_Node000010" class="edge">
<title>Node9&#45;&gt;Node10</title>
<g id="a_edge9_Node000009_Node000010"><a xlink:title=" ">
<path fill="none" stroke="#63b8ff" d="M169.68,-158.23C153.82,-165.5 134.32,-174.1 116.5,-181 108.79,-183.99 100.38,-186.94 92.45,-189.6"/>
<polygon fill="#63b8ff" stroke="#63b8ff" points="171.04,-161.46 178.64,-154.08 168.1,-155.11 171.04,-161.46"/>
</a>
</g>
</g>
<!-- Node11 -->
<g id="Node000011" class="node">
<title>Node11</title>
<g id="a_Node000011"><a xlink:href="class_buggy.html#a14e9377226ef591039712bc6f0cfa061" target="_top" xlink:title=" ">
<polygon fill="white" stroke="#666666" points="97.75,-134 18.75,-134 18.75,-114 97.75,-114 97.75,-134"/>
<text text-anchor="middle" x="58.25" y="-120.5" font-family="Helvetica,sans-Serif" font-size="10.00">Buggy::update</text>
</a>
</g>
</g>
<!-- Node9&#45;&gt;Node11 -->
<g id="edge10_Node000009_Node000011" class="edge">
<title>Node9&#45;&gt;Node11</title>
<g id="a_edge10_Node000009_Node000011"><a xlink:title=" ">
<path fill="none" stroke="#63b8ff" d="M141.3,-134.93C126.58,-132.97 111.24,-130.93 97.85,-129.14"/>
<polygon fill="#63b8ff" stroke="#63b8ff" points="140.52,-138.36 150.89,-136.21 141.44,-131.42 140.52,-138.36"/>
</a>
</g>
</g>
<!-- Node12 -->
<g id="Node000012" class="node">
<title>Node12</title>
<g id="a_Node000012"><a xlink:href="class_harvester.html#ac6e106e888fc20099bba4f57f833c216" target="_top" xlink:title=" ">
<polygon fill="white" stroke="#666666" points="104.12,-172 12.38,-172 12.38,-152 104.12,-152 104.12,-172"/>
<text text-anchor="middle" x="58.25" y="-158.5" font-family="Helvetica,sans-Serif" font-size="10.00">Harvester::update</text>
</a>
</g>
</g>
<!-- Node9&#45;&gt;Node12 -->
<g id="edge11_Node000009_Node000012" class="edge">
<title>Node9&#45;&gt;Node12</title>
<g id="a_edge11_Node000009_Node000012"><a xlink:title=" ">
<path fill="none" stroke="#63b8ff" d="M141.21,-151.08C128.85,-152.73 116.05,-154.43 104.35,-155.99"/>
<polygon fill="#63b8ff" stroke="#63b8ff" points="141.44,-154.58 150.89,-149.79 140.52,-147.64 141.44,-154.58"/>
</a>
</g>
</g>
<!-- Node13&#45;&gt;Node3 -->
<g id="edge13_Node000013_Node000003" class="edge">
<title>Node13&#45;&gt;Node3</title>
<g id="a_edge13_Node000013_Node000003"><a xlink:title=" ">
<path fill="none" stroke="#63b8ff" d="M415.07,-133.64C407.9,-131.76 400.64,-129.84 393.75,-128 382.07,-124.88 369.3,-121.39 357.94,-118.27"/>
<polygon fill="#63b8ff" stroke="#63b8ff" points="414.16,-137.02 424.72,-136.16 415.93,-130.25 414.16,-137.02"/>
</a>
</g>
</g>
</g>
</svg>

<g id="navigator" transform="translate(0 0)" fill="#404254">
  <rect fill="#f2f5e9" fill-opacity="0.5" stroke="#606060" stroke-width=".5" x="0" y="0" width="60" height="60"/>
  <use id="zoomplus" xlink:href="#zoomPlus" x="17" y="9" onmousedown="handleZoom(evt,'in')"/>
  <use id="zoomminus" xlink:href="#zoomMin" x="42" y="9" onmousedown="handleZoom(evt,'out')"/>
  <use id="reset" xlink:href="#resetDef" x="30" y="36" onmousedown="handleReset()"/>
   <use id="arrowup" xlink:href="#arrowUp" x="0" y="0" onmousedown="handlePan(0,-1)"/>
  <use id="arrowright" xlink:href="#arrowRight" x="0" y="0" onmousedown="handlePan(1,0)"/>
  <use id="arrowdown" xlink:href="#arrowDown" x="0" y="0" onmousedown="handlePan(0,1)"/>
  <use id="arrowleft" xlink:href="#arrowLeft" x="0" y="0" onmousedown="handlePan(-1,0)"/>
</g>
<svg viewBox="0 0 15 15" width="100%" height="30px" preserveAspectRatio="xMaxYMin meet">
 <g id="arrow_out" transform="scale(0.3 0.3)">
  <a xlink:href="class_unit_aa33e6fe8098210a9aeac019345f8a235_icgraph_org.svg" target="_base">
   <rect id="button" ry="5" rx="5" y="6" x="6" height="38" width="38"
        fill="#f2f5e9" fill-opacity="0.5" stroke="#606060" stroke-width="1.0"/>
   <path id="arrow"
     d="M 11.500037,31.436501 C 11.940474,20.09759 22.043105,11.32322 32.158766,21.979434 L 37.068811,17.246167 C 37.068811,17.246167 37.088388,32 37.088388,32 L 22.160133,31.978069 C 22.160133,31.978069 26.997745,27.140456 26.997745,27.140456 C 18.528582,18.264221 13.291696,25.230495 11.500037,31.436501 z"
     style="fill:#404040;"/>
  </a>
 </g>
</svg>

<style type='text/css'>
<![CDATA[
[data-mouse-over-selected='false'] { opacity: 0.7; }
[data-mouse-over-selected='true']  { opacity: 1.0; }
]]>
</style>
<script type="application/ecmascript"><![CDATA[
document.addEventListener('DOMContentLoaded', (event) => {
  highlightEdges();
  highlightAdjacentNodes();
});
]]></script>
</svg>
