<?xml version="1.0" encoding="UTF-8" standalone="no"?>
<!DOCTYPE svg PUBLIC "-//W3C//DTD SVG 1.1//EN"
 "http://www.w3.org/Graphics/SVG/1.1/DTD/svg11.dtd">
<!-- Generated by graphviz version 10.0.1 (20240210.2158)
 -->
<!-- Title: RiflemanSquad::render Pages: 1 -->
<svg width="510pt" height="28pt"
 viewBox="0.00 0.00 510.00 28.00" xmlns="http://www.w3.org/2000/svg" xmlns:xlink="http://www.w3.org/1999/xlink">
<g id="graph0" class="graph" transform="scale(1 1) rotate(0) translate(4 24)">
<title>RiflemanSquad::render</title>
<!-- Node1 -->
<g id="Node000001" class="node">
<title>Node1</title>
<g id="a_Node000001"><a xlink:title="Renders the units and anything related to it.">
<polygon fill="#999999" stroke="#666666" points="114.25,-20 0,-20 0,0 114.25,0 114.25,-20"/>
<text text-anchor="middle" x="57.12" y="-6.5" font-family="Helvetica,sans-Serif" font-size="10.00">RiflemanSquad::render</text>
</a>
</g>
</g>
<!-- Node2 -->
<g id="Node000002" class="node">
<title>Node2</title>
<g id="a_Node000002"><a xlink:href="class_infantry_unit.html#aca40a05689745fe6a675009dc9c27f22" target="_top" xlink:title="Renders the units and anything related to it.">
<polygon fill="white" stroke="#666666" points="248,-20 150.25,-20 150.25,0 248,0 248,-20"/>
<text text-anchor="middle" x="199.12" y="-6.5" font-family="Helvetica,sans-Serif" font-size="10.00">InfantryUnit::render</text>
</a>
</g>
</g>
<!-- Node1&#45;&gt;Node2 -->
<g id="edge1_Node000001_Node000002" class="edge">
<title>Node1&#45;&gt;Node2</title>
<g id="a_edge1_Node000001_Node000002"><a xlink:title=" ">
<path fill="none" stroke="#63b8ff" d="M114.66,-10C122.52,-10 130.6,-10 138.51,-10"/>
<polygon fill="#63b8ff" stroke="#63b8ff" points="138.4,-13.5 148.4,-10 138.4,-6.5 138.4,-13.5"/>
</a>
</g>
</g>
<!-- Node3 -->
<g id="Node000003" class="node">
<title>Node3</title>
<g id="a_Node000003"><a xlink:href="class_unit.html#abd8cdcaade9bfafedcf23aadd4f5539a" target="_top" xlink:title="Renders the units and anything related to it.">
<polygon fill="white" stroke="#666666" points="350.25,-20 284,-20 284,0 350.25,0 350.25,-20"/>
<text text-anchor="middle" x="317.12" y="-6.5" font-family="Helvetica,sans-Serif" font-size="10.00">Unit::render</text>
</a>
</g>
</g>
<!-- Node2&#45;&gt;Node3 -->
<g id="edge2_Node000002_Node000003" class="edge">
<title>Node2&#45;&gt;Node3</title>
<g id="a_edge2_Node000002_Node000003"><a xlink:title=" ">
<path fill="none" stroke="#63b8ff" d="M248.31,-10C256.25,-10 264.44,-10 272.26,-10"/>
<polygon fill="#63b8ff" stroke="#63b8ff" points="272.26,-13.5 282.26,-10 272.26,-6.5 272.26,-13.5"/>
</a>
</g>
</g>
<!-- Node4 -->
<g id="Node000004" class="node">
<title>Node4</title>
<g id="a_Node000004"><a xlink:href="class_particle_system.html#a12f342988eeb7d9ac023e279b8b9dd8c" target="_top" xlink:title="Renders the particles into existence.">
<polygon fill="white" stroke="#666666" points="502,-20 386.25,-20 386.25,0 502,0 502,-20"/>
<text text-anchor="middle" x="444.12" y="-6.5" font-family="Helvetica,sans-Serif" font-size="10.00">ParticleSystem::render</text>
</a>
</g>
</g>
<!-- Node3&#45;&gt;Node4 -->
<g id="edge3_Node000003_Node000004" class="edge">
<title>Node3&#45;&gt;Node4</title>
<g id="a_edge3_Node000003_Node000004"><a xlink:title=" ">
<path fill="none" stroke="#63b8ff" d="M350.64,-10C358.1,-10 366.31,-10 374.66,-10"/>
<polygon fill="#63b8ff" stroke="#63b8ff" points="374.56,-13.5 384.56,-10 374.56,-6.5 374.56,-13.5"/>
</a>
</g>
</g>
</g>
</svg>
