<?xml version="1.0" encoding="UTF-8" standalone="no"?>
<!DOCTYPE svg PUBLIC "-//W3C//DTD SVG 1.1//EN"
 "http://www.w3.org/Graphics/SVG/1.1/DTD/svg11.dtd">
<!-- Generated by graphviz version 10.0.1 (20240210.2158)
 -->
<!-- Title: Building Pages: 1 -->
<svg width="1280pt" height="692pt"
 viewBox="0.00 0.00 1280.00 692.00" xmlns="http://www.w3.org/2000/svg" xmlns:xlink="http://www.w3.org/1999/xlink">
<g id="graph0" class="graph" transform="scale(1 1) rotate(0) translate(4 688)">
<title>Building</title>
<!-- Node1 -->
<g id="Node000001" class="node">
<title>Node1</title>
<g id="a_Node000001"><a xlink:title=" ">
<polygon fill="#999999" stroke="none" points="759,-684 513,-684 513,-136 759,-136 759,-684"/>
<text text-anchor="start" x="618.75" y="-670.5" font-family="Helvetica,sans-Serif" font-size="10.00">Building</text>
<text text-anchor="start" x="517.38" y="-654.5" font-family="Helvetica,sans-Serif" font-size="10.00">#</text>
<text text-anchor="start" x="527" y="-654.5" font-family="Helvetica,sans-Serif" font-size="10.00">ParticleSystem m_smokeEffect</text>
<text text-anchor="start" x="517.38" y="-638.5" font-family="Helvetica,sans-Serif" font-size="10.00">#</text>
<text text-anchor="start" x="527" y="-638.5" font-family="Helvetica,sans-Serif" font-size="10.00">sf::Texture m_smokeTexture</text>
<text text-anchor="start" x="517.38" y="-622.5" font-family="Helvetica,sans-Serif" font-size="10.00">#</text>
<text text-anchor="start" x="527" y="-622.5" font-family="Helvetica,sans-Serif" font-size="10.00">sf::Vector2f m_position</text>
<text text-anchor="start" x="517.38" y="-606.5" font-family="Helvetica,sans-Serif" font-size="10.00">#</text>
<text text-anchor="start" x="527" y="-606.5" font-family="Helvetica,sans-Serif" font-size="10.00">std::string m_name</text>
<text text-anchor="start" x="517.38" y="-590.5" font-family="Helvetica,sans-Serif" font-size="10.00">#</text>
<text text-anchor="start" x="527" y="-590.5" font-family="Helvetica,sans-Serif" font-size="10.00">sf::Texture m_buildingTexture</text>
<text text-anchor="start" x="517.38" y="-574.5" font-family="Helvetica,sans-Serif" font-size="10.00">#</text>
<text text-anchor="start" x="527" y="-574.5" font-family="Helvetica,sans-Serif" font-size="10.00">sf::Sprite m_buildingSprite</text>
<text text-anchor="start" x="517.38" y="-558.5" font-family="Helvetica,sans-Serif" font-size="10.00">#</text>
<text text-anchor="start" x="527" y="-558.5" font-family="Helvetica,sans-Serif" font-size="10.00">sf::CircleShape m_placementRadius</text>
<text text-anchor="start" x="517.38" y="-542.5" font-family="Helvetica,sans-Serif" font-size="10.00">#</text>
<text text-anchor="start" x="527" y="-542.5" font-family="Helvetica,sans-Serif" font-size="10.00">sf::RectangleShape m_healthBar</text>
<text text-anchor="start" x="517.38" y="-526.5" font-family="Helvetica,sans-Serif" font-size="10.00">#</text>
<text text-anchor="start" x="527" y="-526.5" font-family="Helvetica,sans-Serif" font-size="10.00">sf::RectangleShape m_healthBarBackground</text>
<text text-anchor="start" x="517.38" y="-510.5" font-family="Helvetica,sans-Serif" font-size="10.00">#</text>
<text text-anchor="start" x="527" y="-510.5" font-family="Helvetica,sans-Serif" font-size="10.00">int m_health</text>
<text text-anchor="start" x="517.38" y="-494.5" font-family="Helvetica,sans-Serif" font-size="10.00">#</text>
<text text-anchor="start" x="527" y="-494.5" font-family="Helvetica,sans-Serif" font-size="10.00">int m_maxHealth</text>
<text text-anchor="start" x="517.38" y="-478.5" font-family="Helvetica,sans-Serif" font-size="10.00">#</text>
<text text-anchor="start" x="527" y="-478.5" font-family="Helvetica,sans-Serif" font-size="10.00">int m_cost</text>
<text text-anchor="start" x="517.38" y="-462.5" font-family="Helvetica,sans-Serif" font-size="10.00">#</text>
<text text-anchor="start" x="527" y="-462.5" font-family="Helvetica,sans-Serif" font-size="10.00">BuildingType m_type</text>
<text text-anchor="start" x="517.38" y="-446.5" font-family="Helvetica,sans-Serif" font-size="10.00">#</text>
<text text-anchor="start" x="527" y="-446.5" font-family="Helvetica,sans-Serif" font-size="10.00">bool m_placementRadiusVisible</text>
<text text-anchor="start" x="517" y="-430.5" font-family="Helvetica,sans-Serif" font-size="10.00">+</text>
<text text-anchor="start" x="527" y="-430.5" font-family="Helvetica,sans-Serif" font-size="10.00">Building(BuildingType m_type)</text>
<text text-anchor="start" x="517" y="-414.5" font-family="Helvetica,sans-Serif" font-size="10.00">+</text>
<text text-anchor="start" x="527" y="-414.5" font-family="Helvetica,sans-Serif" font-size="10.00">virtual ~Building()</text>
<text text-anchor="start" x="517" y="-398.5" font-family="Helvetica,sans-Serif" font-size="10.00">+</text>
<text text-anchor="start" x="527" y="-398.5" font-family="Helvetica,sans-Serif" font-size="10.00">virtual void update(sf::Time t_deltaTime)</text>
<text text-anchor="start" x="517" y="-382.5" font-family="Helvetica,sans-Serif" font-size="10.00">+</text>
<text text-anchor="start" x="527" y="-382.5" font-family="Helvetica,sans-Serif" font-size="10.00">virtual void render(sf::RenderWindow &amp;m_window)</text>
<text text-anchor="start" x="517" y="-366.5" font-family="Helvetica,sans-Serif" font-size="10.00">+</text>
<text text-anchor="start" x="527" y="-366.5" font-family="Helvetica,sans-Serif" font-size="10.00">void takeDamage(float m_damageAmount)</text>
<text text-anchor="start" x="517" y="-350.5" font-family="Helvetica,sans-Serif" font-size="10.00">+</text>
<text text-anchor="start" x="527" y="-350.5" font-family="Helvetica,sans-Serif" font-size="10.00">void setPosition(const sf::Vector2f &amp;m_position)</text>
<text text-anchor="start" x="517" y="-334.5" font-family="Helvetica,sans-Serif" font-size="10.00">+</text>
<text text-anchor="start" x="527" y="-334.5" font-family="Helvetica,sans-Serif" font-size="10.00">sf::Vector2f getPosition()</text>
<text text-anchor="start" x="517" y="-318.5" font-family="Helvetica,sans-Serif" font-size="10.00">+</text>
<text text-anchor="start" x="527" y="-318.5" font-family="Helvetica,sans-Serif" font-size="10.00">int getCost() const</text>
<text text-anchor="start" x="517" y="-302.5" font-family="Helvetica,sans-Serif" font-size="10.00">+</text>
<text text-anchor="start" x="527" y="-302.5" font-family="Helvetica,sans-Serif" font-size="10.00">float getHealth() const</text>
<text text-anchor="start" x="517" y="-286.5" font-family="Helvetica,sans-Serif" font-size="10.00">+</text>
<text text-anchor="start" x="527" y="-286.5" font-family="Helvetica,sans-Serif" font-size="10.00">BuildingType getType() const</text>
<text text-anchor="start" x="517" y="-270.5" font-family="Helvetica,sans-Serif" font-size="10.00">+</text>
<text text-anchor="start" x="527" y="-270.5" font-family="Helvetica,sans-Serif" font-size="10.00">bool checkAffordability()</text>
<text text-anchor="start" x="517" y="-254.5" font-family="Helvetica,sans-Serif" font-size="10.00">+</text>
<text text-anchor="start" x="527" y="-254.5" font-family="Helvetica,sans-Serif" font-size="10.00">void setPlacementRadiusSize(float m_radius)</text>
<text text-anchor="start" x="517" y="-238.5" font-family="Helvetica,sans-Serif" font-size="10.00">+</text>
<text text-anchor="start" x="527" y="-238.5" font-family="Helvetica,sans-Serif" font-size="10.00">void setHealth(float newHealth)</text>
<text text-anchor="start" x="517" y="-222.5" font-family="Helvetica,sans-Serif" font-size="10.00">+</text>
<text text-anchor="start" x="527" y="-222.5" font-family="Helvetica,sans-Serif" font-size="10.00">const sf::Sprite &amp; getBuildingSprite() const</text>
<text text-anchor="start" x="517" y="-206.5" font-family="Helvetica,sans-Serif" font-size="10.00">+</text>
<text text-anchor="start" x="527" y="-206.5" font-family="Helvetica,sans-Serif" font-size="10.00">const sf::Texture &amp; getBuildingTexture() const</text>
<text text-anchor="start" x="517" y="-190.5" font-family="Helvetica,sans-Serif" font-size="10.00">+</text>
<text text-anchor="start" x="527" y="-190.5" font-family="Helvetica,sans-Serif" font-size="10.00">const sf::CircleShape &amp; getPlacementRadius() const</text>
<text text-anchor="start" x="517" y="-174.5" font-family="Helvetica,sans-Serif" font-size="10.00">+</text>
<text text-anchor="start" x="527" y="-174.5" font-family="Helvetica,sans-Serif" font-size="10.00">void updateHealthBar()</text>
<text text-anchor="start" x="517.38" y="-158.5" font-family="Helvetica,sans-Serif" font-size="10.00">#</text>
<text text-anchor="start" x="527" y="-158.5" font-family="Helvetica,sans-Serif" font-size="10.00">void initSmokeEffect()</text>
<text text-anchor="start" x="517.38" y="-142.5" font-family="Helvetica,sans-Serif" font-size="10.00">#</text>
<text text-anchor="start" x="527" y="-142.5" font-family="Helvetica,sans-Serif" font-size="10.00">void spawnSmokeEffect()</text>
<polygon fill="#666666" stroke="#666666" points="513,-666 513,-666 759,-666 759,-666 513,-666"/>
<polygon fill="#666666" stroke="#666666" points="513,-442 513,-442 525,-442 525,-442 513,-442"/>
<polygon fill="#666666" stroke="#666666" points="525,-442 525,-442 759,-442 759,-442 525,-442"/>
<polygon fill="none" stroke="#666666" points="513,-136 513,-684 759,-684 759,-136 513,-136"/>
</a>
</g>
</g>
<!-- Node2 -->
<g id="Node000002" class="node">
<title>Node2</title>
<g id="a_Node000002"><a xlink:href="class_air_craft.html" target="_top" xlink:title=" ">
<polygon fill="white" stroke="none" points="240,-100 0,-100 0,0 240,0 240,-100"/>
<text text-anchor="start" x="103.88" y="-86.5" font-family="Helvetica,sans-Serif" font-size="10.00">AirCraft</text>
<text text-anchor="start" x="118.5" y="-70.5" font-family="Helvetica,sans-Serif" font-size="10.00"> </text>
<text text-anchor="start" x="4" y="-54.5" font-family="Helvetica,sans-Serif" font-size="10.00">+</text>
<text text-anchor="start" x="14" y="-54.5" font-family="Helvetica,sans-Serif" font-size="10.00">AirCraft()</text>
<text text-anchor="start" x="4" y="-38.5" font-family="Helvetica,sans-Serif" font-size="10.00">+</text>
<text text-anchor="start" x="14" y="-38.5" font-family="Helvetica,sans-Serif" font-size="10.00">~AirCraft()</text>
<text text-anchor="start" x="4" y="-22.5" font-family="Helvetica,sans-Serif" font-size="10.00">+</text>
<text text-anchor="start" x="14" y="-22.5" font-family="Helvetica,sans-Serif" font-size="10.00">void update(sf::Time t_deltaTime) override</text>
<text text-anchor="start" x="4" y="-6.5" font-family="Helvetica,sans-Serif" font-size="10.00">+</text>
<text text-anchor="start" x="14" y="-6.5" font-family="Helvetica,sans-Serif" font-size="10.00">void render(sf::RenderWindow &amp;m_window) override</text>
<polygon fill="#666666" stroke="#666666" points="0,-82 0,-82 240,-82 240,-82 0,-82"/>
<polygon fill="#666666" stroke="#666666" points="0,-66 0,-66 240,-66 240,-66 0,-66"/>
<polygon fill="none" stroke="#666666" points="0,0 0,-100 240,-100 240,0 0,0"/>
</a>
</g>
</g>
<!-- Node1&#45;&gt;Node2 -->
<g id="edge1_Node000001_Node000002" class="edge">
<title>Node1&#45;&gt;Node2</title>
<g id="a_edge1_Node000001_Node000002"><a xlink:title=" ">
<path fill="none" stroke="#63b8ff" d="M503.81,-317.29C403.94,-248 270.77,-155.61 190.42,-99.86"/>
<polygon fill="none" stroke="#63b8ff" points="501.61,-320.02 511.82,-322.84 505.6,-314.27 501.61,-320.02"/>
</a>
</g>
</g>
<!-- Node3 -->
<g id="Node000003" class="node">
<title>Node3</title>
<g id="a_Node000003"><a xlink:href="class_barracks.html" target="_top" xlink:title=" ">
<polygon fill="white" stroke="none" points="498,-100 258,-100 258,0 498,0 498,-100"/>
<text text-anchor="start" x="358.5" y="-86.5" font-family="Helvetica,sans-Serif" font-size="10.00">Barracks</text>
<text text-anchor="start" x="376.5" y="-70.5" font-family="Helvetica,sans-Serif" font-size="10.00"> </text>
<text text-anchor="start" x="262" y="-54.5" font-family="Helvetica,sans-Serif" font-size="10.00">+</text>
<text text-anchor="start" x="272" y="-54.5" font-family="Helvetica,sans-Serif" font-size="10.00">Barracks()</text>
<text text-anchor="start" x="262" y="-38.5" font-family="Helvetica,sans-Serif" font-size="10.00">+</text>
<text text-anchor="start" x="272" y="-38.5" font-family="Helvetica,sans-Serif" font-size="10.00">~Barracks()</text>
<text text-anchor="start" x="262" y="-22.5" font-family="Helvetica,sans-Serif" font-size="10.00">+</text>
<text text-anchor="start" x="272" y="-22.5" font-family="Helvetica,sans-Serif" font-size="10.00">void update(sf::Time t_deltaTime) override</text>
<text text-anchor="start" x="262" y="-6.5" font-family="Helvetica,sans-Serif" font-size="10.00">+</text>
<text text-anchor="start" x="272" y="-6.5" font-family="Helvetica,sans-Serif" font-size="10.00">void render(sf::RenderWindow &amp;m_window) override</text>
<polygon fill="#666666" stroke="#666666" points="258,-82 258,-82 498,-82 498,-82 258,-82"/>
<polygon fill="#666666" stroke="#666666" points="258,-66 258,-66 498,-66 498,-66 258,-66"/>
<polygon fill="none" stroke="#666666" points="258,0 258,-100 498,-100 498,0 258,0"/>
</a>
</g>
</g>
<!-- Node1&#45;&gt;Node3 -->
<g id="edge2_Node000001_Node000003" class="edge">
<title>Node1&#45;&gt;Node3</title>
<g id="a_edge2_Node000001_Node000003"><a xlink:title=" ">
<path fill="none" stroke="#63b8ff" d="M506.39,-229.16C471.98,-181.4 437.62,-133.72 413.11,-99.72"/>
<polygon fill="none" stroke="#63b8ff" points="503.47,-231.09 512.16,-237.16 509.15,-227 503.47,-231.09"/>
</a>
</g>
</g>
<!-- Node4 -->
<g id="Node000004" class="node">
<title>Node4</title>
<g id="a_Node000004"><a xlink:href="class_headquarters.html" target="_top" xlink:title=" ">
<polygon fill="white" stroke="none" points="756,-100 516,-100 516,0 756,0 756,-100"/>
<text text-anchor="start" x="607.12" y="-86.5" font-family="Helvetica,sans-Serif" font-size="10.00">Headquarters</text>
<text text-anchor="start" x="634.5" y="-70.5" font-family="Helvetica,sans-Serif" font-size="10.00"> </text>
<text text-anchor="start" x="520" y="-54.5" font-family="Helvetica,sans-Serif" font-size="10.00">+</text>
<text text-anchor="start" x="530" y="-54.5" font-family="Helvetica,sans-Serif" font-size="10.00">Headquarters()</text>
<text text-anchor="start" x="520" y="-38.5" font-family="Helvetica,sans-Serif" font-size="10.00">+</text>
<text text-anchor="start" x="530" y="-38.5" font-family="Helvetica,sans-Serif" font-size="10.00">~Headquarters()</text>
<text text-anchor="start" x="520" y="-22.5" font-family="Helvetica,sans-Serif" font-size="10.00">+</text>
<text text-anchor="start" x="530" y="-22.5" font-family="Helvetica,sans-Serif" font-size="10.00">void update(sf::Time t_deltaTime) override</text>
<text text-anchor="start" x="520" y="-6.5" font-family="Helvetica,sans-Serif" font-size="10.00">+</text>
<text text-anchor="start" x="530" y="-6.5" font-family="Helvetica,sans-Serif" font-size="10.00">void render(sf::RenderWindow &amp;m_window) override</text>
<polygon fill="#666666" stroke="#666666" points="516,-82 516,-82 756,-82 756,-82 516,-82"/>
<polygon fill="#666666" stroke="#666666" points="516,-66 516,-66 756,-66 756,-66 516,-66"/>
<polygon fill="none" stroke="#666666" points="516,0 516,-100 756,-100 756,0 516,0"/>
</a>
</g>
</g>
<!-- Node1&#45;&gt;Node4 -->
<g id="edge3_Node000001_Node000004" class="edge">
<title>Node1&#45;&gt;Node4</title>
<g id="a_edge3_Node000001_Node000004"><a xlink:title=" ">
<path fill="none" stroke="#63b8ff" d="M636,-125.04C636,-116.02 636,-107.56 636,-99.8"/>
<polygon fill="none" stroke="#63b8ff" points="632.5,-124.78 636,-134.78 639.5,-124.78 632.5,-124.78"/>
</a>
</g>
</g>
<!-- Node5 -->
<g id="Node000005" class="node">
<title>Node5</title>
<g id="a_Node000005"><a xlink:href="class_refinery.html" target="_top" xlink:title=" ">
<polygon fill="white" stroke="none" points="1014,-100 774,-100 774,0 1014,0 1014,-100"/>
<text text-anchor="start" x="876.38" y="-86.5" font-family="Helvetica,sans-Serif" font-size="10.00">Refinery</text>
<text text-anchor="start" x="892.5" y="-70.5" font-family="Helvetica,sans-Serif" font-size="10.00"> </text>
<text text-anchor="start" x="778" y="-54.5" font-family="Helvetica,sans-Serif" font-size="10.00">+</text>
<text text-anchor="start" x="788" y="-54.5" font-family="Helvetica,sans-Serif" font-size="10.00">Refinery()</text>
<text text-anchor="start" x="778" y="-38.5" font-family="Helvetica,sans-Serif" font-size="10.00">+</text>
<text text-anchor="start" x="788" y="-38.5" font-family="Helvetica,sans-Serif" font-size="10.00">~Refinery()</text>
<text text-anchor="start" x="778" y="-22.5" font-family="Helvetica,sans-Serif" font-size="10.00">+</text>
<text text-anchor="start" x="788" y="-22.5" font-family="Helvetica,sans-Serif" font-size="10.00">void update(sf::Time t_deltaTime) override</text>
<text text-anchor="start" x="778" y="-6.5" font-family="Helvetica,sans-Serif" font-size="10.00">+</text>
<text text-anchor="start" x="788" y="-6.5" font-family="Helvetica,sans-Serif" font-size="10.00">void render(sf::RenderWindow &amp;m_window) override</text>
<polygon fill="#666666" stroke="#666666" points="774,-82 774,-82 1014,-82 1014,-82 774,-82"/>
<polygon fill="#666666" stroke="#666666" points="774,-66 774,-66 1014,-66 1014,-66 774,-66"/>
<polygon fill="none" stroke="#666666" points="774,0 774,-100 1014,-100 1014,0 774,0"/>
</a>
</g>
</g>
<!-- Node1&#45;&gt;Node5 -->
<g id="edge4_Node000001_Node000005" class="edge">
<title>Node1&#45;&gt;Node5</title>
<g id="a_edge4_Node000001_Node000005"><a xlink:title=" ">
<path fill="none" stroke="#63b8ff" d="M765.61,-229.16C800.02,-181.4 834.38,-133.72 858.89,-99.72"/>
<polygon fill="none" stroke="#63b8ff" points="762.85,-227 759.84,-237.16 768.53,-231.09 762.85,-227"/>
</a>
</g>
</g>
<!-- Node6 -->
<g id="Node000006" class="node">
<title>Node6</title>
<g id="a_Node000006"><a xlink:href="class_war_factory.html" target="_top" xlink:title=" ">
<polygon fill="white" stroke="none" points="1272,-100 1032,-100 1032,0 1272,0 1272,-100"/>
<text text-anchor="start" x="1126.5" y="-86.5" font-family="Helvetica,sans-Serif" font-size="10.00">WarFactory</text>
<text text-anchor="start" x="1150.5" y="-70.5" font-family="Helvetica,sans-Serif" font-size="10.00"> </text>
<text text-anchor="start" x="1036" y="-54.5" font-family="Helvetica,sans-Serif" font-size="10.00">+</text>
<text text-anchor="start" x="1046" y="-54.5" font-family="Helvetica,sans-Serif" font-size="10.00">WarFactory()</text>
<text text-anchor="start" x="1036" y="-38.5" font-family="Helvetica,sans-Serif" font-size="10.00">+</text>
<text text-anchor="start" x="1046" y="-38.5" font-family="Helvetica,sans-Serif" font-size="10.00">~WarFactory()</text>
<text text-anchor="start" x="1036" y="-22.5" font-family="Helvetica,sans-Serif" font-size="10.00">+</text>
<text text-anchor="start" x="1046" y="-22.5" font-family="Helvetica,sans-Serif" font-size="10.00">void update(sf::Time t_deltaTime) override</text>
<text text-anchor="start" x="1036" y="-6.5" font-family="Helvetica,sans-Serif" font-size="10.00">+</text>
<text text-anchor="start" x="1046" y="-6.5" font-family="Helvetica,sans-Serif" font-size="10.00">void render(sf::RenderWindow &amp;m_window) override</text>
<polygon fill="#666666" stroke="#666666" points="1032,-82 1032,-82 1272,-82 1272,-82 1032,-82"/>
<polygon fill="#666666" stroke="#666666" points="1032,-66 1032,-66 1272,-66 1272,-66 1032,-66"/>
<polygon fill="none" stroke="#666666" points="1032,0 1032,-100 1272,-100 1272,0 1032,0"/>
</a>
</g>
</g>
<!-- Node1&#45;&gt;Node6 -->
<g id="edge5_Node000001_Node000006" class="edge">
<title>Node1&#45;&gt;Node6</title>
<g id="a_edge5_Node000001_Node000006"><a xlink:title=" ">
<path fill="none" stroke="#63b8ff" d="M768.19,-317.29C868.06,-248 1001.23,-155.61 1081.58,-99.86"/>
<polygon fill="none" stroke="#63b8ff" points="766.4,-314.27 760.18,-322.84 770.39,-320.02 766.4,-314.27"/>
</a>
</g>
</g>
</g>
</svg>
