<?xml version="1.0" encoding="UTF-8" standalone="no"?>
<!DOCTYPE svg PUBLIC "-//W3C//DTD SVG 1.1//EN"
 "http://www.w3.org/Graphics/SVG/1.1/DTD/svg11.dtd">
<!-- Generated by graphviz version 10.0.1 (20240210.2158)
 -->
<!-- Title: Unit::normalize Pages: 1 -->
<svg width="840pt" height="218pt"
 viewBox="0.00 0.00 839.75 218.00" xmlns="http://www.w3.org/2000/svg" xmlns:xlink="http://www.w3.org/1999/xlink">
<g id="graph0" class="graph" transform="scale(1 1) rotate(0) translate(4 214)">
<title>Unit::normalize</title>
<!-- Node1 -->
<g id="Node000001" class="node">
<title>Node1</title>
<g id="a_Node000001"><a xlink:title=" ">
<polygon fill="#999999" stroke="#666666" points="831.75,-96 750.5,-96 750.5,-76 831.75,-76 831.75,-96"/>
<text text-anchor="middle" x="791.12" y="-82.5" font-family="Helvetica,sans-Serif" font-size="10.00">Unit::normalize</text>
</a>
</g>
</g>
<!-- Node2 -->
<g id="Node000002" class="node">
<title>Node2</title>
<g id="a_Node000002"><a xlink:href="class_unit.html#a5a0d56542c689f13276b9db77c1b36d8" target="_top" xlink:title="its to avoid colliding with each other">
<polygon fill="white" stroke="#666666" points="540.62,-153 394.88,-153 394.88,-133 540.62,-133 540.62,-153"/>
<text text-anchor="middle" x="467.75" y="-139.5" font-family="Helvetica,sans-Serif" font-size="10.00">Unit::avoidCollisionsWithUnits</text>
</a>
</g>
</g>
<!-- Node1&#45;&gt;Node2 -->
<g id="edge1_Node000001_Node000002" class="edge">
<title>Node1&#45;&gt;Node2</title>
<g id="a_edge1_Node000001_Node000002"><a xlink:title=" ">
<path fill="none" stroke="#63b8ff" d="M747.26,-99.61C736.63,-102.67 725.21,-105.69 714.5,-108 656.68,-120.46 590.22,-129.62 541,-135.44"/>
<polygon fill="#63b8ff" stroke="#63b8ff" points="747.95,-103.06 756.55,-96.87 745.96,-96.35 747.95,-103.06"/>
</a>
</g>
</g>
<!-- Node13 -->
<g id="Node000013" class="node">
<title>Node13</title>
<g id="a_Node000013"><a xlink:href="class_unit.html#ae5032b9bfa0290392ae1a33c2525a18f" target="_top" xlink:title="To avoid walls for units.">
<polygon fill="white" stroke="#666666" points="541.75,-115 393.75,-115 393.75,-95 541.75,-95 541.75,-115"/>
<text text-anchor="middle" x="467.75" y="-101.5" font-family="Helvetica,sans-Serif" font-size="10.00">Unit::avoidCollisionsWithWalls</text>
</a>
</g>
</g>
<!-- Node1&#45;&gt;Node13 -->
<g id="edge12_Node000001_Node000013" class="edge">
<title>Node1&#45;&gt;Node13</title>
<g id="a_edge12_Node000001_Node000013"><a xlink:title=" ">
<path fill="none" stroke="#63b8ff" d="M738.89,-89.03C685.78,-92.17 602.26,-97.11 542.15,-100.66"/>
<polygon fill="#63b8ff" stroke="#63b8ff" points="738.79,-92.54 748.56,-88.46 738.37,-85.55 738.79,-92.54"/>
</a>
</g>
</g>
<!-- Node14 -->
<g id="Node000014" class="node">
<title>Node14</title>
<g id="a_Node000014"><a xlink:href="class_unit.html#a42777458d8e2ae32407212027719b6d2" target="_top" xlink:title="This looks for a suitable direction to avoid walls when a direct path is blocked It tries various ang...">
<polygon fill="white" stroke="#666666" points="714.5,-77 577.75,-77 577.75,-57 714.5,-57 714.5,-77"/>
<text text-anchor="middle" x="646.12" y="-63.5" font-family="Helvetica,sans-Serif" font-size="10.00">Unit::findAvoidanceDirection</text>
</a>
</g>
</g>
<!-- Node1&#45;&gt;Node14 -->
<g id="edge14_Node000001_Node000014" class="edge">
<title>Node1&#45;&gt;Node14</title>
<g id="a_edge14_Node000001_Node000014"><a xlink:title=" ">
<path fill="none" stroke="#63b8ff" d="M739.12,-79.22C731.28,-78.18 723.09,-77.09 714.96,-76.01"/>
<polygon fill="#63b8ff" stroke="#63b8ff" points="738.42,-82.66 748.79,-80.51 739.34,-75.72 738.42,-82.66"/>
</a>
</g>
</g>
<!-- Node15 -->
<g id="Node000015" class="node">
<title>Node15</title>
<g id="a_Node000015"><a xlink:href="class_unit.html#a717bca7d26b5632119fe20b9dfa24f75" target="_top" xlink:title="Makes it slowly steer towards that direction.">
<polygon fill="white" stroke="#666666" points="694.62,-39 597.62,-39 597.62,-19 694.62,-19 694.62,-39"/>
<text text-anchor="middle" x="646.12" y="-25.5" font-family="Helvetica,sans-Serif" font-size="10.00">Unit::steerTowards</text>
</a>
</g>
</g>
<!-- Node1&#45;&gt;Node15 -->
<g id="edge16_Node000001_Node000015" class="edge">
<title>Node1&#45;&gt;Node15</title>
<g id="a_edge16_Node000001_Node000015"><a xlink:title=" ">
<path fill="none" stroke="#63b8ff" d="M761.96,-70.24C747.98,-62.83 730.66,-54.27 714.5,-48 706.34,-44.83 697.44,-41.95 688.87,-39.43"/>
<polygon fill="#63b8ff" stroke="#63b8ff" points="760.13,-73.23 770.6,-74.9 763.46,-67.07 760.13,-73.23"/>
</a>
</g>
</g>
<!-- Node3 -->
<g id="Node000003" class="node">
<title>Node3</title>
<g id="a_Node000003"><a xlink:href="class_unit.html#a1170c0150d547432074d11e0a5896494" target="_top" xlink:title=" ">
<polygon fill="white" stroke="#666666" points="357.75,-134 289.25,-134 289.25,-114 357.75,-114 357.75,-134"/>
<text text-anchor="middle" x="323.5" y="-120.5" font-family="Helvetica,sans-Serif" font-size="10.00">Unit::update</text>
</a>
</g>
</g>
<!-- Node2&#45;&gt;Node3 -->
<g id="edge2_Node000002_Node000003" class="edge">
<title>Node2&#45;&gt;Node3</title>
<g id="a_edge2_Node000002_Node000003"><a xlink:title=" ">
<path fill="none" stroke="#63b8ff" d="M383.43,-131.87C374.54,-130.68 365.9,-129.53 358.11,-128.49"/>
<polygon fill="#63b8ff" stroke="#63b8ff" points="382.92,-135.33 393.29,-133.19 383.84,-128.4 382.92,-135.33"/>
</a>
</g>
</g>
<!-- Node4 -->
<g id="Node000004" class="node">
<title>Node4</title>
<g id="a_Node000004"><a xlink:href="class_aircraft_unit.html#a383a50ac692f739ef21306ba9860c4e5" target="_top" xlink:title=" ">
<polygon fill="white" stroke="#666666" points="252.5,-172 153.25,-172 153.25,-152 252.5,-152 252.5,-172"/>
<text text-anchor="middle" x="202.88" y="-158.5" font-family="Helvetica,sans-Serif" font-size="10.00">AircraftUnit::update</text>
</a>
</g>
</g>
<!-- Node3&#45;&gt;Node4 -->
<g id="edge3_Node000003_Node000004" class="edge">
<title>Node3&#45;&gt;Node4</title>
<g id="a_edge3_Node000003_Node000004"><a xlink:title=" ">
<path fill="none" stroke="#63b8ff" d="M278.87,-137.98C264.85,-142.47 249.58,-147.36 236.5,-151.55"/>
<polygon fill="#63b8ff" stroke="#63b8ff" points="279.87,-141.33 288.33,-134.95 277.74,-134.66 279.87,-141.33"/>
</a>
</g>
</g>
<!-- Node7 -->
<g id="Node000007" class="node">
<title>Node7</title>
<g id="a_Node000007"><a xlink:href="class_infantry_unit.html#aabd1427d781ff0e5ae2b21bbe67e4c84" target="_top" xlink:title=" ">
<polygon fill="white" stroke="#666666" points="252.88,-134 152.88,-134 152.88,-114 252.88,-114 252.88,-134"/>
<text text-anchor="middle" x="202.88" y="-120.5" font-family="Helvetica,sans-Serif" font-size="10.00">InfantryUnit::update</text>
</a>
</g>
</g>
<!-- Node3&#45;&gt;Node7 -->
<g id="edge6_Node000003_Node000007" class="edge">
<title>Node3&#45;&gt;Node7</title>
<g id="a_edge6_Node000003_Node000007"><a xlink:title=" ">
<path fill="none" stroke="#63b8ff" d="M277.49,-124C269.53,-124 261.21,-124 253.14,-124"/>
<polygon fill="#63b8ff" stroke="#63b8ff" points="277.31,-127.5 287.31,-124 277.31,-120.5 277.31,-127.5"/>
</a>
</g>
</g>
<!-- Node9 -->
<g id="Node000009" class="node">
<title>Node9</title>
<g id="a_Node000009"><a xlink:href="class_vehicle_unit.html#a8509cb11b318348f4953dae4932ea071" target="_top" xlink:title=" ">
<polygon fill="white" stroke="#666666" points="253.25,-77 152.5,-77 152.5,-57 253.25,-57 253.25,-77"/>
<text text-anchor="middle" x="202.88" y="-63.5" font-family="Helvetica,sans-Serif" font-size="10.00">VehicleUnit::update</text>
</a>
</g>
</g>
<!-- Node3&#45;&gt;Node9 -->
<g id="edge8_Node000003_Node000009" class="edge">
<title>Node3&#45;&gt;Node9</title>
<g id="a_edge8_Node000003_Node000009"><a xlink:title=" ">
<path fill="none" stroke="#63b8ff" d="M290.55,-108.65C269.94,-98.74 243.68,-86.13 225.49,-77.39"/>
<polygon fill="#63b8ff" stroke="#63b8ff" points="288.85,-111.71 299.38,-112.89 291.88,-105.4 288.85,-111.71"/>
</a>
</g>
</g>
<!-- Node5 -->
<g id="Node000005" class="node">
<title>Node5</title>
<g id="a_Node000005"><a xlink:href="class_firehawk.html#a39f1f9ed23fa4203edf940c9057b8b2a" target="_top" xlink:title=" ">
<polygon fill="white" stroke="#666666" points="103.38,-210 13.12,-210 13.12,-190 103.38,-190 103.38,-210"/>
<text text-anchor="middle" x="58.25" y="-196.5" font-family="Helvetica,sans-Serif" font-size="10.00">Firehawk::update</text>
</a>
</g>
</g>
<!-- Node4&#45;&gt;Node5 -->
<g id="edge4_Node000004_Node000005" class="edge">
<title>Node4&#45;&gt;Node5</title>
<g id="a_edge4_Node000004_Node000005"><a xlink:title=" ">
<path fill="none" stroke="#63b8ff" d="M151.41,-175.45C134.02,-180.08 114.83,-185.19 98.47,-189.55"/>
<polygon fill="#63b8ff" stroke="#63b8ff" points="152.3,-178.83 161.06,-172.87 150.5,-172.07 152.3,-178.83"/>
</a>
</g>
</g>
<!-- Node6 -->
<g id="Node000006" class="node">
<title>Node6</title>
<g id="a_Node000006"><a xlink:href="class_hammer_head.html#a57c18e3d80cb32b40aa995bf76f59949" target="_top" xlink:title=" ">
<polygon fill="white" stroke="#666666" points="113.5,-172 3,-172 3,-152 113.5,-152 113.5,-172"/>
<text text-anchor="middle" x="58.25" y="-158.5" font-family="Helvetica,sans-Serif" font-size="10.00">HammerHead::update</text>
</a>
</g>
</g>
<!-- Node4&#45;&gt;Node6 -->
<g id="edge5_Node000004_Node000006" class="edge">
<title>Node4&#45;&gt;Node6</title>
<g id="a_edge5_Node000004_Node000006"><a xlink:title=" ">
<path fill="none" stroke="#63b8ff" d="M141.37,-162C132.22,-162 122.82,-162 113.8,-162"/>
<polygon fill="#63b8ff" stroke="#63b8ff" points="141.28,-165.5 151.28,-162 141.28,-158.5 141.28,-165.5"/>
</a>
</g>
</g>
<!-- Node8 -->
<g id="Node000008" class="node">
<title>Node8</title>
<g id="a_Node000008"><a xlink:href="class_rifleman_squad.html#a4050724b94874b38c91944bbf319cc34" target="_top" xlink:title=" ">
<polygon fill="white" stroke="#666666" points="116.5,-134 0,-134 0,-114 116.5,-114 116.5,-134"/>
<text text-anchor="middle" x="58.25" y="-120.5" font-family="Helvetica,sans-Serif" font-size="10.00">RiflemanSquad::update</text>
</a>
</g>
</g>
<!-- Node7&#45;&gt;Node8 -->
<g id="edge7_Node000007_Node000008" class="edge">
<title>Node7&#45;&gt;Node8</title>
<g id="a_edge7_Node000007_Node000008"><a xlink:title=" ">
<path fill="none" stroke="#63b8ff" d="M140.93,-124C132.98,-124 124.86,-124 116.97,-124"/>
<polygon fill="#63b8ff" stroke="#63b8ff" points="140.88,-127.5 150.88,-124 140.88,-120.5 140.88,-127.5"/>
</a>
</g>
</g>
<!-- Node10 -->
<g id="Node000010" class="node">
<title>Node10</title>
<g id="a_Node000010"><a xlink:href="class_tank_aurora.html#a929635e820b74db6381f9ea239b57178" target="_top" xlink:title=" ">
<polygon fill="white" stroke="#666666" points="108.62,-96 7.88,-96 7.88,-76 108.62,-76 108.62,-96"/>
<text text-anchor="middle" x="58.25" y="-82.5" font-family="Helvetica,sans-Serif" font-size="10.00">TankAurora::update</text>
</a>
</g>
</g>
<!-- Node9&#45;&gt;Node10 -->
<g id="edge9_Node000009_Node000010" class="edge">
<title>Node9&#45;&gt;Node10</title>
<g id="a_edge9_Node000009_Node000010"><a xlink:title=" ">
<path fill="none" stroke="#63b8ff" d="M141.23,-75.08C130.36,-76.53 119.15,-78.02 108.65,-79.42"/>
<polygon fill="#63b8ff" stroke="#63b8ff" points="141.44,-78.58 150.89,-73.79 140.52,-71.64 141.44,-78.58"/>
</a>
</g>
</g>
<!-- Node11 -->
<g id="Node000011" class="node">
<title>Node11</title>
<g id="a_Node000011"><a xlink:href="class_buggy.html#a14e9377226ef591039712bc6f0cfa061" target="_top" xlink:title=" ">
<polygon fill="white" stroke="#666666" points="97.75,-58 18.75,-58 18.75,-38 97.75,-38 97.75,-58"/>
<text text-anchor="middle" x="58.25" y="-44.5" font-family="Helvetica,sans-Serif" font-size="10.00">Buggy::update</text>
</a>
</g>
</g>
<!-- Node9&#45;&gt;Node11 -->
<g id="edge10_Node000009_Node000011" class="edge">
<title>Node9&#45;&gt;Node11</title>
<g id="a_edge10_Node000009_Node000011"><a xlink:title=" ">
<path fill="none" stroke="#63b8ff" d="M141.3,-58.93C126.58,-56.97 111.24,-54.93 97.85,-53.14"/>
<polygon fill="#63b8ff" stroke="#63b8ff" points="140.52,-62.36 150.89,-60.21 141.44,-55.42 140.52,-62.36"/>
</a>
</g>
</g>
<!-- Node12 -->
<g id="Node000012" class="node">
<title>Node12</title>
<g id="a_Node000012"><a xlink:href="class_harvester.html#ac6e106e888fc20099bba4f57f833c216" target="_top" xlink:title=" ">
<polygon fill="white" stroke="#666666" points="104.12,-20 12.38,-20 12.38,0 104.12,0 104.12,-20"/>
<text text-anchor="middle" x="58.25" y="-6.5" font-family="Helvetica,sans-Serif" font-size="10.00">Harvester::update</text>
</a>
</g>
</g>
<!-- Node9&#45;&gt;Node12 -->
<g id="edge11_Node000009_Node000012" class="edge">
<title>Node9&#45;&gt;Node12</title>
<g id="a_edge11_Node000009_Node000012"><a xlink:title=" ">
<path fill="none" stroke="#63b8ff" d="M169.68,-51.77C153.82,-44.5 134.32,-35.9 116.5,-29 108.79,-26.01 100.38,-23.06 92.45,-20.4"/>
<polygon fill="#63b8ff" stroke="#63b8ff" points="168.1,-54.89 178.64,-55.92 171.04,-48.54 168.1,-54.89"/>
</a>
</g>
</g>
<!-- Node13&#45;&gt;Node3 -->
<g id="edge13_Node000013_Node000003" class="edge">
<title>Node13&#45;&gt;Node3</title>
<g id="a_edge13_Node000013_Node000003"><a xlink:title=" ">
<path fill="none" stroke="#63b8ff" d="M382.28,-116.28C373.8,-117.42 365.58,-118.51 358.13,-119.51"/>
<polygon fill="#63b8ff" stroke="#63b8ff" points="382.59,-119.77 392.04,-114.98 381.67,-112.83 382.59,-119.77"/>
</a>
</g>
</g>
<!-- Node14&#45;&gt;Node13 -->
<g id="edge15_Node000014_Node000013" class="edge">
<title>Node14&#45;&gt;Node13</title>
<g id="a_edge15_Node000014_Node000013"><a xlink:title=" ">
<path fill="none" stroke="#63b8ff" d="M585.47,-79.85C563.26,-84.64 538.34,-90.01 517.25,-94.55"/>
<polygon fill="#63b8ff" stroke="#63b8ff" points="585.94,-83.33 594.98,-77.8 584.47,-76.49 585.94,-83.33"/>
</a>
</g>
</g>
</g>
</svg>
