<?xml version="1.0" encoding="UTF-8" standalone="no"?>
<!DOCTYPE svg PUBLIC "-//W3C//DTD SVG 1.1//EN"
 "http://www.w3.org/Graphics/SVG/1.1/DTD/svg11.dtd">
<!-- Generated by graphviz version 10.0.1 (20240210.2158)
 -->
<!-- Title: Building::render Pages: 1 -->
<svg width="234pt" height="180pt"
 viewBox="0.00 0.00 234.25 180.00" xmlns="http://www.w3.org/2000/svg" xmlns:xlink="http://www.w3.org/1999/xlink">

<svg id="main" version="1.1" xmlns="http://www.w3.org/2000/svg" xmlns:xlink="http://www.w3.org/1999/xlink" xml:space="preserve" onload="init(evt)">
<style type="text/css"><![CDATA[
.node, .edge {opacity: 0.7;}
.node.selected, .edge.selected {opacity: 1;}
.edge:hover path { stroke: red; }
.edge:hover polygon { stroke: red; fill: red; }
]]></style>
<script type="application/ecmascript" xlink:href="svg.min.js"/>
<svg id="graph" class="graph">
<g id="graph0" class="graph" transform="scale(1 1) rotate(0) translate(4 176)">
<title>Building::render</title>
<!-- Node1 -->
<g id="Node000001" class="node">
<title>Node1</title>
<g id="a_Node000001"><a xlink:title=" ">
<polygon fill="#999999" stroke="#666666" points="226.25,-96 142.75,-96 142.75,-76 226.25,-76 226.25,-96"/>
<text text-anchor="middle" x="184.5" y="-82.5" font-family="Helvetica,sans-Serif" font-size="10.00">Building::render</text>
</a>
</g>
</g>
<!-- Node2 -->
<g id="Node000002" class="node">
<title>Node2</title>
<g id="a_Node000002"><a xlink:href="class_air_craft.html#aaa852c2bf3f7fd53b7795989ff89501e" target="_top" xlink:title=" ">
<polygon fill="white" stroke="#666666" points="94,-172 12.75,-172 12.75,-152 94,-152 94,-172"/>
<text text-anchor="middle" x="53.38" y="-158.5" font-family="Helvetica,sans-Serif" font-size="10.00">AirCraft::render</text>
</a>
</g>
</g>
<!-- Node1&#45;&gt;Node2 -->
<g id="edge1_Node000001_Node000002" class="edge">
<title>Node1&#45;&gt;Node2</title>
<g id="a_edge1_Node000001_Node000002"><a xlink:title=" ">
<path fill="none" stroke="#63b8ff" d="M163.36,-103.52C148.48,-115.8 127.33,-131.93 106.75,-143 100.79,-146.21 94.17,-149.08 87.7,-151.56"/>
<polygon fill="#63b8ff" stroke="#63b8ff" points="165.2,-106.55 170.59,-97.43 160.69,-101.19 165.2,-106.55"/>
</a>
</g>
</g>
<!-- Node3 -->
<g id="Node000003" class="node">
<title>Node3</title>
<g id="a_Node000003"><a xlink:href="class_barracks.html#ab3f973b61dfb08a47667762d4e8d7c8b" target="_top" xlink:title=" ">
<polygon fill="white" stroke="#666666" points="97.38,-134 9.38,-134 9.38,-114 97.38,-114 97.38,-134"/>
<text text-anchor="middle" x="53.38" y="-120.5" font-family="Helvetica,sans-Serif" font-size="10.00">Barracks::render</text>
</a>
</g>
</g>
<!-- Node1&#45;&gt;Node3 -->
<g id="edge2_Node000001_Node000003" class="edge">
<title>Node1&#45;&gt;Node3</title>
<g id="a_edge2_Node000001_Node000003"><a xlink:title=" ">
<path fill="none" stroke="#63b8ff" d="M136.91,-99.71C121.41,-104.27 104.41,-109.28 89.88,-113.55"/>
<polygon fill="#63b8ff" stroke="#63b8ff" points="137.82,-103.09 146.42,-96.91 135.84,-96.38 137.82,-103.09"/>
</a>
</g>
</g>
<!-- Node4 -->
<g id="Node000004" class="node">
<title>Node4</title>
<g id="a_Node000004"><a xlink:href="class_headquarters.html#a17cca0c747ab5c0ec19a773a036c1ae7" target="_top" xlink:title=" ">
<polygon fill="white" stroke="#666666" points="106.75,-96 0,-96 0,-76 106.75,-76 106.75,-96"/>
<text text-anchor="middle" x="53.38" y="-82.5" font-family="Helvetica,sans-Serif" font-size="10.00">Headquarters::render</text>
</a>
</g>
</g>
<!-- Node1&#45;&gt;Node4 -->
<g id="edge3_Node000001_Node000004" class="edge">
<title>Node1&#45;&gt;Node4</title>
<g id="a_edge3_Node000001_Node000004"><a xlink:title=" ">
<path fill="none" stroke="#63b8ff" d="M130.95,-86C123.05,-86 114.91,-86 107.01,-86"/>
<polygon fill="#63b8ff" stroke="#63b8ff" points="130.78,-89.5 140.78,-86 130.78,-82.5 130.78,-89.5"/>
</a>
</g>
</g>
<!-- Node5 -->
<g id="Node000005" class="node">
<title>Node5</title>
<g id="a_Node000005"><a xlink:href="class_refinery.html#acd7c64516640902874aef19bfec85b9d" target="_top" xlink:title=" ">
<polygon fill="white" stroke="#666666" points="95.5,-58 11.25,-58 11.25,-38 95.5,-38 95.5,-58"/>
<text text-anchor="middle" x="53.38" y="-44.5" font-family="Helvetica,sans-Serif" font-size="10.00">Refinery::render</text>
</a>
</g>
</g>
<!-- Node1&#45;&gt;Node5 -->
<g id="edge4_Node000001_Node000005" class="edge">
<title>Node1&#45;&gt;Node5</title>
<g id="a_edge4_Node000001_Node000005"><a xlink:title=" ">
<path fill="none" stroke="#63b8ff" d="M136.91,-72.29C121.41,-67.73 104.41,-62.72 89.88,-58.45"/>
<polygon fill="#63b8ff" stroke="#63b8ff" points="135.84,-75.62 146.42,-75.09 137.82,-68.91 135.84,-75.62"/>
</a>
</g>
</g>
<!-- Node6 -->
<g id="Node000006" class="node">
<title>Node6</title>
<g id="a_Node000006"><a xlink:href="class_war_factory.html#ad09683b78d19ae3f5b52db16bc659c80" target="_top" xlink:title=" ">
<polygon fill="white" stroke="#666666" points="103.38,-20 3.38,-20 3.38,0 103.38,0 103.38,-20"/>
<text text-anchor="middle" x="53.38" y="-6.5" font-family="Helvetica,sans-Serif" font-size="10.00">WarFactory::render</text>
</a>
</g>
</g>
<!-- Node1&#45;&gt;Node6 -->
<g id="edge5_Node000001_Node000006" class="edge">
<title>Node1&#45;&gt;Node6</title>
<g id="a_edge5_Node000001_Node000006"><a xlink:title=" ">
<path fill="none" stroke="#63b8ff" d="M163.36,-68.48C148.48,-56.2 127.33,-40.07 106.75,-29 100.79,-25.79 94.17,-22.92 87.7,-20.44"/>
<polygon fill="#63b8ff" stroke="#63b8ff" points="160.69,-70.81 170.59,-74.57 165.2,-65.45 160.69,-70.81"/>
</a>
</g>
</g>
</g>
</svg>
</svg>

<style type='text/css'>
<![CDATA[
[data-mouse-over-selected='false'] { opacity: 0.7; }
[data-mouse-over-selected='true']  { opacity: 1.0; }
]]>
</style>
<script type="application/ecmascript"><![CDATA[
document.addEventListener('DOMContentLoaded', (event) => {
  highlightEdges();
  highlightAdjacentNodes();
});
]]></script>
</svg>
