<?xml version="1.0" encoding="UTF-8" standalone="no"?>
<!DOCTYPE svg PUBLIC "-//W3C//DTD SVG 1.1//EN"
 "http://www.w3.org/Graphics/SVG/1.1/DTD/svg11.dtd">
<!-- Generated by graphviz version 10.0.1 (20240210.2158)
 -->
<!-- Title: GUI::handleBuildingSelection Pages: 1 -->
<svg width="321pt" height="180pt"
 viewBox="0.00 0.00 321.25 180.00" xmlns="http://www.w3.org/2000/svg" xmlns:xlink="http://www.w3.org/1999/xlink">
<g id="graph0" class="graph" transform="scale(1 1) rotate(0) translate(4 176)">
<title>GUI::handleBuildingSelection</title>
<!-- Node1 -->
<g id="Node000001" class="node">
<title>Node1</title>
<g id="a_Node000001"><a xlink:title="What &quot;Buttons&quot; suppose to appear when clicking on the building type in gameplay.">
<polygon fill="#999999" stroke="#666666" points="142,-96 0,-96 0,-76 142,-76 142,-96"/>
<text text-anchor="middle" x="71" y="-82.5" font-family="Helvetica,sans-Serif" font-size="10.00">GUI::handleBuildingSelection</text>
</a>
</g>
</g>
<!-- Node2 -->
<g id="Node000002" class="node">
<title>Node2</title>
<g id="a_Node000002"><a xlink:href="class_side_bar.html#a8bfd240baf0383a6fa11822cf1c5776f" target="_top" xlink:title="Adds the buttons for the air units when the aircraft building is clicked on.">
<polygon fill="white" stroke="#666666" points="312.12,-172 179.12,-172 179.12,-152 312.12,-152 312.12,-172"/>
<text text-anchor="middle" x="245.62" y="-158.5" font-family="Helvetica,sans-Serif" font-size="10.00">SideBar::addAirCraftButton</text>
</a>
</g>
</g>
<!-- Node1&#45;&gt;Node2 -->
<g id="edge1_Node000001_Node000002" class="edge">
<title>Node1&#45;&gt;Node2</title>
<g id="a_edge1_Node000001_Node000002"><a xlink:title=" ">
<path fill="none" stroke="#63b8ff" d="M88.71,-96.45C109.14,-108.89 145.09,-129.64 178,-143 182.57,-144.86 187.4,-146.61 192.26,-148.24"/>
<polygon fill="#63b8ff" stroke="#63b8ff" points="190.9,-151.47 201.49,-151.15 193,-144.8 190.9,-151.47"/>
</a>
</g>
</g>
<!-- Node3 -->
<g id="Node000003" class="node">
<title>Node3</title>
<g id="a_Node000003"><a xlink:href="class_side_bar.html#a0a755f0ea7a46f3d6f0478b82f3d8ad5" target="_top" xlink:title="Adds the building buttons for the sidebar.">
<polygon fill="white" stroke="#666666" points="313.25,-134 178,-134 178,-114 313.25,-114 313.25,-134"/>
<text text-anchor="middle" x="245.62" y="-120.5" font-family="Helvetica,sans-Serif" font-size="10.00">SideBar::addBuildingButton</text>
</a>
</g>
</g>
<!-- Node1&#45;&gt;Node3 -->
<g id="edge2_Node000001_Node000003" class="edge">
<title>Node1&#45;&gt;Node3</title>
<g id="a_edge2_Node000001_Node000003"><a xlink:title=" ">
<path fill="none" stroke="#63b8ff" d="M119.63,-96.48C140.19,-101.01 164.45,-106.35 186.1,-111.12"/>
<polygon fill="#63b8ff" stroke="#63b8ff" points="185.16,-114.49 195.67,-113.22 186.66,-107.66 185.16,-114.49"/>
</a>
</g>
</g>
<!-- Node4 -->
<g id="Node000004" class="node">
<title>Node4</title>
<g id="a_Node000004"><a xlink:href="class_side_bar.html#a38a8e07a7b7fd8da23825dd193d659a3" target="_top" xlink:title="Adds the buttons for the infantry when barracks building is clicked on.">
<polygon fill="white" stroke="#666666" points="311.75,-96 179.5,-96 179.5,-76 311.75,-76 311.75,-96"/>
<text text-anchor="middle" x="245.62" y="-82.5" font-family="Helvetica,sans-Serif" font-size="10.00">SideBar::addInfantryButton</text>
</a>
</g>
</g>
<!-- Node1&#45;&gt;Node4 -->
<g id="edge3_Node000001_Node000004" class="edge">
<title>Node1&#45;&gt;Node4</title>
<g id="a_edge3_Node000001_Node000004"><a xlink:title=" ">
<path fill="none" stroke="#63b8ff" d="M142.21,-86C150.62,-86 159.24,-86 167.73,-86"/>
<polygon fill="#63b8ff" stroke="#63b8ff" points="167.7,-89.5 177.7,-86 167.7,-82.5 167.7,-89.5"/>
</a>
</g>
</g>
<!-- Node5 -->
<g id="Node000005" class="node">
<title>Node5</title>
<g id="a_Node000005"><a xlink:href="class_side_bar.html#a41846d720598c76c51371c790145a515" target="_top" xlink:title="Adds the buttons for vehicles when the warfactory building is clicked on.">
<polygon fill="white" stroke="#666666" points="312.12,-58 179.12,-58 179.12,-38 312.12,-38 312.12,-58"/>
<text text-anchor="middle" x="245.62" y="-44.5" font-family="Helvetica,sans-Serif" font-size="10.00">SideBar::addVehicleButton</text>
</a>
</g>
</g>
<!-- Node1&#45;&gt;Node5 -->
<g id="edge4_Node000001_Node000005" class="edge">
<title>Node1&#45;&gt;Node5</title>
<g id="a_edge4_Node000001_Node000005"><a xlink:title=" ">
<path fill="none" stroke="#63b8ff" d="M119.63,-75.52C140.19,-70.99 164.45,-65.65 186.1,-60.88"/>
<polygon fill="#63b8ff" stroke="#63b8ff" points="186.66,-64.34 195.67,-58.78 185.16,-57.51 186.66,-64.34"/>
</a>
</g>
</g>
<!-- Node6 -->
<g id="Node000006" class="node">
<title>Node6</title>
<g id="a_Node000006"><a xlink:href="class_side_bar.html#ad45013b35dc68cfc580bc8a35352dd63" target="_top" xlink:title="Just to clear everything.">
<polygon fill="white" stroke="#666666" points="301.25,-20 190,-20 190,0 301.25,0 301.25,-20"/>
<text text-anchor="middle" x="245.62" y="-6.5" font-family="Helvetica,sans-Serif" font-size="10.00">SideBar::clearButtons</text>
</a>
</g>
</g>
<!-- Node1&#45;&gt;Node6 -->
<g id="edge5_Node000001_Node000006" class="edge">
<title>Node1&#45;&gt;Node6</title>
<g id="a_edge5_Node000001_Node000006"><a xlink:title=" ">
<path fill="none" stroke="#63b8ff" d="M88.71,-75.55C109.14,-63.11 145.09,-42.36 178,-29 182.57,-27.14 187.4,-25.39 192.26,-23.76"/>
<polygon fill="#63b8ff" stroke="#63b8ff" points="193,-27.2 201.49,-20.85 190.9,-20.53 193,-27.2"/>
</a>
</g>
</g>
</g>
</svg>
