<?xml version="1.0" encoding="UTF-8" standalone="no"?>
<!DOCTYPE svg PUBLIC "-//W3C//DTD SVG 1.1//EN"
 "http://www.w3.org/Graphics/SVG/1.1/DTD/svg11.dtd">
<!-- Generated by graphviz version 10.0.1 (20240210.2158)
 -->
<!-- Title: HammerHead::update Pages: 1 -->
<!--zoomable 256 -->

<svg id="main" version="1.1" xmlns="http://www.w3.org/2000/svg" xmlns:xlink="http://www.w3.org/1999/xlink" xml:space="preserve" onload="init(evt)">
<style type="text/css"><![CDATA[
.node, .edge {opacity: 0.7;}
.node.selected, .edge.selected {opacity: 1;}
.edge:hover path { stroke: red; }
.edge:hover polygon { stroke: red; fill: red; }
]]></style>

<defs>
  <circle id="rim" cx="0" cy="0" r="7"/>
  <circle id="rim2" cx="0" cy="0" r="3.5"/>
  <g id="zoomPlus">
    <use xlink:href="#rim" fill="#404040"><set attributeName="fill" to="#808080" begin="zoomplus.mouseover" end="zoomplus.mouseout"/></use>
    <path d="M-4,0h8M0,-4v8" fill="none" stroke="white" stroke-width="1.5" pointer-events="none"/>
  </g>
  <g id="zoomMin">
    <use xlink:href="#rim" fill="#404040"><set attributeName="fill" to="#808080" begin="zoomminus.mouseover" end="zoomminus.mouseout"/></use>
    <path d="M-4,0h8" fill="none" stroke="white" stroke-width="1.5" pointer-events="none"/>
  </g>
  <g id="arrowUp" transform="translate(30 24)">
    <use xlink:href="#rim"/>
    <path pointer-events="none" fill="none" stroke="white" stroke-width="1.5" d="M0,-3.0v7 M-2.5,-0.5L0,-3.0L2.5,-0.5"/>
  </g>
  <g id="arrowRight" transform="rotate(90) translate(36 -43)">
    <use xlink:href="#rim"/>
    <path pointer-events="none" fill="none" stroke="white" stroke-width="1.5" d="M0,-3.0v7 M-2.5,-0.5L0,-3.0L2.5,-0.5"/>
  </g>
  <g id="arrowDown" transform="rotate(180) translate(-30 -48)">
    <use xlink:href="#rim"/>
    <path pointer-events="none" fill="none" stroke="white" stroke-width="1.5" d="M0,-3.0v7 M-2.5,-0.5L0,-3.0L2.5,-0.5"/>
  </g>
  <g id="arrowLeft" transform="rotate(270) translate(-36 17)">
    <use xlink:href="#rim"/>
    <path pointer-events="none" fill="none" stroke="white" stroke-width="1.5" d="M0,-3.0v7 M-2.5,-0.5L0,-3.0L2.5,-0.5"/>
  </g>
  <g id="resetDef">
    <use xlink:href="#rim2" fill="#404040"><set attributeName="fill" to="#808080" begin="reset.mouseover" end="reset.mouseout"/></use>
  </g>
</defs>
<script type="application/ecmascript">
var viewWidth = 904;
var viewHeight = 256;
var sectionId = 'dynsection-3';
</script>
<script type="application/ecmascript" xlink:href="svg.min.js"/>
<svg id="graph" class="graph">
<g id="viewport">
<title>HammerHead::update</title>
<!-- Node1 -->
<g id="Node000001" class="node">
<title>Node1</title>
<g id="a_Node000001"><a xlink:title=" ">
<polygon fill="#999999" stroke="#666666" points="110.5,-143 0,-143 0,-123 110.5,-123 110.5,-143"/>
<text text-anchor="middle" x="55.25" y="-129.5" font-family="Helvetica,sans-Serif" font-size="10.00">HammerHead::update</text>
</a>
</g>
</g>
<!-- Node2 -->
<g id="Node000002" class="node">
<title>Node2</title>
<g id="a_Node000002"><a xlink:href="class_unit.html#a9262163e015dca7a29a114798b7ede32" target="_top" xlink:title="it just orientates the sprite a bit">
<polygon fill="white" stroke="#666666" points="290,-162 146.5,-162 146.5,-142 290,-142 290,-162"/>
<text text-anchor="middle" x="218.25" y="-148.5" font-family="Helvetica,sans-Serif" font-size="10.00">Unit::orientSpriteToMovement</text>
</a>
</g>
</g>
<!-- Node1&#45;&gt;Node2 -->
<g id="edge1_Node000001_Node000002" class="edge">
<title>Node1&#45;&gt;Node2</title>
<g id="a_edge1_Node000001_Node000002"><a xlink:title=" ">
<path fill="none" stroke="#63b8ff" d="M110.76,-139.43C118.6,-140.36 126.81,-141.33 135.04,-142.3"/>
<polygon fill="#63b8ff" stroke="#63b8ff" points="134.4,-145.75 144.74,-143.44 135.22,-138.8 134.4,-145.75"/>
</a>
</g>
</g>
<!-- Node5 -->
<g id="Node000005" class="node">
<title>Node5</title>
<g id="a_Node000005"><a xlink:href="class_aircraft_unit.html#a383a50ac692f739ef21306ba9860c4e5" target="_top" xlink:title=" ">
<polygon fill="white" stroke="#666666" points="267.88,-124 168.62,-124 168.62,-104 267.88,-104 267.88,-124"/>
<text text-anchor="middle" x="218.25" y="-110.5" font-family="Helvetica,sans-Serif" font-size="10.00">AircraftUnit::update</text>
</a>
</g>
</g>
<!-- Node1&#45;&gt;Node5 -->
<g id="edge4_Node000001_Node000005" class="edge">
<title>Node1&#45;&gt;Node5</title>
<g id="a_edge4_Node000001_Node000005"><a xlink:title=" ">
<path fill="none" stroke="#63b8ff" d="M110.76,-126.57C125.59,-124.82 141.74,-122.91 156.87,-121.13"/>
<polygon fill="#63b8ff" stroke="#63b8ff" points="157.18,-124.61 166.7,-119.97 156.36,-117.66 157.18,-124.61"/>
</a>
</g>
</g>
<!-- Node3 -->
<g id="Node000003" class="node">
<title>Node3</title>
<g id="a_Node000003"><a xlink:href="class_unit.html#a90612b354704a618a5647ec4742b427b" target="_top" xlink:title=" ">
<polygon fill="white" stroke="#666666" points="410.25,-200 326,-200 326,-180 410.25,-180 410.25,-200"/>
<text text-anchor="middle" x="368.12" y="-186.5" font-family="Helvetica,sans-Serif" font-size="10.00">Unit::magnitude</text>
</a>
</g>
</g>
<!-- Node2&#45;&gt;Node3 -->
<g id="edge2_Node000002_Node000003" class="edge">
<title>Node2&#45;&gt;Node3</title>
<g id="a_edge2_Node000002_Node000003"><a xlink:title=" ">
<path fill="none" stroke="#63b8ff" d="M260.05,-162.48C277.18,-166.89 297.31,-172.06 315.46,-176.72"/>
<polygon fill="#63b8ff" stroke="#63b8ff" points="314.44,-180.07 324.99,-179.17 316.18,-173.29 314.44,-180.07"/>
</a>
</g>
</g>
<!-- Node4 -->
<g id="Node000004" class="node">
<title>Node4</title>
<g id="a_Node000004"><a xlink:href="class_unit.html#a1eb792473a50b709972cf726a693186b" target="_top" xlink:title=" ">
<polygon fill="white" stroke="#666666" points="409.88,-162 326.38,-162 326.38,-142 409.88,-142 409.88,-162"/>
<text text-anchor="middle" x="368.12" y="-148.5" font-family="Helvetica,sans-Serif" font-size="10.00">Unit::toDegrees</text>
</a>
</g>
</g>
<!-- Node2&#45;&gt;Node4 -->
<g id="edge3_Node000002_Node000004" class="edge">
<title>Node2&#45;&gt;Node4</title>
<g id="a_edge3_Node000002_Node000004"><a xlink:title=" ">
<path fill="none" stroke="#63b8ff" d="M290.16,-152C298.42,-152 306.74,-152 314.69,-152"/>
<polygon fill="#63b8ff" stroke="#63b8ff" points="314.53,-155.5 324.53,-152 314.53,-148.5 314.53,-155.5"/>
</a>
</g>
</g>
<!-- Node6 -->
<g id="Node000006" class="node">
<title>Node6</title>
<g id="a_Node000006"><a xlink:href="class_unit.html#a1170c0150d547432074d11e0a5896494" target="_top" xlink:title=" ">
<polygon fill="white" stroke="#666666" points="402.38,-124 333.88,-124 333.88,-104 402.38,-104 402.38,-124"/>
<text text-anchor="middle" x="368.12" y="-110.5" font-family="Helvetica,sans-Serif" font-size="10.00">Unit::update</text>
</a>
</g>
</g>
<!-- Node5&#45;&gt;Node6 -->
<g id="edge5_Node000005_Node000006" class="edge">
<title>Node5&#45;&gt;Node6</title>
<g id="a_edge5_Node000005_Node000006"><a xlink:title=" ">
<path fill="none" stroke="#63b8ff" d="M268.08,-114C285.58,-114 305.21,-114 322.34,-114"/>
<polygon fill="#63b8ff" stroke="#63b8ff" points="322.24,-117.5 332.24,-114 322.24,-110.5 322.24,-117.5"/>
</a>
</g>
</g>
<!-- Node7 -->
<g id="Node000007" class="node">
<title>Node7</title>
<g id="a_Node000007"><a xlink:href="class_unit.html#a5a0d56542c689f13276b9db77c1b36d8" target="_top" xlink:title="its to avoid colliding with each other">
<polygon fill="white" stroke="#666666" points="593.12,-181 447.38,-181 447.38,-161 593.12,-161 593.12,-181"/>
<text text-anchor="middle" x="520.25" y="-167.5" font-family="Helvetica,sans-Serif" font-size="10.00">Unit::avoidCollisionsWithUnits</text>
</a>
</g>
</g>
<!-- Node6&#45;&gt;Node7 -->
<g id="edge6_Node000006_Node000007" class="edge">
<title>Node6&#45;&gt;Node7</title>
<g id="a_edge6_Node000006_Node000007"><a xlink:title=" ">
<path fill="none" stroke="#63b8ff" d="M396.66,-124.45C420.29,-133.43 454.59,-146.45 480.9,-156.44"/>
<polygon fill="#63b8ff" stroke="#63b8ff" points="479.63,-159.7 490.22,-159.98 482.11,-153.16 479.63,-159.7"/>
</a>
</g>
</g>
<!-- Node11 -->
<g id="Node000011" class="node">
<title>Node11</title>
<g id="a_Node000011"><a xlink:href="class_unit.html#ae5032b9bfa0290392ae1a33c2525a18f" target="_top" xlink:title="To avoid walls for units.">
<polygon fill="white" stroke="#666666" points="594.25,-124 446.25,-124 446.25,-104 594.25,-104 594.25,-124"/>
<text text-anchor="middle" x="520.25" y="-110.5" font-family="Helvetica,sans-Serif" font-size="10.00">Unit::avoidCollisionsWithWalls</text>
</a>
</g>
</g>
<!-- Node6&#45;&gt;Node11 -->
<g id="edge10_Node000006_Node000011" class="edge">
<title>Node6&#45;&gt;Node11</title>
<g id="a_edge10_Node000006_Node000011"><a xlink:title=" ">
<path fill="none" stroke="#63b8ff" d="M402.82,-114C412.41,-114 423.32,-114 434.52,-114"/>
<polygon fill="#63b8ff" stroke="#63b8ff" points="434.26,-117.5 444.26,-114 434.26,-110.5 434.26,-117.5"/>
</a>
</g>
</g>
<!-- Node15 -->
<g id="Node000015" class="node">
<title>Node15</title>
<g id="a_Node000015"><a xlink:href="class_particle_system.html#ad395c1ed8a4e35546ab040dc75955732" target="_top" xlink:title=" ">
<polygon fill="white" stroke="#666666" points="579.25,-86 461.25,-86 461.25,-66 579.25,-66 579.25,-86"/>
<text text-anchor="middle" x="520.25" y="-72.5" font-family="Helvetica,sans-Serif" font-size="10.00">ParticleSystem::update</text>
</a>
</g>
</g>
<!-- Node6&#45;&gt;Node15 -->
<g id="edge18_Node000006_Node000015" class="edge">
<title>Node6&#45;&gt;Node15</title>
<g id="a_edge18_Node000006_Node000015"><a xlink:title=" ">
<path fill="none" stroke="#63b8ff" d="M402.82,-105.47C421.65,-100.71 445.53,-94.66 466.76,-89.29"/>
<polygon fill="#63b8ff" stroke="#63b8ff" points="467.6,-92.68 476.44,-86.84 465.89,-85.9 467.6,-92.68"/>
</a>
</g>
</g>
<!-- Node8 -->
<g id="Node000008" class="node">
<title>Node8</title>
<g id="a_Node000008"><a xlink:href="class_unit.html#a7101070923fae272f484c94e6455312f" target="_top" xlink:title=" ">
<polygon fill="white" stroke="#666666" points="736.62,-248 660.62,-248 660.62,-228 736.62,-228 736.62,-248"/>
<text text-anchor="middle" x="698.62" y="-234.5" font-family="Helvetica,sans-Serif" font-size="10.00">Unit::distance</text>
</a>
</g>
</g>
<!-- Node7&#45;&gt;Node8 -->
<g id="edge7_Node000007_Node000008" class="edge">
<title>Node7&#45;&gt;Node8</title>
<g id="a_edge7_Node000007_Node000008"><a xlink:title=" ">
<path fill="none" stroke="#63b8ff" d="M547.14,-181.5C569.17,-190.36 601.68,-203.28 630.25,-214 638.83,-217.22 648.07,-220.58 656.87,-223.73"/>
<polygon fill="#63b8ff" stroke="#63b8ff" points="655.68,-227.02 666.27,-227.07 658.02,-220.43 655.68,-227.02"/>
</a>
</g>
</g>
<!-- Node9 -->
<g id="Node000009" class="node">
<title>Node9</title>
<g id="a_Node000009"><a xlink:href="class_unit.html#aa33e6fe8098210a9aeac019345f8a235" target="_top" xlink:title=" ">
<polygon fill="white" stroke="#666666" points="742.62,-172 654.62,-172 654.62,-152 742.62,-152 742.62,-172"/>
<text text-anchor="middle" x="698.62" y="-158.5" font-family="Helvetica,sans-Serif" font-size="10.00">Unit::getPosition</text>
</a>
</g>
</g>
<!-- Node7&#45;&gt;Node9 -->
<g id="edge8_Node000007_Node000009" class="edge">
<title>Node7&#45;&gt;Node9</title>
<g id="a_edge8_Node000007_Node000009"><a xlink:title=" ">
<path fill="none" stroke="#63b8ff" d="M593.5,-167.31C610.11,-166.47 627.5,-165.58 643.21,-164.78"/>
<polygon fill="#63b8ff" stroke="#63b8ff" points="643,-168.29 652.8,-164.29 642.64,-161.3 643,-168.29"/>
</a>
</g>
</g>
<!-- Node10 -->
<g id="Node000010" class="node">
<title>Node10</title>
<g id="a_Node000010"><a xlink:href="class_unit.html#a829181674d469a36b7e0a6a975d9f66f" target="_top" xlink:title=" ">
<polygon fill="white" stroke="#666666" points="889.88,-134 808.62,-134 808.62,-114 889.88,-114 889.88,-134"/>
<text text-anchor="middle" x="849.25" y="-120.5" font-family="Helvetica,sans-Serif" font-size="10.00">Unit::normalize</text>
</a>
</g>
</g>
<!-- Node7&#45;&gt;Node10 -->
<g id="edge9_Node000007_Node000010" class="edge">
<title>Node7&#45;&gt;Node10</title>
<g id="a_edge9_Node000007_Node000010"><a xlink:title=" ">
<path fill="none" stroke="#63b8ff" d="M564.6,-181.48C614.64,-191.61 698.8,-202.54 767,-181 791.45,-173.28 814.93,-155.28 830.3,-141.55"/>
<polygon fill="#63b8ff" stroke="#63b8ff" points="832.3,-144.47 837.25,-135.11 827.54,-139.34 832.3,-144.47"/>
</a>
</g>
</g>
<!-- Node11&#45;&gt;Node9 -->
<g id="edge14_Node000011_Node000009" class="edge">
<title>Node11&#45;&gt;Node9</title>
<g id="a_edge14_Node000011_Node000009"><a xlink:title=" ">
<path fill="none" stroke="#63b8ff" d="M559.52,-124.42C585.55,-131.5 620.23,-140.94 648.32,-148.58"/>
<polygon fill="#63b8ff" stroke="#63b8ff" points="647.1,-151.88 657.66,-151.12 648.93,-145.12 647.1,-151.88"/>
</a>
</g>
</g>
<!-- Node11&#45;&gt;Node10 -->
<g id="edge16_Node000011_Node000010" class="edge">
<title>Node11&#45;&gt;Node10</title>
<g id="a_edge16_Node000011_Node000010"><a xlink:title=" ">
<path fill="none" stroke="#63b8ff" d="M594.64,-116.24C656.21,-118.13 742.59,-120.77 796.96,-122.43"/>
<polygon fill="#63b8ff" stroke="#63b8ff" points="796.78,-125.93 806.88,-122.73 796.99,-118.93 796.78,-125.93"/>
</a>
</g>
</g>
<!-- Node12 -->
<g id="Node000012" class="node">
<title>Node12</title>
<g id="a_Node000012"><a xlink:href="class_unit.html#a42777458d8e2ae32407212027719b6d2" target="_top" xlink:title="This looks for a suitable direction to avoid walls when a direct path is blocked It tries various ang...">
<polygon fill="white" stroke="#666666" points="767,-96 630.25,-96 630.25,-76 767,-76 767,-96"/>
<text text-anchor="middle" x="698.62" y="-82.5" font-family="Helvetica,sans-Serif" font-size="10.00">Unit::findAvoidanceDirection</text>
</a>
</g>
</g>
<!-- Node11&#45;&gt;Node12 -->
<g id="edge11_Node000011_Node000012" class="edge">
<title>Node11&#45;&gt;Node12</title>
<g id="a_edge11_Node000011_Node000012"><a xlink:title=" ">
<path fill="none" stroke="#63b8ff" d="M587.18,-103.53C597.92,-101.83 609.14,-100.05 620.14,-98.3"/>
<polygon fill="#63b8ff" stroke="#63b8ff" points="620.66,-101.76 629.99,-96.74 619.56,-94.85 620.66,-101.76"/>
</a>
</g>
</g>
<!-- Node13 -->
<g id="Node000013" class="node">
<title>Node13</title>
<g id="a_Node000013"><a xlink:href="class_unit.html#acabd56084730e0bb32811ab6b7be625a" target="_top" xlink:title=" ">
<polygon fill="white" stroke="#666666" points="895.5,-77 803,-77 803,-57 895.5,-57 895.5,-77"/>
<text text-anchor="middle" x="849.25" y="-63.5" font-family="Helvetica,sans-Serif" font-size="10.00">Unit::rotateVector</text>
</a>
</g>
</g>
<!-- Node11&#45;&gt;Node13 -->
<g id="edge17_Node000011_Node000013" class="edge">
<title>Node11&#45;&gt;Node13</title>
<g id="a_edge17_Node000011_Node000013"><a xlink:title=" ">
<path fill="none" stroke="#63b8ff" d="M572.48,-103.51C579.96,-101.17 587.44,-98.36 594.25,-95 612.43,-86.04 611.08,-73.58 630.25,-67 682.61,-49.03 746.31,-51.6 791.29,-57.1"/>
<polygon fill="#63b8ff" stroke="#63b8ff" points="790.72,-60.55 801.09,-58.39 791.63,-53.61 790.72,-60.55"/>
</a>
</g>
</g>
<!-- Node14 -->
<g id="Node000014" class="node">
<title>Node14</title>
<g id="a_Node000014"><a xlink:href="class_unit.html#a2ee0326af0abc525deadf772e485f657" target="_top" xlink:title=" ">
<polygon fill="white" stroke="#666666" points="726.12,-20 671.12,-20 671.12,0 726.12,0 726.12,-20"/>
<text text-anchor="middle" x="698.62" y="-6.5" font-family="Helvetica,sans-Serif" font-size="10.00">Unit::lerp</text>
</a>
</g>
</g>
<!-- Node11&#45;&gt;Node14 -->
<g id="edge15_Node000011_Node000014" class="edge">
<title>Node11&#45;&gt;Node14</title>
<g id="a_edge15_Node000011_Node000014"><a xlink:title=" ">
<path fill="none" stroke="#63b8ff" d="M579.06,-103.63C584.47,-101.31 589.65,-98.47 594.25,-95 619.38,-76.05 605.97,-54.04 630.25,-34 638.76,-26.98 649.48,-21.94 659.85,-18.35"/>
<polygon fill="#63b8ff" stroke="#63b8ff" points="660.85,-21.71 669.4,-15.45 658.81,-15.01 660.85,-21.71"/>
</a>
</g>
</g>
<!-- Node12&#45;&gt;Node10 -->
<g id="edge12_Node000012_Node000010" class="edge">
<title>Node12&#45;&gt;Node10</title>
<g id="a_edge12_Node000012_Node000010"><a xlink:title=" ">
<path fill="none" stroke="#63b8ff" d="M740.63,-96.48C758.06,-100.94 778.58,-106.19 797,-110.9"/>
<polygon fill="#63b8ff" stroke="#63b8ff" points="796.13,-114.29 806.68,-113.37 797.86,-107.5 796.13,-114.29"/>
</a>
</g>
</g>
<!-- Node12&#45;&gt;Node13 -->
<g id="edge13_Node000012_Node000013" class="edge">
<title>Node12&#45;&gt;Node13</title>
<g id="a_edge13_Node000012_Node000013"><a xlink:title=" ">
<path fill="none" stroke="#63b8ff" d="M767.41,-77.33C775.44,-76.31 783.56,-75.27 791.42,-74.27"/>
<polygon fill="#63b8ff" stroke="#63b8ff" points="791.7,-77.76 801.17,-73.02 790.81,-70.81 791.7,-77.76"/>
</a>
</g>
</g>
</g>
</svg>

<g id="navigator" transform="translate(0 0)" fill="#404254">
  <rect fill="#f2f5e9" fill-opacity="0.5" stroke="#606060" stroke-width=".5" x="0" y="0" width="60" height="60"/>
  <use id="zoomplus" xlink:href="#zoomPlus" x="17" y="9" onmousedown="handleZoom(evt,'in')"/>
  <use id="zoomminus" xlink:href="#zoomMin" x="42" y="9" onmousedown="handleZoom(evt,'out')"/>
  <use id="reset" xlink:href="#resetDef" x="30" y="36" onmousedown="handleReset()"/>
   <use id="arrowup" xlink:href="#arrowUp" x="0" y="0" onmousedown="handlePan(0,-1)"/>
  <use id="arrowright" xlink:href="#arrowRight" x="0" y="0" onmousedown="handlePan(1,0)"/>
  <use id="arrowdown" xlink:href="#arrowDown" x="0" y="0" onmousedown="handlePan(0,1)"/>
  <use id="arrowleft" xlink:href="#arrowLeft" x="0" y="0" onmousedown="handlePan(-1,0)"/>
</g>
<svg viewBox="0 0 15 15" width="100%" height="30px" preserveAspectRatio="xMaxYMin meet">
 <g id="arrow_out" transform="scale(0.3 0.3)">
  <a xlink:href="class_hammer_head_a57c18e3d80cb32b40aa995bf76f59949_cgraph_org.svg" target="_base">
   <rect id="button" ry="5" rx="5" y="6" x="6" height="38" width="38"
        fill="#f2f5e9" fill-opacity="0.5" stroke="#606060" stroke-width="1.0"/>
   <path id="arrow"
     d="M 11.500037,31.436501 C 11.940474,20.09759 22.043105,11.32322 32.158766,21.979434 L 37.068811,17.246167 C 37.068811,17.246167 37.088388,32 37.088388,32 L 22.160133,31.978069 C 22.160133,31.978069 26.997745,27.140456 26.997745,27.140456 C 18.528582,18.264221 13.291696,25.230495 11.500037,31.436501 z"
     style="fill:#404040;"/>
  </a>
 </g>
</svg>

<style type='text/css'>
<![CDATA[
[data-mouse-over-selected='false'] { opacity: 0.7; }
[data-mouse-over-selected='true']  { opacity: 1.0; }
]]>
</style>
<script type="application/ecmascript"><![CDATA[
document.addEventListener('DOMContentLoaded', (event) => {
  highlightEdges();
  highlightAdjacentNodes();
});
]]></script>
</svg>
