<?xml version="1.0" encoding="UTF-8" standalone="no"?>
<!DOCTYPE svg PUBLIC "-//W3C//DTD SVG 1.1//EN"
 "http://www.w3.org/Graphics/SVG/1.1/DTD/svg11.dtd">
<!-- Generated by graphviz version 10.0.1 (20240210.2158)
 -->
<!-- Title: Building Pages: 1 -->
<!--zoomable 692 -->

<svg id="main" version="1.1" xmlns="http://www.w3.org/2000/svg" xmlns:xlink="http://www.w3.org/1999/xlink" xml:space="preserve" onload="init(evt)">
<style type="text/css"><![CDATA[
.node, .edge {opacity: 0.7;}
.node.selected, .edge.selected {opacity: 1;}
.edge:hover path { stroke: red; }
.edge:hover polygon { stroke: red; fill: red; }
]]></style>

<defs>
  <circle id="rim" cx="0" cy="0" r="7"/>
  <circle id="rim2" cx="0" cy="0" r="3.5"/>
  <g id="zoomPlus">
    <use xlink:href="#rim" fill="#404040"><set attributeName="fill" to="#808080" begin="zoomplus.mouseover" end="zoomplus.mouseout"/></use>
    <path d="M-4,0h8M0,-4v8" fill="none" stroke="white" stroke-width="1.5" pointer-events="none"/>
  </g>
  <g id="zoomMin">
    <use xlink:href="#rim" fill="#404040"><set attributeName="fill" to="#808080" begin="zoomminus.mouseover" end="zoomminus.mouseout"/></use>
    <path d="M-4,0h8" fill="none" stroke="white" stroke-width="1.5" pointer-events="none"/>
  </g>
  <g id="arrowUp" transform="translate(30 24)">
    <use xlink:href="#rim"/>
    <path pointer-events="none" fill="none" stroke="white" stroke-width="1.5" d="M0,-3.0v7 M-2.5,-0.5L0,-3.0L2.5,-0.5"/>
  </g>
  <g id="arrowRight" transform="rotate(90) translate(36 -43)">
    <use xlink:href="#rim"/>
    <path pointer-events="none" fill="none" stroke="white" stroke-width="1.5" d="M0,-3.0v7 M-2.5,-0.5L0,-3.0L2.5,-0.5"/>
  </g>
  <g id="arrowDown" transform="rotate(180) translate(-30 -48)">
    <use xlink:href="#rim"/>
    <path pointer-events="none" fill="none" stroke="white" stroke-width="1.5" d="M0,-3.0v7 M-2.5,-0.5L0,-3.0L2.5,-0.5"/>
  </g>
  <g id="arrowLeft" transform="rotate(270) translate(-36 17)">
    <use xlink:href="#rim"/>
    <path pointer-events="none" fill="none" stroke="white" stroke-width="1.5" d="M0,-3.0v7 M-2.5,-0.5L0,-3.0L2.5,-0.5"/>
  </g>
  <g id="resetDef">
    <use xlink:href="#rim2" fill="#404040"><set attributeName="fill" to="#808080" begin="reset.mouseover" end="reset.mouseout"/></use>
  </g>
</defs>
<script type="application/ecmascript">
var viewWidth = 1280;
var viewHeight = 692;
var sectionId = 'dynsection-0';
</script>
<script type="application/ecmascript" xlink:href="svg.min.js"/>
<svg id="graph" class="graph">
<g id="viewport">
<title>Building</title>
<!-- Node1 -->
<g id="Node000001" class="node">
<title>Node1</title>
<g id="a_Node000001"><a xlink:title=" ">
<polygon fill="#999999" stroke="none" points="759,-684 513,-684 513,-136 759,-136 759,-684"/>
<text text-anchor="start" x="618.75" y="-670.5" font-family="Helvetica,sans-Serif" font-size="10.00">Building</text>
<text text-anchor="start" x="517.38" y="-654.5" font-family="Helvetica,sans-Serif" font-size="10.00">#</text>
<text text-anchor="start" x="527" y="-654.5" font-family="Helvetica,sans-Serif" font-size="10.00">ParticleSystem m_smokeEffect</text>
<text text-anchor="start" x="517.38" y="-638.5" font-family="Helvetica,sans-Serif" font-size="10.00">#</text>
<text text-anchor="start" x="527" y="-638.5" font-family="Helvetica,sans-Serif" font-size="10.00">sf::Texture m_smokeTexture</text>
<text text-anchor="start" x="517.38" y="-622.5" font-family="Helvetica,sans-Serif" font-size="10.00">#</text>
<text text-anchor="start" x="527" y="-622.5" font-family="Helvetica,sans-Serif" font-size="10.00">sf::Vector2f m_position</text>
<text text-anchor="start" x="517.38" y="-606.5" font-family="Helvetica,sans-Serif" font-size="10.00">#</text>
<text text-anchor="start" x="527" y="-606.5" font-family="Helvetica,sans-Serif" font-size="10.00">std::string m_name</text>
<text text-anchor="start" x="517.38" y="-590.5" font-family="Helvetica,sans-Serif" font-size="10.00">#</text>
<text text-anchor="start" x="527" y="-590.5" font-family="Helvetica,sans-Serif" font-size="10.00">sf::Texture m_buildingTexture</text>
<text text-anchor="start" x="517.38" y="-574.5" font-family="Helvetica,sans-Serif" font-size="10.00">#</text>
<text text-anchor="start" x="527" y="-574.5" font-family="Helvetica,sans-Serif" font-size="10.00">sf::Sprite m_buildingSprite</text>
<text text-anchor="start" x="517.38" y="-558.5" font-family="Helvetica,sans-Serif" font-size="10.00">#</text>
<text text-anchor="start" x="527" y="-558.5" font-family="Helvetica,sans-Serif" font-size="10.00">sf::CircleShape m_placementRadius</text>
<text text-anchor="start" x="517.38" y="-542.5" font-family="Helvetica,sans-Serif" font-size="10.00">#</text>
<text text-anchor="start" x="527" y="-542.5" font-family="Helvetica,sans-Serif" font-size="10.00">sf::RectangleShape m_healthBar</text>
<text text-anchor="start" x="517.38" y="-526.5" font-family="Helvetica,sans-Serif" font-size="10.00">#</text>
<text text-anchor="start" x="527" y="-526.5" font-family="Helvetica,sans-Serif" font-size="10.00">sf::RectangleShape m_healthBarBackground</text>
<text text-anchor="start" x="517.38" y="-510.5" font-family="Helvetica,sans-Serif" font-size="10.00">#</text>
<text text-anchor="start" x="527" y="-510.5" font-family="Helvetica,sans-Serif" font-size="10.00">int m_health</text>
<text text-anchor="start" x="517.38" y="-494.5" font-family="Helvetica,sans-Serif" font-size="10.00">#</text>
<text text-anchor="start" x="527" y="-494.5" font-family="Helvetica,sans-Serif" font-size="10.00">int m_maxHealth</text>
<text text-anchor="start" x="517.38" y="-478.5" font-family="Helvetica,sans-Serif" font-size="10.00">#</text>
<text text-anchor="start" x="527" y="-478.5" font-family="Helvetica,sans-Serif" font-size="10.00">int m_cost</text>
<text text-anchor="start" x="517.38" y="-462.5" font-family="Helvetica,sans-Serif" font-size="10.00">#</text>
<text text-anchor="start" x="527" y="-462.5" font-family="Helvetica,sans-Serif" font-size="10.00">BuildingType m_type</text>
<text text-anchor="start" x="517.38" y="-446.5" font-family="Helvetica,sans-Serif" font-size="10.00">#</text>
<text text-anchor="start" x="527" y="-446.5" font-family="Helvetica,sans-Serif" font-size="10.00">bool m_placementRadiusVisible</text>
<text text-anchor="start" x="517" y="-430.5" font-family="Helvetica,sans-Serif" font-size="10.00">+</text>
<text text-anchor="start" x="527" y="-430.5" font-family="Helvetica,sans-Serif" font-size="10.00">Building(BuildingType m_type)</text>
<text text-anchor="start" x="517" y="-414.5" font-family="Helvetica,sans-Serif" font-size="10.00">+</text>
<text text-anchor="start" x="527" y="-414.5" font-family="Helvetica,sans-Serif" font-size="10.00">virtual ~Building()</text>
<text text-anchor="start" x="517" y="-398.5" font-family="Helvetica,sans-Serif" font-size="10.00">+</text>
<text text-anchor="start" x="527" y="-398.5" font-family="Helvetica,sans-Serif" font-size="10.00">virtual void update(sf::Time t_deltaTime)</text>
<text text-anchor="start" x="517" y="-382.5" font-family="Helvetica,sans-Serif" font-size="10.00">+</text>
<text text-anchor="start" x="527" y="-382.5" font-family="Helvetica,sans-Serif" font-size="10.00">virtual void render(sf::RenderWindow &amp;m_window)</text>
<text text-anchor="start" x="517" y="-366.5" font-family="Helvetica,sans-Serif" font-size="10.00">+</text>
<text text-anchor="start" x="527" y="-366.5" font-family="Helvetica,sans-Serif" font-size="10.00">void takeDamage(float m_damageAmount)</text>
<text text-anchor="start" x="517" y="-350.5" font-family="Helvetica,sans-Serif" font-size="10.00">+</text>
<text text-anchor="start" x="527" y="-350.5" font-family="Helvetica,sans-Serif" font-size="10.00">void setPosition(const sf::Vector2f &amp;m_position)</text>
<text text-anchor="start" x="517" y="-334.5" font-family="Helvetica,sans-Serif" font-size="10.00">+</text>
<text text-anchor="start" x="527" y="-334.5" font-family="Helvetica,sans-Serif" font-size="10.00">sf::Vector2f getPosition()</text>
<text text-anchor="start" x="517" y="-318.5" font-family="Helvetica,sans-Serif" font-size="10.00">+</text>
<text text-anchor="start" x="527" y="-318.5" font-family="Helvetica,sans-Serif" font-size="10.00">int getCost() const</text>
<text text-anchor="start" x="517" y="-302.5" font-family="Helvetica,sans-Serif" font-size="10.00">+</text>
<text text-anchor="start" x="527" y="-302.5" font-family="Helvetica,sans-Serif" font-size="10.00">float getHealth() const</text>
<text text-anchor="start" x="517" y="-286.5" font-family="Helvetica,sans-Serif" font-size="10.00">+</text>
<text text-anchor="start" x="527" y="-286.5" font-family="Helvetica,sans-Serif" font-size="10.00">BuildingType getType() const</text>
<text text-anchor="start" x="517" y="-270.5" font-family="Helvetica,sans-Serif" font-size="10.00">+</text>
<text text-anchor="start" x="527" y="-270.5" font-family="Helvetica,sans-Serif" font-size="10.00">bool checkAffordability()</text>
<text text-anchor="start" x="517" y="-254.5" font-family="Helvetica,sans-Serif" font-size="10.00">+</text>
<text text-anchor="start" x="527" y="-254.5" font-family="Helvetica,sans-Serif" font-size="10.00">void setPlacementRadiusSize(float m_radius)</text>
<text text-anchor="start" x="517" y="-238.5" font-family="Helvetica,sans-Serif" font-size="10.00">+</text>
<text text-anchor="start" x="527" y="-238.5" font-family="Helvetica,sans-Serif" font-size="10.00">void setHealth(float newHealth)</text>
<text text-anchor="start" x="517" y="-222.5" font-family="Helvetica,sans-Serif" font-size="10.00">+</text>
<text text-anchor="start" x="527" y="-222.5" font-family="Helvetica,sans-Serif" font-size="10.00">const sf::Sprite &amp; getBuildingSprite() const</text>
<text text-anchor="start" x="517" y="-206.5" font-family="Helvetica,sans-Serif" font-size="10.00">+</text>
<text text-anchor="start" x="527" y="-206.5" font-family="Helvetica,sans-Serif" font-size="10.00">const sf::Texture &amp; getBuildingTexture() const</text>
<text text-anchor="start" x="517" y="-190.5" font-family="Helvetica,sans-Serif" font-size="10.00">+</text>
<text text-anchor="start" x="527" y="-190.5" font-family="Helvetica,sans-Serif" font-size="10.00">const sf::CircleShape &amp; getPlacementRadius() const</text>
<text text-anchor="start" x="517" y="-174.5" font-family="Helvetica,sans-Serif" font-size="10.00">+</text>
<text text-anchor="start" x="527" y="-174.5" font-family="Helvetica,sans-Serif" font-size="10.00">void updateHealthBar()</text>
<text text-anchor="start" x="517.38" y="-158.5" font-family="Helvetica,sans-Serif" font-size="10.00">#</text>
<text text-anchor="start" x="527" y="-158.5" font-family="Helvetica,sans-Serif" font-size="10.00">void initSmokeEffect()</text>
<text text-anchor="start" x="517.38" y="-142.5" font-family="Helvetica,sans-Serif" font-size="10.00">#</text>
<text text-anchor="start" x="527" y="-142.5" font-family="Helvetica,sans-Serif" font-size="10.00">void spawnSmokeEffect()</text>
<polygon fill="#666666" stroke="#666666" points="513,-666 513,-666 759,-666 759,-666 513,-666"/>
<polygon fill="#666666" stroke="#666666" points="513,-442 513,-442 525,-442 525,-442 513,-442"/>
<polygon fill="#666666" stroke="#666666" points="525,-442 525,-442 759,-442 759,-442 525,-442"/>
<polygon fill="none" stroke="#666666" points="513,-136 513,-684 759,-684 759,-136 513,-136"/>
</a>
</g>
</g>
<!-- Node2 -->
<g id="Node000002" class="node">
<title>Node2</title>
<g id="a_Node000002"><a xlink:href="class_air_craft.html" target="_top" xlink:title=" ">
<polygon fill="white" stroke="none" points="240,-100 0,-100 0,0 240,0 240,-100"/>
<text text-anchor="start" x="103.88" y="-86.5" font-family="Helvetica,sans-Serif" font-size="10.00">AirCraft</text>
<text text-anchor="start" x="118.5" y="-70.5" font-family="Helvetica,sans-Serif" font-size="10.00"> </text>
<text text-anchor="start" x="4" y="-54.5" font-family="Helvetica,sans-Serif" font-size="10.00">+</text>
<text text-anchor="start" x="14" y="-54.5" font-family="Helvetica,sans-Serif" font-size="10.00">AirCraft()</text>
<text text-anchor="start" x="4" y="-38.5" font-family="Helvetica,sans-Serif" font-size="10.00">+</text>
<text text-anchor="start" x="14" y="-38.5" font-family="Helvetica,sans-Serif" font-size="10.00">~AirCraft()</text>
<text text-anchor="start" x="4" y="-22.5" font-family="Helvetica,sans-Serif" font-size="10.00">+</text>
<text text-anchor="start" x="14" y="-22.5" font-family="Helvetica,sans-Serif" font-size="10.00">void update(sf::Time t_deltaTime) override</text>
<text text-anchor="start" x="4" y="-6.5" font-family="Helvetica,sans-Serif" font-size="10.00">+</text>
<text text-anchor="start" x="14" y="-6.5" font-family="Helvetica,sans-Serif" font-size="10.00">void render(sf::RenderWindow &amp;m_window) override</text>
<polygon fill="#666666" stroke="#666666" points="0,-82 0,-82 240,-82 240,-82 0,-82"/>
<polygon fill="#666666" stroke="#666666" points="0,-66 0,-66 240,-66 240,-66 0,-66"/>
<polygon fill="none" stroke="#666666" points="0,0 0,-100 240,-100 240,0 0,0"/>
</a>
</g>
</g>
<!-- Node1&#45;&gt;Node2 -->
<g id="edge1_Node000001_Node000002" class="edge">
<title>Node1&#45;&gt;Node2</title>
<g id="a_edge1_Node000001_Node000002"><a xlink:title=" ">
<path fill="none" stroke="#63b8ff" d="M503.81,-317.29C403.94,-248 270.77,-155.61 190.42,-99.86"/>
<polygon fill="none" stroke="#63b8ff" points="501.61,-320.02 511.82,-322.84 505.6,-314.27 501.61,-320.02"/>
</a>
</g>
</g>
<!-- Node3 -->
<g id="Node000003" class="node">
<title>Node3</title>
<g id="a_Node000003"><a xlink:href="class_barracks.html" target="_top" xlink:title=" ">
<polygon fill="white" stroke="none" points="498,-100 258,-100 258,0 498,0 498,-100"/>
<text text-anchor="start" x="358.5" y="-86.5" font-family="Helvetica,sans-Serif" font-size="10.00">Barracks</text>
<text text-anchor="start" x="376.5" y="-70.5" font-family="Helvetica,sans-Serif" font-size="10.00"> </text>
<text text-anchor="start" x="262" y="-54.5" font-family="Helvetica,sans-Serif" font-size="10.00">+</text>
<text text-anchor="start" x="272" y="-54.5" font-family="Helvetica,sans-Serif" font-size="10.00">Barracks()</text>
<text text-anchor="start" x="262" y="-38.5" font-family="Helvetica,sans-Serif" font-size="10.00">+</text>
<text text-anchor="start" x="272" y="-38.5" font-family="Helvetica,sans-Serif" font-size="10.00">~Barracks()</text>
<text text-anchor="start" x="262" y="-22.5" font-family="Helvetica,sans-Serif" font-size="10.00">+</text>
<text text-anchor="start" x="272" y="-22.5" font-family="Helvetica,sans-Serif" font-size="10.00">void update(sf::Time t_deltaTime) override</text>
<text text-anchor="start" x="262" y="-6.5" font-family="Helvetica,sans-Serif" font-size="10.00">+</text>
<text text-anchor="start" x="272" y="-6.5" font-family="Helvetica,sans-Serif" font-size="10.00">void render(sf::RenderWindow &amp;m_window) override</text>
<polygon fill="#666666" stroke="#666666" points="258,-82 258,-82 498,-82 498,-82 258,-82"/>
<polygon fill="#666666" stroke="#666666" points="258,-66 258,-66 498,-66 498,-66 258,-66"/>
<polygon fill="none" stroke="#666666" points="258,0 258,-100 498,-100 498,0 258,0"/>
</a>
</g>
</g>
<!-- Node1&#45;&gt;Node3 -->
<g id="edge2_Node000001_Node000003" class="edge">
<title>Node1&#45;&gt;Node3</title>
<g id="a_edge2_Node000001_Node000003"><a xlink:title=" ">
<path fill="none" stroke="#63b8ff" d="M506.39,-229.16C471.98,-181.4 437.62,-133.72 413.11,-99.72"/>
<polygon fill="none" stroke="#63b8ff" points="503.47,-231.09 512.16,-237.16 509.15,-227 503.47,-231.09"/>
</a>
</g>
</g>
<!-- Node4 -->
<g id="Node000004" class="node">
<title>Node4</title>
<g id="a_Node000004"><a xlink:href="class_headquarters.html" target="_top" xlink:title=" ">
<polygon fill="white" stroke="none" points="756,-100 516,-100 516,0 756,0 756,-100"/>
<text text-anchor="start" x="607.12" y="-86.5" font-family="Helvetica,sans-Serif" font-size="10.00">Headquarters</text>
<text text-anchor="start" x="634.5" y="-70.5" font-family="Helvetica,sans-Serif" font-size="10.00"> </text>
<text text-anchor="start" x="520" y="-54.5" font-family="Helvetica,sans-Serif" font-size="10.00">+</text>
<text text-anchor="start" x="530" y="-54.5" font-family="Helvetica,sans-Serif" font-size="10.00">Headquarters()</text>
<text text-anchor="start" x="520" y="-38.5" font-family="Helvetica,sans-Serif" font-size="10.00">+</text>
<text text-anchor="start" x="530" y="-38.5" font-family="Helvetica,sans-Serif" font-size="10.00">~Headquarters()</text>
<text text-anchor="start" x="520" y="-22.5" font-family="Helvetica,sans-Serif" font-size="10.00">+</text>
<text text-anchor="start" x="530" y="-22.5" font-family="Helvetica,sans-Serif" font-size="10.00">void update(sf::Time t_deltaTime) override</text>
<text text-anchor="start" x="520" y="-6.5" font-family="Helvetica,sans-Serif" font-size="10.00">+</text>
<text text-anchor="start" x="530" y="-6.5" font-family="Helvetica,sans-Serif" font-size="10.00">void render(sf::RenderWindow &amp;m_window) override</text>
<polygon fill="#666666" stroke="#666666" points="516,-82 516,-82 756,-82 756,-82 516,-82"/>
<polygon fill="#666666" stroke="#666666" points="516,-66 516,-66 756,-66 756,-66 516,-66"/>
<polygon fill="none" stroke="#666666" points="516,0 516,-100 756,-100 756,0 516,0"/>
</a>
</g>
</g>
<!-- Node1&#45;&gt;Node4 -->
<g id="edge3_Node000001_Node000004" class="edge">
<title>Node1&#45;&gt;Node4</title>
<g id="a_edge3_Node000001_Node000004"><a xlink:title=" ">
<path fill="none" stroke="#63b8ff" d="M636,-125.04C636,-116.02 636,-107.56 636,-99.8"/>
<polygon fill="none" stroke="#63b8ff" points="632.5,-124.78 636,-134.78 639.5,-124.78 632.5,-124.78"/>
</a>
</g>
</g>
<!-- Node5 -->
<g id="Node000005" class="node">
<title>Node5</title>
<g id="a_Node000005"><a xlink:href="class_refinery.html" target="_top" xlink:title=" ">
<polygon fill="white" stroke="none" points="1014,-100 774,-100 774,0 1014,0 1014,-100"/>
<text text-anchor="start" x="876.38" y="-86.5" font-family="Helvetica,sans-Serif" font-size="10.00">Refinery</text>
<text text-anchor="start" x="892.5" y="-70.5" font-family="Helvetica,sans-Serif" font-size="10.00"> </text>
<text text-anchor="start" x="778" y="-54.5" font-family="Helvetica,sans-Serif" font-size="10.00">+</text>
<text text-anchor="start" x="788" y="-54.5" font-family="Helvetica,sans-Serif" font-size="10.00">Refinery()</text>
<text text-anchor="start" x="778" y="-38.5" font-family="Helvetica,sans-Serif" font-size="10.00">+</text>
<text text-anchor="start" x="788" y="-38.5" font-family="Helvetica,sans-Serif" font-size="10.00">~Refinery()</text>
<text text-anchor="start" x="778" y="-22.5" font-family="Helvetica,sans-Serif" font-size="10.00">+</text>
<text text-anchor="start" x="788" y="-22.5" font-family="Helvetica,sans-Serif" font-size="10.00">void update(sf::Time t_deltaTime) override</text>
<text text-anchor="start" x="778" y="-6.5" font-family="Helvetica,sans-Serif" font-size="10.00">+</text>
<text text-anchor="start" x="788" y="-6.5" font-family="Helvetica,sans-Serif" font-size="10.00">void render(sf::RenderWindow &amp;m_window) override</text>
<polygon fill="#666666" stroke="#666666" points="774,-82 774,-82 1014,-82 1014,-82 774,-82"/>
<polygon fill="#666666" stroke="#666666" points="774,-66 774,-66 1014,-66 1014,-66 774,-66"/>
<polygon fill="none" stroke="#666666" points="774,0 774,-100 1014,-100 1014,0 774,0"/>
</a>
</g>
</g>
<!-- Node1&#45;&gt;Node5 -->
<g id="edge4_Node000001_Node000005" class="edge">
<title>Node1&#45;&gt;Node5</title>
<g id="a_edge4_Node000001_Node000005"><a xlink:title=" ">
<path fill="none" stroke="#63b8ff" d="M765.61,-229.16C800.02,-181.4 834.38,-133.72 858.89,-99.72"/>
<polygon fill="none" stroke="#63b8ff" points="762.85,-227 759.84,-237.16 768.53,-231.09 762.85,-227"/>
</a>
</g>
</g>
<!-- Node6 -->
<g id="Node000006" class="node">
<title>Node6</title>
<g id="a_Node000006"><a xlink:href="class_war_factory.html" target="_top" xlink:title=" ">
<polygon fill="white" stroke="none" points="1272,-100 1032,-100 1032,0 1272,0 1272,-100"/>
<text text-anchor="start" x="1126.5" y="-86.5" font-family="Helvetica,sans-Serif" font-size="10.00">WarFactory</text>
<text text-anchor="start" x="1150.5" y="-70.5" font-family="Helvetica,sans-Serif" font-size="10.00"> </text>
<text text-anchor="start" x="1036" y="-54.5" font-family="Helvetica,sans-Serif" font-size="10.00">+</text>
<text text-anchor="start" x="1046" y="-54.5" font-family="Helvetica,sans-Serif" font-size="10.00">WarFactory()</text>
<text text-anchor="start" x="1036" y="-38.5" font-family="Helvetica,sans-Serif" font-size="10.00">+</text>
<text text-anchor="start" x="1046" y="-38.5" font-family="Helvetica,sans-Serif" font-size="10.00">~WarFactory()</text>
<text text-anchor="start" x="1036" y="-22.5" font-family="Helvetica,sans-Serif" font-size="10.00">+</text>
<text text-anchor="start" x="1046" y="-22.5" font-family="Helvetica,sans-Serif" font-size="10.00">void update(sf::Time t_deltaTime) override</text>
<text text-anchor="start" x="1036" y="-6.5" font-family="Helvetica,sans-Serif" font-size="10.00">+</text>
<text text-anchor="start" x="1046" y="-6.5" font-family="Helvetica,sans-Serif" font-size="10.00">void render(sf::RenderWindow &amp;m_window) override</text>
<polygon fill="#666666" stroke="#666666" points="1032,-82 1032,-82 1272,-82 1272,-82 1032,-82"/>
<polygon fill="#666666" stroke="#666666" points="1032,-66 1032,-66 1272,-66 1272,-66 1032,-66"/>
<polygon fill="none" stroke="#666666" points="1032,0 1032,-100 1272,-100 1272,0 1032,0"/>
</a>
</g>
</g>
<!-- Node1&#45;&gt;Node6 -->
<g id="edge5_Node000001_Node000006" class="edge">
<title>Node1&#45;&gt;Node6</title>
<g id="a_edge5_Node000001_Node000006"><a xlink:title=" ">
<path fill="none" stroke="#63b8ff" d="M768.19,-317.29C868.06,-248 1001.23,-155.61 1081.58,-99.86"/>
<polygon fill="none" stroke="#63b8ff" points="766.4,-314.27 760.18,-322.84 770.39,-320.02 766.4,-314.27"/>
</a>
</g>
</g>
</g>
</svg>

<g id="navigator" transform="translate(0 0)" fill="#404254">
  <rect fill="#f2f5e9" fill-opacity="0.5" stroke="#606060" stroke-width=".5" x="0" y="0" width="60" height="60"/>
  <use id="zoomplus" xlink:href="#zoomPlus" x="17" y="9" onmousedown="handleZoom(evt,'in')"/>
  <use id="zoomminus" xlink:href="#zoomMin" x="42" y="9" onmousedown="handleZoom(evt,'out')"/>
  <use id="reset" xlink:href="#resetDef" x="30" y="36" onmousedown="handleReset()"/>
   <use id="arrowup" xlink:href="#arrowUp" x="0" y="0" onmousedown="handlePan(0,-1)"/>
  <use id="arrowright" xlink:href="#arrowRight" x="0" y="0" onmousedown="handlePan(1,0)"/>
  <use id="arrowdown" xlink:href="#arrowDown" x="0" y="0" onmousedown="handlePan(0,1)"/>
  <use id="arrowleft" xlink:href="#arrowLeft" x="0" y="0" onmousedown="handlePan(-1,0)"/>
</g>
<svg viewBox="0 0 15 15" width="100%" height="30px" preserveAspectRatio="xMaxYMin meet">
 <g id="arrow_out" transform="scale(0.3 0.3)">
  <a xlink:href="class_building__inherit__graph_org.svg" target="_base">
   <rect id="button" ry="5" rx="5" y="6" x="6" height="38" width="38"
        fill="#f2f5e9" fill-opacity="0.5" stroke="#606060" stroke-width="1.0"/>
   <path id="arrow"
     d="M 11.500037,31.436501 C 11.940474,20.09759 22.043105,11.32322 32.158766,21.979434 L 37.068811,17.246167 C 37.068811,17.246167 37.088388,32 37.088388,32 L 22.160133,31.978069 C 22.160133,31.978069 26.997745,27.140456 26.997745,27.140456 C 18.528582,18.264221 13.291696,25.230495 11.500037,31.436501 z"
     style="fill:#404040;"/>
  </a>
 </g>
</svg>

<style type='text/css'>
<![CDATA[
[data-mouse-over-selected='false'] { opacity: 0.7; }
[data-mouse-over-selected='true']  { opacity: 1.0; }
]]>
</style>
<script type="application/ecmascript"><![CDATA[
document.addEventListener('DOMContentLoaded', (event) => {
  highlightEdges();
  highlightAdjacentNodes();
});
]]></script>
</svg>
