<?xml version="1.0" encoding="UTF-8" standalone="no"?>
<!DOCTYPE svg PUBLIC "-//W3C//DTD SVG 1.1//EN"
 "http://www.w3.org/Graphics/SVG/1.1/DTD/svg11.dtd">
<!-- Generated by graphviz version 10.0.1 (20240210.2158)
 -->
<!-- Title: Graphical Class Hierarchy Pages: 1 -->
<svg width="260pt" height="218pt"
 viewBox="0.00 0.00 260.00 218.00" xmlns="http://www.w3.org/2000/svg" xmlns:xlink="http://www.w3.org/1999/xlink">
<g id="graph0" class="graph" transform="scale(1 1) rotate(0) translate(4 214)">
<title>Graphical Class Hierarchy</title>
<!-- Node0 -->
<g id="Node000000" class="node">
<title>Node0</title>
<g id="a_Node000000"><a xlink:href="class_unit.html" target="_top" xlink:title=" ">
<polygon fill="white" stroke="#666666" points="33.25,-134 0,-134 0,-114 33.25,-114 33.25,-134"/>
<text text-anchor="middle" x="16.62" y="-120.5" font-family="Helvetica,sans-Serif" font-size="10.00">Unit</text>
</a>
</g>
</g>
<!-- Node1 -->
<g id="Node000001" class="node">
<title>Node1</title>
<g id="a_Node000001"><a xlink:href="class_aircraft_unit.html" target="_top" xlink:title=" ">
<polygon fill="white" stroke="#666666" points="134,-172 70,-172 70,-152 134,-152 134,-172"/>
<text text-anchor="middle" x="102" y="-158.5" font-family="Helvetica,sans-Serif" font-size="10.00">AircraftUnit</text>
</a>
</g>
</g>
<!-- Node0&#45;&gt;Node1 -->
<g id="edge6_Node000000_Node000001" class="edge">
<title>Node0&#45;&gt;Node1</title>
<g id="a_edge6_Node000000_Node000001"><a xlink:title=" ">
<path fill="none" stroke="#63b8ff" d="M43.96,-136C54.9,-140.99 67.48,-146.72 78.04,-151.53"/>
<polygon fill="#63b8ff" stroke="#63b8ff" points="45.63,-132.92 35.08,-131.95 42.73,-139.29 45.63,-132.92"/>
</a>
</g>
</g>
<!-- Node4 -->
<g id="Node000004" class="node">
<title>Node4</title>
<g id="a_Node000004"><a xlink:href="class_infantry_unit.html" target="_top" xlink:title=" ">
<polygon fill="white" stroke="#666666" points="134.38,-134 69.62,-134 69.62,-114 134.38,-114 134.38,-134"/>
<text text-anchor="middle" x="102" y="-120.5" font-family="Helvetica,sans-Serif" font-size="10.00">InfantryUnit</text>
</a>
</g>
</g>
<!-- Node0&#45;&gt;Node4 -->
<g id="edge9_Node000000_Node000004" class="edge">
<title>Node0&#45;&gt;Node4</title>
<g id="a_edge9_Node000000_Node000004"><a xlink:title=" ">
<path fill="none" stroke="#63b8ff" d="M45.13,-124C52.91,-124 61.44,-124 69.43,-124"/>
<polygon fill="#63b8ff" stroke="#63b8ff" points="45.21,-120.5 35.21,-124 45.21,-127.5 45.21,-120.5"/>
</a>
</g>
</g>
<!-- Node6 -->
<g id="Node000006" class="node">
<title>Node6</title>
<g id="a_Node000006"><a xlink:href="class_vehicle_unit.html" target="_top" xlink:title=" ">
<polygon fill="white" stroke="#666666" points="134.75,-77 69.25,-77 69.25,-57 134.75,-57 134.75,-77"/>
<text text-anchor="middle" x="102" y="-63.5" font-family="Helvetica,sans-Serif" font-size="10.00">VehicleUnit</text>
</a>
</g>
</g>
<!-- Node0&#45;&gt;Node6 -->
<g id="edge11_Node000000_Node000006" class="edge">
<title>Node0&#45;&gt;Node6</title>
<g id="a_edge11_Node000000_Node000006"><a xlink:title=" ">
<path fill="none" stroke="#63b8ff" d="M42.1,-107.27C56.25,-97.59 73.61,-85.73 85.8,-77.39"/>
<polygon fill="#63b8ff" stroke="#63b8ff" points="40.45,-104.16 34.17,-112.69 44.4,-109.94 40.45,-104.16"/>
</a>
</g>
</g>
<!-- Node2 -->
<g id="Node000002" class="node">
<title>Node2</title>
<g id="a_Node000002"><a xlink:href="class_firehawk.html" target="_top" xlink:title=" ">
<polygon fill="white" stroke="#666666" points="238.88,-210 183.88,-210 183.88,-190 238.88,-190 238.88,-210"/>
<text text-anchor="middle" x="211.38" y="-196.5" font-family="Helvetica,sans-Serif" font-size="10.00">Firehawk</text>
</a>
</g>
</g>
<!-- Node1&#45;&gt;Node2 -->
<g id="edge7_Node000001_Node000002" class="edge">
<title>Node1&#45;&gt;Node2</title>
<g id="a_edge7_Node000001_Node000002"><a xlink:title=" ">
<path fill="none" stroke="#63b8ff" d="M143.08,-176.19C156.54,-180.95 171.22,-186.14 183.42,-190.46"/>
<polygon fill="#63b8ff" stroke="#63b8ff" points="144.65,-173.03 134.05,-172.99 142.31,-179.62 144.65,-173.03"/>
</a>
</g>
</g>
<!-- Node3 -->
<g id="Node000003" class="node">
<title>Node3</title>
<g id="a_Node000003"><a xlink:href="class_hammer_head.html" target="_top" xlink:title=" ">
<polygon fill="white" stroke="#666666" points="249,-172 173.75,-172 173.75,-152 249,-152 249,-172"/>
<text text-anchor="middle" x="211.38" y="-158.5" font-family="Helvetica,sans-Serif" font-size="10.00">HammerHead</text>
</a>
</g>
</g>
<!-- Node1&#45;&gt;Node3 -->
<g id="edge8_Node000001_Node000003" class="edge">
<title>Node1&#45;&gt;Node3</title>
<g id="a_edge8_Node000001_Node000003"><a xlink:title=" ">
<path fill="none" stroke="#63b8ff" d="M145.68,-162C154.88,-162 164.53,-162 173.49,-162"/>
<polygon fill="#63b8ff" stroke="#63b8ff" points="145.86,-158.5 135.86,-162 145.86,-165.5 145.86,-158.5"/>
</a>
</g>
</g>
<!-- Node5 -->
<g id="Node000005" class="node">
<title>Node5</title>
<g id="a_Node000005"><a xlink:href="class_rifleman_squad.html" target="_top" xlink:title=" ">
<polygon fill="white" stroke="#666666" points="252,-134 170.75,-134 170.75,-114 252,-114 252,-134"/>
<text text-anchor="middle" x="211.38" y="-120.5" font-family="Helvetica,sans-Serif" font-size="10.00">RiflemanSquad</text>
</a>
</g>
</g>
<!-- Node4&#45;&gt;Node5 -->
<g id="edge10_Node000004_Node000005" class="edge">
<title>Node4&#45;&gt;Node5</title>
<g id="a_edge10_Node000004_Node000005"><a xlink:title=" ">
<path fill="none" stroke="#63b8ff" d="M146.13,-124C154.21,-124 162.61,-124 170.57,-124"/>
<polygon fill="#63b8ff" stroke="#63b8ff" points="146.15,-120.5 136.15,-124 146.15,-127.5 146.15,-120.5"/>
</a>
</g>
</g>
<!-- Node7 -->
<g id="Node000007" class="node">
<title>Node7</title>
<g id="a_Node000007"><a xlink:href="class_buggy.html" target="_top" xlink:title=" ">
<polygon fill="white" stroke="#666666" points="233.25,-96 189.5,-96 189.5,-76 233.25,-76 233.25,-96"/>
<text text-anchor="middle" x="211.38" y="-82.5" font-family="Helvetica,sans-Serif" font-size="10.00">Buggy</text>
</a>
</g>
</g>
<!-- Node6&#45;&gt;Node7 -->
<g id="edge12_Node000006_Node000007" class="edge">
<title>Node6&#45;&gt;Node7</title>
<g id="a_edge12_Node000006_Node000007"><a xlink:title=" ">
<path fill="none" stroke="#63b8ff" d="M146.2,-74.64C160.95,-77.25 176.79,-80.06 189.05,-82.23"/>
<polygon fill="#63b8ff" stroke="#63b8ff" points="147.16,-71.26 136.71,-72.96 145.94,-78.15 147.16,-71.26"/>
</a>
</g>
</g>
<!-- Node8 -->
<g id="Node000008" class="node">
<title>Node8</title>
<g id="a_Node000008"><a xlink:href="class_harvester.html" target="_top" xlink:title=" ">
<polygon fill="white" stroke="#666666" points="239.62,-58 183.12,-58 183.12,-38 239.62,-38 239.62,-58"/>
<text text-anchor="middle" x="211.38" y="-44.5" font-family="Helvetica,sans-Serif" font-size="10.00">Harvester</text>
</a>
</g>
</g>
<!-- Node6&#45;&gt;Node8 -->
<g id="edge13_Node000006_Node000008" class="edge">
<title>Node6&#45;&gt;Node8</title>
<g id="a_edge13_Node000006_Node000008"><a xlink:title=" ">
<path fill="none" stroke="#63b8ff" d="M146.27,-59.34C158.64,-57.16 171.76,-54.83 182.9,-52.86"/>
<polygon fill="#63b8ff" stroke="#63b8ff" points="145.94,-55.85 136.71,-61.04 147.16,-62.74 145.94,-55.85"/>
</a>
</g>
</g>
<!-- Node9 -->
<g id="Node000009" class="node">
<title>Node9</title>
<g id="a_Node000009"><a xlink:href="class_tank_aurora.html" target="_top" xlink:title=" ">
<polygon fill="white" stroke="#666666" points="244.12,-20 178.62,-20 178.62,0 244.12,0 244.12,-20"/>
<text text-anchor="middle" x="211.38" y="-6.5" font-family="Helvetica,sans-Serif" font-size="10.00">TankAurora</text>
</a>
</g>
</g>
<!-- Node6&#45;&gt;Node9 -->
<g id="edge14_Node000006_Node000009" class="edge">
<title>Node6&#45;&gt;Node9</title>
<g id="a_edge14_Node000006_Node000009"><a xlink:title=" ">
<path fill="none" stroke="#63b8ff" d="M130.93,-50.8C143.07,-43.9 157.51,-35.88 170.75,-29 176.3,-26.12 182.36,-23.13 188.04,-20.4"/>
<polygon fill="#63b8ff" stroke="#63b8ff" points="129.2,-47.76 122.26,-55.77 132.68,-53.84 129.2,-47.76"/>
</a>
</g>
</g>
</g>
</svg>
