<?xml version="1.0" encoding="UTF-8" standalone="no"?>
<!DOCTYPE svg PUBLIC "-//W3C//DTD SVG 1.1//EN"
 "http://www.w3.org/Graphics/SVG/1.1/DTD/svg11.dtd">
<!-- Generated by graphviz version 10.0.1 (20240210.2158)
 -->
<!-- Title: Graphical Class Hierarchy Pages: 1 -->
<svg width="168pt" height="180pt"
 viewBox="0.00 0.00 168.25 180.00" xmlns="http://www.w3.org/2000/svg" xmlns:xlink="http://www.w3.org/1999/xlink">
<g id="graph0" class="graph" transform="scale(1 1) rotate(0) translate(4 176)">
<title>Graphical Class Hierarchy</title>
<!-- Node0 -->
<g id="Node000000" class="node">
<title>Node0</title>
<g id="a_Node000000"><a xlink:href="class_building.html" target="_top" xlink:title=" ">
<polygon fill="white" stroke="#666666" points="50.5,-96 0,-96 0,-76 50.5,-76 50.5,-96"/>
<text text-anchor="middle" x="25.25" y="-82.5" font-family="Helvetica,sans-Serif" font-size="10.00">Building</text>
</a>
</g>
</g>
<!-- Node1 -->
<g id="Node000001" class="node">
<title>Node1</title>
<g id="a_Node000001"><a xlink:href="class_air_craft.html" target="_top" xlink:title=" ">
<polygon fill="white" stroke="#666666" points="147.5,-172 99.25,-172 99.25,-152 147.5,-152 147.5,-172"/>
<text text-anchor="middle" x="123.38" y="-158.5" font-family="Helvetica,sans-Serif" font-size="10.00">AirCraft</text>
</a>
</g>
</g>
<!-- Node0&#45;&gt;Node1 -->
<g id="edge1_Node000000_Node000001" class="edge">
<title>Node0&#45;&gt;Node1</title>
<g id="a_edge1_Node000000_Node000001"><a xlink:title=" ">
<path fill="none" stroke="#63b8ff" d="M43.2,-104.45C54.7,-116.33 70.65,-131.63 86.5,-143 90.85,-146.12 95.78,-149.07 100.56,-151.66"/>
<polygon fill="#63b8ff" stroke="#63b8ff" points="45.8,-102.1 36.39,-97.24 40.72,-106.91 45.8,-102.1"/>
</a>
</g>
</g>
<!-- Node2 -->
<g id="Node000002" class="node">
<title>Node2</title>
<g id="a_Node000002"><a xlink:href="class_barracks.html" target="_top" xlink:title=" ">
<polygon fill="white" stroke="#666666" points="150.88,-134 95.88,-134 95.88,-114 150.88,-114 150.88,-134"/>
<text text-anchor="middle" x="123.38" y="-120.5" font-family="Helvetica,sans-Serif" font-size="10.00">Barracks</text>
</a>
</g>
</g>
<!-- Node0&#45;&gt;Node2 -->
<g id="edge2_Node000000_Node000002" class="edge">
<title>Node0&#45;&gt;Node2</title>
<g id="a_edge2_Node000000_Node000002"><a xlink:title=" ">
<path fill="none" stroke="#63b8ff" d="M61.29,-99.85C72.71,-104.37 85.2,-109.3 95.89,-113.53"/>
<polygon fill="#63b8ff" stroke="#63b8ff" points="62.75,-96.67 52.16,-96.24 60.18,-103.18 62.75,-96.67"/>
</a>
</g>
</g>
<!-- Node3 -->
<g id="Node000003" class="node">
<title>Node3</title>
<g id="a_Node000003"><a xlink:href="class_headquarters.html" target="_top" xlink:title=" ">
<polygon fill="white" stroke="#666666" points="160.25,-96 86.5,-96 86.5,-76 160.25,-76 160.25,-96"/>
<text text-anchor="middle" x="123.38" y="-82.5" font-family="Helvetica,sans-Serif" font-size="10.00">Headquarters</text>
</a>
</g>
</g>
<!-- Node0&#45;&gt;Node3 -->
<g id="edge3_Node000000_Node000003" class="edge">
<title>Node0&#45;&gt;Node3</title>
<g id="a_edge3_Node000000_Node000003"><a xlink:title=" ">
<path fill="none" stroke="#63b8ff" d="M62.22,-86C70.09,-86 78.43,-86 86.3,-86"/>
<polygon fill="#63b8ff" stroke="#63b8ff" points="62.27,-82.5 52.27,-86 62.27,-89.5 62.27,-82.5"/>
</a>
</g>
</g>
<!-- Node4 -->
<g id="Node000004" class="node">
<title>Node4</title>
<g id="a_Node000004"><a xlink:href="class_refinery.html" target="_top" xlink:title=" ">
<polygon fill="white" stroke="#666666" points="149,-58 97.75,-58 97.75,-38 149,-38 149,-58"/>
<text text-anchor="middle" x="123.38" y="-44.5" font-family="Helvetica,sans-Serif" font-size="10.00">Refinery</text>
</a>
</g>
</g>
<!-- Node0&#45;&gt;Node4 -->
<g id="edge4_Node000000_Node000004" class="edge">
<title>Node0&#45;&gt;Node4</title>
<g id="a_edge4_Node000000_Node000004"><a xlink:title=" ">
<path fill="none" stroke="#63b8ff" d="M61.36,-72.12C73.38,-67.37 86.55,-62.16 97.58,-57.8"/>
<polygon fill="#63b8ff" stroke="#63b8ff" points="60.18,-68.82 52.16,-75.76 62.75,-75.33 60.18,-68.82"/>
</a>
</g>
</g>
<!-- Node5 -->
<g id="Node000005" class="node">
<title>Node5</title>
<g id="a_Node000005"><a xlink:href="class_war_factory.html" target="_top" xlink:title=" ">
<polygon fill="white" stroke="#666666" points="156.88,-20 89.88,-20 89.88,0 156.88,0 156.88,-20"/>
<text text-anchor="middle" x="123.38" y="-6.5" font-family="Helvetica,sans-Serif" font-size="10.00">WarFactory</text>
</a>
</g>
</g>
<!-- Node0&#45;&gt;Node5 -->
<g id="edge5_Node000000_Node000005" class="edge">
<title>Node0&#45;&gt;Node5</title>
<g id="a_edge5_Node000000_Node000005"><a xlink:title=" ">
<path fill="none" stroke="#63b8ff" d="M43.2,-67.55C54.7,-55.67 70.65,-40.37 86.5,-29 90.85,-25.88 95.78,-22.93 100.56,-20.34"/>
<polygon fill="#63b8ff" stroke="#63b8ff" points="40.72,-65.09 36.39,-74.76 45.8,-69.9 40.72,-65.09"/>
</a>
</g>
</g>
</g>
</svg>
